<?xml version="1.0" encoding="UTF-8" standalone="no"?>
<!-- Created with Inkscape (http://www.inkscape.org/) -->

<svg
   xmlns:dc="http://purl.org/dc/elements/1.1/"
   xmlns:cc="http://creativecommons.org/ns#"
   xmlns:rdf="http://www.w3.org/1999/02/22-rdf-syntax-ns#"
   xmlns:svg="http://www.w3.org/2000/svg"
   xmlns="http://www.w3.org/2000/svg"
   xmlns:sodipodi="http://sodipodi.sourceforge.net/DTD/sodipodi-0.dtd"
   xmlns:inkscape="http://www.inkscape.org/namespaces/inkscape"
   width="8.8179779mm"
   height="8.4508076mm"
   viewBox="0 0 8.8179779 8.4508076"
   version="1.1"
   id="svg94701"
   inkscape:version="0.92.3 (2405546, 2018-03-11)"
   sodipodi:docname="MeepleNormal_black_f.svg">
  <defs
     id="defs94695">
    <clipPath
       clipPathUnits="userSpaceOnUse"
       id="clipPath7301">
      <path
         d="m 32.238,198.078 h 24.691 v 24.879 H 32.238 Z"
         id="path7299"
         inkscape:connector-curvature="0" />
    </clipPath>
    <clipPath
       clipPathUnits="userSpaceOnUse"
       id="clipPath7311">
      <path
         d="M 0,0 H 576 V 903 H 0 Z"
         id="path7309"
         inkscape:connector-curvature="0" />
    </clipPath>
    <clipPath
       clipPathUnits="userSpaceOnUse"
       id="clipPath7321">
      <path
         d="m 44.473,218.129 h 4.883 v 2.953 h -4.883 z"
         id="path7319"
         inkscape:connector-curvature="0" />
    </clipPath>
    <clipPath
       clipPathUnits="userSpaceOnUse"
       id="clipPath7331">
      <path
         d="M 0,0 H 576 V 903 H 0 Z"
         id="path7329"
         inkscape:connector-curvature="0" />
    </clipPath>
    <clipPath
       clipPathUnits="userSpaceOnUse"
       id="clipPath7341">
      <path
         d="m 44,218 h 6 v 4 h -6 z"
         id="path7339"
         inkscape:connector-curvature="0" />
    </clipPath>
    <clipPath
       clipPathUnits="userSpaceOnUse"
       id="clipPath7347">
      <path
         d="m 49.355,221.082 -4.273,-2.324 c -0.207,-0.113 -0.426,-0.305 -0.605,-0.629 l 4.273,2.324 c 0.184,0.328 0.402,0.52 0.605,0.629"
         id="path7345"
         inkscape:connector-curvature="0" />
    </clipPath>
    <clipPath
       clipPathUnits="userSpaceOnUse"
       id="clipPath7357">
      <path
         d="M 0,0 H 576 V 903 H 0 Z"
         id="path7355"
         inkscape:connector-curvature="0" />
    </clipPath>
    <clipPath
       clipPathUnits="userSpaceOnUse"
       id="clipPath7367">
      <path
         d="m 44.473,218.129 h 4.883 v 2.953 h -4.883 z"
         id="path7365"
         inkscape:connector-curvature="0" />
    </clipPath>
    <clipPath
       clipPathUnits="userSpaceOnUse"
       id="clipPath7377">
      <path
         d="M 0,0 H 576 V 903 H 0 Z"
         id="path7375"
         inkscape:connector-curvature="0" />
    </clipPath>
    <clipPath
       clipPathUnits="userSpaceOnUse"
       id="clipPath7389">
      <path
         d="m 42.918,215.418 h 5.832 v 5.035 h -5.832 z"
         id="path7387"
         inkscape:connector-curvature="0" />
    </clipPath>
    <clipPath
       clipPathUnits="userSpaceOnUse"
       id="clipPath7399">
      <path
         d="M 0,0 H 576 V 903 H 0 Z"
         id="path7397"
         inkscape:connector-curvature="0" />
    </clipPath>
    <clipPath
       clipPathUnits="userSpaceOnUse"
       id="clipPath7409">
      <path
         d="m 42,215 h 7 v 6 h -7 z"
         id="path7407"
         inkscape:connector-curvature="0" />
    </clipPath>
    <clipPath
       clipPathUnits="userSpaceOnUse"
       id="clipPath7415">
      <path
         d="m 48.75,220.453 -4.273,-2.324 c -0.063,-0.102 -1.2,-2.012 -1.559,-2.711 l 4.277,2.324 c 0.36,0.703 1.496,2.613 1.555,2.711"
         id="path7413"
         inkscape:connector-curvature="0" />
    </clipPath>
    <clipPath
       clipPathUnits="userSpaceOnUse"
       id="clipPath7425">
      <path
         d="M 0,0 H 576 V 903 H 0 Z"
         id="path7423"
         inkscape:connector-curvature="0" />
    </clipPath>
    <clipPath
       clipPathUnits="userSpaceOnUse"
       id="clipPath7435">
      <path
         d="m 42.918,215.418 h 5.832 v 5.035 h -5.832 z"
         id="path7433"
         inkscape:connector-curvature="0" />
    </clipPath>
    <clipPath
       clipPathUnits="userSpaceOnUse"
       id="clipPath7445">
      <path
         d="M 0,0 H 576 V 903 H 0 Z"
         id="path7443"
         inkscape:connector-curvature="0" />
    </clipPath>
    <clipPath
       clipPathUnits="userSpaceOnUse"
       id="clipPath7457">
      <path
         d="m 42.707,215.164 h 4.488 v 2.578 h -4.488 z"
         id="path7455"
         inkscape:connector-curvature="0" />
    </clipPath>
    <clipPath
       clipPathUnits="userSpaceOnUse"
       id="clipPath7467">
      <path
         d="M 0,0 H 576 V 903 H 0 Z"
         id="path7465"
         inkscape:connector-curvature="0" />
    </clipPath>
    <clipPath
       clipPathUnits="userSpaceOnUse"
       id="clipPath7477">
      <path
         d="m 42,215 h 6 v 3 h -6 z"
         id="path7475"
         inkscape:connector-curvature="0" />
    </clipPath>
    <clipPath
       clipPathUnits="userSpaceOnUse"
       id="clipPath7483">
      <path
         d="m 42.707,215.164 4.277,2.324 c 0.118,0.067 0.164,0.172 0.211,0.254 l -4.277,-2.324 c -0.047,-0.082 -0.094,-0.191 -0.211,-0.254"
         id="path7481"
         inkscape:connector-curvature="0" />
    </clipPath>
    <clipPath
       clipPathUnits="userSpaceOnUse"
       id="clipPath7493">
      <path
         d="M 0,0 H 576 V 903 H 0 Z"
         id="path7491"
         inkscape:connector-curvature="0" />
    </clipPath>
    <clipPath
       clipPathUnits="userSpaceOnUse"
       id="clipPath7503">
      <path
         d="m 42.707,215.164 h 4.488 v 2.578 h -4.488 z"
         id="path7501"
         inkscape:connector-curvature="0" />
    </clipPath>
    <clipPath
       clipPathUnits="userSpaceOnUse"
       id="clipPath7513">
      <path
         d="M 0,0 H 576 V 903 H 0 Z"
         id="path7511"
         inkscape:connector-curvature="0" />
    </clipPath>
    <clipPath
       clipPathUnits="userSpaceOnUse"
       id="clipPath7525">
      <path
         d="m 45.828,202.277 h 9.477 v 3.953 h -9.477 z"
         id="path7523"
         inkscape:connector-curvature="0" />
    </clipPath>
    <clipPath
       clipPathUnits="userSpaceOnUse"
       id="clipPath7535">
      <path
         d="M 0,0 H 576 V 903 H 0 Z"
         id="path7533"
         inkscape:connector-curvature="0" />
    </clipPath>
    <clipPath
       clipPathUnits="userSpaceOnUse"
       id="clipPath7545">
      <path
         d="m 45,202 h 11 v 5 H 45 Z"
         id="path7543"
         inkscape:connector-curvature="0" />
    </clipPath>
    <clipPath
       clipPathUnits="userSpaceOnUse"
       id="clipPath7551">
      <path
         d="m 50.105,204.602 -4.277,-2.325 c 0.016,0.004 0.027,0.012 0.047,0.02 0.133,0.039 3.188,0.539 5.152,1.605 l 4.278,2.328 c -1.965,-1.07 -5.024,-1.57 -5.157,-1.609 -0.015,-0.004 -0.031,-0.012 -0.043,-0.019"
         id="path7549"
         inkscape:connector-curvature="0" />
    </clipPath>
    <clipPath
       clipPathUnits="userSpaceOnUse"
       id="clipPath7561">
      <path
         d="M 0,0 H 576 V 903 H 0 Z"
         id="path7559"
         inkscape:connector-curvature="0" />
    </clipPath>
    <clipPath
       clipPathUnits="userSpaceOnUse"
       id="clipPath7571">
      <path
         d="m 45.828,202.277 h 9.477 v 3.953 h -9.477 z"
         id="path7569"
         inkscape:connector-curvature="0" />
    </clipPath>
    <clipPath
       clipPathUnits="userSpaceOnUse"
       id="clipPath7581">
      <path
         d="M 0,0 H 576 V 903 H 0 Z"
         id="path7579"
         inkscape:connector-curvature="0" />
    </clipPath>
    <clipPath
       clipPathUnits="userSpaceOnUse"
       id="clipPath7601">
      <path
         d="m 33.109,219.395 h 4.445 v 3.531 h -4.445 z"
         id="path7599"
         inkscape:connector-curvature="0" />
    </clipPath>
    <clipPath
       clipPathUnits="userSpaceOnUse"
       id="clipPath7611">
      <path
         d="M 0,0 H 576 V 903 H 0 Z"
         id="path7609"
         inkscape:connector-curvature="0" />
    </clipPath>
    <clipPath
       clipPathUnits="userSpaceOnUse"
       id="clipPath7621">
      <path
         d="m 33,219 h 5 v 4 h -5 z"
         id="path7619"
         inkscape:connector-curvature="0" />
    </clipPath>
    <clipPath
       clipPathUnits="userSpaceOnUse"
       id="clipPath7627">
      <path
         d="m 37.555,222.926 c -1.426,-0.778 -2.852,-1.555 -4.278,-2.328 -0.347,-0.192 -0.05,-1.145 -0.031,-1.203 l 4.277,2.328 c -0.019,0.054 -0.316,1.011 0.032,1.203"
         id="path7625"
         inkscape:connector-curvature="0" />
    </clipPath>
    <clipPath
       clipPathUnits="userSpaceOnUse"
       id="clipPath7637">
      <path
         d="M 0,0 H 576 V 903 H 0 Z"
         id="path7635"
         inkscape:connector-curvature="0" />
    </clipPath>
    <clipPath
       clipPathUnits="userSpaceOnUse"
       id="clipPath7647">
      <path
         d="m 33.109,219.395 h 4.445 v 3.531 h -4.445 z"
         id="path7645"
         inkscape:connector-curvature="0" />
    </clipPath>
    <clipPath
       clipPathUnits="userSpaceOnUse"
       id="clipPath7657">
      <path
         d="M 0,0 H 576 V 903 H 0 Z"
         id="path7655"
         inkscape:connector-curvature="0" />
    </clipPath>
    <clipPath
       clipPathUnits="userSpaceOnUse"
       id="clipPath7669">
      <path
         d="m 33.246,210.199 h 7.84 v 11.523 h -7.84 z"
         id="path7667"
         inkscape:connector-curvature="0" />
    </clipPath>
    <clipPath
       clipPathUnits="userSpaceOnUse"
       id="clipPath7679">
      <path
         d="M 0,0 H 576 V 903 H 0 Z"
         id="path7677"
         inkscape:connector-curvature="0" />
    </clipPath>
    <clipPath
       clipPathUnits="userSpaceOnUse"
       id="clipPath7689">
      <path
         d="m 33,210 h 9 v 12 h -9 z"
         id="path7687"
         inkscape:connector-curvature="0" />
    </clipPath>
    <clipPath
       clipPathUnits="userSpaceOnUse"
       id="clipPath7695">
      <path
         d="m 36.598,210.199 4.277,2.328 c 0.215,0.118 0.352,0.414 -0.016,1.145 -0.691,1.367 -2.507,4.719 -3.336,8.051 l -4.277,-2.328 c 0.832,-3.332 2.645,-6.68 3.34,-8.047 0.363,-0.735 0.227,-1.032 0.012,-1.149"
         id="path7693"
         inkscape:connector-curvature="0" />
    </clipPath>
    <clipPath
       clipPathUnits="userSpaceOnUse"
       id="clipPath7705">
      <path
         d="M 0,0 H 576 V 903 H 0 Z"
         id="path7703"
         inkscape:connector-curvature="0" />
    </clipPath>
    <clipPath
       clipPathUnits="userSpaceOnUse"
       id="clipPath7715">
      <path
         d="m 33.246,210.199 h 7.84 v 11.523 h -7.84 z"
         id="path7713"
         inkscape:connector-curvature="0" />
    </clipPath>
    <clipPath
       clipPathUnits="userSpaceOnUse"
       id="clipPath7725">
      <path
         d="M 0,0 H 576 V 903 H 0 Z"
         id="path7723"
         inkscape:connector-curvature="0" />
    </clipPath>
    <clipPath
       clipPathUnits="userSpaceOnUse"
       id="clipPath7741">
      <path
         d="m 42.535,198.078 h 5.941 v 2.645 h -5.941 z"
         id="path7739"
         inkscape:connector-curvature="0" />
    </clipPath>
    <clipPath
       clipPathUnits="userSpaceOnUse"
       id="clipPath7751">
      <path
         d="M 0,0 H 576 V 903 H 0 Z"
         id="path7749"
         inkscape:connector-curvature="0" />
    </clipPath>
    <clipPath
       clipPathUnits="userSpaceOnUse"
       id="clipPath7761">
      <path
         d="m 42,198 h 7 v 3 h -7 z"
         id="path7759"
         inkscape:connector-curvature="0" />
    </clipPath>
    <clipPath
       clipPathUnits="userSpaceOnUse"
       id="clipPath7767">
      <path
         d="m 44.199,198.395 4.278,2.328 c -0.704,-0.387 -1.434,-0.325 -1.664,-0.293 l -4.278,-2.325 c 0.231,-0.035 0.961,-0.093 1.664,0.29"
         id="path7765"
         inkscape:connector-curvature="0" />
    </clipPath>
    <clipPath
       clipPathUnits="userSpaceOnUse"
       id="clipPath7777">
      <path
         d="M 0,0 H 576 V 903 H 0 Z"
         id="path7775"
         inkscape:connector-curvature="0" />
    </clipPath>
    <clipPath
       clipPathUnits="userSpaceOnUse"
       id="clipPath7787">
      <path
         d="m 42.535,198.078 h 5.941 v 2.645 h -5.941 z"
         id="path7785"
         inkscape:connector-curvature="0" />
    </clipPath>
    <clipPath
       clipPathUnits="userSpaceOnUse"
       id="clipPath7797">
      <path
         d="M 0,0 H 576 V 903 H 0 Z"
         id="path7795"
         inkscape:connector-curvature="0" />
    </clipPath>
    <clipPath
       clipPathUnits="userSpaceOnUse"
       id="clipPath7813">
      <path
         d="m 42.461,198.105 h 4.352 v 2.336 h -4.352 z"
         id="path7811"
         inkscape:connector-curvature="0" />
    </clipPath>
    <clipPath
       clipPathUnits="userSpaceOnUse"
       id="clipPath7823">
      <path
         d="M 0,0 H 576 V 903 H 0 Z"
         id="path7821"
         inkscape:connector-curvature="0" />
    </clipPath>
    <clipPath
       clipPathUnits="userSpaceOnUse"
       id="clipPath7833">
      <path
         d="m 42,198 h 5 v 3 h -5 z"
         id="path7831"
         inkscape:connector-curvature="0" />
    </clipPath>
    <clipPath
       clipPathUnits="userSpaceOnUse"
       id="clipPath7839">
      <path
         d="m 46.738,200.441 -4.277,-2.328 c 0.004,0 0.027,-0.004 0.074,-0.008 l 4.278,2.325 c -0.047,0.008 -0.075,0.011 -0.075,0.011"
         id="path7837"
         inkscape:connector-curvature="0" />
    </clipPath>
    <clipPath
       clipPathUnits="userSpaceOnUse"
       id="clipPath7849">
      <path
         d="M 0,0 H 576 V 903 H 0 Z"
         id="path7847"
         inkscape:connector-curvature="0" />
    </clipPath>
    <clipPath
       clipPathUnits="userSpaceOnUse"
       id="clipPath7859">
      <path
         d="m 42.461,198.105 h 4.352 v 2.336 h -4.352 z"
         id="path7857"
         inkscape:connector-curvature="0" />
    </clipPath>
    <clipPath
       clipPathUnits="userSpaceOnUse"
       id="clipPath7869">
      <path
         d="M 0,0 H 576 V 903 H 0 Z"
         id="path7867"
         inkscape:connector-curvature="0" />
    </clipPath>
    <clipPath
       clipPathUnits="userSpaceOnUse"
       id="clipPath7881">
      <path
         d="m 39.168,198.113 h 7.57 v 7.156 h -7.57 z"
         id="path7879"
         inkscape:connector-curvature="0" />
    </clipPath>
    <clipPath
       clipPathUnits="userSpaceOnUse"
       id="clipPath7891">
      <path
         d="M 0,0 H 576 V 903 H 0 Z"
         id="path7889"
         inkscape:connector-curvature="0" />
    </clipPath>
    <clipPath
       clipPathUnits="userSpaceOnUse"
       id="clipPath7901">
      <path
         d="m 39,198 h 8 v 8 h -8 z"
         id="path7899"
         inkscape:connector-curvature="0" />
    </clipPath>
    <clipPath
       clipPathUnits="userSpaceOnUse"
       id="clipPath7907">
      <path
         d="m 43.445,205.27 -4.273,-2.329 c 0.008,-4.179 2.73,-4.75 3.219,-4.816 0.047,-0.008 0.07,-0.008 0.07,-0.012 l 4.277,2.328 c 0,0 -0.023,0.004 -0.074,0.008 -0.484,0.071 -3.211,0.641 -3.219,4.821"
         id="path7905"
         inkscape:connector-curvature="0" />
    </clipPath>
    <clipPath
       clipPathUnits="userSpaceOnUse"
       id="clipPath7917">
      <path
         d="M 0,0 H 576 V 903 H 0 Z"
         id="path7915"
         inkscape:connector-curvature="0" />
    </clipPath>
    <clipPath
       clipPathUnits="userSpaceOnUse"
       id="clipPath7927">
      <path
         d="m 39.168,198.113 h 7.57 v 7.156 h -7.57 z"
         id="path7925"
         inkscape:connector-curvature="0" />
    </clipPath>
    <clipPath
       clipPathUnits="userSpaceOnUse"
       id="clipPath7937">
      <path
         d="M 0,0 H 576 V 903 H 0 Z"
         id="path7935"
         inkscape:connector-curvature="0" />
    </clipPath>
    <clipPath
       clipPathUnits="userSpaceOnUse"
       id="clipPath7967">
      <path
         d="m 32.238,202.941 h 11.219 v 9.316 H 32.238 Z"
         id="path7965"
         inkscape:connector-curvature="0" />
    </clipPath>
    <clipPath
       clipPathUnits="userSpaceOnUse"
       id="clipPath7977">
      <path
         d="M 0,0 H 576 V 903 H 0 Z"
         id="path7975"
         inkscape:connector-curvature="0" />
    </clipPath>
    <clipPath
       clipPathUnits="userSpaceOnUse"
       id="clipPath7987">
      <path
         d="m 32,202 h 12 v 11 H 32 Z"
         id="path7985"
         inkscape:connector-curvature="0" />
    </clipPath>
    <clipPath
       clipPathUnits="userSpaceOnUse"
       id="clipPath7993">
      <path
         d="m 37.215,212.258 -4.277,-2.324 c -0.461,-0.254 -0.762,-0.68 -0.688,-1.375 0.258,-2.387 6.598,-5.192 6.789,-5.305 0.188,-0.109 0.133,-0.301 0.133,-0.313 l 4.273,2.329 c 0.004,0.011 0.059,0.199 -0.129,0.312 -0.191,0.113 -6.531,2.914 -6.793,5.305 -0.074,0.695 0.231,1.121 0.692,1.371"
         id="path7991"
         inkscape:connector-curvature="0" />
    </clipPath>
    <clipPath
       clipPathUnits="userSpaceOnUse"
       id="clipPath8003">
      <path
         d="M 0,0 H 576 V 903 H 0 Z"
         id="path8001"
         inkscape:connector-curvature="0" />
    </clipPath>
    <clipPath
       clipPathUnits="userSpaceOnUse"
       id="clipPath8013">
      <path
         d="m 32.238,202.941 h 11.219 v 9.316 H 32.238 Z"
         id="path8011"
         inkscape:connector-curvature="0" />
    </clipPath>
    <clipPath
       clipPathUnits="userSpaceOnUse"
       id="clipPath8023">
      <path
         d="M 0,0 H 576 V 903 H 0 Z"
         id="path8021"
         inkscape:connector-curvature="0" />
    </clipPath>
  </defs>
  <sodipodi:namedview
     id="base"
     pagecolor="#ffffff"
     bordercolor="#666666"
     borderopacity="1.0"
     inkscape:pageopacity="0.0"
     inkscape:pageshadow="2"
     inkscape:zoom="11.2"
     inkscape:cx="-22.596033"
     inkscape:cy="12.80514"
     inkscape:document-units="mm"
     inkscape:current-layer="layer1"
     showgrid="false"
     inkscape:window-width="1920"
     inkscape:window-height="1017"
     inkscape:window-x="-8"
     inkscape:window-y="-8"
     inkscape:window-maximized="1" />
  <metadata
     id="metadata94698">
    <rdf:RDF>
      <cc:Work
         rdf:about="">
        <dc:format>image/svg+xml</dc:format>
        <dc:type
           rdf:resource="http://purl.org/dc/dcmitype/StillImage" />
        <dc:title />
      </cc:Work>
    </rdf:RDF>
  </metadata>
  <g
     inkscape:label="Ebene 1"
     inkscape:groupmode="layer"
     id="layer1"
     transform="translate(-65.870433,-32.610906)">
    <g
       id="g7957"
       transform="matrix(-0.35081206,0,0,0.3337528,79.624432,-32.492483)"
       style="display:inline;fill:#414042;fill-opacity:1;stroke:#000000;stroke-width:0.15489098;stroke-miterlimit:4;stroke-dasharray:none;stroke-opacity:1"
       inkscape:label="MeepleNormal_black">
      <path
         d="m 35.077008,207.8973 c 0.004,0 0.106,-0.007 0.286,-0.031 0.929,-0.133 3.82,-0.699 3.609,-2.64 -0.074,-0.723 -0.742,-1.317 -1.629,-1.797 0.008,0 0.012,0.004 0.016,0.004 l -0.024,-0.008 c 0,-0.004 -0.004,-0.004 -0.004,-0.004 l -4.250002,-2.313 c -0.097,-0.054 -0.195,-0.105 -0.297,-0.152 -0.015,-0.008 -0.031,-0.016 -0.046,-0.023 -0.192,-0.09 -0.386999,-0.18 -0.589999,-0.262 -0.043,-0.016 -0.082,-0.035 -0.125001,-0.051 -0.187999,-1.598 -0.856,-2.363 -1.539,-2.715 0.015,0.008 0.031,0.012 0.047,0.02 l -4.278,-2.324 c -0.027,-0.016 -0.058,-0.032 -0.086,-0.047 -0.100999,-0.051 -0.202999,-0.078 -0.304,-0.11 -0.051,-0.019 -0.105999,-0.047 -0.161,-0.062 -0.007,0 -0.015,-0.004 -0.023,-0.008 -0.145001,-0.039 -0.281001,-0.059 -0.410001,-0.07 -0.035,-0.004 -0.063,-0.004 -0.094,-0.008 -0.105,-0.008 -0.199001,-0.008 -0.281001,-0.008 -0.031,0 -0.059,0 -0.086,0.004 -0.09,0.004 -0.168,0.012 -0.219,0.016 -0.047,0.007 -0.07,0.015 -0.074,0.015 0,0 -0.023,0 -0.074,0.008 -0.032,0.004 -0.078,0.012 -0.129,0.02 -0.016,0.007 -0.035,0.011 -0.051,0.015 -0.043,0.008 -0.09,0.016 -0.141,0.031 -0.023,0.008 -0.046,0.016 -0.074,0.02 -0.051,0.016 -0.109,0.035 -0.168,0.055 -0.027,0.011 -0.051,0.019 -0.082,0.031 -0.07,0.027 -0.144,0.055 -0.222,0.09 -0.016,0.008 -0.028,0.015 -0.047,0.023 0,0 -0.004,0.004 -0.008,0.004 -0.145,0.07 -0.301,0.156 -0.457,0.262 -0.016,0.008 -0.024,0.012 -0.039,0.023 -0.008,0.004 -0.016,0.016 -0.028,0.02 -0.105,0.078 -0.218,0.16 -0.328,0.258 0,0.003 -0.004,0.003 -0.004,0.007 -0.097,0.086 -0.195,0.184 -0.289001,0.289 0,0 0,0.004 -0.004,0.004 -0.019,0.024 -0.043,0.059 -0.066,0.086 -0.156,0.188 -0.305,0.399 -0.437,0.645 -0.004,0.004 -0.008,0.008 -0.008,0.012 -0.008,0.015 -0.016,0.031 -0.024,0.046 -0.078,0.149 -0.148001,0.313 -0.215001,0.489 -0.007,0.023 -0.019,0.039 -0.031,0.066 -0.019,0.051 -0.031,0.113 -0.051,0.172 -0.027,0.078 -0.05,0.156 -0.074,0.238 -0.027,0.102 -0.051,0.211 -0.074,0.317 -0.02,0.082 -0.039,0.164 -0.055,0.25 -0.019,0.129 -0.039,0.265 -0.054,0.406 -0.008,0.078 -0.02,0.148 -0.028,0.23 -0.019,0.223 -0.027,0.461 -0.031,0.711 0.004,0 0.008,0.02 0.008,0.043 0,0.008 0,0.016 0,0.024 0,0.023 -0.004,0.047 -0.008,0.07 -0.008,0.027 -0.016,0.051 -0.031,0.078 -0.024,0.035 -0.055,0.067 -0.102,0.094 -0.015,0.008 -0.062,0.035 -0.129,0.066 -0.07,0.032 -0.172,0.082 -0.289,0.141 -0.015,0.004 -0.031,0.012 -0.051,0.023 -0.101,0.051 -0.222,0.106 -0.355,0.172 -0.039,0.02 -0.078,0.039 -0.117,0.059 -0.129,0.066 -0.266,0.137 -0.414,0.211 -0.047,0.023 -0.09,0.047 -0.141001,0.074 -0.171999,0.09 -0.351,0.184 -0.543,0.289 -0.023,0.012 -0.047,0.024 -0.07,0.039 -0.219,0.117 -0.446,0.246 -0.676,0.379 -0.027,0.016 -0.051,0.031 -0.078,0.047 -0.195,0.113 -0.395,0.234 -0.59,0.355 -0.07,0.047 -0.137,0.09 -0.207,0.133 -0.156,0.098 -0.309,0.203 -0.465,0.305 -0.035,0.027 -0.074,0.051 -0.113,0.078 -0.047,0.031 -0.086,0.063 -0.133,0.094 -0.125,0.09 -0.25,0.179 -0.371,0.269 -0.082,0.063 -0.164,0.125 -0.242,0.188 -0.117,0.094 -0.227,0.187 -0.336,0.281 -0.051,0.043 -0.106,0.086 -0.156,0.129 -0.024,0.019 -0.039,0.039 -0.059,0.059 -0.156,0.144 -0.297,0.285 -0.43,0.429 -0.023,0.024 -0.054,0.051 -0.078,0.074 -0.004,0.008 -0.008,0.012 -0.012,0.02 -0.039,0.043 -0.074,0.09 -0.109001,0.133 -0.066,0.082 -0.132999,0.16 -0.190999,0.242 -0.016,0.02 -0.024,0.039 -0.039,0.062 -0.024,0.036 -0.047,0.075 -0.071,0.11 -0.027,0.051 -0.062,0.101 -0.09,0.148 -0.035,0.063 -0.054,0.125 -0.082,0.184 -0.011,0.027 -0.027,0.055 -0.039,0.082 -0.004,0.012 -0.011,0.023 -0.015,0.035 -0.047,0.133 -0.082,0.262 -0.094,0.395 -0.074,0.695 0.227,1.121 0.688001,1.371 l 3.414,1.859 c -0.039,0.074 -0.075,0.145 -0.118001,0.227 -0.078,0.156 -0.163999,0.324 -0.253999,0.504 l -0.136001,0.277 c -0.109999,0.215 -0.223,0.449 -0.343999,0.695 -0.023,0.047 -0.043,0.09 -0.066,0.141 -0.141,0.289 -0.282,0.59 -0.422001,0.902 -0.043,0.094 -0.082,0.184 -0.125,0.278 -0.106,0.238 -0.211,0.484 -0.321,0.734 -0.046,0.113 -0.089,0.223 -0.136,0.336 -0.117,0.285 -0.234999,0.574 -0.344,0.867 -0.027,0.074 -0.055,0.141 -0.082,0.215 -0.008,0.019 -0.016,0.039 -0.024,0.055 -0.082,0.23 -0.156,0.46 -0.234,0.691 -0.055,0.156 -0.108999,0.309 -0.159999,0.465 -0.129,0.406 -0.246,0.812 -0.348,1.219 -0.019,0.058 -0.308001,1.011 0.039,1.203 l 4.278,2.324 c -0.047,-0.024 -0.078,-0.063 -0.106001,-0.113 0.055,0.105 0.153,0.164 0.313001,0.144 l 5.612999,-0.789 c 0.07,-0.012 0.785,-0.137 1.277,-1.133 0.039,-0.078 0.547,-1.066 0.996,-1.965 l 3.711001,2.02 c 0,0 -0.004,-0.004 -0.004,-0.004 0.333,0.184 0.628999,0.152 0.675999,0.145 l 5.614,-0.789 c 0.652001,-0.094 0.265001,-1.235 0.246,-1.297 -0.821,-3.102 -2.632999,-5.942 -3.313,-7.114 -0.676,-1.179 0.387,-1.328 0.445,-1.336"
         style="fill:none;fill-opacity:1;fill-rule:nonzero;stroke:#000000;stroke-width:0.44713813;stroke-miterlimit:4;stroke-dasharray:none;stroke-opacity:1"
         id="path7289"
         inkscape:connector-curvature="0" />
      <path
         d="m 35.04601,207.9753 c 0.004,0 0.106,-0.007 0.286,-0.031 0.929,-0.133 3.82,-0.699 3.609,-2.64 -0.074,-0.723 -0.742,-1.317 -1.629,-1.797 0.008,0 0.012,0.004 0.016,0.004 l -0.024,-0.008 c 0,-0.004 -0.004,-0.004 -0.004,-0.004 l -4.250004,-2.313 c -0.097,-0.054 -0.195,-0.105 -0.297,-0.152 -0.015,-0.008 -0.031,-0.016 -0.046,-0.023 -0.192,-0.09 -0.386999,-0.18 -0.589999,-0.262 -0.043,-0.016 -0.082,-0.035 -0.125001,-0.051 -0.187999,-1.598 -0.856,-2.363 -1.539,-2.715 0.015,0.008 0.031,0.012 0.047,0.02 l -4.278,-2.324 c -0.027,-0.016 -0.058,-0.032 -0.086,-0.047 -0.100999,-0.051 -0.202999,-0.078 -0.304,-0.11 -0.051,-0.019 -0.105999,-0.047 -0.161,-0.062 -0.007,0 -0.015,-0.004 -0.023,-0.008 -0.145001,-0.039 -0.281001,-0.059 -0.410001,-0.07 -0.035,-0.004 -0.063,-0.004 -0.094,-0.008 -0.105,-0.008 -0.199001,-0.008 -0.281001,-0.008 -0.031,0 -0.059,0 -0.086,0.004 -0.09,0.004 -0.168,0.012 -0.219,0.016 -0.047,0.007 -0.07,0.015 -0.074,0.015 0,0 -0.023,0 -0.074,0.008 -0.032,0.004 -0.078,0.012 -0.129,0.02 -0.016,0.007 -0.035,0.011 -0.051,0.015 -0.043,0.008 -0.09,0.016 -0.141,0.031 -0.023,0.008 -0.046,0.016 -0.074,0.02 -0.051,0.016 -0.108999,0.035 -0.168,0.055 -0.027,0.011 -0.051,0.019 -0.082,0.031 -0.07,0.027 -0.144,0.055 -0.222,0.09 -0.016,0.008 -0.028,0.015 -0.047,0.023 0,0 -0.004,0.004 -0.008,0.004 -0.145001,0.07 -0.301001,0.156 -0.457001,0.262 -0.016,0.008 -0.024,0.012 -0.039,0.023 -0.008,0.004 -0.016,0.016 -0.028,0.02 -0.105,0.078 -0.218001,0.16 -0.328,0.258 0,0.003 -0.004,0.003 -0.004,0.007 -0.097,0.086 -0.195,0.184 -0.289001,0.289 0,0 0,0.004 -0.004,0.004 -0.019,0.024 -0.043,0.059 -0.066,0.086 -0.156,0.188 -0.304999,0.399 -0.436999,0.645 -0.004,0.004 -0.008,0.008 -0.008,0.012 -0.008,0.015 -0.016,0.031 -0.024,0.046 -0.078,0.149 -0.148001,0.313 -0.215001,0.489 -0.007,0.023 -0.019,0.039 -0.031,0.066 -0.019,0.051 -0.031,0.113 -0.051,0.172 -0.027,0.078 -0.05,0.156 -0.074,0.238 -0.027,0.102 -0.051,0.211 -0.074,0.317 -0.02,0.082 -0.039,0.164 -0.055,0.25 -0.019,0.129 -0.039,0.265 -0.054,0.406 -0.008,0.078 -0.02,0.148 -0.028,0.23 -0.019,0.223 -0.027,0.461 -0.031,0.711 0.004,0 0.008,0.02 0.008,0.043 0,0.008 0,0.016 0,0.024 0,0.023 -0.004,0.047 -0.008,0.07 -0.008,0.027 -0.016,0.051 -0.031,0.078 -0.024,0.035 -0.055,0.067 -0.102,0.094 -0.015,0.008 -0.062,0.035 -0.129,0.066 -0.07,0.032 -0.172,0.082 -0.289,0.141 -0.015,0.004 -0.031,0.012 -0.051,0.023 -0.101,0.051 -0.222,0.106 -0.355,0.172 -0.039,0.02 -0.078,0.039 -0.117,0.059 -0.129,0.066 -0.266,0.137 -0.414,0.211 -0.047,0.023 -0.09,0.047 -0.141001,0.074 -0.171999,0.09 -0.351,0.184 -0.543,0.289 -0.023,0.012 -0.047,0.024 -0.07,0.039 -0.219,0.117 -0.446,0.246 -0.676,0.379 -0.027,0.016 -0.051,0.031 -0.078,0.047 -0.195,0.113 -0.395,0.234 -0.59,0.355 -0.07,0.047 -0.137,0.09 -0.207,0.133 -0.156,0.098 -0.309,0.203 -0.465,0.305 -0.035,0.027 -0.074,0.051 -0.113,0.078 -0.047,0.031 -0.086,0.063 -0.133,0.094 -0.125,0.09 -0.25,0.179 -0.371,0.269 -0.082,0.063 -0.164,0.125 -0.242,0.188 -0.117,0.094 -0.227,0.187 -0.336,0.281 -0.051,0.043 -0.106,0.086 -0.156,0.129 -0.024,0.019 -0.039,0.039 -0.059,0.059 -0.156,0.144 -0.297,0.285 -0.43,0.429 -0.023,0.024 -0.054,0.051 -0.078,0.074 -0.004,0.008 -0.008,0.012 -0.012,0.02 -0.039,0.043 -0.074,0.09 -0.109001,0.133 -0.066,0.082 -0.132999,0.16 -0.190999,0.242 -0.016,0.02 -0.024,0.039 -0.039,0.062 -0.024,0.036 -0.047,0.075 -0.071,0.11 -0.027,0.051 -0.062,0.101 -0.09,0.148 -0.035,0.063 -0.054,0.125 -0.082,0.184 -0.011,0.027 -0.027,0.055 -0.039,0.082 -0.004,0.012 -0.011,0.023 -0.015,0.035 -0.047,0.133 -0.082,0.262 -0.094,0.395 -0.074,0.695 0.227,1.121 0.688001,1.371 l 3.414,1.859 c -0.039,0.074 -0.075,0.145 -0.118001,0.227 -0.078,0.156 -0.163999,0.324 -0.253999,0.504 l -0.136001,0.277 c -0.109999,0.215 -0.223,0.449 -0.343999,0.695 -0.023,0.047 -0.043,0.09 -0.066,0.141 -0.141,0.289 -0.282,0.59 -0.422001,0.902 -0.043,0.094 -0.082,0.184 -0.125,0.278 -0.106,0.238 -0.211,0.484 -0.321,0.734 -0.046,0.113 -0.089,0.223 -0.136,0.336 -0.117,0.285 -0.234999,0.574 -0.344,0.867 -0.027,0.074 -0.055,0.141 -0.082,0.215 -0.008,0.019 -0.016,0.039 -0.024,0.055 -0.082,0.23 -0.156,0.46 -0.234,0.691 -0.055,0.156 -0.108999,0.309 -0.159999,0.465 -0.129,0.406 -0.246,0.812 -0.348,1.219 -0.019,0.058 -0.308001,1.011 0.039,1.203 l 4.278,2.324 c -0.047,-0.024 -0.078,-0.063 -0.106001,-0.113 0.055,0.105 0.153,0.164 0.313001,0.144 l 5.612999,-0.789 c 0.07,-0.012 0.785,-0.137 1.277,-1.133 0.039,-0.078 0.547,-1.066 0.996,-1.965 l 3.711001,2.02 c 0,0 -0.004,-0.004 -0.004,-0.004 0.333,0.184 0.628999,0.152 0.675999,0.145 l 5.614,-0.789 c 0.652001,-0.094 0.265001,-1.235 0.246,-1.297 -0.821,-3.102 -2.632999,-5.942 -3.313,-7.114 -0.676,-1.179 0.387,-1.328 0.445,-1.336"
         style="display:inline;fill:#2a292a;fill-opacity:1;fill-rule:nonzero;stroke:none;stroke-width:0.44713816;stroke-miterlimit:4;stroke-dasharray:none;stroke-opacity:1"
         id="path7289-6"
         inkscape:connector-curvature="0" />
      <path
         inkscape:connector-curvature="0"
         id="path7959"
         style="fill:#414042;fill-opacity:1;fill-rule:nonzero;stroke:#000000;stroke-width:0.15489098;stroke-miterlimit:4;stroke-dasharray:none;stroke-opacity:1"
         d="m 28.859001,197.6363 c 0.488,-0.067 3.218,-0.266 3.21,3.918 -0.003,0.007 -0.066,0.215 0.129,0.273 0.192,0.059 6.524,1.078 6.766,3.399 0.211,1.941 -2.672,2.507 -3.602,2.636 -0.179,0.028 -0.281,0.035 -0.285,0.035 -0.058,0.008 -1.129,0.161 -0.453,1.336 0.688,1.172 2.492,4.012 3.313,7.114 0.019,0.058 0.402,1.207 -0.243,1.297 l -5.609,0.789 c -0.078,0.011 -0.801,0.089 -1.289,-0.774 -0.059,-0.098 -1.195,-2.008 -1.555,-2.711 -0.07,-0.125 -0.152,-0.324 -0.488,-0.301 -0.328,0.071 -0.41,0.289 -0.48,0.438 -0.364,0.805 -1.516,3.035 -1.575,3.152 -0.488,0.996 -1.207,1.121 -1.281,1.129 l -5.613,0.789 c -0.649,0.094 -0.258,-1.16 -0.235,-1.226 0.829,-3.332 2.645,-6.684 3.336,-8.051 0.684,-1.367 -0.39,-1.215 -0.445,-1.207 -0.004,0 -0.105,0.019 -0.285,0.043 -0.93,0.133 -3.816,0.379 -3.606,-1.625 0.262,-2.387 6.602,-5.188 6.793,-5.301 0.184,-0.113 0.133,-0.301 0.129,-0.312 0.008,-4.184 2.735,-4.75 3.219,-4.821 0.047,-0.004 0.074,-0.008 0.074,-0.008 0.004,0 0.028,-0.003 0.075,-0.011" />
    </g>
  </g>
</svg>
