<?xml version="1.0" encoding="UTF-8" standalone="no"?>
<!-- Created with Inkscape (http://www.inkscape.org/) -->

<svg
   xmlns:dc="http://purl.org/dc/elements/1.1/"
   xmlns:cc="http://creativecommons.org/ns#"
   xmlns:rdf="http://www.w3.org/1999/02/22-rdf-syntax-ns#"
   xmlns:svg="http://www.w3.org/2000/svg"
   xmlns="http://www.w3.org/2000/svg"
   xmlns:sodipodi="http://sodipodi.sourceforge.net/DTD/sodipodi-0.dtd"
   xmlns:inkscape="http://www.inkscape.org/namespaces/inkscape"
   width="8.8179588mm"
   height="8.4508286mm"
   viewBox="0 0 8.8179589 8.4508286"
   version="1.1"
   id="svg91996"
   inkscape:version="0.92.3 (2405546, 2018-03-11)"
   sodipodi:docname="MeepleNormal_red_f.svg">
  <defs
     id="defs91990">
    <clipPath
       clipPathUnits="userSpaceOnUse"
       id="clipPath3539">
      <path
         d="m 68.887,198.082 h 24.691 v 24.867 H 68.887 Z"
         id="path3537"
         inkscape:connector-curvature="0" />
    </clipPath>
    <clipPath
       clipPathUnits="userSpaceOnUse"
       id="clipPath3549">
      <path
         d="M 0,0 H 576 V 903 H 0 Z"
         id="path3547"
         inkscape:connector-curvature="0" />
    </clipPath>
    <clipPath
       clipPathUnits="userSpaceOnUse"
       id="clipPath3559">
      <path
         d="m 81.129,218.133 h 4.879 v 2.953 h -4.879 z"
         id="path3557"
         inkscape:connector-curvature="0" />
    </clipPath>
    <clipPath
       clipPathUnits="userSpaceOnUse"
       id="clipPath3569">
      <path
         d="M 0,0 H 576 V 903 H 0 Z"
         id="path3567"
         inkscape:connector-curvature="0" />
    </clipPath>
    <clipPath
       clipPathUnits="userSpaceOnUse"
       id="clipPath3579">
      <path
         d="m 81,218 h 6 v 4 h -6 z"
         id="path3577"
         inkscape:connector-curvature="0" />
    </clipPath>
    <clipPath
       clipPathUnits="userSpaceOnUse"
       id="clipPath3585">
      <path
         d="m 86.008,221.086 -4.278,-2.328 c -0.199,-0.11 -0.417,-0.301 -0.601,-0.625 l 4.277,2.328 c 0.184,0.324 0.403,0.512 0.602,0.625"
         id="path3583"
         inkscape:connector-curvature="0" />
    </clipPath>
    <clipPath
       clipPathUnits="userSpaceOnUse"
       id="clipPath3595">
      <path
         d="M 0,0 H 576 V 903 H 0 Z"
         id="path3593"
         inkscape:connector-curvature="0" />
    </clipPath>
    <clipPath
       clipPathUnits="userSpaceOnUse"
       id="clipPath3605">
      <path
         d="m 81.129,218.133 h 4.879 v 2.953 h -4.879 z"
         id="path3603"
         inkscape:connector-curvature="0" />
    </clipPath>
    <clipPath
       clipPathUnits="userSpaceOnUse"
       id="clipPath3615">
      <path
         d="M 0,0 H 576 V 903 H 0 Z"
         id="path3613"
         inkscape:connector-curvature="0" />
    </clipPath>
    <clipPath
       clipPathUnits="userSpaceOnUse"
       id="clipPath3627">
      <path
         d="m 79.359,215.164 h 6.047 v 5.297 h -6.047 z"
         id="path3625"
         inkscape:connector-curvature="0" />
    </clipPath>
    <clipPath
       clipPathUnits="userSpaceOnUse"
       id="clipPath3637">
      <path
         d="M 0,0 H 576 V 903 H 0 Z"
         id="path3635"
         inkscape:connector-curvature="0" />
    </clipPath>
    <clipPath
       clipPathUnits="userSpaceOnUse"
       id="clipPath3647">
      <path
         d="m 79,215 h 7 v 6 h -7 z"
         id="path3645"
         inkscape:connector-curvature="0" />
    </clipPath>
    <clipPath
       clipPathUnits="userSpaceOnUse"
       id="clipPath3653">
      <path
         d="m 79.359,215.164 4.278,2.324 c 0.113,0.063 0.16,0.172 0.207,0.258 0.359,0.703 1.504,2.613 1.562,2.715 l -4.277,-2.328 c -0.059,-0.102 -1.203,-2.012 -1.563,-2.711 -0.046,-0.086 -0.093,-0.195 -0.207,-0.258"
         id="path3651"
         inkscape:connector-curvature="0" />
    </clipPath>
    <clipPath
       clipPathUnits="userSpaceOnUse"
       id="clipPath3663">
      <path
         d="M 0,0 H 576 V 903 H 0 Z"
         id="path3661"
         inkscape:connector-curvature="0" />
    </clipPath>
    <clipPath
       clipPathUnits="userSpaceOnUse"
       id="clipPath3673">
      <path
         d="m 79.359,215.164 h 6.047 v 5.297 h -6.047 z"
         id="path3671"
         inkscape:connector-curvature="0" />
    </clipPath>
    <clipPath
       clipPathUnits="userSpaceOnUse"
       id="clipPath3683">
      <path
         d="M 0,0 H 576 V 903 H 0 Z"
         id="path3681"
         inkscape:connector-curvature="0" />
    </clipPath>
    <clipPath
       clipPathUnits="userSpaceOnUse"
       id="clipPath3695">
      <path
         d="m 82.477,202.273 h 9.469 v 3.949 h -9.469 z"
         id="path3693"
         inkscape:connector-curvature="0" />
    </clipPath>
    <clipPath
       clipPathUnits="userSpaceOnUse"
       id="clipPath3705">
      <path
         d="M 0,0 H 576 V 903 H 0 Z"
         id="path3703"
         inkscape:connector-curvature="0" />
    </clipPath>
    <clipPath
       clipPathUnits="userSpaceOnUse"
       id="clipPath3715">
      <path
         d="m 82,202 h 10 v 5 H 82 Z"
         id="path3713"
         inkscape:connector-curvature="0" />
    </clipPath>
    <clipPath
       clipPathUnits="userSpaceOnUse"
       id="clipPath3721">
      <path
         d="m 86.754,204.602 -4.277,-2.329 c 0.015,0.008 0.027,0.012 0.046,0.02 0.129,0.039 3.184,0.535 5.145,1.605 l 4.277,2.325 c -1.961,-1.067 -5.015,-1.567 -5.148,-1.606 -0.016,-0.004 -0.027,-0.012 -0.043,-0.015"
         id="path3719"
         inkscape:connector-curvature="0" />
    </clipPath>
    <clipPath
       clipPathUnits="userSpaceOnUse"
       id="clipPath3731">
      <path
         d="M 0,0 H 576 V 903 H 0 Z"
         id="path3729"
         inkscape:connector-curvature="0" />
    </clipPath>
    <clipPath
       clipPathUnits="userSpaceOnUse"
       id="clipPath3741">
      <path
         d="m 82.477,202.273 h 9.469 v 3.949 h -9.469 z"
         id="path3739"
         inkscape:connector-curvature="0" />
    </clipPath>
    <clipPath
       clipPathUnits="userSpaceOnUse"
       id="clipPath3751">
      <path
         d="M 0,0 H 576 V 903 H 0 Z"
         id="path3749"
         inkscape:connector-curvature="0" />
    </clipPath>
    <clipPath
       clipPathUnits="userSpaceOnUse"
       id="clipPath3771">
      <path
         d="m 69.758,219.398 h 4.445 v 3.52 h -4.445 z"
         id="path3769"
         inkscape:connector-curvature="0" />
    </clipPath>
    <clipPath
       clipPathUnits="userSpaceOnUse"
       id="clipPath3781">
      <path
         d="M 0,0 H 576 V 903 H 0 Z"
         id="path3779"
         inkscape:connector-curvature="0" />
    </clipPath>
    <clipPath
       clipPathUnits="userSpaceOnUse"
       id="clipPath3791">
      <path
         d="m 69,219 h 6 v 4 h -6 z"
         id="path3789"
         inkscape:connector-curvature="0" />
    </clipPath>
    <clipPath
       clipPathUnits="userSpaceOnUse"
       id="clipPath3797">
      <path
         d="m 74.203,222.918 -4.277,-2.324 c -0.348,-0.192 -0.051,-1.137 -0.031,-1.196 l 4.277,2.329 c -0.02,0.058 -0.317,1.003 0.031,1.191"
         id="path3795"
         inkscape:connector-curvature="0" />
    </clipPath>
    <clipPath
       clipPathUnits="userSpaceOnUse"
       id="clipPath3807">
      <path
         d="M 0,0 H 576 V 903 H 0 Z"
         id="path3805"
         inkscape:connector-curvature="0" />
    </clipPath>
    <clipPath
       clipPathUnits="userSpaceOnUse"
       id="clipPath3817">
      <path
         d="m 69.758,219.398 h 4.445 v 3.52 h -4.445 z"
         id="path3815"
         inkscape:connector-curvature="0" />
    </clipPath>
    <clipPath
       clipPathUnits="userSpaceOnUse"
       id="clipPath3827">
      <path
         d="M 0,0 H 576 V 903 H 0 Z"
         id="path3825"
         inkscape:connector-curvature="0" />
    </clipPath>
    <clipPath
       clipPathUnits="userSpaceOnUse"
       id="clipPath3839">
      <path
         d="m 69.895,210.207 h 7.836 v 11.52 h -7.836 z"
         id="path3837"
         inkscape:connector-curvature="0" />
    </clipPath>
    <clipPath
       clipPathUnits="userSpaceOnUse"
       id="clipPath3849">
      <path
         d="M 0,0 H 576 V 903 H 0 Z"
         id="path3847"
         inkscape:connector-curvature="0" />
    </clipPath>
    <clipPath
       clipPathUnits="userSpaceOnUse"
       id="clipPath3859">
      <path
         d="m 69,210 h 9 v 12 h -9 z"
         id="path3857"
         inkscape:connector-curvature="0" />
    </clipPath>
    <clipPath
       clipPathUnits="userSpaceOnUse"
       id="clipPath3865">
      <path
         d="m 73.242,210.207 4.278,2.324 c 0.214,0.117 0.351,0.414 -0.02,1.149 -0.684,1.355 -2.5,4.707 -3.328,8.047 l -4.277,-2.329 c 0.832,-3.339 2.644,-6.687 3.328,-8.046 0.371,-0.735 0.234,-1.032 0.019,-1.145"
         id="path3863"
         inkscape:connector-curvature="0" />
    </clipPath>
    <clipPath
       clipPathUnits="userSpaceOnUse"
       id="clipPath3875">
      <path
         d="M 0,0 H 576 V 903 H 0 Z"
         id="path3873"
         inkscape:connector-curvature="0" />
    </clipPath>
    <clipPath
       clipPathUnits="userSpaceOnUse"
       id="clipPath3885">
      <path
         d="m 69.895,210.207 h 7.836 v 11.52 h -7.836 z"
         id="path3883"
         inkscape:connector-curvature="0" />
    </clipPath>
    <clipPath
       clipPathUnits="userSpaceOnUse"
       id="clipPath3895">
      <path
         d="M 0,0 H 576 V 903 H 0 Z"
         id="path3893"
         inkscape:connector-curvature="0" />
    </clipPath>
    <clipPath
       clipPathUnits="userSpaceOnUse"
       id="clipPath3911">
      <path
         d="m 79.188,198.082 h 5.941 v 2.641 h -5.941 z"
         id="path3909"
         inkscape:connector-curvature="0" />
    </clipPath>
    <clipPath
       clipPathUnits="userSpaceOnUse"
       id="clipPath3921">
      <path
         d="M 0,0 H 576 V 903 H 0 Z"
         id="path3919"
         inkscape:connector-curvature="0" />
    </clipPath>
    <clipPath
       clipPathUnits="userSpaceOnUse"
       id="clipPath3931">
      <path
         d="m 79,198 h 7 v 3 h -7 z"
         id="path3929"
         inkscape:connector-curvature="0" />
    </clipPath>
    <clipPath
       clipPathUnits="userSpaceOnUse"
       id="clipPath3937">
      <path
         d="m 80.852,198.395 4.277,2.328 c -0.699,-0.383 -1.426,-0.325 -1.664,-0.289 l -4.277,-2.329 c 0.238,-0.031 0.964,-0.089 1.664,0.29"
         id="path3935"
         inkscape:connector-curvature="0" />
    </clipPath>
    <clipPath
       clipPathUnits="userSpaceOnUse"
       id="clipPath3947">
      <path
         d="M 0,0 H 576 V 903 H 0 Z"
         id="path3945"
         inkscape:connector-curvature="0" />
    </clipPath>
    <clipPath
       clipPathUnits="userSpaceOnUse"
       id="clipPath3957">
      <path
         d="m 79.188,198.082 h 5.941 v 2.641 h -5.941 z"
         id="path3955"
         inkscape:connector-curvature="0" />
    </clipPath>
    <clipPath
       clipPathUnits="userSpaceOnUse"
       id="clipPath3967">
      <path
         d="M 0,0 H 576 V 903 H 0 Z"
         id="path3965"
         inkscape:connector-curvature="0" />
    </clipPath>
    <clipPath
       clipPathUnits="userSpaceOnUse"
       id="clipPath3983">
      <path
         d="m 79.109,198.105 h 4.355 v 2.34 h -4.355 z"
         id="path3981"
         inkscape:connector-curvature="0" />
    </clipPath>
    <clipPath
       clipPathUnits="userSpaceOnUse"
       id="clipPath3993">
      <path
         d="M 0,0 H 576 V 903 H 0 Z"
         id="path3991"
         inkscape:connector-curvature="0" />
    </clipPath>
    <clipPath
       clipPathUnits="userSpaceOnUse"
       id="clipPath4003">
      <path
         d="m 79,198 h 5 v 3 h -5 z"
         id="path4001"
         inkscape:connector-curvature="0" />
    </clipPath>
    <clipPath
       clipPathUnits="userSpaceOnUse"
       id="clipPath4009">
      <path
         d="m 83.387,200.445 -4.278,-2.328 c 0,0 0.028,-0.004 0.079,-0.012 l 4.277,2.329 c -0.051,0.007 -0.078,0.011 -0.078,0.011"
         id="path4007"
         inkscape:connector-curvature="0" />
    </clipPath>
    <clipPath
       clipPathUnits="userSpaceOnUse"
       id="clipPath4019">
      <path
         d="M 0,0 H 576 V 903 H 0 Z"
         id="path4017"
         inkscape:connector-curvature="0" />
    </clipPath>
    <clipPath
       clipPathUnits="userSpaceOnUse"
       id="clipPath4029">
      <path
         d="m 79.109,198.105 h 4.355 v 2.34 h -4.355 z"
         id="path4027"
         inkscape:connector-curvature="0" />
    </clipPath>
    <clipPath
       clipPathUnits="userSpaceOnUse"
       id="clipPath4039">
      <path
         d="M 0,0 H 576 V 903 H 0 Z"
         id="path4037"
         inkscape:connector-curvature="0" />
    </clipPath>
    <clipPath
       clipPathUnits="userSpaceOnUse"
       id="clipPath4051">
      <path
         d="m 75.816,198.117 h 7.57 v 7.148 h -7.57 z"
         id="path4049"
         inkscape:connector-curvature="0" />
    </clipPath>
    <clipPath
       clipPathUnits="userSpaceOnUse"
       id="clipPath4061">
      <path
         d="M 0,0 H 576 V 903 H 0 Z"
         id="path4059"
         inkscape:connector-curvature="0" />
    </clipPath>
    <clipPath
       clipPathUnits="userSpaceOnUse"
       id="clipPath4071">
      <path
         d="m 75,198 h 9 v 8 h -9 z"
         id="path4069"
         inkscape:connector-curvature="0" />
    </clipPath>
    <clipPath
       clipPathUnits="userSpaceOnUse"
       id="clipPath4077">
      <path
         d="m 80.094,205.266 -4.278,-2.328 c 0.008,-4.168 2.715,-4.739 3.215,-4.809 0.051,-0.008 0.078,-0.012 0.078,-0.012 l 4.278,2.328 c 0,0 -0.028,0.004 -0.078,0.008 -0.5,0.07 -3.207,0.645 -3.215,4.813"
         id="path4075"
         inkscape:connector-curvature="0" />
    </clipPath>
    <clipPath
       clipPathUnits="userSpaceOnUse"
       id="clipPath4087">
      <path
         d="M 0,0 H 576 V 903 H 0 Z"
         id="path4085"
         inkscape:connector-curvature="0" />
    </clipPath>
    <clipPath
       clipPathUnits="userSpaceOnUse"
       id="clipPath4097">
      <path
         d="m 75.816,198.117 h 7.57 v 7.148 h -7.57 z"
         id="path4095"
         inkscape:connector-curvature="0" />
    </clipPath>
    <clipPath
       clipPathUnits="userSpaceOnUse"
       id="clipPath4107">
      <path
         d="M 0,0 H 576 V 903 H 0 Z"
         id="path4105"
         inkscape:connector-curvature="0" />
    </clipPath>
    <clipPath
       clipPathUnits="userSpaceOnUse"
       id="clipPath4137">
      <path
         d="m 68.887,202.938 h 11.215 v 9.324 H 68.887 Z"
         id="path4135"
         inkscape:connector-curvature="0" />
    </clipPath>
    <clipPath
       clipPathUnits="userSpaceOnUse"
       id="clipPath4147">
      <path
         d="M 0,0 H 576 V 903 H 0 Z"
         id="path4145"
         inkscape:connector-curvature="0" />
    </clipPath>
    <clipPath
       clipPathUnits="userSpaceOnUse"
       id="clipPath4157">
      <path
         d="m 68,202 h 13 v 11 H 68 Z"
         id="path4155"
         inkscape:connector-curvature="0" />
    </clipPath>
    <clipPath
       clipPathUnits="userSpaceOnUse"
       id="clipPath4163">
      <path
         d="m 73.863,212.262 -4.277,-2.324 c -0.461,-0.254 -0.762,-0.676 -0.688,-1.375 0.258,-2.395 6.598,-5.2 6.79,-5.309 0.187,-0.113 0.132,-0.305 0.128,-0.316 l 4.278,2.328 c 0.004,0.007 0.054,0.199 -0.129,0.312 -0.192,0.113 -6.531,2.914 -6.793,5.313 -0.07,0.695 0.23,1.121 0.691,1.371"
         id="path4161"
         inkscape:connector-curvature="0" />
    </clipPath>
    <clipPath
       clipPathUnits="userSpaceOnUse"
       id="clipPath4173">
      <path
         d="M 0,0 H 576 V 903 H 0 Z"
         id="path4171"
         inkscape:connector-curvature="0" />
    </clipPath>
    <clipPath
       clipPathUnits="userSpaceOnUse"
       id="clipPath4183">
      <path
         d="m 68.887,202.938 h 11.215 v 9.324 H 68.887 Z"
         id="path4181"
         inkscape:connector-curvature="0" />
    </clipPath>
    <clipPath
       clipPathUnits="userSpaceOnUse"
       id="clipPath4193">
      <path
         d="M 0,0 H 576 V 903 H 0 Z"
         id="path4191"
         inkscape:connector-curvature="0" />
    </clipPath>
  </defs>
  <sodipodi:namedview
     id="base"
     pagecolor="#ffffff"
     bordercolor="#666666"
     borderopacity="1.0"
     inkscape:pageopacity="0.0"
     inkscape:pageshadow="2"
     inkscape:zoom="16"
     inkscape:cx="-11.345394"
     inkscape:cy="13.331742"
     inkscape:document-units="mm"
     inkscape:current-layer="layer1"
     showgrid="false"
     inkscape:window-width="1920"
     inkscape:window-height="1017"
     inkscape:window-x="-8"
     inkscape:window-y="-8"
     inkscape:window-maximized="1" />
  <metadata
     id="metadata91993">
    <rdf:RDF>
      <cc:Work
         rdf:about="">
        <dc:format>image/svg+xml</dc:format>
        <dc:type
           rdf:resource="http://purl.org/dc/dcmitype/StillImage" />
        <dc:title />
      </cc:Work>
    </rdf:RDF>
  </metadata>
  <g
     inkscape:label="Ebene 1"
     inkscape:groupmode="layer"
     id="layer1"
     transform="translate(-91.572819,-149.78202)">
    <g
       id="g4127"
       transform="matrix(-0.35081132,0,0,0.33375399,124.47898,83.74598)"
       style="display:inline;fill:#ed1c24;fill-opacity:1;stroke:#000000;stroke-width:0.15489087;stroke-miterlimit:4;stroke-dasharray:none;stroke-opacity:1"
       inkscape:label="MeepleNormal_red">
      <path
         inkscape:connector-curvature="0"
         id="path3531"
         style="display:inline;fill:none;fill-opacity:1;stroke:#000000;stroke-width:0.44713783;stroke-linecap:butt;stroke-linejoin:round;stroke-miterlimit:4;stroke-dasharray:none;stroke-opacity:1"
         d="m 89.672,210.691 c 0.004,0 0.105,-0.007 0.285,-0.031 0.93,-0.133 3.82,-0.699 3.609,-2.64 -0.074,-0.723 -0.742,-1.317 -1.628,-1.797 0.007,0 0.011,0.004 0.015,0.004 l -0.023,-0.008 c 0,-0.004 -0.004,-0.004 -0.004,-0.004 l -4.250002,-2.313 c -0.098,-0.054 -0.196,-0.105 -0.297,-0.152 -0.016,-0.008 -0.031,-0.016 -0.047,-0.023 -0.191,-0.09 -0.387,-0.18 -0.59,-0.262 -0.043,-0.016 -0.082,-0.035 -0.125,-0.051 -0.187,-1.598 -0.854999,-2.363 -1.538999,-2.715 0.016,0.008 0.031,0.012 0.047,0.02 l -4.277,-2.324 c -0.028,-0.016 -0.059,-0.032 -0.086,-0.047 -0.102,-0.051 -0.203,-0.078 -0.305,-0.11 -0.051,-0.019 -0.105,-0.047 -0.16,-0.062 -0.008,0 -0.016,-0.004 -0.024,-0.008 -0.144,-0.039 -0.281,-0.059 -0.41,-0.07 -0.035,-0.004 -0.062,-0.004 -0.093,-0.008 -0.106,-0.008 -0.2,-0.008 -0.282,-0.008 -0.031,0 -0.058,0 -0.086,0.004 -0.089,0.004 -0.168,0.012 -0.218,0.016 -0.047,0.007 -0.071,0.015 -0.075,0.015 0,0 -0.023,0 -0.074,0.008 -0.031,0.004 -0.078,0.012 -0.129,0.02 -0.015,0.007 -0.035,0.011 -0.051,0.015 -0.042,0.008 -0.089,0.016 -0.14,0.031 -0.024,0.008 -0.047,0.016 -0.074,0.02 -0.051,0.016 -0.110001,0.035 -0.168,0.055 -0.028,0.011 -0.051,0.019 -0.082,0.031 -0.071,0.027 -0.145001,0.055 -0.223001,0.09 -0.016,0.008 -0.027,0.015 -0.047,0.023 0,0 -0.004,0.004 -0.008,0.004 -0.144,0.07 -0.3,0.156 -0.456999,0.262 -0.015,0.008 -0.023,0.012 -0.039,0.023 -0.008,0.004 -0.015,0.016 -0.027,0.02 -0.110001,0.078 -0.219,0.16 -0.328001,0.258 0,0.003 -0.004,0.003 -0.004,0.007 -0.098,0.086 -0.195,0.184 -0.289,0.289 0,0 0,0.004 -0.004,0.004 -0.02,0.024 -0.043,0.059 -0.067,0.086 -0.156,0.188 -0.304,0.399 -0.437,0.645 -0.004,0.004 -0.008,0.008 -0.008,0.012 -0.008,0.015 -0.015,0.031 -0.023,0.046 -0.078,0.149 -0.149001,0.313 -0.215001,0.489 -0.008,0.023 -0.02,0.039 -0.031,0.066 -0.02,0.051 -0.032,0.113 -0.051,0.172 -0.028,0.078 -0.051,0.156 -0.074,0.238 -0.028,0.102 -0.051,0.211 -0.079,0.317 -0.015,0.082 -0.035,0.164 -0.05,0.25 -0.02,0.129 -0.039,0.265 -0.055,0.406 -0.008,0.078 -0.02,0.148 -0.027,0.23 -0.02,0.223 -0.028,0.461 -0.032,0.711 0.004,0 0.008,0.02 0.008,0.043 0,0.008 0,0.016 0,0.024 0,0.023 -0.004,0.047 -0.008,0.07 -0.007,0.027 -0.015,0.051 -0.031,0.078 -0.023,0.035 -0.055,0.067 -0.101,0.094 -0.016,0.008 -0.063,0.035 -0.129,0.066 -0.071,0.032 -0.172,0.082 -0.289,0.141 -0.016,0.004 -0.032,0.012 -0.051,0.023 -0.102,0.051 -0.223,0.106 -0.356,0.172 -0.039,0.02 -0.078,0.039 -0.117,0.059 -0.129,0.066 -0.265,0.137 -0.414,0.211 -0.047,0.023 -0.09,0.047 -0.14,0.074 -0.172,0.09 -0.352,0.184 -0.543,0.289 -0.024,0.012 -0.047,0.024 -0.071,0.039 -0.219,0.117 -0.444999,0.246 -0.675999,0.379 -0.027,0.016 -0.05,0.031 -0.078,0.047 -0.195001,0.113 -0.394,0.234 -0.590001,0.355 -0.07,0.047 -0.136,0.09 -0.207,0.133 -0.156,0.098 -0.307999,0.203 -0.463999,0.305 -0.036,0.027 -0.079,0.051 -0.114,0.078 -0.047,0.031 -0.086,0.063 -0.132,0.094 -0.125001,0.09 -0.250001,0.179 -0.372,0.269 -0.082,0.063 -0.164001,0.125 -0.242001,0.188 -0.117,0.094 -0.225999,0.187 -0.336,0.281 -0.05,0.043 -0.105,0.086 -0.156,0.129 -0.023,0.019 -0.039,0.039 -0.059,0.059 -0.156,0.144 -0.296,0.285 -0.429,0.429 -0.024,0.024 -0.055,0.051 -0.078,0.074 -0.004,0.008 -0.008,0.012 -0.012,0.02 -0.039,0.043 -0.074,0.09 -0.109,0.133 -0.067,0.082 -0.133,0.16 -0.192,0.242 -0.015,0.02 -0.023,0.039 -0.039,0.062 -0.023,0.036 -0.047,0.075 -0.07,0.11 -0.028,0.051 -0.063,0.101 -0.09,0.148 -0.035,0.063 -0.055,0.125 -0.082,0.184 -0.012,0.027 -0.027,0.055 -0.039,0.082 -0.004,0.012 -0.012,0.023 -0.016,0.035 -0.047,0.133 -0.082,0.262 -0.094,0.395 -0.074,0.695 0.226999,1.121 0.688,1.371 l 3.414,1.859 c -0.039,0.074 -0.074,0.145 -0.117,0.227 -0.078,0.156 -0.164,0.324 -0.254001,0.504 l -0.136999,0.277 c -0.109001,0.215 -0.222,0.449 -0.344,0.695 -0.023,0.047 -0.043,0.09 -0.066,0.141 -0.141,0.289 -0.281001,0.59 -0.422001,0.902 -0.043,0.094 -0.082,0.184 -0.124999,0.278 -0.105,0.238 -0.211001,0.484 -0.32,0.734 -0.047,0.113 -0.09,0.223 -0.137001,0.336 -0.117,0.285 -0.234,0.574 -0.343999,0.867 -0.027,0.074 -0.054,0.141 -0.082,0.215 -0.007,0.019 -0.015,0.039 -0.023,0.055 -0.082,0.23 -0.156,0.46 -0.234,0.691 -0.055,0.156 -0.11,0.309 -0.161,0.465 -0.129,0.406 -0.246,0.812 -0.347001,1.219 -0.02,0.058 -0.309,1.011 0.039,1.203 l 4.277001,2.324 c -0.047,-0.024 -0.078,-0.063 -0.105,-0.113 0.054,0.105 0.152,0.164 0.312,0.144 l 5.613,-0.789 c 0.071,-0.012 0.786,-0.137 1.278,-1.133 0.039,-0.078 0.547,-1.066 0.996,-1.965 l 3.710999,2.02 c 0,0 -0.004,-0.004 -0.004,-0.004 0.332,0.184 0.629,0.152 0.676,0.145 l 5.613,-0.789 c 0.651938,-0.094 0.265938,-1.23503 0.245938,-1.29703 -0.82,-3.102 -2.633,-5.942 -3.312,-7.114 -0.676,-1.179 0.386,-1.328 0.445,-1.336 z" />
      <path
         inkscape:connector-curvature="0"
         id="path3531-2"
         style="display:inline;fill:#981217;fill-opacity:1;stroke:none;stroke-width:0.44713783;stroke-linecap:butt;stroke-linejoin:round;stroke-miterlimit:4;stroke-dasharray:none;stroke-opacity:1"
         d="m 89.671934,210.69097 c 0.004,0 0.105,-0.007 0.285,-0.031 0.93,-0.133 3.82,-0.699 3.609,-2.64 -0.074,-0.723 -0.742,-1.317 -1.628,-1.797 0.007,0 0.011,0.004 0.015,0.004 l -0.023,-0.008 c 0,-0.004 -0.004,-0.004 -0.004,-0.004 l -4.250006,-2.313 c -0.098,-0.054 -0.196,-0.105 -0.297,-0.152 -0.016,-0.008 -0.031,-0.016 -0.047,-0.023 -0.191,-0.09 -0.387,-0.18 -0.59,-0.262 -0.043,-0.016 -0.082,-0.035 -0.125,-0.051 -0.187,-1.598 -0.854999,-2.363 -1.538999,-2.715 0.016,0.008 0.031,0.012 0.047,0.02 l -4.276996,-2.324 c -0.028,-0.016 -0.059,-0.032 -0.086,-0.047 -0.102,-0.051 -0.203001,-0.078 -0.305001,-0.11 -0.051,-0.019 -0.105,-0.047 -0.159999,-0.062 -0.008,0 -0.016,-0.004 -0.024,-0.008 -0.144,-0.039 -0.281001,-0.059 -0.410001,-0.07 -0.035,-0.004 -0.062,-0.004 -0.093,-0.008 -0.105999,-0.008 -0.2,-0.008 -0.282,-0.008 -0.031,0 -0.058,0 -0.086,0.004 -0.089,0.004 -0.168,0.012 -0.217999,0.016 -0.047,0.007 -0.071,0.015 -0.075,0.015 0,0 -0.023,0 -0.074,0.008 -0.031,0.004 -0.078,0.012 -0.129,0.02 -0.015,0.007 -0.035,0.011 -0.051,0.015 -0.042,0.008 -0.089,0.016 -0.14,0.031 -0.024,0.008 -0.047,0.016 -0.074,0.02 -0.051,0.016 -0.110001,0.035 -0.168,0.055 -0.028,0.011 -0.051,0.019 -0.082,0.031 -0.071,0.027 -0.145001,0.055 -0.223001,0.09 -0.016,0.008 -0.027,0.015 -0.047,0.023 0,0 -0.004,0.004 -0.008,0.004 -0.144,0.07 -0.3,0.156 -0.456999,0.262 -0.015,0.008 -0.023,0.012 -0.039,0.023 -0.008,0.004 -0.015,0.016 -0.027,0.02 -0.110001,0.078 -0.219,0.16 -0.328,0.258 0,0.003 -0.004,0.003 -0.004,0.007 -0.098,0.086 -0.195,0.184 -0.289,0.289 0,0 0,0.004 -0.004,0.004 -0.02,0.024 -0.043,0.059 -0.067,0.086 -0.156,0.188 -0.304,0.399 -0.437,0.645 -0.004,0.004 -0.008,0.008 -0.008,0.012 -0.008,0.015 -0.015,0.031 -0.023,0.046 -0.078,0.149 -0.149001,0.313 -0.215001,0.489 -0.008,0.023 -0.02,0.039 -0.031,0.066 -0.02,0.051 -0.032,0.113 -0.051,0.172 -0.028,0.078 -0.051,0.156 -0.074,0.238 -0.028,0.102 -0.051,0.211 -0.079,0.317 -0.015,0.082 -0.035,0.164 -0.05,0.25 -0.02,0.129 -0.039,0.265 -0.055,0.406 -0.008,0.078 -0.02,0.148 -0.027,0.23 -0.02,0.223 -0.028,0.461 -0.032,0.711 0.004,0 0.008,0.02 0.008,0.043 0,0.008 0,0.016 0,0.024 0,0.023 -0.004,0.047 -0.008,0.07 -0.007,0.027 -0.015,0.051 -0.031,0.078 -0.023,0.035 -0.055,0.067 -0.100999,0.094 -0.016,0.008 -0.063,0.035 -0.129,0.066 -0.071,0.032 -0.172001,0.082 -0.289001,0.141 -0.016,0.004 -0.032,0.012 -0.051,0.023 -0.102,0.051 -0.222999,0.106 -0.355999,0.172 -0.039,0.02 -0.078,0.039 -0.117,0.059 -0.129,0.066 -0.265001,0.137 -0.414,0.211 -0.047,0.023 -0.09,0.047 -0.14,0.074 -0.172,0.09 -0.352,0.184 -0.543,0.289 -0.024,0.012 -0.047,0.024 -0.071,0.039 -0.219,0.117 -0.444999,0.246 -0.675999,0.379 -0.027,0.016 -0.05,0.031 -0.078,0.047 -0.195001,0.113 -0.394,0.234 -0.590001,0.355 -0.07,0.047 -0.136,0.09 -0.207,0.133 -0.156,0.098 -0.307999,0.203 -0.463999,0.305 -0.036,0.027 -0.079,0.051 -0.114,0.078 -0.047,0.031 -0.086,0.063 -0.132,0.094 -0.125001,0.09 -0.250001,0.179 -0.372,0.269 -0.082,0.063 -0.164001,0.125 -0.242001,0.188 -0.117,0.094 -0.225999,0.187 -0.336,0.281 -0.05,0.043 -0.105,0.086 -0.156,0.129 -0.023,0.019 -0.039,0.039 -0.059,0.059 -0.156,0.144 -0.296,0.285 -0.429,0.429 -0.024,0.024 -0.055,0.051 -0.078,0.074 -0.004,0.008 -0.008,0.012 -0.012,0.02 -0.039,0.043 -0.074,0.09 -0.109,0.133 -0.067,0.082 -0.133,0.16 -0.192,0.242 -0.015,0.02 -0.023,0.039 -0.039,0.062 -0.023,0.036 -0.047,0.075 -0.07,0.11 -0.028,0.051 -0.063,0.101 -0.09,0.148 -0.035,0.063 -0.055,0.125 -0.082,0.184 -0.012,0.027 -0.027,0.055 -0.039,0.082 -0.004,0.012 -0.012,0.023 -0.016,0.035 -0.047,0.133 -0.082,0.262 -0.094,0.395 -0.074,0.695 0.226998,1.121 0.687999,1.371 l 3.414001,1.859 c -0.039,0.074 -0.074,0.145 -0.117,0.227 -0.078,0.156 -0.164001,0.324 -0.254002,0.504 l -0.136998,0.277 c -0.109002,0.215 -0.222,0.449 -0.344001,0.695 -0.023,0.047 -0.043,0.09 -0.066,0.141 -0.141,0.289 -0.281001,0.59 -0.422001,0.902 -0.043,0.094 -0.082,0.184 -0.124998,0.278 -0.105,0.238 -0.211002,0.484 -0.320001,0.734 -0.047,0.113 -0.09,0.223 -0.137001,0.336 -0.117,0.285 -0.234,0.574 -0.343998,0.867 -0.027,0.074 -0.054,0.141 -0.082,0.215 -0.007,0.019 -0.015,0.039 -0.023,0.055 -0.082,0.23 -0.156,0.46 -0.234,0.691 -0.055,0.156 -0.110001,0.309 -0.161001,0.465 -0.129,0.406 -0.246,0.812 -0.347001,1.219 -0.02,0.058 -0.309,1.011 0.039,1.203 l 4.277002,2.324 c -0.047,-0.024 -0.078,-0.063 -0.105,-0.113 0.054,0.105 0.152,0.164 0.312,0.144 l 5.613,-0.789 c 0.071,-0.012 0.786,-0.137 1.278,-1.133 0.039,-0.078 0.546999,-1.066 0.996,-1.965 l 3.710998,2.02 c 0,0 -0.004,-0.004 -0.004,-0.004 0.331937,0.18397 0.628937,0.15197 0.675937,0.14497 l 5.612996,-0.789 c 0.65194,-0.094 0.26594,-1.23503 0.24594,-1.29703 -0.82,-3.102 -2.633,-5.942 -3.312,-7.114 -0.675998,-1.179 0.386,-1.328 0.445,-1.336 z" />
      <path
         inkscape:connector-curvature="0"
         id="path4129"
         style="display:inline;fill:#ed1c24;fill-opacity:1;fill-rule:nonzero;stroke:#000000;stroke-width:0.15489087;stroke-miterlimit:4;stroke-dasharray:none;stroke-opacity:1"
         d="m 83.465,200.434 c 0.504,-0.071 3.215,-0.262 3.207,3.906 -0.004,0.012 -0.067,0.219 0.125,0.277 0.191,0.059 6.527,1.082 6.769,3.406 0.211,1.942 -2.679,2.508 -3.613,2.637 -0.176,0.028 -0.277,0.035 -0.285,0.039 -0.055,0.004 -1.121,0.156 -0.441,1.332 0.687,1.164 2.492,4.004 3.308,7.114 0.024,0.058 0.41,1.195 -0.242,1.289 l -5.613,0.789 c -0.102,0.011 -0.797,0.082 -1.274,-0.766 -0.058,-0.098 -1.203,-2.008 -1.562,-2.711 -0.074,-0.133 -0.153,-0.332 -0.489,-0.301 -0.328,0.063 -0.41,0.282 -0.48,0.438 -0.363,0.805 -1.516,3.035 -1.578,3.152 -0.481,0.981 -1.184,1.11 -1.274,1.121 l -5.617,0.789 c -0.648,0.094 -0.258,-1.152 -0.238,-1.218 0.832,-3.34 2.648,-6.692 3.332,-8.051 0.691,-1.363 -0.383,-1.215 -0.437,-1.207 -0.004,0 -0.106,0.019 -0.286,0.047 -0.929,0.129 -3.816,0.379 -3.605,-1.629 0.262,-2.395 6.601,-5.196 6.793,-5.309 0.187,-0.113 0.133,-0.301 0.129,-0.312 0.008,-4.168 2.715,-4.739 3.215,-4.813 0.05,-0.004 0.078,-0.008 0.078,-0.008 0,0 0.027,-0.004 0.078,-0.011" />
    </g>
  </g>
</svg>
