<?xml version="1.0" encoding="UTF-8" standalone="no"?>
<!-- Created with Inkscape (http://www.inkscape.org/) -->

<svg
   xmlns:dc="http://purl.org/dc/elements/1.1/"
   xmlns:cc="http://creativecommons.org/ns#"
   xmlns:rdf="http://www.w3.org/1999/02/22-rdf-syntax-ns#"
   xmlns:svg="http://www.w3.org/2000/svg"
   xmlns="http://www.w3.org/2000/svg"
   xmlns:sodipodi="http://sodipodi.sourceforge.net/DTD/sodipodi-0.dtd"
   xmlns:inkscape="http://www.inkscape.org/namespaces/inkscape"
   width="8.8179588mm"
   height="8.4508295mm"
   viewBox="0 0 8.8179588 8.4508295"
   version="1.1"
   id="svg84288"
   inkscape:version="0.92.3 (2405546, 2018-03-11)"
   sodipodi:docname="MeepleNormal_green_f.svg">
  <defs
     id="defs84282">
    <clipPath
       clipPathUnits="userSpaceOnUse"
       id="clipPath5905">
      <path
         d="m 142.188,198.078 h 24.695 v 24.879 h -24.695 z"
         id="path5903"
         inkscape:connector-curvature="0" />
    </clipPath>
    <clipPath
       clipPathUnits="userSpaceOnUse"
       id="clipPath5915">
      <path
         d="M 0,0 H 576 V 903 H 0 Z"
         id="path5913"
         inkscape:connector-curvature="0" />
    </clipPath>
    <clipPath
       clipPathUnits="userSpaceOnUse"
       id="clipPath5925">
      <path
         d="m 154.426,218.129 h 4.887 v 2.957 h -4.887 z"
         id="path5923"
         inkscape:connector-curvature="0" />
    </clipPath>
    <clipPath
       clipPathUnits="userSpaceOnUse"
       id="clipPath5935">
      <path
         d="M 0,0 H 576 V 903 H 0 Z"
         id="path5933"
         inkscape:connector-curvature="0" />
    </clipPath>
    <clipPath
       clipPathUnits="userSpaceOnUse"
       id="clipPath5945">
      <path
         d="m 154,218 h 6 v 4 h -6 z"
         id="path5943"
         inkscape:connector-curvature="0" />
    </clipPath>
    <clipPath
       clipPathUnits="userSpaceOnUse"
       id="clipPath5951">
      <path
         d="m 159.313,221.086 -4.278,-2.328 c -0.207,-0.113 -0.426,-0.305 -0.609,-0.629 l 4.277,2.324 c 0.184,0.328 0.402,0.52 0.61,0.633"
         id="path5949"
         inkscape:connector-curvature="0" />
    </clipPath>
    <clipPath
       clipPathUnits="userSpaceOnUse"
       id="clipPath5961">
      <path
         d="M 0,0 H 576 V 903 H 0 Z"
         id="path5959"
         inkscape:connector-curvature="0" />
    </clipPath>
    <clipPath
       clipPathUnits="userSpaceOnUse"
       id="clipPath5971">
      <path
         d="m 154.426,218.129 h 4.887 v 2.957 h -4.887 z"
         id="path5969"
         inkscape:connector-curvature="0" />
    </clipPath>
    <clipPath
       clipPathUnits="userSpaceOnUse"
       id="clipPath5981">
      <path
         d="M 0,0 H 576 V 903 H 0 Z"
         id="path5979"
         inkscape:connector-curvature="0" />
    </clipPath>
    <clipPath
       clipPathUnits="userSpaceOnUse"
       id="clipPath5993">
      <path
         d="m 152.656,215.16 h 6.047 v 5.293 h -6.047 z"
         id="path5991"
         inkscape:connector-curvature="0" />
    </clipPath>
    <clipPath
       clipPathUnits="userSpaceOnUse"
       id="clipPath6003">
      <path
         d="M 0,0 H 576 V 903 H 0 Z"
         id="path6001"
         inkscape:connector-curvature="0" />
    </clipPath>
    <clipPath
       clipPathUnits="userSpaceOnUse"
       id="clipPath6013">
      <path
         d="m 152,215 h 7 v 6 h -7 z"
         id="path6011"
         inkscape:connector-curvature="0" />
    </clipPath>
    <clipPath
       clipPathUnits="userSpaceOnUse"
       id="clipPath6019">
      <path
         d="m 152.656,215.16 4.278,2.328 c 0.113,0.063 0.164,0.172 0.207,0.254 0.355,0.703 1.504,2.613 1.562,2.711 l -4.277,-2.324 c -0.059,-0.102 -1.203,-2.012 -1.563,-2.711 -0.043,-0.082 -0.093,-0.191 -0.207,-0.258"
         id="path6017"
         inkscape:connector-curvature="0" />
    </clipPath>
    <clipPath
       clipPathUnits="userSpaceOnUse"
       id="clipPath6029">
      <path
         d="M 0,0 H 576 V 903 H 0 Z"
         id="path6027"
         inkscape:connector-curvature="0" />
    </clipPath>
    <clipPath
       clipPathUnits="userSpaceOnUse"
       id="clipPath6039">
      <path
         d="m 152.656,215.16 h 6.047 v 5.293 h -6.047 z"
         id="path6037"
         inkscape:connector-curvature="0" />
    </clipPath>
    <clipPath
       clipPathUnits="userSpaceOnUse"
       id="clipPath6049">
      <path
         d="M 0,0 H 576 V 903 H 0 Z"
         id="path6047"
         inkscape:connector-curvature="0" />
    </clipPath>
    <clipPath
       clipPathUnits="userSpaceOnUse"
       id="clipPath6061">
      <path
         d="m 155.781,202.273 h 9.473 v 3.957 h -9.473 z"
         id="path6059"
         inkscape:connector-curvature="0" />
    </clipPath>
    <clipPath
       clipPathUnits="userSpaceOnUse"
       id="clipPath6071">
      <path
         d="M 0,0 H 576 V 903 H 0 Z"
         id="path6069"
         inkscape:connector-curvature="0" />
    </clipPath>
    <clipPath
       clipPathUnits="userSpaceOnUse"
       id="clipPath6081">
      <path
         d="m 155,202 h 11 v 5 h -11 z"
         id="path6079"
         inkscape:connector-curvature="0" />
    </clipPath>
    <clipPath
       clipPathUnits="userSpaceOnUse"
       id="clipPath6087">
      <path
         d="m 160.059,204.602 -4.278,-2.329 c 0.012,0.008 0.028,0.016 0.043,0.02 0.129,0.043 3.192,0.543 5.153,1.609 l 4.277,2.328 c -1.965,-1.07 -5.024,-1.57 -5.152,-1.609 -0.016,-0.008 -0.032,-0.012 -0.043,-0.019"
         id="path6085"
         inkscape:connector-curvature="0" />
    </clipPath>
    <clipPath
       clipPathUnits="userSpaceOnUse"
       id="clipPath6097">
      <path
         d="M 0,0 H 576 V 903 H 0 Z"
         id="path6095"
         inkscape:connector-curvature="0" />
    </clipPath>
    <clipPath
       clipPathUnits="userSpaceOnUse"
       id="clipPath6107">
      <path
         d="m 155.781,202.273 h 9.473 v 3.957 h -9.473 z"
         id="path6105"
         inkscape:connector-curvature="0" />
    </clipPath>
    <clipPath
       clipPathUnits="userSpaceOnUse"
       id="clipPath6117">
      <path
         d="M 0,0 H 576 V 903 H 0 Z"
         id="path6115"
         inkscape:connector-curvature="0" />
    </clipPath>
    <clipPath
       clipPathUnits="userSpaceOnUse"
       id="clipPath6137">
      <path
         d="m 143.055,219.395 h 4.445 v 3.531 h -4.445 z"
         id="path6135"
         inkscape:connector-curvature="0" />
    </clipPath>
    <clipPath
       clipPathUnits="userSpaceOnUse"
       id="clipPath6147">
      <path
         d="M 0,0 H 576 V 903 H 0 Z"
         id="path6145"
         inkscape:connector-curvature="0" />
    </clipPath>
    <clipPath
       clipPathUnits="userSpaceOnUse"
       id="clipPath6157">
      <path
         d="m 143,219 h 5 v 4 h -5 z"
         id="path6155"
         inkscape:connector-curvature="0" />
    </clipPath>
    <clipPath
       clipPathUnits="userSpaceOnUse"
       id="clipPath6163">
      <path
         d="m 147.5,222.926 -4.277,-2.328 c -0.348,-0.192 -0.051,-1.145 -0.035,-1.203 l 4.277,2.328 c -0.016,0.054 -0.313,1.011 0.035,1.203"
         id="path6161"
         inkscape:connector-curvature="0" />
    </clipPath>
    <clipPath
       clipPathUnits="userSpaceOnUse"
       id="clipPath6173">
      <path
         d="M 0,0 H 576 V 903 H 0 Z"
         id="path6171"
         inkscape:connector-curvature="0" />
    </clipPath>
    <clipPath
       clipPathUnits="userSpaceOnUse"
       id="clipPath6183">
      <path
         d="m 143.055,219.395 h 4.445 v 3.531 h -4.445 z"
         id="path6181"
         inkscape:connector-curvature="0" />
    </clipPath>
    <clipPath
       clipPathUnits="userSpaceOnUse"
       id="clipPath6193">
      <path
         d="M 0,0 H 576 V 903 H 0 Z"
         id="path6191"
         inkscape:connector-curvature="0" />
    </clipPath>
    <clipPath
       clipPathUnits="userSpaceOnUse"
       id="clipPath6205">
      <path
         d="m 143.188,210.199 h 7.844 v 11.523 h -7.844 z"
         id="path6203"
         inkscape:connector-curvature="0" />
    </clipPath>
    <clipPath
       clipPathUnits="userSpaceOnUse"
       id="clipPath6215">
      <path
         d="M 0,0 H 576 V 903 H 0 Z"
         id="path6213"
         inkscape:connector-curvature="0" />
    </clipPath>
    <clipPath
       clipPathUnits="userSpaceOnUse"
       id="clipPath6225">
      <path
         d="m 143,210 h 9 v 12 h -9 z"
         id="path6223"
         inkscape:connector-curvature="0" />
    </clipPath>
    <clipPath
       clipPathUnits="userSpaceOnUse"
       id="clipPath6231">
      <path
         d="m 146.543,210.199 4.277,2.328 c 0.215,0.118 0.352,0.411 -0.015,1.145 -0.684,1.367 -2.5,4.719 -3.34,8.051 l -4.277,-2.328 c 0.839,-3.332 2.656,-6.684 3.339,-8.047 0.368,-0.735 0.231,-1.032 0.016,-1.149"
         id="path6229"
         inkscape:connector-curvature="0" />
    </clipPath>
    <clipPath
       clipPathUnits="userSpaceOnUse"
       id="clipPath6241">
      <path
         d="M 0,0 H 576 V 903 H 0 Z"
         id="path6239"
         inkscape:connector-curvature="0" />
    </clipPath>
    <clipPath
       clipPathUnits="userSpaceOnUse"
       id="clipPath6251">
      <path
         d="m 143.188,210.199 h 7.844 v 11.523 h -7.844 z"
         id="path6249"
         inkscape:connector-curvature="0" />
    </clipPath>
    <clipPath
       clipPathUnits="userSpaceOnUse"
       id="clipPath6261">
      <path
         d="M 0,0 H 576 V 903 H 0 Z"
         id="path6259"
         inkscape:connector-curvature="0" />
    </clipPath>
    <clipPath
       clipPathUnits="userSpaceOnUse"
       id="clipPath6277">
      <path
         d="m 152.488,198.078 h 5.934 v 2.641 h -5.934 z"
         id="path6275"
         inkscape:connector-curvature="0" />
    </clipPath>
    <clipPath
       clipPathUnits="userSpaceOnUse"
       id="clipPath6287">
      <path
         d="M 0,0 H 576 V 903 H 0 Z"
         id="path6285"
         inkscape:connector-curvature="0" />
    </clipPath>
    <clipPath
       clipPathUnits="userSpaceOnUse"
       id="clipPath6297">
      <path
         d="m 152,198 h 7 v 3 h -7 z"
         id="path6295"
         inkscape:connector-curvature="0" />
    </clipPath>
    <clipPath
       clipPathUnits="userSpaceOnUse"
       id="clipPath6303">
      <path
         d="m 154.145,198.391 4.277,2.328 c -0.703,-0.383 -1.43,-0.324 -1.656,-0.289 l -4.278,-2.328 c 0.231,-0.032 0.953,-0.09 1.657,0.289"
         id="path6301"
         inkscape:connector-curvature="0" />
    </clipPath>
    <clipPath
       clipPathUnits="userSpaceOnUse"
       id="clipPath6313">
      <path
         d="M 0,0 H 576 V 903 H 0 Z"
         id="path6311"
         inkscape:connector-curvature="0" />
    </clipPath>
    <clipPath
       clipPathUnits="userSpaceOnUse"
       id="clipPath6323">
      <path
         d="m 152.488,198.078 h 5.934 v 2.641 h -5.934 z"
         id="path6321"
         inkscape:connector-curvature="0" />
    </clipPath>
    <clipPath
       clipPathUnits="userSpaceOnUse"
       id="clipPath6333">
      <path
         d="M 0,0 H 576 V 903 H 0 Z"
         id="path6331"
         inkscape:connector-curvature="0" />
    </clipPath>
    <clipPath
       clipPathUnits="userSpaceOnUse"
       id="clipPath6349">
      <path
         d="m 152.414,198.102 h 4.352 v 2.34 h -4.352 z"
         id="path6347"
         inkscape:connector-curvature="0" />
    </clipPath>
    <clipPath
       clipPathUnits="userSpaceOnUse"
       id="clipPath6359">
      <path
         d="M 0,0 H 576 V 903 H 0 Z"
         id="path6357"
         inkscape:connector-curvature="0" />
    </clipPath>
    <clipPath
       clipPathUnits="userSpaceOnUse"
       id="clipPath6369">
      <path
         d="m 152,198 h 5 v 3 h -5 z"
         id="path6367"
         inkscape:connector-curvature="0" />
    </clipPath>
    <clipPath
       clipPathUnits="userSpaceOnUse"
       id="clipPath6375">
      <path
         d="m 156.691,200.441 -4.277,-2.328 c 0,0 0.027,-0.004 0.074,-0.011 l 4.278,2.328 c -0.047,0.008 -0.075,0.011 -0.075,0.011"
         id="path6373"
         inkscape:connector-curvature="0" />
    </clipPath>
    <clipPath
       clipPathUnits="userSpaceOnUse"
       id="clipPath6385">
      <path
         d="M 0,0 H 576 V 903 H 0 Z"
         id="path6383"
         inkscape:connector-curvature="0" />
    </clipPath>
    <clipPath
       clipPathUnits="userSpaceOnUse"
       id="clipPath6395">
      <path
         d="m 152.414,198.102 h 4.352 v 2.34 h -4.352 z"
         id="path6393"
         inkscape:connector-curvature="0" />
    </clipPath>
    <clipPath
       clipPathUnits="userSpaceOnUse"
       id="clipPath6405">
      <path
         d="M 0,0 H 576 V 903 H 0 Z"
         id="path6403"
         inkscape:connector-curvature="0" />
    </clipPath>
    <clipPath
       clipPathUnits="userSpaceOnUse"
       id="clipPath6417">
      <path
         d="m 149.113,198.113 h 7.578 v 7.156 h -7.578 z"
         id="path6415"
         inkscape:connector-curvature="0" />
    </clipPath>
    <clipPath
       clipPathUnits="userSpaceOnUse"
       id="clipPath6427">
      <path
         d="M 0,0 H 576 V 903 H 0 Z"
         id="path6425"
         inkscape:connector-curvature="0" />
    </clipPath>
    <clipPath
       clipPathUnits="userSpaceOnUse"
       id="clipPath6437">
      <path
         d="m 149,198 h 8 v 8 h -8 z"
         id="path6435"
         inkscape:connector-curvature="0" />
    </clipPath>
    <clipPath
       clipPathUnits="userSpaceOnUse"
       id="clipPath6443">
      <path
         d="m 153.391,205.27 -4.278,-2.329 c 0.008,-4.179 2.742,-4.75 3.227,-4.82 0.051,-0.004 0.074,-0.008 0.074,-0.008 l 4.277,2.328 c -0.003,0 -0.027,0 -0.074,0.008 -0.484,0.071 -3.219,0.641 -3.226,4.821"
         id="path6441"
         inkscape:connector-curvature="0" />
    </clipPath>
    <clipPath
       clipPathUnits="userSpaceOnUse"
       id="clipPath6453">
      <path
         d="M 0,0 H 576 V 903 H 0 Z"
         id="path6451"
         inkscape:connector-curvature="0" />
    </clipPath>
    <clipPath
       clipPathUnits="userSpaceOnUse"
       id="clipPath6463">
      <path
         d="m 149.113,198.113 h 7.578 v 7.156 h -7.578 z"
         id="path6461"
         inkscape:connector-curvature="0" />
    </clipPath>
    <clipPath
       clipPathUnits="userSpaceOnUse"
       id="clipPath6473">
      <path
         d="M 0,0 H 576 V 903 H 0 Z"
         id="path6471"
         inkscape:connector-curvature="0" />
    </clipPath>
    <clipPath
       clipPathUnits="userSpaceOnUse"
       id="clipPath6503">
      <path
         d="m 142.188,202.941 h 11.215 v 9.316 h -11.215 z"
         id="path6501"
         inkscape:connector-curvature="0" />
    </clipPath>
    <clipPath
       clipPathUnits="userSpaceOnUse"
       id="clipPath6513">
      <path
         d="M 0,0 H 576 V 903 H 0 Z"
         id="path6511"
         inkscape:connector-curvature="0" />
    </clipPath>
    <clipPath
       clipPathUnits="userSpaceOnUse"
       id="clipPath6523">
      <path
         d="m 142,202 h 12 v 11 h -12 z"
         id="path6521"
         inkscape:connector-curvature="0" />
    </clipPath>
    <clipPath
       clipPathUnits="userSpaceOnUse"
       id="clipPath6529">
      <path
         d="m 147.164,212.258 -4.277,-2.324 c -0.461,-0.254 -0.762,-0.68 -0.688,-1.375 0.254,-2.387 6.594,-5.192 6.785,-5.301 0.196,-0.117 0.133,-0.305 0.129,-0.317 l 4.278,2.329 c 0.004,0.011 0.062,0.199 -0.129,0.312 -0.192,0.113 -6.532,2.914 -6.785,5.301 -0.075,0.699 0.222,1.125 0.687,1.375"
         id="path6527"
         inkscape:connector-curvature="0" />
    </clipPath>
    <clipPath
       clipPathUnits="userSpaceOnUse"
       id="clipPath6539">
      <path
         d="M 0,0 H 576 V 903 H 0 Z"
         id="path6537"
         inkscape:connector-curvature="0" />
    </clipPath>
    <clipPath
       clipPathUnits="userSpaceOnUse"
       id="clipPath6549">
      <path
         d="m 142.188,202.941 h 11.215 v 9.316 h -11.215 z"
         id="path6547"
         inkscape:connector-curvature="0" />
    </clipPath>
    <clipPath
       clipPathUnits="userSpaceOnUse"
       id="clipPath6559">
      <path
         d="M 0,0 H 576 V 903 H 0 Z"
         id="path6557"
         inkscape:connector-curvature="0" />
    </clipPath>
    <clipPath
       clipPathUnits="userSpaceOnUse"
       id="clipPath5905-2">
      <path
         d="m 142.188,198.078 h 24.695 v 24.879 h -24.695 z"
         id="path5903-6"
         inkscape:connector-curvature="0" />
    </clipPath>
    <clipPath
       clipPathUnits="userSpaceOnUse"
       id="clipPath5915-0">
      <path
         d="M 0,0 H 576 V 903 H 0 Z"
         id="path5913-2"
         inkscape:connector-curvature="0" />
    </clipPath>
    <clipPath
       clipPathUnits="userSpaceOnUse"
       id="clipPath5925-5">
      <path
         d="m 154.426,218.129 h 4.887 v 2.957 h -4.887 z"
         id="path5923-8"
         inkscape:connector-curvature="0" />
    </clipPath>
    <clipPath
       clipPathUnits="userSpaceOnUse"
       id="clipPath5935-6">
      <path
         d="M 0,0 H 576 V 903 H 0 Z"
         id="path5933-9"
         inkscape:connector-curvature="0" />
    </clipPath>
    <clipPath
       clipPathUnits="userSpaceOnUse"
       id="clipPath5945-1">
      <path
         d="m 154,218 h 6 v 4 h -6 z"
         id="path5943-1"
         inkscape:connector-curvature="0" />
    </clipPath>
    <clipPath
       clipPathUnits="userSpaceOnUse"
       id="clipPath5951-2">
      <path
         d="m 159.313,221.086 -4.278,-2.328 c -0.207,-0.113 -0.426,-0.305 -0.609,-0.629 l 4.277,2.324 c 0.184,0.328 0.402,0.52 0.61,0.633"
         id="path5949-3"
         inkscape:connector-curvature="0" />
    </clipPath>
    <clipPath
       clipPathUnits="userSpaceOnUse"
       id="clipPath5961-0">
      <path
         d="M 0,0 H 576 V 903 H 0 Z"
         id="path5959-5"
         inkscape:connector-curvature="0" />
    </clipPath>
    <clipPath
       clipPathUnits="userSpaceOnUse"
       id="clipPath5971-0">
      <path
         d="m 154.426,218.129 h 4.887 v 2.957 h -4.887 z"
         id="path5969-8"
         inkscape:connector-curvature="0" />
    </clipPath>
    <clipPath
       clipPathUnits="userSpaceOnUse"
       id="clipPath5981-3">
      <path
         d="M 0,0 H 576 V 903 H 0 Z"
         id="path5979-1"
         inkscape:connector-curvature="0" />
    </clipPath>
    <clipPath
       clipPathUnits="userSpaceOnUse"
       id="clipPath5993-4">
      <path
         d="m 152.656,215.16 h 6.047 v 5.293 h -6.047 z"
         id="path5991-0"
         inkscape:connector-curvature="0" />
    </clipPath>
    <clipPath
       clipPathUnits="userSpaceOnUse"
       id="clipPath6003-6">
      <path
         d="M 0,0 H 576 V 903 H 0 Z"
         id="path6001-7"
         inkscape:connector-curvature="0" />
    </clipPath>
    <clipPath
       clipPathUnits="userSpaceOnUse"
       id="clipPath6013-9">
      <path
         d="m 152,215 h 7 v 6 h -7 z"
         id="path6011-8"
         inkscape:connector-curvature="0" />
    </clipPath>
    <clipPath
       clipPathUnits="userSpaceOnUse"
       id="clipPath6019-5">
      <path
         d="m 152.656,215.16 4.278,2.328 c 0.113,0.063 0.164,0.172 0.207,0.254 0.355,0.703 1.504,2.613 1.562,2.711 l -4.277,-2.324 c -0.059,-0.102 -1.203,-2.012 -1.563,-2.711 -0.043,-0.082 -0.093,-0.191 -0.207,-0.258"
         id="path6017-3"
         inkscape:connector-curvature="0" />
    </clipPath>
    <clipPath
       clipPathUnits="userSpaceOnUse"
       id="clipPath6029-2">
      <path
         d="M 0,0 H 576 V 903 H 0 Z"
         id="path6027-3"
         inkscape:connector-curvature="0" />
    </clipPath>
    <clipPath
       clipPathUnits="userSpaceOnUse"
       id="clipPath6039-5">
      <path
         d="m 152.656,215.16 h 6.047 v 5.293 h -6.047 z"
         id="path6037-6"
         inkscape:connector-curvature="0" />
    </clipPath>
    <clipPath
       clipPathUnits="userSpaceOnUse"
       id="clipPath6049-8">
      <path
         d="M 0,0 H 576 V 903 H 0 Z"
         id="path6047-8"
         inkscape:connector-curvature="0" />
    </clipPath>
    <clipPath
       clipPathUnits="userSpaceOnUse"
       id="clipPath6061-3">
      <path
         d="m 155.781,202.273 h 9.473 v 3.957 h -9.473 z"
         id="path6059-6"
         inkscape:connector-curvature="0" />
    </clipPath>
    <clipPath
       clipPathUnits="userSpaceOnUse"
       id="clipPath6071-2">
      <path
         d="M 0,0 H 576 V 903 H 0 Z"
         id="path6069-4"
         inkscape:connector-curvature="0" />
    </clipPath>
    <clipPath
       clipPathUnits="userSpaceOnUse"
       id="clipPath6081-9">
      <path
         d="m 155,202 h 11 v 5 h -11 z"
         id="path6079-7"
         inkscape:connector-curvature="0" />
    </clipPath>
    <clipPath
       clipPathUnits="userSpaceOnUse"
       id="clipPath6087-4">
      <path
         d="m 160.059,204.602 -4.278,-2.329 c 0.012,0.008 0.028,0.016 0.043,0.02 0.129,0.043 3.192,0.543 5.153,1.609 l 4.277,2.328 c -1.965,-1.07 -5.024,-1.57 -5.152,-1.609 -0.016,-0.008 -0.032,-0.012 -0.043,-0.019"
         id="path6085-2"
         inkscape:connector-curvature="0" />
    </clipPath>
    <clipPath
       clipPathUnits="userSpaceOnUse"
       id="clipPath6097-8">
      <path
         d="M 0,0 H 576 V 903 H 0 Z"
         id="path6095-0"
         inkscape:connector-curvature="0" />
    </clipPath>
    <clipPath
       clipPathUnits="userSpaceOnUse"
       id="clipPath6107-4">
      <path
         d="m 155.781,202.273 h 9.473 v 3.957 h -9.473 z"
         id="path6105-2"
         inkscape:connector-curvature="0" />
    </clipPath>
    <clipPath
       clipPathUnits="userSpaceOnUse"
       id="clipPath6117-8">
      <path
         d="M 0,0 H 576 V 903 H 0 Z"
         id="path6115-6"
         inkscape:connector-curvature="0" />
    </clipPath>
    <clipPath
       clipPathUnits="userSpaceOnUse"
       id="clipPath6137-6">
      <path
         d="m 143.055,219.395 h 4.445 v 3.531 h -4.445 z"
         id="path6135-2"
         inkscape:connector-curvature="0" />
    </clipPath>
    <clipPath
       clipPathUnits="userSpaceOnUse"
       id="clipPath6147-7">
      <path
         d="M 0,0 H 576 V 903 H 0 Z"
         id="path6145-5"
         inkscape:connector-curvature="0" />
    </clipPath>
    <clipPath
       clipPathUnits="userSpaceOnUse"
       id="clipPath6157-9">
      <path
         d="m 143,219 h 5 v 4 h -5 z"
         id="path6155-5"
         inkscape:connector-curvature="0" />
    </clipPath>
    <clipPath
       clipPathUnits="userSpaceOnUse"
       id="clipPath6163-9">
      <path
         d="m 147.5,222.926 -4.277,-2.328 c -0.348,-0.192 -0.051,-1.145 -0.035,-1.203 l 4.277,2.328 c -0.016,0.054 -0.313,1.011 0.035,1.203"
         id="path6161-4"
         inkscape:connector-curvature="0" />
    </clipPath>
    <clipPath
       clipPathUnits="userSpaceOnUse"
       id="clipPath6173-5">
      <path
         d="M 0,0 H 576 V 903 H 0 Z"
         id="path6171-7"
         inkscape:connector-curvature="0" />
    </clipPath>
    <clipPath
       clipPathUnits="userSpaceOnUse"
       id="clipPath6183-0">
      <path
         d="m 143.055,219.395 h 4.445 v 3.531 h -4.445 z"
         id="path6181-5"
         inkscape:connector-curvature="0" />
    </clipPath>
    <clipPath
       clipPathUnits="userSpaceOnUse"
       id="clipPath6193-2">
      <path
         d="M 0,0 H 576 V 903 H 0 Z"
         id="path6191-7"
         inkscape:connector-curvature="0" />
    </clipPath>
    <clipPath
       clipPathUnits="userSpaceOnUse"
       id="clipPath6205-8">
      <path
         d="m 143.188,210.199 h 7.844 v 11.523 h -7.844 z"
         id="path6203-6"
         inkscape:connector-curvature="0" />
    </clipPath>
    <clipPath
       clipPathUnits="userSpaceOnUse"
       id="clipPath6215-0">
      <path
         d="M 0,0 H 576 V 903 H 0 Z"
         id="path6213-7"
         inkscape:connector-curvature="0" />
    </clipPath>
    <clipPath
       clipPathUnits="userSpaceOnUse"
       id="clipPath6225-0">
      <path
         d="m 143,210 h 9 v 12 h -9 z"
         id="path6223-9"
         inkscape:connector-curvature="0" />
    </clipPath>
    <clipPath
       clipPathUnits="userSpaceOnUse"
       id="clipPath6231-2">
      <path
         d="m 146.543,210.199 4.277,2.328 c 0.215,0.118 0.352,0.411 -0.015,1.145 -0.684,1.367 -2.5,4.719 -3.34,8.051 l -4.277,-2.328 c 0.839,-3.332 2.656,-6.684 3.339,-8.047 0.368,-0.735 0.231,-1.032 0.016,-1.149"
         id="path6229-2"
         inkscape:connector-curvature="0" />
    </clipPath>
    <clipPath
       clipPathUnits="userSpaceOnUse"
       id="clipPath6241-6">
      <path
         d="M 0,0 H 576 V 903 H 0 Z"
         id="path6239-8"
         inkscape:connector-curvature="0" />
    </clipPath>
    <clipPath
       clipPathUnits="userSpaceOnUse"
       id="clipPath6251-1">
      <path
         d="m 143.188,210.199 h 7.844 v 11.523 h -7.844 z"
         id="path6249-0"
         inkscape:connector-curvature="0" />
    </clipPath>
    <clipPath
       clipPathUnits="userSpaceOnUse"
       id="clipPath6261-8">
      <path
         d="M 0,0 H 576 V 903 H 0 Z"
         id="path6259-7"
         inkscape:connector-curvature="0" />
    </clipPath>
    <clipPath
       clipPathUnits="userSpaceOnUse"
       id="clipPath6277-2">
      <path
         d="m 152.488,198.078 h 5.934 v 2.641 h -5.934 z"
         id="path6275-6"
         inkscape:connector-curvature="0" />
    </clipPath>
    <clipPath
       clipPathUnits="userSpaceOnUse"
       id="clipPath6287-8">
      <path
         d="M 0,0 H 576 V 903 H 0 Z"
         id="path6285-3"
         inkscape:connector-curvature="0" />
    </clipPath>
    <clipPath
       clipPathUnits="userSpaceOnUse"
       id="clipPath6297-0">
      <path
         d="m 152,198 h 7 v 3 h -7 z"
         id="path6295-9"
         inkscape:connector-curvature="0" />
    </clipPath>
    <clipPath
       clipPathUnits="userSpaceOnUse"
       id="clipPath6303-4">
      <path
         d="m 154.145,198.391 4.277,2.328 c -0.703,-0.383 -1.43,-0.324 -1.656,-0.289 l -4.278,-2.328 c 0.231,-0.032 0.953,-0.09 1.657,0.289"
         id="path6301-3"
         inkscape:connector-curvature="0" />
    </clipPath>
    <clipPath
       clipPathUnits="userSpaceOnUse"
       id="clipPath6313-3">
      <path
         d="M 0,0 H 576 V 903 H 0 Z"
         id="path6311-1"
         inkscape:connector-curvature="0" />
    </clipPath>
    <clipPath
       clipPathUnits="userSpaceOnUse"
       id="clipPath6323-6">
      <path
         d="m 152.488,198.078 h 5.934 v 2.641 h -5.934 z"
         id="path6321-7"
         inkscape:connector-curvature="0" />
    </clipPath>
    <clipPath
       clipPathUnits="userSpaceOnUse"
       id="clipPath6333-2">
      <path
         d="M 0,0 H 576 V 903 H 0 Z"
         id="path6331-3"
         inkscape:connector-curvature="0" />
    </clipPath>
    <clipPath
       clipPathUnits="userSpaceOnUse"
       id="clipPath6349-5">
      <path
         d="m 152.414,198.102 h 4.352 v 2.34 h -4.352 z"
         id="path6347-4"
         inkscape:connector-curvature="0" />
    </clipPath>
    <clipPath
       clipPathUnits="userSpaceOnUse"
       id="clipPath6359-9">
      <path
         d="M 0,0 H 576 V 903 H 0 Z"
         id="path6357-0"
         inkscape:connector-curvature="0" />
    </clipPath>
    <clipPath
       clipPathUnits="userSpaceOnUse"
       id="clipPath6369-7">
      <path
         d="m 152,198 h 5 v 3 h -5 z"
         id="path6367-8"
         inkscape:connector-curvature="0" />
    </clipPath>
    <clipPath
       clipPathUnits="userSpaceOnUse"
       id="clipPath6375-0">
      <path
         d="m 156.691,200.441 -4.277,-2.328 c 0,0 0.027,-0.004 0.074,-0.011 l 4.278,2.328 c -0.047,0.008 -0.075,0.011 -0.075,0.011"
         id="path6373-1"
         inkscape:connector-curvature="0" />
    </clipPath>
    <clipPath
       clipPathUnits="userSpaceOnUse"
       id="clipPath6385-7">
      <path
         d="M 0,0 H 576 V 903 H 0 Z"
         id="path6383-3"
         inkscape:connector-curvature="0" />
    </clipPath>
    <clipPath
       clipPathUnits="userSpaceOnUse"
       id="clipPath6395-6">
      <path
         d="m 152.414,198.102 h 4.352 v 2.34 h -4.352 z"
         id="path6393-5"
         inkscape:connector-curvature="0" />
    </clipPath>
    <clipPath
       clipPathUnits="userSpaceOnUse"
       id="clipPath6405-9">
      <path
         d="M 0,0 H 576 V 903 H 0 Z"
         id="path6403-1"
         inkscape:connector-curvature="0" />
    </clipPath>
    <clipPath
       clipPathUnits="userSpaceOnUse"
       id="clipPath6417-5">
      <path
         d="m 149.113,198.113 h 7.578 v 7.156 h -7.578 z"
         id="path6415-3"
         inkscape:connector-curvature="0" />
    </clipPath>
    <clipPath
       clipPathUnits="userSpaceOnUse"
       id="clipPath6427-0">
      <path
         d="M 0,0 H 576 V 903 H 0 Z"
         id="path6425-2"
         inkscape:connector-curvature="0" />
    </clipPath>
    <clipPath
       clipPathUnits="userSpaceOnUse"
       id="clipPath6437-3">
      <path
         d="m 149,198 h 8 v 8 h -8 z"
         id="path6435-5"
         inkscape:connector-curvature="0" />
    </clipPath>
    <clipPath
       clipPathUnits="userSpaceOnUse"
       id="clipPath6443-2">
      <path
         d="m 153.391,205.27 -4.278,-2.329 c 0.008,-4.179 2.742,-4.75 3.227,-4.82 0.051,-0.004 0.074,-0.008 0.074,-0.008 l 4.277,2.328 c -0.003,0 -0.027,0 -0.074,0.008 -0.484,0.071 -3.219,0.641 -3.226,4.821"
         id="path6441-6"
         inkscape:connector-curvature="0" />
    </clipPath>
    <clipPath
       clipPathUnits="userSpaceOnUse"
       id="clipPath6453-4">
      <path
         d="M 0,0 H 576 V 903 H 0 Z"
         id="path6451-8"
         inkscape:connector-curvature="0" />
    </clipPath>
    <clipPath
       clipPathUnits="userSpaceOnUse"
       id="clipPath6463-1">
      <path
         d="m 149.113,198.113 h 7.578 v 7.156 h -7.578 z"
         id="path6461-6"
         inkscape:connector-curvature="0" />
    </clipPath>
    <clipPath
       clipPathUnits="userSpaceOnUse"
       id="clipPath6473-9">
      <path
         d="M 0,0 H 576 V 903 H 0 Z"
         id="path6471-1"
         inkscape:connector-curvature="0" />
    </clipPath>
    <clipPath
       clipPathUnits="userSpaceOnUse"
       id="clipPath6503-3">
      <path
         d="m 142.188,202.941 h 11.215 v 9.316 h -11.215 z"
         id="path6501-7"
         inkscape:connector-curvature="0" />
    </clipPath>
    <clipPath
       clipPathUnits="userSpaceOnUse"
       id="clipPath6513-1">
      <path
         d="M 0,0 H 576 V 903 H 0 Z"
         id="path6511-9"
         inkscape:connector-curvature="0" />
    </clipPath>
    <clipPath
       clipPathUnits="userSpaceOnUse"
       id="clipPath6523-5">
      <path
         d="m 142,202 h 12 v 11 h -12 z"
         id="path6521-6"
         inkscape:connector-curvature="0" />
    </clipPath>
    <clipPath
       clipPathUnits="userSpaceOnUse"
       id="clipPath6529-6">
      <path
         d="m 147.164,212.258 -4.277,-2.324 c -0.461,-0.254 -0.762,-0.68 -0.688,-1.375 0.254,-2.387 6.594,-5.192 6.785,-5.301 0.196,-0.117 0.133,-0.305 0.129,-0.317 l 4.278,2.329 c 0.004,0.011 0.062,0.199 -0.129,0.312 -0.192,0.113 -6.532,2.914 -6.785,5.301 -0.075,0.699 0.222,1.125 0.687,1.375"
         id="path6527-3"
         inkscape:connector-curvature="0" />
    </clipPath>
    <clipPath
       clipPathUnits="userSpaceOnUse"
       id="clipPath6539-9">
      <path
         d="M 0,0 H 576 V 903 H 0 Z"
         id="path6537-0"
         inkscape:connector-curvature="0" />
    </clipPath>
    <clipPath
       clipPathUnits="userSpaceOnUse"
       id="clipPath6549-2">
      <path
         d="m 142.188,202.941 h 11.215 v 9.316 h -11.215 z"
         id="path6547-9"
         inkscape:connector-curvature="0" />
    </clipPath>
    <clipPath
       clipPathUnits="userSpaceOnUse"
       id="clipPath6559-1">
      <path
         d="M 0,0 H 576 V 903 H 0 Z"
         id="path6557-1"
         inkscape:connector-curvature="0" />
    </clipPath>
  </defs>
  <sodipodi:namedview
     id="base"
     pagecolor="#ffffff"
     bordercolor="#666666"
     borderopacity="1.0"
     inkscape:pageopacity="0.0"
     inkscape:pageshadow="2"
     inkscape:zoom="11.313709"
     inkscape:cx="-8.8807583"
     inkscape:cy="14.896152"
     inkscape:document-units="mm"
     inkscape:current-layer="layer1"
     showgrid="false"
     inkscape:window-width="1920"
     inkscape:window-height="1017"
     inkscape:window-x="-8"
     inkscape:window-y="-8"
     inkscape:window-maximized="1" />
  <metadata
     id="metadata84285">
    <rdf:RDF>
      <cc:Work
         rdf:about="">
        <dc:format>image/svg+xml</dc:format>
        <dc:type
           rdf:resource="http://purl.org/dc/dcmitype/StillImage" />
        <dc:title />
      </cc:Work>
    </rdf:RDF>
  </metadata>
  <g
     inkscape:label="Ebene 1"
     inkscape:groupmode="layer"
     id="layer1"
     transform="translate(-40.923756,-82.502249)">
    <g
       id="g6493"
       transform="matrix(-0.35081143,0,0,0.33375428,99.543358,16.466151)"
       style="display:inline;fill:#00a14b;fill-opacity:1;stroke:#000000;stroke-width:0.15489078;stroke-miterlimit:4;stroke-dasharray:none;stroke-opacity:1"
       inkscape:label="MeepleNormal_green">
      <path
         d="m 162.969,210.691 c 0.008,0 0.105,-0.007 0.285,-0.031 0.934,-0.133 3.82,-0.699 3.609,-2.64 -0.074,-0.723 -0.742,-1.317 -1.625,-1.797 0.004,0 0.008,0.004 0.012,0.004 l -0.02,-0.008 c -0.003,-0.004 -0.003,-0.004 -0.007,-0.004 l -4.25,-2.313 c -0.098,-0.054 -0.196,-0.105 -0.297,-0.152 -0.016,-0.008 -0.031,-0.016 -0.047,-0.023 -0.188,-0.09 -0.387,-0.18 -0.59,-0.262 -0.043,-0.016 -0.082,-0.035 -0.125,-0.051 -0.187,-1.598 -0.855,-2.363 -1.539,-2.715 0.016,0.008 0.031,0.012 0.047,0.02 l -4.274,-2.324 c -0.031,-0.016 -0.062,-0.032 -0.089,-0.047 -0.102,-0.051 -0.2,-0.078 -0.305,-0.11 -0.051,-0.019 -0.106,-0.047 -0.156,-0.062 -0.012,0 -0.02,-0.004 -0.024,-0.008 -0.148,-0.039 -0.285,-0.059 -0.414,-0.07 -0.035,-0.004 -0.058,-0.004 -0.094,-0.008 -0.105,-0.008 -0.199,-0.008 -0.281,-0.008 -0.031,0 -0.055,0 -0.086,0.004 -0.086,0.004 -0.168,0.012 -0.215,0.016 -0.046,0.007 -0.074,0.015 -0.078,0.015 0,0 -0.023,0 -0.074,0.008 -0.031,0.004 -0.078,0.012 -0.129,0.02 -0.015,0.007 -0.035,0.011 -0.051,0.015 -0.043,0.008 -0.086,0.016 -0.136,0.031 -0.028,0.008 -0.051,0.016 -0.075,0.02 -0.054,0.016 -0.113,0.035 -0.171,0.055 -0.028,0.011 -0.051,0.019 -0.079,0.031 -0.074,0.027 -0.148,0.055 -0.226,0.09 -0.016,0.008 -0.027,0.015 -0.047,0.023 0,0 -0.004,0.004 -0.008,0.004 -0.144,0.07 -0.301,0.156 -0.457,0.262 -0.012,0.008 -0.023,0.012 -0.039,0.023 -0.008,0.004 -0.016,0.016 -0.023,0.02 -0.11,0.078 -0.223,0.16 -0.328,0.258 l -0.004,0.007 c 0,0 -0.004,0 -0.004,0 -0.098,0.086 -0.192,0.184 -0.285,0.289 -0.004,0 -0.004,0.004 -0.004,0.004 -0.024,0.024 -0.047,0.059 -0.067,0.086 -0.16,0.188 -0.308,0.399 -0.441,0.645 -0.004,0.004 -0.008,0.008 -0.008,0.012 -0.008,0.015 -0.012,0.031 -0.02,0.046 -0.078,0.149 -0.152,0.313 -0.218,0.489 -0.008,0.023 -0.02,0.039 -0.028,0.066 -0.023,0.051 -0.035,0.113 -0.054,0.172 -0.024,0.078 -0.051,0.156 -0.075,0.238 -0.027,0.102 -0.05,0.211 -0.074,0.317 -0.019,0.082 -0.039,0.164 -0.051,0.25 -0.023,0.129 -0.039,0.265 -0.058,0.406 -0.008,0.078 -0.02,0.148 -0.024,0.23 -0.023,0.223 -0.031,0.461 -0.035,0.711 0.004,0 0.008,0.02 0.008,0.043 0,0.008 0,0.016 0,0.024 0,0.023 -0.004,0.047 -0.008,0.07 -0.008,0.027 -0.011,0.051 -0.031,0.078 -0.019,0.035 -0.055,0.067 -0.102,0.094 -0.015,0.008 -0.062,0.035 -0.125,0.066 -0.074,0.032 -0.171,0.082 -0.292,0.141 -0.016,0.004 -0.032,0.012 -0.047,0.023 -0.106,0.051 -0.227,0.106 -0.36,0.172 -0.039,0.02 -0.078,0.039 -0.117,0.059 -0.129,0.066 -0.266,0.137 -0.414,0.211 -0.047,0.023 -0.09,0.047 -0.137,0.074 -0.172,0.09 -0.355,0.184 -0.543,0.289 -0.027,0.012 -0.047,0.024 -0.074,0.039 -0.219,0.117 -0.445,0.246 -0.676,0.379 -0.027,0.016 -0.05,0.031 -0.078,0.047 -0.195,0.113 -0.39,0.234 -0.59,0.355 -0.07,0.047 -0.136,0.09 -0.203,0.133 -0.16,0.098 -0.312,0.203 -0.465,0.305 -0.039,0.027 -0.078,0.051 -0.117,0.078 -0.043,0.031 -0.086,0.063 -0.129,0.094 -0.129,0.09 -0.25,0.179 -0.375,0.269 -0.082,0.063 -0.164,0.12501 -0.242,0.18801 -0.117,0.094 -0.226,0.18699 -0.336,0.28099 -0.051,0.043 -0.105,0.086 -0.156,0.129 -0.02,0.019 -0.039,0.039 -0.059,0.059 -0.156,0.144 -0.297,0.285 -0.429,0.429 -0.024,0.024 -0.055,0.051 -0.075,0.074 -0.007,0.008 -0.007,0.012 -0.015,0.02 -0.039,0.043 -0.071,0.09 -0.11,0.133 -0.066,0.082 -0.132,0.16 -0.191,0.242 -0.012,0.02 -0.023,0.039 -0.039,0.062 -0.023,0.036 -0.047,0.075 -0.066,0.11 -0.032,0.051 -0.067,0.101 -0.094,0.148 -0.031,0.063 -0.055,0.125 -0.082,0.184 -0.012,0.027 -0.028,0.055 -0.039,0.082 -0.004,0.012 -0.012,0.023 -0.016,0.035 -0.047,0.133 -0.082,0.262 -0.094,0.395 -0.074,0.695 0.227,1.121 0.692,1.371 l 3.41,1.859 c -0.035,0.074 -0.07,0.145 -0.113,0.227 -0.082,0.156 -0.164,0.324 -0.258,0.504 l -0.137,0.277 c -0.109,0.215 -0.223,0.449 -0.34,0.695 -0.027,0.047 -0.047,0.09 -0.07,0.141 -0.141,0.289 -0.277,0.59 -0.422,0.902 -0.043,0.094 -0.082,0.184 -0.125,0.278 -0.105,0.238 -0.211,0.484 -0.316,0.734 -0.051,0.113 -0.094,0.223 -0.141,0.336 -0.117,0.285 -0.23,0.574 -0.344,0.867 -0.027,0.074 -0.054,0.141 -0.082,0.215 -0.008,0.019 -0.015,0.039 -0.019,0.055 -0.086,0.23 -0.16,0.46 -0.239,0.691 -0.05,0.156 -0.109,0.309 -0.16,0.465 -0.125,0.406 -0.246,0.812 -0.347,1.219 -0.02,0.058 -0.309,1.011 0.043,1.203 l 4.273,2.324 c -0.047,-0.024 -0.078,-0.063 -0.105,-0.11301 0.054,0.105 0.152,0.16401 0.312,0.144 l 5.613,-0.789 c 0.071,-0.012 0.789,-0.13699 1.278,-1.13299 0.039,-0.078 0.55,-1.066 1,-1.965 l 3.707,2.02 c 0,0 0,-0.004 -0.004,-0.004 0.336,0.184 0.629,0.152 0.679,0.145 l 5.61,-0.789 c 0.65191,-0.094 0.26491,-1.23503 0.24591,-1.29703 -0.82,-3.102 -2.633,-5.942 -3.309,-7.114 -0.679,-1.179 0.383,-1.328 0.442,-1.336"
         style="fill:none;fill-opacity:1;fill-rule:nonzero;stroke:#000000;stroke-width:0.44713753;stroke-miterlimit:4;stroke-dasharray:none;stroke-opacity:1"
         id="path5893"
         inkscape:connector-curvature="0" />
      <path
         d="m 162.969,210.691 c 0.008,0 0.105,-0.007 0.285,-0.031 0.934,-0.133 3.82,-0.699 3.609,-2.64 -0.074,-0.723 -0.742,-1.317 -1.625,-1.797 0.004,0 0.008,0.004 0.012,0.004 l -0.02,-0.008 c -0.003,-0.004 -0.003,-0.004 -0.007,-0.004 l -4.25,-2.313 c -0.098,-0.054 -0.196,-0.105 -0.297,-0.152 -0.016,-0.008 -0.031,-0.016 -0.047,-0.023 -0.188,-0.09 -0.387,-0.18 -0.59,-0.262 -0.043,-0.016 -0.082,-0.035 -0.125,-0.051 -0.187,-1.598 -0.855,-2.363 -1.539,-2.715 0.016,0.008 0.031,0.012 0.047,0.02 l -4.274,-2.324 c -0.031,-0.016 -0.062,-0.032 -0.089,-0.047 -0.102,-0.051 -0.2,-0.078 -0.305,-0.11 -0.051,-0.019 -0.106,-0.047 -0.156,-0.062 -0.012,0 -0.02,-0.004 -0.024,-0.008 -0.148,-0.039 -0.285,-0.059 -0.414,-0.07 -0.035,-0.004 -0.058,-0.004 -0.094,-0.008 -0.105,-0.008 -0.199,-0.008 -0.281,-0.008 -0.031,0 -0.055,0 -0.086,0.004 -0.086,0.004 -0.168,0.012 -0.215,0.016 -0.046,0.007 -0.074,0.015 -0.078,0.015 0,0 -0.023,0 -0.074,0.008 -0.031,0.004 -0.078,0.012 -0.129,0.02 -0.015,0.007 -0.035,0.011 -0.051,0.015 -0.043,0.008 -0.086,0.016 -0.136,0.031 -0.028,0.008 -0.051,0.016 -0.075,0.02 -0.054,0.016 -0.113,0.035 -0.171,0.055 -0.028,0.011 -0.051,0.019 -0.079,0.031 -0.074,0.027 -0.148,0.055 -0.226,0.09 -0.016,0.008 -0.027,0.015 -0.047,0.023 0,0 -0.004,0.004 -0.008,0.004 -0.144,0.07 -0.301,0.156 -0.457,0.262 -0.012,0.008 -0.023,0.012 -0.039,0.023 -0.008,0.004 -0.016,0.016 -0.023,0.02 -0.11,0.078 -0.223,0.16 -0.328,0.258 l -0.004,0.007 c 0,0 -0.004,0 -0.004,0 -0.098,0.086 -0.192,0.184 -0.285,0.289 -0.004,0 -0.004,0.004 -0.004,0.004 -0.024,0.024 -0.047,0.059 -0.067,0.086 -0.16,0.188 -0.308,0.399 -0.441,0.645 -0.004,0.004 -0.008,0.008 -0.008,0.012 -0.008,0.015 -0.012,0.031 -0.02,0.046 -0.078,0.149 -0.152,0.313 -0.218,0.489 -0.008,0.023 -0.02,0.039 -0.028,0.066 -0.023,0.051 -0.035,0.113 -0.054,0.172 -0.024,0.078 -0.051,0.156 -0.075,0.238 -0.027,0.102 -0.05,0.211 -0.074,0.317 -0.019,0.082 -0.039,0.164 -0.051,0.25 -0.023,0.129 -0.039,0.265 -0.058,0.406 -0.008,0.078 -0.02,0.148 -0.024,0.23 -0.023,0.223 -0.031,0.461 -0.035,0.711 0.004,0 0.008,0.02 0.008,0.043 0,0.008 0,0.016 0,0.024 0,0.023 -0.004,0.047 -0.008,0.07 -0.008,0.027 -0.011,0.051 -0.031,0.078 -0.019,0.035 -0.055,0.067 -0.102,0.094 -0.015,0.008 -0.062,0.035 -0.125,0.066 -0.074,0.032 -0.171,0.082 -0.292,0.141 -0.016,0.004 -0.032,0.012 -0.047,0.023 -0.106,0.051 -0.227,0.106 -0.36,0.172 -0.039,0.02 -0.078,0.039 -0.117,0.059 -0.129,0.066 -0.266,0.137 -0.414,0.211 -0.047,0.023 -0.09,0.047 -0.137,0.074 -0.172,0.09 -0.355,0.184 -0.543,0.289 -0.027,0.012 -0.047,0.024 -0.074,0.039 -0.219,0.117 -0.445,0.246 -0.676,0.379 -0.027,0.016 -0.05,0.031 -0.078,0.047 -0.195,0.113 -0.39,0.234 -0.59,0.355 -0.07,0.047 -0.136,0.09 -0.203,0.133 -0.16,0.098 -0.312,0.203 -0.465,0.305 -0.039,0.027 -0.078,0.051 -0.117,0.078 -0.043,0.031 -0.086,0.063 -0.129,0.094 -0.129,0.09 -0.25,0.179 -0.375,0.269 -0.082,0.063 -0.164,0.12501 -0.242,0.18801 -0.117,0.094 -0.226,0.18699 -0.336,0.28099 -0.051,0.043 -0.105,0.086 -0.156,0.129 -0.02,0.019 -0.039,0.039 -0.059,0.059 -0.156,0.144 -0.297,0.285 -0.429,0.429 -0.024,0.024 -0.055,0.051 -0.075,0.074 -0.007,0.008 -0.007,0.012 -0.015,0.02 -0.039,0.043 -0.071,0.09 -0.11,0.133 -0.066,0.082 -0.132,0.16 -0.191,0.242 -0.012,0.02 -0.023,0.039 -0.039,0.062 -0.023,0.036 -0.047,0.075 -0.066,0.11 -0.032,0.051 -0.067,0.101 -0.094,0.148 -0.031,0.063 -0.055,0.125 -0.082,0.184 -0.012,0.027 -0.028,0.055 -0.039,0.082 -0.004,0.012 -0.012,0.023 -0.016,0.035 -0.047,0.133 -0.082,0.262 -0.094,0.395 -0.074,0.695 0.227,1.121 0.692,1.371 l 3.41,1.859 c -0.035,0.074 -0.07,0.145 -0.113,0.227 -0.082,0.156 -0.164,0.324 -0.258,0.504 l -0.137,0.277 c -0.109,0.215 -0.223,0.449 -0.34,0.695 -0.027,0.047 -0.047,0.09 -0.07,0.141 -0.141,0.289 -0.277,0.59 -0.422,0.902 -0.043,0.094 -0.082,0.184 -0.125,0.278 -0.105,0.238 -0.211,0.484 -0.316,0.734 -0.051,0.113 -0.094,0.223 -0.141,0.336 -0.117,0.285 -0.23,0.574 -0.344,0.867 -0.027,0.074 -0.054,0.141 -0.082,0.215 -0.008,0.019 -0.015,0.039 -0.019,0.055 -0.086,0.23 -0.16,0.46 -0.239,0.691 -0.05,0.156 -0.109,0.309 -0.16,0.465 -0.125,0.406 -0.246,0.812 -0.347,1.219 -0.02,0.058 -0.309,1.011 0.043,1.203 l 4.273,2.324 c -0.047,-0.024 -0.078,-0.063 -0.105,-0.11301 0.054,0.105 0.152,0.16401 0.312,0.144 l 5.613,-0.789 c 0.071,-0.012 0.789,-0.13699 1.278,-1.13299 0.039,-0.078 0.55,-1.066 1,-1.965 l 3.707,2.02 c 0,0 0,-0.004 -0.004,-0.004 0.336,0.184 0.629,0.152 0.679,0.145 l 5.61,-0.789 c 0.65182,-0.094 0.26482,-1.23506 0.24582,-1.29706 -0.82,-3.102 -2.633,-5.942 -3.309,-7.114 -0.679,-1.179 0.383,-1.328 0.442,-1.336"
         style="display:inline;fill:#006730;fill-opacity:1;fill-rule:nonzero;stroke:none;stroke-width:0.44713753;stroke-miterlimit:4;stroke-dasharray:none;stroke-opacity:1"
         id="path5893-0"
         inkscape:connector-curvature="0" />
      <path
         inkscape:connector-curvature="0"
         id="path6495"
         style="fill:#00a14b;fill-opacity:1;fill-rule:nonzero;stroke:#000000;stroke-width:0.15489078;stroke-miterlimit:4;stroke-dasharray:none;stroke-opacity:1"
         d="m 156.762,200.43 c 0.484,-0.071 3.211,-0.266 3.199,3.918 0,0.007 -0.055,0.215 0.137,0.273 0.183,0.059 6.515,1.078 6.769,3.399 0.207,1.941 -2.68,2.507 -3.613,2.636 -0.176,0.028 -0.278,0.035 -0.285,0.035 -0.055,0.008 -1.129,0.161 -0.442,1.332 0.68,1.176 2.481,4.016 3.309,7.118 0.023,0.058 0.398,1.207 -0.25,1.297 l -5.606,0.789 c -0.078,0.011 -0.796,0.086 -1.281,-0.774 -0.058,-0.098 -1.207,-2.008 -1.566,-2.711 -0.063,-0.129 -0.149,-0.324 -0.477,-0.301 -0.336,0.071 -0.418,0.289 -0.492,0.438 -0.359,0.805 -1.504,3.035 -1.566,3.152 -0.489,0.996 -1.215,1.121 -1.286,1.129 l -5.613,0.789 c -0.648,0.094 -0.258,-1.16 -0.238,-1.226 0.84,-3.332 2.656,-6.684 3.34,-8.051 0.683,-1.367 -0.383,-1.219 -0.438,-1.207 -0.004,0 -0.109,0.019 -0.285,0.043 -0.934,0.133 -3.824,0.379 -3.605,-1.625 0.253,-2.387 6.593,-5.188 6.785,-5.301 0.191,-0.113 0.133,-0.301 0.129,-0.312 0.007,-4.184 2.738,-4.75 3.226,-4.821 0.047,-0.004 0.074,-0.008 0.074,-0.008 0,0 0.024,-0.003 0.075,-0.011" />
    </g>
  </g>
</svg>
