<?xml version="1.0" encoding="UTF-8" standalone="no"?>
<!-- Created with Inkscape (http://www.inkscape.org/) -->

<svg
   xmlns:dc="http://purl.org/dc/elements/1.1/"
   xmlns:cc="http://creativecommons.org/ns#"
   xmlns:rdf="http://www.w3.org/1999/02/22-rdf-syntax-ns#"
   xmlns:svg="http://www.w3.org/2000/svg"
   xmlns="http://www.w3.org/2000/svg"
   xmlns:sodipodi="http://sodipodi.sourceforge.net/DTD/sodipodi-0.dtd"
   xmlns:inkscape="http://www.inkscape.org/namespaces/inkscape"
   width="11.254045mm"
   height="10.620081mm"
   viewBox="0 0 11.254045 10.620081"
   version="1.1"
   id="svg667164"
   inkscape:version="0.92.3 (2405546, 2018-03-11)"
   sodipodi:docname="Mayor_red_f.svg">
  <defs
     id="defs667158">
    <clipPath
       clipPathUnits="userSpaceOnUse"
       id="clipPath182249">
      <path
         d="M 67.285,356.617 H 95.133 V 384.73 H 67.285 Z"
         id="path182247"
         inkscape:connector-curvature="0" />
    </clipPath>
    <clipPath
       clipPathUnits="userSpaceOnUse"
       id="clipPath182259">
      <path
         d="M 0,0 H 576 V 903 H 0 Z"
         id="path182257"
         inkscape:connector-curvature="0" />
    </clipPath>
    <clipPath
       clipPathUnits="userSpaceOnUse"
       id="clipPath182271">
      <path
         d="M 0,0 H 576 V 903 H 0 Z"
         id="path182269"
         inkscape:connector-curvature="0" />
    </clipPath>
    <clipPath
       clipPathUnits="userSpaceOnUse"
       id="clipPath182283">
      <path
         d="M 0,0 H 576 V 903 H 0 Z"
         id="path182281"
         inkscape:connector-curvature="0" />
    </clipPath>
    <clipPath
       clipPathUnits="userSpaceOnUse"
       id="clipPath182293">
      <path
         d="m 79.023,375.797 h 7.492 v 6.75 h -7.492 z"
         id="path182291"
         inkscape:connector-curvature="0" />
    </clipPath>
    <clipPath
       clipPathUnits="userSpaceOnUse"
       id="clipPath182303">
      <path
         d="M 0,0 H 576 V 903 H 0 Z"
         id="path182301"
         inkscape:connector-curvature="0" />
    </clipPath>
    <clipPath
       clipPathUnits="userSpaceOnUse"
       id="clipPath182315">
      <path
         d="M 0,0 H 576 V 903 H 0 Z"
         id="path182313"
         inkscape:connector-curvature="0" />
    </clipPath>
    <clipPath
       clipPathUnits="userSpaceOnUse"
       id="clipPath182327">
      <path
         d="M 0,0 H 576 V 903 H 0 Z"
         id="path182325"
         inkscape:connector-curvature="0" />
    </clipPath>
    <clipPath
       clipPathUnits="userSpaceOnUse"
       id="clipPath182337">
      <path
         d="m 79,375 h 8 v 8 h -8 z"
         id="path182335"
         inkscape:connector-curvature="0" />
    </clipPath>
    <clipPath
       clipPathUnits="userSpaceOnUse"
       id="clipPath182347">
      <path
         d="M 0,0 H 576 V 903 H 0 Z"
         id="path182345"
         inkscape:connector-curvature="0" />
    </clipPath>
    <clipPath
       clipPathUnits="userSpaceOnUse"
       id="clipPath182359">
      <path
         d="M 0,0 H 576 V 903 H 0 Z"
         id="path182357"
         inkscape:connector-curvature="0" />
    </clipPath>
    <clipPath
       clipPathUnits="userSpaceOnUse"
       id="clipPath182369">
      <path
         d="m 79,375 h 8 v 8 h -8 z"
         id="path182367"
         inkscape:connector-curvature="0" />
    </clipPath>
    <clipPath
       clipPathUnits="userSpaceOnUse"
       id="clipPath182379">
      <path
         d="M 0,0 H 576 V 903 H 0 Z"
         id="path182377"
         inkscape:connector-curvature="0" />
    </clipPath>
    <clipPath
       clipPathUnits="userSpaceOnUse"
       id="clipPath182389">
      <path
         d="m 79,375 h 8 v 8 h -8 z"
         id="path182387"
         inkscape:connector-curvature="0" />
    </clipPath>
    <clipPath
       clipPathUnits="userSpaceOnUse"
       id="clipPath182395">
      <path
         d="m 86.516,382.547 -4.871,-2.652 c -0.184,-0.098 -0.379,-0.266 -0.543,-0.559 -0.079,-0.137 -1.571,-2.684 -1.891,-3.305 -0.039,-0.078 -0.086,-0.179 -0.191,-0.234 l 4.875,2.648 c 0.101,0.059 0.148,0.16 0.187,0.239 0.32,0.621 1.813,3.168 1.895,3.3 0.164,0.293 0.355,0.465 0.539,0.563"
         id="path182393"
         inkscape:connector-curvature="0" />
    </clipPath>
    <clipPath
       clipPathUnits="userSpaceOnUse"
       id="clipPath182405">
      <path
         d="M 0,0 H 576 V 903 H 0 Z"
         id="path182403"
         inkscape:connector-curvature="0" />
    </clipPath>
    <clipPath
       clipPathUnits="userSpaceOnUse"
       id="clipPath182417">
      <path
         d="M 0,0 H 576 V 903 H 0 Z"
         id="path182415"
         inkscape:connector-curvature="0" />
    </clipPath>
    <clipPath
       clipPathUnits="userSpaceOnUse"
       id="clipPath182429">
      <path
         d="M 0,0 H 576 V 903 H 0 Z"
         id="path182427"
         inkscape:connector-curvature="0" />
    </clipPath>
    <clipPath
       clipPathUnits="userSpaceOnUse"
       id="clipPath182439">
      <path
         d="m 79.023,375.797 h 7.492 v 6.75 h -7.492 z"
         id="path182437"
         inkscape:connector-curvature="0" />
    </clipPath>
    <clipPath
       clipPathUnits="userSpaceOnUse"
       id="clipPath182449">
      <path
         d="M 0,0 H 576 V 903 H 0 Z"
         id="path182447"
         inkscape:connector-curvature="0" />
    </clipPath>
    <clipPath
       clipPathUnits="userSpaceOnUse"
       id="clipPath182461">
      <path
         d="M 0,0 H 576 V 903 H 0 Z"
         id="path182459"
         inkscape:connector-curvature="0" />
    </clipPath>
    <clipPath
       clipPathUnits="userSpaceOnUse"
       id="clipPath182473">
      <path
         d="M 0,0 H 576 V 903 H 0 Z"
         id="path182471"
         inkscape:connector-curvature="0" />
    </clipPath>
    <clipPath
       clipPathUnits="userSpaceOnUse"
       id="clipPath182485">
      <path
         d="m 82.43,361.414 h 8.707 v 3.977 H 82.43 Z"
         id="path182483"
         inkscape:connector-curvature="0" />
    </clipPath>
    <clipPath
       clipPathUnits="userSpaceOnUse"
       id="clipPath182495">
      <path
         d="M 0,0 H 576 V 903 H 0 Z"
         id="path182493"
         inkscape:connector-curvature="0" />
    </clipPath>
    <clipPath
       clipPathUnits="userSpaceOnUse"
       id="clipPath182507">
      <path
         d="M 0,0 H 576 V 903 H 0 Z"
         id="path182505"
         inkscape:connector-curvature="0" />
    </clipPath>
    <clipPath
       clipPathUnits="userSpaceOnUse"
       id="clipPath182519">
      <path
         d="M 0,0 H 576 V 903 H 0 Z"
         id="path182517"
         inkscape:connector-curvature="0" />
    </clipPath>
    <clipPath
       clipPathUnits="userSpaceOnUse"
       id="clipPath182529">
      <path
         d="m 82,361 h 10 v 5 H 82 Z"
         id="path182527"
         inkscape:connector-curvature="0" />
    </clipPath>
    <clipPath
       clipPathUnits="userSpaceOnUse"
       id="clipPath182539">
      <path
         d="M 0,0 H 576 V 903 H 0 Z"
         id="path182537"
         inkscape:connector-curvature="0" />
    </clipPath>
    <clipPath
       clipPathUnits="userSpaceOnUse"
       id="clipPath182551">
      <path
         d="M 0,0 H 576 V 903 H 0 Z"
         id="path182549"
         inkscape:connector-curvature="0" />
    </clipPath>
    <clipPath
       clipPathUnits="userSpaceOnUse"
       id="clipPath182561">
      <path
         d="m 82,361 h 10 v 5 H 82 Z"
         id="path182559"
         inkscape:connector-curvature="0" />
    </clipPath>
    <clipPath
       clipPathUnits="userSpaceOnUse"
       id="clipPath182571">
      <path
         d="M 0,0 H 576 V 903 H 0 Z"
         id="path182569"
         inkscape:connector-curvature="0" />
    </clipPath>
    <clipPath
       clipPathUnits="userSpaceOnUse"
       id="clipPath182581">
      <path
         d="m 82,361 h 10 v 5 H 82 Z"
         id="path182579"
         inkscape:connector-curvature="0" />
    </clipPath>
    <clipPath
       clipPathUnits="userSpaceOnUse"
       id="clipPath182587">
      <path
         d="m 87.301,364.063 -4.871,-2.649 c 0.011,0.008 0.027,0.012 0.043,0.02 0.109,0.031 2.23,0.457 3.789,1.304 l 4.875,2.653 c -1.563,-0.852 -3.684,-1.274 -3.793,-1.309 -0.016,-0.004 -0.028,-0.012 -0.043,-0.019"
         id="path182585"
         inkscape:connector-curvature="0" />
    </clipPath>
    <clipPath
       clipPathUnits="userSpaceOnUse"
       id="clipPath182597">
      <path
         d="M 0,0 H 576 V 903 H 0 Z"
         id="path182595"
         inkscape:connector-curvature="0" />
    </clipPath>
    <clipPath
       clipPathUnits="userSpaceOnUse"
       id="clipPath182609">
      <path
         d="M 0,0 H 576 V 903 H 0 Z"
         id="path182607"
         inkscape:connector-curvature="0" />
    </clipPath>
    <clipPath
       clipPathUnits="userSpaceOnUse"
       id="clipPath182621">
      <path
         d="M 0,0 H 576 V 903 H 0 Z"
         id="path182619"
         inkscape:connector-curvature="0" />
    </clipPath>
    <clipPath
       clipPathUnits="userSpaceOnUse"
       id="clipPath182631">
      <path
         d="m 82.43,361.414 h 8.707 v 3.977 H 82.43 Z"
         id="path182629"
         inkscape:connector-curvature="0" />
    </clipPath>
    <clipPath
       clipPathUnits="userSpaceOnUse"
       id="clipPath182641">
      <path
         d="M 0,0 H 576 V 903 H 0 Z"
         id="path182639"
         inkscape:connector-curvature="0" />
    </clipPath>
    <clipPath
       clipPathUnits="userSpaceOnUse"
       id="clipPath182653">
      <path
         d="M 0,0 H 576 V 903 H 0 Z"
         id="path182651"
         inkscape:connector-curvature="0" />
    </clipPath>
    <clipPath
       clipPathUnits="userSpaceOnUse"
       id="clipPath182665">
      <path
         d="M 0,0 H 576 V 903 H 0 Z"
         id="path182663"
         inkscape:connector-curvature="0" />
    </clipPath>
    <clipPath
       clipPathUnits="userSpaceOnUse"
       id="clipPath182685">
      <path
         d="m 67.285,379.297 h 5.105 v 5.414 h -5.105 z"
         id="path182683"
         inkscape:connector-curvature="0" />
    </clipPath>
    <clipPath
       clipPathUnits="userSpaceOnUse"
       id="clipPath182695">
      <path
         d="M 0,0 H 576 V 903 H 0 Z"
         id="path182693"
         inkscape:connector-curvature="0" />
    </clipPath>
    <clipPath
       clipPathUnits="userSpaceOnUse"
       id="clipPath182707">
      <path
         d="M 0,0 H 576 V 903 H 0 Z"
         id="path182705"
         inkscape:connector-curvature="0" />
    </clipPath>
    <clipPath
       clipPathUnits="userSpaceOnUse"
       id="clipPath182719">
      <path
         d="M 0,0 H 576 V 903 H 0 Z"
         id="path182717"
         inkscape:connector-curvature="0" />
    </clipPath>
    <clipPath
       clipPathUnits="userSpaceOnUse"
       id="clipPath182729">
      <path
         d="m 67,379 h 6 v 6 h -6 z"
         id="path182727"
         inkscape:connector-curvature="0" />
    </clipPath>
    <clipPath
       clipPathUnits="userSpaceOnUse"
       id="clipPath182739">
      <path
         d="M 0,0 H 576 V 903 H 0 Z"
         id="path182737"
         inkscape:connector-curvature="0" />
    </clipPath>
    <clipPath
       clipPathUnits="userSpaceOnUse"
       id="clipPath182751">
      <path
         d="M 0,0 H 576 V 903 H 0 Z"
         id="path182749"
         inkscape:connector-curvature="0" />
    </clipPath>
    <clipPath
       clipPathUnits="userSpaceOnUse"
       id="clipPath182761">
      <path
         d="m 67,379 h 6 v 6 h -6 z"
         id="path182759"
         inkscape:connector-curvature="0" />
    </clipPath>
    <clipPath
       clipPathUnits="userSpaceOnUse"
       id="clipPath182771">
      <path
         d="M 0,0 H 576 V 903 H 0 Z"
         id="path182769"
         inkscape:connector-curvature="0" />
    </clipPath>
    <clipPath
       clipPathUnits="userSpaceOnUse"
       id="clipPath182781">
      <path
         d="m 67,379 h 6 v 6 h -6 z"
         id="path182779"
         inkscape:connector-curvature="0" />
    </clipPath>
    <clipPath
       clipPathUnits="userSpaceOnUse"
       id="clipPath182787">
      <path
         d="m 72.391,384.711 -4.871,-2.648 c -0.442,-0.243 -0.129,-2.629 -0.11,-2.766 l 4.871,2.652 c -0.019,0.133 -0.328,2.524 0.11,2.762"
         id="path182785"
         inkscape:connector-curvature="0" />
    </clipPath>
    <clipPath
       clipPathUnits="userSpaceOnUse"
       id="clipPath182797">
      <path
         d="M 0,0 H 576 V 903 H 0 Z"
         id="path182795"
         inkscape:connector-curvature="0" />
    </clipPath>
    <clipPath
       clipPathUnits="userSpaceOnUse"
       id="clipPath182809">
      <path
         d="M 0,0 H 576 V 903 H 0 Z"
         id="path182807"
         inkscape:connector-curvature="0" />
    </clipPath>
    <clipPath
       clipPathUnits="userSpaceOnUse"
       id="clipPath182821">
      <path
         d="M 0,0 H 576 V 903 H 0 Z"
         id="path182819"
         inkscape:connector-curvature="0" />
    </clipPath>
    <clipPath
       clipPathUnits="userSpaceOnUse"
       id="clipPath182831">
      <path
         d="m 67.285,379.297 h 5.105 v 5.414 h -5.105 z"
         id="path182829"
         inkscape:connector-curvature="0" />
    </clipPath>
    <clipPath
       clipPathUnits="userSpaceOnUse"
       id="clipPath182841">
      <path
         d="M 0,0 H 576 V 903 H 0 Z"
         id="path182839"
         inkscape:connector-curvature="0" />
    </clipPath>
    <clipPath
       clipPathUnits="userSpaceOnUse"
       id="clipPath182853">
      <path
         d="M 0,0 H 576 V 903 H 0 Z"
         id="path182851"
         inkscape:connector-curvature="0" />
    </clipPath>
    <clipPath
       clipPathUnits="userSpaceOnUse"
       id="clipPath182865">
      <path
         d="M 0,0 H 576 V 903 H 0 Z"
         id="path182863"
         inkscape:connector-curvature="0" />
    </clipPath>
    <clipPath
       clipPathUnits="userSpaceOnUse"
       id="clipPath182877">
      <path
         d="m 78.816,356.617 h 7.063 v 2.922 h -7.063 z"
         id="path182875"
         inkscape:connector-curvature="0" />
    </clipPath>
    <clipPath
       clipPathUnits="userSpaceOnUse"
       id="clipPath182887">
      <path
         d="M 0,0 H 576 V 903 H 0 Z"
         id="path182885"
         inkscape:connector-curvature="0" />
    </clipPath>
    <clipPath
       clipPathUnits="userSpaceOnUse"
       id="clipPath182899">
      <path
         d="M 0,0 H 576 V 903 H 0 Z"
         id="path182897"
         inkscape:connector-curvature="0" />
    </clipPath>
    <clipPath
       clipPathUnits="userSpaceOnUse"
       id="clipPath182911">
      <path
         d="M 0,0 H 576 V 903 H 0 Z"
         id="path182909"
         inkscape:connector-curvature="0" />
    </clipPath>
    <clipPath
       clipPathUnits="userSpaceOnUse"
       id="clipPath182921">
      <path
         d="m 78,356 h 8 v 4 h -8 z"
         id="path182919"
         inkscape:connector-curvature="0" />
    </clipPath>
    <clipPath
       clipPathUnits="userSpaceOnUse"
       id="clipPath182931">
      <path
         d="M 0,0 H 576 V 903 H 0 Z"
         id="path182929"
         inkscape:connector-curvature="0" />
    </clipPath>
    <clipPath
       clipPathUnits="userSpaceOnUse"
       id="clipPath182943">
      <path
         d="M 0,0 H 576 V 903 H 0 Z"
         id="path182941"
         inkscape:connector-curvature="0" />
    </clipPath>
    <clipPath
       clipPathUnits="userSpaceOnUse"
       id="clipPath182953">
      <path
         d="m 78,356 h 8 v 4 h -8 z"
         id="path182951"
         inkscape:connector-curvature="0" />
    </clipPath>
    <clipPath
       clipPathUnits="userSpaceOnUse"
       id="clipPath182963">
      <path
         d="M 0,0 H 576 V 903 H 0 Z"
         id="path182961"
         inkscape:connector-curvature="0" />
    </clipPath>
    <clipPath
       clipPathUnits="userSpaceOnUse"
       id="clipPath182973">
      <path
         d="m 78,356 h 8 v 4 h -8 z"
         id="path182971"
         inkscape:connector-curvature="0" />
    </clipPath>
    <clipPath
       clipPathUnits="userSpaceOnUse"
       id="clipPath182979">
      <path
         d="m 81.008,356.891 4.871,2.648 c -0.555,-0.301 -1.281,-0.324 -2.191,-0.199 l -4.875,-2.649 c 0.914,-0.128 1.64,-0.105 2.195,0.2"
         id="path182977"
         inkscape:connector-curvature="0" />
    </clipPath>
    <clipPath
       clipPathUnits="userSpaceOnUse"
       id="clipPath182989">
      <path
         d="M 0,0 H 576 V 903 H 0 Z"
         id="path182987"
         inkscape:connector-curvature="0" />
    </clipPath>
    <clipPath
       clipPathUnits="userSpaceOnUse"
       id="clipPath183001">
      <path
         d="M 0,0 H 576 V 903 H 0 Z"
         id="path182999"
         inkscape:connector-curvature="0" />
    </clipPath>
    <clipPath
       clipPathUnits="userSpaceOnUse"
       id="clipPath183013">
      <path
         d="M 0,0 H 576 V 903 H 0 Z"
         id="path183011"
         inkscape:connector-curvature="0" />
    </clipPath>
    <clipPath
       clipPathUnits="userSpaceOnUse"
       id="clipPath183023">
      <path
         d="m 78.816,356.617 h 7.063 v 2.922 h -7.063 z"
         id="path183021"
         inkscape:connector-curvature="0" />
    </clipPath>
    <clipPath
       clipPathUnits="userSpaceOnUse"
       id="clipPath183033">
      <path
         d="M 0,0 H 576 V 903 H 0 Z"
         id="path183031"
         inkscape:connector-curvature="0" />
    </clipPath>
    <clipPath
       clipPathUnits="userSpaceOnUse"
       id="clipPath183045">
      <path
         d="M 0,0 H 576 V 903 H 0 Z"
         id="path183043"
         inkscape:connector-curvature="0" />
    </clipPath>
    <clipPath
       clipPathUnits="userSpaceOnUse"
       id="clipPath183057">
      <path
         d="M 0,0 H 576 V 903 H 0 Z"
         id="path183055"
         inkscape:connector-curvature="0" />
    </clipPath>
    <clipPath
       clipPathUnits="userSpaceOnUse"
       id="clipPath183073">
      <path
         d="m 67.41,368.984 h 11.348 v 12.965 H 67.41 Z"
         id="path183071"
         inkscape:connector-curvature="0" />
    </clipPath>
    <clipPath
       clipPathUnits="userSpaceOnUse"
       id="clipPath183083">
      <path
         d="M 0,0 H 576 V 903 H 0 Z"
         id="path183081"
         inkscape:connector-curvature="0" />
    </clipPath>
    <clipPath
       clipPathUnits="userSpaceOnUse"
       id="clipPath183095">
      <path
         d="M 0,0 H 576 V 903 H 0 Z"
         id="path183093"
         inkscape:connector-curvature="0" />
    </clipPath>
    <clipPath
       clipPathUnits="userSpaceOnUse"
       id="clipPath183107">
      <path
         d="M 0,0 H 576 V 903 H 0 Z"
         id="path183105"
         inkscape:connector-curvature="0" />
    </clipPath>
    <clipPath
       clipPathUnits="userSpaceOnUse"
       id="clipPath183117">
      <path
         d="m 67,368 h 12 v 14 H 67 Z"
         id="path183115"
         inkscape:connector-curvature="0" />
    </clipPath>
    <clipPath
       clipPathUnits="userSpaceOnUse"
       id="clipPath183127">
      <path
         d="M 0,0 H 576 V 903 H 0 Z"
         id="path183125"
         inkscape:connector-curvature="0" />
    </clipPath>
    <clipPath
       clipPathUnits="userSpaceOnUse"
       id="clipPath183139">
      <path
         d="M 0,0 H 576 V 903 H 0 Z"
         id="path183137"
         inkscape:connector-curvature="0" />
    </clipPath>
    <clipPath
       clipPathUnits="userSpaceOnUse"
       id="clipPath183149">
      <path
         d="m 67,368 h 12 v 14 H 67 Z"
         id="path183147"
         inkscape:connector-curvature="0" />
    </clipPath>
    <clipPath
       clipPathUnits="userSpaceOnUse"
       id="clipPath183159">
      <path
         d="M 0,0 H 576 V 903 H 0 Z"
         id="path183157"
         inkscape:connector-curvature="0" />
    </clipPath>
    <clipPath
       clipPathUnits="userSpaceOnUse"
       id="clipPath183169">
      <path
         d="m 67,368 h 12 v 14 H 67 Z"
         id="path183167"
         inkscape:connector-curvature="0" />
    </clipPath>
    <clipPath
       clipPathUnits="userSpaceOnUse"
       id="clipPath183175">
      <path
         d="m 73.664,368.984 4.871,2.653 c 0.242,0.133 0.387,0.398 -0.109,0.953 -2.129,2.379 -4.727,4.664 -6.145,9.359 l -4.871,-2.652 c 1.418,-4.692 4.016,-6.977 6.145,-9.359 0.492,-0.551 0.351,-0.821 0.109,-0.954"
         id="path183173"
         inkscape:connector-curvature="0" />
    </clipPath>
    <clipPath
       clipPathUnits="userSpaceOnUse"
       id="clipPath183185">
      <path
         d="M 0,0 H 576 V 903 H 0 Z"
         id="path183183"
         inkscape:connector-curvature="0" />
    </clipPath>
    <clipPath
       clipPathUnits="userSpaceOnUse"
       id="clipPath183197">
      <path
         d="M 0,0 H 576 V 903 H 0 Z"
         id="path183195"
         inkscape:connector-curvature="0" />
    </clipPath>
    <clipPath
       clipPathUnits="userSpaceOnUse"
       id="clipPath183209">
      <path
         d="M 0,0 H 576 V 903 H 0 Z"
         id="path183207"
         inkscape:connector-curvature="0" />
    </clipPath>
    <clipPath
       clipPathUnits="userSpaceOnUse"
       id="clipPath183219">
      <path
         d="m 67.41,368.984 h 11.348 v 12.965 H 67.41 Z"
         id="path183217"
         inkscape:connector-curvature="0" />
    </clipPath>
    <clipPath
       clipPathUnits="userSpaceOnUse"
       id="clipPath183229">
      <path
         d="M 0,0 H 576 V 903 H 0 Z"
         id="path183227"
         inkscape:connector-curvature="0" />
    </clipPath>
    <clipPath
       clipPathUnits="userSpaceOnUse"
       id="clipPath183241">
      <path
         d="M 0,0 H 576 V 903 H 0 Z"
         id="path183239"
         inkscape:connector-curvature="0" />
    </clipPath>
    <clipPath
       clipPathUnits="userSpaceOnUse"
       id="clipPath183253">
      <path
         d="M 0,0 H 576 V 903 H 0 Z"
         id="path183251"
         inkscape:connector-curvature="0" />
    </clipPath>
    <clipPath
       clipPathUnits="userSpaceOnUse"
       id="clipPath183281">
      <path
         d="m 75.258,356.691 h 8.43 v 8.145 h -8.43 z"
         id="path183279"
         inkscape:connector-curvature="0" />
    </clipPath>
    <clipPath
       clipPathUnits="userSpaceOnUse"
       id="clipPath183291">
      <path
         d="M 0,0 H 576 V 903 H 0 Z"
         id="path183289"
         inkscape:connector-curvature="0" />
    </clipPath>
    <clipPath
       clipPathUnits="userSpaceOnUse"
       id="clipPath183303">
      <path
         d="M 0,0 H 576 V 903 H 0 Z"
         id="path183301"
         inkscape:connector-curvature="0" />
    </clipPath>
    <clipPath
       clipPathUnits="userSpaceOnUse"
       id="clipPath183315">
      <path
         d="M 0,0 H 576 V 903 H 0 Z"
         id="path183313"
         inkscape:connector-curvature="0" />
    </clipPath>
    <clipPath
       clipPathUnits="userSpaceOnUse"
       id="clipPath183325">
      <path
         d="m 75,356 h 9 v 9 h -9 z"
         id="path183323"
         inkscape:connector-curvature="0" />
    </clipPath>
    <clipPath
       clipPathUnits="userSpaceOnUse"
       id="clipPath183335">
      <path
         d="M 0,0 H 576 V 903 H 0 Z"
         id="path183333"
         inkscape:connector-curvature="0" />
    </clipPath>
    <clipPath
       clipPathUnits="userSpaceOnUse"
       id="clipPath183347">
      <path
         d="M 0,0 H 576 V 903 H 0 Z"
         id="path183345"
         inkscape:connector-curvature="0" />
    </clipPath>
    <clipPath
       clipPathUnits="userSpaceOnUse"
       id="clipPath183357">
      <path
         d="m 75,356 h 9 v 9 h -9 z"
         id="path183355"
         inkscape:connector-curvature="0" />
    </clipPath>
    <clipPath
       clipPathUnits="userSpaceOnUse"
       id="clipPath183367">
      <path
         d="M 0,0 H 576 V 903 H 0 Z"
         id="path183365"
         inkscape:connector-curvature="0" />
    </clipPath>
    <clipPath
       clipPathUnits="userSpaceOnUse"
       id="clipPath183377">
      <path
         d="m 75,356 h 9 v 9 h -9 z"
         id="path183375"
         inkscape:connector-curvature="0" />
    </clipPath>
    <clipPath
       clipPathUnits="userSpaceOnUse"
       id="clipPath183383">
      <path
         d="m 80.129,364.836 -4.871,-2.648 c 0.008,-4.11 1.144,-5.161 3.555,-5.497 l 4.875,2.649 c -2.415,0.34 -3.551,1.39 -3.559,5.496"
         id="path183381"
         inkscape:connector-curvature="0" />
    </clipPath>
    <clipPath
       clipPathUnits="userSpaceOnUse"
       id="clipPath183393">
      <path
         d="M 0,0 H 576 V 903 H 0 Z"
         id="path183391"
         inkscape:connector-curvature="0" />
    </clipPath>
    <clipPath
       clipPathUnits="userSpaceOnUse"
       id="clipPath183405">
      <path
         d="M 0,0 H 576 V 903 H 0 Z"
         id="path183403"
         inkscape:connector-curvature="0" />
    </clipPath>
    <clipPath
       clipPathUnits="userSpaceOnUse"
       id="clipPath183417">
      <path
         d="M 0,0 H 576 V 903 H 0 Z"
         id="path183415"
         inkscape:connector-curvature="0" />
    </clipPath>
    <clipPath
       clipPathUnits="userSpaceOnUse"
       id="clipPath183427">
      <path
         d="m 75.258,356.691 h 8.43 v 8.145 h -8.43 z"
         id="path183425"
         inkscape:connector-curvature="0" />
    </clipPath>
    <clipPath
       clipPathUnits="userSpaceOnUse"
       id="clipPath183437">
      <path
         d="M 0,0 H 576 V 903 H 0 Z"
         id="path183435"
         inkscape:connector-curvature="0" />
    </clipPath>
    <clipPath
       clipPathUnits="userSpaceOnUse"
       id="clipPath183449">
      <path
         d="M 0,0 H 576 V 903 H 0 Z"
         id="path183447"
         inkscape:connector-curvature="0" />
    </clipPath>
    <clipPath
       clipPathUnits="userSpaceOnUse"
       id="clipPath183461">
      <path
         d="M 0,0 H 576 V 903 H 0 Z"
         id="path183459"
         inkscape:connector-curvature="0" />
    </clipPath>
    <clipPath
       clipPathUnits="userSpaceOnUse"
       id="clipPath183487">
      <path
         d="m 69.68,362.188 h 10.461 v 8.973 H 69.68 Z"
         id="path183485"
         inkscape:connector-curvature="0" />
    </clipPath>
    <clipPath
       clipPathUnits="userSpaceOnUse"
       id="clipPath183497">
      <path
         d="M 0,0 H 576 V 903 H 0 Z"
         id="path183495"
         inkscape:connector-curvature="0" />
    </clipPath>
    <clipPath
       clipPathUnits="userSpaceOnUse"
       id="clipPath183509">
      <path
         d="M 0,0 H 576 V 903 H 0 Z"
         id="path183507"
         inkscape:connector-curvature="0" />
    </clipPath>
    <clipPath
       clipPathUnits="userSpaceOnUse"
       id="clipPath183521">
      <path
         d="M 0,0 H 576 V 903 H 0 Z"
         id="path183519"
         inkscape:connector-curvature="0" />
    </clipPath>
    <clipPath
       clipPathUnits="userSpaceOnUse"
       id="clipPath183531">
      <path
         d="m 69,362 h 12 v 10 H 69 Z"
         id="path183529"
         inkscape:connector-curvature="0" />
    </clipPath>
    <clipPath
       clipPathUnits="userSpaceOnUse"
       id="clipPath183541">
      <path
         d="M 0,0 H 576 V 903 H 0 Z"
         id="path183539"
         inkscape:connector-curvature="0" />
    </clipPath>
    <clipPath
       clipPathUnits="userSpaceOnUse"
       id="clipPath183553">
      <path
         d="M 0,0 H 576 V 903 H 0 Z"
         id="path183551"
         inkscape:connector-curvature="0" />
    </clipPath>
    <clipPath
       clipPathUnits="userSpaceOnUse"
       id="clipPath183563">
      <path
         d="m 69,362 h 12 v 10 H 69 Z"
         id="path183561"
         inkscape:connector-curvature="0" />
    </clipPath>
    <clipPath
       clipPathUnits="userSpaceOnUse"
       id="clipPath183573">
      <path
         d="M 0,0 H 576 V 903 H 0 Z"
         id="path183571"
         inkscape:connector-curvature="0" />
    </clipPath>
    <clipPath
       clipPathUnits="userSpaceOnUse"
       id="clipPath183583">
      <path
         d="m 69,362 h 12 v 10 H 69 Z"
         id="path183581"
         inkscape:connector-curvature="0" />
    </clipPath>
    <clipPath
       clipPathUnits="userSpaceOnUse"
       id="clipPath183589">
      <path
         d="m 75.297,371.16 -4.871,-2.652 c -0.485,-0.262 -0.813,-0.692 -0.735,-1.391 0.227,-2.14 5.278,-4.554 5.454,-4.656 0.168,-0.102 0.113,-0.266 0.113,-0.273 l 4.871,2.648 c 0.004,0.008 0.055,0.176 -0.113,0.277 -0.176,0.102 -5.227,2.516 -5.453,4.657 -0.075,0.699 0.253,1.128 0.734,1.39"
         id="path183587"
         inkscape:connector-curvature="0" />
    </clipPath>
    <clipPath
       clipPathUnits="userSpaceOnUse"
       id="clipPath183599">
      <path
         d="M 0,0 H 576 V 903 H 0 Z"
         id="path183597"
         inkscape:connector-curvature="0" />
    </clipPath>
    <clipPath
       clipPathUnits="userSpaceOnUse"
       id="clipPath183611">
      <path
         d="M 0,0 H 576 V 903 H 0 Z"
         id="path183609"
         inkscape:connector-curvature="0" />
    </clipPath>
    <clipPath
       clipPathUnits="userSpaceOnUse"
       id="clipPath183623">
      <path
         d="M 0,0 H 576 V 903 H 0 Z"
         id="path183621"
         inkscape:connector-curvature="0" />
    </clipPath>
    <clipPath
       clipPathUnits="userSpaceOnUse"
       id="clipPath183633">
      <path
         d="m 69.68,362.188 h 10.461 v 8.973 H 69.68 Z"
         id="path183631"
         inkscape:connector-curvature="0" />
    </clipPath>
    <clipPath
       clipPathUnits="userSpaceOnUse"
       id="clipPath183643">
      <path
         d="M 0,0 H 576 V 903 H 0 Z"
         id="path183641"
         inkscape:connector-curvature="0" />
    </clipPath>
    <clipPath
       clipPathUnits="userSpaceOnUse"
       id="clipPath183655">
      <path
         d="M 0,0 H 576 V 903 H 0 Z"
         id="path183653"
         inkscape:connector-curvature="0" />
    </clipPath>
    <clipPath
       clipPathUnits="userSpaceOnUse"
       id="clipPath183667">
      <path
         d="M 0,0 H 576 V 903 H 0 Z"
         id="path183665"
         inkscape:connector-curvature="0" />
    </clipPath>
  </defs>
  <sodipodi:namedview
     id="base"
     pagecolor="#ffffff"
     bordercolor="#666666"
     borderopacity="1.0"
     inkscape:pageopacity="0.0"
     inkscape:pageshadow="2"
     inkscape:zoom="10.66"
     inkscape:cx="-1.7767288"
     inkscape:cy="15.440339"
     inkscape:document-units="mm"
     inkscape:current-layer="layer1"
     showgrid="false"
     inkscape:window-width="1920"
     inkscape:window-height="1017"
     inkscape:window-x="-8"
     inkscape:window-y="-8"
     inkscape:window-maximized="1" />
  <metadata
     id="metadata667161">
    <rdf:RDF>
      <cc:Work
         rdf:about="">
        <dc:format>image/svg+xml</dc:format>
        <dc:type
           rdf:resource="http://purl.org/dc/dcmitype/StillImage" />
        <dc:title />
      </cc:Work>
    </rdf:RDF>
  </metadata>
  <g
     inkscape:label="Ebene 1"
     inkscape:groupmode="layer"
     id="layer1"
     transform="translate(-94.036772,-135.80494)">
    <g
       id="g286289"
       inkscape:label="Mayor_red"
       style="display:inline;stroke-width:0.91555035"
       transform="matrix(1.1294688,0,0,1.0562369,-12.185068,-8.2303328)">
      <path
         inkscape:connector-curvature="0"
         id="path182241"
         style="fill:none;fill-opacity:1;stroke:#000000;stroke-width:0.1400792;stroke-linecap:round;stroke-linejoin:round;stroke-miterlimit:4;stroke-dasharray:none;stroke-opacity:1"
         d="m 94.157314,144.24213 c 0.494594,-1.51729 1.408289,-2.06586 2.159353,-2.69557 0.315736,-0.266 -0.119945,-0.41063 -0.141817,-0.41875 -0.06632,-0.0109 -1.305278,-0.22895 -1.22802,-0.9592 0.02752,-0.26741 0.285398,-0.48366 0.600781,-0.65193 -0.0067,0.004 -0.01517,0.007 -0.02187,0.0113 l 1.383594,-0.75248 c 0.02046,-0.76341 0.176389,-1.15217 0.472722,-1.31198 0,0 0,0 -0.0014,0 l 0.0025,-10e-4 c 0.0014,-0.001 0.0028,-0.001 0.0028,-0.001 l 1.7145,-0.93133 c 0.0067,-0.006 0.01658,-0.01 0.02469,-0.0138 0.03316,-0.0166 0.0702,-0.0279 0.107598,-0.0402 0.0095,-0.003 0.01905,-0.007 0.02893,-0.01 0.0025,0 0.0039,-0.001 0.0053,-0.003 0.0071,-0.001 0.01376,0 0.02081,-0.001 0.06879,-0.0166 0.144638,-0.0233 0.22613,-0.0247 0.02187,-0.001 0.04516,-0.001 0.0702,-0.001 0.08961,0.003 0.184503,0.008 0.287867,0.0222 0.213778,0.03 0.398288,0.0755 0.555268,0.14993 0.0497,0.0236 0.0938,0.0512 0.13794,0.0801 0.004,0.003 0.01,0.005 0.0152,0.008 0.01,0.007 0.018,0.0138 0.0275,0.0222 0.018,0.0123 0.036,0.0261 0.0526,0.0413 0.005,0.006 0.0123,0.008 0.0176,0.0138 0.0123,0.01 0.0222,0.0222 0.0332,0.0332 0.0109,0.0109 0.0222,0.0219 0.0332,0.0332 0.004,0.004 0.007,0.007 0.0109,0.0109 0.0152,0.018 0.0289,0.0356 0.0427,0.055 0.008,0.01 0.0152,0.0194 0.0236,0.0289 10e-4,0.001 0.002,0.003 0.002,0.006 0.0127,0.0152 0.0222,0.0328 0.0318,0.0508 0.0123,0.0208 0.0261,0.0388 0.0374,0.0607 0.001,0 0.001,0.001 0.001,0.003 0.002,0.003 0.004,0.008 0.005,0.0109 0.0236,0.0455 0.0455,0.0938 0.0649,0.14605 0.003,0.007 0.005,0.0123 0.008,0.0194 0.004,0.01 0.007,0.0219 0.0109,0.0332 0.0166,0.0508 0.0332,0.10583 0.0469,0.16404 0.004,0.0148 0.01,0.03 0.0123,0.0466 0.0166,0.0744 0.0318,0.15451 0.043,0.23989 0.002,0.0166 0.004,0.036 0.005,0.0522 0.01,0.073 0.0166,0.14887 0.0222,0.23036 0.001,0.0261 0.004,0.0522 0.005,0.0783 0.004,0.1023 0.008,0.20673 0.008,0.32279 0,0 -0.001,0.005 -0.001,0.0123 0,0.002 0,0.005 0,0.008 0,0.007 0.001,0.0138 0.003,0.0236 0.002,0.007 0.004,0.0138 0.008,0.0219 10e-4,0 10e-4,0.001 10e-4,0.001 0.007,0.01 0.018,0.0208 0.0318,0.0289 0.0109,0.007 0.0896,0.0469 0.20672,0.10901 0.003,0 0.005,0.001 0.007,0.002 0.036,0.0194 0.0744,0.0402 0.11713,0.0635 0.0123,0.007 0.025,0.0138 0.0374,0.0208 0.0356,0.019 0.0702,0.0399 0.11007,0.0617 0.0166,0.01 0.0346,0.0208 0.0526,0.0303 0.0356,0.0208 0.0716,0.0416 0.10866,0.0649 0.0208,0.0123 0.0427,0.0261 0.0649,0.0384 0.0356,0.0222 0.0702,0.0441 0.1076,0.0677 0.0233,0.0152 0.0466,0.0303 0.0702,0.0455 0.0356,0.0233 0.0716,0.0466 0.1076,0.0716 0.01,0.007 0.0191,0.0138 0.0289,0.019 0.0109,0.008 0.0205,0.0152 0.0314,0.0236 0.0526,0.0356 0.10337,0.0744 0.15452,0.11289 0.0194,0.0138 0.0385,0.0289 0.0579,0.0441 0.13794,0.1076 0.26318,0.21908 0.36936,0.33479 0.007,0.008 0.018,0.0166 0.0247,0.025 0.0109,0.0137 0.0208,0.0261 0.0303,0.0385 0.0208,0.0233 0.0384,0.0469 0.055,0.0702 0.01,0.0113 0.0194,0.0222 0.0275,0.0332 0.0127,0.018 0.0208,0.0346 0.0318,0.0512 0.01,0.0152 0.018,0.0289 0.0264,0.0427 0.004,0.007 0.01,0.0138 0.0138,0.0205 0.019,0.0374 0.0356,0.073 0.0494,0.11042 0.0166,0.0469 0.0289,0.0935 0.0332,0.14041 0.0261,0.24659 -0.091,0.39828 -0.25894,0.49071 l -1.04598,0.56903 c 0.11006,0.12277 0.2233,0.24518 0.33902,0.36936 0.084,0.0924 0.16933,0.18591 0.25611,0.28257 0.025,0.0275 0.0497,0.0536 0.0744,0.0811 0.0222,0.0251 0.0427,0.0512 0.0635,0.0759 0.0508,0.0579 0.10195,0.11712 0.15275,0.17921 0.0497,0.0607 0.0995,0.12277 0.14887,0.18591 0.0483,0.0635 0.0981,0.12842 0.14605,0.19297 0.0222,0.0332 0.0469,0.0621 0.0706,0.0952 0.0356,0.0494 0.0702,0.10478 0.10442,0.1584 0.0208,0.0317 0.0416,0.0621 0.0621,0.0935 0.0744,0.11747 0.14605,0.23706 0.2152,0.36548 0.005,0.0109 0.0109,0.0233 0.0176,0.0342 0.018,0.0346 0.0346,0.0716 0.0511,0.10618 0.0579,0.11289 0.11289,0.23283 0.16686,0.35701 0.0205,0.0508 0.0427,0.10478 0.0632,0.15699 0.018,0.0455 0.0374,0.0868 0.0554,0.13229 0.0427,0.11994 0.084,0.24271 0.12242,0.37077 0.007,0.0483 0.1143,0.89147 -0.0384,0.97578 l -1.71978,0.93416 c -0.01,0.006 -0.0222,0.008 -0.0346,0.007 l -2.711781,-0.3817 c -0.02505,-0.002 -0.248003,-0.0427 -0.402519,-0.35525 -0.01799,-0.0346 -0.223309,-0.44238 -0.4064,-0.81033 l -1.429103,0.77858 c 0,-0.001 0.0014,-0.001 0.0014,-0.003 -0.103364,0.0579 -0.195792,0.0483 -0.212373,0.0455 l -2.708969,-0.3803 c -0.202847,-0.0289 -0.08431,-0.95356 -0.07867,-1.00189 z" />
      <path
         inkscape:connector-curvature="0"
         id="path182241-4"
         style="display:inline;fill:#981217;fill-opacity:1;stroke:none;stroke-width:0.1400792;stroke-linecap:round;stroke-linejoin:round;stroke-miterlimit:4;stroke-dasharray:none;stroke-opacity:1"
         d="m 94.157561,144.24213 c 0.494594,-1.51729 1.408289,-2.06586 2.159353,-2.69557 0.315736,-0.266 -0.119945,-0.41063 -0.141817,-0.41875 -0.06632,-0.0109 -1.305278,-0.22895 -1.22802,-0.9592 0.02752,-0.26741 0.285398,-0.48366 0.600781,-0.65193 -0.0067,0.004 -0.01517,0.007 -0.02187,0.0113 l 1.383594,-0.75248 c 0.02046,-0.76341 0.176389,-1.15217 0.472718,-1.31198 0,0 0,0 -0.001,0 l 0.002,-10e-4 c 10e-4,-0.001 0.003,-0.001 0.003,-0.001 l 1.7145,-0.93133 c 0.007,-0.006 0.0166,-0.01 0.0247,-0.0138 0.0332,-0.0166 0.0702,-0.0279 0.1076,-0.0402 0.01,-0.003 0.019,-0.007 0.0289,-0.01 0.002,0 0.004,-0.001 0.005,-0.003 0.007,-0.001 0.0138,0 0.0208,-0.001 0.0688,-0.0166 0.14464,-0.0233 0.22613,-0.0247 0.0219,-0.001 0.0452,-0.001 0.0702,-0.001 0.0896,0.003 0.18451,0.008 0.28787,0.0222 0.21378,0.03 0.39829,0.0755 0.55527,0.14993 0.0497,0.0236 0.0938,0.0512 0.13794,0.0801 0.004,0.003 0.01,0.005 0.0152,0.008 0.01,0.007 0.018,0.0138 0.0275,0.0222 0.018,0.0123 0.036,0.0261 0.0526,0.0413 0.005,0.006 0.0123,0.008 0.0176,0.0138 0.0123,0.01 0.0222,0.0222 0.0332,0.0332 0.0109,0.0109 0.0222,0.0219 0.0332,0.0332 0.004,0.004 0.007,0.007 0.0109,0.0109 0.0152,0.018 0.0289,0.0356 0.0427,0.055 0.008,0.01 0.0152,0.0194 0.0236,0.0289 0.001,0.001 0.002,0.003 0.002,0.006 0.0127,0.0152 0.0222,0.0328 0.0318,0.0508 0.0123,0.0208 0.0261,0.0388 0.0374,0.0607 0.001,0 0.001,0.001 0.001,0.003 0.002,0.003 0.004,0.008 0.005,0.0109 0.0236,0.0455 0.0455,0.0938 0.0649,0.14605 0.003,0.007 0.005,0.0123 0.008,0.0194 0.004,0.01 0.007,0.0219 0.0109,0.0332 0.0166,0.0508 0.0332,0.10583 0.0469,0.16404 0.004,0.0148 0.01,0.03 0.0123,0.0466 0.0166,0.0744 0.0318,0.15451 0.043,0.23989 0.002,0.0166 0.004,0.036 0.005,0.0522 0.01,0.073 0.0166,0.14887 0.0222,0.23036 0.001,0.0261 0.004,0.0522 0.005,0.0783 0.004,0.1023 0.008,0.20673 0.008,0.32279 0,0 -0.001,0.005 -0.001,0.0123 0,0.002 0,0.005 0,0.008 0,0.007 0.001,0.0138 0.003,0.0236 0.002,0.007 0.004,0.0138 0.008,0.0219 0.001,0 0.001,0.001 0.001,0.001 0.007,0.01 0.018,0.0208 0.0318,0.0289 0.0109,0.007 0.0896,0.0469 0.20672,0.10901 0.003,0 0.005,0.001 0.007,0.002 0.036,0.0194 0.0744,0.0402 0.11713,0.0635 0.0123,0.007 0.025,0.0138 0.0374,0.0208 0.0356,0.019 0.0702,0.0399 0.11007,0.0617 0.0166,0.01 0.0346,0.0208 0.0526,0.0303 0.0356,0.0208 0.0716,0.0416 0.10866,0.0649 0.0208,0.0123 0.0427,0.0261 0.0649,0.0384 0.0356,0.0222 0.0702,0.0441 0.1076,0.0677 0.0233,0.0152 0.0466,0.0303 0.0702,0.0455 0.0356,0.0233 0.0716,0.0466 0.1076,0.0716 0.01,0.007 0.0191,0.0138 0.0289,0.019 0.0109,0.008 0.0205,0.0152 0.0314,0.0236 0.0526,0.0356 0.10337,0.0744 0.15452,0.11289 0.0194,0.0138 0.0385,0.0289 0.0579,0.0441 0.13794,0.1076 0.26318,0.21908 0.36936,0.33479 0.007,0.008 0.018,0.0166 0.0247,0.025 0.0109,0.0137 0.0208,0.0261 0.0303,0.0385 0.0208,0.0233 0.0384,0.0469 0.055,0.0702 0.01,0.0113 0.0194,0.0222 0.0275,0.0332 0.0127,0.018 0.0208,0.0346 0.0318,0.0512 0.01,0.0152 0.018,0.0289 0.0264,0.0427 0.004,0.007 0.01,0.0138 0.0138,0.0205 0.019,0.0374 0.0356,0.073 0.0494,0.11042 0.0166,0.0469 0.0289,0.0935 0.0332,0.14041 0.0261,0.24659 -0.091,0.39828 -0.25894,0.49071 l -1.04598,0.56903 c 0.11006,0.12277 0.2233,0.24518 0.33902,0.36936 0.084,0.0924 0.16933,0.18591 0.25611,0.28257 0.025,0.0275 0.0497,0.0536 0.0744,0.0811 0.0222,0.0251 0.0427,0.0512 0.0635,0.0759 0.0508,0.0579 0.10195,0.11712 0.15275,0.17921 0.0497,0.0607 0.0995,0.12277 0.14887,0.18591 0.0483,0.0635 0.0981,0.12842 0.14605,0.19297 0.0222,0.0332 0.0469,0.0621 0.0706,0.0952 0.0356,0.0494 0.0702,0.10478 0.10442,0.1584 0.0208,0.0317 0.0416,0.0621 0.0621,0.0935 0.0744,0.11747 0.14605,0.23706 0.2152,0.36548 0.005,0.0109 0.0109,0.0233 0.0176,0.0342 0.018,0.0346 0.0346,0.0716 0.0511,0.10618 0.0579,0.11289 0.11289,0.23283 0.16686,0.35701 0.0205,0.0508 0.0427,0.10478 0.0632,0.15699 0.018,0.0455 0.0374,0.0868 0.0554,0.13229 0.0427,0.11994 0.084,0.24271 0.12242,0.37077 0.007,0.0483 0.1143,0.89147 -0.0384,0.97578 l -1.71978,0.93416 c -0.01,0.006 -0.0222,0.008 -0.0346,0.007 l -2.7118,-0.3817 c -0.025,-0.002 -0.248,-0.0427 -0.40252,-0.35525 -0.018,-0.0346 -0.22331,-0.44238 -0.4064,-0.81033 l -1.4291,0.77858 c 0,-0.001 0.0014,-0.001 0.0014,-0.003 -0.103364,0.0579 -0.195792,0.0483 -0.212373,0.0455 l -2.708971,-0.3803 c -0.202847,-0.0289 -0.08431,-0.95356 -0.07867,-1.00189 z" />
      <path
         inkscape:connector-curvature="0"
         id="path183699"
         style="fill:#ed1c24;fill-opacity:1;fill-rule:nonzero;stroke:#000000;stroke-width:0.04852417;stroke-miterlimit:4;stroke-dasharray:none;stroke-opacity:1"
         d="m 98.153823,137.39186 c -0.850195,-0.11995 -1.25095,0.13899 -1.248481,1.5875 0.0014,0.003 0.02081,0.066 -0.04127,0.0854 -0.05927,0.0194 -1.838325,0.36936 -1.916641,1.10243 -0.07726,0.73025 1.163108,0.94827 1.227666,0.96062 0.02364,0.007 0.454731,0.15134 0.139347,0.41733 -0.749652,0.62971 -1.661936,1.17828 -2.155472,2.69558 -0.0067,0.0483 -0.128058,0.97296 0.07726,1.00188 l 2.707922,0.3803 c 0.02611,0.004 0.252236,0.0275 0.403577,-0.24271 0.02752,-0.0466 0.554214,-0.94509 0.667103,-1.16417 0.02187,-0.0427 0.04692,-0.1076 0.151695,-0.0981 0.104775,0.0208 0.13088,0.091 0.152752,0.14076 0.1143,0.25082 0.644878,1.29787 0.672395,1.35325 0.153105,0.31256 0.377825,0.35278 0.402519,0.35525 l 2.709335,0.38171 c 0.20673,0.0293 0.0811,-0.93134 0.0744,-0.98108 -0.50024,-1.65629 -1.41676,-2.46239 -2.16782,-3.30306 -0.319621,-0.3556 0.11571,-0.37747 0.13794,-0.37888 0.066,0.007 1.30633,0.13758 1.22484,-0.61454 -0.0797,-0.75671 -1.861613,-1.6069 -1.923701,-1.64289 -0.05927,-0.0356 -0.04127,-0.0949 -0.03986,-0.0977 -0.0028,-1.44851 -0.404989,-1.81893 -1.255536,-1.93887" />
    </g>
  </g>
</svg>
