<?xml version="1.0" encoding="UTF-8" standalone="no"?>
<!-- Created with Inkscape (http://www.inkscape.org/) -->

<svg
   xmlns:dc="http://purl.org/dc/elements/1.1/"
   xmlns:cc="http://creativecommons.org/ns#"
   xmlns:rdf="http://www.w3.org/1999/02/22-rdf-syntax-ns#"
   xmlns:svg="http://www.w3.org/2000/svg"
   xmlns="http://www.w3.org/2000/svg"
   xmlns:sodipodi="http://sodipodi.sourceforge.net/DTD/sodipodi-0.dtd"
   xmlns:inkscape="http://www.inkscape.org/namespaces/inkscape"
   width="11.254046mm"
   height="10.620082mm"
   viewBox="0 0 11.254046 10.620082"
   version="1.1"
   id="svg301725"
   inkscape:version="0.92.3 (2405546, 2018-03-11)"
   sodipodi:docname="Mayor_pink_f.svg">
  <defs
     id="defs301719" />
  <sodipodi:namedview
     id="base"
     pagecolor="#ffffff"
     bordercolor="#666666"
     borderopacity="1.0"
     inkscape:pageopacity="0.0"
     inkscape:pageshadow="2"
     inkscape:zoom="7.9195959"
     inkscape:cx="4.1898715"
     inkscape:cy="-4.3477031"
     inkscape:document-units="mm"
     inkscape:current-layer="layer1"
     showgrid="false"
     inkscape:window-width="1920"
     inkscape:window-height="1017"
     inkscape:window-x="-8"
     inkscape:window-y="-8"
     inkscape:window-maximized="1" />
  <metadata
     id="metadata301722">
    <rdf:RDF>
      <cc:Work
         rdf:about="">
        <dc:format>image/svg+xml</dc:format>
        <dc:type
           rdf:resource="http://purl.org/dc/dcmitype/StillImage" />
        <dc:title />
      </cc:Work>
    </rdf:RDF>
  </metadata>
  <g
     inkscape:label="Ebene 1"
     inkscape:groupmode="layer"
     id="layer1"
     transform="translate(64.3333,-143.24469)">
    <g
       transform="matrix(-0.29884125,0,0,0.27945242,46.655266,10.44706)"
       id="g302273"
       inkscape:label="Mayor_pink"
       style="stroke-width:0.91556305">
      <path
         inkscape:connector-curvature="0"
         id="path178733-0"
         style="display:inline;fill:none;fill-opacity:1;stroke:#000000;stroke-width:0.52944052;stroke-linecap:round;stroke-linejoin:round;stroke-miterlimit:10;stroke-dasharray:none;stroke-opacity:1"
         d="m 370.97675,504.97507 c -1.864,-5.73467 -5.32267,-7.808 -8.156,-10.188 -1.19733,-1.00533 0.448,-1.552 0.536,-1.58267 0.24533,-0.0414 4.93333,-0.86533 4.64133,-3.62533 -0.10934,-1.01066 -1.07866,-1.828 -2.27066,-2.464 0.0253,0.0159 0.0573,0.0268 0.0827,0.0427 l -5.22933,-2.844 c -0.0773,-2.88533 -0.66666,-4.35466 -1.78533,-4.95866 l -0.0106,-0.005 c 0,-0.005 -0.005,-0.005 -0.0106,-0.005 l -6.47468,-3.52 c -0.0306,-0.0212 -0.0613,-0.0374 -0.0933,-0.052 -0.12933,-0.0627 -0.26532,-0.10534 -0.41066,-0.15201 -0.0374,-0.0106 -0.068,-0.0253 -0.10534,-0.0359 -0.009,0 -0.0147,-0.005 -0.02,-0.0106 -0.0268,-0.005 -0.0573,0 -0.084,-0.005 -0.25999,-0.0627 -0.54667,-0.088 -0.848,-0.0933 -0.084,-0.005 -0.17733,-0.005 -0.26668,-0.005 -0.34265,0.0106 -0.69734,0.0306 -1.088,0.084 -0.80667,0.11334 -1.50534,0.28535 -2.09867,0.56666 -0.18799,0.0893 -0.36,0.19333 -0.52133,0.30267 -0.02,0.0106 -0.0414,0.02 -0.0573,0.0306 -0.0359,0.0268 -0.068,0.052 -0.10401,0.084 -0.068,0.0467 -0.13599,0.0987 -0.20266,0.15598 -0.0212,0.0212 -0.0467,0.0306 -0.0627,0.052 -0.0467,0.0359 -0.0894,0.084 -0.12533,0.12533 -0.0413,0.0414 -0.088,0.0827 -0.12533,0.12533 -0.0147,0.0147 -0.0306,0.0253 -0.0413,0.0414 -0.0573,0.068 -0.10934,0.13466 -0.16135,0.20799 -0.0306,0.0359 -0.0627,0.0733 -0.088,0.10934 -0.005,0.005 -0.0106,0.0106 -0.0159,0.0212 -0.0413,0.0573 -0.0786,0.124 -0.12,0.192 -0.0467,0.0787 -0.0933,0.14668 -0.13999,0.22934 0,0 0,0.005 -0.005,0.0106 -0.005,0.0106 -0.0106,0.0306 -0.0159,0.0413 -0.0933,0.17201 -0.172,0.35467 -0.25065,0.552 -0.004,0.0268 -0.02,0.0467 -0.0306,0.0733 -0.0159,0.0359 -0.0212,0.0827 -0.0359,0.12533 -0.0627,0.192 -0.12533,0.4 -0.18267,0.62 -0.0106,0.056 -0.0321,0.11335 -0.0467,0.17601 -0.0627,0.28135 -0.11467,0.584 -0.16134,0.90667 -0.005,0.0627 -0.0106,0.13599 -0.0212,0.19733 -0.0306,0.27602 -0.0573,0.56266 -0.0787,0.87067 -0.009,0.0987 -0.0147,0.19733 -0.02,0.29601 -0.0212,0.38667 -0.0321,0.78133 -0.0374,1.22 0.005,0 0.005,0.02 0.0106,0.0467 0,0.009 0,0.02 0,0.0306 0,0.0268 -0.005,0.052 -0.0147,0.0893 -0.005,0.0253 -0.0106,0.052 -0.0321,0.0827 0,0 0,0.005 0,0.005 -0.0306,0.0359 -0.068,0.0786 -0.12,0.10934 -0.0413,0.0253 -0.34402,0.17734 -0.78667,0.412 -0.004,0 -0.0147,0.004 -0.02,0.009 -0.13599,0.0733 -0.28668,0.15202 -0.44801,0.24 -0.0413,0.0268 -0.0893,0.052 -0.13598,0.0786 -0.13467,0.072 -0.27065,0.15066 -0.416,0.23335 -0.0627,0.0374 -0.13599,0.0786 -0.20398,0.11467 -0.12934,0.0786 -0.26533,0.15735 -0.40534,0.24533 -0.084,0.0467 -0.16134,0.0987 -0.24533,0.14533 -0.13466,0.084 -0.27065,0.16667 -0.41066,0.25598 -0.084,0.0573 -0.17201,0.11467 -0.26132,0.17201 -0.13467,0.088 -0.27065,0.17601 -0.40534,0.27065 -0.0374,0.0253 -0.0733,0.052 -0.11467,0.072 -0.0374,0.0321 -0.0733,0.0573 -0.11467,0.0894 -0.19865,0.13467 -0.39066,0.28135 -0.584,0.42666 -0.0773,0.052 -0.14532,0.10935 -0.22401,0.16668 -0.51467,0.40667 -0.98933,0.828 -1.39067,1.26533 -0.0306,0.0321 -0.0667,0.0627 -0.0933,0.0947 -0.0414,0.052 -0.0787,0.0987 -0.11467,0.14533 -0.0787,0.088 -0.14533,0.17733 -0.21332,0.26532 -0.0321,0.0427 -0.068,0.084 -0.0987,0.12533 -0.0467,0.068 -0.0787,0.13066 -0.12,0.19332 -0.0374,0.0573 -0.068,0.10934 -0.0987,0.16135 -0.0159,0.0253 -0.0374,0.052 -0.052,0.0773 -0.0733,0.14132 -0.13599,0.27598 -0.188,0.41733 -0.0627,0.17734 -0.10934,0.35335 -0.13066,0.53067 -0.0933,0.932 0.34402,1.50533 0.98534,1.85466 l 3.952,2.15067 c -0.416,0.464 -0.84267,0.92667 -1.28134,1.396 -0.32265,0.34934 -0.64533,0.70267 -0.968,1.068 -0.0987,0.10401 -0.19332,0.20266 -0.28667,0.30667 -0.0787,0.0947 -0.15598,0.19332 -0.24,0.28668 -0.18667,0.21868 -0.38001,0.44267 -0.57201,0.67734 -0.18799,0.22934 -0.37598,0.46399 -0.56266,0.70266 -0.18799,0.24 -0.37066,0.48534 -0.552,0.72933 -0.0894,0.12533 -0.17734,0.23467 -0.26532,0.36 -0.13599,0.18667 -0.26669,0.396 -0.396,0.59867 -0.0787,0.12 -0.16135,0.23467 -0.23467,0.35335 -0.28135,0.444 -0.552,0.896 -0.81334,1.38133 -0.0253,0.0414 -0.0467,0.088 -0.0667,0.12934 -0.068,0.13066 -0.13066,0.27065 -0.19865,0.40133 -0.21332,0.42667 -0.42133,0.88 -0.624,1.34934 -0.084,0.192 -0.16267,0.396 -0.24,0.59333 -0.068,0.17201 -0.14668,0.32799 -0.20799,0.5 -0.16267,0.45333 -0.31865,0.91733 -0.464,1.40133 -0.0268,0.18267 -0.432,3.36933 0.14533,3.688 l 6.49466,3.53067 c 0.0427,0.0212 0.0893,0.0306 0.13599,0.0253 l 10.24932,-1.44266 c 0.0947,-0.009 0.93334,-0.16135 1.52134,-1.34267 0.0627,-0.13066 0.844,-1.672 1.532,-3.06267 l 5.40533,2.94267 c -0.005,-0.005 -0.005,-0.005 -0.0106,-0.0106 0.39066,0.21869 0.74,0.18267 0.80266,0.17201 l 10.24496,-1.43759 c 0.76534,-0.10934 0.31733,-3.60399 0.29065,-3.78666 z" />
      <path
         inkscape:connector-curvature="0"
         id="path178733-8-0"
         style="display:inline;fill:#a37f95;fill-opacity:1;stroke:none;stroke-width:0.52944052;stroke-linecap:round;stroke-linejoin:round;stroke-miterlimit:10;stroke-dasharray:none;stroke-opacity:1"
         d="m 370.97675,504.97507 c -1.864,-5.73467 -5.32267,-7.80799 -8.156,-10.18799 -1.19733,-1.00534 0.448,-1.55201 0.536,-1.58268 0.24533,-0.0414 4.93333,-0.86532 4.64133,-3.62532 -0.10934,-1.01067 -1.07866,-1.82801 -2.27066,-2.46401 0.0253,0.0159 0.0573,0.0268 0.0827,0.0427 l -5.22933,-2.844 c -0.0773,-2.88533 -0.66666,-4.35466 -1.78533,-4.95866 l -0.0106,-0.005 c 0,-0.005 -0.005,-0.005 -0.0106,-0.005 l -6.47468,-3.52001 c -0.0306,-0.0212 -0.0613,-0.0374 -0.0933,-0.052 -0.12933,-0.0627 -0.26532,-0.10533 -0.41066,-0.15201 -0.0374,-0.0106 -0.068,-0.0253 -0.10534,-0.0359 -0.009,0 -0.0147,-0.005 -0.02,-0.0106 -0.0268,-0.005 -0.0573,0 -0.084,-0.005 -0.25999,-0.0627 -0.54667,-0.088 -0.848,-0.0933 -0.084,-0.005 -0.17733,-0.005 -0.26668,-0.005 -0.34265,0.0106 -0.69734,0.0306 -1.088,0.084 -0.80667,0.11335 -1.50534,0.28536 -2.09868,0.56667 -0.18785,0.0893 -0.35981,0.19332 -0.52131,0.30266 -0.0189,0.0106 -0.0412,0.02 -0.0574,0.0306 -0.0378,0.0268 -0.068,0.052 -0.10394,0.084 -0.068,0.0467 -0.13606,0.0987 -0.20258,0.15599 -0.0227,0.0212 -0.0465,0.0306 -0.0627,0.052 -0.0465,0.0359 -0.0892,0.084 -0.12548,0.12532 -0.0412,0.0413 -0.0881,0.0827 -0.12548,0.12533 -0.0151,0.0147 -0.0302,0.0253 -0.0412,0.0413 -0.0575,0.068 -0.10923,0.13467 -0.16139,0.20799 -0.0302,0.0359 -0.0627,0.0733 -0.0881,0.10934 -0.004,0.005 -0.0113,0.0106 -0.0151,0.0212 -0.0412,0.0573 -0.0786,0.12401 -0.11981,0.192 -0.0469,0.0786 -0.0933,0.14669 -0.13984,0.22935 0,0 0,0.005 -0.004,0.0106 -0.004,0.0106 -0.0113,0.0306 -0.0151,0.0413 -0.0934,0.172 -0.17197,0.35467 -0.25058,0.552 -0.004,0.0268 -0.0189,0.0467 -0.0302,0.0733 -0.0151,0.0359 -0.0227,0.0827 -0.0378,0.12533 -0.0627,0.192 -0.12548,0.4 -0.18255,0.62 -0.0113,0.056 -0.0302,0.11334 -0.0465,0.17601 -0.0627,0.28135 -0.11452,0.584 -0.16139,0.90667 -0.004,0.0627 -0.0113,0.13598 -0.0227,0.19733 -0.0302,0.27601 -0.0575,0.56266 -0.0786,0.87066 -0.008,0.0987 -0.0151,0.19733 -0.0189,0.29601 -0.0227,0.38667 -0.034,0.78134 -0.0378,1.22001 0.004,0 0.004,0.02 0.0113,0.0467 0,0.009 0,0.02 0,0.0306 0,0.0268 -0.004,0.052 -0.0151,0.0893 -0.004,0.0253 -0.0113,0.052 -0.0302,0.0827 0,0 0,0.005 0,0.005 -0.0302,0.0359 -0.068,0.0786 -0.12019,0.10934 -0.0412,0.0253 -0.34393,0.17733 -0.78667,0.412 -0.004,0 -0.0151,0.004 -0.0189,0.009 -0.13607,0.0733 -0.28687,0.15201 -0.44799,0.24 -0.0412,0.0268 -0.0892,0.052 -0.13606,0.0786 -0.13456,0.072 -0.27062,0.15065 -0.41602,0.23335 -0.0627,0.0374 -0.13606,0.0786 -0.20409,0.11467 -0.12926,0.0786 -0.26532,0.15734 -0.40532,0.24533 -0.0839,0.0467 -0.16138,0.0987 -0.24529,0.14532 -0.13455,0.084 -0.27061,0.16668 -0.41068,0.25599 -0.0839,0.0573 -0.17197,0.11467 -0.26117,0.172 -0.13455,0.088 -0.27061,0.17602 -0.40532,0.27066 -0.0378,0.0253 -0.0733,0.052 -0.11451,0.072 -0.0378,0.0321 -0.0733,0.0573 -0.11452,0.0894 -0.19881,0.13466 -0.39069,0.28134 -0.58402,0.42666 -0.0775,0.052 -0.14513,0.10934 -0.22412,0.16668 -0.51466,0.40666 -0.98933,0.828 -1.39068,1.26533 -0.0302,0.0321 -0.0665,0.0627 -0.0934,0.0947 -0.0412,0.052 -0.0786,0.0987 -0.11452,0.14532 -0.0786,0.088 -0.14514,0.17734 -0.21317,0.26533 -0.034,0.0427 -0.068,0.084 -0.0987,0.12533 -0.0465,0.068 -0.0786,0.13065 -0.12018,0.19332 -0.0378,0.0573 -0.068,0.10934 -0.0987,0.16135 -0.0151,0.0253 -0.0378,0.052 -0.0522,0.0773 -0.0733,0.14131 -0.13606,0.27598 -0.18784,0.41733 -0.0627,0.17733 -0.10923,0.35334 -0.13077,0.53067 -0.0934,0.93199 0.34394,1.50533 0.98532,1.85466 l 3.95203,2.15067 c -0.41602,0.464 -0.84269,0.92667 -1.28134,1.396 -0.32277,0.34934 -0.64535,0.70266 -0.96801,1.068 -0.0987,0.10401 -0.19314,0.20265 -0.28687,0.30667 -0.0786,0.0947 -0.15609,0.19332 -0.24,0.28667 -0.18671,0.21869 -0.37999,0.44267 -0.57199,0.67734 -0.18784,0.22934 -0.37606,0.464 -0.56266,0.70266 -0.18784,0.24 -0.37077,0.48534 -0.552,0.72934 -0.0892,0.12533 -0.17726,0.23467 -0.26532,0.36 -0.13607,0.18667 -0.26684,0.396 -0.39602,0.59866 -0.0786,0.12 -0.16139,0.23468 -0.23471,0.35335 -0.2812,0.444 -0.552,0.896 -0.81332,1.38134 -0.0264,0.0414 -0.0465,0.088 -0.0665,0.12933 -0.068,0.13066 -0.13077,0.27065 -0.1988,0.40134 -0.21317,0.42666 -0.42134,0.88 -0.624,1.34933 -0.0839,0.192 -0.16252,0.396 -0.24,0.59334 -0.068,0.172 -0.14665,0.32798 -0.20787,0.49999 -0.16252,0.45334 -0.31862,0.91734 -0.46402,1.40134 -0.0265,0.18266 -0.432,3.36933 0.14552,3.688 l 6.49466,3.53067 c 0.0427,0.0212 0.0892,0.0306 0.13606,0.0253 l 10.24933,-1.44266 c 0.0947,-0.009 0.93333,-0.16135 1.52133,-1.34266 0.0627,-0.13066 0.844,-1.67201 1.532,-3.06268 l 5.40057,2.94268 c -0.005,-0.005 -0.005,-0.005 -0.0106,-0.0106 0.39067,0.21868 0.74,0.18266 0.80267,0.172 l 10.24495,-1.43758 c 0.76534,-0.10935 0.31733,-3.604 0.29065,-3.78667 z" />
      <path
         d="m 355.87684,479.08975 c 3.20798,-0.45333 4.73465,0.52 4.71866,5.99467 0,0.0159 -0.0718,0.25466 0.15194,0.32799 0.2332,0.0733 6.95732,1.39599 7.25465,4.16666 0.29201,2.76 -4.39601,3.584 -4.64534,3.62533 -0.0839,0.0306 -1.72932,0.57734 -0.53734,1.58267 2.83869,2.38 6.29735,4.45333 8.16135,10.18267 0.0268,0.18799 0.47466,3.68267 -0.29602,3.792 l -10.22931,1.43733 c -0.10393,0.0159 -0.95335,0.10402 -1.52666,-0.91733 -0.10394,-0.17601 -2.09333,-3.57733 -2.5307,-4.4 -0.0786,-0.16135 -0.17197,-0.40667 -0.56799,-0.37066 -0.39065,0.0786 -0.48933,0.34401 -0.57864,0.532 -0.42667,0.948 -2.43201,4.90534 -2.53603,5.11467 -0.58798,1.18133 -1.42666,1.33333 -1.52133,1.34266 l -10.24933,1.44267 c -0.77068,0.10533 -0.30803,-3.51467 -0.28119,-3.708 1.89067,-6.26 5.35468,-9.30133 8.19734,-12.484 1.20401,-1.344 -0.432,-1.42667 -0.51466,-1.432 -0.25058,0.02 -4.93735,0.52 -4.64666,-2.32267 0.31861,-2.86 7.05199,-6.07333 7.276,-6.20933 0.23471,-0.13466 0.16139,-0.35868 0.15723,-0.36933 0.008,-5.47467 1.53063,-6.87467 4.74399,-7.328"
         style="display:inline;fill:#f7c1e1;fill-opacity:1;fill-rule:nonzero;stroke:#000000;stroke-width:0.18340097;stroke-miterlimit:4;stroke-dasharray:none;stroke-opacity:1"
         id="path180575-3"
         inkscape:connector-curvature="0" />
    </g>
  </g>
</svg>
