<?xml version="1.0" encoding="UTF-8" standalone="no"?>
<!-- Created with Inkscape (http://www.inkscape.org/) -->

<svg
   xmlns:dc="http://purl.org/dc/elements/1.1/"
   xmlns:cc="http://creativecommons.org/ns#"
   xmlns:rdf="http://www.w3.org/1999/02/22-rdf-syntax-ns#"
   xmlns:svg="http://www.w3.org/2000/svg"
   xmlns="http://www.w3.org/2000/svg"
   xmlns:sodipodi="http://sodipodi.sourceforge.net/DTD/sodipodi-0.dtd"
   xmlns:inkscape="http://www.inkscape.org/namespaces/inkscape"
   width="10.28674mm"
   height="10.297574mm"
   viewBox="0 0 10.28674 10.297574"
   version="1.1"
   id="svg59498"
   inkscape:version="0.92.3 (2405546, 2018-03-11)"
   sodipodi:docname="MeepleBig_black_f.svg">
  <defs
     id="defs59492" />
  <sodipodi:namedview
     id="base"
     pagecolor="#ffffff"
     bordercolor="#666666"
     borderopacity="1.0"
     inkscape:pageopacity="0.0"
     inkscape:pageshadow="2"
     inkscape:zoom="7.9195959"
     inkscape:cx="51.621927"
     inkscape:cy="0.29844599"
     inkscape:document-units="mm"
     inkscape:current-layer="layer1"
     showgrid="false"
     inkscape:window-width="1920"
     inkscape:window-height="1017"
     inkscape:window-x="-8"
     inkscape:window-y="-8"
     inkscape:window-maximized="1" />
  <metadata
     id="metadata59495">
    <rdf:RDF>
      <cc:Work
         rdf:about="">
        <dc:format>image/svg+xml</dc:format>
        <dc:type
           rdf:resource="http://purl.org/dc/dcmitype/StillImage" />
        <dc:title />
      </cc:Work>
    </rdf:RDF>
  </metadata>
  <g
     inkscape:label="Ebene 1"
     inkscape:groupmode="layer"
     id="layer1"
     transform="translate(265.84286,89.978971)">
    <g
       transform="matrix(-1.0209677,0,0,1.0148511,-223.13315,-161.60526)"
       id="g57634"
       inkscape:label="MeepleBig_black"
       style="stroke-width:0.98241013">
      <path
         d="m 40.186168,75.720913 c 0.0025,-3.53e-4 0.0441,-0.0042 0.116769,-0.01411 0.37712,-0.05292 1.534231,-0.280106 1.45027,-1.060097 -0.03105,-0.291395 -0.300214,-0.531636 -0.657931,-0.725311 0.0025,0.0014 0.0049,0.0025 0.0074,0.0039 l -1.719439,-0.934861 c -0.03916,-0.02152 -0.07867,-0.04163 -0.119592,-0.06174 -0.0035,-0.0018 -0.0078,-0.0032 -0.01129,-0.0049 -0.08079,-0.03916 -0.164394,-0.0762 -0.250119,-0.111125 -0.01552,-0.0063 -0.03034,-0.01235 -0.04586,-0.0187 -0.07444,-0.638175 -0.340078,-0.945445 -0.613481,-1.087261 0.0056,0.0028 0.01094,0.0039 0.01623,0.0067 l -1.719086,-0.935567 c -0.01164,-0.0063 -0.02328,-0.01235 -0.03493,-0.01799 -0.04057,-0.01976 -0.07937,-0.03034 -0.118533,-0.0441 -0.02258,-0.0074 -0.0448,-0.01834 -0.06667,-0.02434 -0.0035,-0.0011 -0.0067,-0.0028 -0.01023,-0.0039 -0.05786,-0.01482 -0.112183,-0.02293 -0.163689,-0.02822 -0.01305,-0.0014 -0.02328,-0.0018 -0.03563,-0.0021 -0.04339,-0.0035 -0.0822,-0.0046 -0.117123,-0.0035 -0.01094,0 -0.01976,0 -0.03034,7.06e-4 -0.03704,0.0018 -0.0695,0.0046 -0.08996,0.0074 -0.02117,0.0032 -0.03175,0.0053 -0.0321,0.0053 -7.05e-4,3.52e-4 -0.01129,0.0011 -0.0321,0.0039 -0.01376,0.0018 -0.03246,0.0049 -0.05362,0.0092 -0.0071,0.0014 -0.01411,0.0032 -0.02152,0.0049 -0.01729,0.0035 -0.03493,0.0078 -0.05468,0.01305 -0.01058,0.0028 -0.02117,0.0056 -0.03245,0.0092 -0.02046,0.006 -0.04163,0.01305 -0.06491,0.02081 -0.01164,0.0039 -0.02328,0.0081 -0.03563,0.01305 -0.02716,0.0099 -0.05539,0.02187 -0.08431,0.03493 -0.0078,0.0035 -0.01446,0.0056 -0.02223,0.0095 -0.0014,7.06e-4 -0.0028,0.0018 -0.0042,0.0025 -0.05715,0.02716 -0.117475,0.06138 -0.178506,0.102659 -0.0067,0.0042 -0.01305,0.0063 -0.0194,0.01094 -0.0049,0.0035 -0.0099,0.0081 -0.01482,0.01164 -0.03775,0.02646 -0.07479,0.05609 -0.111831,0.08855 -0.006,0.0053 -0.01199,0.0085 -0.01764,0.01376 l -0.0028,0.0028 c -0.03739,0.03387 -0.07444,0.07056 -0.110419,0.111125 l -0.0039,0.0042 c -0.02222,0.02505 -0.04304,0.05398 -0.06456,0.08184 -0.01305,0.01693 -0.02681,0.0321 -0.03951,0.05045 -3.53e-4,7.06e-4 -7.06e-4,0.0011 -0.0011,0.0014 -0.0067,0.0092 -0.01199,0.02081 -0.0187,0.03034 -0.02716,0.04092 -0.05433,0.0829 -0.07973,0.129117 -3.52e-4,0.0018 -0.0014,0.0032 -0.0025,0.0049 -0.0039,0.0067 -0.0067,0.01623 -0.01058,0.02293 -0.03034,0.05821 -0.05821,0.121356 -0.08396,0.188384 -0.0042,0.01058 -0.0092,0.0187 -0.01305,0.02928 -0.0088,0.0247 -0.01588,0.05292 -0.02399,0.07867 -0.0095,0.02787 -0.01835,0.05539 -0.02681,0.08502 -0.01199,0.04339 -0.02187,0.08961 -0.03175,0.136525 -0.0067,0.03104 -0.01376,0.06068 -0.0194,0.09313 -0.0092,0.05186 -0.01552,0.107597 -0.02222,0.163336 -0.0032,0.03104 -0.0081,0.06068 -0.01094,0.09349 -0.0074,0.08996 -0.01199,0.184503 -0.01235,0.284339 3.52e-4,0.0011 0.0021,0.0088 0.0035,0.01729 3.53e-4,0.0028 0,0.0074 0,0.01094 3.53e-4,0.0085 -0.0011,0.01834 -0.0035,0.02822 -0.0025,0.0095 -0.0042,0.01905 -0.01023,0.02858 -3.53e-4,3.53e-4 -3.53e-4,7.06e-4 -7.05e-4,0.0011 -0.0085,0.01305 -0.02117,0.02611 -0.04022,0.03704 -0.0042,0.0028 -0.0187,0.0099 -0.03845,0.0194 -0.06491,0.0314 -0.207433,0.09843 -0.396169,0.193675 -0.0049,0.0025 -0.0085,0.0046 -0.01341,0.0071 -0.05644,0.02857 -0.117122,0.05927 -0.180622,0.09278 -0.01094,0.006 -0.02187,0.01129 -0.03316,0.01764 -0.06421,0.03387 -0.130528,0.06914 -0.199672,0.106892 -0.0081,0.0046 -0.01693,0.0092 -0.02505,0.01411 -0.06632,0.03634 -0.133702,0.07444 -0.202494,0.113947 -0.0088,0.0053 -0.01693,0.0095 -0.02575,0.01482 -0.07056,0.04092 -0.141817,0.08361 -0.21343,0.127353 -0.01517,0.0095 -0.02999,0.0187 -0.04516,0.02787 -0.07091,0.0441 -0.141464,0.0889 -0.211667,0.135466 -0.01341,0.0092 -0.02646,0.01799 -0.03986,0.02681 -0.02646,0.01799 -0.05327,0.03563 -0.07973,0.05397 -0.01835,0.0127 -0.03563,0.02646 -0.05398,0.03951 -0.04939,0.03493 -0.09737,0.0695 -0.144639,0.10548 -0.03528,0.02646 -0.06914,0.05256 -0.103364,0.07937 -0.04516,0.03598 -0.08819,0.07267 -0.130881,0.109008 -0.02046,0.01729 -0.04269,0.03422 -0.06244,0.05186 -0.0092,0.0081 -0.01623,0.01658 -0.02505,0.02505 -0.05856,0.05362 -0.112184,0.107244 -0.162631,0.161925 -0.01199,0.01341 -0.02787,0.02611 -0.03951,0.03951 -0.0032,0.0035 -0.0053,0.0071 -0.0085,0.01023 -0.01446,0.01658 -0.02575,0.03316 -0.03916,0.04974 -0.02681,0.03246 -0.05503,0.06526 -0.07796,0.09737 -0.0064,0.0099 -0.01129,0.01905 -0.01764,0.02822 -0.0095,0.01446 -0.01764,0.02893 -0.02681,0.04339 -0.01199,0.0194 -0.02575,0.03916 -0.03634,0.05856 -0.01446,0.02716 -0.0254,0.05398 -0.03704,0.08114 -0.0039,0.0085 -0.0085,0.01764 -0.01199,0.02646 -0.0018,0.0046 -0.0042,0.0088 -0.006,0.01305 -0.01976,0.05468 -0.03281,0.108656 -0.03845,0.161925 -0.03034,0.280458 0.09031,0.451203 0.276225,0.55245 l 1.371952,0.746125 c -0.0194,0.03739 -0.0381,0.07514 -0.05962,0.116769 -0.02505,0.04974 -0.05115,0.100542 -0.07902,0.155575 -0.02364,0.04692 -0.04621,0.09172 -0.07126,0.14217 -0.03739,0.07479 -0.0762,0.153811 -0.116064,0.236008 -0.01588,0.03281 -0.03069,0.06209 -0.04692,0.0956 -0.05327,0.111125 -0.10795,0.228953 -0.163336,0.349956 -0.01976,0.04304 -0.03916,0.08749 -0.05891,0.131938 -0.03986,0.08925 -0.07902,0.179917 -0.118533,0.27305 -0.02081,0.04939 -0.04163,0.09842 -0.06244,0.149225 -0.0448,0.109009 -0.08819,0.220134 -0.13088,0.333023 -0.01305,0.03351 -0.02611,0.06562 -0.03845,0.09878 -0.0021,0.0053 -0.0042,0.01023 -0.0056,0.01517 -0.03281,0.0889 -0.06209,0.180622 -0.09278,0.271286 -0.02258,0.06597 -0.04692,0.131233 -0.06773,0.197908 -0.05186,0.164042 -0.09948,0.329495 -0.140759,0.494947 -0.0071,0.02258 -0.125941,0.401814 0.01376,0.478014 l 1.719439,0.935567 c -0.01834,-0.01023 -0.03175,-0.02575 -0.04198,-0.04445 0.02222,0.04092 0.06103,0.06456 0.125589,0.05574 l 2.258483,-0.317853 c 0.03246,-0.0042 0.316795,-0.05503 0.511881,-0.452967 0.01588,-0.03104 0.221544,-0.42933 0.402872,-0.790575 l 1.490133,0.810684 c -0.0011,-3.53e-4 -0.0018,-0.0014 -0.0028,-0.0018 0.134056,0.07373 0.254,0.06138 0.276578,0.05821 l 2.254603,-0.316794 c 0.26035,-0.03669 0.105127,-0.492831 0.09701,-0.51682 -0.330905,-1.249186 -1.055158,-2.392186 -1.33103,-2.862791 -0.272697,-0.473428 0.156986,-0.533753 0.179211,-0.536928 z"
         style="fill:none;fill-opacity:1;stroke:#000000;stroke-width:0.15030873;stroke-linecap:butt;stroke-linejoin:miter;stroke-miterlimit:10;stroke-dasharray:none;stroke-opacity:1"
         id="path17961"
         inkscape:connector-curvature="0" />
      <path
         d="m 40.186178,75.720914 c 0.0025,-3.44e-4 0.0441,-0.0042 0.116769,-0.01411 0.37712,-0.05292 1.534231,-0.280106 1.45027,-1.060096 -0.03105,-0.291396 -0.300214,-0.531636 -0.657931,-0.725311 0.0025,0.0014 0.0049,0.0025 0.0074,0.0039 l -1.719439,-0.934861 c -0.03916,-0.02152 -0.07867,-0.04163 -0.119592,-0.06174 -0.0035,-0.0018 -0.0078,-0.0032 -0.01129,-0.0049 -0.08079,-0.03916 -0.164394,-0.0762 -0.250119,-0.111125 -0.01552,-0.0063 -0.03034,-0.01235 -0.04586,-0.0187 -0.07444,-0.638176 -0.340078,-0.945446 -0.613481,-1.087262 0.0056,0.0028 0.01094,0.0039 0.01623,0.0067 l -1.719086,-0.935567 c -0.01164,-0.0063 -0.02328,-0.01235 -0.03493,-0.01799 -0.04057,-0.01976 -0.07937,-0.03034 -0.118533,-0.0441 -0.02258,-0.0074 -0.0448,-0.01834 -0.06667,-0.02434 -0.0035,-0.0011 -0.0067,-0.0028 -0.01023,-0.0039 -0.05786,-0.01482 -0.112183,-0.02293 -0.163689,-0.02822 -0.01305,-0.0014 -0.02328,-0.0018 -0.03563,-0.0021 -0.04339,-0.0035 -0.0822,-0.0046 -0.117123,-0.0035 -0.01094,0 -0.01976,0 -0.03034,7.05e-4 -0.03704,0.0018 -0.0695,0.0046 -0.08996,0.0074 -0.02117,0.0032 -0.03175,0.0053 -0.0321,0.0053 -7.14e-4,3.52e-4 -0.01129,0.0011 -0.0321,0.0039 -0.01376,0.0018 -0.03246,0.0049 -0.05362,0.0092 -0.0071,0.0014 -0.01411,0.0032 -0.02152,0.0049 -0.01729,0.0035 -0.03493,0.0078 -0.05468,0.01305 -0.01058,0.0028 -0.02117,0.0056 -0.03245,0.0092 -0.02046,0.006 -0.04163,0.01305 -0.06491,0.02081 -0.01164,0.0039 -0.02328,0.0081 -0.03563,0.01305 -0.02716,0.0099 -0.05539,0.02187 -0.08431,0.03493 -0.0078,0.0035 -0.01446,0.0056 -0.02223,0.0095 -0.0014,7.06e-4 -0.0028,0.0018 -0.0042,0.0025 -0.05715,0.02716 -0.117475,0.06138 -0.178507,0.102659 -0.0067,0.0042 -0.01305,0.0063 -0.0194,0.01094 -0.0049,0.0035 -0.0099,0.0081 -0.01482,0.01164 -0.03775,0.02646 -0.07479,0.05609 -0.111831,0.08855 -0.006,0.0053 -0.01199,0.0085 -0.01764,0.01376 l -0.0028,0.0028 c -0.03739,0.03387 -0.07444,0.07056 -0.110419,0.111125 l -0.0039,0.0042 c -0.02222,0.02505 -0.04304,0.05398 -0.06456,0.08184 -0.01305,0.01693 -0.02681,0.0321 -0.03951,0.05045 -3.44e-4,7.06e-4 -7.15e-4,0.0011 -0.0011,0.0014 -0.0067,0.0092 -0.01199,0.02081 -0.0187,0.03034 -0.02716,0.04092 -0.05433,0.0829 -0.07973,0.129117 -3.44e-4,0.0018 -0.0014,0.0032 -0.0025,0.0049 -0.0039,0.0067 -0.0067,0.01623 -0.01058,0.02293 -0.03034,0.05821 -0.05821,0.121356 -0.08396,0.188384 -0.0042,0.01058 -0.0092,0.0187 -0.01305,0.02928 -0.0088,0.0247 -0.01588,0.05292 -0.02399,0.07867 -0.0095,0.02787 -0.01835,0.05539 -0.02681,0.08502 -0.01199,0.04339 -0.02187,0.08961 -0.03175,0.136525 -0.0067,0.03104 -0.01376,0.06068 -0.0194,0.09313 -0.0092,0.05186 -0.01552,0.107597 -0.02222,0.163336 -0.0032,0.03104 -0.0081,0.06068 -0.01094,0.09349 -0.0074,0.08996 -0.01199,0.184503 -0.01235,0.284339 3.44e-4,0.0011 0.0021,0.0088 0.0035,0.01729 3.44e-4,0.0028 0,0.0074 0,0.01094 3.44e-4,0.0085 -0.0011,0.01834 -0.0035,0.02822 -0.0025,0.0095 -0.0042,0.01905 -0.01023,0.02858 -3.44e-4,3.52e-4 -3.44e-4,7.07e-4 -7.14e-4,0.0011 -0.0085,0.01305 -0.02117,0.02611 -0.04022,0.03704 -0.0042,0.0028 -0.0187,0.0099 -0.03845,0.0194 -0.06491,0.0314 -0.207433,0.09843 -0.396169,0.193675 -0.0049,0.0025 -0.0085,0.0046 -0.01341,0.0071 -0.05644,0.02857 -0.117122,0.05927 -0.180622,0.09278 -0.01094,0.006 -0.02187,0.01129 -0.03316,0.01764 -0.06421,0.03387 -0.130528,0.06914 -0.199672,0.106892 -0.0081,0.0046 -0.01693,0.0092 -0.02505,0.01411 -0.06632,0.03634 -0.133702,0.07444 -0.202494,0.113947 -0.0088,0.0053 -0.01693,0.0095 -0.02575,0.01482 -0.07056,0.04092 -0.141817,0.08361 -0.21343,0.127353 -0.01517,0.0095 -0.02999,0.0187 -0.04516,0.02787 -0.07091,0.0441 -0.141464,0.0889 -0.211667,0.135466 -0.01341,0.0092 -0.02646,0.01799 -0.03986,0.02681 -0.02646,0.01799 -0.05327,0.03563 -0.07973,0.05397 -0.01835,0.0127 -0.03563,0.02646 -0.05398,0.03951 -0.04939,0.03493 -0.09737,0.0695 -0.144639,0.10548 -0.03528,0.02646 -0.06914,0.05256 -0.103364,0.07937 -0.04516,0.03598 -0.08819,0.07267 -0.130881,0.109008 -0.02046,0.01729 -0.04269,0.03422 -0.06244,0.05186 -0.0092,0.0081 -0.01623,0.01658 -0.02505,0.02505 -0.05856,0.05362 -0.112184,0.107244 -0.162631,0.161925 -0.01199,0.01341 -0.02787,0.02611 -0.03951,0.03951 -0.0032,0.0035 -0.0053,0.0071 -0.0085,0.01023 -0.01446,0.01658 -0.02575,0.03316 -0.03916,0.04974 -0.02681,0.03246 -0.05503,0.06526 -0.07796,0.09737 -0.0064,0.0099 -0.01129,0.01905 -0.01764,0.02822 -0.0095,0.01446 -0.01764,0.02893 -0.02681,0.04339 -0.01199,0.0194 -0.02575,0.03916 -0.03634,0.05856 -0.01446,0.02716 -0.0254,0.05398 -0.03704,0.08114 -0.0039,0.0085 -0.0085,0.01764 -0.01199,0.02646 -0.0018,0.0046 -0.0042,0.0088 -0.006,0.01305 -0.01976,0.05468 -0.03281,0.108655 -0.03845,0.161925 -0.03034,0.280458 0.09031,0.451203 0.276225,0.55245 l 1.371952,0.746125 c -0.0194,0.03739 -0.0381,0.07514 -0.05962,0.116769 -0.02505,0.04974 -0.05115,0.100542 -0.07902,0.155575 -0.02364,0.04692 -0.04621,0.09172 -0.07126,0.14217 -0.03739,0.07479 -0.0762,0.153811 -0.116064,0.236008 -0.01588,0.03281 -0.03069,0.06209 -0.04692,0.0956 -0.05327,0.111125 -0.10795,0.228953 -0.163336,0.349956 -0.01976,0.04304 -0.03916,0.08749 -0.05891,0.131937 -0.03986,0.08925 -0.07902,0.179917 -0.118533,0.27305 -0.02081,0.04939 -0.04163,0.09842 -0.06244,0.149225 -0.0448,0.10901 -0.08819,0.220135 -0.13088,0.333024 -0.01305,0.03351 -0.02611,0.06562 -0.03845,0.09878 -0.0021,0.0053 -0.0042,0.01023 -0.0056,0.01517 -0.03281,0.0889 -0.06209,0.180622 -0.09278,0.271286 -0.02258,0.06597 -0.04692,0.131233 -0.06773,0.197908 -0.05186,0.164042 -0.09948,0.329495 -0.140759,0.494947 -0.0071,0.02258 -0.125941,0.401814 0.01376,0.478014 l 1.719439,0.935567 c -0.01834,-0.01023 -0.03175,-0.02575 -0.04198,-0.04445 0.02222,0.04092 0.06103,0.06456 0.125589,0.05574 l 2.258483,-0.317853 c 0.03246,-0.0042 0.316795,-0.05503 0.511881,-0.452967 0.01588,-0.03104 0.221544,-0.42933 0.402872,-0.790575 l 1.490133,0.810684 c -0.0011,-3.44e-4 -0.0018,-0.0014 -0.0028,-0.0018 0.134056,0.07373 0.254,0.06138 0.276578,0.05821 l 2.254614,-0.316792 c 0.26035,-0.03669 0.105127,-0.492831 0.09701,-0.51682 -0.330905,-1.249186 -1.055158,-2.392186 -1.33103,-2.862791 -0.272697,-0.473428 0.156986,-0.533753 0.179211,-0.536928 z"
         style="fill:#2a292a;fill-opacity:1;stroke:none;stroke-width:0.15030873;stroke-linecap:butt;stroke-linejoin:miter;stroke-miterlimit:10;stroke-dasharray:none;stroke-opacity:1"
         id="path17961-0"
         inkscape:connector-curvature="0" />
      <path
         d="m 37.692592,71.596756 c 0.201789,-0.02822 1.290461,-0.103364 1.286933,1.573389 -7.14e-4,0.0042 -0.0254,0.08572 0.05115,0.109008 0.07902,0.02505 2.623256,0.432858 2.723445,1.367719 0.08114,0.779992 -1.073856,1.006475 -1.450622,1.059392 -0.07302,0.01058 -0.114653,0.01411 -0.11677,0.01411 -0.02258,0.0032 -0.451908,0.0635 -0.178858,0.537633 0.273403,0.470606 0.999419,1.6129 1.33103,2.862086 0.0078,0.02434 0.162631,0.480484 -0.09701,0.517173 l -2.25813,0.317147 c -0.03528,0.0049 -0.31997,0.03422 -0.513292,-0.309033 -0.02399,-0.04022 -0.484717,-0.807156 -0.627945,-1.088673 -0.02822,-0.05398 -0.06174,-0.131586 -0.194733,-0.122061 -0.132997,0.02787 -0.166864,0.115006 -0.195439,0.177095 -0.144639,0.322086 -0.607483,1.218494 -0.632177,1.265766 -0.194734,0.397934 -0.479425,0.448381 -0.512234,0.45332 l -2.2606,0.3175 c -0.259644,0.03669 -0.103364,-0.46355 -0.09525,-0.489656 0.336197,-1.343025 1.067153,-2.690283 1.34232,-3.238147 0.274813,-0.551039 -0.154164,-0.490714 -0.177095,-0.487539 -0.0021,7.15e-4 -0.04374,0.0085 -0.116769,0.01905 -0.376767,0.05256 -1.531409,0.150636 -1.446742,-0.652991 0.103364,-0.96273 2.650772,-2.086327 2.730147,-2.133952 0.0762,-0.04445 0.05221,-0.119592 0.0508,-0.12312 0.0032,-1.676752 1.091495,-1.907822 1.293636,-1.936044 0.02081,-0.0028 0.03175,-0.0035 0.0321,-0.0039 7.15e-4,0 0.01129,-0.0021 0.0321,-0.0053"
         style="fill:#39383a;fill-opacity:1;fill-rule:nonzero;stroke:#000000;stroke-width:0.05206773;stroke-miterlimit:4;stroke-dasharray:none;stroke-opacity:1"
         id="path20823"
         inkscape:connector-curvature="0" />
    </g>
  </g>
</svg>
