<?xml version="1.0" encoding="UTF-8" standalone="no"?>
<!-- Created with Inkscape (http://www.inkscape.org/) -->

<svg
   xmlns:dc="http://purl.org/dc/elements/1.1/"
   xmlns:cc="http://creativecommons.org/ns#"
   xmlns:rdf="http://www.w3.org/1999/02/22-rdf-syntax-ns#"
   xmlns:svg="http://www.w3.org/2000/svg"
   xmlns="http://www.w3.org/2000/svg"
   xmlns:sodipodi="http://sodipodi.sourceforge.net/DTD/sodipodi-0.dtd"
   xmlns:inkscape="http://www.inkscape.org/namespaces/inkscape"
   width="10.286741mm"
   height="10.297575mm"
   viewBox="0 0 10.286741 10.297575"
   version="1.1"
   id="svg59498"
   inkscape:version="0.92.3 (2405546, 2018-03-11)"
   sodipodi:docname="MeepleBig_red_f.svg">
  <defs
     id="defs59492" />
  <sodipodi:namedview
     id="base"
     pagecolor="#ffffff"
     bordercolor="#666666"
     borderopacity="1.0"
     inkscape:pageopacity="0.0"
     inkscape:pageshadow="2"
     inkscape:zoom="7.9195959"
     inkscape:cx="-24.918362"
     inkscape:cy="-1.3563217"
     inkscape:document-units="mm"
     inkscape:current-layer="layer1"
     showgrid="false"
     inkscape:window-width="1920"
     inkscape:window-height="1017"
     inkscape:window-x="-8"
     inkscape:window-y="-8"
     inkscape:window-maximized="1" />
  <metadata
     id="metadata59495">
    <rdf:RDF>
      <cc:Work
         rdf:about="">
        <dc:format>image/svg+xml</dc:format>
        <dc:type
           rdf:resource="http://purl.org/dc/dcmitype/StillImage" />
        <dc:title />
      </cc:Work>
    </rdf:RDF>
  </metadata>
  <g
     inkscape:label="Ebene 1"
     inkscape:groupmode="layer"
     id="layer1"
     transform="translate(245.59157,91.753142)">
    <g
       transform="matrix(-1.0209632,0,0,1.0148854,-190.13318,-163.3819)"
       id="g57832"
       inkscape:label="MeepleBig_red"
       style="stroke-width:0.98239583">
      <path
         d="m 52.673268,75.720913 c 0.0025,-3.53e-4 0.0441,-0.0042 0.117122,-0.01411 0.37712,-0.05292 1.533878,-0.280106 1.449917,-1.060097 -0.03104,-0.291042 -0.299156,-0.530578 -0.655814,-0.7239 0.0018,7.05e-4 0.0032,0.0018 0.0049,0.0025 l -0.0081,-0.0042 -0.0021,-7.06e-4 -1.708855,-0.930275 c -0.03916,-0.02117 -0.07902,-0.04163 -0.119592,-0.06174 -0.0039,-0.0018 -0.0085,-0.0035 -0.01199,-0.0053 -0.08114,-0.03951 -0.1651,-0.0762 -0.251178,-0.111478 -0.01482,-0.006 -0.02893,-0.01164 -0.04375,-0.01764 -0.07479,-0.638881 -0.34043,-0.945797 -0.614186,-1.087614 0.006,0.0032 0.01164,0.0039 0.01693,0.0071 l -1.719439,-0.935567 c -0.01164,-0.0063 -0.02328,-0.01235 -0.03493,-0.01799 -0.04057,-0.02011 -0.07973,-0.03069 -0.119592,-0.0441 -0.02187,-0.0078 -0.04339,-0.01834 -0.06526,-0.02434 -0.0032,-7.05e-4 -0.0067,-0.0028 -0.01023,-0.0039 -0.05786,-0.01482 -0.112184,-0.02293 -0.164042,-0.02822 -0.0127,-0.0014 -0.02293,-0.0018 -0.03563,-0.0021 -0.04339,-0.0035 -0.08185,-0.0046 -0.117123,-0.0035 -0.01094,0 -0.01975,0 -0.03034,7.06e-4 -0.03704,0.0018 -0.0695,0.0046 -0.08996,0.0074 -0.02081,0.0032 -0.0314,0.0053 -0.0321,0.0053 -3.52e-4,0 -0.01094,0.0011 -0.0321,0.0039 -0.01376,0.0018 -0.03246,0.0049 -0.05362,0.0092 -0.0064,0.0014 -0.01341,0.0032 -0.02046,0.0046 -0.01729,0.0035 -0.03563,0.0081 -0.05609,0.01376 -0.0099,0.0025 -0.02011,0.0053 -0.03105,0.0085 -0.02046,0.006 -0.04127,0.0127 -0.0642,0.02081 -0.01235,0.0042 -0.02434,0.0085 -0.0374,0.01341 -0.02399,0.0088 -0.04939,0.01976 -0.07514,0.0314 -0.0099,0.0042 -0.0194,0.0074 -0.02963,0.01235 -0.0021,0.0011 -0.0042,0.0025 -0.006,0.0035 -0.05715,0.02716 -0.117122,0.06138 -0.1778,0.102659 -0.006,0.0035 -0.01164,0.0056 -0.01764,0.0099 -0.0046,0.0032 -0.0095,0.0074 -0.01376,0.01058 -0.03881,0.02752 -0.07761,0.05785 -0.116064,0.09207 -0.0049,0.0042 -0.0095,0.0067 -0.01411,0.01094 l -0.0025,0.0025 c -0.03881,0.03528 -0.07726,0.07303 -0.114653,0.115359 -7.05e-4,0.0011 -0.0014,0.0025 -0.0025,0.0035 -0.07161,0.08149 -0.140053,0.1778 -0.201083,0.289984 -7.06e-4,0.0014 -0.0018,0.0028 -0.0025,0.0042 -0.0032,0.006 -0.0056,0.01446 -0.0092,0.02081 -0.03069,0.05891 -0.05927,0.122767 -0.08537,0.190853 -0.0039,0.01058 -0.0088,0.0187 -0.0127,0.02928 -0.0092,0.02434 -0.01588,0.05186 -0.02399,0.07726 -0.0095,0.02893 -0.0187,0.0575 -0.02752,0.08819 -0.01129,0.04163 -0.02081,0.08643 -0.03034,0.130881 -0.0071,0.03281 -0.01482,0.06385 -0.02046,0.09807 -0.0092,0.0515 -0.01517,0.107244 -0.02187,0.162983 -0.0035,0.03069 -0.0085,0.06032 -0.01094,0.09278 -0.0078,0.09031 -0.01199,0.184855 -0.01235,0.285044 3.52e-4,0.0011 0.0021,0.0088 0.0028,0.01834 3.53e-4,0.0021 0,0.0053 0,0.0081 3.53e-4,0.0088 -0.0014,0.0194 -0.0042,0.03034 -0.0025,0.0092 -0.0049,0.01905 -0.01094,0.02858 -3.52e-4,3.53e-4 -7.05e-4,7.06e-4 -0.0011,0.0014 -0.0088,0.01305 -0.02152,0.02611 -0.04057,0.03704 -0.0042,0.0028 -0.0187,0.0099 -0.0381,0.0194 -0.02258,0.01058 -0.05398,0.02575 -0.09419,0.04516 l -0.0032,0.0018 c -0.03775,0.01799 -0.08114,0.03881 -0.131939,0.06385 -0.0035,0.0018 -0.0078,0.0035 -0.01164,0.0056 -0.0441,0.02152 -0.09243,0.04586 -0.144286,0.07161 -0.0099,0.0053 -0.0187,0.0099 -0.02928,0.01482 -0.05327,0.02716 -0.11042,0.05644 -0.170392,0.08784 -0.01411,0.0074 -0.02787,0.01482 -0.04233,0.02258 -0.06138,0.0321 -0.124531,0.06562 -0.190147,0.101952 -0.01305,0.0071 -0.02681,0.01482 -0.04057,0.02222 -0.05962,0.03281 -0.119944,0.06738 -0.182033,0.102659 -0.01305,0.0078 -0.02575,0.01482 -0.03916,0.02258 -0.06703,0.03881 -0.134761,0.07937 -0.202847,0.121356 -0.01905,0.01164 -0.0381,0.02328 -0.0575,0.03528 -0.06738,0.04198 -0.134761,0.08467 -0.201083,0.128764 -0.01764,0.01164 -0.03457,0.02328 -0.05186,0.03493 -0.02399,0.01623 -0.04833,0.03245 -0.07267,0.04904 -0.01693,0.01199 -0.03316,0.02469 -0.05045,0.03669 -0.0515,0.03634 -0.1016,0.07267 -0.150989,0.110419 -0.03422,0.0254 -0.06667,0.05045 -0.09948,0.07655 -0.04621,0.03669 -0.09031,0.07373 -0.13335,0.110772 -0.02046,0.01729 -0.04269,0.03387 -0.06209,0.05115 -0.0088,0.0085 -0.01588,0.01658 -0.02469,0.02505 -0.05927,0.05397 -0.113242,0.108303 -0.164042,0.163336 -0.01199,0.01305 -0.02716,0.02575 -0.0388,0.03881 -0.0032,0.0035 -0.0053,0.0067 -0.0081,0.0099 -0.01376,0.01587 -0.0247,0.03175 -0.03775,0.04762 -0.02752,0.03351 -0.05609,0.06703 -0.08008,0.100189 -0.0063,0.0095 -0.01094,0.0187 -0.01729,0.02787 -0.0095,0.01411 -0.01764,0.02822 -0.02646,0.04269 -0.01235,0.01976 -0.02646,0.03986 -0.03704,0.05962 -0.01411,0.02646 -0.02434,0.05221 -0.03563,0.07796 -0.0042,0.0099 -0.0092,0.01976 -0.01305,0.02928 -0.0018,0.0046 -0.0046,0.0095 -0.0063,0.01376 -0.01976,0.05433 -0.03281,0.107597 -0.03845,0.160514 -0.03034,0.280458 0.09031,0.451203 0.276225,0.55245 l 1.372305,0.746125 c -0.01764,0.03387 -0.03387,0.06597 -0.05292,0.103364 -0.02893,0.05644 -0.05891,0.115711 -0.09066,0.179564 -0.02117,0.04127 -0.04092,0.08008 -0.0628,0.12453 -0.0448,0.08961 -0.09172,0.184503 -0.140405,0.285045 -0.0078,0.01623 -0.01482,0.03034 -0.02293,0.04727 -0.05468,0.113947 -0.111125,0.235656 -0.168275,0.360539 -0.01693,0.0381 -0.03387,0.0762 -0.0508,0.1143 -0.04304,0.09631 -0.08537,0.194028 -0.127705,0.294569 -0.0187,0.04375 -0.03669,0.08678 -0.05503,0.131234 -0.0508,0.123472 -0.100189,0.249061 -0.148519,0.377472 -0.0067,0.0187 -0.01446,0.03704 -0.02152,0.05609 -0.0014,0.0042 -0.0032,0.0078 -0.0046,0.01199 -0.04198,0.113947 -0.08008,0.230364 -0.118533,0.34678 -0.01411,0.04375 -0.03034,0.08572 -0.0441,0.12947 -0.05186,0.1651 -0.09948,0.331964 -0.140759,0.498828 -0.0074,0.02258 -0.126647,0.402872 0.0127,0.478366 l 1.719086,0.935567 c -0.01834,-0.01023 -0.03175,-0.02611 -0.04198,-0.0448 0.02187,0.04092 0.06032,0.06456 0.124178,0.05574 l 2.25813,-0.3175 c 0.03281,-0.0042 0.319617,-0.05539 0.515056,-0.453319 0.01588,-0.03105 0.220133,-0.428978 0.400755,-0.78987 l 1.489075,0.810331 -0.0032,-0.0021 c 0.134056,0.07444 0.254353,0.06174 0.276931,0.05856 l 2.254955,-0.316794 c 0.26035,-0.03669 0.105128,-0.493184 0.09701,-0.51682 -0.330905,-1.249186 -1.055158,-2.392186 -1.33103,-2.862791 -0.27305,-0.473428 0.156633,-0.533753 0.178858,-0.536928 z"
         style="display:inline;fill:none;fill-opacity:1;stroke:#000000;stroke-width:0.15030654;stroke-linecap:butt;stroke-linejoin:miter;stroke-miterlimit:10;stroke-dasharray:none;stroke-opacity:1"
         id="path17913"
         inkscape:connector-curvature="0" />
      <path
         d="m 52.673454,75.720727 c 0.0025,-3.44e-4 0.0441,-0.0042 0.117122,-0.01411 0.37712,-0.05292 1.533878,-0.280106 1.449917,-1.060097 -0.03104,-0.291042 -0.299156,-0.530578 -0.655814,-0.7239 0.0018,7.15e-4 0.0032,0.0018 0.0049,0.0025 l -0.0081,-0.0042 -0.0021,-7.14e-4 -1.708855,-0.930275 c -0.03916,-0.02117 -0.07902,-0.04163 -0.119592,-0.06174 -0.0039,-0.0018 -0.0085,-0.0035 -0.01199,-0.0053 -0.08114,-0.03951 -0.165101,-0.0762 -0.251178,-0.111478 -0.01482,-0.006 -0.02893,-0.01164 -0.04375,-0.01764 -0.07479,-0.638881 -0.34043,-0.945797 -0.614186,-1.087614 0.006,0.0032 0.01164,0.0039 0.01693,0.0071 l -1.719439,-0.935567 c -0.01164,-0.0063 -0.02328,-0.01235 -0.03493,-0.01799 -0.04057,-0.02011 -0.07973,-0.03069 -0.119592,-0.0441 -0.02187,-0.0078 -0.04339,-0.01834 -0.06526,-0.02434 -0.0032,-7.05e-4 -0.0067,-0.0028 -0.01023,-0.0039 -0.05786,-0.01482 -0.112184,-0.02293 -0.164042,-0.02822 -0.0127,-0.0014 -0.02293,-0.0018 -0.03563,-0.0021 -0.04339,-0.0035 -0.08185,-0.0046 -0.117123,-0.0035 -0.01094,0 -0.01975,0 -0.03034,7.06e-4 -0.03704,0.0018 -0.0695,0.0046 -0.08996,0.0074 -0.02081,0.0032 -0.0314,0.0053 -0.0321,0.0053 -3.44e-4,0 -0.01094,0.0011 -0.0321,0.0039 -0.01376,0.0018 -0.03246,0.0049 -0.05362,0.0092 -0.0064,0.0014 -0.01341,0.0032 -0.02046,0.0046 -0.01729,0.0035 -0.03563,0.0081 -0.05609,0.01376 -0.0099,0.0025 -0.02011,0.0053 -0.03105,0.0085 -0.02046,0.006 -0.04127,0.0127 -0.0642,0.02081 -0.01235,0.0042 -0.02434,0.0085 -0.0374,0.01341 -0.02399,0.0088 -0.04939,0.01976 -0.07514,0.0314 -0.0099,0.0042 -0.0194,0.0074 -0.02963,0.01235 -0.0021,0.0011 -0.0042,0.0025 -0.006,0.0035 -0.05715,0.02716 -0.117122,0.06138 -0.1778,0.102659 -0.006,0.0035 -0.01164,0.0056 -0.01764,0.0099 -0.0046,0.0032 -0.0095,0.0074 -0.01376,0.01058 -0.03881,0.02752 -0.07761,0.05785 -0.116064,0.09207 -0.0049,0.0042 -0.0095,0.0067 -0.01411,0.01094 l -0.0025,0.0025 c -0.03881,0.03528 -0.07726,0.07303 -0.114653,0.115359 -7.15e-4,0.0011 -0.0014,0.0025 -0.0025,0.0035 -0.07161,0.08149 -0.140053,0.1778 -0.201083,0.289984 -7.15e-4,0.0014 -0.0018,0.0028 -0.0025,0.0042 -0.0032,0.006 -0.0056,0.01446 -0.0092,0.02081 -0.03069,0.05891 -0.05927,0.122767 -0.08537,0.190853 -0.0039,0.01058 -0.0088,0.0187 -0.0127,0.02928 -0.0092,0.02434 -0.01588,0.05186 -0.02399,0.07726 -0.0095,0.02893 -0.0187,0.0575 -0.02752,0.08819 -0.01129,0.04163 -0.02081,0.08643 -0.03034,0.130881 -0.0071,0.03281 -0.01482,0.06385 -0.02046,0.09807 -0.0092,0.0515 -0.01517,0.107244 -0.02187,0.162983 -0.0035,0.03069 -0.0085,0.06032 -0.01094,0.09278 -0.0078,0.09031 -0.01199,0.184855 -0.01235,0.285044 3.44e-4,0.0011 0.0021,0.0088 0.0028,0.01834 3.43e-4,0.0021 0,0.0053 0,0.0081 3.43e-4,0.0088 -0.0014,0.0194 -0.0042,0.03034 -0.0025,0.0092 -0.0049,0.01905 -0.01094,0.02858 -3.44e-4,3.52e-4 -7.14e-4,7.07e-4 -0.0011,0.0014 -0.0088,0.01305 -0.02152,0.02611 -0.04057,0.03704 -0.0042,0.0028 -0.0187,0.0099 -0.0381,0.0194 -0.02258,0.01058 -0.05398,0.02575 -0.09419,0.04516 l -0.0032,0.0018 c -0.03775,0.01799 -0.08114,0.03881 -0.131939,0.06385 -0.0035,0.0018 -0.0078,0.0035 -0.01164,0.0056 -0.0441,0.02152 -0.09243,0.04586 -0.144286,0.07161 -0.0099,0.0053 -0.0187,0.0099 -0.02928,0.01482 -0.05327,0.02716 -0.110421,0.05644 -0.170392,0.08784 -0.01411,0.0074 -0.02787,0.01482 -0.04233,0.02258 -0.06138,0.0321 -0.12453,0.06562 -0.190147,0.101952 -0.01305,0.0071 -0.02681,0.01482 -0.04057,0.02222 -0.05962,0.03281 -0.119945,0.06738 -0.182034,0.102659 -0.01305,0.0078 -0.02575,0.01482 -0.03916,0.02258 -0.06703,0.03881 -0.134761,0.07937 -0.202848,0.121356 -0.01905,0.01164 -0.0381,0.02328 -0.0575,0.03528 -0.06738,0.04198 -0.134761,0.08467 -0.201083,0.128764 -0.01764,0.01164 -0.03457,0.02328 -0.05186,0.03493 -0.02399,0.01623 -0.04833,0.03245 -0.07267,0.04904 -0.01693,0.01199 -0.03316,0.02469 -0.05045,0.03669 -0.0515,0.03634 -0.1016,0.07267 -0.150989,0.110418 -0.03422,0.0254 -0.06667,0.05045 -0.09948,0.07655 -0.04621,0.03669 -0.09031,0.07373 -0.13335,0.110772 -0.02046,0.01729 -0.04269,0.03387 -0.06209,0.05115 -0.0088,0.0085 -0.01588,0.01658 -0.02469,0.02505 -0.05927,0.05397 -0.113241,0.108303 -0.164041,0.163336 -0.01199,0.01305 -0.02716,0.02575 -0.0388,0.03881 -0.0032,0.0035 -0.0053,0.0067 -0.0081,0.0099 -0.01376,0.01587 -0.0247,0.03175 -0.03775,0.04762 -0.02752,0.03351 -0.05609,0.06703 -0.08008,0.100189 -0.0063,0.0095 -0.01094,0.0187 -0.01729,0.02787 -0.0095,0.01411 -0.01764,0.02822 -0.02646,0.04269 -0.01235,0.01976 -0.02646,0.03986 -0.03704,0.05962 -0.01411,0.02646 -0.02434,0.05221 -0.03563,0.07796 -0.0042,0.0099 -0.0092,0.01976 -0.01305,0.02928 -0.0018,0.0046 -0.0046,0.0095 -0.0063,0.01376 -0.01976,0.05433 -0.03281,0.107597 -0.03845,0.160514 -0.03034,0.280458 0.09031,0.451203 0.276225,0.55245 l 1.372305,0.746125 c -0.01764,0.03387 -0.03387,0.06597 -0.05292,0.103364 -0.02893,0.05644 -0.05891,0.115711 -0.09066,0.179564 -0.02117,0.04127 -0.04092,0.08008 -0.0628,0.12453 -0.0448,0.08961 -0.09172,0.184503 -0.140405,0.285045 -0.0078,0.01623 -0.01482,0.03034 -0.02293,0.04727 -0.05468,0.113947 -0.111125,0.235656 -0.168275,0.360539 -0.01693,0.0381 -0.03387,0.0762 -0.0508,0.1143 -0.04304,0.09631 -0.08537,0.194028 -0.127705,0.294569 -0.0187,0.04375 -0.03669,0.08678 -0.05503,0.131234 -0.0508,0.123472 -0.100189,0.249061 -0.148519,0.377472 -0.0067,0.0187 -0.01446,0.03704 -0.02152,0.05609 -0.0014,0.0042 -0.0032,0.0078 -0.0046,0.01199 -0.04198,0.113946 -0.08008,0.230364 -0.118533,0.346779 -0.01411,0.04375 -0.03034,0.08572 -0.0441,0.129471 -0.05186,0.1651 -0.09948,0.331964 -0.140759,0.498828 -0.0074,0.02258 -0.126647,0.402872 0.0127,0.478365 l 1.719086,0.935568 c -0.01834,-0.01023 -0.03175,-0.02611 -0.04198,-0.0448 0.02187,0.04092 0.06032,0.06456 0.124178,0.05574 l 2.25813,-0.3175 c 0.03281,-0.0042 0.319617,-0.05539 0.515056,-0.453319 0.01588,-0.03105 0.220133,-0.428978 0.400755,-0.789871 l 1.489075,0.810332 -0.0032,-0.0021 c 0.134056,0.07444 0.254353,0.06174 0.276931,0.05856 l 2.254932,-0.316784 c 0.26035,-0.03669 0.105128,-0.493184 0.09701,-0.51682 -0.330905,-1.249186 -1.055158,-2.392186 -1.33103,-2.862792 -0.27305,-0.473427 0.156633,-0.533752 0.178858,-0.536927 z"
         style="display:inline;fill:#981217;fill-opacity:1;stroke:none;stroke-width:0.15030654;stroke-linecap:butt;stroke-linejoin:miter;stroke-miterlimit:10;stroke-dasharray:none;stroke-opacity:1"
         id="path17913-8"
         inkscape:connector-curvature="0" />
      <path
         d="m 50.180395,71.597109 c 0.201789,-0.02822 1.289756,-0.103717 1.286581,1.573036 -0.0011,0.0046 -0.0254,0.08608 0.05362,0.109008 0.07655,0.0254 2.621138,0.432858 2.720974,1.36772 0.08361,0.779638 -1.073149,1.006827 -1.450622,1.059744 -0.07267,0.01023 -0.1143,0.01376 -0.116769,0.01411 -0.02222,0.0032 -0.451908,0.0635 -0.178858,0.537281 0.275872,0.470605 0.999772,1.613252 1.330677,2.862438 0.0081,0.02434 0.163336,0.480484 -0.09666,0.51682 l -2.257777,0.317147 c -0.03563,0.0053 -0.31997,0.03422 -0.513645,-0.30868 -0.02434,-0.04057 -0.484364,-0.807156 -0.627944,-1.088672 -0.02822,-0.05398 -0.06209,-0.131587 -0.194733,-0.122062 -0.132998,0.02787 -0.167217,0.115006 -0.192617,0.176389 -0.147461,0.322792 -0.610658,1.2192 -0.635,1.266473 -0.194733,0.397933 -0.479425,0.44838 -0.511881,0.452966 l -2.25813,0.3175 c -0.26282,0.03704 -0.106186,-0.463197 -0.09807,-0.489303 0.336197,-1.343377 1.067505,-2.690283 1.342319,-3.2385 0.275167,-0.551038 -0.154164,-0.490361 -0.177094,-0.487186 -0.0021,3.44e-4 -0.04339,0.0085 -0.116417,0.0187 -0.376767,0.05292 -1.531056,0.150989 -1.444625,-0.652992 0.100894,-0.962731 2.651125,-2.086681 2.727678,-2.133953 0.0762,-0.04445 0.05221,-0.119239 0.0508,-0.123119 0.0032,-1.6764 1.091847,-1.90747 1.293636,-1.936045 0.02081,-0.0025 0.0314,-0.0035 0.0321,-0.0035 7.14e-4,0 0.01129,-0.0021 0.03245,-0.0053"
         style="display:inline;fill:#ed1c24;fill-opacity:1;fill-rule:nonzero;stroke:#000000;stroke-width:0.05206698;stroke-miterlimit:4;stroke-dasharray:none;stroke-opacity:1"
         id="path18427"
         inkscape:connector-curvature="0" />
    </g>
  </g>
</svg>
