<?xml version="1.0" encoding="UTF-8" standalone="no"?>
<!-- Created with Inkscape (http://www.inkscape.org/) -->

<svg
   xmlns:dc="http://purl.org/dc/elements/1.1/"
   xmlns:cc="http://creativecommons.org/ns#"
   xmlns:rdf="http://www.w3.org/1999/02/22-rdf-syntax-ns#"
   xmlns:svg="http://www.w3.org/2000/svg"
   xmlns="http://www.w3.org/2000/svg"
   xmlns:sodipodi="http://sodipodi.sourceforge.net/DTD/sodipodi-0.dtd"
   xmlns:inkscape="http://www.inkscape.org/namespaces/inkscape"
   width="10.286742mm"
   height="10.297575mm"
   viewBox="0 0 10.286742 10.297576"
   version="1.1"
   id="svg59498"
   inkscape:version="0.92.3 (2405546, 2018-03-11)"
   sodipodi:docname="MeepleBig_pink_f.svg">
  <defs
     id="defs59492" />
  <sodipodi:namedview
     id="base"
     pagecolor="#ffffff"
     bordercolor="#666666"
     borderopacity="1.0"
     inkscape:pageopacity="0.0"
     inkscape:pageshadow="2"
     inkscape:zoom="15.839192"
     inkscape:cx="3.4513934"
     inkscape:cy="22.791307"
     inkscape:document-units="mm"
     inkscape:current-layer="layer1"
     showgrid="false"
     inkscape:window-width="1920"
     inkscape:window-height="1017"
     inkscape:window-x="-8"
     inkscape:window-y="-8"
     inkscape:window-maximized="1" />
  <metadata
     id="metadata59495">
    <rdf:RDF>
      <cc:Work
         rdf:about="">
        <dc:format>image/svg+xml</dc:format>
        <dc:type
           rdf:resource="http://purl.org/dc/dcmitype/StillImage" />
        <dc:title />
      </cc:Work>
    </rdf:RDF>
  </metadata>
  <g
     inkscape:label="Ebene 1"
     inkscape:groupmode="layer"
     id="layer1"
     transform="translate(248.4331,90.379193)">
    <g
       transform="matrix(-1.0211622,0,0,1.0148727,-143.13258,-157.55228)"
       id="g58588"
       inkscape:label="MeepleBig_pink"
       style="stroke-width:0.98230612">
      <path
         d="m 101.47189,71.331467 c 0.002,-3.43e-4 0.0441,-0.0042 0.11677,-0.01411 0.37748,-0.05292 1.53424,-0.280106 1.45028,-1.060097 -0.031,-0.291042 -0.29915,-0.530578 -0.65581,-0.7239 0.002,7.15e-4 0.004,0.0018 0.005,0.0025 l -0.008,-0.0042 c -7.1e-4,-3.44e-4 -10e-4,-7.14e-4 -0.002,-7.14e-4 l -1.70916,-0.930318 c -0.0392,-0.02117 -0.079,-0.04163 -0.11959,-0.06174 -0.004,-0.0018 -0.008,-0.0035 -0.012,-0.0053 -0.0811,-0.03951 -0.1651,-0.0762 -0.25118,-0.111478 -0.0148,-0.006 -0.0289,-0.01164 -0.0437,-0.01764 -0.0748,-0.638881 -0.340781,-0.945797 -0.614181,-1.087614 0.006,0.0032 0.0113,0.0039 0.0169,0.0071 l -1.71943,-0.935567 c -0.0116,-0.0063 -0.0233,-0.01235 -0.0349,-0.01799 -0.0406,-0.02011 -0.0797,-0.03069 -0.1196,-0.0441 -0.0219,-0.0078 -0.0437,-0.01834 -0.0653,-0.02434 -0.004,-7.06e-4 -0.007,-0.0028 -0.0102,-0.0039 -0.0579,-0.01482 -0.11218,-0.02293 -0.16404,-0.02822 -0.0127,-0.0014 -0.0229,-0.0018 -0.0356,-0.0021 -0.0434,-0.0035 -0.0822,-0.0046 -0.11712,-0.0035 -0.0109,0 -0.0198,0 -0.03,7.05e-4 -0.0374,0.0018 -0.0699,0.0046 -0.0903,0.0074 -0.0208,0.0032 -0.0318,0.0053 -0.0324,0.0053 -3.5e-4,3.52e-4 -0.0109,0.0011 -0.0318,0.0039 -0.0138,0.0018 -0.0325,0.0049 -0.0536,0.0092 -0.006,0.0014 -0.0134,0.0032 -0.0205,0.0046 -0.0173,0.0035 -0.0356,0.0081 -0.0561,0.01376 -0.01,0.0025 -0.0201,0.0053 -0.0311,0.0085 -0.0205,0.006 -0.0413,0.0127 -0.0642,0.02081 -0.0123,0.0042 -0.0243,0.0085 -0.0374,0.01341 -0.024,0.0088 -0.0494,0.01976 -0.0751,0.0314 -0.01,0.0042 -0.0194,0.0074 -0.0296,0.01235 -0.002,0.0011 -0.004,0.0025 -0.006,0.0035 -0.0572,0.02716 -0.11712,0.06138 -0.1778,0.102659 -0.006,0.0035 -0.0116,0.0056 -0.0176,0.0099 -0.005,0.0032 -0.01,0.0074 -0.0138,0.01058 -0.0388,0.02752 -0.0776,0.05785 -0.11607,0.09207 -0.005,0.0042 -0.01,0.0067 -0.0141,0.01094 l -0.002,0.0025 c -0.0388,0.03528 -0.0773,0.07303 -0.11465,0.115359 -7.1e-4,0.0011 -10e-4,0.0025 -0.002,0.0035 -0.0716,0.08149 -0.14005,0.1778 -0.20108,0.289984 -7.1e-4,0.0014 -0.002,0.0028 -0.002,0.0042 -0.003,0.006 -0.006,0.01446 -0.009,0.02081 -0.0307,0.05891 -0.0593,0.122767 -0.0854,0.190853 -0.004,0.01058 -0.009,0.0187 -0.0127,0.02928 -0.009,0.02434 -0.0159,0.05186 -0.024,0.07726 -0.01,0.02893 -0.0187,0.0575 -0.0275,0.08819 -0.0113,0.04163 -0.0208,0.08643 -0.0303,0.130881 -0.007,0.03281 -0.0148,0.06385 -0.0205,0.09807 -0.009,0.0515 -0.0152,0.107244 -0.0219,0.162983 -0.003,0.03069 -0.008,0.06032 -0.0109,0.09278 -0.008,0.09031 -0.0123,0.184855 -0.0123,0.285044 3.4e-4,0.0011 0.002,0.0088 0.003,0.01729 3.4e-4,0.0028 -3.4e-4,0.0071 -3.4e-4,0.01094 0,0.0081 -0.001,0.01764 -0.004,0.02752 -0.002,0.0095 -0.005,0.0194 -0.0113,0.02963 -3.5e-4,3.51e-4 -7.2e-4,0.0011 -0.001,0.0014 -0.009,0.01305 -0.0215,0.02611 -0.0402,0.03704 -0.004,0.0028 -0.0187,0.0099 -0.0381,0.0194 -0.0444,0.02152 -0.12383,0.05891 -0.23143,0.11183 -0.002,7.07e-4 -0.003,0.0014 -0.005,0.0021 -0.0459,0.02258 -0.0967,0.04798 -0.15134,0.0755 -0.008,0.0042 -0.0162,0.0085 -0.0251,0.01235 -0.0554,0.02822 -0.115,0.05891 -0.17709,0.09137 -0.0109,0.006 -0.0215,0.01129 -0.0328,0.01729 -0.0642,0.03387 -0.13088,0.06914 -0.19967,0.107245 -0.008,0.0046 -0.0169,0.0095 -0.0251,0.01411 -0.0681,0.03704 -0.13688,0.0762 -0.20744,0.116769 -0.007,0.0039 -0.0127,0.0071 -0.0194,0.01094 -0.0727,0.04233 -0.14605,0.08608 -0.21978,0.131586 -0.012,0.0074 -0.024,0.01482 -0.0363,0.02258 -0.0737,0.04551 -0.14711,0.09243 -0.21978,0.140759 l -0.0282,0.0187 c -0.0289,0.0194 -0.0582,0.03845 -0.0868,0.05856 -0.0198,0.01376 -0.0384,0.02858 -0.0582,0.04269 -0.0483,0.03422 -0.0956,0.06879 -0.14252,0.104069 -0.0339,0.0254 -0.0667,0.05045 -0.0995,0.07655 -0.0466,0.03704 -0.091,0.07444 -0.13441,0.111831 -0.0201,0.01729 -0.0423,0.03387 -0.0617,0.0508 -0.009,0.0085 -0.0159,0.01658 -0.0247,0.02505 -0.0589,0.05397 -0.11324,0.108303 -0.16404,0.163336 -0.012,0.01305 -0.0272,0.02575 -0.0388,0.03881 -0.003,0.0035 -0.005,0.0067 -0.008,0.0099 -0.0138,0.01587 -0.0247,0.03175 -0.0378,0.04762 -0.0275,0.03351 -0.0561,0.06703 -0.08008,0.100189 -0.0063,0.0095 -0.01094,0.0187 -0.01729,0.02787 -0.0095,0.01411 -0.01764,0.02822 -0.02646,0.04269 -0.01235,0.01976 -0.02646,0.03986 -0.03704,0.05962 -0.01411,0.02646 -0.02434,0.05221 -0.03563,0.07796 -0.0042,0.0099 -0.0092,0.01976 -0.01305,0.02928 -0.0018,0.0046 -0.0046,0.0095 -0.0063,0.01376 -0.01976,0.05433 -0.03281,0.107597 -0.03845,0.160514 -0.03034,0.280458 0.09031,0.451203 0.276221,0.55245 l 1.37196,0.746125 c -0.0187,0.03634 -0.0367,0.07161 -0.0568,0.111831 -0.0279,0.05468 -0.0564,0.111125 -0.0871,0.172155 -0.0208,0.04092 -0.0402,0.07937 -0.0621,0.123472 -0.0427,0.08573 -0.0875,0.176742 -0.13371,0.272698 -0.0102,0.02081 -0.0198,0.03951 -0.03,0.06138 -0.0543,0.113594 -0.11042,0.234244 -0.16721,0.358422 -0.0169,0.03845 -0.0342,0.07726 -0.0515,0.116417 -0.0427,0.0956 -0.085,0.193322 -0.12736,0.293511 -0.0183,0.04374 -0.0363,0.08643 -0.0547,0.13088 -0.0497,0.121709 -0.0988,0.245887 -0.1464,0.372181 -0.008,0.02117 -0.0159,0.04092 -0.0236,0.06209 -0.002,0.0049 -0.004,0.0099 -0.006,0.01517 -0.0374,0.102659 -0.0716,0.207786 -0.10654,0.312209 -0.018,0.05397 -0.0381,0.106891 -0.0554,0.161925 -0.0519,0.164394 -0.0998,0.330552 -0.14111,0.496711 -0.007,0.02258 -0.12806,0.402166 0.0116,0.478366 l 1.71944,0.935567 c -0.0183,-0.01023 -0.0317,-0.02575 -0.042,-0.04445 0.0219,0.04057 0.061,0.06456 0.12524,0.05539 l 2.25813,-0.3175 c 0.0325,-0.0042 0.31679,-0.05503 0.51505,-0.453319 0.0159,-0.03105 0.22013,-0.428978 0.40076,-0.78987 l 1.48907,0.810331 c -0.001,-3.44e-4 -0.002,-0.0014 -0.003,-0.0018 0.13406,0.07408 0.254,0.06138 0.27658,0.05821 l 2.25458,-0.316799 c 0.26035,-0.03669 0.10548,-0.493184 0.0974,-0.51682 -0.33126,-1.249186 -1.05517,-2.392186 -1.33104,-2.862791 -0.27305,-0.473428 0.15664,-0.533753 0.17886,-0.536928 z"
         style="display:inline;fill:none;fill-opacity:1;stroke:#000000;stroke-width:0.15029283;stroke-linecap:butt;stroke-linejoin:round;stroke-miterlimit:10;stroke-dasharray:none;stroke-opacity:1"
         id="path17921-3"
         inkscape:connector-curvature="0" />
      <path
         d="m 101.47189,71.331467 c 0.002,-3.43e-4 0.0441,-0.0042 0.11677,-0.01411 0.37748,-0.05292 1.53424,-0.280106 1.45028,-1.060097 -0.031,-0.291042 -0.29915,-0.530578 -0.65581,-0.7239 0.002,7.15e-4 0.004,0.0018 0.005,0.0025 l -0.008,-0.0042 c -7.1e-4,-3.44e-4 -10e-4,-7.14e-4 -0.002,-7.14e-4 l -1.70916,-0.930318 c -0.0392,-0.02117 -0.079,-0.04163 -0.11959,-0.06174 -0.004,-0.0018 -0.008,-0.0035 -0.012,-0.0053 -0.0811,-0.03951 -0.1651,-0.0762 -0.25118,-0.111478 -0.0148,-0.006 -0.0289,-0.01164 -0.0437,-0.01764 -0.0748,-0.638881 -0.34078,-0.945797 -0.61418,-1.087614 0.006,0.0032 0.0113,0.0039 0.0169,0.0071 l -1.71943,-0.935567 c -0.0116,-0.0063 -0.0233,-0.01235 -0.0349,-0.01799 -0.0406,-0.02011 -0.0797,-0.03069 -0.1196,-0.0441 -0.0219,-0.0078 -0.0437,-0.01834 -0.0653,-0.02434 -0.004,-7.06e-4 -0.007,-0.0028 -0.0102,-0.0039 -0.0579,-0.01482 -0.11218,-0.02293 -0.16404,-0.02822 -0.0127,-0.0014 -0.0229,-0.0018 -0.0356,-0.0021 -0.0434,-0.0035 -0.0822,-0.0046 -0.11712,-0.0035 -0.0109,0 -0.0198,0 -0.03,7.05e-4 -0.0374,0.0018 -0.0699,0.0046 -0.0903,0.0074 -0.0208,0.0032 -0.0318,0.0053 -0.0324,0.0053 -3.5e-4,3.52e-4 -0.0109,0.0011 -0.0318,0.0039 -0.0138,0.0018 -0.0325,0.0049 -0.0536,0.0092 -0.006,0.0014 -0.0134,0.0032 -0.0205,0.0046 -0.0173,0.0035 -0.0356,0.0081 -0.0561,0.01376 -0.01,0.0025 -0.0201,0.0053 -0.0311,0.0085 -0.0205,0.006 -0.0413,0.0127 -0.0642,0.02081 -0.0123,0.0042 -0.0243,0.0085 -0.0374,0.01341 -0.024,0.0088 -0.0494,0.01976 -0.0751,0.0314 -0.01,0.0042 -0.0194,0.0074 -0.0296,0.01235 -0.002,0.0011 -0.004,0.0025 -0.006,0.0035 -0.0572,0.02716 -0.11712,0.06138 -0.1778,0.102659 -0.006,0.0035 -0.0116,0.0056 -0.0176,0.0099 -0.005,0.0032 -0.01,0.0074 -0.0138,0.01058 -0.0388,0.02752 -0.0776,0.05785 -0.11607,0.09207 -0.005,0.0042 -0.01,0.0067 -0.0141,0.01094 l -0.002,0.0025 c -0.0388,0.03528 -0.0773,0.07303 -0.11465,0.115359 -7.1e-4,0.0011 -10e-4,0.0025 -0.002,0.0035 -0.0716,0.08149 -0.14005,0.1778 -0.20108,0.289984 -7.1e-4,0.0014 -0.002,0.0028 -0.002,0.0042 -0.003,0.006 -0.006,0.01446 -0.009,0.02081 -0.0307,0.05891 -0.0593,0.122767 -0.0854,0.190853 -0.004,0.01058 -0.009,0.0187 -0.0127,0.02928 -0.009,0.02434 -0.0159,0.05186 -0.024,0.07726 -0.01,0.02893 -0.0187,0.0575 -0.0275,0.08819 -0.0113,0.04163 -0.0208,0.08643 -0.0303,0.130881 -0.007,0.03281 -0.0148,0.06385 -0.0205,0.09807 -0.009,0.0515 -0.0152,0.107244 -0.0219,0.162983 -0.003,0.03069 -0.008,0.06032 -0.0109,0.09278 -0.008,0.09031 -0.0123,0.184855 -0.0123,0.285044 3.4e-4,0.0011 0.002,0.0088 0.003,0.01729 3.4e-4,0.0028 -3.4e-4,0.0071 -3.4e-4,0.01094 0,0.0081 -0.001,0.01764 -0.004,0.02752 -0.002,0.0095 -0.005,0.0194 -0.0113,0.02963 -3.5e-4,3.51e-4 -7.2e-4,0.0011 -0.001,0.0014 -0.009,0.01305 -0.0215,0.02611 -0.0402,0.03704 -0.004,0.0028 -0.0187,0.0099 -0.0381,0.0194 -0.0444,0.02152 -0.12383,0.05891 -0.23143,0.11183 -0.002,7.07e-4 -0.003,0.0014 -0.005,0.0021 -0.0459,0.02258 -0.0967,0.04798 -0.15134,0.0755 -0.008,0.0042 -0.0162,0.0085 -0.0251,0.01235 -0.0554,0.02822 -0.115,0.05891 -0.17709,0.09137 -0.0109,0.006 -0.0215,0.01129 -0.0328,0.01729 -0.0642,0.03387 -0.13088,0.06914 -0.19967,0.107245 -0.008,0.0046 -0.0169,0.0095 -0.0251,0.01411 -0.0681,0.03704 -0.13688,0.0762 -0.20744,0.116769 -0.007,0.0039 -0.0127,0.0071 -0.0194,0.01094 -0.0727,0.04233 -0.14605,0.08608 -0.21978,0.131586 -0.012,0.0074 -0.024,0.01482 -0.0363,0.02258 -0.0737,0.04551 -0.14711,0.09243 -0.21978,0.140759 l -0.0282,0.0187 c -0.0289,0.0194 -0.0582,0.03845 -0.0868,0.05856 -0.0198,0.01376 -0.0384,0.02858 -0.0582,0.04269 -0.0483,0.03422 -0.0956,0.06879 -0.14252,0.104069 -0.0339,0.0254 -0.0667,0.05045 -0.0995,0.07655 -0.0466,0.03704 -0.091,0.07444 -0.13441,0.111831 -0.0201,0.01729 -0.0423,0.03387 -0.0617,0.0508 -0.009,0.0085 -0.0159,0.01658 -0.0247,0.02505 -0.0589,0.05397 -0.11324,0.108303 -0.16404,0.163336 -0.012,0.01305 -0.0272,0.02575 -0.0388,0.03881 -0.003,0.0035 -0.005,0.0067 -0.008,0.0099 -0.0138,0.01587 -0.0247,0.03175 -0.0378,0.04762 -0.0275,0.03351 -0.0561,0.06703 -0.08008,0.100189 -0.0063,0.0095 -0.01094,0.0187 -0.01729,0.02787 -0.0095,0.01411 -0.01764,0.02822 -0.02646,0.04269 -0.01235,0.01976 -0.02646,0.03986 -0.03704,0.05962 -0.01411,0.02646 -0.02434,0.05221 -0.03563,0.07796 -0.0042,0.0099 -0.0092,0.01976 -0.01305,0.02928 -0.0018,0.0046 -0.0046,0.0095 -0.0063,0.01376 -0.01976,0.05433 -0.03281,0.107597 -0.03845,0.160514 -0.03034,0.280458 0.09031,0.451203 0.27622,0.55245 l 1.37196,0.746125 c -0.0187,0.03634 -0.0367,0.07161 -0.0568,0.111831 -0.0279,0.05468 -0.0564,0.111125 -0.0871,0.172155 -0.0208,0.04092 -0.0402,0.07937 -0.0621,0.123472 -0.0427,0.08573 -0.0875,0.176742 -0.13371,0.272698 -0.0102,0.02081 -0.0198,0.03951 -0.03,0.06138 -0.0543,0.113594 -0.11042,0.234244 -0.16721,0.358422 -0.0169,0.03845 -0.0342,0.07726 -0.0515,0.116417 -0.0427,0.0956 -0.085,0.193322 -0.12736,0.293511 -0.0183,0.04374 -0.0363,0.08643 -0.0547,0.13088 -0.0497,0.121709 -0.0988,0.245887 -0.1464,0.372181 -0.008,0.02117 -0.0159,0.04092 -0.0236,0.06209 -0.002,0.0049 -0.004,0.0099 -0.006,0.01517 -0.0374,0.102659 -0.0716,0.207786 -0.10654,0.312209 -0.018,0.05397 -0.0381,0.106891 -0.0554,0.161925 -0.0519,0.164394 -0.0998,0.330552 -0.14111,0.496711 -0.007,0.02258 -0.12806,0.402166 0.0116,0.478366 l 1.71944,0.935567 c -0.0183,-0.01023 -0.0317,-0.02575 -0.042,-0.04445 0.0219,0.04057 0.061,0.06456 0.12524,0.05539 l 2.25813,-0.3175 c 0.0325,-0.0042 0.31679,-0.05503 0.51505,-0.453319 0.0159,-0.03105 0.22013,-0.428978 0.40076,-0.78987 l 1.48907,0.810331 c -0.001,-3.44e-4 -0.002,-0.0014 -0.003,-0.0018 0.13406,0.07408 0.254,0.06138 0.27658,0.05821 l 2.25458,-0.316799 c 0.26035,-0.03669 0.10548,-0.493184 0.0974,-0.51682 -0.33126,-1.249186 -1.05517,-2.392186 -1.33104,-2.862791 -0.27305,-0.473428 0.15664,-0.533753 0.17886,-0.536928 z"
         style="display:inline;fill:#a37f95;fill-opacity:1;stroke:none;stroke-width:0.15029283;stroke-linecap:butt;stroke-linejoin:round;stroke-miterlimit:10;stroke-dasharray:none;stroke-opacity:1"
         id="path17921"
         inkscape:connector-curvature="0" />
      <path
         inkscape:connector-curvature="0"
         id="path20375"
         style="display:inline;fill:#f7c1e1;fill-opacity:1;fill-rule:nonzero;stroke:#000000;stroke-width:0.05206223;stroke-miterlimit:4;stroke-dasharray:none;stroke-opacity:1"
         d="m 98.987552,67.203513 c 0.20179,-0.02822 1.290108,-0.103364 1.286928,1.573389 -10e-4,0.0042 -0.0257,0.08572 0.0508,0.109008 0.079,0.02505 2.62361,0.432858 2.7238,1.367719 0.0811,0.779992 -1.07386,1.006475 -1.45062,1.059392 -0.073,0.01058 -0.11466,0.01376 -0.11677,0.01411 -0.0226,0.0032 -0.45227,0.0635 -0.17886,0.537633 0.27305,0.470606 0.99942,1.6129 1.33103,2.862086 0.008,0.02434 0.16263,0.480484 -0.0998,0.517525 l -2.25531,0.316795 c -0.0356,0.0049 -0.319968,0.03422 -0.513638,-0.309033 -0.024,-0.04022 -0.48436,-0.807156 -0.62759,-1.088673 -0.0282,-0.05398 -0.0621,-0.131586 -0.19509,-0.122061 -0.132643,0.02787 -0.166862,0.115006 -0.195437,0.177095 -0.144286,0.322086 -0.607483,1.218494 -0.632178,1.265766 -0.19438,0.397934 -0.479072,0.448381 -0.51188,0.45332 l -2.257778,0.317147 c -0.26282,0.03704 -0.106186,-0.463197 -0.09807,-0.489303 0.335845,-1.343025 1.067153,-2.690283 1.34232,-3.238147 0.274814,-0.551039 -0.154164,-0.490714 -0.177095,-0.487539 -0.0021,7.15e-4 -0.04374,0.0085 -0.116769,0.01905 -0.376767,0.05256 -1.531408,0.150636 -1.446742,-0.652991 0.103364,-0.96273 2.65042,-2.086327 2.729795,-2.133952 0.07655,-0.04445 0.05221,-0.119592 0.0508,-0.12312 0.0035,-1.676752 1.091847,-1.907822 1.293984,-1.936044 0.0208,-0.0028 0.0314,-0.0035 0.0317,-0.0035 7.2e-4,-3.53e-4 0.0113,-0.0025 0.0325,-0.0056" />
    </g>
  </g>
</svg>
