<?xml version="1.0" encoding="UTF-8" standalone="no"?>
<!-- Created with Inkscape (http://www.inkscape.org/) -->

<svg
   xmlns:dc="http://purl.org/dc/elements/1.1/"
   xmlns:cc="http://creativecommons.org/ns#"
   xmlns:rdf="http://www.w3.org/1999/02/22-rdf-syntax-ns#"
   xmlns:svg="http://www.w3.org/2000/svg"
   xmlns="http://www.w3.org/2000/svg"
   xmlns:sodipodi="http://sodipodi.sourceforge.net/DTD/sodipodi-0.dtd"
   xmlns:inkscape="http://www.inkscape.org/namespaces/inkscape"
   width="8.8180199mm"
   height="8.4507713mm"
   viewBox="0 0 8.8180198 8.4507713"
   version="1.1"
   id="svg87733"
   inkscape:version="0.92.3 (2405546, 2018-03-11)"
   sodipodi:docname="MeepleNormal_yellow_f.svg">
  <defs
     id="defs87727">
    <clipPath
       clipPathUnits="userSpaceOnUse"
       id="clipPath5071">
      <path
         d="m 105.539,198.078 h 24.695 v 24.879 h -24.695 z"
         id="path5069"
         inkscape:connector-curvature="0" />
    </clipPath>
    <clipPath
       clipPathUnits="userSpaceOnUse"
       id="clipPath5081">
      <path
         d="M 0,0 H 576 V 903 H 0 Z"
         id="path5079"
         inkscape:connector-curvature="0" />
    </clipPath>
    <clipPath
       clipPathUnits="userSpaceOnUse"
       id="clipPath5091">
      <path
         d="m 117.777,218.129 h 4.887 v 2.957 h -4.887 z"
         id="path5089"
         inkscape:connector-curvature="0" />
    </clipPath>
    <clipPath
       clipPathUnits="userSpaceOnUse"
       id="clipPath5101">
      <path
         d="M 0,0 H 576 V 903 H 0 Z"
         id="path5099"
         inkscape:connector-curvature="0" />
    </clipPath>
    <clipPath
       clipPathUnits="userSpaceOnUse"
       id="clipPath5111">
      <path
         d="m 117,218 h 6 v 4 h -6 z"
         id="path5109"
         inkscape:connector-curvature="0" />
    </clipPath>
    <clipPath
       clipPathUnits="userSpaceOnUse"
       id="clipPath5117">
      <path
         d="m 122.664,221.086 -4.277,-2.328 c -0.203,-0.113 -0.422,-0.305 -0.61,-0.629 l 4.278,2.324 c 0.183,0.328 0.406,0.52 0.609,0.633"
         id="path5115"
         inkscape:connector-curvature="0" />
    </clipPath>
    <clipPath
       clipPathUnits="userSpaceOnUse"
       id="clipPath5127">
      <path
         d="M 0,0 H 576 V 903 H 0 Z"
         id="path5125"
         inkscape:connector-curvature="0" />
    </clipPath>
    <clipPath
       clipPathUnits="userSpaceOnUse"
       id="clipPath5137">
      <path
         d="m 117.777,218.129 h 4.887 v 2.957 h -4.887 z"
         id="path5135"
         inkscape:connector-curvature="0" />
    </clipPath>
    <clipPath
       clipPathUnits="userSpaceOnUse"
       id="clipPath5147">
      <path
         d="M 0,0 H 576 V 903 H 0 Z"
         id="path5145"
         inkscape:connector-curvature="0" />
    </clipPath>
    <clipPath
       clipPathUnits="userSpaceOnUse"
       id="clipPath5159">
      <path
         d="m 116.215,215.418 h 5.84 v 5.035 h -5.84 z"
         id="path5157"
         inkscape:connector-curvature="0" />
    </clipPath>
    <clipPath
       clipPathUnits="userSpaceOnUse"
       id="clipPath5169">
      <path
         d="M 0,0 H 576 V 903 H 0 Z"
         id="path5167"
         inkscape:connector-curvature="0" />
    </clipPath>
    <clipPath
       clipPathUnits="userSpaceOnUse"
       id="clipPath5179">
      <path
         d="m 116,215 h 7 v 6 h -7 z"
         id="path5177"
         inkscape:connector-curvature="0" />
    </clipPath>
    <clipPath
       clipPathUnits="userSpaceOnUse"
       id="clipPath5185">
      <path
         d="m 122.055,220.453 -4.278,-2.324 c -0.058,-0.102 -1.203,-2.012 -1.562,-2.711 l 4.273,2.324 c 0.364,0.703 1.508,2.613 1.567,2.711"
         id="path5183"
         inkscape:connector-curvature="0" />
    </clipPath>
    <clipPath
       clipPathUnits="userSpaceOnUse"
       id="clipPath5195">
      <path
         d="M 0,0 H 576 V 903 H 0 Z"
         id="path5193"
         inkscape:connector-curvature="0" />
    </clipPath>
    <clipPath
       clipPathUnits="userSpaceOnUse"
       id="clipPath5205">
      <path
         d="m 116.215,215.418 h 5.84 v 5.035 h -5.84 z"
         id="path5203"
         inkscape:connector-curvature="0" />
    </clipPath>
    <clipPath
       clipPathUnits="userSpaceOnUse"
       id="clipPath5215">
      <path
         d="M 0,0 H 576 V 903 H 0 Z"
         id="path5213"
         inkscape:connector-curvature="0" />
    </clipPath>
    <clipPath
       clipPathUnits="userSpaceOnUse"
       id="clipPath5227">
      <path
         d="m 116.004,215.16 h 4.484 v 2.582 h -4.484 z"
         id="path5225"
         inkscape:connector-curvature="0" />
    </clipPath>
    <clipPath
       clipPathUnits="userSpaceOnUse"
       id="clipPath5237">
      <path
         d="M 0,0 H 576 V 903 H 0 Z"
         id="path5235"
         inkscape:connector-curvature="0" />
    </clipPath>
    <clipPath
       clipPathUnits="userSpaceOnUse"
       id="clipPath5247">
      <path
         d="m 116,215 h 5 v 3 h -5 z"
         id="path5245"
         inkscape:connector-curvature="0" />
    </clipPath>
    <clipPath
       clipPathUnits="userSpaceOnUse"
       id="clipPath5253">
      <path
         d="m 116.004,215.16 4.273,2.328 c 0.118,0.063 0.168,0.172 0.211,0.254 l -4.273,-2.324 c -0.047,-0.082 -0.098,-0.191 -0.211,-0.258"
         id="path5251"
         inkscape:connector-curvature="0" />
    </clipPath>
    <clipPath
       clipPathUnits="userSpaceOnUse"
       id="clipPath5263">
      <path
         d="M 0,0 H 576 V 903 H 0 Z"
         id="path5261"
         inkscape:connector-curvature="0" />
    </clipPath>
    <clipPath
       clipPathUnits="userSpaceOnUse"
       id="clipPath5273">
      <path
         d="m 116.004,215.16 h 4.484 v 2.582 h -4.484 z"
         id="path5271"
         inkscape:connector-curvature="0" />
    </clipPath>
    <clipPath
       clipPathUnits="userSpaceOnUse"
       id="clipPath5283">
      <path
         d="M 0,0 H 576 V 903 H 0 Z"
         id="path5281"
         inkscape:connector-curvature="0" />
    </clipPath>
    <clipPath
       clipPathUnits="userSpaceOnUse"
       id="clipPath5295">
      <path
         d="m 119.172,202.297 h 9.434 v 3.934 h -9.434 z"
         id="path5293"
         inkscape:connector-curvature="0" />
    </clipPath>
    <clipPath
       clipPathUnits="userSpaceOnUse"
       id="clipPath5305">
      <path
         d="M 0,0 H 576 V 903 H 0 Z"
         id="path5303"
         inkscape:connector-curvature="0" />
    </clipPath>
    <clipPath
       clipPathUnits="userSpaceOnUse"
       id="clipPath5315">
      <path
         d="m 119,202 h 10 v 5 h -10 z"
         id="path5313"
         inkscape:connector-curvature="0" />
    </clipPath>
    <clipPath
       clipPathUnits="userSpaceOnUse"
       id="clipPath5321">
      <path
         d="m 124.328,203.902 4.277,2.328 c -1.96,-1.07 -5.027,-1.57 -5.16,-1.609 l -4.273,-2.324 c 0.133,0.039 3.191,0.539 5.156,1.605"
         id="path5319"
         inkscape:connector-curvature="0" />
    </clipPath>
    <clipPath
       clipPathUnits="userSpaceOnUse"
       id="clipPath5331">
      <path
         d="M 0,0 H 576 V 903 H 0 Z"
         id="path5329"
         inkscape:connector-curvature="0" />
    </clipPath>
    <clipPath
       clipPathUnits="userSpaceOnUse"
       id="clipPath5341">
      <path
         d="m 119.172,202.297 h 9.434 v 3.934 h -9.434 z"
         id="path5339"
         inkscape:connector-curvature="0" />
    </clipPath>
    <clipPath
       clipPathUnits="userSpaceOnUse"
       id="clipPath5351">
      <path
         d="M 0,0 H 576 V 903 H 0 Z"
         id="path5349"
         inkscape:connector-curvature="0" />
    </clipPath>
    <clipPath
       clipPathUnits="userSpaceOnUse"
       id="clipPath5369">
      <path
         d="m 119.133,202.277 h 4.313 v 2.344 h -4.313 z"
         id="path5367"
         inkscape:connector-curvature="0" />
    </clipPath>
    <clipPath
       clipPathUnits="userSpaceOnUse"
       id="clipPath5379">
      <path
         d="M 0,0 H 576 V 903 H 0 Z"
         id="path5377"
         inkscape:connector-curvature="0" />
    </clipPath>
    <clipPath
       clipPathUnits="userSpaceOnUse"
       id="clipPath5389">
      <path
         d="m 119,202 h 5 v 3 h -5 z"
         id="path5387"
         inkscape:connector-curvature="0" />
    </clipPath>
    <clipPath
       clipPathUnits="userSpaceOnUse"
       id="clipPath5395">
      <path
         d="m 123.406,204.605 -4.273,-2.328 c 0.012,0.008 0.023,0.012 0.039,0.02 l 4.273,2.324 c -0.011,-0.004 -0.027,-0.012 -0.039,-0.016"
         id="path5393"
         inkscape:connector-curvature="0" />
    </clipPath>
    <clipPath
       clipPathUnits="userSpaceOnUse"
       id="clipPath5405">
      <path
         d="M 0,0 H 576 V 903 H 0 Z"
         id="path5403"
         inkscape:connector-curvature="0" />
    </clipPath>
    <clipPath
       clipPathUnits="userSpaceOnUse"
       id="clipPath5415">
      <path
         d="m 119.133,202.277 h 4.313 v 2.344 h -4.313 z"
         id="path5413"
         inkscape:connector-curvature="0" />
    </clipPath>
    <clipPath
       clipPathUnits="userSpaceOnUse"
       id="clipPath5425">
      <path
         d="M 0,0 H 576 V 903 H 0 Z"
         id="path5423"
         inkscape:connector-curvature="0" />
    </clipPath>
    <clipPath
       clipPathUnits="userSpaceOnUse"
       id="clipPath5439">
      <path
         d="m 106.406,219.395 h 4.445 v 3.531 h -4.445 z"
         id="path5437"
         inkscape:connector-curvature="0" />
    </clipPath>
    <clipPath
       clipPathUnits="userSpaceOnUse"
       id="clipPath5449">
      <path
         d="M 0,0 H 576 V 903 H 0 Z"
         id="path5447"
         inkscape:connector-curvature="0" />
    </clipPath>
    <clipPath
       clipPathUnits="userSpaceOnUse"
       id="clipPath5459">
      <path
         d="m 106,219 h 5 v 4 h -5 z"
         id="path5457"
         inkscape:connector-curvature="0" />
    </clipPath>
    <clipPath
       clipPathUnits="userSpaceOnUse"
       id="clipPath5465">
      <path
         d="m 110.852,222.926 -4.278,-2.328 c -0.347,-0.192 -0.051,-1.145 -0.031,-1.203 l 4.273,2.328 c -0.015,0.054 -0.312,1.011 0.036,1.203"
         id="path5463"
         inkscape:connector-curvature="0" />
    </clipPath>
    <clipPath
       clipPathUnits="userSpaceOnUse"
       id="clipPath5475">
      <path
         d="M 0,0 H 576 V 903 H 0 Z"
         id="path5473"
         inkscape:connector-curvature="0" />
    </clipPath>
    <clipPath
       clipPathUnits="userSpaceOnUse"
       id="clipPath5485">
      <path
         d="m 106.406,219.395 h 4.445 v 3.531 h -4.445 z"
         id="path5483"
         inkscape:connector-curvature="0" />
    </clipPath>
    <clipPath
       clipPathUnits="userSpaceOnUse"
       id="clipPath5495">
      <path
         d="M 0,0 H 576 V 903 H 0 Z"
         id="path5493"
         inkscape:connector-curvature="0" />
    </clipPath>
    <clipPath
       clipPathUnits="userSpaceOnUse"
       id="clipPath5507">
      <path
         d="m 106.543,210.199 h 7.844 v 11.523 h -7.844 z"
         id="path5505"
         inkscape:connector-curvature="0" />
    </clipPath>
    <clipPath
       clipPathUnits="userSpaceOnUse"
       id="clipPath5517">
      <path
         d="M 0,0 H 576 V 903 H 0 Z"
         id="path5515"
         inkscape:connector-curvature="0" />
    </clipPath>
    <clipPath
       clipPathUnits="userSpaceOnUse"
       id="clipPath5527">
      <path
         d="m 106,210 h 9 v 12 h -9 z"
         id="path5525"
         inkscape:connector-curvature="0" />
    </clipPath>
    <clipPath
       clipPathUnits="userSpaceOnUse"
       id="clipPath5533">
      <path
         d="m 109.895,210.199 4.277,2.328 c 0.215,0.118 0.351,0.411 -0.016,1.145 -0.691,1.367 -2.508,4.719 -3.34,8.051 l -4.273,-2.328 c 0.828,-3.332 2.645,-6.68 3.336,-8.047 0.367,-0.735 0.23,-1.032 0.016,-1.149"
         id="path5531"
         inkscape:connector-curvature="0" />
    </clipPath>
    <clipPath
       clipPathUnits="userSpaceOnUse"
       id="clipPath5543">
      <path
         d="M 0,0 H 576 V 903 H 0 Z"
         id="path5541"
         inkscape:connector-curvature="0" />
    </clipPath>
    <clipPath
       clipPathUnits="userSpaceOnUse"
       id="clipPath5553">
      <path
         d="m 106.543,210.199 h 7.844 v 11.523 h -7.844 z"
         id="path5551"
         inkscape:connector-curvature="0" />
    </clipPath>
    <clipPath
       clipPathUnits="userSpaceOnUse"
       id="clipPath5563">
      <path
         d="M 0,0 H 576 V 903 H 0 Z"
         id="path5561"
         inkscape:connector-curvature="0" />
    </clipPath>
    <clipPath
       clipPathUnits="userSpaceOnUse"
       id="clipPath5579">
      <path
         d="m 115.84,198.078 h 5.934 v 2.641 h -5.934 z"
         id="path5577"
         inkscape:connector-curvature="0" />
    </clipPath>
    <clipPath
       clipPathUnits="userSpaceOnUse"
       id="clipPath5589">
      <path
         d="M 0,0 H 576 V 903 H 0 Z"
         id="path5587"
         inkscape:connector-curvature="0" />
    </clipPath>
    <clipPath
       clipPathUnits="userSpaceOnUse"
       id="clipPath5599">
      <path
         d="m 115,198 h 7 v 3 h -7 z"
         id="path5597"
         inkscape:connector-curvature="0" />
    </clipPath>
    <clipPath
       clipPathUnits="userSpaceOnUse"
       id="clipPath5605">
      <path
         d="m 117.496,198.391 4.277,2.328 c -0.703,-0.383 -1.425,-0.324 -1.656,-0.289 l -4.277,-2.328 c 0.23,-0.032 0.957,-0.09 1.656,0.289"
         id="path5603"
         inkscape:connector-curvature="0" />
    </clipPath>
    <clipPath
       clipPathUnits="userSpaceOnUse"
       id="clipPath5615">
      <path
         d="M 0,0 H 576 V 903 H 0 Z"
         id="path5613"
         inkscape:connector-curvature="0" />
    </clipPath>
    <clipPath
       clipPathUnits="userSpaceOnUse"
       id="clipPath5625">
      <path
         d="m 115.84,198.078 h 5.934 v 2.641 h -5.934 z"
         id="path5623"
         inkscape:connector-curvature="0" />
    </clipPath>
    <clipPath
       clipPathUnits="userSpaceOnUse"
       id="clipPath5635">
      <path
         d="M 0,0 H 576 V 903 H 0 Z"
         id="path5633"
         inkscape:connector-curvature="0" />
    </clipPath>
    <clipPath
       clipPathUnits="userSpaceOnUse"
       id="clipPath5651">
      <path
         d="m 115.766,198.102 h 4.352 v 2.34 h -4.352 z"
         id="path5649"
         inkscape:connector-curvature="0" />
    </clipPath>
    <clipPath
       clipPathUnits="userSpaceOnUse"
       id="clipPath5661">
      <path
         d="M 0,0 H 576 V 903 H 0 Z"
         id="path5659"
         inkscape:connector-curvature="0" />
    </clipPath>
    <clipPath
       clipPathUnits="userSpaceOnUse"
       id="clipPath5671">
      <path
         d="m 115,198 h 6 v 3 h -6 z"
         id="path5669"
         inkscape:connector-curvature="0" />
    </clipPath>
    <clipPath
       clipPathUnits="userSpaceOnUse"
       id="clipPath5677">
      <path
         d="m 120.043,200.441 -4.277,-2.328 c 0.004,0 0.027,-0.004 0.074,-0.011 l 4.277,2.328 c -0.047,0.008 -0.074,0.011 -0.074,0.011"
         id="path5675"
         inkscape:connector-curvature="0" />
    </clipPath>
    <clipPath
       clipPathUnits="userSpaceOnUse"
       id="clipPath5687">
      <path
         d="M 0,0 H 576 V 903 H 0 Z"
         id="path5685"
         inkscape:connector-curvature="0" />
    </clipPath>
    <clipPath
       clipPathUnits="userSpaceOnUse"
       id="clipPath5697">
      <path
         d="m 115.766,198.102 h 4.352 v 2.34 h -4.352 z"
         id="path5695"
         inkscape:connector-curvature="0" />
    </clipPath>
    <clipPath
       clipPathUnits="userSpaceOnUse"
       id="clipPath5707">
      <path
         d="M 0,0 H 576 V 903 H 0 Z"
         id="path5705"
         inkscape:connector-curvature="0" />
    </clipPath>
    <clipPath
       clipPathUnits="userSpaceOnUse"
       id="clipPath5719">
      <path
         d="m 112.469,198.113 h 7.574 v 7.156 h -7.574 z"
         id="path5717"
         inkscape:connector-curvature="0" />
    </clipPath>
    <clipPath
       clipPathUnits="userSpaceOnUse"
       id="clipPath5729">
      <path
         d="M 0,0 H 576 V 903 H 0 Z"
         id="path5727"
         inkscape:connector-curvature="0" />
    </clipPath>
    <clipPath
       clipPathUnits="userSpaceOnUse"
       id="clipPath5739">
      <path
         d="m 112,198 h 9 v 8 h -9 z"
         id="path5737"
         inkscape:connector-curvature="0" />
    </clipPath>
    <clipPath
       clipPathUnits="userSpaceOnUse"
       id="clipPath5745">
      <path
         d="m 116.742,205.27 -4.273,-2.329 c 0.008,-4.179 2.734,-4.75 3.222,-4.82 0.047,-0.004 0.075,-0.008 0.075,-0.008 l 4.277,2.328 c -0.004,0 -0.027,0 -0.074,0.008 -0.489,0.071 -3.219,0.641 -3.227,4.821"
         id="path5743"
         inkscape:connector-curvature="0" />
    </clipPath>
    <clipPath
       clipPathUnits="userSpaceOnUse"
       id="clipPath5755">
      <path
         d="M 0,0 H 576 V 903 H 0 Z"
         id="path5753"
         inkscape:connector-curvature="0" />
    </clipPath>
    <clipPath
       clipPathUnits="userSpaceOnUse"
       id="clipPath5765">
      <path
         d="m 112.469,198.113 h 7.574 v 7.156 h -7.574 z"
         id="path5763"
         inkscape:connector-curvature="0" />
    </clipPath>
    <clipPath
       clipPathUnits="userSpaceOnUse"
       id="clipPath5775">
      <path
         d="M 0,0 H 576 V 903 H 0 Z"
         id="path5773"
         inkscape:connector-curvature="0" />
    </clipPath>
    <clipPath
       clipPathUnits="userSpaceOnUse"
       id="clipPath5805">
      <path
         d="m 105.539,202.941 h 11.215 v 9.316 h -11.215 z"
         id="path5803"
         inkscape:connector-curvature="0" />
    </clipPath>
    <clipPath
       clipPathUnits="userSpaceOnUse"
       id="clipPath5815">
      <path
         d="M 0,0 H 576 V 903 H 0 Z"
         id="path5813"
         inkscape:connector-curvature="0" />
    </clipPath>
    <clipPath
       clipPathUnits="userSpaceOnUse"
       id="clipPath5825">
      <path
         d="m 105,202 h 12 v 11 h -12 z"
         id="path5823"
         inkscape:connector-curvature="0" />
    </clipPath>
    <clipPath
       clipPathUnits="userSpaceOnUse"
       id="clipPath5831">
      <path
         d="m 110.516,212.258 -4.278,-2.324 c -0.461,-0.254 -0.761,-0.68 -0.683,-1.375 0.25,-2.387 6.59,-5.192 6.781,-5.301 0.191,-0.113 0.133,-0.305 0.133,-0.317 l 4.273,2.329 c 0.004,0.011 0.063,0.199 -0.129,0.312 -0.191,0.113 -6.531,2.914 -6.785,5.301 -0.074,0.699 0.227,1.125 0.688,1.375"
         id="path5829"
         inkscape:connector-curvature="0" />
    </clipPath>
    <clipPath
       clipPathUnits="userSpaceOnUse"
       id="clipPath5841">
      <path
         d="M 0,0 H 576 V 903 H 0 Z"
         id="path5839"
         inkscape:connector-curvature="0" />
    </clipPath>
    <clipPath
       clipPathUnits="userSpaceOnUse"
       id="clipPath5851">
      <path
         d="m 105.539,202.941 h 11.215 v 9.316 h -11.215 z"
         id="path5849"
         inkscape:connector-curvature="0" />
    </clipPath>
    <clipPath
       clipPathUnits="userSpaceOnUse"
       id="clipPath5861">
      <path
         d="M 0,0 H 576 V 903 H 0 Z"
         id="path5859"
         inkscape:connector-curvature="0" />
    </clipPath>
  </defs>
  <sodipodi:namedview
     id="base"
     pagecolor="#ffffff"
     bordercolor="#666666"
     borderopacity="1.0"
     inkscape:pageopacity="0.0"
     inkscape:pageshadow="2"
     inkscape:zoom="22.4"
     inkscape:cx="-8.8497263"
     inkscape:cy="17.596677"
     inkscape:document-units="mm"
     inkscape:current-layer="layer1"
     showgrid="false"
     inkscape:window-width="1920"
     inkscape:window-height="1017"
     inkscape:window-x="-8"
     inkscape:window-y="-8"
     inkscape:window-maximized="1" />
  <metadata
     id="metadata87730">
    <rdf:RDF>
      <cc:Work
         rdf:about="">
        <dc:format>image/svg+xml</dc:format>
        <dc:type
           rdf:resource="http://purl.org/dc/dcmitype/StillImage" />
        <dc:title />
      </cc:Work>
    </rdf:RDF>
  </metadata>
  <g
     inkscape:label="Ebene 1"
     inkscape:groupmode="layer"
     id="layer1"
     transform="translate(-11.057315,-49.706498)">
    <g
       id="g5795"
       transform="matrix(-0.35081352,0,0,0.33375198,56.831521,-16.334144)"
       style="fill:#ffde17;fill-opacity:1;stroke:#000000;stroke-width:0.15489087;stroke-miterlimit:4;stroke-dasharray:none;stroke-opacity:1"
       inkscape:label="MeepleNormal_yellow">
      <path
         d="m 126.351,210.706 c 0.004,0 0.106,-0.007 0.285,-0.031 0.93,-0.133 3.821,-0.699 3.61,-2.64 -0.074,-0.723 -0.742,-1.317 -1.625,-1.797 0,0 0.008,0.004 0.012,0.004 l -0.02,-0.008 c -0.004,-0.004 -0.008,-0.004 -0.008,-0.004 l -4.25,-2.313 c -0.097,-0.054 -0.195,-0.105 -0.297,-0.152 -0.015,-0.008 -0.031,-0.016 -0.047,-0.023 -0.187,-0.09 -0.386,-0.18 -0.589,-0.262 -0.043,-0.016 -0.086,-0.035 -0.129,-0.051 -0.184,-1.598 -0.852,-2.363 -1.539,-2.715 0.019,0.008 0.035,0.012 0.05,0.02 l -4.277,-2.324 c -0.027,-0.016 -0.058,-0.032 -0.086,-0.047 -0.101,-0.051 -0.203,-0.078 -0.305,-0.11 -0.05,-0.019 -0.105,-0.047 -0.156,-0.062 -0.011,0 -0.019,-0.004 -0.027,-0.008 -0.145,-0.039 -0.281,-0.059 -0.41,-0.07 -0.035,-0.004 -0.063,-0.004 -0.094,-0.008 -0.105,-0.008 -0.199,-0.008 -0.285,-0.008 -0.028,0 -0.055,0 -0.082,0.004 -0.09,0.004 -0.168,0.012 -0.219,0.016 -0.047,0.007 -0.07,0.015 -0.074,0.015 0,0 -0.024,0 -0.074,0.008 -0.032,0.004 -0.079,0.012 -0.129,0.02 -0.016,0.007 -0.035,0.011 -0.051,0.015 -0.043,0.008 -0.09,0.016 -0.141,0.031 -0.023,0.008 -0.047,0.016 -0.07,0.02 -0.055,0.016 -0.113,0.035 -0.172,0.055 -0.027,0.011 -0.055,0.019 -0.078,0.031 -0.074,0.027 -0.148,0.055 -0.227,0.09 -0.015,0.008 -0.027,0.015 -0.046,0.023 0,0 -0.004,0.004 -0.008,0.004 -0.145,0.07 -0.301,0.156 -0.457,0.262 -0.012,0.008 -0.024,0.012 -0.039,0.023 -0.008,0.004 -0.016,0.016 -0.024,0.02 -0.113,0.078 -0.222,0.16 -0.332,0.258 l -0.004,0.007 c -0.097,0.086 -0.195,0.184 -0.289,0.289 0,0 0,0.004 -0.004,0.004 -0.023,0.024 -0.043,0.059 -0.066,0.086 -0.156,0.188 -0.305,0.399 -0.442,0.645 0,0.004 -0.003,0.008 -0.003,0.012 -0.008,0.015 -0.012,0.031 -0.02,0.046 -0.078,0.149 -0.152,0.313 -0.219,0.489 -0.008,0.023 -0.019,0.039 -0.031,0.066 -0.019,0.051 -0.035,0.113 -0.051,0.172 -0.027,0.078 -0.051,0.156 -0.074,0.238 -0.027,0.102 -0.051,0.211 -0.074,0.317 -0.02,0.082 -0.039,0.164 -0.055,0.25 -0.023,0.129 -0.035,0.265 -0.055,0.406 -0.007,0.078 -0.019,0.148 -0.027,0.23 -0.019,0.223 -0.031,0.461 -0.031,0.711 0.004,0 0.004,0.02 0.008,0.043 0,0.008 0,0.016 0,0.024 0,0.023 -0.004,0.047 -0.008,0.07 -0.008,0.027 -0.016,0.051 -0.031,0.078 -0.024,0.035 -0.055,0.067 -0.102,0.094 -0.016,0.008 -0.062,0.035 -0.129,0.066 -0.07,0.032 -0.172,0.082 -0.289,0.141 -0.019,0.004 -0.031,0.012 -0.051,0.023 -0.105,0.051 -0.222,0.106 -0.355,0.172 -0.039,0.02 -0.078,0.039 -0.121,0.059 -0.125,0.066 -0.262,0.137 -0.41,0.211 -0.047,0.023 -0.09,0.047 -0.137,0.074 -0.176,0.09 -0.356,0.184 -0.543,0.289 -0.027,0.012 -0.051,0.024 -0.074,0.039 -0.219,0.117 -0.446,0.246 -0.676,0.379 -0.027,0.016 -0.051,0.031 -0.078,0.047 -0.196,0.113 -0.395,0.234 -0.59,0.355 -0.07,0.047 -0.137,0.09 -0.207,0.133 -0.156,0.098 -0.309,0.203 -0.465,0.305 -0.035,0.027 -0.074,0.051 -0.113,0.078 -0.047,0.031 -0.086,0.063 -0.129,0.094 -0.129,0.09 -0.25,0.179 -0.375,0.269 -0.082,0.063 -0.164,0.125 -0.242,0.188 -0.118,0.094 -0.227,0.187 -0.336,0.281 -0.051,0.043 -0.106,0.086 -0.157,0.129 -0.019,0.019 -0.039,0.039 -0.058,0.059 -0.156,0.144 -0.297,0.285 -0.43,0.429 -0.023,0.024 -0.054,0.051 -0.078,0.074 -0.004,0.008 -0.008,0.012 -0.012,0.02 -0.039,0.043 -0.07,0.09 -0.109,0.133 -0.066,0.082 -0.133,0.16 -0.191,0.242 -0.012,0.02 -0.024,0.039 -0.039,0.062 -0.024,0.036 -0.047,0.075 -0.071,0.11 -0.027,0.051 -0.062,0.101 -0.09,0.148 -0.031,0.063 -0.058,0.125 -0.082,0.184 -0.011,0.027 -0.027,0.055 -0.039,0.082 -0.004,0.012 -0.011,0.023 -0.015,0.035 -0.047,0.133 -0.082,0.262 -0.094,0.395 -0.074,0.695 0.22599,1.121 0.687,1.371 l 3.41399,1.859 c -0.039,0.074 -0.074,0.145 -0.113,0.227 -0.082,0.156 -0.168,0.324 -0.258,0.504 l -0.136,0.277 c -0.11,0.215 -0.223,0.449 -0.344,0.695 -0.024,0.047 -0.043,0.09 -0.07,0.141 -0.137,0.289 -0.278,0.59 -0.418,0.902 -0.043,0.094 -0.082,0.184 -0.125,0.278 -0.106,0.238 -0.215,0.484 -0.321,0.734 -0.047,0.113 -0.093,0.223 -0.14,0.336 -0.114,0.285 -0.231,0.574 -0.34,0.867 -0.028,0.074 -0.055,0.141 -0.082,0.215 -0.008,0.019 -0.016,0.039 -0.024,0.055 -0.082,0.23 -0.156,0.46 -0.234,0.691 -0.055,0.156 -0.109,0.309 -0.16,0.465 -0.129,0.406 -0.246,0.812 -0.348,1.219 -0.019,0.058 -0.308,1.011 0.039,1.203 l 4.278,2.324 c -0.047,-0.024 -0.082,-0.063 -0.106,-0.113 0.055,0.105 0.152,0.164 0.313,0.144 l 5.613,-0.789 c 0.07,-0.012 0.785,-0.137 1.277,-1.133 0.039,-0.078 0.547,-1.066 0.996,-1.965 l 3.711,2.02 c 0,0 -0.004,-0.004 -0.004,-0.004 0.332,0.184 0.629,0.152 0.676,0.145 l 5.613,-0.789 c 0.65292,-0.094 0.26592,-1.23503 0.24692,-1.29703 -0.821,-3.102 -2.633,-5.942 -3.313,-7.114 -0.676,-1.179 0.387,-1.328 0.445,-1.336 z"
         style="display:inline;fill:none;fill-opacity:1;stroke:#000000;stroke-width:0.44713774;stroke-linecap:butt;stroke-linejoin:round;stroke-miterlimit:4;stroke-dasharray:none;stroke-opacity:1"
         id="path5063"
         inkscape:connector-curvature="0" />
      <path
         d="m 126.35109,210.70603 c 0.004,0 0.106,-0.007 0.285,-0.031 0.93,-0.133 3.821,-0.699 3.61,-2.64 -0.074,-0.723 -0.742,-1.317 -1.625,-1.797 0,0 0.008,0.004 0.012,0.004 l -0.02,-0.008 c -0.004,-0.004 -0.008,-0.004 -0.008,-0.004 l -4.25,-2.313 c -0.097,-0.054 -0.195,-0.105 -0.297,-0.152 -0.015,-0.008 -0.031,-0.016 -0.047,-0.023 -0.187,-0.09 -0.386,-0.18 -0.589,-0.262 -0.043,-0.016 -0.086,-0.035 -0.129,-0.051 -0.184,-1.598 -0.852,-2.363 -1.539,-2.715 0.019,0.008 0.035,0.012 0.05,0.02 l -4.277,-2.324 c -0.027,-0.016 -0.058,-0.032 -0.086,-0.047 -0.101,-0.051 -0.203,-0.078 -0.305,-0.11 -0.05,-0.019 -0.105,-0.047 -0.156,-0.062 -0.011,0 -0.019,-0.004 -0.027,-0.008 -0.145,-0.039 -0.281,-0.059 -0.41,-0.07 -0.035,-0.004 -0.063,-0.004 -0.094,-0.008 -0.105,-0.008 -0.199,-0.008 -0.285,-0.008 -0.028,0 -0.055,0 -0.082,0.004 -0.09,0.004 -0.168,0.012 -0.219,0.016 -0.047,0.007 -0.07,0.015 -0.074,0.015 0,0 -0.024,0 -0.074,0.008 -0.032,0.004 -0.079,0.012 -0.129,0.02 -0.016,0.007 -0.035,0.011 -0.051,0.015 -0.043,0.008 -0.09,0.016 -0.141,0.031 -0.023,0.008 -0.047,0.016 -0.07,0.02 -0.055,0.016 -0.113,0.035 -0.172,0.055 -0.027,0.011 -0.055,0.019 -0.078,0.031 -0.074,0.027 -0.148,0.055 -0.227,0.09 -0.015,0.008 -0.027,0.015 -0.046,0.023 0,0 -0.004,0.004 -0.008,0.004 -0.145,0.07 -0.301,0.156 -0.457,0.262 -0.012,0.008 -0.024,0.012 -0.039,0.023 -0.008,0.004 -0.016,0.016 -0.024,0.02 -0.113,0.078 -0.222,0.16 -0.332,0.258 l -0.004,0.007 c -0.097,0.086 -0.195,0.184 -0.289,0.289 0,0 0,0.004 -0.004,0.004 -0.023,0.024 -0.043,0.059 -0.066,0.086 -0.156,0.188 -0.305,0.399 -0.442,0.645 0,0.004 -0.003,0.008 -0.003,0.012 -0.008,0.015 -0.012,0.031 -0.02,0.046 -0.078,0.149 -0.152,0.313 -0.219,0.489 -0.008,0.023 -0.019,0.039 -0.031,0.066 -0.019,0.051 -0.035,0.113 -0.051,0.172 -0.027,0.078 -0.051,0.156 -0.074,0.238 -0.027,0.102 -0.051,0.211 -0.074,0.317 -0.02,0.082 -0.039,0.164 -0.055,0.25 -0.023,0.129 -0.035,0.265 -0.055,0.406 -0.007,0.078 -0.019,0.148 -0.027,0.23 -0.019,0.223 -0.031,0.461 -0.031,0.711 0.004,0 0.004,0.02 0.008,0.043 0,0.008 0,0.016 0,0.024 0,0.023 -0.004,0.047 -0.008,0.07 -0.008,0.027 -0.016,0.051 -0.031,0.078 -0.024,0.035 -0.055,0.067 -0.102,0.094 -0.016,0.008 -0.062,0.035 -0.129,0.066 -0.07,0.032 -0.172,0.082 -0.289,0.141 -0.019,0.004 -0.031,0.012 -0.051,0.023 -0.105,0.051 -0.222,0.106 -0.355,0.172 -0.039,0.02 -0.078,0.039 -0.121,0.059 -0.125,0.066 -0.262,0.137 -0.41,0.211 -0.047,0.023 -0.09,0.047 -0.137,0.074 -0.176,0.09 -0.356,0.184 -0.543,0.289 -0.027,0.012 -0.051,0.024 -0.074,0.039 -0.219,0.117 -0.446,0.246 -0.676,0.379 -0.027,0.016 -0.051,0.031 -0.078,0.047 -0.196,0.113 -0.395,0.234 -0.59,0.355 -0.07,0.047 -0.137,0.09 -0.207,0.133 -0.156,0.098 -0.309,0.203 -0.465,0.305 -0.035,0.027 -0.074,0.051 -0.113,0.078 -0.047,0.031 -0.086,0.063 -0.129,0.094 -0.129,0.09 -0.25,0.179 -0.375,0.269 -0.082,0.063 -0.164,0.125 -0.242,0.188 -0.118,0.094 -0.227,0.187 -0.336,0.281 -0.051,0.043 -0.106,0.086 -0.157,0.129 -0.019,0.019 -0.039,0.039 -0.058,0.059 -0.156,0.144 -0.297,0.285 -0.43,0.429 -0.023,0.024 -0.054,0.051 -0.078,0.074 -0.004,0.008 -0.008,0.012 -0.012,0.02 -0.039,0.043 -0.07,0.09 -0.109,0.133 -0.066,0.082 -0.133,0.16 -0.191,0.242 -0.012,0.02 -0.024,0.039 -0.039,0.062 -0.024,0.036 -0.047,0.075 -0.071,0.11 -0.027,0.051 -0.062,0.101 -0.09,0.148 -0.031,0.063 -0.058,0.125 -0.082,0.184 -0.011,0.027 -0.027,0.055 -0.039,0.082 -0.004,0.012 -0.011,0.023 -0.015,0.035 -0.047,0.133 -0.082,0.262 -0.094,0.395 -0.074,0.695 0.22599,1.121 0.687,1.371 l 3.41398,1.859 c -0.039,0.074 -0.074,0.145 -0.11299,0.227 -0.082,0.156 -0.168,0.324 -0.258,0.504 l -0.13601,0.277 c -0.10999,0.215 -0.223,0.449 -0.34399,0.695 -0.024,0.047 -0.043,0.09 -0.07,0.141 -0.137,0.289 -0.278,0.59 -0.418,0.902 -0.043,0.094 -0.082,0.184 -0.125,0.278 -0.106,0.238 -0.215,0.484 -0.321,0.734 -0.047,0.113 -0.093,0.223 -0.14,0.336 -0.114,0.285 -0.231,0.574 -0.34,0.867 -0.028,0.074 -0.055,0.141 -0.082,0.215 -0.008,0.019 -0.016,0.039 -0.024,0.055 -0.082,0.23 -0.156,0.46 -0.234,0.691 -0.055,0.156 -0.109,0.309 -0.16,0.465 -0.129,0.406 -0.246,0.812 -0.348,1.219 -0.019,0.058 -0.308,1.011 0.039,1.203 l 4.278,2.324 c -0.047,-0.024 -0.082,-0.063 -0.106,-0.113 0.055,0.105 0.152,0.164 0.313,0.144 l 5.613,-0.789 c 0.07,-0.012 0.785,-0.137 1.277,-1.133 0.039,-0.078 0.547,-1.066 0.996,-1.965 l 3.711,2.02 c 0,0 -0.004,-0.004 -0.004,-0.004 0.332,0.184 0.629,0.152 0.676,0.145 l 5.613,-0.789 c 0.65292,-0.094 0.26592,-1.23503 0.24692,-1.29703 -0.821,-3.102 -2.633,-5.942 -3.313,-7.114 -0.676,-1.179 0.387,-1.328 0.445,-1.336 z"
         style="display:inline;fill:#a38e0f;fill-opacity:1;stroke:none;stroke-width:0.44713774;stroke-linecap:butt;stroke-linejoin:round;stroke-miterlimit:4;stroke-dasharray:none;stroke-opacity:1"
         id="path5063-7"
         inkscape:connector-curvature="0" />
      <path
         inkscape:connector-curvature="0"
         id="path5797"
         style="display:inline;fill:#ffde17;fill-opacity:1;fill-rule:nonzero;stroke:#000000;stroke-width:0.15489087;stroke-miterlimit:4;stroke-dasharray:none;stroke-opacity:1"
         d="m 120.117,200.43 c 0.485,-0.071 3.211,-0.266 3.203,3.918 -0.004,0.007 -0.058,0.215 0.125,0.273 0.192,0.059 6.528,1.078 6.778,3.399 0.207,1.941 -2.68,2.507 -3.614,2.636 -0.175,0.028 -0.277,0.035 -0.285,0.035 -0.054,0.008 -1.129,0.161 -0.449,1.336 0.688,1.172 2.492,4.012 3.309,7.114 0.023,0.058 0.406,1.207 -0.243,1.297 l -5.605,0.789 c -0.078,0.011 -0.793,0.086 -1.281,-0.774 -0.059,-0.098 -1.207,-2.008 -1.567,-2.711 -0.07,-0.125 -0.148,-0.324 -0.476,-0.301 -0.336,0.071 -0.418,0.289 -0.492,0.438 -0.36,0.805 -1.512,3.035 -1.575,3.152 -0.488,0.996 -1.207,1.121 -1.277,1.129 l -5.613,0.789 c -0.649,0.094 -0.258,-1.16 -0.239,-1.226 0.832,-3.332 2.649,-6.684 3.34,-8.051 0.684,-1.367 -0.383,-1.219 -0.437,-1.211 -0.004,0.004 -0.11,0.023 -0.285,0.047 -0.934,0.133 -3.825,0.379 -3.602,-1.625 0.25,-2.387 6.59,-5.188 6.781,-5.301 0.192,-0.113 0.133,-0.301 0.129,-0.312 0.008,-4.184 2.738,-4.75 3.227,-4.821 0.047,-0.004 0.074,-0.008 0.074,-0.008 0,0 0.027,-0.003 0.074,-0.011" />
    </g>
  </g>
</svg>
