<?xml version="1.0" encoding="UTF-8" standalone="no"?>
<!-- Created with Inkscape (http://www.inkscape.org/) -->

<svg
   xmlns:dc="http://purl.org/dc/elements/1.1/"
   xmlns:cc="http://creativecommons.org/ns#"
   xmlns:rdf="http://www.w3.org/1999/02/22-rdf-syntax-ns#"
   xmlns:svg="http://www.w3.org/2000/svg"
   xmlns="http://www.w3.org/2000/svg"
   xmlns:sodipodi="http://sodipodi.sourceforge.net/DTD/sodipodi-0.dtd"
   xmlns:inkscape="http://www.inkscape.org/namespaces/inkscape"
   width="11.254047mm"
   height="10.620082mm"
   viewBox="0 0 11.254047 10.620082"
   version="1.1"
   id="svg661147"
   inkscape:version="0.92.3 (2405546, 2018-03-11)"
   sodipodi:docname="Mayor_orange_f.svg">
  <defs
     id="defs661141">
    <clipPath
       clipPathUnits="userSpaceOnUse"
       id="clipPath180591">
      <path
         d="m 103.93,356.617 h 27.844 V 384.73 H 103.93 Z"
         id="path180589"
         inkscape:connector-curvature="0" />
    </clipPath>
    <clipPath
       clipPathUnits="userSpaceOnUse"
       id="clipPath180601">
      <path
         d="M 0,0 H 576 V 903 H 0 Z"
         id="path180599"
         inkscape:connector-curvature="0" />
    </clipPath>
    <clipPath
       clipPathUnits="userSpaceOnUse"
       id="clipPath180613">
      <path
         d="M 0,0 H 576 V 903 H 0 Z"
         id="path180611"
         inkscape:connector-curvature="0" />
    </clipPath>
    <clipPath
       clipPathUnits="userSpaceOnUse"
       id="clipPath180625">
      <path
         d="M 0,0 H 576 V 903 H 0 Z"
         id="path180623"
         inkscape:connector-curvature="0" />
    </clipPath>
    <clipPath
       clipPathUnits="userSpaceOnUse"
       id="clipPath180635">
      <path
         d="m 115.852,376.031 h 7.309 v 6.516 h -7.309 z"
         id="path180633"
         inkscape:connector-curvature="0" />
    </clipPath>
    <clipPath
       clipPathUnits="userSpaceOnUse"
       id="clipPath180645">
      <path
         d="M 0,0 H 576 V 903 H 0 Z"
         id="path180643"
         inkscape:connector-curvature="0" />
    </clipPath>
    <clipPath
       clipPathUnits="userSpaceOnUse"
       id="clipPath180657">
      <path
         d="M 0,0 H 576 V 903 H 0 Z"
         id="path180655"
         inkscape:connector-curvature="0" />
    </clipPath>
    <clipPath
       clipPathUnits="userSpaceOnUse"
       id="clipPath180669">
      <path
         d="M 0,0 H 576 V 903 H 0 Z"
         id="path180667"
         inkscape:connector-curvature="0" />
    </clipPath>
    <clipPath
       clipPathUnits="userSpaceOnUse"
       id="clipPath180679">
      <path
         d="m 115,376 h 9 v 7 h -9 z"
         id="path180677"
         inkscape:connector-curvature="0" />
    </clipPath>
    <clipPath
       clipPathUnits="userSpaceOnUse"
       id="clipPath180689">
      <path
         d="M 0,0 H 576 V 903 H 0 Z"
         id="path180687"
         inkscape:connector-curvature="0" />
    </clipPath>
    <clipPath
       clipPathUnits="userSpaceOnUse"
       id="clipPath180701">
      <path
         d="M 0,0 H 576 V 903 H 0 Z"
         id="path180699"
         inkscape:connector-curvature="0" />
    </clipPath>
    <clipPath
       clipPathUnits="userSpaceOnUse"
       id="clipPath180711">
      <path
         d="m 115,376 h 9 v 7 h -9 z"
         id="path180709"
         inkscape:connector-curvature="0" />
    </clipPath>
    <clipPath
       clipPathUnits="userSpaceOnUse"
       id="clipPath180721">
      <path
         d="M 0,0 H 576 V 903 H 0 Z"
         id="path180719"
         inkscape:connector-curvature="0" />
    </clipPath>
    <clipPath
       clipPathUnits="userSpaceOnUse"
       id="clipPath180731">
      <path
         d="m 115,376 h 9 v 7 h -9 z"
         id="path180729"
         inkscape:connector-curvature="0" />
    </clipPath>
    <clipPath
       clipPathUnits="userSpaceOnUse"
       id="clipPath180737">
      <path
         d="m 123.16,382.547 -4.871,-2.652 c -0.18,-0.098 -0.375,-0.27 -0.539,-0.559 -0.078,-0.137 -1.57,-2.684 -1.898,-3.305 l 4.871,2.653 c 0.328,0.617 1.82,3.168 1.898,3.3 0.164,0.293 0.359,0.461 0.539,0.563"
         id="path180735"
         inkscape:connector-curvature="0" />
    </clipPath>
    <clipPath
       clipPathUnits="userSpaceOnUse"
       id="clipPath180747">
      <path
         d="M 0,0 H 576 V 903 H 0 Z"
         id="path180745"
         inkscape:connector-curvature="0" />
    </clipPath>
    <clipPath
       clipPathUnits="userSpaceOnUse"
       id="clipPath180759">
      <path
         d="M 0,0 H 576 V 903 H 0 Z"
         id="path180757"
         inkscape:connector-curvature="0" />
    </clipPath>
    <clipPath
       clipPathUnits="userSpaceOnUse"
       id="clipPath180771">
      <path
         d="M 0,0 H 576 V 903 H 0 Z"
         id="path180769"
         inkscape:connector-curvature="0" />
    </clipPath>
    <clipPath
       clipPathUnits="userSpaceOnUse"
       id="clipPath180781">
      <path
         d="m 115.852,376.031 h 7.309 v 6.516 h -7.309 z"
         id="path180779"
         inkscape:connector-curvature="0" />
    </clipPath>
    <clipPath
       clipPathUnits="userSpaceOnUse"
       id="clipPath180791">
      <path
         d="M 0,0 H 576 V 903 H 0 Z"
         id="path180789"
         inkscape:connector-curvature="0" />
    </clipPath>
    <clipPath
       clipPathUnits="userSpaceOnUse"
       id="clipPath180803">
      <path
         d="M 0,0 H 576 V 903 H 0 Z"
         id="path180801"
         inkscape:connector-curvature="0" />
    </clipPath>
    <clipPath
       clipPathUnits="userSpaceOnUse"
       id="clipPath180815">
      <path
         d="M 0,0 H 576 V 903 H 0 Z"
         id="path180813"
         inkscape:connector-curvature="0" />
    </clipPath>
    <clipPath
       clipPathUnits="userSpaceOnUse"
       id="clipPath180827">
      <path
         d="m 115.668,375.797 h 5.055 v 2.887 h -5.055 z"
         id="path180825"
         inkscape:connector-curvature="0" />
    </clipPath>
    <clipPath
       clipPathUnits="userSpaceOnUse"
       id="clipPath180837">
      <path
         d="M 0,0 H 576 V 903 H 0 Z"
         id="path180835"
         inkscape:connector-curvature="0" />
    </clipPath>
    <clipPath
       clipPathUnits="userSpaceOnUse"
       id="clipPath180849">
      <path
         d="M 0,0 H 576 V 903 H 0 Z"
         id="path180847"
         inkscape:connector-curvature="0" />
    </clipPath>
    <clipPath
       clipPathUnits="userSpaceOnUse"
       id="clipPath180861">
      <path
         d="M 0,0 H 576 V 903 H 0 Z"
         id="path180859"
         inkscape:connector-curvature="0" />
    </clipPath>
    <clipPath
       clipPathUnits="userSpaceOnUse"
       id="clipPath180871">
      <path
         d="m 115,375 h 6 v 4 h -6 z"
         id="path180869"
         inkscape:connector-curvature="0" />
    </clipPath>
    <clipPath
       clipPathUnits="userSpaceOnUse"
       id="clipPath180881">
      <path
         d="M 0,0 H 576 V 903 H 0 Z"
         id="path180879"
         inkscape:connector-curvature="0" />
    </clipPath>
    <clipPath
       clipPathUnits="userSpaceOnUse"
       id="clipPath180893">
      <path
         d="M 0,0 H 576 V 903 H 0 Z"
         id="path180891"
         inkscape:connector-curvature="0" />
    </clipPath>
    <clipPath
       clipPathUnits="userSpaceOnUse"
       id="clipPath180903">
      <path
         d="m 115,375 h 6 v 4 h -6 z"
         id="path180901"
         inkscape:connector-curvature="0" />
    </clipPath>
    <clipPath
       clipPathUnits="userSpaceOnUse"
       id="clipPath180913">
      <path
         d="M 0,0 H 576 V 903 H 0 Z"
         id="path180911"
         inkscape:connector-curvature="0" />
    </clipPath>
    <clipPath
       clipPathUnits="userSpaceOnUse"
       id="clipPath180923">
      <path
         d="m 115,375 h 6 v 4 h -6 z"
         id="path180921"
         inkscape:connector-curvature="0" />
    </clipPath>
    <clipPath
       clipPathUnits="userSpaceOnUse"
       id="clipPath180929">
      <path
         d="m 115.668,375.797 4.871,2.648 c 0.106,0.059 0.149,0.16 0.184,0.239 l -4.871,-2.653 c -0.039,-0.078 -0.082,-0.179 -0.184,-0.234"
         id="path180927"
         inkscape:connector-curvature="0" />
    </clipPath>
    <clipPath
       clipPathUnits="userSpaceOnUse"
       id="clipPath180939">
      <path
         d="M 0,0 H 576 V 903 H 0 Z"
         id="path180937"
         inkscape:connector-curvature="0" />
    </clipPath>
    <clipPath
       clipPathUnits="userSpaceOnUse"
       id="clipPath180951">
      <path
         d="M 0,0 H 576 V 903 H 0 Z"
         id="path180949"
         inkscape:connector-curvature="0" />
    </clipPath>
    <clipPath
       clipPathUnits="userSpaceOnUse"
       id="clipPath180963">
      <path
         d="M 0,0 H 576 V 903 H 0 Z"
         id="path180961"
         inkscape:connector-curvature="0" />
    </clipPath>
    <clipPath
       clipPathUnits="userSpaceOnUse"
       id="clipPath180973">
      <path
         d="m 115.668,375.797 h 5.055 v 2.887 h -5.055 z"
         id="path180971"
         inkscape:connector-curvature="0" />
    </clipPath>
    <clipPath
       clipPathUnits="userSpaceOnUse"
       id="clipPath180983">
      <path
         d="M 0,0 H 576 V 903 H 0 Z"
         id="path180981"
         inkscape:connector-curvature="0" />
    </clipPath>
    <clipPath
       clipPathUnits="userSpaceOnUse"
       id="clipPath180995">
      <path
         d="M 0,0 H 576 V 903 H 0 Z"
         id="path180993"
         inkscape:connector-curvature="0" />
    </clipPath>
    <clipPath
       clipPathUnits="userSpaceOnUse"
       id="clipPath181007">
      <path
         d="M 0,0 H 576 V 903 H 0 Z"
         id="path181005"
         inkscape:connector-curvature="0" />
    </clipPath>
    <clipPath
       clipPathUnits="userSpaceOnUse"
       id="clipPath181019">
      <path
         d="m 119.074,361.418 h 8.711 v 3.973 h -8.711 z"
         id="path181017"
         inkscape:connector-curvature="0" />
    </clipPath>
    <clipPath
       clipPathUnits="userSpaceOnUse"
       id="clipPath181029">
      <path
         d="M 0,0 H 576 V 903 H 0 Z"
         id="path181027"
         inkscape:connector-curvature="0" />
    </clipPath>
    <clipPath
       clipPathUnits="userSpaceOnUse"
       id="clipPath181041">
      <path
         d="M 0,0 H 576 V 903 H 0 Z"
         id="path181039"
         inkscape:connector-curvature="0" />
    </clipPath>
    <clipPath
       clipPathUnits="userSpaceOnUse"
       id="clipPath181053">
      <path
         d="M 0,0 H 576 V 903 H 0 Z"
         id="path181051"
         inkscape:connector-curvature="0" />
    </clipPath>
    <clipPath
       clipPathUnits="userSpaceOnUse"
       id="clipPath181063">
      <path
         d="m 119,361 h 9 v 5 h -9 z"
         id="path181061"
         inkscape:connector-curvature="0" />
    </clipPath>
    <clipPath
       clipPathUnits="userSpaceOnUse"
       id="clipPath181073">
      <path
         d="M 0,0 H 576 V 903 H 0 Z"
         id="path181071"
         inkscape:connector-curvature="0" />
    </clipPath>
    <clipPath
       clipPathUnits="userSpaceOnUse"
       id="clipPath181085">
      <path
         d="M 0,0 H 576 V 903 H 0 Z"
         id="path181083"
         inkscape:connector-curvature="0" />
    </clipPath>
    <clipPath
       clipPathUnits="userSpaceOnUse"
       id="clipPath181095">
      <path
         d="m 119,361 h 9 v 5 h -9 z"
         id="path181093"
         inkscape:connector-curvature="0" />
    </clipPath>
    <clipPath
       clipPathUnits="userSpaceOnUse"
       id="clipPath181105">
      <path
         d="M 0,0 H 576 V 903 H 0 Z"
         id="path181103"
         inkscape:connector-curvature="0" />
    </clipPath>
    <clipPath
       clipPathUnits="userSpaceOnUse"
       id="clipPath181115">
      <path
         d="m 119,361 h 9 v 5 h -9 z"
         id="path181113"
         inkscape:connector-curvature="0" />
    </clipPath>
    <clipPath
       clipPathUnits="userSpaceOnUse"
       id="clipPath181121">
      <path
         d="m 123.945,364.066 -4.871,-2.648 c 0.012,0.004 0.024,0.012 0.039,0.016 0.11,0.035 2.239,0.457 3.801,1.304 l 4.871,2.653 c -1.562,-0.852 -3.691,-1.274 -3.801,-1.309 -0.011,-0.004 -0.027,-0.012 -0.039,-0.016"
         id="path181119"
         inkscape:connector-curvature="0" />
    </clipPath>
    <clipPath
       clipPathUnits="userSpaceOnUse"
       id="clipPath181131">
      <path
         d="M 0,0 H 576 V 903 H 0 Z"
         id="path181129"
         inkscape:connector-curvature="0" />
    </clipPath>
    <clipPath
       clipPathUnits="userSpaceOnUse"
       id="clipPath181143">
      <path
         d="M 0,0 H 576 V 903 H 0 Z"
         id="path181141"
         inkscape:connector-curvature="0" />
    </clipPath>
    <clipPath
       clipPathUnits="userSpaceOnUse"
       id="clipPath181155">
      <path
         d="M 0,0 H 576 V 903 H 0 Z"
         id="path181153"
         inkscape:connector-curvature="0" />
    </clipPath>
    <clipPath
       clipPathUnits="userSpaceOnUse"
       id="clipPath181165">
      <path
         d="m 119.074,361.418 h 8.711 v 3.973 h -8.711 z"
         id="path181163"
         inkscape:connector-curvature="0" />
    </clipPath>
    <clipPath
       clipPathUnits="userSpaceOnUse"
       id="clipPath181175">
      <path
         d="M 0,0 H 576 V 903 H 0 Z"
         id="path181173"
         inkscape:connector-curvature="0" />
    </clipPath>
    <clipPath
       clipPathUnits="userSpaceOnUse"
       id="clipPath181187">
      <path
         d="M 0,0 H 576 V 903 H 0 Z"
         id="path181185"
         inkscape:connector-curvature="0" />
    </clipPath>
    <clipPath
       clipPathUnits="userSpaceOnUse"
       id="clipPath181199">
      <path
         d="M 0,0 H 576 V 903 H 0 Z"
         id="path181197"
         inkscape:connector-curvature="0" />
    </clipPath>
    <clipPath
       clipPathUnits="userSpaceOnUse"
       id="clipPath181219">
      <path
         d="m 103.93,379.297 h 5.102 v 5.414 h -5.102 z"
         id="path181217"
         inkscape:connector-curvature="0" />
    </clipPath>
    <clipPath
       clipPathUnits="userSpaceOnUse"
       id="clipPath181229">
      <path
         d="M 0,0 H 576 V 903 H 0 Z"
         id="path181227"
         inkscape:connector-curvature="0" />
    </clipPath>
    <clipPath
       clipPathUnits="userSpaceOnUse"
       id="clipPath181241">
      <path
         d="M 0,0 H 576 V 903 H 0 Z"
         id="path181239"
         inkscape:connector-curvature="0" />
    </clipPath>
    <clipPath
       clipPathUnits="userSpaceOnUse"
       id="clipPath181253">
      <path
         d="M 0,0 H 576 V 903 H 0 Z"
         id="path181251"
         inkscape:connector-curvature="0" />
    </clipPath>
    <clipPath
       clipPathUnits="userSpaceOnUse"
       id="clipPath181263">
      <path
         d="m 103,379 h 7 v 6 h -7 z"
         id="path181261"
         inkscape:connector-curvature="0" />
    </clipPath>
    <clipPath
       clipPathUnits="userSpaceOnUse"
       id="clipPath181273">
      <path
         d="M 0,0 H 576 V 903 H 0 Z"
         id="path181271"
         inkscape:connector-curvature="0" />
    </clipPath>
    <clipPath
       clipPathUnits="userSpaceOnUse"
       id="clipPath181285">
      <path
         d="M 0,0 H 576 V 903 H 0 Z"
         id="path181283"
         inkscape:connector-curvature="0" />
    </clipPath>
    <clipPath
       clipPathUnits="userSpaceOnUse"
       id="clipPath181295">
      <path
         d="m 103,379 h 7 v 6 h -7 z"
         id="path181293"
         inkscape:connector-curvature="0" />
    </clipPath>
    <clipPath
       clipPathUnits="userSpaceOnUse"
       id="clipPath181305">
      <path
         d="M 0,0 H 576 V 903 H 0 Z"
         id="path181303"
         inkscape:connector-curvature="0" />
    </clipPath>
    <clipPath
       clipPathUnits="userSpaceOnUse"
       id="clipPath181315">
      <path
         d="m 103,379 h 7 v 6 h -7 z"
         id="path181313"
         inkscape:connector-curvature="0" />
    </clipPath>
    <clipPath
       clipPathUnits="userSpaceOnUse"
       id="clipPath181321">
      <path
         d="m 109.031,384.711 -4.871,-2.648 c -0.433,-0.239 -0.129,-2.629 -0.109,-2.766 l 4.871,2.652 c -0.02,0.133 -0.324,2.528 0.109,2.762"
         id="path181319"
         inkscape:connector-curvature="0" />
    </clipPath>
    <clipPath
       clipPathUnits="userSpaceOnUse"
       id="clipPath181331">
      <path
         d="M 0,0 H 576 V 903 H 0 Z"
         id="path181329"
         inkscape:connector-curvature="0" />
    </clipPath>
    <clipPath
       clipPathUnits="userSpaceOnUse"
       id="clipPath181343">
      <path
         d="M 0,0 H 576 V 903 H 0 Z"
         id="path181341"
         inkscape:connector-curvature="0" />
    </clipPath>
    <clipPath
       clipPathUnits="userSpaceOnUse"
       id="clipPath181355">
      <path
         d="M 0,0 H 576 V 903 H 0 Z"
         id="path181353"
         inkscape:connector-curvature="0" />
    </clipPath>
    <clipPath
       clipPathUnits="userSpaceOnUse"
       id="clipPath181365">
      <path
         d="m 103.93,379.297 h 5.102 v 5.414 h -5.102 z"
         id="path181363"
         inkscape:connector-curvature="0" />
    </clipPath>
    <clipPath
       clipPathUnits="userSpaceOnUse"
       id="clipPath181375">
      <path
         d="M 0,0 H 576 V 903 H 0 Z"
         id="path181373"
         inkscape:connector-curvature="0" />
    </clipPath>
    <clipPath
       clipPathUnits="userSpaceOnUse"
       id="clipPath181387">
      <path
         d="M 0,0 H 576 V 903 H 0 Z"
         id="path181385"
         inkscape:connector-curvature="0" />
    </clipPath>
    <clipPath
       clipPathUnits="userSpaceOnUse"
       id="clipPath181399">
      <path
         d="M 0,0 H 576 V 903 H 0 Z"
         id="path181397"
         inkscape:connector-curvature="0" />
    </clipPath>
    <clipPath
       clipPathUnits="userSpaceOnUse"
       id="clipPath181411">
      <path
         d="m 115.461,356.617 h 7.059 v 2.922 h -7.059 z"
         id="path181409"
         inkscape:connector-curvature="0" />
    </clipPath>
    <clipPath
       clipPathUnits="userSpaceOnUse"
       id="clipPath181421">
      <path
         d="M 0,0 H 576 V 903 H 0 Z"
         id="path181419"
         inkscape:connector-curvature="0" />
    </clipPath>
    <clipPath
       clipPathUnits="userSpaceOnUse"
       id="clipPath181433">
      <path
         d="M 0,0 H 576 V 903 H 0 Z"
         id="path181431"
         inkscape:connector-curvature="0" />
    </clipPath>
    <clipPath
       clipPathUnits="userSpaceOnUse"
       id="clipPath181445">
      <path
         d="M 0,0 H 576 V 903 H 0 Z"
         id="path181443"
         inkscape:connector-curvature="0" />
    </clipPath>
    <clipPath
       clipPathUnits="userSpaceOnUse"
       id="clipPath181455">
      <path
         d="m 115,356 h 8 v 4 h -8 z"
         id="path181453"
         inkscape:connector-curvature="0" />
    </clipPath>
    <clipPath
       clipPathUnits="userSpaceOnUse"
       id="clipPath181465">
      <path
         d="M 0,0 H 576 V 903 H 0 Z"
         id="path181463"
         inkscape:connector-curvature="0" />
    </clipPath>
    <clipPath
       clipPathUnits="userSpaceOnUse"
       id="clipPath181477">
      <path
         d="M 0,0 H 576 V 903 H 0 Z"
         id="path181475"
         inkscape:connector-curvature="0" />
    </clipPath>
    <clipPath
       clipPathUnits="userSpaceOnUse"
       id="clipPath181487">
      <path
         d="m 115,356 h 8 v 4 h -8 z"
         id="path181485"
         inkscape:connector-curvature="0" />
    </clipPath>
    <clipPath
       clipPathUnits="userSpaceOnUse"
       id="clipPath181497">
      <path
         d="M 0,0 H 576 V 903 H 0 Z"
         id="path181495"
         inkscape:connector-curvature="0" />
    </clipPath>
    <clipPath
       clipPathUnits="userSpaceOnUse"
       id="clipPath181507">
      <path
         d="m 115,356 h 8 v 4 h -8 z"
         id="path181505"
         inkscape:connector-curvature="0" />
    </clipPath>
    <clipPath
       clipPathUnits="userSpaceOnUse"
       id="clipPath181513">
      <path
         d="m 117.648,356.887 4.872,2.652 c -0.551,-0.301 -1.282,-0.324 -2.184,-0.199 l -4.875,-2.649 c 0.906,-0.128 1.633,-0.105 2.187,0.196"
         id="path181511"
         inkscape:connector-curvature="0" />
    </clipPath>
    <clipPath
       clipPathUnits="userSpaceOnUse"
       id="clipPath181523">
      <path
         d="M 0,0 H 576 V 903 H 0 Z"
         id="path181521"
         inkscape:connector-curvature="0" />
    </clipPath>
    <clipPath
       clipPathUnits="userSpaceOnUse"
       id="clipPath181535">
      <path
         d="M 0,0 H 576 V 903 H 0 Z"
         id="path181533"
         inkscape:connector-curvature="0" />
    </clipPath>
    <clipPath
       clipPathUnits="userSpaceOnUse"
       id="clipPath181547">
      <path
         d="M 0,0 H 576 V 903 H 0 Z"
         id="path181545"
         inkscape:connector-curvature="0" />
    </clipPath>
    <clipPath
       clipPathUnits="userSpaceOnUse"
       id="clipPath181557">
      <path
         d="m 115.461,356.617 h 7.059 v 2.922 h -7.059 z"
         id="path181555"
         inkscape:connector-curvature="0" />
    </clipPath>
    <clipPath
       clipPathUnits="userSpaceOnUse"
       id="clipPath181567">
      <path
         d="M 0,0 H 576 V 903 H 0 Z"
         id="path181565"
         inkscape:connector-curvature="0" />
    </clipPath>
    <clipPath
       clipPathUnits="userSpaceOnUse"
       id="clipPath181579">
      <path
         d="M 0,0 H 576 V 903 H 0 Z"
         id="path181577"
         inkscape:connector-curvature="0" />
    </clipPath>
    <clipPath
       clipPathUnits="userSpaceOnUse"
       id="clipPath181591">
      <path
         d="M 0,0 H 576 V 903 H 0 Z"
         id="path181589"
         inkscape:connector-curvature="0" />
    </clipPath>
    <clipPath
       clipPathUnits="userSpaceOnUse"
       id="clipPath181607">
      <path
         d="m 104.051,368.984 h 11.348 v 12.965 h -11.348 z"
         id="path181605"
         inkscape:connector-curvature="0" />
    </clipPath>
    <clipPath
       clipPathUnits="userSpaceOnUse"
       id="clipPath181617">
      <path
         d="M 0,0 H 576 V 903 H 0 Z"
         id="path181615"
         inkscape:connector-curvature="0" />
    </clipPath>
    <clipPath
       clipPathUnits="userSpaceOnUse"
       id="clipPath181629">
      <path
         d="M 0,0 H 576 V 903 H 0 Z"
         id="path181627"
         inkscape:connector-curvature="0" />
    </clipPath>
    <clipPath
       clipPathUnits="userSpaceOnUse"
       id="clipPath181641">
      <path
         d="M 0,0 H 576 V 903 H 0 Z"
         id="path181639"
         inkscape:connector-curvature="0" />
    </clipPath>
    <clipPath
       clipPathUnits="userSpaceOnUse"
       id="clipPath181651">
      <path
         d="m 104,368 h 12 v 14 h -12 z"
         id="path181649"
         inkscape:connector-curvature="0" />
    </clipPath>
    <clipPath
       clipPathUnits="userSpaceOnUse"
       id="clipPath181661">
      <path
         d="M 0,0 H 576 V 903 H 0 Z"
         id="path181659"
         inkscape:connector-curvature="0" />
    </clipPath>
    <clipPath
       clipPathUnits="userSpaceOnUse"
       id="clipPath181673">
      <path
         d="M 0,0 H 576 V 903 H 0 Z"
         id="path181671"
         inkscape:connector-curvature="0" />
    </clipPath>
    <clipPath
       clipPathUnits="userSpaceOnUse"
       id="clipPath181683">
      <path
         d="m 104,368 h 12 v 14 h -12 z"
         id="path181681"
         inkscape:connector-curvature="0" />
    </clipPath>
    <clipPath
       clipPathUnits="userSpaceOnUse"
       id="clipPath181693">
      <path
         d="M 0,0 H 576 V 903 H 0 Z"
         id="path181691"
         inkscape:connector-curvature="0" />
    </clipPath>
    <clipPath
       clipPathUnits="userSpaceOnUse"
       id="clipPath181703">
      <path
         d="m 104,368 h 12 v 14 h -12 z"
         id="path181701"
         inkscape:connector-curvature="0" />
    </clipPath>
    <clipPath
       clipPathUnits="userSpaceOnUse"
       id="clipPath181709">
      <path
         d="m 110.305,368.984 4.871,2.653 c 0.242,0.133 0.387,0.402 -0.106,0.949 -2.132,2.387 -4.73,4.668 -6.148,9.363 l -4.871,-2.652 c 1.418,-4.692 4.015,-6.977 6.148,-9.359 0.489,-0.551 0.348,-0.821 0.106,-0.954"
         id="path181707"
         inkscape:connector-curvature="0" />
    </clipPath>
    <clipPath
       clipPathUnits="userSpaceOnUse"
       id="clipPath181719">
      <path
         d="M 0,0 H 576 V 903 H 0 Z"
         id="path181717"
         inkscape:connector-curvature="0" />
    </clipPath>
    <clipPath
       clipPathUnits="userSpaceOnUse"
       id="clipPath181731">
      <path
         d="M 0,0 H 576 V 903 H 0 Z"
         id="path181729"
         inkscape:connector-curvature="0" />
    </clipPath>
    <clipPath
       clipPathUnits="userSpaceOnUse"
       id="clipPath181743">
      <path
         d="M 0,0 H 576 V 903 H 0 Z"
         id="path181741"
         inkscape:connector-curvature="0" />
    </clipPath>
    <clipPath
       clipPathUnits="userSpaceOnUse"
       id="clipPath181753">
      <path
         d="m 104.051,368.984 h 11.348 v 12.965 h -11.348 z"
         id="path181751"
         inkscape:connector-curvature="0" />
    </clipPath>
    <clipPath
       clipPathUnits="userSpaceOnUse"
       id="clipPath181763">
      <path
         d="M 0,0 H 576 V 903 H 0 Z"
         id="path181761"
         inkscape:connector-curvature="0" />
    </clipPath>
    <clipPath
       clipPathUnits="userSpaceOnUse"
       id="clipPath181775">
      <path
         d="M 0,0 H 576 V 903 H 0 Z"
         id="path181773"
         inkscape:connector-curvature="0" />
    </clipPath>
    <clipPath
       clipPathUnits="userSpaceOnUse"
       id="clipPath181787">
      <path
         d="M 0,0 H 576 V 903 H 0 Z"
         id="path181785"
         inkscape:connector-curvature="0" />
    </clipPath>
    <clipPath
       clipPathUnits="userSpaceOnUse"
       id="clipPath181815">
      <path
         d="m 111.902,356.691 h 8.434 v 8.145 h -8.434 z"
         id="path181813"
         inkscape:connector-curvature="0" />
    </clipPath>
    <clipPath
       clipPathUnits="userSpaceOnUse"
       id="clipPath181825">
      <path
         d="M 0,0 H 576 V 903 H 0 Z"
         id="path181823"
         inkscape:connector-curvature="0" />
    </clipPath>
    <clipPath
       clipPathUnits="userSpaceOnUse"
       id="clipPath181837">
      <path
         d="M 0,0 H 576 V 903 H 0 Z"
         id="path181835"
         inkscape:connector-curvature="0" />
    </clipPath>
    <clipPath
       clipPathUnits="userSpaceOnUse"
       id="clipPath181849">
      <path
         d="M 0,0 H 576 V 903 H 0 Z"
         id="path181847"
         inkscape:connector-curvature="0" />
    </clipPath>
    <clipPath
       clipPathUnits="userSpaceOnUse"
       id="clipPath181859">
      <path
         d="m 111,356 h 10 v 9 h -10 z"
         id="path181857"
         inkscape:connector-curvature="0" />
    </clipPath>
    <clipPath
       clipPathUnits="userSpaceOnUse"
       id="clipPath181869">
      <path
         d="M 0,0 H 576 V 903 H 0 Z"
         id="path181867"
         inkscape:connector-curvature="0" />
    </clipPath>
    <clipPath
       clipPathUnits="userSpaceOnUse"
       id="clipPath181881">
      <path
         d="M 0,0 H 576 V 903 H 0 Z"
         id="path181879"
         inkscape:connector-curvature="0" />
    </clipPath>
    <clipPath
       clipPathUnits="userSpaceOnUse"
       id="clipPath181891">
      <path
         d="m 111,356 h 10 v 9 h -10 z"
         id="path181889"
         inkscape:connector-curvature="0" />
    </clipPath>
    <clipPath
       clipPathUnits="userSpaceOnUse"
       id="clipPath181901">
      <path
         d="M 0,0 H 576 V 903 H 0 Z"
         id="path181899"
         inkscape:connector-curvature="0" />
    </clipPath>
    <clipPath
       clipPathUnits="userSpaceOnUse"
       id="clipPath181911">
      <path
         d="m 111,356 h 10 v 9 h -10 z"
         id="path181909"
         inkscape:connector-curvature="0" />
    </clipPath>
    <clipPath
       clipPathUnits="userSpaceOnUse"
       id="clipPath181917">
      <path
         d="m 116.777,364.836 -4.875,-2.648 c 0.008,-4.11 1.149,-5.161 3.559,-5.497 l 4.875,2.649 c -2.414,0.34 -3.551,1.39 -3.559,5.496"
         id="path181915"
         inkscape:connector-curvature="0" />
    </clipPath>
    <clipPath
       clipPathUnits="userSpaceOnUse"
       id="clipPath181927">
      <path
         d="M 0,0 H 576 V 903 H 0 Z"
         id="path181925"
         inkscape:connector-curvature="0" />
    </clipPath>
    <clipPath
       clipPathUnits="userSpaceOnUse"
       id="clipPath181939">
      <path
         d="M 0,0 H 576 V 903 H 0 Z"
         id="path181937"
         inkscape:connector-curvature="0" />
    </clipPath>
    <clipPath
       clipPathUnits="userSpaceOnUse"
       id="clipPath181951">
      <path
         d="M 0,0 H 576 V 903 H 0 Z"
         id="path181949"
         inkscape:connector-curvature="0" />
    </clipPath>
    <clipPath
       clipPathUnits="userSpaceOnUse"
       id="clipPath181961">
      <path
         d="m 111.902,356.691 h 8.434 v 8.145 h -8.434 z"
         id="path181959"
         inkscape:connector-curvature="0" />
    </clipPath>
    <clipPath
       clipPathUnits="userSpaceOnUse"
       id="clipPath181971">
      <path
         d="M 0,0 H 576 V 903 H 0 Z"
         id="path181969"
         inkscape:connector-curvature="0" />
    </clipPath>
    <clipPath
       clipPathUnits="userSpaceOnUse"
       id="clipPath181983">
      <path
         d="M 0,0 H 576 V 903 H 0 Z"
         id="path181981"
         inkscape:connector-curvature="0" />
    </clipPath>
    <clipPath
       clipPathUnits="userSpaceOnUse"
       id="clipPath181995">
      <path
         d="M 0,0 H 576 V 903 H 0 Z"
         id="path181993"
         inkscape:connector-curvature="0" />
    </clipPath>
    <clipPath
       clipPathUnits="userSpaceOnUse"
       id="clipPath182021">
      <path
         d="m 106.316,362.188 h 10.469 v 8.973 h -10.469 z"
         id="path182019"
         inkscape:connector-curvature="0" />
    </clipPath>
    <clipPath
       clipPathUnits="userSpaceOnUse"
       id="clipPath182031">
      <path
         d="M 0,0 H 576 V 903 H 0 Z"
         id="path182029"
         inkscape:connector-curvature="0" />
    </clipPath>
    <clipPath
       clipPathUnits="userSpaceOnUse"
       id="clipPath182043">
      <path
         d="M 0,0 H 576 V 903 H 0 Z"
         id="path182041"
         inkscape:connector-curvature="0" />
    </clipPath>
    <clipPath
       clipPathUnits="userSpaceOnUse"
       id="clipPath182055">
      <path
         d="M 0,0 H 576 V 903 H 0 Z"
         id="path182053"
         inkscape:connector-curvature="0" />
    </clipPath>
    <clipPath
       clipPathUnits="userSpaceOnUse"
       id="clipPath182065">
      <path
         d="m 106,362 h 11 v 10 h -11 z"
         id="path182063"
         inkscape:connector-curvature="0" />
    </clipPath>
    <clipPath
       clipPathUnits="userSpaceOnUse"
       id="clipPath182075">
      <path
         d="M 0,0 H 576 V 903 H 0 Z"
         id="path182073"
         inkscape:connector-curvature="0" />
    </clipPath>
    <clipPath
       clipPathUnits="userSpaceOnUse"
       id="clipPath182087">
      <path
         d="M 0,0 H 576 V 903 H 0 Z"
         id="path182085"
         inkscape:connector-curvature="0" />
    </clipPath>
    <clipPath
       clipPathUnits="userSpaceOnUse"
       id="clipPath182097">
      <path
         d="m 106,362 h 11 v 10 h -11 z"
         id="path182095"
         inkscape:connector-curvature="0" />
    </clipPath>
    <clipPath
       clipPathUnits="userSpaceOnUse"
       id="clipPath182107">
      <path
         d="M 0,0 H 576 V 903 H 0 Z"
         id="path182105"
         inkscape:connector-curvature="0" />
    </clipPath>
    <clipPath
       clipPathUnits="userSpaceOnUse"
       id="clipPath182117">
      <path
         d="m 106,362 h 11 v 10 h -11 z"
         id="path182115"
         inkscape:connector-curvature="0" />
    </clipPath>
    <clipPath
       clipPathUnits="userSpaceOnUse"
       id="clipPath182123">
      <path
         d="m 111.938,371.16 -4.875,-2.648 c -0.481,-0.266 -0.809,-0.696 -0.735,-1.395 0.231,-2.14 5.285,-4.554 5.453,-4.656 0.172,-0.102 0.125,-0.266 0.121,-0.273 l 4.875,2.648 c 0,0.008 0.047,0.176 -0.121,0.277 -0.168,0.102 -5.226,2.516 -5.457,4.657 -0.074,0.699 0.254,1.128 0.739,1.39"
         id="path182121"
         inkscape:connector-curvature="0" />
    </clipPath>
    <clipPath
       clipPathUnits="userSpaceOnUse"
       id="clipPath182133">
      <path
         d="M 0,0 H 576 V 903 H 0 Z"
         id="path182131"
         inkscape:connector-curvature="0" />
    </clipPath>
    <clipPath
       clipPathUnits="userSpaceOnUse"
       id="clipPath182145">
      <path
         d="M 0,0 H 576 V 903 H 0 Z"
         id="path182143"
         inkscape:connector-curvature="0" />
    </clipPath>
    <clipPath
       clipPathUnits="userSpaceOnUse"
       id="clipPath182157">
      <path
         d="M 0,0 H 576 V 903 H 0 Z"
         id="path182155"
         inkscape:connector-curvature="0" />
    </clipPath>
    <clipPath
       clipPathUnits="userSpaceOnUse"
       id="clipPath182167">
      <path
         d="m 106.316,362.188 h 10.469 v 8.973 h -10.469 z"
         id="path182165"
         inkscape:connector-curvature="0" />
    </clipPath>
    <clipPath
       clipPathUnits="userSpaceOnUse"
       id="clipPath182177">
      <path
         d="M 0,0 H 576 V 903 H 0 Z"
         id="path182175"
         inkscape:connector-curvature="0" />
    </clipPath>
    <clipPath
       clipPathUnits="userSpaceOnUse"
       id="clipPath182189">
      <path
         d="M 0,0 H 576 V 903 H 0 Z"
         id="path182187"
         inkscape:connector-curvature="0" />
    </clipPath>
    <clipPath
       clipPathUnits="userSpaceOnUse"
       id="clipPath182201">
      <path
         d="M 0,0 H 576 V 903 H 0 Z"
         id="path182199"
         inkscape:connector-curvature="0" />
    </clipPath>
  </defs>
  <sodipodi:namedview
     id="base"
     pagecolor="#ffffff"
     bordercolor="#666666"
     borderopacity="1.0"
     inkscape:pageopacity="0.0"
     inkscape:pageshadow="2"
     inkscape:zoom="5.7098873"
     inkscape:cx="57.925393"
     inkscape:cy="21.039904"
     inkscape:document-units="mm"
     inkscape:current-layer="layer1"
     showgrid="false"
     inkscape:window-width="1920"
     inkscape:window-height="1017"
     inkscape:window-x="-8"
     inkscape:window-y="-8"
     inkscape:window-maximized="1" />
  <metadata
     id="metadata661144">
    <rdf:RDF>
      <cc:Work
         rdf:about="">
        <dc:format>image/svg+xml</dc:format>
        <dc:type
           rdf:resource="http://purl.org/dc/dcmitype/StillImage" />
        <dc:title></dc:title>
      </cc:Work>
    </rdf:RDF>
  </metadata>
  <g
     inkscape:label="Ebene 1"
     inkscape:groupmode="layer"
     id="layer1"
     transform="translate(-77.446309,-90.511306)">
    <g
       transform="matrix(-0.39845222,0,0,-0.37259024,130.01289,-42.276299)"
       id="g180581"
       style="display:inline;fill:#a38e0f;fill-opacity:1;stroke:#000000;stroke-width:0.39708874;stroke-miterlimit:4;stroke-dasharray:none;stroke-opacity:1"
       inkscape:label="Mayor_orange">
      <path
         inkscape:connector-curvature="0"
         id="path180583"
         style="display:inline;opacity:1;vector-effect:none;fill:none;fill-opacity:1;stroke:#000000;stroke-width:0.39708874;stroke-linecap:butt;stroke-linejoin:miter;stroke-miterlimit:4;stroke-dasharray:none;stroke-dashoffset:0;stroke-opacity:1"
         d="m 131.617,-378.718 c -1.403,4.301 -3.993,5.856 -6.121,7.641 -0.895,0.754 0.339,1.164 0.402,1.187 0.187,0.031 3.699,0.649 3.48,2.719 -0.078,0.758 -0.808,1.371 -1.703,1.848 0.02,-0.012 0.043,-0.02 0.063,-0.032 l -3.922,2.133 c -0.059,2.164 -0.5,3.266 -1.34,3.719 0,0 0,0 0.004,0 l -0.008,0.004 c -0.004,0.004 -0.008,0.004 -0.008,0.004 l -4.859,2.64 c -0.02,0.016 -0.047,0.028 -0.07,0.039 -0.094,0.047 -0.2,0.079 -0.305,0.114 -0.027,0.008 -0.055,0.019 -0.082,0.027 -0.008,0 -0.012,0.004 -0.016,0.008 -0.019,0.004 -0.039,0 -0.058,0.004 -0.196,0.047 -0.411,0.066 -0.641,0.07 -0.062,0.004 -0.129,0.004 -0.199,0.004 -0.254,-0.008 -0.524,-0.023 -0.817,-0.063 -0.605,-0.085 -1.129,-0.214 -1.574,-0.425 -0.14,-0.067 -0.265,-0.145 -0.39,-0.227 -0.012,-0.008 -0.028,-0.015 -0.043,-0.023 -0.028,-0.02 -0.051,-0.039 -0.079,-0.063 -0.05,-0.035 -0.101,-0.074 -0.148,-0.117 -0.016,-0.016 -0.035,-0.023 -0.051,-0.039 -0.035,-0.027 -0.062,-0.063 -0.094,-0.094 -0.031,-0.031 -0.062,-0.062 -0.093,-0.094 -0.012,-0.011 -0.02,-0.019 -0.032,-0.031 -0.042,-0.051 -0.082,-0.101 -0.121,-0.156 -0.023,-0.027 -0.043,-0.055 -0.066,-0.082 -0.004,-0.004 -0.008,-0.008 -0.008,-0.016 -0.035,-0.043 -0.062,-0.093 -0.09,-0.144 -0.035,-0.059 -0.074,-0.11 -0.105,-0.172 -0.004,0 -0.004,-0.004 -0.004,-0.008 -0.008,-0.008 -0.012,-0.023 -0.016,-0.031 -0.066,-0.129 -0.129,-0.266 -0.183,-0.414 -0.008,-0.02 -0.016,-0.035 -0.024,-0.055 -0.011,-0.027 -0.019,-0.062 -0.031,-0.094 -0.047,-0.144 -0.094,-0.3 -0.133,-0.465 -0.011,-0.042 -0.027,-0.085 -0.035,-0.132 -0.047,-0.211 -0.09,-0.438 -0.121,-0.68 -0.008,-0.047 -0.012,-0.102 -0.016,-0.148 -0.027,-0.207 -0.047,-0.422 -0.062,-0.653 -0.004,-0.074 -0.012,-0.148 -0.016,-0.222 -0.011,-0.29 -0.023,-0.586 -0.023,-0.915 0,0 0.004,-0.015 0.004,-0.035 0,-0.007 0,-0.015 0,-0.023 0,-0.02 -0.004,-0.039 -0.008,-0.067 -0.008,-0.019 -0.012,-0.039 -0.024,-0.062 -0.003,0 -0.003,-0.004 -0.003,-0.004 -0.02,-0.027 -0.051,-0.059 -0.09,-0.082 -0.032,-0.019 -0.254,-0.133 -0.586,-0.309 -0.008,0 -0.016,-0.003 -0.02,-0.007 -0.101,-0.055 -0.211,-0.114 -0.332,-0.18 -0.035,-0.02 -0.07,-0.039 -0.105,-0.059 -0.102,-0.054 -0.199,-0.113 -0.313,-0.175 -0.047,-0.028 -0.097,-0.059 -0.148,-0.086 -0.102,-0.059 -0.203,-0.118 -0.309,-0.184 -0.058,-0.035 -0.121,-0.074 -0.183,-0.109 -0.102,-0.063 -0.2,-0.125 -0.305,-0.192 -0.066,-0.043 -0.133,-0.086 -0.199,-0.129 -0.102,-0.066 -0.203,-0.132 -0.305,-0.203 -0.027,-0.019 -0.055,-0.039 -0.082,-0.054 -0.031,-0.024 -0.059,-0.043 -0.09,-0.067 -0.148,-0.101 -0.293,-0.211 -0.437,-0.32 -0.055,-0.039 -0.11,-0.082 -0.164,-0.125 -0.391,-0.305 -0.747,-0.621 -1.047,-0.949 -0.02,-0.024 -0.051,-0.047 -0.071,-0.071 -0.031,-0.039 -0.058,-0.074 -0.086,-0.109 -0.058,-0.066 -0.109,-0.133 -0.156,-0.199 -0.027,-0.032 -0.054,-0.063 -0.078,-0.094 -0.035,-0.051 -0.059,-0.098 -0.09,-0.145 -0.027,-0.043 -0.051,-0.082 -0.074,-0.121 -0.012,-0.019 -0.027,-0.039 -0.039,-0.058 -0.055,-0.106 -0.102,-0.207 -0.141,-0.313 -0.047,-0.133 -0.082,-0.265 -0.093,-0.398 -0.075,-0.699 0.257,-1.129 0.734,-1.391 l 2.965,-1.613 c -0.313,-0.348 -0.633,-0.695 -0.961,-1.047 -0.242,-0.262 -0.481,-0.527 -0.727,-0.801 -0.07,-0.078 -0.14,-0.152 -0.211,-0.23 -0.062,-0.071 -0.121,-0.145 -0.179,-0.215 -0.145,-0.164 -0.289,-0.332 -0.434,-0.508 -0.141,-0.172 -0.281,-0.348 -0.422,-0.527 -0.137,-0.18 -0.277,-0.364 -0.414,-0.547 -0.062,-0.094 -0.133,-0.176 -0.199,-0.27 -0.102,-0.14 -0.199,-0.297 -0.297,-0.449 -0.059,-0.09 -0.117,-0.176 -0.176,-0.265 -0.211,-0.333 -0.414,-0.672 -0.609,-1.036 -0.016,-0.031 -0.031,-0.066 -0.051,-0.097 -0.051,-0.098 -0.098,-0.203 -0.148,-0.301 -0.16,-0.32 -0.317,-0.66 -0.469,-1.012 -0.059,-0.144 -0.121,-0.297 -0.18,-0.445 -0.051,-0.129 -0.105,-0.246 -0.156,-0.375 -0.121,-0.34 -0.238,-0.688 -0.348,-1.051 -0.019,-0.137 -0.324,-2.527 0.11,-2.766 l 4.875,-2.648 c 0.027,-0.016 0.062,-0.023 0.097,-0.019 l 7.688,1.082 c 0.07,0.007 0.703,0.121 1.14,1.007 0.051,0.098 0.633,1.254 1.153,2.297 l 4.051,-2.207 c 0,0.004 -0.004,0.004 -0.004,0.008 0.293,-0.164 0.554,-0.137 0.601,-0.129 l 7.68,1.078 c 0.574,0.082 0.238,2.703 0.223,2.84 z" />
      <path
         inkscape:connector-curvature="0"
         id="path180583-1"
         style="display:inline;opacity:1;vector-effect:none;fill:#e47f08;fill-opacity:1;stroke:none;stroke-width:0.39708871;stroke-linecap:butt;stroke-linejoin:miter;stroke-miterlimit:4;stroke-dasharray:none;stroke-dashoffset:0;stroke-opacity:1"
         d="m 131.617,-378.718 c -1.403,4.301 -3.993,5.856 -6.121,7.641 -0.895,0.754 0.339,1.164 0.402,1.187 0.187,0.031 3.699,0.649 3.48,2.719 -0.078,0.758 -0.808,1.371 -1.703,1.848 0.02,-0.012 0.043,-0.02 0.063,-0.032 l -3.922,2.133 c -0.059,2.164 -0.5,3.266 -1.34,3.719 0,0 0,0 0.004,0 l -0.008,0.004 c -0.004,0.004 -0.008,0.004 -0.008,0.004 l -4.859,2.64 c -0.02,0.016 -0.047,0.028 -0.07,0.039 -0.094,0.047 -0.2,0.079 -0.305,0.114 -0.027,0.008 -0.055,0.019 -0.082,0.027 -0.008,0 -0.012,0.004 -0.016,0.008 -0.019,0.004 -0.039,0 -0.058,0.004 -0.196,0.047 -0.411,0.066 -0.641,0.07 -0.062,0.004 -0.129,0.004 -0.199,0.004 -0.254,-0.008 -0.524,-0.023 -0.817,-0.063 -0.605,-0.085 -1.129,-0.214 -1.574,-0.425 -0.14,-0.067 -0.265,-0.145 -0.39,-0.227 -0.012,-0.008 -0.028,-0.015 -0.043,-0.023 -0.028,-0.02 -0.051,-0.039 -0.079,-0.063 -0.05,-0.035 -0.101,-0.074 -0.148,-0.117 -0.016,-0.016 -0.035,-0.023 -0.051,-0.039 -0.035,-0.027 -0.062,-0.063 -0.094,-0.094 -0.031,-0.031 -0.062,-0.062 -0.093,-0.094 -0.012,-0.011 -0.02,-0.019 -0.032,-0.031 -0.042,-0.051 -0.082,-0.101 -0.121,-0.156 -0.023,-0.027 -0.043,-0.055 -0.066,-0.082 -0.004,-0.004 -0.008,-0.008 -0.008,-0.016 -0.035,-0.043 -0.062,-0.093 -0.09,-0.144 -0.035,-0.059 -0.074,-0.11 -0.105,-0.172 -0.004,0 -0.004,-0.004 -0.004,-0.008 -0.008,-0.008 -0.012,-0.023 -0.016,-0.031 -0.066,-0.129 -0.129,-0.266 -0.183,-0.414 -0.008,-0.02 -0.016,-0.035 -0.024,-0.055 -0.011,-0.027 -0.019,-0.062 -0.031,-0.094 -0.047,-0.144 -0.094,-0.3 -0.133,-0.465 -0.011,-0.042 -0.027,-0.085 -0.035,-0.132 -0.047,-0.211 -0.09,-0.438 -0.121,-0.68 -0.008,-0.047 -0.012,-0.102 -0.016,-0.148 -0.027,-0.207 -0.047,-0.422 -0.062,-0.653 -0.004,-0.074 -0.012,-0.148 -0.016,-0.222 -0.011,-0.29 -0.023,-0.586 -0.023,-0.915 0,0 0.004,-0.015 0.004,-0.035 0,-0.007 0,-0.015 0,-0.023 0,-0.02 -0.004,-0.039 -0.008,-0.067 -0.008,-0.019 -0.012,-0.039 -0.024,-0.062 -0.003,0 -0.003,-0.004 -0.003,-0.004 -0.02,-0.027 -0.051,-0.059 -0.09,-0.082 -0.032,-0.019 -0.254,-0.133 -0.586,-0.309 -0.008,0 -0.016,-0.003 -0.02,-0.007 -0.101,-0.055 -0.211,-0.114 -0.332,-0.18 -0.035,-0.02 -0.07,-0.039 -0.105,-0.059 -0.102,-0.054 -0.199,-0.113 -0.313,-0.175 -0.047,-0.028 -0.097,-0.059 -0.148,-0.086 -0.102,-0.059 -0.203,-0.118 -0.309,-0.184 -0.058,-0.035 -0.121,-0.074 -0.183,-0.109 -0.102,-0.063 -0.2,-0.125 -0.305,-0.192 -0.066,-0.043 -0.133,-0.086 -0.199,-0.129 -0.102,-0.066 -0.203,-0.132 -0.305,-0.203 -0.027,-0.019 -0.055,-0.039 -0.082,-0.054 -0.031,-0.024 -0.059,-0.043 -0.09,-0.067 -0.148,-0.101 -0.293,-0.211 -0.437,-0.32 -0.055,-0.039 -0.11,-0.082 -0.164,-0.125 -0.391,-0.305 -0.747,-0.621 -1.047,-0.949 -0.02,-0.024 -0.051,-0.047 -0.071,-0.071 -0.031,-0.039 -0.058,-0.074 -0.086,-0.109 -0.058,-0.066 -0.109,-0.133 -0.156,-0.199 -0.027,-0.032 -0.054,-0.063 -0.078,-0.094 -0.035,-0.051 -0.059,-0.098 -0.09,-0.145 -0.027,-0.043 -0.051,-0.082 -0.074,-0.121 -0.012,-0.019 -0.027,-0.039 -0.039,-0.058 -0.055,-0.106 -0.102,-0.207 -0.141,-0.313 -0.047,-0.133 -0.082,-0.265 -0.093,-0.398 -0.075,-0.699 0.257,-1.129 0.734,-1.391 l 2.965,-1.613 c -0.313,-0.348 -0.633,-0.695 -0.961,-1.047 -0.242,-0.262 -0.481,-0.527 -0.727,-0.801 -0.07,-0.078 -0.14,-0.152 -0.211,-0.23 -0.062,-0.071 -0.121,-0.145 -0.179,-0.215 -0.145,-0.164 -0.289,-0.332 -0.434,-0.508 -0.141,-0.172 -0.281,-0.348 -0.422,-0.527 -0.137,-0.18 -0.277,-0.364 -0.414,-0.547 -0.062,-0.094 -0.133,-0.176 -0.199,-0.27 -0.102,-0.14 -0.199,-0.297 -0.297,-0.449 -0.059,-0.09 -0.117,-0.176 -0.176,-0.265 -0.211,-0.333 -0.414,-0.672 -0.609,-1.036 -0.016,-0.031 -0.031,-0.066 -0.051,-0.097 -0.051,-0.098 -0.098,-0.203 -0.148,-0.301 -0.16,-0.32 -0.317,-0.66 -0.469,-1.012 -0.059,-0.144 -0.121,-0.297 -0.18,-0.445 -0.051,-0.129 -0.105,-0.246 -0.156,-0.375 -0.121,-0.34 -0.238,-0.688 -0.348,-1.051 -0.019,-0.137 -0.324,-2.527 0.11,-2.766 l 4.875,-2.648 c 0.027,-0.016 0.062,-0.023 0.097,-0.019 l 7.68803,1.082 c 0.07,0.007 0.703,0.121 1.14,1.007 0.051,0.098 0.633,1.254 1.153,2.297 l 4.051,-2.207 c 0,0.004 -0.004,0.004 -0.004,0.008 0.293,-0.164 0.554,-0.137 0.601,-0.129 l 7.67997,1.078 c 0.574,0.082 0.238,2.703 0.223,2.84 z" />
      <path
         d="m 120.293,-359.30401 c 2.402,0.336 3.535,-0.394 3.527,-4.49999 0,-0.008 -0.047,-0.187 0.121,-0.242 0.168,-0.055 5.219,-1.047 5.442,-3.125 0.21899,-2.07 -3.297,-2.688 -3.485,-2.719 -0.062,-0.023 -1.296,-0.433 -0.39,-1.187 2.117,-1.785 4.71099,-3.34 6.10899,-7.637 0.02,-0.141 0.356,-2.762 -0.222,-2.844 l -7.67199,-1.078 c -0.078,-0.012 -0.715,-0.078 -1.145,0.688 -0.078,0.132 -1.57,2.683 -1.898,3.3 -0.059,0.121 -0.129,0.305 -0.426,0.278 -0.293,-0.059 -0.375,-0.258 -0.434,-0.399 -0.328,-0.711 -1.832,-3.679 -1.91,-3.836 -0.426,-0.886 -1.062,-1 -1.133,-1.007 l -7.687,-1.082 c -0.578,-0.079 -0.231,2.636 -0.211,2.781 1.418,4.695 4.016,6.976 6.148,9.363 0.903,1.008 -0.332,1.07 -0.394,1.074 -0.188,-0.019 -3.703,-0.39 -3.477,1.742 0.231,2.145 5.289,4.555 5.457,4.657 0.168,0.101 0.121,0.269 0.121,0.277 0.008,4.10599 1.145,5.15599 3.559,5.49599"
         style="display:inline;fill:#f79420;fill-opacity:1;fill-rule:nonzero;stroke:#000000;stroke-width:0.13755362;stroke-miterlimit:4;stroke-dasharray:none;stroke-opacity:1"
         id="path182233"
         inkscape:connector-curvature="0" />
    </g>
  </g>
</svg>
