<?xml version="1.0" encoding="UTF-8" standalone="no"?>
<!-- Created with Inkscape (http://www.inkscape.org/) -->

<svg
   xmlns:dc="http://purl.org/dc/elements/1.1/"
   xmlns:cc="http://creativecommons.org/ns#"
   xmlns:rdf="http://www.w3.org/1999/02/22-rdf-syntax-ns#"
   xmlns:svg="http://www.w3.org/2000/svg"
   xmlns="http://www.w3.org/2000/svg"
   xmlns:sodipodi="http://sodipodi.sourceforge.net/DTD/sodipodi-0.dtd"
   xmlns:inkscape="http://www.inkscape.org/namespaces/inkscape"
   width="11.254011mm"
   height="10.620115mm"
   viewBox="0 0 11.254011 10.620116"
   version="1.1"
   id="svg679959"
   inkscape:version="0.92.3 (2405546, 2018-03-11)"
   sodipodi:docname="Mayor_black_f.svg">
  <defs
     id="defs679953">
    <clipPath
       clipPathUnits="userSpaceOnUse"
       id="clipPath173957">
      <path
         d="M 30.641,356.617 H 58.489 V 384.73 H 30.641 Z"
         id="path173955"
         inkscape:connector-curvature="0" />
    </clipPath>
    <clipPath
       clipPathUnits="userSpaceOnUse"
       id="clipPath173967">
      <path
         d="M 0,0 H 576 V 903 H 0 Z"
         id="path173965"
         inkscape:connector-curvature="0" />
    </clipPath>
    <clipPath
       clipPathUnits="userSpaceOnUse"
       id="clipPath173979">
      <path
         d="M 0,0 H 576 V 903 H 0 Z"
         id="path173977"
         inkscape:connector-curvature="0" />
    </clipPath>
    <clipPath
       clipPathUnits="userSpaceOnUse"
       id="clipPath173991">
      <path
         d="M 0,0 H 576 V 903 H 0 Z"
         id="path173989"
         inkscape:connector-curvature="0" />
    </clipPath>
    <clipPath
       clipPathUnits="userSpaceOnUse"
       id="clipPath174001">
      <path
         d="m 42.563,376.031 h 7.309 v 6.516 h -7.309 z"
         id="path173999"
         inkscape:connector-curvature="0" />
    </clipPath>
    <clipPath
       clipPathUnits="userSpaceOnUse"
       id="clipPath174011">
      <path
         d="M 0,0 H 576 V 903 H 0 Z"
         id="path174009"
         inkscape:connector-curvature="0" />
    </clipPath>
    <clipPath
       clipPathUnits="userSpaceOnUse"
       id="clipPath174023">
      <path
         d="M 0,0 H 576 V 903 H 0 Z"
         id="path174021"
         inkscape:connector-curvature="0" />
    </clipPath>
    <clipPath
       clipPathUnits="userSpaceOnUse"
       id="clipPath174035">
      <path
         d="M 0,0 H 576 V 903 H 0 Z"
         id="path174033"
         inkscape:connector-curvature="0" />
    </clipPath>
    <clipPath
       clipPathUnits="userSpaceOnUse"
       id="clipPath174045">
      <path
         d="m 42,376 h 8 v 7 h -8 z"
         id="path174043"
         inkscape:connector-curvature="0" />
    </clipPath>
    <clipPath
       clipPathUnits="userSpaceOnUse"
       id="clipPath174055">
      <path
         d="M 0,0 H 576 V 903 H 0 Z"
         id="path174053"
         inkscape:connector-curvature="0" />
    </clipPath>
    <clipPath
       clipPathUnits="userSpaceOnUse"
       id="clipPath174067">
      <path
         d="M 0,0 H 576 V 903 H 0 Z"
         id="path174065"
         inkscape:connector-curvature="0" />
    </clipPath>
    <clipPath
       clipPathUnits="userSpaceOnUse"
       id="clipPath174077">
      <path
         d="m 42,376 h 8 v 7 h -8 z"
         id="path174075"
         inkscape:connector-curvature="0" />
    </clipPath>
    <clipPath
       clipPathUnits="userSpaceOnUse"
       id="clipPath174087">
      <path
         d="M 0,0 H 576 V 903 H 0 Z"
         id="path174085"
         inkscape:connector-curvature="0" />
    </clipPath>
    <clipPath
       clipPathUnits="userSpaceOnUse"
       id="clipPath174097">
      <path
         d="m 42,376 h 8 v 7 h -8 z"
         id="path174095"
         inkscape:connector-curvature="0" />
    </clipPath>
    <clipPath
       clipPathUnits="userSpaceOnUse"
       id="clipPath174103">
      <path
         d="M 49.871,382.547 45,379.895 c -0.184,-0.098 -0.379,-0.266 -0.547,-0.559 -0.078,-0.137 -1.57,-2.684 -1.89,-3.305 l 4.875,2.653 c 0.316,0.621 1.812,3.168 1.89,3.3 0.164,0.293 0.36,0.465 0.543,0.563"
         id="path174101"
         inkscape:connector-curvature="0" />
    </clipPath>
    <clipPath
       clipPathUnits="userSpaceOnUse"
       id="clipPath174113">
      <path
         d="M 0,0 H 576 V 903 H 0 Z"
         id="path174111"
         inkscape:connector-curvature="0" />
    </clipPath>
    <clipPath
       clipPathUnits="userSpaceOnUse"
       id="clipPath174125">
      <path
         d="M 0,0 H 576 V 903 H 0 Z"
         id="path174123"
         inkscape:connector-curvature="0" />
    </clipPath>
    <clipPath
       clipPathUnits="userSpaceOnUse"
       id="clipPath174137">
      <path
         d="M 0,0 H 576 V 903 H 0 Z"
         id="path174135"
         inkscape:connector-curvature="0" />
    </clipPath>
    <clipPath
       clipPathUnits="userSpaceOnUse"
       id="clipPath174147">
      <path
         d="m 42.563,376.031 h 7.309 v 6.516 h -7.309 z"
         id="path174145"
         inkscape:connector-curvature="0" />
    </clipPath>
    <clipPath
       clipPathUnits="userSpaceOnUse"
       id="clipPath174157">
      <path
         d="M 0,0 H 576 V 903 H 0 Z"
         id="path174155"
         inkscape:connector-curvature="0" />
    </clipPath>
    <clipPath
       clipPathUnits="userSpaceOnUse"
       id="clipPath174169">
      <path
         d="M 0,0 H 576 V 903 H 0 Z"
         id="path174167"
         inkscape:connector-curvature="0" />
    </clipPath>
    <clipPath
       clipPathUnits="userSpaceOnUse"
       id="clipPath174181">
      <path
         d="M 0,0 H 576 V 903 H 0 Z"
         id="path174179"
         inkscape:connector-curvature="0" />
    </clipPath>
    <clipPath
       clipPathUnits="userSpaceOnUse"
       id="clipPath174193">
      <path
         d="m 42.383,375.797 h 5.051 v 2.887 h -5.051 z"
         id="path174191"
         inkscape:connector-curvature="0" />
    </clipPath>
    <clipPath
       clipPathUnits="userSpaceOnUse"
       id="clipPath174203">
      <path
         d="M 0,0 H 576 V 903 H 0 Z"
         id="path174201"
         inkscape:connector-curvature="0" />
    </clipPath>
    <clipPath
       clipPathUnits="userSpaceOnUse"
       id="clipPath174215">
      <path
         d="M 0,0 H 576 V 903 H 0 Z"
         id="path174213"
         inkscape:connector-curvature="0" />
    </clipPath>
    <clipPath
       clipPathUnits="userSpaceOnUse"
       id="clipPath174227">
      <path
         d="M 0,0 H 576 V 903 H 0 Z"
         id="path174225"
         inkscape:connector-curvature="0" />
    </clipPath>
    <clipPath
       clipPathUnits="userSpaceOnUse"
       id="clipPath174237">
      <path
         d="m 42,375 h 6 v 4 h -6 z"
         id="path174235"
         inkscape:connector-curvature="0" />
    </clipPath>
    <clipPath
       clipPathUnits="userSpaceOnUse"
       id="clipPath174247">
      <path
         d="M 0,0 H 576 V 903 H 0 Z"
         id="path174245"
         inkscape:connector-curvature="0" />
    </clipPath>
    <clipPath
       clipPathUnits="userSpaceOnUse"
       id="clipPath174259">
      <path
         d="M 0,0 H 576 V 903 H 0 Z"
         id="path174257"
         inkscape:connector-curvature="0" />
    </clipPath>
    <clipPath
       clipPathUnits="userSpaceOnUse"
       id="clipPath174269">
      <path
         d="m 42,375 h 6 v 4 h -6 z"
         id="path174267"
         inkscape:connector-curvature="0" />
    </clipPath>
    <clipPath
       clipPathUnits="userSpaceOnUse"
       id="clipPath174279">
      <path
         d="M 0,0 H 576 V 903 H 0 Z"
         id="path174277"
         inkscape:connector-curvature="0" />
    </clipPath>
    <clipPath
       clipPathUnits="userSpaceOnUse"
       id="clipPath174289">
      <path
         d="m 42,375 h 6 v 4 h -6 z"
         id="path174287"
         inkscape:connector-curvature="0" />
    </clipPath>
    <clipPath
       clipPathUnits="userSpaceOnUse"
       id="clipPath174295">
      <path
         d="m 42.383,375.797 4.871,2.648 c 0.105,0.059 0.144,0.16 0.184,0.239 l -4.875,-2.653 c -0.036,-0.078 -0.079,-0.176 -0.18,-0.234"
         id="path174293"
         inkscape:connector-curvature="0" />
    </clipPath>
    <clipPath
       clipPathUnits="userSpaceOnUse"
       id="clipPath174305">
      <path
         d="M 0,0 H 576 V 903 H 0 Z"
         id="path174303"
         inkscape:connector-curvature="0" />
    </clipPath>
    <clipPath
       clipPathUnits="userSpaceOnUse"
       id="clipPath174317">
      <path
         d="M 0,0 H 576 V 903 H 0 Z"
         id="path174315"
         inkscape:connector-curvature="0" />
    </clipPath>
    <clipPath
       clipPathUnits="userSpaceOnUse"
       id="clipPath174329">
      <path
         d="M 0,0 H 576 V 903 H 0 Z"
         id="path174327"
         inkscape:connector-curvature="0" />
    </clipPath>
    <clipPath
       clipPathUnits="userSpaceOnUse"
       id="clipPath174339">
      <path
         d="m 42.383,375.797 h 5.051 v 2.887 h -5.051 z"
         id="path174337"
         inkscape:connector-curvature="0" />
    </clipPath>
    <clipPath
       clipPathUnits="userSpaceOnUse"
       id="clipPath174349">
      <path
         d="M 0,0 H 576 V 903 H 0 Z"
         id="path174347"
         inkscape:connector-curvature="0" />
    </clipPath>
    <clipPath
       clipPathUnits="userSpaceOnUse"
       id="clipPath174361">
      <path
         d="M 0,0 H 576 V 903 H 0 Z"
         id="path174359"
         inkscape:connector-curvature="0" />
    </clipPath>
    <clipPath
       clipPathUnits="userSpaceOnUse"
       id="clipPath174373">
      <path
         d="M 0,0 H 576 V 903 H 0 Z"
         id="path174371"
         inkscape:connector-curvature="0" />
    </clipPath>
    <clipPath
       clipPathUnits="userSpaceOnUse"
       id="clipPath174385">
      <path
         d="m 45.789,361.418 h 8.703 v 3.973 h -8.703 z"
         id="path174383"
         inkscape:connector-curvature="0" />
    </clipPath>
    <clipPath
       clipPathUnits="userSpaceOnUse"
       id="clipPath174395">
      <path
         d="M 0,0 H 576 V 903 H 0 Z"
         id="path174393"
         inkscape:connector-curvature="0" />
    </clipPath>
    <clipPath
       clipPathUnits="userSpaceOnUse"
       id="clipPath174407">
      <path
         d="M 0,0 H 576 V 903 H 0 Z"
         id="path174405"
         inkscape:connector-curvature="0" />
    </clipPath>
    <clipPath
       clipPathUnits="userSpaceOnUse"
       id="clipPath174419">
      <path
         d="M 0,0 H 576 V 903 H 0 Z"
         id="path174417"
         inkscape:connector-curvature="0" />
    </clipPath>
    <clipPath
       clipPathUnits="userSpaceOnUse"
       id="clipPath174429">
      <path
         d="m 45,361 h 10 v 5 H 45 Z"
         id="path174427"
         inkscape:connector-curvature="0" />
    </clipPath>
    <clipPath
       clipPathUnits="userSpaceOnUse"
       id="clipPath174439">
      <path
         d="M 0,0 H 576 V 903 H 0 Z"
         id="path174437"
         inkscape:connector-curvature="0" />
    </clipPath>
    <clipPath
       clipPathUnits="userSpaceOnUse"
       id="clipPath174451">
      <path
         d="M 0,0 H 576 V 903 H 0 Z"
         id="path174449"
         inkscape:connector-curvature="0" />
    </clipPath>
    <clipPath
       clipPathUnits="userSpaceOnUse"
       id="clipPath174461">
      <path
         d="m 45,361 h 10 v 5 H 45 Z"
         id="path174459"
         inkscape:connector-curvature="0" />
    </clipPath>
    <clipPath
       clipPathUnits="userSpaceOnUse"
       id="clipPath174471">
      <path
         d="M 0,0 H 576 V 903 H 0 Z"
         id="path174469"
         inkscape:connector-curvature="0" />
    </clipPath>
    <clipPath
       clipPathUnits="userSpaceOnUse"
       id="clipPath174481">
      <path
         d="m 45,361 h 10 v 5 H 45 Z"
         id="path174479"
         inkscape:connector-curvature="0" />
    </clipPath>
    <clipPath
       clipPathUnits="userSpaceOnUse"
       id="clipPath174487">
      <path
         d="m 50.66,364.066 -4.871,-2.648 c 0.012,0.004 0.024,0.012 0.035,0.016 0.11,0.035 2.235,0.457 3.797,1.304 l 4.871,2.653 c -1.562,-0.852 -3.687,-1.274 -3.793,-1.309 -0.015,-0.004 -0.027,-0.012 -0.039,-0.016"
         id="path174485"
         inkscape:connector-curvature="0" />
    </clipPath>
    <clipPath
       clipPathUnits="userSpaceOnUse"
       id="clipPath174497">
      <path
         d="M 0,0 H 576 V 903 H 0 Z"
         id="path174495"
         inkscape:connector-curvature="0" />
    </clipPath>
    <clipPath
       clipPathUnits="userSpaceOnUse"
       id="clipPath174509">
      <path
         d="M 0,0 H 576 V 903 H 0 Z"
         id="path174507"
         inkscape:connector-curvature="0" />
    </clipPath>
    <clipPath
       clipPathUnits="userSpaceOnUse"
       id="clipPath174521">
      <path
         d="M 0,0 H 576 V 903 H 0 Z"
         id="path174519"
         inkscape:connector-curvature="0" />
    </clipPath>
    <clipPath
       clipPathUnits="userSpaceOnUse"
       id="clipPath174531">
      <path
         d="m 45.789,361.418 h 8.703 v 3.973 h -8.703 z"
         id="path174529"
         inkscape:connector-curvature="0" />
    </clipPath>
    <clipPath
       clipPathUnits="userSpaceOnUse"
       id="clipPath174541">
      <path
         d="M 0,0 H 576 V 903 H 0 Z"
         id="path174539"
         inkscape:connector-curvature="0" />
    </clipPath>
    <clipPath
       clipPathUnits="userSpaceOnUse"
       id="clipPath174553">
      <path
         d="M 0,0 H 576 V 903 H 0 Z"
         id="path174551"
         inkscape:connector-curvature="0" />
    </clipPath>
    <clipPath
       clipPathUnits="userSpaceOnUse"
       id="clipPath174565">
      <path
         d="M 0,0 H 576 V 903 H 0 Z"
         id="path174563"
         inkscape:connector-curvature="0" />
    </clipPath>
    <clipPath
       clipPathUnits="userSpaceOnUse"
       id="clipPath174585">
      <path
         d="m 30.641,379.297 h 5.105 v 5.414 h -5.105 z"
         id="path174583"
         inkscape:connector-curvature="0" />
    </clipPath>
    <clipPath
       clipPathUnits="userSpaceOnUse"
       id="clipPath174595">
      <path
         d="M 0,0 H 576 V 903 H 0 Z"
         id="path174593"
         inkscape:connector-curvature="0" />
    </clipPath>
    <clipPath
       clipPathUnits="userSpaceOnUse"
       id="clipPath174607">
      <path
         d="M 0,0 H 576 V 903 H 0 Z"
         id="path174605"
         inkscape:connector-curvature="0" />
    </clipPath>
    <clipPath
       clipPathUnits="userSpaceOnUse"
       id="clipPath174619">
      <path
         d="M 0,0 H 576 V 903 H 0 Z"
         id="path174617"
         inkscape:connector-curvature="0" />
    </clipPath>
    <clipPath
       clipPathUnits="userSpaceOnUse"
       id="clipPath174629">
      <path
         d="m 30,379 h 6 v 6 h -6 z"
         id="path174627"
         inkscape:connector-curvature="0" />
    </clipPath>
    <clipPath
       clipPathUnits="userSpaceOnUse"
       id="clipPath174639">
      <path
         d="M 0,0 H 576 V 903 H 0 Z"
         id="path174637"
         inkscape:connector-curvature="0" />
    </clipPath>
    <clipPath
       clipPathUnits="userSpaceOnUse"
       id="clipPath174651">
      <path
         d="M 0,0 H 576 V 903 H 0 Z"
         id="path174649"
         inkscape:connector-curvature="0" />
    </clipPath>
    <clipPath
       clipPathUnits="userSpaceOnUse"
       id="clipPath174661">
      <path
         d="m 30,379 h 6 v 6 h -6 z"
         id="path174659"
         inkscape:connector-curvature="0" />
    </clipPath>
    <clipPath
       clipPathUnits="userSpaceOnUse"
       id="clipPath174671">
      <path
         d="M 0,0 H 576 V 903 H 0 Z"
         id="path174669"
         inkscape:connector-curvature="0" />
    </clipPath>
    <clipPath
       clipPathUnits="userSpaceOnUse"
       id="clipPath174681">
      <path
         d="m 30,379 h 6 v 6 h -6 z"
         id="path174679"
         inkscape:connector-curvature="0" />
    </clipPath>
    <clipPath
       clipPathUnits="userSpaceOnUse"
       id="clipPath174687">
      <path
         d="m 35.746,384.711 -4.871,-2.648 c -0.437,-0.239 -0.133,-2.629 -0.113,-2.766 l 4.871,2.652 c -0.016,0.133 -0.32,2.528 0.113,2.762"
         id="path174685"
         inkscape:connector-curvature="0" />
    </clipPath>
    <clipPath
       clipPathUnits="userSpaceOnUse"
       id="clipPath174697">
      <path
         d="M 0,0 H 576 V 903 H 0 Z"
         id="path174695"
         inkscape:connector-curvature="0" />
    </clipPath>
    <clipPath
       clipPathUnits="userSpaceOnUse"
       id="clipPath174709">
      <path
         d="M 0,0 H 576 V 903 H 0 Z"
         id="path174707"
         inkscape:connector-curvature="0" />
    </clipPath>
    <clipPath
       clipPathUnits="userSpaceOnUse"
       id="clipPath174721">
      <path
         d="M 0,0 H 576 V 903 H 0 Z"
         id="path174719"
         inkscape:connector-curvature="0" />
    </clipPath>
    <clipPath
       clipPathUnits="userSpaceOnUse"
       id="clipPath174731">
      <path
         d="m 30.641,379.297 h 5.105 v 5.414 h -5.105 z"
         id="path174729"
         inkscape:connector-curvature="0" />
    </clipPath>
    <clipPath
       clipPathUnits="userSpaceOnUse"
       id="clipPath174741">
      <path
         d="M 0,0 H 576 V 903 H 0 Z"
         id="path174739"
         inkscape:connector-curvature="0" />
    </clipPath>
    <clipPath
       clipPathUnits="userSpaceOnUse"
       id="clipPath174753">
      <path
         d="M 0,0 H 576 V 903 H 0 Z"
         id="path174751"
         inkscape:connector-curvature="0" />
    </clipPath>
    <clipPath
       clipPathUnits="userSpaceOnUse"
       id="clipPath174765">
      <path
         d="M 0,0 H 576 V 903 H 0 Z"
         id="path174763"
         inkscape:connector-curvature="0" />
    </clipPath>
    <clipPath
       clipPathUnits="userSpaceOnUse"
       id="clipPath174777">
      <path
         d="m 42.168,356.617 h 7.063 v 2.922 h -7.063 z"
         id="path174775"
         inkscape:connector-curvature="0" />
    </clipPath>
    <clipPath
       clipPathUnits="userSpaceOnUse"
       id="clipPath174787">
      <path
         d="M 0,0 H 576 V 903 H 0 Z"
         id="path174785"
         inkscape:connector-curvature="0" />
    </clipPath>
    <clipPath
       clipPathUnits="userSpaceOnUse"
       id="clipPath174799">
      <path
         d="M 0,0 H 576 V 903 H 0 Z"
         id="path174797"
         inkscape:connector-curvature="0" />
    </clipPath>
    <clipPath
       clipPathUnits="userSpaceOnUse"
       id="clipPath174811">
      <path
         d="M 0,0 H 576 V 903 H 0 Z"
         id="path174809"
         inkscape:connector-curvature="0" />
    </clipPath>
    <clipPath
       clipPathUnits="userSpaceOnUse"
       id="clipPath174821">
      <path
         d="m 42,356 h 8 v 4 h -8 z"
         id="path174819"
         inkscape:connector-curvature="0" />
    </clipPath>
    <clipPath
       clipPathUnits="userSpaceOnUse"
       id="clipPath174831">
      <path
         d="M 0,0 H 576 V 903 H 0 Z"
         id="path174829"
         inkscape:connector-curvature="0" />
    </clipPath>
    <clipPath
       clipPathUnits="userSpaceOnUse"
       id="clipPath174843">
      <path
         d="M 0,0 H 576 V 903 H 0 Z"
         id="path174841"
         inkscape:connector-curvature="0" />
    </clipPath>
    <clipPath
       clipPathUnits="userSpaceOnUse"
       id="clipPath174853">
      <path
         d="m 42,356 h 8 v 4 h -8 z"
         id="path174851"
         inkscape:connector-curvature="0" />
    </clipPath>
    <clipPath
       clipPathUnits="userSpaceOnUse"
       id="clipPath174863">
      <path
         d="M 0,0 H 576 V 903 H 0 Z"
         id="path174861"
         inkscape:connector-curvature="0" />
    </clipPath>
    <clipPath
       clipPathUnits="userSpaceOnUse"
       id="clipPath174873">
      <path
         d="m 42,356 h 8 v 4 h -8 z"
         id="path174871"
         inkscape:connector-curvature="0" />
    </clipPath>
    <clipPath
       clipPathUnits="userSpaceOnUse"
       id="clipPath174879">
      <path
         d="m 44.359,356.891 4.871,2.648 c -0.55,-0.301 -1.281,-0.324 -2.191,-0.199 l -4.871,-2.649 c 0.91,-0.128 1.637,-0.101 2.191,0.2"
         id="path174877"
         inkscape:connector-curvature="0" />
    </clipPath>
    <clipPath
       clipPathUnits="userSpaceOnUse"
       id="clipPath174889">
      <path
         d="M 0,0 H 576 V 903 H 0 Z"
         id="path174887"
         inkscape:connector-curvature="0" />
    </clipPath>
    <clipPath
       clipPathUnits="userSpaceOnUse"
       id="clipPath174901">
      <path
         d="M 0,0 H 576 V 903 H 0 Z"
         id="path174899"
         inkscape:connector-curvature="0" />
    </clipPath>
    <clipPath
       clipPathUnits="userSpaceOnUse"
       id="clipPath174913">
      <path
         d="M 0,0 H 576 V 903 H 0 Z"
         id="path174911"
         inkscape:connector-curvature="0" />
    </clipPath>
    <clipPath
       clipPathUnits="userSpaceOnUse"
       id="clipPath174923">
      <path
         d="m 42.168,356.617 h 7.063 v 2.922 h -7.063 z"
         id="path174921"
         inkscape:connector-curvature="0" />
    </clipPath>
    <clipPath
       clipPathUnits="userSpaceOnUse"
       id="clipPath174933">
      <path
         d="M 0,0 H 576 V 903 H 0 Z"
         id="path174931"
         inkscape:connector-curvature="0" />
    </clipPath>
    <clipPath
       clipPathUnits="userSpaceOnUse"
       id="clipPath174945">
      <path
         d="M 0,0 H 576 V 903 H 0 Z"
         id="path174943"
         inkscape:connector-curvature="0" />
    </clipPath>
    <clipPath
       clipPathUnits="userSpaceOnUse"
       id="clipPath174957">
      <path
         d="M 0,0 H 576 V 903 H 0 Z"
         id="path174955"
         inkscape:connector-curvature="0" />
    </clipPath>
    <clipPath
       clipPathUnits="userSpaceOnUse"
       id="clipPath174973">
      <path
         d="m 30.762,368.984 h 11.352 v 12.965 H 30.762 Z"
         id="path174971"
         inkscape:connector-curvature="0" />
    </clipPath>
    <clipPath
       clipPathUnits="userSpaceOnUse"
       id="clipPath174983">
      <path
         d="M 0,0 H 576 V 903 H 0 Z"
         id="path174981"
         inkscape:connector-curvature="0" />
    </clipPath>
    <clipPath
       clipPathUnits="userSpaceOnUse"
       id="clipPath174995">
      <path
         d="M 0,0 H 576 V 903 H 0 Z"
         id="path174993"
         inkscape:connector-curvature="0" />
    </clipPath>
    <clipPath
       clipPathUnits="userSpaceOnUse"
       id="clipPath175007">
      <path
         d="M 0,0 H 576 V 903 H 0 Z"
         id="path175005"
         inkscape:connector-curvature="0" />
    </clipPath>
    <clipPath
       clipPathUnits="userSpaceOnUse"
       id="clipPath175017">
      <path
         d="m 30,368 h 13 v 14 H 30 Z"
         id="path175015"
         inkscape:connector-curvature="0" />
    </clipPath>
    <clipPath
       clipPathUnits="userSpaceOnUse"
       id="clipPath175027">
      <path
         d="M 0,0 H 576 V 903 H 0 Z"
         id="path175025"
         inkscape:connector-curvature="0" />
    </clipPath>
    <clipPath
       clipPathUnits="userSpaceOnUse"
       id="clipPath175039">
      <path
         d="M 0,0 H 576 V 903 H 0 Z"
         id="path175037"
         inkscape:connector-curvature="0" />
    </clipPath>
    <clipPath
       clipPathUnits="userSpaceOnUse"
       id="clipPath175049">
      <path
         d="m 30,368 h 13 v 14 H 30 Z"
         id="path175047"
         inkscape:connector-curvature="0" />
    </clipPath>
    <clipPath
       clipPathUnits="userSpaceOnUse"
       id="clipPath175059">
      <path
         d="M 0,0 H 576 V 903 H 0 Z"
         id="path175057"
         inkscape:connector-curvature="0" />
    </clipPath>
    <clipPath
       clipPathUnits="userSpaceOnUse"
       id="clipPath175069">
      <path
         d="m 30,368 h 13 v 14 H 30 Z"
         id="path175067"
         inkscape:connector-curvature="0" />
    </clipPath>
    <clipPath
       clipPathUnits="userSpaceOnUse"
       id="clipPath175075">
      <path
         d="m 37.02,368.984 4.871,2.653 c 0.242,0.133 0.382,0.402 -0.106,0.949 -2.137,2.387 -4.734,4.668 -6.152,9.363 l -4.871,-2.652 c 1.418,-4.692 4.015,-6.977 6.152,-9.359 0.488,-0.551 0.348,-0.821 0.106,-0.954"
         id="path175073"
         inkscape:connector-curvature="0" />
    </clipPath>
    <clipPath
       clipPathUnits="userSpaceOnUse"
       id="clipPath175085">
      <path
         d="M 0,0 H 576 V 903 H 0 Z"
         id="path175083"
         inkscape:connector-curvature="0" />
    </clipPath>
    <clipPath
       clipPathUnits="userSpaceOnUse"
       id="clipPath175097">
      <path
         d="M 0,0 H 576 V 903 H 0 Z"
         id="path175095"
         inkscape:connector-curvature="0" />
    </clipPath>
    <clipPath
       clipPathUnits="userSpaceOnUse"
       id="clipPath175109">
      <path
         d="M 0,0 H 576 V 903 H 0 Z"
         id="path175107"
         inkscape:connector-curvature="0" />
    </clipPath>
    <clipPath
       clipPathUnits="userSpaceOnUse"
       id="clipPath175119">
      <path
         d="m 30.762,368.984 h 11.352 v 12.965 H 30.762 Z"
         id="path175117"
         inkscape:connector-curvature="0" />
    </clipPath>
    <clipPath
       clipPathUnits="userSpaceOnUse"
       id="clipPath175129">
      <path
         d="M 0,0 H 576 V 903 H 0 Z"
         id="path175127"
         inkscape:connector-curvature="0" />
    </clipPath>
    <clipPath
       clipPathUnits="userSpaceOnUse"
       id="clipPath175141">
      <path
         d="M 0,0 H 576 V 903 H 0 Z"
         id="path175139"
         inkscape:connector-curvature="0" />
    </clipPath>
    <clipPath
       clipPathUnits="userSpaceOnUse"
       id="clipPath175153">
      <path
         d="M 0,0 H 576 V 903 H 0 Z"
         id="path175151"
         inkscape:connector-curvature="0" />
    </clipPath>
    <clipPath
       clipPathUnits="userSpaceOnUse"
       id="clipPath175181">
      <path
         d="m 38.609,356.691 h 8.43 v 8.145 h -8.43 z"
         id="path175179"
         inkscape:connector-curvature="0" />
    </clipPath>
    <clipPath
       clipPathUnits="userSpaceOnUse"
       id="clipPath175191">
      <path
         d="M 0,0 H 576 V 903 H 0 Z"
         id="path175189"
         inkscape:connector-curvature="0" />
    </clipPath>
    <clipPath
       clipPathUnits="userSpaceOnUse"
       id="clipPath175203">
      <path
         d="M 0,0 H 576 V 903 H 0 Z"
         id="path175201"
         inkscape:connector-curvature="0" />
    </clipPath>
    <clipPath
       clipPathUnits="userSpaceOnUse"
       id="clipPath175215">
      <path
         d="M 0,0 H 576 V 903 H 0 Z"
         id="path175213"
         inkscape:connector-curvature="0" />
    </clipPath>
    <clipPath
       clipPathUnits="userSpaceOnUse"
       id="clipPath175225">
      <path
         d="m 38,356 h 10 v 9 H 38 Z"
         id="path175223"
         inkscape:connector-curvature="0" />
    </clipPath>
    <clipPath
       clipPathUnits="userSpaceOnUse"
       id="clipPath175235">
      <path
         d="M 0,0 H 576 V 903 H 0 Z"
         id="path175233"
         inkscape:connector-curvature="0" />
    </clipPath>
    <clipPath
       clipPathUnits="userSpaceOnUse"
       id="clipPath175247">
      <path
         d="M 0,0 H 576 V 903 H 0 Z"
         id="path175245"
         inkscape:connector-curvature="0" />
    </clipPath>
    <clipPath
       clipPathUnits="userSpaceOnUse"
       id="clipPath175257">
      <path
         d="m 38,356 h 10 v 9 H 38 Z"
         id="path175255"
         inkscape:connector-curvature="0" />
    </clipPath>
    <clipPath
       clipPathUnits="userSpaceOnUse"
       id="clipPath175267">
      <path
         d="M 0,0 H 576 V 903 H 0 Z"
         id="path175265"
         inkscape:connector-curvature="0" />
    </clipPath>
    <clipPath
       clipPathUnits="userSpaceOnUse"
       id="clipPath175277">
      <path
         d="m 38,356 h 10 v 9 H 38 Z"
         id="path175275"
         inkscape:connector-curvature="0" />
    </clipPath>
    <clipPath
       clipPathUnits="userSpaceOnUse"
       id="clipPath175283">
      <path
         d="m 43.48,364.836 -4.871,-2.648 c 0.008,-4.11 1.157,-5.161 3.559,-5.497 l 4.871,2.649 c -2.402,0.34 -3.551,1.39 -3.559,5.496"
         id="path175281"
         inkscape:connector-curvature="0" />
    </clipPath>
    <clipPath
       clipPathUnits="userSpaceOnUse"
       id="clipPath175293">
      <path
         d="M 0,0 H 576 V 903 H 0 Z"
         id="path175291"
         inkscape:connector-curvature="0" />
    </clipPath>
    <clipPath
       clipPathUnits="userSpaceOnUse"
       id="clipPath175305">
      <path
         d="M 0,0 H 576 V 903 H 0 Z"
         id="path175303"
         inkscape:connector-curvature="0" />
    </clipPath>
    <clipPath
       clipPathUnits="userSpaceOnUse"
       id="clipPath175317">
      <path
         d="M 0,0 H 576 V 903 H 0 Z"
         id="path175315"
         inkscape:connector-curvature="0" />
    </clipPath>
    <clipPath
       clipPathUnits="userSpaceOnUse"
       id="clipPath175327">
      <path
         d="m 38.609,356.691 h 8.43 v 8.145 h -8.43 z"
         id="path175325"
         inkscape:connector-curvature="0" />
    </clipPath>
    <clipPath
       clipPathUnits="userSpaceOnUse"
       id="clipPath175337">
      <path
         d="M 0,0 H 576 V 903 H 0 Z"
         id="path175335"
         inkscape:connector-curvature="0" />
    </clipPath>
    <clipPath
       clipPathUnits="userSpaceOnUse"
       id="clipPath175349">
      <path
         d="M 0,0 H 576 V 903 H 0 Z"
         id="path175347"
         inkscape:connector-curvature="0" />
    </clipPath>
    <clipPath
       clipPathUnits="userSpaceOnUse"
       id="clipPath175361">
      <path
         d="M 0,0 H 576 V 903 H 0 Z"
         id="path175359"
         inkscape:connector-curvature="0" />
    </clipPath>
    <clipPath
       clipPathUnits="userSpaceOnUse"
       id="clipPath175387">
      <path
         d="m 33.031,362.188 h 10.461 v 8.973 H 33.031 Z"
         id="path175385"
         inkscape:connector-curvature="0" />
    </clipPath>
    <clipPath
       clipPathUnits="userSpaceOnUse"
       id="clipPath175397">
      <path
         d="M 0,0 H 576 V 903 H 0 Z"
         id="path175395"
         inkscape:connector-curvature="0" />
    </clipPath>
    <clipPath
       clipPathUnits="userSpaceOnUse"
       id="clipPath175409">
      <path
         d="M 0,0 H 576 V 903 H 0 Z"
         id="path175407"
         inkscape:connector-curvature="0" />
    </clipPath>
    <clipPath
       clipPathUnits="userSpaceOnUse"
       id="clipPath175421">
      <path
         d="M 0,0 H 576 V 903 H 0 Z"
         id="path175419"
         inkscape:connector-curvature="0" />
    </clipPath>
    <clipPath
       clipPathUnits="userSpaceOnUse"
       id="clipPath175431">
      <path
         d="m 33,362 h 11 v 10 H 33 Z"
         id="path175429"
         inkscape:connector-curvature="0" />
    </clipPath>
    <clipPath
       clipPathUnits="userSpaceOnUse"
       id="clipPath175441">
      <path
         d="M 0,0 H 576 V 903 H 0 Z"
         id="path175439"
         inkscape:connector-curvature="0" />
    </clipPath>
    <clipPath
       clipPathUnits="userSpaceOnUse"
       id="clipPath175453">
      <path
         d="M 0,0 H 576 V 903 H 0 Z"
         id="path175451"
         inkscape:connector-curvature="0" />
    </clipPath>
    <clipPath
       clipPathUnits="userSpaceOnUse"
       id="clipPath175463">
      <path
         d="m 33,362 h 11 v 10 H 33 Z"
         id="path175461"
         inkscape:connector-curvature="0" />
    </clipPath>
    <clipPath
       clipPathUnits="userSpaceOnUse"
       id="clipPath175473">
      <path
         d="M 0,0 H 576 V 903 H 0 Z"
         id="path175471"
         inkscape:connector-curvature="0" />
    </clipPath>
    <clipPath
       clipPathUnits="userSpaceOnUse"
       id="clipPath175483">
      <path
         d="m 33,362 h 11 v 10 H 33 Z"
         id="path175481"
         inkscape:connector-curvature="0" />
    </clipPath>
    <clipPath
       clipPathUnits="userSpaceOnUse"
       id="clipPath175489">
      <path
         d="m 38.648,371.16 -4.871,-2.648 c -0.48,-0.266 -0.808,-0.696 -0.734,-1.395 0.227,-2.14 5.285,-4.554 5.453,-4.656 0.168,-0.102 0.117,-0.266 0.113,-0.273 l 4.871,2.648 c 0.004,0.012 0.055,0.176 -0.113,0.277 -0.168,0.102 -5.222,2.516 -5.453,4.657 -0.074,0.699 0.254,1.128 0.734,1.39"
         id="path175487"
         inkscape:connector-curvature="0" />
    </clipPath>
    <clipPath
       clipPathUnits="userSpaceOnUse"
       id="clipPath175499">
      <path
         d="M 0,0 H 576 V 903 H 0 Z"
         id="path175497"
         inkscape:connector-curvature="0" />
    </clipPath>
    <clipPath
       clipPathUnits="userSpaceOnUse"
       id="clipPath175511">
      <path
         d="M 0,0 H 576 V 903 H 0 Z"
         id="path175509"
         inkscape:connector-curvature="0" />
    </clipPath>
    <clipPath
       clipPathUnits="userSpaceOnUse"
       id="clipPath175523">
      <path
         d="M 0,0 H 576 V 903 H 0 Z"
         id="path175521"
         inkscape:connector-curvature="0" />
    </clipPath>
    <clipPath
       clipPathUnits="userSpaceOnUse"
       id="clipPath175533">
      <path
         d="m 33.031,362.188 h 10.461 v 8.973 H 33.031 Z"
         id="path175531"
         inkscape:connector-curvature="0" />
    </clipPath>
    <clipPath
       clipPathUnits="userSpaceOnUse"
       id="clipPath175543">
      <path
         d="M 0,0 H 576 V 903 H 0 Z"
         id="path175541"
         inkscape:connector-curvature="0" />
    </clipPath>
    <clipPath
       clipPathUnits="userSpaceOnUse"
       id="clipPath175555">
      <path
         d="M 0,0 H 576 V 903 H 0 Z"
         id="path175553"
         inkscape:connector-curvature="0" />
    </clipPath>
    <clipPath
       clipPathUnits="userSpaceOnUse"
       id="clipPath175567">
      <path
         d="M 0,0 H 576 V 903 H 0 Z"
         id="path175565"
         inkscape:connector-curvature="0" />
    </clipPath>
  </defs>
  <sodipodi:namedview
     id="base"
     pagecolor="#ffffff"
     bordercolor="#666666"
     borderopacity="1.0"
     inkscape:pageopacity="0.0"
     inkscape:pageshadow="2"
     inkscape:zoom="15.839192"
     inkscape:cx="29.687013"
     inkscape:cy="22.156118"
     inkscape:document-units="mm"
     inkscape:current-layer="layer1"
     showgrid="false"
     inkscape:window-width="1920"
     inkscape:window-height="1017"
     inkscape:window-x="-8"
     inkscape:window-y="-8"
     inkscape:window-maximized="1" />
  <metadata
     id="metadata679956">
    <rdf:RDF>
      <cc:Work
         rdf:about="">
        <dc:format>image/svg+xml</dc:format>
        <dc:type
           rdf:resource="http://purl.org/dc/dcmitype/StillImage" />
        <dc:title />
      </cc:Work>
    </rdf:RDF>
  </metadata>
  <g
     inkscape:label="Ebene 1"
     inkscape:groupmode="layer"
     id="layer1"
     transform="translate(-84.885273,-128.28705)">
    <g
       id="g1170"
       inkscape:label="Mayor_black"
       transform="matrix(1.1295118,0,0,1.0562234,-11.003476,-7.8058973)"
       style="stroke-width:0.91553879">
      <path
         inkscape:connector-curvature="0"
         id="path173949-3"
         style="fill:#2a292a;fill-opacity:1;stroke:#000000;stroke-width:0.14007743;stroke-linecap:round;stroke-linejoin:round;stroke-miterlimit:4;stroke-dasharray:none;stroke-opacity:1"
         d="m 85.003252,136.72433 c 0.494947,-1.5173 1.408642,-2.06587 2.159706,-2.69558 0.315383,-0.26599 -0.119945,-0.41063 -0.14217,-0.41874 -0.06597,-0.0109 -1.304924,-0.22896 -1.227666,-0.95921 0.02752,-0.2674 0.285044,-0.48366 0.60078,-0.65193 -0.0071,0.004 -0.01517,0.007 -0.02364,0.0113 l 1.385006,-0.75248 c 0.02081,-0.76341 0.176389,-1.15217 0.472722,-1.31198 0,0 0,0 -0.0014,0 l 0.0028,-0.001 c 0.0014,-10e-4 0.0028,-10e-4 0.0028,-10e-4 l 1.714155,-0.93133 c 0.0071,-0.006 0.01658,-0.01 0.02469,-0.0138 0.03316,-0.0166 0.07056,-0.0279 0.107597,-0.0402 0.0099,-0.003 0.0194,-0.007 0.02893,-0.01 0.0028,0 0.0042,-10e-4 0.0056,-0.003 0.0067,-0.001 0.01376,0 0.02046,-0.001 0.06915,-0.0166 0.144992,-0.0233 0.226131,-0.0247 0.02223,-0.001 0.04551,-0.001 0.0702,-0.001 0.08961,0.003 0.184856,0.008 0.28822,0.0222 0.213434,0.03 0.398284,0.0755 0.555274,0.14993 0.0497,0.0236 0.0938,0.0511 0.13793,0.0801 0.004,0.003 0.01,0.005 0.0148,0.008 0.01,0.007 0.018,0.0138 0.0279,0.0222 0.0176,0.0123 0.0356,0.0261 0.0522,0.0413 0.006,0.006 0.0123,0.008 0.018,0.0138 0.0123,0.01 0.0219,0.0222 0.0332,0.0332 0.0109,0.0109 0.0219,0.0219 0.0328,0.0332 0.004,0.004 0.007,0.007 0.0113,0.0109 0.0152,0.018 0.0289,0.0356 0.0427,0.055 0.008,0.01 0.0152,0.0194 0.0233,0.0289 0.001,0.001 0.003,0.003 0.003,0.006 0.0123,0.0152 0.0219,0.0328 0.0317,0.0508 0.0124,0.0208 0.0261,0.0388 0.037,0.0607 0.001,0 0.001,0.001 0.001,0.003 0.003,0.003 0.004,0.008 0.006,0.0109 0.0233,0.0455 0.0455,0.0938 0.0646,0.14605 0.003,0.007 0.006,0.0123 0.008,0.0194 0.004,0.01 0.007,0.0219 0.0109,0.0332 0.0166,0.0508 0.0332,0.10583 0.0469,0.16404 0.004,0.0148 0.01,0.03 0.0123,0.0466 0.0166,0.0744 0.0318,0.15452 0.0427,0.23989 0.003,0.0166 0.004,0.036 0.006,0.0522 0.01,0.073 0.0166,0.14888 0.0219,0.23037 0.001,0.0261 0.004,0.0522 0.006,0.0783 0.004,0.1023 0.008,0.20672 0.008,0.32279 0,0 -0.001,0.005 -0.001,0.0123 -0.001,0.002 0,0.005 0,0.008 0,0.007 0.001,0.0138 0.003,0.0236 0.003,0.007 0.004,0.0138 0.008,0.0219 0.001,0 0.001,0.001 0.001,0.001 0.007,0.01 0.0176,0.0208 0.0314,0.0289 0.0113,0.007 0.0896,0.0469 0.20673,0.10901 0.003,0 0.006,10e-4 0.007,0.002 0.0356,0.0194 0.0744,0.0402 0.11712,0.0635 0.0123,0.007 0.0247,0.0138 0.037,0.0208 0.036,0.019 0.0706,0.0399 0.11042,0.0617 0.0166,0.01 0.0342,0.0208 0.0522,0.0303 0.036,0.0208 0.0716,0.0416 0.10901,0.0649 0.0205,0.0123 0.0427,0.0261 0.0646,0.0384 0.036,0.0222 0.0706,0.0441 0.1076,0.0677 0.0236,0.0152 0.0469,0.0303 0.0688,0.0455 0.0374,0.0233 0.073,0.0466 0.10901,0.0716 0.009,0.007 0.0194,0.0138 0.0289,0.019 0.0109,0.008 0.0208,0.0152 0.0318,0.0236 0.0508,0.0356 0.10336,0.0744 0.15416,0.11289 0.0194,0.0138 0.0388,0.0289 0.0579,0.0441 0.13794,0.1076 0.26353,0.21907 0.36936,0.33478 0.007,0.008 0.018,0.0166 0.0251,0.025 0.0109,0.0138 0.0205,0.0261 0.0303,0.0385 0.0205,0.0233 0.0384,0.0469 0.055,0.0702 0.01,0.0113 0.0194,0.0222 0.0275,0.0332 0.0124,0.018 0.0208,0.0346 0.0318,0.0512 0.01,0.0152 0.018,0.0289 0.0261,0.0427 0.004,0.007 0.01,0.0138 0.0138,0.0205 0.0194,0.0374 0.036,0.073 0.0497,0.11042 0.0166,0.0469 0.0289,0.0935 0.0328,0.1404 0.0265,0.2466 -0.0907,0.39829 -0.25894,0.49072 l -1.04599,0.56903 c 0.11042,0.12277 0.22331,0.24518 0.33902,0.36936 0.084,0.0924 0.16969,0.18591 0.25647,0.28257 0.0247,0.0275 0.0494,0.0536 0.0744,0.0811 0.0219,0.025 0.0427,0.0511 0.0632,0.0759 0.0511,0.0578 0.10195,0.11712 0.15311,0.17921 0.0497,0.0607 0.0991,0.12277 0.14887,0.18591 0.0483,0.0635 0.0977,0.12841 0.14605,0.19297 0.0219,0.0332 0.0469,0.0621 0.0702,0.0952 0.036,0.0494 0.0688,0.10478 0.10477,0.1584 0.0208,0.0317 0.0413,0.0621 0.0621,0.0935 0.0744,0.11747 0.14605,0.23706 0.21485,0.36547 0.006,0.0109 0.0109,0.0233 0.018,0.0342 0.018,0.0346 0.0346,0.0716 0.0508,0.10619 0.0582,0.11289 0.11323,0.23283 0.16686,0.35701 0.0208,0.0508 0.0427,0.10477 0.0635,0.15699 0.018,0.0455 0.037,0.0868 0.055,0.13229 0.0427,0.11994 0.084,0.24271 0.12277,0.37077 0.007,0.0483 0.1143,0.89147 -0.0402,0.97578 l -1.71837,0.93416 c -0.009,0.006 -0.0219,0.008 -0.0342,0.007 l -2.712007,-0.3817 c -0.02469,-0.002 -0.248003,-0.0427 -0.402167,-0.35525 -0.01799,-0.0346 -0.223308,-0.44238 -0.406753,-0.81033 l -1.429103,0.77858 c 0,-0.001 0.0014,-0.001 0.0014,-0.003 -0.103364,0.0579 -0.195439,0.0483 -0.212019,0.0455 l -2.709326,-0.38029 c -0.202495,-0.0289 -0.08396,-0.95356 -0.07867,-1.00189 z" />
      <path
         inkscape:connector-curvature="0"
         id="path173949"
         style="fill:none;fill-opacity:1;stroke:none;stroke-width:0.03662155;stroke-linecap:round;stroke-linejoin:round;stroke-miterlimit:4;stroke-dasharray:none;stroke-opacity:1"
         d="m 85.000474,136.72853 c 0.494947,-1.5173 1.408642,-2.06587 2.159706,-2.69558 0.315383,-0.26599 -0.119945,-0.41063 -0.14217,-0.41874 -0.06597,-0.0109 -1.304924,-0.22896 -1.227666,-0.95921 0.02752,-0.2674 0.285044,-0.48366 0.60078,-0.65193 -0.0071,0.004 -0.01517,0.007 -0.02364,0.0113 l 1.385006,-0.75248 c 0.02081,-0.76341 0.176389,-1.15217 0.472722,-1.31198 0,0 0,0 -0.0014,0 l 0.0028,-10e-4 c 0.0014,-0.001 0.0028,-0.001 0.0028,-0.001 l 1.714155,-0.93133 c 0.0071,-0.006 0.01658,-0.01 0.02469,-0.0138 0.03316,-0.0166 0.07056,-0.0279 0.107597,-0.0402 0.0099,-0.003 0.0194,-0.007 0.02893,-0.01 0.0028,0 0.0042,-0.001 0.0056,-0.003 0.0067,-0.001 0.01376,0 0.02046,-0.001 0.06915,-0.0166 0.144992,-0.0233 0.226131,-0.0247 0.02223,-0.001 0.04551,-0.001 0.0702,-0.001 0.08961,0.003 0.184856,0.008 0.28822,0.0222 0.21343,0.03 0.398286,0.0755 0.555271,0.14993 0.04974,0.0236 0.09384,0.0511 0.137937,0.0801 0.0039,0.003 0.0095,0.005 0.01482,0.008 0.0099,0.007 0.01799,0.0138 0.02787,0.0222 0.01764,0.0123 0.03563,0.0261 0.05221,0.0413 0.0056,0.006 0.01235,0.008 0.01799,0.0138 0.01235,0.01 0.02187,0.0222 0.03316,0.0332 0.01093,0.0109 0.02187,0.0219 0.03281,0.0332 0.0042,0.004 0.0071,0.007 0.01129,0.0109 0.01517,0.018 0.02893,0.0356 0.04269,0.055 0.0081,0.01 0.01517,0.0194 0.02328,0.0289 0.0014,0.001 0.0028,0.003 0.0028,0.006 0.01235,0.0152 0.02187,0.0328 0.03175,0.0508 0.01235,0.0208 0.02611,0.0388 0.03704,0.0607 0.0014,0 0.0014,0.001 0.0014,0.003 0.0028,0.003 0.0042,0.008 0.0056,0.0109 0.02328,0.0455 0.04551,0.0938 0.06456,0.14605 0.0028,0.007 0.0056,0.0123 0.0085,0.0194 0.0039,0.01 0.0067,0.0219 0.01093,0.0332 0.01658,0.0508 0.03316,0.10583 0.04692,0.16404 0.0042,0.0148 0.0095,0.03 0.01235,0.0466 0.01658,0.0744 0.03175,0.15452 0.04269,0.23989 0.0028,0.0166 0.0042,0.036 0.0056,0.0522 0.0095,0.073 0.01658,0.14888 0.02187,0.23037 0.0014,0.0261 0.0042,0.0522 0.0056,0.0783 0.0042,0.1023 0.0081,0.20672 0.0081,0.32279 0,0 -0.0014,0.005 -0.0014,0.0123 -0.0014,0.002 0,0.005 0,0.008 0,0.007 0.0014,0.0138 0.0028,0.0236 0.0028,0.007 0.0042,0.0138 0.0085,0.0219 0.0014,0 0.0014,0.001 0.0014,0.001 0.0067,0.01 0.01764,0.0208 0.0314,0.0289 0.01129,0.007 0.08961,0.0469 0.206727,0.10901 0.0028,0 0.0056,10e-4 0.0071,0.002 0.03563,0.0194 0.07444,0.0402 0.117123,0.0635 0.01235,0.007 0.02469,0.0138 0.03704,0.0208 0.03598,0.019 0.07056,0.0399 0.110419,0.0617 0.01658,0.01 0.03422,0.0208 0.05221,0.0303 0.03598,0.0208 0.07161,0.0416 0.109008,0.0649 0.02046,0.0123 0.04269,0.0261 0.06456,0.0384 0.03598,0.0222 0.07056,0.0441 0.107598,0.0677 0.02364,0.0152 0.04692,0.0303 0.06879,0.0455 0.03739,0.0233 0.07302,0.0466 0.109008,0.0716 0.0095,0.007 0.0194,0.0138 0.02893,0.019 0.01093,0.008 0.02082,0.0152 0.03175,0.0236 0.0508,0.0356 0.103364,0.0744 0.154164,0.11289 0.0194,0.0138 0.03881,0.0289 0.05786,0.0441 0.137936,0.1076 0.263525,0.21907 0.369358,0.33478 0.0071,0.008 0.01799,0.0166 0.02505,0.025 0.01093,0.0138 0.02046,0.0261 0.03034,0.0385 0.02046,0.0233 0.03845,0.0469 0.05503,0.0702 0.0095,0.0113 0.0194,0.0222 0.02752,0.0332 0.01235,0.018 0.02081,0.0346 0.03175,0.0512 0.0095,0.0152 0.01799,0.0289 0.02611,0.0427 0.0042,0.007 0.0095,0.0138 0.01376,0.0205 0.0194,0.0374 0.03598,0.073 0.04974,0.11042 0.01658,0.0469 0.02893,0.0935 0.03281,0.1404 0.02646,0.2466 -0.09066,0.39829 -0.258939,0.49072 l -1.045986,0.56903 c 0.110419,0.12277 0.223308,0.24518 0.339019,0.36936 0.08396,0.0924 0.169687,0.18591 0.25647,0.28257 0.02469,0.0275 0.04939,0.0536 0.07444,0.0811 0.02187,0.025 0.04269,0.0511 0.06315,0.0759 0.05115,0.0578 0.101952,0.11712 0.153105,0.17921 0.04974,0.0607 0.09913,0.12277 0.148872,0.18591 0.04833,0.0635 0.09772,0.12841 0.14605,0.19297 0.02187,0.0332 0.04692,0.0621 0.0702,0.0952 0.03598,0.0494 0.06879,0.10478 0.104775,0.1584 0.02082,0.0317 0.04128,0.0621 0.06209,0.0935 0.07444,0.11747 0.14605,0.23706 0.214841,0.36547 0.0056,0.0109 0.01094,0.0233 0.01799,0.0342 0.01799,0.0346 0.03457,0.0716 0.0508,0.10619 0.05821,0.11289 0.11324,0.23283 0.166863,0.35701 0.02082,0.0508 0.04269,0.10477 0.0635,0.15699 0.01799,0.0455 0.03704,0.0868 0.05503,0.13229 0.04269,0.11994 0.08396,0.24271 0.122767,0.37077 0.0067,0.0483 0.1143,0.89147 -0.04022,0.97578 l -1.718362,0.93416 c -0.0095,0.006 -0.02187,0.008 -0.03422,0.007 l -2.712014,-0.3817 c -0.02469,-0.002 -0.248003,-0.0427 -0.402167,-0.35525 -0.01799,-0.0346 -0.223308,-0.44238 -0.406753,-0.81033 l -1.429103,0.77858 c 0,-0.001 0.0014,-0.001 0.0014,-0.003 -0.103364,0.0579 -0.195439,0.0483 -0.212019,0.0455 l -2.709324,-0.38029 c -0.202495,-0.0289 -0.08396,-0.95356 -0.07867,-1.00189 z" />
      <path
         d="m 89.002344,129.87547 c -0.850194,-0.11994 -1.251302,0.13899 -1.24848,1.5875 0.0014,0.003 0.01658,0.066 -0.04269,0.0854 -0.05927,0.0194 -1.838325,0.36936 -1.918405,1.10243 -0.07691,0.73025 1.161697,0.94827 1.228019,0.95921 0.02187,0.008 0.457553,0.15275 0.141817,0.41874 -0.751064,0.62971 -1.664759,1.17828 -2.159353,2.69417 -0.0056,0.0497 -0.125236,0.97437 0.07867,1.0033 l 2.70898,0.38029 c 0.02752,0.004 0.249414,0.0275 0.403931,-0.2413 0.02752,-0.048 0.555272,-0.9465 0.668161,-1.16558 0.0194,-0.0427 0.0441,-0.10759 0.151694,-0.0981 0.104775,0.0208 0.130881,0.091 0.150284,0.14076 0.115711,0.25082 0.646288,1.29787 0.675216,1.35326 0.153106,0.31256 0.377472,0.35277 0.40252,0.35524 l 2.70898,0.38171 c 0.202495,0.0279 0.08149,-0.92992 0.07444,-0.98108 -0.500239,-1.65629 -1.416402,-2.46098 -2.170289,-3.30306 -0.317147,-0.3556 0.117123,-0.37747 0.140406,-0.37888 0.06491,0.007 1.304925,0.13758 1.225197,-0.61454 -0.08149,-0.75671 -1.86443,-1.6069 -1.923697,-1.64288 -0.05927,-0.0356 -0.04128,-0.0935 -0.03986,-0.0977 -0.0028,-1.44851 -0.408163,-1.81893 -1.255536,-1.93887"
         style="fill:#414042;fill-opacity:1;fill-rule:nonzero;stroke:#000000;stroke-width:0.04852355;stroke-miterlimit:4;stroke-dasharray:none;stroke-opacity:1"
         id="path175599"
         inkscape:connector-curvature="0" />
    </g>
  </g>
</svg>
