<?xml version="1.0" encoding="UTF-8" standalone="no"?>
<!-- Created with Inkscape (http://www.inkscape.org/) -->

<svg
   xmlns:dc="http://purl.org/dc/elements/1.1/"
   xmlns:cc="http://creativecommons.org/ns#"
   xmlns:rdf="http://www.w3.org/1999/02/22-rdf-syntax-ns#"
   xmlns:svg="http://www.w3.org/2000/svg"
   xmlns="http://www.w3.org/2000/svg"
   xmlns:sodipodi="http://sodipodi.sourceforge.net/DTD/sodipodi-0.dtd"
   xmlns:inkscape="http://www.inkscape.org/namespaces/inkscape"
   width="8.9484034mm"
   height="11.661787mm"
   viewBox="0 0 8.9484034 11.661787"
   version="1.1"
   id="svg176879"
   inkscape:version="0.92.3 (2405546, 2018-03-11)"
   sodipodi:docname="Abbot_grey_f.svg">
  <defs
     id="defs176873">
    <clipPath
       clipPathUnits="userSpaceOnUse"
       id="clipPath143008">
      <path
         d="m 527.918,440.711 h 25.02 v 32.707 h -25.02 z"
         id="path143006"
         inkscape:connector-curvature="0" />
    </clipPath>
    <clipPath
       clipPathUnits="userSpaceOnUse"
       id="clipPath143018">
      <path
         d="M 0,0 H 576 V 903 H 0 Z"
         id="path143016"
         inkscape:connector-curvature="0" />
    </clipPath>
    <clipPath
       clipPathUnits="userSpaceOnUse"
       id="clipPath143030">
      <path
         d="M 0,0 H 576 V 903 H 0 Z"
         id="path143028"
         inkscape:connector-curvature="0" />
    </clipPath>
    <clipPath
       clipPathUnits="userSpaceOnUse"
       id="clipPath143040">
      <path
         d="m 541.496,454.855 h 9.699 v 3.457 h -9.699 z"
         id="path143038"
         inkscape:connector-curvature="0" />
    </clipPath>
    <clipPath
       clipPathUnits="userSpaceOnUse"
       id="clipPath143050">
      <path
         d="M 0,0 H 576 V 903 H 0 Z"
         id="path143048"
         inkscape:connector-curvature="0" />
    </clipPath>
    <clipPath
       clipPathUnits="userSpaceOnUse"
       id="clipPath143062">
      <path
         d="M 0,0 H 576 V 903 H 0 Z"
         id="path143060"
         inkscape:connector-curvature="0" />
    </clipPath>
    <clipPath
       clipPathUnits="userSpaceOnUse"
       id="clipPath143072">
      <path
         d="m 541,454 h 11 v 5 h -11 z"
         id="path143070"
         inkscape:connector-curvature="0" />
    </clipPath>
    <clipPath
       clipPathUnits="userSpaceOnUse"
       id="clipPath143082">
      <path
         d="M 0,0 H 576 V 903 H 0 Z"
         id="path143080"
         inkscape:connector-curvature="0" />
    </clipPath>
    <clipPath
       clipPathUnits="userSpaceOnUse"
       id="clipPath143092">
      <path
         d="m 541,454 h 11 v 5 h -11 z"
         id="path143090"
         inkscape:connector-curvature="0" />
    </clipPath>
    <clipPath
       clipPathUnits="userSpaceOnUse"
       id="clipPath143098">
      <path
         d="m 546.41,457.527 -4.914,-2.672 c 0.238,0.129 0.676,0.055 1.067,0.032 0.632,-0.039 2.222,-0.063 3.722,0.754 l 4.91,2.672 c -1.496,-0.817 -3.09,-0.793 -3.722,-0.754 -0.391,0.023 -0.828,0.097 -1.063,-0.032"
         id="path143096"
         inkscape:connector-curvature="0" />
    </clipPath>
    <clipPath
       clipPathUnits="userSpaceOnUse"
       id="clipPath143108">
      <path
         d="M 0,0 H 576 V 903 H 0 Z"
         id="path143106"
         inkscape:connector-curvature="0" />
    </clipPath>
    <clipPath
       clipPathUnits="userSpaceOnUse"
       id="clipPath143120">
      <path
         d="M 0,0 H 576 V 903 H 0 Z"
         id="path143118"
         inkscape:connector-curvature="0" />
    </clipPath>
    <clipPath
       clipPathUnits="userSpaceOnUse"
       id="clipPath143130">
      <path
         d="m 541.496,454.855 h 9.699 v 3.457 h -9.699 z"
         id="path143128"
         inkscape:connector-curvature="0" />
    </clipPath>
    <clipPath
       clipPathUnits="userSpaceOnUse"
       id="clipPath143140">
      <path
         d="M 0,0 H 576 V 903 H 0 Z"
         id="path143138"
         inkscape:connector-curvature="0" />
    </clipPath>
    <clipPath
       clipPathUnits="userSpaceOnUse"
       id="clipPath143152">
      <path
         d="M 0,0 H 576 V 903 H 0 Z"
         id="path143150"
         inkscape:connector-curvature="0" />
    </clipPath>
    <clipPath
       clipPathUnits="userSpaceOnUse"
       id="clipPath143172">
      <path
         d="m 527.918,461.547 h 9 v 11.727 h -9 z"
         id="path143170"
         inkscape:connector-curvature="0" />
    </clipPath>
    <clipPath
       clipPathUnits="userSpaceOnUse"
       id="clipPath143182">
      <path
         d="M 0,0 H 576 V 903 H 0 Z"
         id="path143180"
         inkscape:connector-curvature="0" />
    </clipPath>
    <clipPath
       clipPathUnits="userSpaceOnUse"
       id="clipPath143194">
      <path
         d="M 0,0 H 576 V 903 H 0 Z"
         id="path143192"
         inkscape:connector-curvature="0" />
    </clipPath>
    <clipPath
       clipPathUnits="userSpaceOnUse"
       id="clipPath143204">
      <path
         d="m 527,461 h 10 v 13 h -10 z"
         id="path143202"
         inkscape:connector-curvature="0" />
    </clipPath>
    <clipPath
       clipPathUnits="userSpaceOnUse"
       id="clipPath143214">
      <path
         d="M 0,0 H 576 V 903 H 0 Z"
         id="path143212"
         inkscape:connector-curvature="0" />
    </clipPath>
    <clipPath
       clipPathUnits="userSpaceOnUse"
       id="clipPath143224">
      <path
         d="m 527,461 h 10 v 13 h -10 z"
         id="path143222"
         inkscape:connector-curvature="0" />
    </clipPath>
    <clipPath
       clipPathUnits="userSpaceOnUse"
       id="clipPath143230">
      <path
         d="m 533.297,473.273 -4.914,-2.671 c -0.399,-0.219 -0.633,-0.7 -0.317,-1.586 0.465,-1.321 2.305,-4.95 3.34,-6.02 0.809,-0.832 0.664,-1.277 0.344,-1.449 l 4.91,2.672 c 0.324,0.176 0.465,0.617 -0.34,1.449 -1.035,1.07 -2.875,4.699 -3.343,6.02 -0.313,0.886 -0.082,1.371 0.32,1.585"
         id="path143228"
         inkscape:connector-curvature="0" />
    </clipPath>
    <clipPath
       clipPathUnits="userSpaceOnUse"
       id="clipPath143240">
      <path
         d="M 0,0 H 576 V 903 H 0 Z"
         id="path143238"
         inkscape:connector-curvature="0" />
    </clipPath>
    <clipPath
       clipPathUnits="userSpaceOnUse"
       id="clipPath143252">
      <path
         d="M 0,0 H 576 V 903 H 0 Z"
         id="path143250"
         inkscape:connector-curvature="0" />
    </clipPath>
    <clipPath
       clipPathUnits="userSpaceOnUse"
       id="clipPath143262">
      <path
         d="m 527.918,461.547 h 9 v 11.727 h -9 z"
         id="path143260"
         inkscape:connector-curvature="0" />
    </clipPath>
    <clipPath
       clipPathUnits="userSpaceOnUse"
       id="clipPath143272">
      <path
         d="M 0,0 H 576 V 903 H 0 Z"
         id="path143270"
         inkscape:connector-curvature="0" />
    </clipPath>
    <clipPath
       clipPathUnits="userSpaceOnUse"
       id="clipPath143284">
      <path
         d="M 0,0 H 576 V 903 H 0 Z"
         id="path143282"
         inkscape:connector-curvature="0" />
    </clipPath>
    <clipPath
       clipPathUnits="userSpaceOnUse"
       id="clipPath143318">
      <path
         d="m 528.277,450.113 h 11.742 v 13.691 h -11.742 z"
         id="path143316"
         inkscape:connector-curvature="0" />
    </clipPath>
    <clipPath
       clipPathUnits="userSpaceOnUse"
       id="clipPath143328">
      <path
         d="M 0,0 H 576 V 903 H 0 Z"
         id="path143326"
         inkscape:connector-curvature="0" />
    </clipPath>
    <clipPath
       clipPathUnits="userSpaceOnUse"
       id="clipPath143340">
      <path
         d="M 0,0 H 576 V 903 H 0 Z"
         id="path143338"
         inkscape:connector-curvature="0" />
    </clipPath>
    <clipPath
       clipPathUnits="userSpaceOnUse"
       id="clipPath143350">
      <path
         d="m 528,450 h 13 v 14 h -13 z"
         id="path143348"
         inkscape:connector-curvature="0" />
    </clipPath>
    <clipPath
       clipPathUnits="userSpaceOnUse"
       id="clipPath143360">
      <path
         d="M 0,0 H 576 V 903 H 0 Z"
         id="path143358"
         inkscape:connector-curvature="0" />
    </clipPath>
    <clipPath
       clipPathUnits="userSpaceOnUse"
       id="clipPath143370">
      <path
         d="m 528,450 h 13 v 14 h -13 z"
         id="path143368"
         inkscape:connector-curvature="0" />
    </clipPath>
    <clipPath
       clipPathUnits="userSpaceOnUse"
       id="clipPath143376">
      <path
         d="m 534.012,463.805 -4.91,-2.672 c -0.004,-0.004 -0.008,-0.004 -0.012,-0.004 -0.313,-0.184 -1.656,-0.91 0.004,-2.598 1.652,-1.676 3.617,-2.203 4.336,-2.363 0.722,-0.152 1.601,-0.199 1.086,-1.23 -0.512,-1.047 -0.102,-2.668 0.367,-3.348 0.465,-0.68 0.078,-1.438 0.055,-1.477 l 4.914,2.672 c 0.019,0.039 0.406,0.797 -0.059,1.477 -0.465,0.679 -0.879,2.301 -0.367,3.343 0.519,1.036 -0.363,1.083 -1.082,1.235 -0.723,0.164 -2.684,0.687 -4.336,2.363 -1.664,1.688 -0.32,2.414 -0.008,2.598 0.004,0 0.008,0.004 0.012,0.004"
         id="path143374"
         inkscape:connector-curvature="0" />
    </clipPath>
    <clipPath
       clipPathUnits="userSpaceOnUse"
       id="clipPath143386">
      <path
         d="M 0,0 H 576 V 903 H 0 Z"
         id="path143384"
         inkscape:connector-curvature="0" />
    </clipPath>
    <clipPath
       clipPathUnits="userSpaceOnUse"
       id="clipPath143398">
      <path
         d="M 0,0 H 576 V 903 H 0 Z"
         id="path143396"
         inkscape:connector-curvature="0" />
    </clipPath>
    <clipPath
       clipPathUnits="userSpaceOnUse"
       id="clipPath143408">
      <path
         d="m 528.281,450.113 h 11.738 v 13.691 h -11.738 z"
         id="path143406"
         inkscape:connector-curvature="0" />
    </clipPath>
    <clipPath
       clipPathUnits="userSpaceOnUse"
       id="clipPath143418">
      <path
         d="M 0,0 H 576 V 903 H 0 Z"
         id="path143416"
         inkscape:connector-curvature="0" />
    </clipPath>
    <clipPath
       clipPathUnits="userSpaceOnUse"
       id="clipPath143430">
      <path
         d="M 0,0 H 576 V 903 H 0 Z"
         id="path143428"
         inkscape:connector-curvature="0" />
    </clipPath>
    <clipPath
       clipPathUnits="userSpaceOnUse"
       id="clipPath143486">
      <path
         d="m 533.34,441.086 h 8.691 v 7.344 h -8.691 z"
         id="path143484"
         inkscape:connector-curvature="0" />
    </clipPath>
    <clipPath
       clipPathUnits="userSpaceOnUse"
       id="clipPath143496">
      <path
         d="M 0,0 H 576 V 903 H 0 Z"
         id="path143494"
         inkscape:connector-curvature="0" />
    </clipPath>
    <clipPath
       clipPathUnits="userSpaceOnUse"
       id="clipPath143508">
      <path
         d="M 0,0 H 576 V 903 H 0 Z"
         id="path143506"
         inkscape:connector-curvature="0" />
    </clipPath>
    <clipPath
       clipPathUnits="userSpaceOnUse"
       id="clipPath143518">
      <path
         d="m 533,441 h 10 v 8 h -10 z"
         id="path143516"
         inkscape:connector-curvature="0" />
    </clipPath>
    <clipPath
       clipPathUnits="userSpaceOnUse"
       id="clipPath143528">
      <path
         d="M 0,0 H 576 V 903 H 0 Z"
         id="path143526"
         inkscape:connector-curvature="0" />
    </clipPath>
    <clipPath
       clipPathUnits="userSpaceOnUse"
       id="clipPath143538">
      <path
         d="m 533,441 h 10 v 8 h -10 z"
         id="path143536"
         inkscape:connector-curvature="0" />
    </clipPath>
    <clipPath
       clipPathUnits="userSpaceOnUse"
       id="clipPath143544">
      <path
         d="m 538.25,448.43 -4.91,-2.672 c 3.242,-4.035 3.25,-4.028 3.777,-4.672 l 4.914,2.672 c -0.531,0.644 -0.539,0.637 -3.781,4.672"
         id="path143542"
         inkscape:connector-curvature="0" />
    </clipPath>
    <clipPath
       clipPathUnits="userSpaceOnUse"
       id="clipPath143554">
      <path
         d="M 0,0 H 576 V 903 H 0 Z"
         id="path143552"
         inkscape:connector-curvature="0" />
    </clipPath>
    <clipPath
       clipPathUnits="userSpaceOnUse"
       id="clipPath143566">
      <path
         d="M 0,0 H 576 V 903 H 0 Z"
         id="path143564"
         inkscape:connector-curvature="0" />
    </clipPath>
    <clipPath
       clipPathUnits="userSpaceOnUse"
       id="clipPath143576">
      <path
         d="m 533.34,441.086 h 8.691 v 7.344 h -8.691 z"
         id="path143574"
         inkscape:connector-curvature="0" />
    </clipPath>
    <clipPath
       clipPathUnits="userSpaceOnUse"
       id="clipPath143586">
      <path
         d="M 0,0 H 576 V 903 H 0 Z"
         id="path143584"
         inkscape:connector-curvature="0" />
    </clipPath>
    <clipPath
       clipPathUnits="userSpaceOnUse"
       id="clipPath143598">
      <path
         d="M 0,0 H 576 V 903 H 0 Z"
         id="path143596"
         inkscape:connector-curvature="0" />
    </clipPath>
    <clipPath
       clipPathUnits="userSpaceOnUse"
       id="clipPath143610">
      <path
         d="m 533.098,445.758 h 6.754 v 7.027 h -6.754 z"
         id="path143608"
         inkscape:connector-curvature="0" />
    </clipPath>
    <clipPath
       clipPathUnits="userSpaceOnUse"
       id="clipPath143620">
      <path
         d="M 0,0 H 576 V 903 H 0 Z"
         id="path143618"
         inkscape:connector-curvature="0" />
    </clipPath>
    <clipPath
       clipPathUnits="userSpaceOnUse"
       id="clipPath143632">
      <path
         d="M 0,0 H 576 V 903 H 0 Z"
         id="path143630"
         inkscape:connector-curvature="0" />
    </clipPath>
    <clipPath
       clipPathUnits="userSpaceOnUse"
       id="clipPath143642">
      <path
         d="m 533,445 h 7 v 8 h -7 z"
         id="path143640"
         inkscape:connector-curvature="0" />
    </clipPath>
    <clipPath
       clipPathUnits="userSpaceOnUse"
       id="clipPath143652">
      <path
         d="M 0,0 H 576 V 903 H 0 Z"
         id="path143650"
         inkscape:connector-curvature="0" />
    </clipPath>
    <clipPath
       clipPathUnits="userSpaceOnUse"
       id="clipPath143662">
      <path
         d="m 533,445 h 7 v 8 h -7 z"
         id="path143660"
         inkscape:connector-curvature="0" />
    </clipPath>
    <clipPath
       clipPathUnits="userSpaceOnUse"
       id="clipPath143668">
      <path
         d="m 539.852,452.785 -4.914,-2.672 c -0.051,-0.093 -1.079,-1.828 -1.602,-2.785 -0.527,-0.961 -0.023,-1.543 0.004,-1.57 l 4.91,2.672 c -0.027,0.031 -0.527,0.609 -0.004,1.574 0.527,0.953 1.551,2.687 1.606,2.781"
         id="path143666"
         inkscape:connector-curvature="0" />
    </clipPath>
    <clipPath
       clipPathUnits="userSpaceOnUse"
       id="clipPath143678">
      <path
         d="M 0,0 H 576 V 903 H 0 Z"
         id="path143676"
         inkscape:connector-curvature="0" />
    </clipPath>
    <clipPath
       clipPathUnits="userSpaceOnUse"
       id="clipPath143690">
      <path
         d="M 0,0 H 576 V 903 H 0 Z"
         id="path143688"
         inkscape:connector-curvature="0" />
    </clipPath>
    <clipPath
       clipPathUnits="userSpaceOnUse"
       id="clipPath143700">
      <path
         d="m 533.098,445.758 h 6.754 v 7.027 h -6.754 z"
         id="path143698"
         inkscape:connector-curvature="0" />
    </clipPath>
    <clipPath
       clipPathUnits="userSpaceOnUse"
       id="clipPath143710">
      <path
         d="M 0,0 H 576 V 903 H 0 Z"
         id="path143708"
         inkscape:connector-curvature="0" />
    </clipPath>
    <clipPath
       clipPathUnits="userSpaceOnUse"
       id="clipPath143722">
      <path
         d="M 0,0 H 576 V 903 H 0 Z"
         id="path143720"
         inkscape:connector-curvature="0" />
    </clipPath>
  </defs>
  <sodipodi:namedview
     id="base"
     pagecolor="#ffffff"
     bordercolor="#666666"
     borderopacity="1.0"
     inkscape:pageopacity="0.0"
     inkscape:pageshadow="2"
     inkscape:zoom="7.54"
     inkscape:cx="-51.904694"
     inkscape:cy="24.362174"
     inkscape:document-units="mm"
     inkscape:current-layer="layer1"
     showgrid="false"
     inkscape:window-width="1920"
     inkscape:window-height="1017"
     inkscape:window-x="-8"
     inkscape:window-y="-8"
     inkscape:window-maximized="1" />
  <metadata
     id="metadata176876">
    <rdf:RDF>
      <cc:Work
         rdf:about="">
        <dc:format>image/svg+xml</dc:format>
        <dc:type
           rdf:resource="http://purl.org/dc/dcmitype/StillImage" />
        <dc:title />
      </cc:Work>
    </rdf:RDF>
  </metadata>
  <g
     inkscape:label="Ebene 1"
     inkscape:groupmode="layer"
     id="layer1"
     transform="translate(-94.187764,-170.86979)">
    <g
       id="g143734"
       transform="matrix(-0.35593154,0,0,0.32980882,291.0585,26.333074)"
       inkscape:label="Abbot_grey"
       style="stroke-width:1.02964342">
      <path
         inkscape:connector-curvature="0"
         id="path143000"
         style="display:inline;fill:none;fill-opacity:1;stroke:#000000;stroke-width:0.35607827;stroke-linecap:round;stroke-linejoin:round;stroke-miterlimit:10;stroke-dasharray:none;stroke-opacity:1"
         d="m 552.80501,468.895 c -0.469,-1.184 -2.293,-4.305 -3.328,-5.067 -1.024,-0.777 -0.508,-1.355 -0.043,-1.527 0.468,-0.18 2.062,-0.735 2.379,-1.008 0.308,-0.27 1.648,-1.379 0.004,-2.586 -0.21597,-0.12213 -0.41801,-0.26745 -0.629,-0.398 l -4.579,-2.493 c 0.118,-0.988 -0.203,-2 -0.562,-2.433 -0.47299,-0.543 -0.078,-1.418 -0.055,-1.461 0.051,-0.109 1.086,-2.129 1.614,-3.238 0.531,-1.102 0.031,-1.539 0.003,-1.567 -3.234,-3.125 -3.234,-3.113 -3.761,-3.617 l -0.153,-0.113 -4.91,-2.672 -0.183,-0.008 -0.575,0.082 -0.574,0.078 -0.183,0.059 -0.145,0.156 c -0.539,0.656 -0.539,0.645 -3.785,4.68 -0.004,0.004 -0.016,0.019 -0.031,0.039 -0.004,0.008 -0.008,0.008 -0.012,0.012 -0.004,0.011 -0.016,0.031 -0.023,0.042 -0.008,0.012 -0.016,0.024 -0.024,0.04 -0.004,0.007 -0.008,0.011 -0.012,0.019 -0.007,0.016 -0.015,0.035 -0.023,0.051 -0.012,0.023 -0.02,0.047 -0.035,0.074 -0.004,0.012 -0.004,0.016 -0.008,0.024 -0.004,0.011 -0.008,0.031 -0.012,0.042 -0.015,0.043 -0.027,0.09 -0.035,0.141 -0.008,0.031 -0.012,0.063 -0.016,0.098 -0.003,0.051 -0.007,0.105 -0.007,0.164 0,0.039 0.004,0.078 0.007,0.117 0.004,0.066 0.02,0.137 0.04,0.211 0.007,0.039 0.015,0.078 0.027,0.117 0.035,0.117 0.086,0.242 0.16,0.371 0.527,0.961 1.551,2.696 1.606,2.789 0.003,0.004 0.019,0.047 0.039,0.086 0.003,0.012 0.011,0.028 0.019,0.043 0.02,0.059 0.043,0.137 0.067,0.223 0.003,0.019 0.007,0.043 0.015,0.066 0.016,0.098 0.031,0.207 0.031,0.324 0,0.02 -0.004,0.036 -0.004,0.051 -0.003,0.117 -0.023,0.242 -0.066,0.367 -0.008,0.016 -0.008,0.032 -0.012,0.047 -0.007,0.016 -0.015,0.028 -0.019,0.035 -0.031,0.079 -0.067,0.157 -0.121,0.231 -0.043,0.062 -0.086,0.137 -0.129,0.211 -0.008,0.012 -0.012,0.031 -0.016,0.043 -0.14,0.269 -0.262,0.609 -0.347,0.98 -0.012,0.051 -0.02,0.098 -0.028,0.145 -0.043,0.207 -0.074,0.418 -0.082,0.629 h -0.004 c -0.008,0.211 0.008,0.414 0.032,0.613 0.007,0.051 0.015,0.102 0.023,0.152 0.039,0.2 0.094,0.395 0.18,0.571 0.074,0.148 0.113,0.269 0.132,0.379 0.008,0.039 0.008,0.07 0.008,0.105 0.004,0.066 0.004,0.129 -0.011,0.184 -0.016,0.05 -0.028,0.101 -0.055,0.14 v 0.004 c -0.039,0.055 -0.09,0.098 -0.145,0.137 -0.011,0.008 -0.023,0.012 -0.035,0.016 -0.035,0.023 -0.078,0.043 -0.121,0.062 -0.113,0.047 -0.238,0.082 -0.375,0.113 -0.043,0.012 -0.086,0.02 -0.133,0.028 -0.117,0.023 -0.234,0.047 -0.351,0.07 -0.09,0.02 -0.203,0.047 -0.336,0.082 h -0.008 c -0.125,0.035 -0.27,0.074 -0.426,0.125 -0.027,0.008 -0.058,0.02 -0.086,0.031 -0.136,0.043 -0.277,0.09 -0.426,0.149 -0.054,0.019 -0.113,0.047 -0.168,0.07 -0.132,0.055 -0.265,0.109 -0.406,0.176 -0.015,0.004 -0.023,0.008 -0.035,0.012 -0.07,0.035 -0.148,0.082 -0.223,0.117 -0.117,0.058 -0.234,0.117 -0.355,0.183 -0.098,0.059 -0.199,0.121 -0.297,0.184 -0.113,0.07 -0.223,0.133 -0.332,0.207 -0.016,0.012 -0.031,0.019 -0.043,0.027 -0.043,0.032 -0.086,0.071 -0.125,0.102 -0.199,0.14 -0.394,0.297 -0.59,0.465 -0.039,0.035 -0.082,0.058 -0.121,0.093 -0.121,0.11 -0.242,0.227 -0.359,0.348 -0.071,0.07 -0.137,0.145 -0.199,0.211 -0.012,0.012 -0.016,0.02 -0.028,0.031 -0.066,0.078 -0.121,0.153 -0.176,0.223 -0.015,0.023 -0.039,0.047 -0.054,0.07 -0.008,0.008 -0.008,0.012 -0.012,0.02 -0.035,0.047 -0.059,0.09 -0.086,0.136 -0.023,0.036 -0.047,0.071 -0.066,0.106 -0.004,0.008 -0.008,0.012 -0.008,0.023 -0.024,0.043 -0.043,0.086 -0.059,0.129 -0.015,0.032 -0.031,0.063 -0.043,0.09 -0.004,0.008 0,0.012 -0.004,0.016 -0.035,0.105 -0.058,0.203 -0.07,0.293 v 0.062 c -0.008,0.078 -0.004,0.156 0.008,0.231 0,0.008 0,0.019 0.004,0.031 0.015,0.078 0.039,0.148 0.07,0.219 0.008,0.015 0.016,0.031 0.024,0.047 0.031,0.058 0.066,0.117 0.105,0.168 0.004,0.003 0.008,0.007 0.012,0.015 0.043,0.055 0.09,0.106 0.14,0.149 0.012,0.011 0.024,0.023 0.036,0.035 0.046,0.039 0.089,0.078 0.136,0.109 0,0 0.004,0.004 0.004,0.008 0.051,0.031 0.094,0.062 0.137,0.09 0.012,0.008 0.023,0.015 0.039,0.023 0.031,0.02 0.062,0.035 0.082,0.051 0.004,0.004 0.008,0.004 0.012,0.008 l 2.66,1.445 c -0.02,0.024 -0.035,0.051 -0.055,0.078 -0.027,0.035 -0.058,0.074 -0.094,0.114 -0.062,0.078 -0.125,0.152 -0.203,0.234 -0.039,0.043 -0.082,0.086 -0.125,0.133 -0.043,0.051 -0.097,0.133 -0.148,0.191 -0.078,0.098 -0.153,0.192 -0.238,0.309 -0.02,0.031 -0.04,0.051 -0.059,0.082 -0.106,0.148 -0.211,0.308 -0.32,0.476 -0.012,0.016 -0.02,0.032 -0.028,0.047 -0.14,0.219 -0.281,0.453 -0.422,0.696 -0.035,0.058 -0.07,0.117 -0.101,0.175 -0.145,0.254 -0.293,0.512 -0.43,0.774 l -0.008,0.008 c -0.047,0.089 -0.089,0.175 -0.136,0.265 -0.114,0.215 -0.227,0.422 -0.328,0.633 -0.036,0.062 -0.063,0.125 -0.094,0.187 -0.11,0.227 -0.219,0.446 -0.317,0.657 -0.039,0.074 -0.066,0.14 -0.097,0.215 -0.086,0.179 -0.168,0.359 -0.235,0.515 -0.039,0.098 -0.07,0.172 -0.105,0.262 -0.035,0.094 -0.086,0.207 -0.117,0.289 -0.012,0.031 -0.02,0.062 -0.032,0.09 -0.316,0.887 -0.082,1.375 0.321,1.594 l 4.91,2.671 c -0.012,-0.007 -0.016,-0.015 -0.027,-0.023 0.199,0.117 0.441,0.172 0.683,0.168 l 8.92999,-1.25397 8.926,-1.258 c 0.699,-0.179 1.449,-0.824 0.992,-2.011 z"
         sodipodi:nodetypes="cccccccccccccccccccccccccccccccscccccccccsccccccccccccccccccccccccccccccccccccccccccccccccccccccccccccccccccccccccccccccccccccacccccccccccccc" />
      <path
         inkscape:connector-curvature="0"
         id="path143000-0"
         style="display:inline;fill:#6e7072;fill-opacity:1;stroke:none;stroke-width:0.35607827;stroke-linecap:round;stroke-linejoin:round;stroke-miterlimit:10;stroke-dasharray:none;stroke-opacity:1"
         d="m 552.80501,468.895 c -0.469,-1.184 -2.293,-4.305 -3.328,-5.067 -1.024,-0.777 -0.508,-1.355 -0.043,-1.527 0.468,-0.18 2.062,-0.735 2.379,-1.008 0.308,-0.27 1.648,-1.379 0.004,-2.586 -0.21597,-0.12213 -0.41801,-0.26745 -0.629,-0.398 l -4.579,-2.493 c 0.118,-0.988 -0.203,-2 -0.562,-2.433 -0.47299,-0.543 -0.078,-1.418 -0.055,-1.461 0.051,-0.109 1.086,-2.129 1.614,-3.238 0.531,-1.102 0.031,-1.539 0.003,-1.567 -3.234,-3.125 -3.234,-3.113 -3.761,-3.617 l -0.153,-0.113 -4.91,-2.672 -0.183,-0.008 -0.575,0.082 -0.574,0.078 -0.183,0.059 -0.145,0.156 c -0.539,0.656 -0.539,0.645 -3.785,4.68 -0.004,0.004 -0.016,0.019 -0.031,0.039 -0.004,0.008 -0.008,0.008 -0.012,0.012 -0.004,0.011 -0.016,0.031 -0.023,0.042 -0.008,0.012 -0.016,0.024 -0.024,0.04 -0.004,0.007 -0.008,0.011 -0.012,0.019 -0.007,0.016 -0.015,0.035 -0.023,0.051 -0.012,0.023 -0.02,0.047 -0.035,0.074 -0.004,0.012 -0.004,0.016 -0.008,0.024 -0.004,0.011 -0.008,0.031 -0.012,0.042 -0.015,0.043 -0.027,0.09 -0.035,0.141 -0.008,0.031 -0.012,0.063 -0.016,0.098 -0.003,0.051 -0.007,0.105 -0.007,0.164 0,0.039 0.004,0.078 0.007,0.117 0.004,0.066 0.02,0.137 0.04,0.211 0.007,0.039 0.015,0.078 0.027,0.117 0.035,0.117 0.086,0.242 0.16,0.371 0.527,0.961 1.551,2.696 1.606,2.789 0.003,0.004 0.019,0.047 0.039,0.086 0.003,0.012 0.011,0.028 0.019,0.043 0.02,0.059 0.043,0.137 0.067,0.223 0.003,0.019 0.007,0.043 0.015,0.066 0.016,0.098 0.031,0.207 0.031,0.324 0,0.02 -0.004,0.036 -0.004,0.051 -0.003,0.117 -0.023,0.242 -0.066,0.367 -0.008,0.016 -0.008,0.032 -0.012,0.047 -0.007,0.016 -0.015,0.028 -0.019,0.035 -0.031,0.079 -0.067,0.157 -0.121,0.231 -0.043,0.062 -0.086,0.137 -0.129,0.211 -0.008,0.012 -0.012,0.031 -0.016,0.043 -0.14,0.269 -0.262,0.609 -0.347,0.98 -0.012,0.051 -0.02,0.098 -0.028,0.145 -0.043,0.207 -0.074,0.418 -0.082,0.629 h -0.004 c -0.008,0.211 0.008,0.414 0.032,0.613 0.007,0.051 0.015,0.102 0.023,0.152 0.039,0.2 0.094,0.395 0.18,0.571 0.074,0.148 0.113,0.269 0.132,0.379 0.008,0.039 0.008,0.07 0.008,0.105 0.004,0.066 0.004,0.129 -0.011,0.184 -0.016,0.05 -0.028,0.101 -0.055,0.14 v 0.004 c -0.039,0.055 -0.09,0.098 -0.145,0.137 -0.011,0.008 -0.023,0.012 -0.035,0.016 -0.035,0.023 -0.078,0.043 -0.121,0.062 -0.113,0.047 -0.238,0.082 -0.375,0.113 -0.043,0.012 -0.086,0.02 -0.133,0.028 -0.117,0.023 -0.234,0.047 -0.351,0.07 -0.09,0.02 -0.203,0.047 -0.336,0.082 h -0.008 c -0.125,0.035 -0.27,0.074 -0.426,0.125 -0.027,0.008 -0.058,0.02 -0.086,0.031 -0.136,0.043 -0.277,0.09 -0.426,0.149 -0.054,0.019 -0.113,0.047 -0.168,0.07 -0.132,0.055 -0.265,0.109 -0.406,0.176 -0.015,0.004 -0.023,0.008 -0.035,0.012 -0.07,0.035 -0.148,0.082 -0.223,0.117 -0.117,0.058 -0.234,0.117 -0.355,0.183 -0.098,0.059 -0.199,0.121 -0.297,0.184 -0.113,0.07 -0.223,0.133 -0.332,0.207 -0.016,0.012 -0.031,0.019 -0.043,0.027 -0.043,0.032 -0.086,0.071 -0.125,0.102 -0.199,0.14 -0.394,0.297 -0.59,0.465 -0.039,0.035 -0.082,0.058 -0.121,0.093 -0.121,0.11 -0.242,0.227 -0.359,0.348 -0.071,0.07 -0.137,0.145 -0.199,0.211 -0.012,0.012 -0.016,0.02 -0.028,0.031 -0.066,0.078 -0.121,0.153 -0.176,0.223 -0.015,0.023 -0.039,0.047 -0.054,0.07 -0.008,0.008 -0.008,0.012 -0.012,0.02 -0.035,0.047 -0.059,0.09 -0.086,0.136 -0.023,0.036 -0.047,0.071 -0.066,0.106 -0.004,0.008 -0.008,0.012 -0.008,0.023 -0.024,0.043 -0.043,0.086 -0.059,0.129 -0.015,0.032 -0.031,0.063 -0.043,0.09 -0.004,0.008 0,0.012 -0.004,0.016 -0.035,0.105 -0.058,0.203 -0.07,0.293 v 0.062 c -0.008,0.078 -0.004,0.156 0.008,0.231 0,0.008 0,0.019 0.004,0.031 0.015,0.078 0.039,0.148 0.07,0.219 0.008,0.015 0.016,0.031 0.024,0.047 0.031,0.058 0.066,0.117 0.105,0.168 0.004,0.003 0.008,0.007 0.012,0.015 0.043,0.055 0.09,0.106 0.14,0.149 0.012,0.011 0.024,0.023 0.036,0.035 0.046,0.039 0.089,0.078 0.136,0.109 0,0 0.004,0.004 0.004,0.008 0.051,0.031 0.094,0.062 0.137,0.09 0.012,0.008 0.023,0.015 0.039,0.023 0.031,0.02 0.062,0.035 0.082,0.051 0.004,0.004 0.008,0.004 0.012,0.008 l 2.66,1.445 c -0.02,0.024 -0.035,0.051 -0.055,0.078 -0.027,0.035 -0.058,0.074 -0.094,0.114 -0.062,0.078 -0.125,0.152 -0.203,0.234 -0.039,0.043 -0.082,0.086 -0.125,0.133 -0.043,0.051 -0.097,0.133 -0.148,0.191 -0.078,0.098 -0.153,0.192 -0.238,0.309 -0.02,0.031 -0.04,0.051 -0.059,0.082 -0.106,0.148 -0.211,0.308 -0.32,0.476 -0.012,0.016 -0.02,0.032 -0.028,0.047 -0.14,0.219 -0.281,0.453 -0.422,0.696 -0.035,0.058 -0.07,0.117 -0.101,0.175 -0.145,0.254 -0.293,0.512 -0.43,0.774 l -0.008,0.008 c -0.047,0.089 -0.089,0.175 -0.136,0.265 -0.114,0.215 -0.227,0.422 -0.328,0.633 -0.036,0.062 -0.063,0.125 -0.094,0.187 -0.11,0.227 -0.219,0.446 -0.317,0.657 -0.039,0.074 -0.066,0.14 -0.097,0.215 -0.086,0.179 -0.168,0.359 -0.235,0.515 -0.039,0.098 -0.07,0.172 -0.105,0.262 -0.035,0.094 -0.086,0.207 -0.117,0.289 -0.012,0.031 -0.02,0.062 -0.032,0.09 -0.316,0.887 -0.082,1.375 0.321,1.594 l 4.91,2.671 c -0.012,-0.007 -0.016,-0.015 -0.027,-0.023 0.199,0.117 0.441,0.172 0.683,0.168 l 8.92997,-1.25394 8.926,-1.258 c 0.699,-0.179 1.449,-0.824 0.992,-2.011 z"
         sodipodi:nodetypes="cccccccccccccccccccccccccccccccscccccccccsccccccccccccccccccccccccccccccccccccccccccccccccccccccccccccccccccccccccccccccccccccacccccccccccccc" />
      <path
         inkscape:connector-curvature="0"
         id="path143736"
         style="display:inline;fill:#a7a9ac;fill-opacity:1;fill-rule:nonzero;stroke:#000000;stroke-width:0.15468974;stroke-miterlimit:4;stroke-dasharray:none;stroke-opacity:1"
         d="m 543.512,443.383 h 0.187 l 0.141,0.117 c 0.535,0.496 0.535,0.488 3.765,3.613 0.028,0.024 0.528,0.461 -0.003,1.575 -0.524,1.101 -1.559,3.128 -1.614,3.234 -0.023,0.047 -0.41,0.914 0.051,1.465 0.465,0.547 0.871,2.054 0.356,3.242 -0.524,1.18 0.359,0.976 1.078,0.93 0.722,-0.043 2.683,-0.067 4.34,1.144 1.648,1.219 0.3,2.324 -0.004,2.594 -0.313,0.266 -1.914,0.82 -2.383,0.996 -0.465,0.18 -0.977,0.754 0.047,1.527 1.039,0.778 2.859,3.895 3.32,5.082 0.465,1.188 -0.281,1.821 -0.98,2.004 l -8.93,1.254 -8.934,1.258 c -0.695,0.012 -1.441,-0.41 -0.972,-1.73 0.468,-1.321 2.308,-4.95 3.343,-6.02 1.028,-1.059 0.516,-1.488 0.051,-1.539 -0.465,-0.047 -2.066,-0.149 -2.371,-0.328 -0.309,-0.184 -1.656,-0.91 0.004,-2.598 1.656,-1.676 3.617,-2.203 4.34,-2.363 0.719,-0.152 1.601,-0.199 1.082,-1.231 -0.512,-1.046 -0.098,-2.668 0.367,-3.347 0.465,-0.68 0.078,-1.438 0.059,-1.477 -0.055,-0.09 -1.079,-1.828 -1.606,-2.785 -0.527,-0.961 -0.023,-1.543 0.004,-1.57 3.242,-4.035 3.25,-4.028 3.781,-4.672 l 0.153,-0.16 0.175,-0.051 0.579,-0.082 z" />
    </g>
  </g>
</svg>
