<?xml version="1.0" encoding="UTF-8" standalone="no"?>
<!-- Created with Inkscape (http://www.inkscape.org/) -->

<svg
   xmlns:dc="http://purl.org/dc/elements/1.1/"
   xmlns:cc="http://creativecommons.org/ns#"
   xmlns:rdf="http://www.w3.org/1999/02/22-rdf-syntax-ns#"
   xmlns:svg="http://www.w3.org/2000/svg"
   xmlns="http://www.w3.org/2000/svg"
   xmlns:sodipodi="http://sodipodi.sourceforge.net/DTD/sodipodi-0.dtd"
   xmlns:inkscape="http://www.inkscape.org/namespaces/inkscape"
   width="10.800544mm"
   height="16.231936mm"
   viewBox="0 0 10.800543 16.231936"
   version="1.1"
   id="svg385361"
   inkscape:version="0.92.3 (2405546, 2018-03-11)"
   sodipodi:docname="Count_f.svg">
  <defs
     id="defs385355" />
  <sodipodi:namedview
     id="base"
     pagecolor="#ffffff"
     bordercolor="#666666"
     borderopacity="1.0"
     inkscape:pageopacity="0.0"
     inkscape:pageshadow="2"
     inkscape:zoom="2.8"
     inkscape:cx="-56.90003"
     inkscape:cy="31.776305"
     inkscape:document-units="mm"
     inkscape:current-layer="layer1"
     showgrid="false"
     inkscape:window-width="1920"
     inkscape:window-height="1017"
     inkscape:window-x="-8"
     inkscape:window-y="-8"
     inkscape:window-maximized="1" />
  <metadata
     id="metadata385358">
    <rdf:RDF>
      <cc:Work
         rdf:about="">
        <dc:format>image/svg+xml</dc:format>
        <dc:type
           rdf:resource="http://purl.org/dc/dcmitype/StillImage" />
        <dc:title />
      </cc:Work>
    </rdf:RDF>
  </metadata>
  <g
     inkscape:label="Ebene 1"
     inkscape:groupmode="layer"
     id="layer1"
     transform="translate(76.364008,-151.44917)">
    <g
       id="g818"
       inkscape:label="Count"
       transform="matrix(0.96521409,0,0,0.96501727,-2.6537417,5.8633307)"
       style="stroke-width:1.03614533">
      <path
         inkscape:connector-curvature="0"
         id="path198212"
         style="display:inline;fill:none;fill-opacity:1;stroke:#231f20;stroke-width:0.15853022;stroke-linecap:butt;stroke-linejoin:miter;stroke-miterlimit:10;stroke-dasharray:none;stroke-opacity:1"
         d="m -75.510458,164.07355 c -0.01588,-0.003 -0.0321,-0.006 -0.04833,-0.008 -0.335492,-0.0473 -0.70873,0.0635 -0.728486,0.0695 -0.0011,-0.15099 -0.01693,-3.01484 0.641703,-4.27037 0.306916,-0.58491 0.791986,-1.15076 0.649464,-1.82633 -0.1397,-0.67275 0.222602,-1.7071 0.572558,-2.03588 0.349603,-0.32915 -0.006,-0.90594 -0.02434,-0.93628 l -0.801864,-1.08549 -0.02222,-0.0554 2.08527,-1.13418 c 0.14358,-0.17357 0.303741,-0.29422 0.461786,-0.37606 -0.0095,0.005 -0.01834,0.007 -0.02787,0.012 l 2.412295,-1.31198 c 0.0187,-0.0102 0.03704,-0.0194 0.05539,-0.0286 0.05539,-0.0272 0.109714,-0.0483 0.16263,-0.067 0.01376,-0.005 0.02575,-0.007 0.03845,-0.0116 0.0254,-0.008 0.0508,-0.0173 0.0755,-0.0236 0.03104,-0.008 0.05962,-0.013 0.0889,-0.0183 0.0099,-0.002 0.02011,-0.005 0.02999,-0.006 0.0568,-0.01 0.107597,-0.0141 0.154164,-0.0162 0.01199,-7.1e-4 0.02258,-7.1e-4 0.03387,-0.001 0.04339,-3.5e-4 0.08326,0.001 0.112889,0.005 0.0321,0.005 0.07514,0.0152 0.123472,0.0296 0.0085,0.003 0.01588,0.005 0.02505,0.007 0.04868,0.0159 0.103011,0.0377 0.162631,0.0646 0.0067,0.003 0.01129,0.004 0.01834,0.007 0.01164,0.005 0.02505,0.0134 0.03704,0.0191 0.02187,0.0109 0.04304,0.0222 0.06597,0.0346 0.02258,0.0124 0.04586,0.0258 0.06914,0.0402 0.02293,0.0138 0.04586,0.0279 0.06914,0.0434 0.01341,0.009 0.02611,0.0155 0.03951,0.025 0.0078,0.005 0.01588,0.013 0.02363,0.0187 0.117122,0.0832 0.237419,0.18697 0.354189,0.31608 0.0053,0.006 0.01093,0.0102 0.01623,0.0166 0.01199,0.0138 0.02364,0.031 0.03563,0.0452 0.03281,0.0392 0.06526,0.0794 0.09701,0.12277 0.0095,0.0127 0.0194,0.0236 0.02893,0.0367 0.0099,0.0145 0.0187,0.0317 0.02858,0.0466 0.0321,0.0476 0.06244,0.0981 0.09243,0.15029 0.01058,0.0187 0.02258,0.0346 0.03281,0.054 0.0049,0.009 0.0085,0.0201 0.01305,0.0293 0.05045,0.0963 0.09807,0.19862 0.1397,0.31115 0.0014,0.004 0.0035,0.007 0.0049,0.0109 0.01764,0.049 0.03246,0.10336 0.04868,0.15557 0.01129,0.0363 0.02363,0.0699 0.03351,0.1076 0.01623,0.0607 0.02893,0.12629 0.04233,0.19121 0.0085,0.0392 0.01834,0.0762 0.02505,0.11676 0.0127,0.072 0.02046,0.14994 0.02893,0.22684 0.0046,0.0388 0.01129,0.0741 0.01446,0.11395 0.0099,0.11924 0.01517,0.24377 0.01552,0.37465 l 1.533878,-0.15064 0.05927,0.0208 -0.02222,0.049 -0.797984,0.86043 c -0.0021,0.003 -0.0095,0.013 -0.0187,0.0268 -0.0018,0.002 -0.0046,0.007 -0.0063,0.0106 -0.0085,0.0127 -0.01834,0.0293 -0.02893,0.0476 -0.0046,0.008 -0.0092,0.0169 -0.01376,0.0254 -0.0099,0.0183 -0.01976,0.0392 -0.02999,0.0614 -0.0049,0.012 -0.0099,0.024 -0.01482,0.0363 -0.0099,0.0233 -0.01799,0.0494 -0.0261,0.0755 -0.0042,0.0141 -0.0088,0.0275 -0.0127,0.0423 -0.0078,0.0317 -0.01305,0.0656 -0.01729,0.10019 -0.0014,0.0109 -0.0039,0.0215 -0.0046,0.0328 -0.0035,0.0459 -0.0021,0.0935 0.0046,0.14182 0.0018,0.0127 0.0071,0.0261 0.0099,0.0395 0.0074,0.0385 0.01729,0.0769 0.03351,0.11642 0.0032,0.007 0.0071,0.0152 0.01058,0.0226 0.02328,0.0505 0.05292,0.1009 0.09384,0.15099 0.01905,0.0229 0.03845,0.0487 0.05715,0.0759 0.01341,0.019 0.02681,0.0448 0.04057,0.066 0.0187,0.0296 0.03739,0.0593 0.05609,0.0924 0.0085,0.0152 0.01764,0.0268 0.02575,0.0423 0.01834,0.0339 0.03563,0.0727 0.05292,0.10936 0.01199,0.0236 0.02364,0.0459 0.03493,0.0713 0.03634,0.0797 0.07126,0.16404 0.103717,0.25259 0.04233,0.1143 0.07973,0.2346 0.112536,0.35595 0.01023,0.0363 0.01764,0.0716 0.02646,0.10831 0.02046,0.085 0.03845,0.16898 0.05327,0.25329 0.0071,0.0416 0.01305,0.0818 0.0187,0.12277 0.01094,0.0825 0.01729,0.16122 0.02046,0.23918 0.0018,0.0356 0.0049,0.0713 0.0046,0.10583 -3.52e-4,0.10831 -0.0074,0.21167 -0.02681,0.30233 -0.01658,0.0744 -0.02293,0.14993 -0.02328,0.22613 0,0.0258 0.0032,0.0515 0.0049,0.0773 0.0028,0.0512 0.0071,0.10266 0.01517,0.15452 0.0053,0.0296 0.01199,0.0596 0.0187,0.0896 0.01094,0.0494 0.02328,0.0988 0.0381,0.14851 0.0092,0.03 0.01834,0.0596 0.02858,0.0896 0.01517,0.0434 0.03175,0.0868 0.04939,0.13053 0.02117,0.0543 0.04374,0.10865 0.06809,0.16298 0.01764,0.0395 0.03528,0.0794 0.05433,0.11924 0.02681,0.0561 0.05433,0.11254 0.08255,0.16898 0.02187,0.0444 0.0441,0.0889 0.06668,0.1337 0.0381,0.0744 0.0762,0.14888 0.113947,0.22331 0.04833,0.0956 0.0956,0.19085 0.139347,0.28575 0.04022,0.0875 0.07796,0.18027 0.113242,0.27729 0,3.4e-4 3.52e-4,7.1e-4 3.52e-4,0.001 0.01658,0.0445 0.03069,0.0924 0.04621,0.13899 0.01799,0.0543 0.03669,0.1076 0.05362,0.1644 0.01517,0.0508 0.02822,0.10371 0.04233,0.15592 0.01482,0.0561 0.03034,0.11078 0.04445,0.16793 0.01305,0.054 0.0247,0.10971 0.03669,0.1651 0.0127,0.0575 0.02575,0.11465 0.03775,0.17356 0.01129,0.0564 0.02117,0.1136 0.03175,0.17039 0.01094,0.0589 0.02152,0.11748 0.0314,0.1771 0.0099,0.0572 0.01834,0.11465 0.02716,0.17251 0.0088,0.0596 0.01799,0.11924 0.02646,0.17886 0.0074,0.0575 0.01482,0.11465 0.02187,0.1718 0.0078,0.0596 0.01482,0.11924 0.02187,0.1785 0.006,0.0557 0.01199,0.11042 0.01799,0.16546 0.006,0.06 0.01199,0.11888 0.01729,0.1778 0.0049,0.0536 0.0099,0.10583 0.01411,0.15804 0.0049,0.0579 0.0095,0.1143 0.01376,0.17039 0.0039,0.0508 0.0078,0.1009 0.01094,0.15029 0.0035,0.0554 0.0071,0.1083 0.01023,0.16157 0.0028,0.0462 0.0056,0.0917 0.0078,0.13617 0.0028,0.0526 0.0056,0.10195 0.0078,0.1517 0.0021,0.0409 0.0039,0.0815 0.0056,0.12029 0.0018,0.0483 0.0032,0.0924 0.0049,0.13723 0.0014,0.0353 0.0025,0.0709 0.0035,0.10372 0.0014,0.0434 0.0025,0.0815 0.0032,0.11994 7.06e-4,0.0272 0.0018,0.0557 0.0021,0.0804 7.06e-4,0.0406 0.0014,0.0744 0.0018,0.1083 0,0.0169 3.53e-4,0.0356 3.53e-4,0.0508 7.05e-4,0.036 7.05e-4,0.0635 7.05e-4,0.0889 3.53e-4,0.007 3.53e-4,0.0159 3.53e-4,0.0219 v 0.0564 l -1.059744,0.57644 c 0.01058,0.0339 0.01834,0.067 0.03104,0.10124 0.03986,0.1076 0.08996,0.21555 0.144639,0.31997 0.01517,0.0303 0.03175,0.0603 0.04833,0.0896 0.02999,0.0529 0.06138,0.10407 0.09419,0.15346 0.03034,0.0459 0.05962,0.0928 0.09172,0.13441 0.0039,0.005 0.01623,0.0194 0.03281,0.0391 0.0049,0.006 0.01023,0.0124 0.01552,0.0191 0.01482,0.0176 0.03034,0.037 0.04974,0.061 0.0099,0.0123 0.01976,0.0247 0.03034,0.0388 0.01834,0.0236 0.03634,0.0473 0.05609,0.0737 0.01199,0.0159 0.02293,0.0311 0.03528,0.0476 0.0085,0.0123 0.01693,0.0233 0.02575,0.0356 0.0053,0.007 0.0092,0.0152 0.01411,0.0226 0.03951,0.0572 0.07655,0.11501 0.109008,0.17286 0.0035,0.007 0.0095,0.0141 0.01341,0.0215 0.0014,0.002 0.0018,0.004 0.0028,0.006 0.0085,0.0159 0.01376,0.0303 0.02152,0.0462 0.01094,0.0229 0.02364,0.0469 0.03175,0.0688 0.0025,0.006 0.0035,0.0123 0.0053,0.0187 0.0025,0.008 0.0046,0.0145 0.0064,0.0222 0.0099,0.0353 0.01482,0.0681 0.01094,0.0956 -3.52e-4,0.004 -0.0021,0.007 -0.0028,0.0106 -0.006,0.0279 -0.0187,0.0512 -0.0448,0.0653 l -2.411942,1.31198 c -0.03281,0.018 -0.08255,0.0236 -0.153811,0.0138 -0.02152,-0.004 -0.04551,-0.007 -0.07126,-0.0138 -0.233891,-0.0564 -0.64523,-0.12241 -1.090083,-0.1845 -0.889,-0.12524 -1.860197,-0.23178 -1.91135,-0.23742 l -0.365831,-0.95215 -1.315508,0.71614 c -0.05115,-0.009 -1.023761,-0.17568 -1.913467,-0.30057 -0.445558,-0.0628 -0.856897,-0.11253 -1.090436,-0.12206 -0.02611,-7.1e-4 -0.05009,-0.003 -0.07161,-0.006 -0.564797,-0.0794 0.215195,-0.77011 0.256117,-0.80609 0.460022,-0.4752 0.771525,-1.49578 0.121708,-1.62066 z" />
      <path
         inkscape:connector-curvature="0"
         id="path198212-3"
         style="display:inline;fill:#42214f;fill-opacity:1;stroke:none;stroke-width:0.15853022;stroke-linecap:butt;stroke-linejoin:miter;stroke-miterlimit:10;stroke-dasharray:none;stroke-opacity:1"
         d="m -75.510808,164.07214 c -0.01588,-0.003 -0.0321,-0.006 -0.04833,-0.008 -0.335492,-0.0473 -0.708731,0.0635 -0.728486,0.0695 -0.0011,-0.15099 -0.01693,-3.01484 0.641702,-4.27038 0.306917,-0.5849 0.791987,-1.15076 0.649464,-1.82633 -0.1397,-0.67274 0.222603,-1.70709 0.572559,-2.03588 0.349602,-0.32914 -0.006,-0.90593 -0.02434,-0.93627 l -0.801864,-1.0855 -0.02222,-0.0554 2.085269,-1.13418 c 0.143581,-0.17357 0.303742,-0.29422 0.461787,-0.37606 -0.0095,0.005 -0.01834,0.007 -0.02787,0.012 l 2.412294,-1.31198 c 0.0187,-0.0102 0.03704,-0.0194 0.05539,-0.0286 0.05539,-0.0272 0.109713,-0.0483 0.16263,-0.067 0.01376,-0.005 0.02575,-0.007 0.03845,-0.0116 0.0254,-0.008 0.0508,-0.0173 0.07549,-0.0236 0.03104,-0.008 0.05962,-0.0131 0.0889,-0.0183 0.0099,-0.002 0.02011,-0.005 0.02999,-0.006 0.0568,-0.01 0.107598,-0.0141 0.154164,-0.0162 0.01199,-7.1e-4 0.02258,-7.1e-4 0.03387,-0.001 0.04339,-3.5e-4 0.08326,0.001 0.112889,0.005 0.0321,0.005 0.07514,0.0152 0.123472,0.0296 0.0085,0.003 0.01588,0.005 0.02505,0.007 0.04868,0.0159 0.103011,0.0377 0.162631,0.0646 0.0067,0.003 0.01129,0.004 0.01834,0.007 0.01164,0.005 0.02505,0.0134 0.03704,0.019 0.02187,0.0109 0.04304,0.0222 0.06597,0.0346 0.02258,0.0123 0.04586,0.0258 0.06914,0.0402 0.02293,0.0138 0.04586,0.0279 0.06914,0.0434 0.01341,0.009 0.02611,0.0155 0.03951,0.0251 0.0078,0.005 0.01588,0.013 0.02364,0.0187 0.117122,0.0833 0.237419,0.18698 0.354188,0.31609 0.0053,0.006 0.01094,0.0102 0.01623,0.0166 0.01199,0.0138 0.02363,0.031 0.03563,0.0452 0.03281,0.0392 0.06526,0.0794 0.09701,0.12277 0.0095,0.0127 0.0194,0.0236 0.02893,0.0367 0.0099,0.0145 0.0187,0.0317 0.02858,0.0466 0.0321,0.0476 0.06244,0.0981 0.09243,0.15028 0.01058,0.0187 0.02258,0.0346 0.03281,0.054 0.0049,0.009 0.0085,0.0201 0.01305,0.0293 0.05045,0.0963 0.09807,0.19861 0.1397,0.31115 0.0014,0.004 0.0035,0.007 0.0049,0.0109 0.01764,0.049 0.03246,0.10336 0.04868,0.15557 0.01129,0.0363 0.02363,0.0699 0.03351,0.1076 0.01623,0.0607 0.02893,0.12629 0.04233,0.1912 0.0085,0.0392 0.01834,0.0762 0.02505,0.11677 0.0127,0.072 0.02046,0.14993 0.02893,0.22684 0.0046,0.0388 0.01129,0.0741 0.01447,0.11395 0.0099,0.11924 0.01517,0.24377 0.01552,0.37465 l 1.533878,-0.15064 0.05927,0.0208 -0.02222,0.049 -0.797984,0.86043 c -0.0021,0.003 -0.0095,0.013 -0.0187,0.0268 -0.0018,0.002 -0.0046,0.007 -0.0063,0.0106 -0.0085,0.0127 -0.01834,0.0293 -0.02893,0.0476 -0.0046,0.008 -0.0092,0.0169 -0.01376,0.0254 -0.0099,0.0183 -0.01976,0.0391 -0.02999,0.0614 -0.0049,0.012 -0.0099,0.024 -0.01482,0.0363 -0.0099,0.0233 -0.01799,0.0494 -0.02611,0.0755 -0.0042,0.0141 -0.0088,0.0275 -0.0127,0.0423 -0.0078,0.0318 -0.01305,0.0656 -0.01729,0.10019 -0.0014,0.0109 -0.0039,0.0215 -0.0046,0.0328 -0.0035,0.0459 -0.0021,0.0935 0.0046,0.14182 0.0018,0.0127 0.0071,0.0261 0.0099,0.0395 0.0074,0.0385 0.01729,0.0769 0.03351,0.11641 0.0032,0.007 0.0071,0.0152 0.01058,0.0226 0.02328,0.0504 0.05292,0.1009 0.09384,0.15099 0.01905,0.0229 0.03845,0.0487 0.05715,0.0759 0.01341,0.0191 0.02681,0.0448 0.04057,0.066 0.0187,0.0296 0.03739,0.0593 0.05609,0.0924 0.0085,0.0152 0.01764,0.0268 0.02575,0.0423 0.01834,0.0339 0.03563,0.0727 0.05292,0.10936 0.01199,0.0236 0.02364,0.0459 0.03493,0.0713 0.03634,0.0797 0.07126,0.16404 0.103716,0.25259 0.04233,0.1143 0.07973,0.2346 0.112536,0.35595 0.01023,0.0363 0.01764,0.0716 0.02646,0.1083 0.02046,0.085 0.03845,0.16899 0.05327,0.2533 0.0071,0.0416 0.01305,0.0818 0.0187,0.12277 0.01094,0.0825 0.01729,0.16122 0.02046,0.23918 0.0018,0.0356 0.0049,0.0713 0.0046,0.10583 -3.52e-4,0.10831 -0.0074,0.21167 -0.02681,0.30233 -0.01658,0.0744 -0.02293,0.14993 -0.02328,0.22613 0,0.0258 0.0032,0.0515 0.0049,0.0773 0.0028,0.0512 0.0071,0.10266 0.01517,0.15452 0.0053,0.0296 0.01199,0.0596 0.0187,0.0896 0.01094,0.0494 0.02328,0.0988 0.0381,0.14852 0.0092,0.03 0.01834,0.0596 0.02858,0.0896 0.01517,0.0434 0.03175,0.0868 0.04939,0.13053 0.02117,0.0543 0.04374,0.10865 0.06809,0.16298 0.01764,0.0395 0.03528,0.0794 0.05433,0.11924 0.02681,0.0561 0.05433,0.11254 0.08255,0.16898 0.02187,0.0444 0.0441,0.0889 0.06668,0.1337 0.0381,0.0744 0.0762,0.14888 0.113947,0.22331 0.04833,0.0956 0.0956,0.19085 0.139347,0.28575 0.04022,0.0875 0.07796,0.18027 0.113242,0.27728 0,3.5e-4 3.49e-4,7.2e-4 3.49e-4,0.001 0.01658,0.0444 0.03069,0.0924 0.04621,0.13899 0.01799,0.0543 0.03669,0.1076 0.05362,0.1644 0.01517,0.0508 0.02822,0.10371 0.04233,0.15592 0.01482,0.0561 0.03034,0.11078 0.04445,0.16793 0.01305,0.054 0.02469,0.10971 0.03669,0.1651 0.0127,0.0575 0.02575,0.11465 0.03775,0.17356 0.01129,0.0564 0.02117,0.1136 0.03175,0.17039 0.01094,0.0589 0.02152,0.11748 0.0314,0.1771 0.0099,0.0572 0.01834,0.11465 0.02716,0.17251 0.0088,0.0596 0.01799,0.11924 0.02646,0.17885 0.0074,0.0575 0.01482,0.11466 0.02187,0.17181 0.0078,0.0596 0.01482,0.11924 0.02187,0.1785 0.006,0.0557 0.01199,0.11042 0.01799,0.16546 0.006,0.06 0.01199,0.11888 0.01729,0.1778 0.0049,0.0536 0.0099,0.10583 0.01411,0.15804 0.0049,0.0579 0.0095,0.1143 0.01376,0.17039 0.0039,0.0508 0.0078,0.1009 0.01094,0.15029 0.0035,0.0554 0.0071,0.1083 0.01023,0.16157 0.0028,0.0462 0.0056,0.0917 0.0078,0.13617 0.0028,0.0526 0.0056,0.10195 0.0078,0.15169 0.0021,0.0409 0.0039,0.0815 0.0056,0.1203 0.0018,0.0483 0.0032,0.0924 0.0049,0.13723 0.0014,0.0353 0.0025,0.0709 0.0035,0.10372 0.0014,0.0434 0.0025,0.0815 0.0032,0.11994 7.05e-4,0.0272 0.0018,0.0557 0.0021,0.0804 7.06e-4,0.0406 0.0014,0.0744 0.0018,0.1083 0,0.0169 3.53e-4,0.0356 3.53e-4,0.0508 7.06e-4,0.036 7.06e-4,0.0635 7.06e-4,0.0889 3.52e-4,0.007 3.52e-4,0.0159 3.52e-4,0.0219 v 0.0565 l -1.059744,0.57644 c 0.01058,0.0339 0.01834,0.067 0.03104,0.10124 0.03986,0.1076 0.08996,0.21555 0.144639,0.31997 0.01517,0.0303 0.03175,0.0603 0.04833,0.0896 0.02999,0.0529 0.06138,0.10407 0.09419,0.15346 0.03034,0.0459 0.05962,0.0928 0.09172,0.1344 0.0039,0.005 0.01623,0.0194 0.03281,0.0392 0.0049,0.006 0.01023,0.0123 0.01552,0.019 0.01482,0.0176 0.03034,0.037 0.04974,0.061 0.0099,0.0123 0.01976,0.0247 0.03034,0.0388 0.01834,0.0236 0.03634,0.0473 0.05609,0.0737 0.01199,0.0159 0.02293,0.031 0.03528,0.0476 0.0085,0.0123 0.01693,0.0233 0.02575,0.0356 0.0053,0.007 0.0092,0.0152 0.01411,0.0226 0.03951,0.0572 0.07655,0.11501 0.109008,0.17286 0.0035,0.007 0.0095,0.0141 0.01341,0.0215 0.0014,0.002 0.0018,0.004 0.0028,0.006 0.0085,0.0159 0.01376,0.0303 0.02152,0.0462 0.01094,0.0229 0.02364,0.0469 0.03175,0.0688 0.0025,0.006 0.0035,0.0123 0.0053,0.0187 0.0025,0.008 0.0046,0.0145 0.0063,0.0222 0.0099,0.0353 0.01482,0.0681 0.01094,0.0956 -3.49e-4,0.004 -0.0021,0.007 -0.0028,0.0106 -0.006,0.0279 -0.0187,0.0512 -0.0448,0.0653 l -2.411942,1.31198 c -0.03281,0.018 -0.08255,0.0236 -0.153811,0.0138 -0.02152,-0.004 -0.04551,-0.007 -0.07126,-0.0138 -0.233891,-0.0564 -0.64523,-0.12241 -1.090083,-0.1845 -0.889,-0.12524 -1.860197,-0.23178 -1.91135,-0.23742 l -0.365831,-0.95215 -1.315508,0.71614 c -0.05115,-0.009 -1.023761,-0.17568 -1.913466,-0.30057 -0.445559,-0.0628 -0.856898,-0.11253 -1.090437,-0.12206 -0.02611,-7.1e-4 -0.05009,-0.003 -0.07161,-0.006 -0.564798,-0.0794 0.215194,-0.77011 0.256116,-0.80609 0.460022,-0.4752 0.771525,-1.49578 0.121709,-1.62067 z" />
      <path
         inkscape:connector-curvature="0"
         id="path198554"
         style="display:inline;fill:#7f3f98;fill-opacity:1;fill-rule:nonzero;stroke:#231f20;stroke-width:0.0549157;stroke-miterlimit:4;stroke-dasharray:none;stroke-opacity:1"
         d="m -72.001449,152.25938 c -0.336198,-0.0473 -1.680634,0.12665 -1.676753,2.24331 l -1.534936,-0.58137 -0.05891,0.001 0.02222,0.0579 0.801511,1.0855 c 0.0187,0.0303 0.374297,0.60748 0.02469,0.93627 -0.349956,0.32879 -0.712612,1.36066 -0.572559,2.03623 0.142522,0.67557 -0.342547,1.24143 -0.649464,1.82669 -0.658283,1.25518 -0.642408,4.11938 -0.641702,4.27037 0.0194,-0.006 0.392994,-0.11641 0.728838,-0.0695 0.01588,0.002 0.0321,0.005 0.04833,0.008 0.649817,0.12524 0.338314,1.14547 -0.121708,1.62067 -0.04092,0.0363 -0.820914,0.72707 -0.256823,0.80609 0.02222,0.003 0.04586,0.005 0.07232,0.007 0.233539,0.009 0.644878,0.0593 1.08973,0.12171 0.890059,0.12489 1.862667,0.29175 1.91382,0.30057 l 0.480836,-1.13736 c 0.0095,-0.0155 0.183092,-0.30973 0.355247,-0.28539 0.172861,0.024 0.347839,0.36759 0.357011,0.38558 l 0.488245,1.27353 c 0.0508,0.006 1.021997,0.11183 1.91135,0.23707 0.4445,0.0628 0.856191,0.12806 1.08973,0.1845 0.02611,0.006 0.04939,0.0106 0.07126,0.0138 0.564445,0.0794 -0.218369,-0.83079 -0.259997,-0.87912 -0.463903,-0.60502 -0.776817,-1.71274 -0.127,-1.65524 0.01588,0.002 0.0321,0.003 0.04833,0.006 0.335491,0.0473 0.709436,0.26282 0.728838,0.27446 3.52e-4,-0.15063 0.006,-3.01201 -0.657577,-4.45311 -0.309386,-0.67169 -0.796573,-1.37442 -0.65652,-2.01048 0.136878,-0.63606 -0.229658,-1.77059 -0.580319,-2.19781 -0.351367,-0.42756 0.0021,-0.90523 0.02081,-0.93027 l 0.797631,-0.86043 0.02258,-0.0519 -0.05927,-0.0176 -1.533877,0.15029 c -0.0039,-2.11667 -1.349375,-2.66877 -1.685925,-2.71604" />
    </g>
  </g>
</svg>
