<?xml version="1.0" encoding="UTF-8" standalone="no"?>
<!-- Created with Inkscape (http://www.inkscape.org/) -->

<svg
   xmlns:dc="http://purl.org/dc/elements/1.1/"
   xmlns:cc="http://creativecommons.org/ns#"
   xmlns:rdf="http://www.w3.org/1999/02/22-rdf-syntax-ns#"
   xmlns:svg="http://www.w3.org/2000/svg"
   xmlns="http://www.w3.org/2000/svg"
   xmlns:sodipodi="http://sodipodi.sourceforge.net/DTD/sodipodi-0.dtd"
   xmlns:inkscape="http://www.inkscape.org/namespaces/inkscape"
   width="6.6201701mm"
   height="9.2361546mm"
   viewBox="0 0 6.6201701 9.2361543"
   version="1.1"
   id="svg139540"
   sodipodi:docname="Fairy_f.svg"
   inkscape:version="0.92.3 (2405546, 2018-03-11)">
  <defs
     id="defs139534" />
  <sodipodi:namedview
     id="base"
     pagecolor="#ffffff"
     bordercolor="#666666"
     borderopacity="1.0"
     inkscape:pageopacity="0.0"
     inkscape:pageshadow="2"
     inkscape:zoom="11.2"
     inkscape:cx="5.7660317"
     inkscape:cy="16.548915"
     inkscape:document-units="mm"
     inkscape:current-layer="layer1"
     showgrid="false"
     inkscape:window-width="1920"
     inkscape:window-height="1017"
     inkscape:window-x="-8"
     inkscape:window-y="-8"
     inkscape:window-maximized="1" />
  <metadata
     id="metadata139537">
    <rdf:RDF>
      <cc:Work
         rdf:about="">
        <dc:format>image/svg+xml</dc:format>
        <dc:type
           rdf:resource="http://purl.org/dc/dcmitype/StillImage" />
        <dc:title />
      </cc:Work>
    </rdf:RDF>
  </metadata>
  <g
     inkscape:label="Ebene 1"
     inkscape:groupmode="layer"
     id="layer1"
     transform="translate(326.10185,19.901813)">
    <g
       id="g45499"
       transform="matrix(-0.35276754,0,0,-0.30685248,-163.71694,67.537521)"
       style="display:inline;stroke-width:1.07224011"
       inkscape:label="Fairy">
      <path
         inkscape:connector-curvature="0"
         id="path45497"
         style="display:inline;fill:none;fill-opacity:1;stroke:#000000;stroke-width:0.46503145;stroke-linecap:round;stroke-linejoin:round;stroke-miterlimit:10;stroke-dasharray:none;stroke-opacity:1"
         d="m 457.09861,265.32709 c -0.662,1.67 -0.029,2.104 0.004,2.127 0.157,0.024 3.147,0.485 2.975,2.544 -0.036,0.472 -0.302,0.766 -0.681,0.951 0.021,-0.011 0.05,-0.014 0.07,-0.024 l -3.916,2.13 c -0.09,3.947 -0.928,7.229 -1.265,8.326 -0.145,0.471 -0.327,0.693 -0.516,0.792 0.003,-0.002 0.006,-9.9e-4 0.01,-0.003 l -4.559,2.48 -0.023,0.012 c -0.038,0.019 -0.077,0.032 -0.116,0.042 -0.032,0.009 -0.065,0.007 -0.097,0.011 -0.026,0.002 -0.049,0.007 -0.074,0.008 -0.079,0 -0.157,-0.005 -0.231,-0.015 -0.107,-0.016 -0.222,-0.039 -0.337,-0.09 -0.007,-0.003 -0.013,-0.002 -0.019,-0.005 -0.009,-0.004 -0.018,-0.011 -0.027,-0.015 -0.018,-0.009 -0.037,-0.021 -0.056,-0.033 -0.013,-0.008 -0.026,-0.013 -0.038,-0.022 -0.016,-0.011 -0.033,-0.026 -0.048,-0.038 -0.01,-0.008 -0.02,-0.014 -0.03,-0.023 -0.005,-0.004 -0.008,-0.007 -0.013,-0.01 -0.028,-0.025 -0.055,-0.053 -0.082,-0.083 -0.007,-0.008 -0.014,-0.019 -0.021,-0.027 -0.009,-0.01 -0.016,-0.021 -0.025,-0.032 -0.014,-0.017 -0.028,-0.032 -0.04,-0.051 -0.018,-0.024 -0.034,-0.056 -0.051,-0.083 -0.013,-0.02 -0.025,-0.04 -0.037,-0.062 -0.004,-0.007 -0.008,-0.012 -0.012,-0.019 -0.01,-0.018 -0.018,-0.045 -0.028,-0.064 -0.032,-0.065 -0.064,-0.134 -0.094,-0.212 -0.006,-0.015 -0.013,-0.025 -0.018,-0.039 -0.026,-0.073 -0.051,-0.15 -0.077,-0.235 -0.402,-1.405 -1.515,-6.039 -1.268,-10.843 -0.027,-9.7e-4 -0.522,-0.01 -1.211,-0.107 -0.318,-0.045 -0.67,-0.109 -1.025,-0.198 -0.005,-0.002 -0.009,-0.002 -0.014,-0.004 -0.341,-0.086 -0.678,-0.2 -0.99,-0.343 -0.017,-0.007 -0.037,-0.01 -0.052,-0.017 -0.008,-0.004 -0.015,-0.009 -0.023,-0.013 -0.099,-0.048 -0.188,-0.105 -0.281,-0.159 -0.06,-0.035 -0.126,-0.066 -0.182,-0.104 l -0.014,-0.012 c -0.013,-0.008 -0.023,-0.018 -0.035,-0.027 -0.069,-0.05 -0.138,-0.1 -0.199,-0.155 -0.054,-0.049 -0.104,-0.1 -0.151,-0.152 l -0.006,-0.006 c -0.001,-9.8e-4 -0.003,-0.002 -0.004,-0.004 -0.043,-0.049 -0.083,-0.099 -0.119,-0.151 -0.035,-0.05 -0.067,-0.102 -0.096,-0.156 -0.012,-0.022 -0.02,-0.047 -0.031,-0.069 -0.007,-0.013 -0.013,-0.027 -0.018,-0.039 -0.011,-0.027 -0.026,-0.052 -0.036,-0.078 -0.043,-0.119 -0.071,-0.245 -0.082,-0.379 -0.06,-0.742 0.269,-1.17499 0.729,-1.425 l 2.516,-1.368 c -0.04,-0.27499 -0.125,-0.616 -0.281,-1.04299 -0.676,-1.85901 -2.237,-6.28201 -2.319,-6.51501 -0.002,-0.004 -0.005,-0.01 -0.009,-0.017 -0.01,-0.018 -0.025,-0.047 -0.045,-0.086 -0.007,-0.013 -0.012,-0.026 -0.02,-0.041 -0.025,-0.049 -0.054,-0.11 -0.085,-0.18 -0.009,-0.019 -0.016,-0.034 -0.025,-0.055 -0.037,-0.084 -0.075,-0.176 -0.113,-0.277 -0.003,-0.01 -0.007,-0.02 -0.01,-0.029 -0.003,-0.008 -0.005,-0.016 -0.008,-0.023 -0.037,-0.104 -0.07,-0.215 -0.099,-0.328 -0.005,-0.021 -0.011,-0.041 -0.017,-0.063 -0.027,-0.119 -0.048,-0.238 -0.058,-0.358 -0.003,-0.022 -0.002,-0.045 -0.004,-0.067 -0.006,-0.109 -0.002,-0.215 0.013,-0.317 0.002,-0.014 0.002,-0.031 0.006,-0.047 0.022,-0.107 0.062,-0.207 0.117,-0.297 0.013,-0.022 0.028,-0.04 0.042,-0.061 0.067,-0.089 0.147,-0.17 0.259,-0.231 l 4.559,-2.48 c -0.015,0.008 -0.02,0.022 -0.033,0.029 0.257,-0.158 0.652,-0.231 1.261,-0.145 2.804,0.394 4.912,0.69 5.023,0.706 0.111,0.016 2.219,0.312 5.03,0.707 2.804,0.394 1.257,2.796 1.175,2.923 -0.081,0.21 -1.626,4.197 -2.295,5.866 z" />
      <path
         inkscape:connector-curvature="0"
         id="path45497-6"
         style="display:inline;fill:#a8a8a8;fill-opacity:1;stroke:none;stroke-width:0.46503139;stroke-linecap:round;stroke-linejoin:round;stroke-miterlimit:10;stroke-dasharray:none;stroke-opacity:1"
         d="m 457.09861,265.32709 c -0.662,1.67 -0.029,2.104 0.004,2.127 0.157,0.024 3.147,0.485 2.975,2.544 -0.036,0.472 -0.302,0.766 -0.681,0.951 0.021,-0.011 0.05,-0.014 0.07,-0.024 l -3.916,2.13 c -0.09,3.947 -0.928,7.229 -1.265,8.326 -0.145,0.471 -0.327,0.693 -0.516,0.792 0.003,-0.002 0.006,-9.9e-4 0.01,-0.003 l -4.559,2.48 -0.023,0.012 c -0.038,0.019 -0.077,0.032 -0.116,0.042 -0.032,0.009 -0.065,0.007 -0.097,0.011 -0.026,0.002 -0.049,0.007 -0.074,0.008 -0.079,0 -0.157,-0.005 -0.231,-0.015 -0.107,-0.016 -0.222,-0.039 -0.337,-0.09 -0.007,-0.003 -0.013,-0.002 -0.019,-0.005 -0.009,-0.004 -0.018,-0.011 -0.027,-0.015 -0.018,-0.009 -0.037,-0.021 -0.056,-0.033 -0.013,-0.008 -0.026,-0.013 -0.038,-0.022 -0.016,-0.011 -0.033,-0.026 -0.048,-0.038 -0.01,-0.008 -0.02,-0.014 -0.03,-0.023 -0.005,-0.004 -0.008,-0.007 -0.013,-0.01 -0.028,-0.025 -0.055,-0.053 -0.082,-0.083 -0.007,-0.008 -0.014,-0.019 -0.021,-0.027 -0.009,-0.01 -0.016,-0.021 -0.025,-0.032 -0.014,-0.017 -0.028,-0.032 -0.04,-0.051 -0.018,-0.024 -0.034,-0.056 -0.051,-0.083 -0.013,-0.02 -0.025,-0.04 -0.037,-0.062 -0.004,-0.007 -0.008,-0.012 -0.012,-0.019 -0.01,-0.018 -0.018,-0.045 -0.028,-0.064 -0.032,-0.065 -0.064,-0.134 -0.094,-0.212 -0.006,-0.015 -0.013,-0.025 -0.018,-0.039 -0.026,-0.073 -0.051,-0.15 -0.077,-0.235 -0.402,-1.405 -1.515,-6.039 -1.268,-10.843 -0.027,-9.7e-4 -0.522,-0.01 -1.211,-0.107 -0.318,-0.045 -0.67,-0.109 -1.025,-0.198 -0.005,-0.002 -0.009,-0.002 -0.014,-0.004 -0.341,-0.086 -0.678,-0.2 -0.99,-0.343 -0.017,-0.007 -0.037,-0.01 -0.052,-0.017 -0.008,-0.004 -0.015,-0.009 -0.023,-0.013 -0.099,-0.048 -0.188,-0.105 -0.281,-0.159 -0.06,-0.035 -0.126,-0.066 -0.182,-0.104 l -0.014,-0.012 c -0.013,-0.008 -0.023,-0.018 -0.035,-0.027 -0.069,-0.05 -0.138,-0.1 -0.199,-0.155 -0.054,-0.049 -0.104,-0.1 -0.151,-0.152 l -0.006,-0.006 c -9.7e-4,-9.8e-4 -0.003,-0.002 -0.004,-0.004 -0.043,-0.049 -0.083,-0.099 -0.119,-0.151 -0.035,-0.05 -0.067,-0.102 -0.096,-0.156 -0.012,-0.022 -0.02,-0.047 -0.031,-0.069 -0.007,-0.013 -0.013,-0.027 -0.018,-0.039 -0.011,-0.027 -0.026,-0.052 -0.036,-0.078 -0.043,-0.119 -0.071,-0.245 -0.082,-0.379 -0.06,-0.742 0.269,-1.17499 0.729,-1.425 l 2.516,-1.368 c -0.04,-0.27499 -0.125,-0.616 -0.281,-1.04299 -0.676,-1.85901 -2.237,-6.28201 -2.319,-6.51501 -0.002,-0.004 -0.005,-0.01 -0.009,-0.017 -0.01,-0.018 -0.025,-0.047 -0.045,-0.086 -0.007,-0.013 -0.012,-0.026 -0.02,-0.041 -0.025,-0.049 -0.054,-0.11 -0.085,-0.18 -0.009,-0.019 -0.016,-0.034 -0.025,-0.055 -0.037,-0.084 -0.075,-0.176 -0.113,-0.277 -0.003,-0.01 -0.007,-0.02 -0.01,-0.029 -0.003,-0.008 -0.005,-0.016 -0.008,-0.023 -0.037,-0.104 -0.07,-0.215 -0.099,-0.328 -0.005,-0.021 -0.011,-0.041 -0.017,-0.063 -0.027,-0.119 -0.048,-0.238 -0.058,-0.358 -0.003,-0.022 -0.002,-0.045 -0.004,-0.067 -0.006,-0.109 -0.002,-0.215 0.013,-0.317 0.002,-0.014 0.002,-0.031 0.006,-0.047 0.022,-0.107 0.062,-0.207 0.117,-0.297 0.013,-0.022 0.028,-0.04 0.042,-0.061 0.067,-0.089 0.147,-0.17 0.259,-0.231 l 4.559,-2.48 c -0.015,0.008 -0.02,0.022 -0.033,0.029 0.257,-0.158 0.652,-0.231 1.261,-0.145 2.804,0.394 4.912,0.69 5.023,0.706 0.111,0.016 2.219,0.312 5.03,0.707 2.804,0.394 1.257,2.796 1.175,2.923 -0.081,0.21 -1.626,4.197 -2.295,5.866 z" />
      <path
         inkscape:connector-curvature="0"
         id="path45803"
         style="display:inline;fill:#ffffff;fill-opacity:1;fill-rule:nonzero;stroke:#231f20;stroke-width:0.16108932;stroke-miterlimit:4;stroke-dasharray:none;stroke-opacity:1"
         d="m 453.2383,282.2275 c 0.352,0.05 0.768,0.064 1.047,-0.847 0.398,-1.293 1.495,-5.616 1.238,-10.492 0.026,0.007 0.521,0.138 1.211,0.235 1.315,0.184 3.241,0.221 3.344,-1.125 0.172,-2.059 -2.819,-2.52 -2.976,-2.544 -0.033,-0.023 -0.666,-0.457 -0.004,-2.127 0.669,-1.669 2.214,-5.657 2.295,-5.867 0.082,-0.127 1.629,-2.528 -1.175,-2.922 -2.811,-0.395 -4.918,-0.692 -5.03,-0.707 -0.11,-0.016 -2.219,-0.312 -5.022,-0.707 -2.804,-0.393 -1.254,2.444 -1.173,2.593 0.082,0.234 1.642,4.657 2.319,6.516 0.676,1.857 0.037,2.113 0.004,2.127 -0.157,-0.021 -3.141,-0.399 -2.968,1.709 0.11298,1.376 2.04198,1.881 3.35798,2.065 0.689,0.098 1.184,0.107 1.211,0.107 -0.247,4.805 0.866,9.439 1.268,10.844 0.291,0.992 0.707,1.093 1.053,1.142" />
    </g>
  </g>
</svg>
