<?xml version="1.0" encoding="UTF-8" standalone="no"?>
<!-- Created with Inkscape (http://www.inkscape.org/) -->

<svg
   xmlns:dc="http://purl.org/dc/elements/1.1/"
   xmlns:cc="http://creativecommons.org/ns#"
   xmlns:rdf="http://www.w3.org/1999/02/22-rdf-syntax-ns#"
   xmlns:svg="http://www.w3.org/2000/svg"
   xmlns="http://www.w3.org/2000/svg"
   xmlns:sodipodi="http://sodipodi.sourceforge.net/DTD/sodipodi-0.dtd"
   xmlns:inkscape="http://www.inkscape.org/namespaces/inkscape"
   width="11.254046mm"
   height="10.620081mm"
   viewBox="0 0 11.254046 10.62008"
   version="1.1"
   id="svg647396"
   inkscape:version="0.92.3 (2405546, 2018-03-11)"
   sodipodi:docname="Mayor_green_f.svg">
  <defs
     id="defs647390">
    <clipPath
       clipPathUnits="userSpaceOnUse"
       id="clipPath177273">
      <path
         d="m 140.59,356.617 h 27.848 V 384.73 H 140.59 Z"
         id="path177271"
         inkscape:connector-curvature="0" />
    </clipPath>
    <clipPath
       clipPathUnits="userSpaceOnUse"
       id="clipPath177283">
      <path
         d="M 0,0 H 576 V 903 H 0 Z"
         id="path177281"
         inkscape:connector-curvature="0" />
    </clipPath>
    <clipPath
       clipPathUnits="userSpaceOnUse"
       id="clipPath177295">
      <path
         d="M 0,0 H 576 V 903 H 0 Z"
         id="path177293"
         inkscape:connector-curvature="0" />
    </clipPath>
    <clipPath
       clipPathUnits="userSpaceOnUse"
       id="clipPath177307">
      <path
         d="M 0,0 H 576 V 903 H 0 Z"
         id="path177305"
         inkscape:connector-curvature="0" />
    </clipPath>
    <clipPath
       clipPathUnits="userSpaceOnUse"
       id="clipPath177317">
      <path
         d="m 152.324,375.797 h 7.496 v 6.75 h -7.496 z"
         id="path177315"
         inkscape:connector-curvature="0" />
    </clipPath>
    <clipPath
       clipPathUnits="userSpaceOnUse"
       id="clipPath177327">
      <path
         d="M 0,0 H 576 V 903 H 0 Z"
         id="path177325"
         inkscape:connector-curvature="0" />
    </clipPath>
    <clipPath
       clipPathUnits="userSpaceOnUse"
       id="clipPath177339">
      <path
         d="M 0,0 H 576 V 903 H 0 Z"
         id="path177337"
         inkscape:connector-curvature="0" />
    </clipPath>
    <clipPath
       clipPathUnits="userSpaceOnUse"
       id="clipPath177351">
      <path
         d="M 0,0 H 576 V 903 H 0 Z"
         id="path177349"
         inkscape:connector-curvature="0" />
    </clipPath>
    <clipPath
       clipPathUnits="userSpaceOnUse"
       id="clipPath177361">
      <path
         d="m 152,375 h 8 v 8 h -8 z"
         id="path177359"
         inkscape:connector-curvature="0" />
    </clipPath>
    <clipPath
       clipPathUnits="userSpaceOnUse"
       id="clipPath177371">
      <path
         d="M 0,0 H 576 V 903 H 0 Z"
         id="path177369"
         inkscape:connector-curvature="0" />
    </clipPath>
    <clipPath
       clipPathUnits="userSpaceOnUse"
       id="clipPath177383">
      <path
         d="M 0,0 H 576 V 903 H 0 Z"
         id="path177381"
         inkscape:connector-curvature="0" />
    </clipPath>
    <clipPath
       clipPathUnits="userSpaceOnUse"
       id="clipPath177393">
      <path
         d="m 152,375 h 8 v 8 h -8 z"
         id="path177391"
         inkscape:connector-curvature="0" />
    </clipPath>
    <clipPath
       clipPathUnits="userSpaceOnUse"
       id="clipPath177403">
      <path
         d="M 0,0 H 576 V 903 H 0 Z"
         id="path177401"
         inkscape:connector-curvature="0" />
    </clipPath>
    <clipPath
       clipPathUnits="userSpaceOnUse"
       id="clipPath177413">
      <path
         d="m 152,375 h 8 v 8 h -8 z"
         id="path177411"
         inkscape:connector-curvature="0" />
    </clipPath>
    <clipPath
       clipPathUnits="userSpaceOnUse"
       id="clipPath177419">
      <path
         d="m 159.82,382.547 -4.875,-2.652 c -0.179,-0.098 -0.375,-0.266 -0.539,-0.559 -0.078,-0.137 -1.57,-2.684 -1.89,-3.305 -0.039,-0.078 -0.086,-0.179 -0.192,-0.234 l 4.875,2.648 c 0.106,0.059 0.149,0.16 0.188,0.239 0.32,0.621 1.812,3.168 1.89,3.3 0.164,0.293 0.36,0.465 0.543,0.563"
         id="path177417"
         inkscape:connector-curvature="0" />
    </clipPath>
    <clipPath
       clipPathUnits="userSpaceOnUse"
       id="clipPath177429">
      <path
         d="M 0,0 H 576 V 903 H 0 Z"
         id="path177427"
         inkscape:connector-curvature="0" />
    </clipPath>
    <clipPath
       clipPathUnits="userSpaceOnUse"
       id="clipPath177441">
      <path
         d="M 0,0 H 576 V 903 H 0 Z"
         id="path177439"
         inkscape:connector-curvature="0" />
    </clipPath>
    <clipPath
       clipPathUnits="userSpaceOnUse"
       id="clipPath177453">
      <path
         d="M 0,0 H 576 V 903 H 0 Z"
         id="path177451"
         inkscape:connector-curvature="0" />
    </clipPath>
    <clipPath
       clipPathUnits="userSpaceOnUse"
       id="clipPath177463">
      <path
         d="m 152.324,375.797 h 7.496 v 6.75 h -7.496 z"
         id="path177461"
         inkscape:connector-curvature="0" />
    </clipPath>
    <clipPath
       clipPathUnits="userSpaceOnUse"
       id="clipPath177473">
      <path
         d="M 0,0 H 576 V 903 H 0 Z"
         id="path177471"
         inkscape:connector-curvature="0" />
    </clipPath>
    <clipPath
       clipPathUnits="userSpaceOnUse"
       id="clipPath177485">
      <path
         d="M 0,0 H 576 V 903 H 0 Z"
         id="path177483"
         inkscape:connector-curvature="0" />
    </clipPath>
    <clipPath
       clipPathUnits="userSpaceOnUse"
       id="clipPath177497">
      <path
         d="M 0,0 H 576 V 903 H 0 Z"
         id="path177495"
         inkscape:connector-curvature="0" />
    </clipPath>
    <clipPath
       clipPathUnits="userSpaceOnUse"
       id="clipPath177509">
      <path
         d="m 155.734,361.418 h 8.707 v 3.973 h -8.707 z"
         id="path177507"
         inkscape:connector-curvature="0" />
    </clipPath>
    <clipPath
       clipPathUnits="userSpaceOnUse"
       id="clipPath177519">
      <path
         d="M 0,0 H 576 V 903 H 0 Z"
         id="path177517"
         inkscape:connector-curvature="0" />
    </clipPath>
    <clipPath
       clipPathUnits="userSpaceOnUse"
       id="clipPath177531">
      <path
         d="M 0,0 H 576 V 903 H 0 Z"
         id="path177529"
         inkscape:connector-curvature="0" />
    </clipPath>
    <clipPath
       clipPathUnits="userSpaceOnUse"
       id="clipPath177543">
      <path
         d="M 0,0 H 576 V 903 H 0 Z"
         id="path177541"
         inkscape:connector-curvature="0" />
    </clipPath>
    <clipPath
       clipPathUnits="userSpaceOnUse"
       id="clipPath177553">
      <path
         d="m 155,361 h 10 v 5 h -10 z"
         id="path177551"
         inkscape:connector-curvature="0" />
    </clipPath>
    <clipPath
       clipPathUnits="userSpaceOnUse"
       id="clipPath177563">
      <path
         d="M 0,0 H 576 V 903 H 0 Z"
         id="path177561"
         inkscape:connector-curvature="0" />
    </clipPath>
    <clipPath
       clipPathUnits="userSpaceOnUse"
       id="clipPath177575">
      <path
         d="M 0,0 H 576 V 903 H 0 Z"
         id="path177573"
         inkscape:connector-curvature="0" />
    </clipPath>
    <clipPath
       clipPathUnits="userSpaceOnUse"
       id="clipPath177585">
      <path
         d="m 155,361 h 10 v 5 h -10 z"
         id="path177583"
         inkscape:connector-curvature="0" />
    </clipPath>
    <clipPath
       clipPathUnits="userSpaceOnUse"
       id="clipPath177595">
      <path
         d="M 0,0 H 576 V 903 H 0 Z"
         id="path177593"
         inkscape:connector-curvature="0" />
    </clipPath>
    <clipPath
       clipPathUnits="userSpaceOnUse"
       id="clipPath177605">
      <path
         d="m 155,361 h 10 v 5 h -10 z"
         id="path177603"
         inkscape:connector-curvature="0" />
    </clipPath>
    <clipPath
       clipPathUnits="userSpaceOnUse"
       id="clipPath177611">
      <path
         d="m 160.605,364.066 -4.871,-2.648 c 0.008,0.004 0.024,0.012 0.036,0.016 0.113,0.035 2.238,0.457 3.8,1.304 l 4.871,2.653 c -1.562,-0.852 -3.687,-1.274 -3.796,-1.309 -0.016,-0.004 -0.028,-0.008 -0.04,-0.016"
         id="path177609"
         inkscape:connector-curvature="0" />
    </clipPath>
    <clipPath
       clipPathUnits="userSpaceOnUse"
       id="clipPath177621">
      <path
         d="M 0,0 H 576 V 903 H 0 Z"
         id="path177619"
         inkscape:connector-curvature="0" />
    </clipPath>
    <clipPath
       clipPathUnits="userSpaceOnUse"
       id="clipPath177633">
      <path
         d="M 0,0 H 576 V 903 H 0 Z"
         id="path177631"
         inkscape:connector-curvature="0" />
    </clipPath>
    <clipPath
       clipPathUnits="userSpaceOnUse"
       id="clipPath177645">
      <path
         d="M 0,0 H 576 V 903 H 0 Z"
         id="path177643"
         inkscape:connector-curvature="0" />
    </clipPath>
    <clipPath
       clipPathUnits="userSpaceOnUse"
       id="clipPath177655">
      <path
         d="m 155.734,361.418 h 8.707 v 3.973 h -8.707 z"
         id="path177653"
         inkscape:connector-curvature="0" />
    </clipPath>
    <clipPath
       clipPathUnits="userSpaceOnUse"
       id="clipPath177665">
      <path
         d="M 0,0 H 576 V 903 H 0 Z"
         id="path177663"
         inkscape:connector-curvature="0" />
    </clipPath>
    <clipPath
       clipPathUnits="userSpaceOnUse"
       id="clipPath177677">
      <path
         d="M 0,0 H 576 V 903 H 0 Z"
         id="path177675"
         inkscape:connector-curvature="0" />
    </clipPath>
    <clipPath
       clipPathUnits="userSpaceOnUse"
       id="clipPath177689">
      <path
         d="M 0,0 H 576 V 903 H 0 Z"
         id="path177687"
         inkscape:connector-curvature="0" />
    </clipPath>
    <clipPath
       clipPathUnits="userSpaceOnUse"
       id="clipPath177709">
      <path
         d="m 140.59,379.297 h 5.105 v 5.414 h -5.105 z"
         id="path177707"
         inkscape:connector-curvature="0" />
    </clipPath>
    <clipPath
       clipPathUnits="userSpaceOnUse"
       id="clipPath177719">
      <path
         d="M 0,0 H 576 V 903 H 0 Z"
         id="path177717"
         inkscape:connector-curvature="0" />
    </clipPath>
    <clipPath
       clipPathUnits="userSpaceOnUse"
       id="clipPath177731">
      <path
         d="M 0,0 H 576 V 903 H 0 Z"
         id="path177729"
         inkscape:connector-curvature="0" />
    </clipPath>
    <clipPath
       clipPathUnits="userSpaceOnUse"
       id="clipPath177743">
      <path
         d="M 0,0 H 576 V 903 H 0 Z"
         id="path177741"
         inkscape:connector-curvature="0" />
    </clipPath>
    <clipPath
       clipPathUnits="userSpaceOnUse"
       id="clipPath177753">
      <path
         d="m 140,379 h 6 v 6 h -6 z"
         id="path177751"
         inkscape:connector-curvature="0" />
    </clipPath>
    <clipPath
       clipPathUnits="userSpaceOnUse"
       id="clipPath177763">
      <path
         d="M 0,0 H 576 V 903 H 0 Z"
         id="path177761"
         inkscape:connector-curvature="0" />
    </clipPath>
    <clipPath
       clipPathUnits="userSpaceOnUse"
       id="clipPath177775">
      <path
         d="M 0,0 H 576 V 903 H 0 Z"
         id="path177773"
         inkscape:connector-curvature="0" />
    </clipPath>
    <clipPath
       clipPathUnits="userSpaceOnUse"
       id="clipPath177785">
      <path
         d="m 140,379 h 6 v 6 h -6 z"
         id="path177783"
         inkscape:connector-curvature="0" />
    </clipPath>
    <clipPath
       clipPathUnits="userSpaceOnUse"
       id="clipPath177795">
      <path
         d="M 0,0 H 576 V 903 H 0 Z"
         id="path177793"
         inkscape:connector-curvature="0" />
    </clipPath>
    <clipPath
       clipPathUnits="userSpaceOnUse"
       id="clipPath177805">
      <path
         d="m 140,379 h 6 v 6 h -6 z"
         id="path177803"
         inkscape:connector-curvature="0" />
    </clipPath>
    <clipPath
       clipPathUnits="userSpaceOnUse"
       id="clipPath177811">
      <path
         d="m 145.695,384.711 -4.871,-2.648 c -0.437,-0.243 -0.129,-2.629 -0.109,-2.766 l 4.871,2.652 c -0.016,0.133 -0.328,2.524 0.109,2.762"
         id="path177809"
         inkscape:connector-curvature="0" />
    </clipPath>
    <clipPath
       clipPathUnits="userSpaceOnUse"
       id="clipPath177821">
      <path
         d="M 0,0 H 576 V 903 H 0 Z"
         id="path177819"
         inkscape:connector-curvature="0" />
    </clipPath>
    <clipPath
       clipPathUnits="userSpaceOnUse"
       id="clipPath177833">
      <path
         d="M 0,0 H 576 V 903 H 0 Z"
         id="path177831"
         inkscape:connector-curvature="0" />
    </clipPath>
    <clipPath
       clipPathUnits="userSpaceOnUse"
       id="clipPath177845">
      <path
         d="M 0,0 H 576 V 903 H 0 Z"
         id="path177843"
         inkscape:connector-curvature="0" />
    </clipPath>
    <clipPath
       clipPathUnits="userSpaceOnUse"
       id="clipPath177855">
      <path
         d="m 140.59,379.297 h 5.105 v 5.414 h -5.105 z"
         id="path177853"
         inkscape:connector-curvature="0" />
    </clipPath>
    <clipPath
       clipPathUnits="userSpaceOnUse"
       id="clipPath177865">
      <path
         d="M 0,0 H 576 V 903 H 0 Z"
         id="path177863"
         inkscape:connector-curvature="0" />
    </clipPath>
    <clipPath
       clipPathUnits="userSpaceOnUse"
       id="clipPath177877">
      <path
         d="M 0,0 H 576 V 903 H 0 Z"
         id="path177875"
         inkscape:connector-curvature="0" />
    </clipPath>
    <clipPath
       clipPathUnits="userSpaceOnUse"
       id="clipPath177889">
      <path
         d="M 0,0 H 576 V 903 H 0 Z"
         id="path177887"
         inkscape:connector-curvature="0" />
    </clipPath>
    <clipPath
       clipPathUnits="userSpaceOnUse"
       id="clipPath177901">
      <path
         d="m 152.117,356.617 h 7.066 v 2.922 h -7.066 z"
         id="path177899"
         inkscape:connector-curvature="0" />
    </clipPath>
    <clipPath
       clipPathUnits="userSpaceOnUse"
       id="clipPath177911">
      <path
         d="M 0,0 H 576 V 903 H 0 Z"
         id="path177909"
         inkscape:connector-curvature="0" />
    </clipPath>
    <clipPath
       clipPathUnits="userSpaceOnUse"
       id="clipPath177923">
      <path
         d="M 0,0 H 576 V 903 H 0 Z"
         id="path177921"
         inkscape:connector-curvature="0" />
    </clipPath>
    <clipPath
       clipPathUnits="userSpaceOnUse"
       id="clipPath177935">
      <path
         d="M 0,0 H 576 V 903 H 0 Z"
         id="path177933"
         inkscape:connector-curvature="0" />
    </clipPath>
    <clipPath
       clipPathUnits="userSpaceOnUse"
       id="clipPath177945">
      <path
         d="m 152,356 h 8 v 4 h -8 z"
         id="path177943"
         inkscape:connector-curvature="0" />
    </clipPath>
    <clipPath
       clipPathUnits="userSpaceOnUse"
       id="clipPath177955">
      <path
         d="M 0,0 H 576 V 903 H 0 Z"
         id="path177953"
         inkscape:connector-curvature="0" />
    </clipPath>
    <clipPath
       clipPathUnits="userSpaceOnUse"
       id="clipPath177967">
      <path
         d="M 0,0 H 576 V 903 H 0 Z"
         id="path177965"
         inkscape:connector-curvature="0" />
    </clipPath>
    <clipPath
       clipPathUnits="userSpaceOnUse"
       id="clipPath177977">
      <path
         d="m 152,356 h 8 v 4 h -8 z"
         id="path177975"
         inkscape:connector-curvature="0" />
    </clipPath>
    <clipPath
       clipPathUnits="userSpaceOnUse"
       id="clipPath177987">
      <path
         d="M 0,0 H 576 V 903 H 0 Z"
         id="path177985"
         inkscape:connector-curvature="0" />
    </clipPath>
    <clipPath
       clipPathUnits="userSpaceOnUse"
       id="clipPath177997">
      <path
         d="m 152,356 h 8 v 4 h -8 z"
         id="path177995"
         inkscape:connector-curvature="0" />
    </clipPath>
    <clipPath
       clipPathUnits="userSpaceOnUse"
       id="clipPath178003">
      <path
         d="m 154.313,356.891 4.871,2.648 c -0.551,-0.301 -1.282,-0.324 -2.192,-0.199 l -4.875,-2.649 c 0.914,-0.128 1.641,-0.105 2.196,0.2"
         id="path178001"
         inkscape:connector-curvature="0" />
    </clipPath>
    <clipPath
       clipPathUnits="userSpaceOnUse"
       id="clipPath178013">
      <path
         d="M 0,0 H 576 V 903 H 0 Z"
         id="path178011"
         inkscape:connector-curvature="0" />
    </clipPath>
    <clipPath
       clipPathUnits="userSpaceOnUse"
       id="clipPath178025">
      <path
         d="M 0,0 H 576 V 903 H 0 Z"
         id="path178023"
         inkscape:connector-curvature="0" />
    </clipPath>
    <clipPath
       clipPathUnits="userSpaceOnUse"
       id="clipPath178037">
      <path
         d="M 0,0 H 576 V 903 H 0 Z"
         id="path178035"
         inkscape:connector-curvature="0" />
    </clipPath>
    <clipPath
       clipPathUnits="userSpaceOnUse"
       id="clipPath178047">
      <path
         d="m 152.117,356.617 h 7.066 v 2.922 h -7.066 z"
         id="path178045"
         inkscape:connector-curvature="0" />
    </clipPath>
    <clipPath
       clipPathUnits="userSpaceOnUse"
       id="clipPath178057">
      <path
         d="M 0,0 H 576 V 903 H 0 Z"
         id="path178055"
         inkscape:connector-curvature="0" />
    </clipPath>
    <clipPath
       clipPathUnits="userSpaceOnUse"
       id="clipPath178069">
      <path
         d="M 0,0 H 576 V 903 H 0 Z"
         id="path178067"
         inkscape:connector-curvature="0" />
    </clipPath>
    <clipPath
       clipPathUnits="userSpaceOnUse"
       id="clipPath178081">
      <path
         d="M 0,0 H 576 V 903 H 0 Z"
         id="path178079"
         inkscape:connector-curvature="0" />
    </clipPath>
    <clipPath
       clipPathUnits="userSpaceOnUse"
       id="clipPath178097">
      <path
         d="m 140.715,368.984 h 11.348 v 12.965 h -11.348 z"
         id="path178095"
         inkscape:connector-curvature="0" />
    </clipPath>
    <clipPath
       clipPathUnits="userSpaceOnUse"
       id="clipPath178107">
      <path
         d="M 0,0 H 576 V 903 H 0 Z"
         id="path178105"
         inkscape:connector-curvature="0" />
    </clipPath>
    <clipPath
       clipPathUnits="userSpaceOnUse"
       id="clipPath178119">
      <path
         d="M 0,0 H 576 V 903 H 0 Z"
         id="path178117"
         inkscape:connector-curvature="0" />
    </clipPath>
    <clipPath
       clipPathUnits="userSpaceOnUse"
       id="clipPath178131">
      <path
         d="M 0,0 H 576 V 903 H 0 Z"
         id="path178129"
         inkscape:connector-curvature="0" />
    </clipPath>
    <clipPath
       clipPathUnits="userSpaceOnUse"
       id="clipPath178141">
      <path
         d="m 140,368 h 13 v 14 h -13 z"
         id="path178139"
         inkscape:connector-curvature="0" />
    </clipPath>
    <clipPath
       clipPathUnits="userSpaceOnUse"
       id="clipPath178151">
      <path
         d="M 0,0 H 576 V 903 H 0 Z"
         id="path178149"
         inkscape:connector-curvature="0" />
    </clipPath>
    <clipPath
       clipPathUnits="userSpaceOnUse"
       id="clipPath178163">
      <path
         d="M 0,0 H 576 V 903 H 0 Z"
         id="path178161"
         inkscape:connector-curvature="0" />
    </clipPath>
    <clipPath
       clipPathUnits="userSpaceOnUse"
       id="clipPath178173">
      <path
         d="m 140,368 h 13 v 14 h -13 z"
         id="path178171"
         inkscape:connector-curvature="0" />
    </clipPath>
    <clipPath
       clipPathUnits="userSpaceOnUse"
       id="clipPath178183">
      <path
         d="M 0,0 H 576 V 903 H 0 Z"
         id="path178181"
         inkscape:connector-curvature="0" />
    </clipPath>
    <clipPath
       clipPathUnits="userSpaceOnUse"
       id="clipPath178193">
      <path
         d="m 140,368 h 13 v 14 h -13 z"
         id="path178191"
         inkscape:connector-curvature="0" />
    </clipPath>
    <clipPath
       clipPathUnits="userSpaceOnUse"
       id="clipPath178199">
      <path
         d="m 146.969,368.984 4.871,2.653 c 0.242,0.133 0.387,0.398 -0.11,0.953 -2.125,2.379 -4.726,4.664 -6.144,9.359 l -4.871,-2.652 c 1.418,-4.692 4.015,-6.977 6.14,-9.359 0.497,-0.551 0.356,-0.821 0.114,-0.954"
         id="path178197"
         inkscape:connector-curvature="0" />
    </clipPath>
    <clipPath
       clipPathUnits="userSpaceOnUse"
       id="clipPath178209">
      <path
         d="M 0,0 H 576 V 903 H 0 Z"
         id="path178207"
         inkscape:connector-curvature="0" />
    </clipPath>
    <clipPath
       clipPathUnits="userSpaceOnUse"
       id="clipPath178221">
      <path
         d="M 0,0 H 576 V 903 H 0 Z"
         id="path178219"
         inkscape:connector-curvature="0" />
    </clipPath>
    <clipPath
       clipPathUnits="userSpaceOnUse"
       id="clipPath178233">
      <path
         d="M 0,0 H 576 V 903 H 0 Z"
         id="path178231"
         inkscape:connector-curvature="0" />
    </clipPath>
    <clipPath
       clipPathUnits="userSpaceOnUse"
       id="clipPath178243">
      <path
         d="m 140.715,368.984 h 11.348 v 12.965 h -11.348 z"
         id="path178241"
         inkscape:connector-curvature="0" />
    </clipPath>
    <clipPath
       clipPathUnits="userSpaceOnUse"
       id="clipPath178253">
      <path
         d="M 0,0 H 576 V 903 H 0 Z"
         id="path178251"
         inkscape:connector-curvature="0" />
    </clipPath>
    <clipPath
       clipPathUnits="userSpaceOnUse"
       id="clipPath178265">
      <path
         d="M 0,0 H 576 V 903 H 0 Z"
         id="path178263"
         inkscape:connector-curvature="0" />
    </clipPath>
    <clipPath
       clipPathUnits="userSpaceOnUse"
       id="clipPath178277">
      <path
         d="M 0,0 H 576 V 903 H 0 Z"
         id="path178275"
         inkscape:connector-curvature="0" />
    </clipPath>
    <clipPath
       clipPathUnits="userSpaceOnUse"
       id="clipPath178305">
      <path
         d="m 148.563,356.691 h 8.43 v 8.145 h -8.43 z"
         id="path178303"
         inkscape:connector-curvature="0" />
    </clipPath>
    <clipPath
       clipPathUnits="userSpaceOnUse"
       id="clipPath178315">
      <path
         d="M 0,0 H 576 V 903 H 0 Z"
         id="path178313"
         inkscape:connector-curvature="0" />
    </clipPath>
    <clipPath
       clipPathUnits="userSpaceOnUse"
       id="clipPath178327">
      <path
         d="M 0,0 H 576 V 903 H 0 Z"
         id="path178325"
         inkscape:connector-curvature="0" />
    </clipPath>
    <clipPath
       clipPathUnits="userSpaceOnUse"
       id="clipPath178339">
      <path
         d="M 0,0 H 576 V 903 H 0 Z"
         id="path178337"
         inkscape:connector-curvature="0" />
    </clipPath>
    <clipPath
       clipPathUnits="userSpaceOnUse"
       id="clipPath178349">
      <path
         d="m 148,356 h 9 v 9 h -9 z"
         id="path178347"
         inkscape:connector-curvature="0" />
    </clipPath>
    <clipPath
       clipPathUnits="userSpaceOnUse"
       id="clipPath178359">
      <path
         d="M 0,0 H 576 V 903 H 0 Z"
         id="path178357"
         inkscape:connector-curvature="0" />
    </clipPath>
    <clipPath
       clipPathUnits="userSpaceOnUse"
       id="clipPath178371">
      <path
         d="M 0,0 H 576 V 903 H 0 Z"
         id="path178369"
         inkscape:connector-curvature="0" />
    </clipPath>
    <clipPath
       clipPathUnits="userSpaceOnUse"
       id="clipPath178381">
      <path
         d="m 148,356 h 9 v 9 h -9 z"
         id="path178379"
         inkscape:connector-curvature="0" />
    </clipPath>
    <clipPath
       clipPathUnits="userSpaceOnUse"
       id="clipPath178391">
      <path
         d="M 0,0 H 576 V 903 H 0 Z"
         id="path178389"
         inkscape:connector-curvature="0" />
    </clipPath>
    <clipPath
       clipPathUnits="userSpaceOnUse"
       id="clipPath178401">
      <path
         d="m 148,356 h 9 v 9 h -9 z"
         id="path178399"
         inkscape:connector-curvature="0" />
    </clipPath>
    <clipPath
       clipPathUnits="userSpaceOnUse"
       id="clipPath178407">
      <path
         d="m 153.434,364.836 -4.871,-2.648 c 0.007,-4.11 1.144,-5.161 3.554,-5.497 l 4.875,2.649 c -2.414,0.34 -3.551,1.39 -3.558,5.496"
         id="path178405"
         inkscape:connector-curvature="0" />
    </clipPath>
    <clipPath
       clipPathUnits="userSpaceOnUse"
       id="clipPath178417">
      <path
         d="M 0,0 H 576 V 903 H 0 Z"
         id="path178415"
         inkscape:connector-curvature="0" />
    </clipPath>
    <clipPath
       clipPathUnits="userSpaceOnUse"
       id="clipPath178429">
      <path
         d="M 0,0 H 576 V 903 H 0 Z"
         id="path178427"
         inkscape:connector-curvature="0" />
    </clipPath>
    <clipPath
       clipPathUnits="userSpaceOnUse"
       id="clipPath178441">
      <path
         d="M 0,0 H 576 V 903 H 0 Z"
         id="path178439"
         inkscape:connector-curvature="0" />
    </clipPath>
    <clipPath
       clipPathUnits="userSpaceOnUse"
       id="clipPath178451">
      <path
         d="m 148.563,356.691 h 8.43 v 8.145 h -8.43 z"
         id="path178449"
         inkscape:connector-curvature="0" />
    </clipPath>
    <clipPath
       clipPathUnits="userSpaceOnUse"
       id="clipPath178461">
      <path
         d="M 0,0 H 576 V 903 H 0 Z"
         id="path178459"
         inkscape:connector-curvature="0" />
    </clipPath>
    <clipPath
       clipPathUnits="userSpaceOnUse"
       id="clipPath178473">
      <path
         d="M 0,0 H 576 V 903 H 0 Z"
         id="path178471"
         inkscape:connector-curvature="0" />
    </clipPath>
    <clipPath
       clipPathUnits="userSpaceOnUse"
       id="clipPath178485">
      <path
         d="M 0,0 H 576 V 903 H 0 Z"
         id="path178483"
         inkscape:connector-curvature="0" />
    </clipPath>
    <clipPath
       clipPathUnits="userSpaceOnUse"
       id="clipPath178511">
      <path
         d="m 142.984,362.188 h 10.461 v 8.973 h -10.461 z"
         id="path178509"
         inkscape:connector-curvature="0" />
    </clipPath>
    <clipPath
       clipPathUnits="userSpaceOnUse"
       id="clipPath178521">
      <path
         d="M 0,0 H 576 V 903 H 0 Z"
         id="path178519"
         inkscape:connector-curvature="0" />
    </clipPath>
    <clipPath
       clipPathUnits="userSpaceOnUse"
       id="clipPath178533">
      <path
         d="M 0,0 H 576 V 903 H 0 Z"
         id="path178531"
         inkscape:connector-curvature="0" />
    </clipPath>
    <clipPath
       clipPathUnits="userSpaceOnUse"
       id="clipPath178545">
      <path
         d="M 0,0 H 576 V 903 H 0 Z"
         id="path178543"
         inkscape:connector-curvature="0" />
    </clipPath>
    <clipPath
       clipPathUnits="userSpaceOnUse"
       id="clipPath178555">
      <path
         d="m 142,362 h 12 v 10 h -12 z"
         id="path178553"
         inkscape:connector-curvature="0" />
    </clipPath>
    <clipPath
       clipPathUnits="userSpaceOnUse"
       id="clipPath178565">
      <path
         d="M 0,0 H 576 V 903 H 0 Z"
         id="path178563"
         inkscape:connector-curvature="0" />
    </clipPath>
    <clipPath
       clipPathUnits="userSpaceOnUse"
       id="clipPath178577">
      <path
         d="M 0,0 H 576 V 903 H 0 Z"
         id="path178575"
         inkscape:connector-curvature="0" />
    </clipPath>
    <clipPath
       clipPathUnits="userSpaceOnUse"
       id="clipPath178587">
      <path
         d="m 142,362 h 12 v 10 h -12 z"
         id="path178585"
         inkscape:connector-curvature="0" />
    </clipPath>
    <clipPath
       clipPathUnits="userSpaceOnUse"
       id="clipPath178597">
      <path
         d="M 0,0 H 576 V 903 H 0 Z"
         id="path178595"
         inkscape:connector-curvature="0" />
    </clipPath>
    <clipPath
       clipPathUnits="userSpaceOnUse"
       id="clipPath178607">
      <path
         d="m 142,362 h 12 v 10 h -12 z"
         id="path178605"
         inkscape:connector-curvature="0" />
    </clipPath>
    <clipPath
       clipPathUnits="userSpaceOnUse"
       id="clipPath178613">
      <path
         d="m 148.602,371.16 -4.872,-2.652 c -0.484,-0.262 -0.808,-0.692 -0.738,-1.391 0.231,-2.14 5.281,-4.554 5.457,-4.656 0.168,-0.102 0.114,-0.266 0.114,-0.273 l 4.871,2.648 c 0.004,0.008 0.054,0.176 -0.114,0.277 -0.175,0.102 -5.222,2.516 -5.453,4.657 -0.074,0.699 0.254,1.128 0.735,1.39"
         id="path178611"
         inkscape:connector-curvature="0" />
    </clipPath>
    <clipPath
       clipPathUnits="userSpaceOnUse"
       id="clipPath178623">
      <path
         d="M 0,0 H 576 V 903 H 0 Z"
         id="path178621"
         inkscape:connector-curvature="0" />
    </clipPath>
    <clipPath
       clipPathUnits="userSpaceOnUse"
       id="clipPath178635">
      <path
         d="M 0,0 H 576 V 903 H 0 Z"
         id="path178633"
         inkscape:connector-curvature="0" />
    </clipPath>
    <clipPath
       clipPathUnits="userSpaceOnUse"
       id="clipPath178647">
      <path
         d="M 0,0 H 576 V 903 H 0 Z"
         id="path178645"
         inkscape:connector-curvature="0" />
    </clipPath>
    <clipPath
       clipPathUnits="userSpaceOnUse"
       id="clipPath178657">
      <path
         d="m 142.984,362.188 h 10.461 v 8.973 h -10.461 z"
         id="path178655"
         inkscape:connector-curvature="0" />
    </clipPath>
    <clipPath
       clipPathUnits="userSpaceOnUse"
       id="clipPath178667">
      <path
         d="M 0,0 H 576 V 903 H 0 Z"
         id="path178665"
         inkscape:connector-curvature="0" />
    </clipPath>
    <clipPath
       clipPathUnits="userSpaceOnUse"
       id="clipPath178679">
      <path
         d="M 0,0 H 576 V 903 H 0 Z"
         id="path178677"
         inkscape:connector-curvature="0" />
    </clipPath>
    <clipPath
       clipPathUnits="userSpaceOnUse"
       id="clipPath178691">
      <path
         d="M 0,0 H 576 V 903 H 0 Z"
         id="path178689"
         inkscape:connector-curvature="0" />
    </clipPath>
  </defs>
  <sodipodi:namedview
     id="base"
     pagecolor="#ffffff"
     bordercolor="#666666"
     borderopacity="1.0"
     inkscape:pageopacity="0.0"
     inkscape:pageshadow="2"
     inkscape:zoom="31.678384"
     inkscape:cx="13.691286"
     inkscape:cy="18.199401"
     inkscape:document-units="mm"
     inkscape:current-layer="layer1"
     showgrid="false"
     inkscape:window-width="1920"
     inkscape:window-height="1017"
     inkscape:window-x="-8"
     inkscape:window-y="-8"
     inkscape:window-maximized="1" />
  <metadata
     id="metadata647393">
    <rdf:RDF>
      <cc:Work
         rdf:about="">
        <dc:format>image/svg+xml</dc:format>
        <dc:type
           rdf:resource="http://purl.org/dc/dcmitype/StillImage" />
        <dc:title />
      </cc:Work>
    </rdf:RDF>
  </metadata>
  <g
     inkscape:label="Ebene 1"
     inkscape:groupmode="layer"
     id="layer1"
     transform="translate(-154.51423,-80.620185)">
    <g
       id="g280905"
       inkscape:label="Mayor_green"
       style="display:inline;stroke-width:0.91557401"
       transform="matrix(1.1294751,0,0,1.0561764,-20.015973,-5.1213942)">
      <path
         d="m 154.63351,89.057684 c 0.4946,-1.517298 1.4097,-2.065866 2.15936,-2.695574 0.31679,-0.265996 -0.11854,-0.410635 -0.14182,-0.418749 -0.0649,-0.01094 -1.30528,-0.228951 -1.22802,-0.959201 0.0289,-0.267407 0.2854,-0.48366 0.60078,-0.651935 -0.007,0.0042 -0.0152,0.0071 -0.0219,0.01129 l 1.38359,-0.752474 c 0.0205,-0.763412 0.17639,-1.152173 0.47237,-1.31198 l 0.003,-0.0014 c 0,-0.0014 0.001,-0.0014 0.003,-0.0014 l 1.71309,-0.931333 c 0.008,-0.0056 0.0162,-0.0099 0.0247,-0.01376 0.0346,-0.01658 0.0702,-0.02787 0.10866,-0.04022 0.01,-0.0028 0.018,-0.0067 0.0279,-0.0095 0.002,0 0.004,-0.0014 0.005,-0.0028 0.007,-0.0014 0.0152,0 0.0222,-0.0014 0.0688,-0.01658 0.14464,-0.02328 0.22437,-0.02469 0.0222,-0.0014 0.0469,-0.0014 0.0705,-0.0014 0.0907,0.0028 0.18451,0.0081 0.28787,0.02223 0.21378,0.02999 0.39829,0.0755 0.55527,0.149931 0.0497,0.02364 0.0952,0.05115 0.13794,0.08008 0.006,0.0028 0.0109,0.0053 0.0152,0.0081 0.01,0.0071 0.018,0.01376 0.0275,0.02223 0.018,0.01235 0.036,0.02611 0.0536,0.04127 0.006,0.0056 0.0127,0.0081 0.0166,0.01376 0.0123,0.0095 0.0236,0.02223 0.0332,0.03316 0.0109,0.01094 0.0233,0.02187 0.0332,0.03316 0.004,0.0039 0.008,0.0067 0.0109,0.01094 0.0152,0.01799 0.0289,0.03563 0.0427,0.05503 0.008,0.0095 0.0166,0.0194 0.0233,0.02893 0.001,0.0014 0.003,0.0028 0.004,0.0056 0.0109,0.01517 0.0208,0.03281 0.0317,0.0508 0.0123,0.02081 0.0247,0.03881 0.0374,0.06068 0,0 0,0.0014 0.001,0.0028 0.001,0.0028 0.003,0.0081 0.004,0.01094 0.0247,0.04551 0.0455,0.09384 0.0663,0.14605 0.001,0.0071 0.005,0.01235 0.008,0.0194 0.003,0.0095 0.006,0.02187 0.01,0.03316 0.0166,0.0508 0.0332,0.105834 0.0483,0.164042 0.003,0.01482 0.008,0.02999 0.0123,0.04657 0.0166,0.07444 0.0303,0.154516 0.0427,0.239889 0.001,0.01658 0.003,0.03598 0.006,0.05221 0.008,0.07302 0.0152,0.148872 0.0208,0.230364 0.002,0.02611 0.004,0.05221 0.005,0.07832 0.006,0.102306 0.008,0.206728 0.01,0.322792 -0.001,0 -0.001,0.0053 -0.003,0.01235 0,0.0025 0,0.0053 0,0.0081 0,0.0071 0.001,0.01376 0.004,0.02364 0.001,0.0067 0.003,0.01376 0.008,0.02187 0,0 0,0.0014 0,0.0014 0.008,0.0095 0.018,0.02081 0.0317,0.02893 0.0109,0.0067 0.091,0.04692 0.20814,0.109009 10e-4,0 0.004,0.0011 0.005,0.0025 0.036,0.0194 0.0759,0.04022 0.11854,0.0635 0.0109,0.0071 0.0236,0.01376 0.036,0.02081 0.0356,0.01905 0.0716,0.03986 0.11007,0.06174 0.0166,0.0099 0.0346,0.02081 0.054,0.03034 0.0342,0.02081 0.0702,0.04163 0.10725,0.06491 0.0208,0.01235 0.0427,0.02611 0.0649,0.03845 0.0356,0.02223 0.0716,0.0441 0.10865,0.06773 0.0222,0.01517 0.0455,0.03034 0.0692,0.04551 0.0356,0.02328 0.0716,0.04657 0.10724,0.07161 0.01,0.0067 0.0194,0.01376 0.0303,0.01905 0.01,0.0085 0.0194,0.01517 0.0303,0.02364 0.0526,0.03563 0.10336,0.07444 0.15452,0.112888 0.0205,0.01376 0.0384,0.02893 0.0579,0.0441 0.13794,0.107598 0.26317,0.219075 0.36936,0.334786 0.008,0.0085 0.018,0.01658 0.0247,0.02505 0.0109,0.01376 0.0208,0.02611 0.0303,0.03845 0.0208,0.02328 0.0385,0.04692 0.0565,0.0702 0.008,0.01129 0.018,0.02222 0.0261,0.03316 0.0127,0.01799 0.0208,0.03457 0.0318,0.05115 0.01,0.01517 0.018,0.02893 0.0261,0.04269 0.004,0.0067 0.01,0.01376 0.0141,0.02046 0.0191,0.03739 0.0356,0.07303 0.0494,0.110419 0.0166,0.04692 0.0289,0.09349 0.0332,0.140406 0.0261,0.246591 -0.0896,0.398286 -0.25894,0.490713 l -1.04598,0.569031 c 0.11006,0.122767 0.22295,0.245181 0.33901,0.369358 0.0854,0.09243 0.17075,0.185914 0.25612,0.282575 0.0261,0.02752 0.0512,0.05362 0.0759,0.08114 0.0208,0.02505 0.0413,0.05115 0.0635,0.07585 0.0494,0.05786 0.10054,0.117123 0.15134,0.179212 0.0497,0.06068 0.0995,0.122766 0.14887,0.185913 0.0497,0.0635 0.0981,0.128412 0.14605,0.19297 0.0236,0.03316 0.0469,0.06209 0.0706,0.09525 0.0356,0.04939 0.0702,0.104775 0.10442,0.158397 0.0208,0.03175 0.043,0.06209 0.0621,0.09349 0.0744,0.117475 0.14605,0.237067 0.21519,0.365478 0.007,0.01094 0.0124,0.02328 0.0176,0.03422 0.018,0.03457 0.0346,0.07161 0.0526,0.106187 0.0564,0.112888 0.11147,0.232833 0.16545,0.357011 0.0219,0.0508 0.0427,0.104775 0.0631,0.156986 0.018,0.04551 0.0388,0.08678 0.055,0.132291 0.043,0.119945 0.0843,0.242711 0.12277,0.37077 0.007,0.04833 0.1143,0.891469 -0.0385,0.975783 l -1.71838,0.934156 c -0.0113,0.0056 -0.0236,0.0081 -0.036,0.0067 l -2.71181,-0.381706 c -0.025,-0.0025 -0.24695,-0.04269 -0.40252,-0.355247 -0.0166,-0.03457 -0.22331,-0.442384 -0.40499,-0.810332 l -1.43052,0.778582 c 0,-0.0014 0.001,-0.0014 0.003,-0.0028 -0.10337,0.05786 -0.19579,0.04833 -0.21238,0.04551 l -2.71039,-0.380295 c -0.20284,-0.02893 -0.0843,-0.953558 -0.0787,-1.001889 z"
         style="fill:none;fill-opacity:1;stroke:#231f20;stroke-width:0.14008282;stroke-linecap:round;stroke-linejoin:round;stroke-miterlimit:10;stroke-dasharray:none;stroke-opacity:1"
         id="path177265"
         inkscape:connector-curvature="0" />
      <path
         d="m 154.63351,89.057685 c 0.4946,-1.517298 1.4097,-2.065866 2.15936,-2.695574 0.31679,-0.265996 -0.11854,-0.410635 -0.14182,-0.41875 -0.0649,-0.01094 -1.30528,-0.22895 -1.22802,-0.9592 0.0289,-0.267407 0.2854,-0.483661 0.60078,-0.651936 -0.007,0.0042 -0.0152,0.0071 -0.0219,0.01129 l 1.38359,-0.752474 c 0.0205,-0.763412 0.17639,-1.152173 0.47237,-1.31198 l 0.003,-0.0014 c 0,-0.0014 0.001,-0.0014 0.003,-0.0014 l 1.71309,-0.931333 c 0.008,-0.0056 0.0162,-0.0099 0.0247,-0.01376 0.0346,-0.01658 0.0702,-0.02787 0.10866,-0.04022 0.01,-0.0028 0.018,-0.0067 0.0279,-0.0095 0.002,0 0.004,-0.0014 0.005,-0.0028 0.007,-0.0014 0.0152,0 0.0222,-0.0014 0.0688,-0.01658 0.14464,-0.02328 0.22437,-0.02469 0.0222,-0.0014 0.0469,-0.0014 0.0705,-0.0014 0.0907,0.0028 0.18451,0.0081 0.28787,0.02223 0.21378,0.02999 0.39829,0.0755 0.55527,0.149931 0.0497,0.02364 0.0952,0.05115 0.13794,0.08008 0.006,0.0028 0.0109,0.0053 0.0152,0.0081 0.01,0.0071 0.018,0.01376 0.0275,0.02223 0.018,0.01235 0.036,0.02611 0.0536,0.04127 0.006,0.0056 0.0127,0.0081 0.0166,0.01376 0.0123,0.0095 0.0236,0.02223 0.0332,0.03316 0.0109,0.01094 0.0233,0.02187 0.0332,0.03316 0.004,0.0039 0.008,0.0067 0.0109,0.01094 0.0152,0.01799 0.0289,0.03563 0.0427,0.05503 0.008,0.0095 0.0166,0.0194 0.0233,0.02893 0.001,0.0014 0.003,0.0028 0.004,0.0056 0.0109,0.01517 0.0208,0.03281 0.0317,0.0508 0.0123,0.02081 0.0247,0.03881 0.0374,0.06068 0,0 0,0.0014 0.001,0.0028 0.001,0.0028 0.003,0.0081 0.004,0.01094 0.0247,0.04551 0.0455,0.09384 0.0663,0.14605 0.001,0.0071 0.005,0.01235 0.008,0.0194 0.003,0.0095 0.006,0.02187 0.01,0.03316 0.0166,0.0508 0.0332,0.105834 0.0483,0.164042 0.003,0.01482 0.008,0.02999 0.0123,0.04657 0.0166,0.07444 0.0303,0.154516 0.0427,0.239889 0.001,0.01658 0.003,0.03598 0.006,0.05221 0.008,0.07302 0.0152,0.148872 0.0208,0.230364 0.002,0.02611 0.004,0.05221 0.005,0.07832 0.006,0.102306 0.008,0.206728 0.01,0.322792 -0.001,0 -0.001,0.0053 -0.003,0.01235 0,0.0025 0,0.0053 0,0.0081 0,0.0071 0.001,0.01376 0.004,0.02364 0.001,0.0067 0.003,0.01376 0.008,0.02187 0,0 0,0.0014 0,0.0014 0.008,0.0095 0.018,0.02081 0.0317,0.02893 0.0109,0.0067 0.091,0.04692 0.20814,0.109009 10e-4,0 0.004,0.0011 0.005,0.0025 0.036,0.0194 0.0759,0.04022 0.11854,0.0635 0.0109,0.0071 0.0236,0.01376 0.036,0.02081 0.0356,0.01905 0.0716,0.03986 0.11007,0.06174 0.0166,0.0099 0.0346,0.02081 0.054,0.03034 0.0342,0.02081 0.0702,0.04163 0.10725,0.06491 0.0208,0.01235 0.0427,0.02611 0.0649,0.03845 0.0356,0.02223 0.0716,0.0441 0.10865,0.06773 0.0222,0.01517 0.0455,0.03034 0.0692,0.04551 0.0356,0.02328 0.0716,0.04657 0.10724,0.07161 0.01,0.0067 0.0194,0.01376 0.0303,0.01905 0.01,0.0085 0.0194,0.01517 0.0303,0.02364 0.0526,0.03563 0.10336,0.07444 0.15452,0.112888 0.0205,0.01376 0.0384,0.02893 0.0579,0.0441 0.13794,0.107598 0.26317,0.219075 0.36936,0.334786 0.008,0.0085 0.018,0.01658 0.0247,0.02505 0.0109,0.01376 0.0208,0.02611 0.0303,0.03845 0.0208,0.02328 0.0385,0.04692 0.0565,0.0702 0.008,0.01129 0.018,0.02222 0.0261,0.03316 0.0127,0.01799 0.0208,0.03457 0.0318,0.05115 0.01,0.01517 0.018,0.02893 0.0261,0.04269 0.004,0.0067 0.01,0.01376 0.0141,0.02046 0.0191,0.03739 0.0356,0.07303 0.0494,0.110419 0.0166,0.04692 0.0289,0.09349 0.0332,0.140406 0.0261,0.246591 -0.0896,0.398286 -0.25894,0.490713 l -1.04598,0.569031 c 0.11006,0.122767 0.22295,0.245181 0.33901,0.369358 0.0854,0.09243 0.17075,0.185914 0.25612,0.282575 0.0261,0.02752 0.0512,0.05362 0.0759,0.08114 0.0208,0.02505 0.0413,0.05115 0.0635,0.07585 0.0494,0.05786 0.10054,0.117123 0.15134,0.179213 0.0497,0.06068 0.0995,0.122765 0.14887,0.185912 0.0497,0.0635 0.0981,0.128413 0.14605,0.19297 0.0236,0.03316 0.0469,0.06209 0.0706,0.09525 0.0356,0.04939 0.0702,0.104775 0.10442,0.158397 0.0208,0.03175 0.043,0.06209 0.0621,0.09349 0.0744,0.117475 0.14605,0.237067 0.21519,0.365478 0.007,0.01094 0.0124,0.02328 0.0176,0.03422 0.018,0.03457 0.0346,0.07161 0.0526,0.106187 0.0564,0.112888 0.11147,0.232833 0.16545,0.357011 0.0219,0.0508 0.0427,0.104775 0.0631,0.156986 0.018,0.04551 0.0388,0.08678 0.055,0.132291 0.043,0.119945 0.0843,0.242712 0.12277,0.37077 0.007,0.04833 0.1143,0.891469 -0.0385,0.975783 l -1.71838,0.934156 c -0.0113,0.0056 -0.0236,0.0081 -0.036,0.0067 l -2.71182,-0.381707 c -0.025,-0.0025 -0.24695,-0.04269 -0.40252,-0.355247 -0.0166,-0.03457 -0.22331,-0.442385 -0.40499,-0.810332 l -1.43052,0.778582 c 0,-0.0014 10e-4,-0.0014 0.003,-0.0028 -0.10337,0.05786 -0.19579,0.04833 -0.21238,0.04551 l -2.71039,-0.380295 c -0.20284,-0.02893 -0.0843,-0.953559 -0.0787,-1.001889 z"
         style="display:inline;fill:#006730;fill-opacity:1;stroke:none;stroke-width:0.14008282;stroke-linecap:round;stroke-linejoin:round;stroke-miterlimit:10;stroke-dasharray:none;stroke-opacity:1"
         id="path177265-7"
         inkscape:connector-curvature="0" />
      <path
         inkscape:connector-curvature="0"
         id="path178723"
         style="fill:#00a14b;fill-opacity:1;fill-rule:nonzero;stroke:#231f20;stroke-width:0.04852542;stroke-miterlimit:4;stroke-dasharray:none;stroke-opacity:1"
         d="m 158.63013,82.207447 c -0.85019,-0.119945 -1.2513,0.138994 -1.24848,1.5875 0.001,0.0028 0.0205,0.06597 -0.0388,0.08537 -0.0617,0.0194 -1.84221,0.369358 -1.91947,1.102431 -0.0787,0.73025 1.16311,0.948266 1.22767,0.960613 0.0236,0.0067 0.45755,0.151342 0.13935,0.417337 -0.75107,0.629708 -1.66194,1.178277 -2.15512,2.695574 -0.007,0.04833 -0.12841,0.972962 0.0769,1.001889 l 2.70651,0.380295 c 0.0275,0.0042 0.25224,0.02752 0.40535,-0.242711 0.0261,-0.04657 0.55386,-0.945092 0.66675,-1.164167 0.0222,-0.04269 0.0469,-0.107597 0.15169,-0.09807 0.10477,0.02081 0.13088,0.09102 0.15311,0.140758 0.11288,0.250825 0.64487,1.29787 0.67239,1.353256 0.15275,0.312561 0.37747,0.352777 0.40217,0.355247 l 2.70933,0.381705 c 0.20532,0.02928 0.0815,-0.931333 0.0744,-0.981075 -0.50024,-1.656291 -1.41676,-2.462388 -2.16747,-3.303058 -0.31997,-0.3556 0.11571,-0.377472 0.13758,-0.378883 0.0663,0.0067 1.30634,0.137583 1.2252,-0.614539 -0.0801,-0.756708 -1.86196,-1.606903 -1.9237,-1.642886 -0.0593,-0.03563 -0.0416,-0.0949 -0.0402,-0.09772 -0.002,-1.448505 -0.40499,-1.818922 -1.25519,-1.938866" />
    </g>
  </g>
</svg>
