<?xml version="1.0" encoding="UTF-8" standalone="no"?>
<!-- Created with Inkscape (http://www.inkscape.org/) -->

<svg
   xmlns:dc="http://purl.org/dc/elements/1.1/"
   xmlns:cc="http://creativecommons.org/ns#"
   xmlns:rdf="http://www.w3.org/1999/02/22-rdf-syntax-ns#"
   xmlns:svg="http://www.w3.org/2000/svg"
   xmlns="http://www.w3.org/2000/svg"
   xmlns:sodipodi="http://sodipodi.sourceforge.net/DTD/sodipodi-0.dtd"
   xmlns:inkscape="http://www.inkscape.org/namespaces/inkscape"
   width="10.28674mm"
   height="10.297575mm"
   viewBox="0 0 10.28674 10.297576"
   version="1.1"
   id="svg59498"
   inkscape:version="0.92.3 (2405546, 2018-03-11)"
   sodipodi:docname="MeepleBig_orange_f.svg">
  <defs
     id="defs59492" />
  <sodipodi:namedview
     id="base"
     pagecolor="#ffffff"
     bordercolor="#666666"
     borderopacity="1.0"
     inkscape:pageopacity="0.0"
     inkscape:pageshadow="2"
     inkscape:zoom="11.2"
     inkscape:cx="33.517012"
     inkscape:cy="21.895906"
     inkscape:document-units="mm"
     inkscape:current-layer="layer1"
     showgrid="false"
     inkscape:window-width="1920"
     inkscape:window-height="1017"
     inkscape:window-x="-8"
     inkscape:window-y="-8"
     inkscape:window-maximized="1" />
  <metadata
     id="metadata59495">
    <rdf:RDF>
      <cc:Work
         rdf:about="">
        <dc:format>image/svg+xml</dc:format>
        <dc:type
           rdf:resource="http://purl.org/dc/dcmitype/StillImage" />
        <dc:title></dc:title>
      </cc:Work>
    </rdf:RDF>
  </metadata>
  <g
     inkscape:label="Ebene 1"
     inkscape:groupmode="layer"
     id="layer1"
     transform="translate(249.62762,85.989553)">
    <g
       transform="matrix(-1.0209645,0,0,1.0148709,-155.91865,-157.61722)"
       id="g58414"
       inkscape:label="MeepleBig_orange"
       style="stroke-width:0.98240209">
      <path
         d="m 90.138338,75.720913 c 0.0025,-3.53e-4 0.0441,-0.0042 0.116769,-0.01411 0.377473,-0.05292 1.534231,-0.280106 1.45027,-1.060097 -0.03104,-0.291042 -0.299156,-0.530578 -0.655814,-0.7239 0.0018,7.05e-4 0.0035,0.0018 0.0049,0.0025 l -0.0081,-0.0042 c -7.06e-4,-3.53e-4 -0.0014,-7.06e-4 -0.0018,-7.06e-4 l -1.709147,-0.93034 c -0.03916,-0.02117 -0.07902,-0.04163 -0.119592,-0.06174 -0.0039,-0.0018 -0.0081,-0.0035 -0.01199,-0.0053 -0.08114,-0.03951 -0.1651,-0.0762 -0.251178,-0.111478 -0.01482,-0.006 -0.02893,-0.01164 -0.04375,-0.01764 -0.07479,-0.638881 -0.340783,-0.945797 -0.614186,-1.087614 0.0056,0.0032 0.01129,0.0039 0.01693,0.0071 l -1.719439,-0.935567 c -0.01164,-0.0063 -0.02328,-0.01235 -0.03492,-0.01799 -0.04057,-0.02011 -0.07973,-0.03069 -0.119592,-0.0441 -0.02187,-0.0078 -0.04374,-0.01834 -0.06526,-0.02434 -0.0035,-7.05e-4 -0.0067,-0.0028 -0.01023,-0.0039 -0.05786,-0.01482 -0.112184,-0.02293 -0.164042,-0.02822 -0.0127,-0.0014 -0.02293,-0.0018 -0.03563,-0.0021 -0.04339,-0.0035 -0.0822,-0.0046 -0.117123,-0.0035 -0.01094,0 -0.01976,0 -0.02999,7.06e-4 -0.03739,0.0018 -0.06985,0.0046 -0.09031,0.0074 -0.02081,0.0032 -0.03175,0.0053 -0.03245,0.0053 -3.53e-4,3.52e-4 -0.01094,0.0011 -0.03175,0.0039 -0.01376,0.0018 -0.03246,0.0049 -0.05362,0.0092 -0.0063,0.0014 -0.0134,0.0032 -0.02046,0.0046 -0.01729,0.0035 -0.03563,0.0081 -0.05609,0.01376 -0.0099,0.0025 -0.02011,0.0053 -0.03105,0.0085 -0.02046,0.006 -0.04127,0.0127 -0.06421,0.02081 -0.01235,0.0042 -0.02434,0.0085 -0.03739,0.01341 -0.02399,0.0088 -0.04939,0.01976 -0.07514,0.0314 -0.0099,0.0042 -0.0194,0.0074 -0.02963,0.01235 -0.0021,0.0011 -0.0042,0.0025 -0.006,0.0035 -0.05715,0.02716 -0.117122,0.06138 -0.1778,0.102659 -0.006,0.0035 -0.01164,0.0056 -0.01764,0.0099 -0.0046,0.0032 -0.0095,0.0074 -0.01376,0.01058 -0.03881,0.02752 -0.07761,0.05785 -0.116064,0.09207 -0.0049,0.0042 -0.0095,0.0067 -0.01411,0.01094 l -0.0025,0.0025 c -0.0388,0.03528 -0.07726,0.07303 -0.114653,0.115359 -7.05e-4,0.0011 -0.0014,0.0025 -0.0025,0.0035 -0.07161,0.08149 -0.140053,0.1778 -0.201083,0.289984 -7.06e-4,0.0014 -0.0018,0.0028 -0.0025,0.0042 -0.0032,0.006 -0.0056,0.01446 -0.0092,0.02081 -0.03069,0.05891 -0.05927,0.122767 -0.08537,0.190853 -0.0039,0.01058 -0.0088,0.0187 -0.0127,0.02928 -0.0092,0.02434 -0.01588,0.05186 -0.02399,0.07726 -0.0095,0.02893 -0.0187,0.0575 -0.02752,0.08819 -0.01129,0.04163 -0.02081,0.08643 -0.03034,0.130881 -0.0071,0.03281 -0.01482,0.06385 -0.02046,0.09807 -0.0092,0.0515 -0.01517,0.107244 -0.02187,0.162983 -0.0035,0.03069 -0.0085,0.06032 -0.01094,0.09278 -0.0078,0.09031 -0.01235,0.184855 -0.01235,0.285044 3.52e-4,0.0011 0.0018,0.0088 0.0028,0.01729 3.53e-4,0.0028 -3.53e-4,0.0071 -3.53e-4,0.01094 0,0.0081 -0.0014,0.01764 -0.0039,0.02752 -0.0025,0.0095 -0.0049,0.0194 -0.01129,0.02963 -3.53e-4,3.53e-4 -7.06e-4,0.0011 -0.0011,0.0014 -0.0088,0.01305 -0.02152,0.02611 -0.04022,0.03704 -0.0042,0.0028 -0.0187,0.0099 -0.0381,0.0194 -0.04445,0.02152 -0.123825,0.05891 -0.231423,0.11183 -0.0018,7.06e-4 -0.0032,0.0014 -0.0049,0.0021 -0.04586,0.02258 -0.09666,0.04798 -0.151342,0.0755 -0.0085,0.0042 -0.01623,0.0085 -0.02505,0.01235 -0.05539,0.02822 -0.115006,0.05891 -0.177095,0.09137 -0.01094,0.006 -0.02152,0.01129 -0.03281,0.01729 -0.06421,0.03387 -0.130881,0.06914 -0.199672,0.107245 -0.0081,0.0046 -0.01693,0.0095 -0.02505,0.01411 -0.06809,0.03704 -0.136877,0.0762 -0.207433,0.116769 -0.0067,0.0039 -0.0127,0.0071 -0.0194,0.01094 -0.07267,0.04233 -0.14605,0.08608 -0.21978,0.131586 -0.012,0.0074 -0.02399,0.01482 -0.03634,0.02258 -0.07373,0.04551 -0.147109,0.09243 -0.219781,0.140759 l -0.02822,0.0187 c -0.02893,0.0194 -0.05821,0.03845 -0.08678,0.05856 -0.01976,0.01376 -0.03845,0.02858 -0.05821,0.04269 -0.04833,0.03422 -0.0956,0.06879 -0.142522,0.104069 -0.03387,0.0254 -0.06668,0.05045 -0.09948,0.07655 -0.04657,0.03704 -0.09102,0.07444 -0.134409,0.111831 -0.02011,0.01729 -0.04233,0.03387 -0.06174,0.0508 -0.0092,0.0085 -0.01587,0.01658 -0.02469,0.02505 -0.05891,0.05397 -0.113242,0.108303 -0.164042,0.163336 -0.01199,0.01305 -0.02716,0.02575 -0.0388,0.03881 -0.0028,0.0035 -0.0053,0.0067 -0.0081,0.0099 -0.01376,0.01587 -0.02469,0.03175 -0.03775,0.04762 -0.02752,0.03351 -0.05609,0.06703 -0.08008,0.100189 -0.0063,0.0095 -0.01094,0.0187 -0.01729,0.02787 -0.0095,0.01411 -0.01764,0.02822 -0.02646,0.04269 -0.01235,0.01976 -0.02646,0.03986 -0.03704,0.05962 -0.01411,0.02646 -0.02434,0.05221 -0.03563,0.07796 -0.0042,0.0099 -0.0092,0.01976 -0.01305,0.02928 -0.0018,0.0046 -0.0046,0.0095 -0.0063,0.01376 -0.01976,0.05433 -0.03281,0.107597 -0.03845,0.160514 -0.03034,0.280458 0.09031,0.451203 0.276225,0.55245 l 1.371952,0.746125 c -0.0187,0.03634 -0.03669,0.07161 -0.0568,0.111831 -0.02787,0.05468 -0.05644,0.111125 -0.08714,0.172155 -0.02081,0.04092 -0.04022,0.07937 -0.06209,0.123472 -0.04269,0.08573 -0.08749,0.176742 -0.133703,0.272698 -0.01023,0.02081 -0.01976,0.03951 -0.02999,0.06138 -0.05433,0.113594 -0.110419,0.234244 -0.167216,0.358422 -0.01693,0.03845 -0.03422,0.07726 -0.05151,0.116417 -0.04269,0.0956 -0.08502,0.193322 -0.127353,0.293511 -0.01834,0.04374 -0.03634,0.08643 -0.05468,0.13088 -0.04974,0.121709 -0.09878,0.245887 -0.146403,0.372181 -0.0078,0.02117 -0.01587,0.04092 -0.02364,0.06209 -0.0018,0.0049 -0.0039,0.0099 -0.006,0.01517 -0.0374,0.102659 -0.07161,0.207786 -0.106539,0.312209 -0.01799,0.05397 -0.0381,0.106891 -0.05539,0.161925 -0.05186,0.164394 -0.09984,0.330552 -0.141111,0.496711 -0.0074,0.02258 -0.128059,0.402166 0.01164,0.478366 l 1.719439,0.935567 c -0.01834,-0.01023 -0.03175,-0.02575 -0.04198,-0.04445 0.02187,0.04057 0.06103,0.06456 0.125236,0.05539 l 2.25813,-0.3175 c 0.03246,-0.0042 0.316795,-0.05503 0.515056,-0.453319 0.01587,-0.03105 0.220133,-0.428978 0.400755,-0.78987 l 1.489075,0.810331 c -0.0011,-3.53e-4 -0.0021,-0.0014 -0.0028,-0.0018 0.134056,0.07408 0.254,0.06138 0.276578,0.05821 l 2.254603,-0.316794 c 0.26035,-0.03669 0.10548,-0.493184 0.09737,-0.51682 -0.331258,-1.249186 -1.055158,-2.392186 -1.33103,-2.862791 -0.27305,-0.473428 0.156633,-0.533753 0.178858,-0.536928 z"
         style="display:inline;fill:none;fill-opacity:1;stroke:#000000;stroke-width:0.15030751;stroke-linecap:butt;stroke-linejoin:round;stroke-miterlimit:10;stroke-dasharray:none;stroke-opacity:1"
         id="path17921"
         inkscape:connector-curvature="0" />
      <path
         d="m 90.138329,75.720912 c 0.0025,-3.43e-4 0.0441,-0.0042 0.116769,-0.01411 0.377473,-0.05292 1.534231,-0.280106 1.45027,-1.060097 -0.03104,-0.291042 -0.299156,-0.530578 -0.655814,-0.7239 0.0018,7.15e-4 0.0035,0.0018 0.0049,0.0025 l -0.0081,-0.0042 c -7.07e-4,-3.44e-4 -0.0014,-7.14e-4 -0.0018,-7.14e-4 L 89.335407,72.99006 c -0.03916,-0.02117 -0.07902,-0.04163 -0.119592,-0.06174 -0.0039,-0.0018 -0.0081,-0.0035 -0.01199,-0.0053 -0.08114,-0.03951 -0.1651,-0.0762 -0.251178,-0.111478 -0.01482,-0.006 -0.02893,-0.01164 -0.04375,-0.01764 -0.07479,-0.638881 -0.340783,-0.945797 -0.614186,-1.087614 0.0056,0.0032 0.01129,0.0039 0.01693,0.0071 l -1.719439,-0.935567 c -0.01164,-0.0063 -0.02328,-0.01235 -0.03492,-0.01799 -0.04057,-0.02011 -0.07973,-0.03069 -0.119592,-0.0441 -0.02187,-0.0078 -0.04374,-0.01834 -0.06526,-0.02434 -0.0035,-7.05e-4 -0.0067,-0.0028 -0.01023,-0.0039 -0.05786,-0.01482 -0.112184,-0.02293 -0.164042,-0.02822 -0.0127,-0.0014 -0.02293,-0.0018 -0.03563,-0.0021 -0.04339,-0.0035 -0.0822,-0.0046 -0.117124,-0.0035 -0.01094,0 -0.01976,0 -0.02999,7.06e-4 -0.03739,0.0018 -0.06985,0.0046 -0.09031,0.0074 -0.02081,0.0032 -0.03175,0.0053 -0.03245,0.0053 -3.44e-4,3.52e-4 -0.01094,0.0011 -0.03175,0.0039 -0.01376,0.0018 -0.03246,0.0049 -0.05362,0.0092 -0.0063,0.0014 -0.0134,0.0032 -0.02046,0.0046 -0.01729,0.0035 -0.03563,0.0081 -0.05609,0.01376 -0.0099,0.0025 -0.02011,0.0053 -0.03105,0.0085 -0.02046,0.006 -0.04127,0.0127 -0.06421,0.02081 -0.01235,0.0042 -0.02434,0.0085 -0.03739,0.01341 -0.02399,0.0088 -0.04939,0.01976 -0.07514,0.0314 -0.0099,0.0042 -0.0194,0.0074 -0.02963,0.01235 -0.0021,0.0011 -0.0042,0.0025 -0.006,0.0035 -0.05715,0.02716 -0.117122,0.06138 -0.1778,0.102659 -0.006,0.0035 -0.01164,0.0056 -0.01764,0.0099 -0.0046,0.0032 -0.0095,0.0074 -0.01376,0.01058 -0.03881,0.02752 -0.07761,0.05785 -0.116064,0.09207 -0.0049,0.0042 -0.0095,0.0067 -0.01411,0.01094 l -0.0025,0.0025 c -0.0388,0.03528 -0.07726,0.07303 -0.114652,0.115359 -7.15e-4,0.0011 -0.0014,0.0025 -0.0025,0.0035 -0.07161,0.08149 -0.140052,0.1778 -0.201083,0.289984 -7.14e-4,0.0014 -0.0018,0.0028 -0.0025,0.0042 -0.0032,0.006 -0.0056,0.01446 -0.0092,0.02081 -0.03069,0.05891 -0.05927,0.122767 -0.08537,0.190853 -0.0039,0.01058 -0.0088,0.0187 -0.0127,0.02928 -0.0092,0.02434 -0.01588,0.05186 -0.02399,0.07726 -0.0095,0.02893 -0.0187,0.0575 -0.02752,0.08819 -0.01129,0.04163 -0.02081,0.08643 -0.03034,0.130881 -0.0071,0.03281 -0.01482,0.06385 -0.02046,0.09807 -0.0092,0.0515 -0.01517,0.107244 -0.02187,0.162983 -0.0035,0.03069 -0.0085,0.06032 -0.01094,0.09278 -0.0078,0.09031 -0.01235,0.184855 -0.01235,0.285044 3.44e-4,0.0011 0.0018,0.0088 0.0028,0.01729 3.44e-4,0.0028 -3.44e-4,0.0071 -3.44e-4,0.01094 0,0.0081 -0.0014,0.01764 -0.0039,0.02752 -0.0025,0.0095 -0.0049,0.0194 -0.01129,0.02963 -3.44e-4,3.52e-4 -7.15e-4,0.0011 -0.0011,0.0014 -0.0088,0.01305 -0.02152,0.02611 -0.04022,0.03704 -0.0042,0.0028 -0.0187,0.0099 -0.0381,0.0194 -0.04445,0.02152 -0.123825,0.05891 -0.231423,0.11183 -0.0018,7.07e-4 -0.0032,0.0014 -0.0049,0.0021 -0.04586,0.02258 -0.09666,0.04798 -0.151342,0.0755 -0.0085,0.0042 -0.01623,0.0085 -0.02505,0.01235 -0.05539,0.02822 -0.115006,0.05891 -0.177095,0.09137 -0.01094,0.006 -0.02152,0.01129 -0.03281,0.01729 -0.06421,0.03387 -0.130881,0.06914 -0.199672,0.107245 -0.0081,0.0046 -0.01693,0.0095 -0.02505,0.01411 -0.06809,0.03704 -0.136877,0.0762 -0.207433,0.116769 -0.0067,0.0039 -0.0127,0.0071 -0.0194,0.01094 -0.07267,0.04233 -0.14605,0.08608 -0.21978,0.131586 -0.012,0.0074 -0.02399,0.01482 -0.03634,0.02258 -0.07373,0.04551 -0.147109,0.09243 -0.219781,0.140759 l -0.02822,0.0187 c -0.02893,0.0194 -0.05821,0.03845 -0.08678,0.05856 -0.01976,0.01376 -0.03845,0.02858 -0.05821,0.04269 -0.04833,0.03422 -0.0956,0.06879 -0.142522,0.104069 -0.03387,0.0254 -0.06668,0.05045 -0.09948,0.07655 -0.04657,0.03704 -0.09102,0.07444 -0.134409,0.111831 -0.02011,0.01729 -0.04233,0.03387 -0.06174,0.0508 -0.0092,0.0085 -0.01587,0.01658 -0.02469,0.02505 -0.05891,0.05397 -0.113242,0.108303 -0.164042,0.163336 -0.01199,0.01305 -0.02716,0.02575 -0.0388,0.03881 -0.0028,0.0035 -0.0053,0.0067 -0.0081,0.0099 -0.01376,0.01587 -0.02469,0.03175 -0.03775,0.04762 -0.02752,0.03351 -0.05609,0.06703 -0.08008,0.100189 -0.0063,0.0095 -0.01094,0.0187 -0.01729,0.02787 -0.0095,0.01411 -0.01764,0.02822 -0.02646,0.04269 -0.01235,0.01976 -0.02646,0.03986 -0.03704,0.05962 -0.01411,0.02646 -0.02434,0.05221 -0.03563,0.07796 -0.0042,0.0099 -0.0092,0.01976 -0.01305,0.02928 -0.0018,0.0046 -0.0046,0.0095 -0.0063,0.01376 -0.01976,0.05433 -0.03281,0.107597 -0.03845,0.160514 -0.03034,0.280458 0.09031,0.451203 0.276225,0.55245 l 1.371952,0.746125 c -0.0187,0.03634 -0.03669,0.07161 -0.0568,0.111831 -0.02787,0.05468 -0.05644,0.111125 -0.08714,0.172155 -0.02081,0.04092 -0.04022,0.07937 -0.06209,0.123472 -0.04269,0.08573 -0.08749,0.176742 -0.133703,0.272698 -0.01023,0.02081 -0.01976,0.03951 -0.02999,0.06138 -0.05433,0.113594 -0.110419,0.234244 -0.167216,0.358422 -0.01693,0.03845 -0.03422,0.07726 -0.05151,0.116417 -0.04269,0.0956 -0.08502,0.193322 -0.127353,0.293511 -0.01834,0.04374 -0.03634,0.08643 -0.05468,0.13088 -0.04974,0.121709 -0.09878,0.245887 -0.146403,0.372181 -0.0078,0.02117 -0.01587,0.04092 -0.02364,0.06209 -0.0018,0.0049 -0.0039,0.0099 -0.006,0.01517 -0.0374,0.102659 -0.07161,0.207786 -0.106539,0.312209 -0.01799,0.05397 -0.0381,0.106891 -0.05539,0.161925 -0.05186,0.164394 -0.09984,0.330552 -0.141111,0.496711 -0.0074,0.02258 -0.128059,0.402166 0.01164,0.478366 l 1.719439,0.935567 c -0.01834,-0.01023 -0.03175,-0.02575 -0.04198,-0.04445 0.02187,0.04057 0.06103,0.06456 0.125236,0.05539 l 2.25813,-0.3175 c 0.03246,-0.0042 0.316795,-0.05503 0.515056,-0.453319 0.01587,-0.03105 0.220133,-0.428978 0.400755,-0.78987 l 1.489075,0.810331 c -0.0011,-3.44e-4 -0.0021,-0.0014 -0.0028,-0.0018 0.134056,0.07408 0.254,0.06138 0.276578,0.05821 l 2.254569,-0.316799 c 0.26035,-0.03669 0.10548,-0.493184 0.09737,-0.51682 -0.331258,-1.249186 -1.055158,-2.392186 -1.33103,-2.862791 -0.27305,-0.473428 0.156633,-0.533753 0.178858,-0.536928 z"
         style="display:inline;fill:#e47f08;fill-opacity:1;stroke:none;stroke-width:0.15030751;stroke-linecap:butt;stroke-linejoin:miter;stroke-miterlimit:10;stroke-dasharray:none;stroke-opacity:1"
         id="path17921-1"
         inkscape:connector-curvature="0" />
      <path
         inkscape:connector-curvature="0"
         id="path18851"
         style="display:inline;fill:#f79420;fill-opacity:1;fill-rule:nonzero;stroke:#000000;stroke-width:0.05206729;stroke-miterlimit:4;stroke-dasharray:none;stroke-opacity:1"
         d="m 87.643385,71.594357 c 0.197555,-0.02752 1.291872,-0.105481 1.288697,1.573389 -0.0014,0.0046 -0.02575,0.0889 0.0508,0.111477 0.07902,0.02293 2.623255,0.433564 2.723444,1.36772 0.08149,0.780344 -1.073502,1.00718 -1.450622,1.060097 -0.07267,0.01058 -0.1143,0.01376 -0.116416,0.01411 -0.02258,0.0032 -0.452262,0.0635 -0.179212,0.537633 0.273403,0.470606 0.999773,1.612548 1.331031,2.858911 0.0078,0.02469 0.162983,0.483306 -0.09984,0.5207 l -2.254956,0.316795 c -0.03598,0.0049 -0.320322,0.03422 -0.513644,-0.309033 -0.02399,-0.04022 -0.484364,-0.807156 -0.627944,-1.089025 -0.02787,-0.05397 -0.06174,-0.131586 -0.194734,-0.121708 -0.132644,0.02752 -0.166864,0.114652 -0.195439,0.176741 -0.144639,0.322439 -0.607483,1.218847 -0.632177,1.265767 -0.194734,0.39758 -0.479073,0.448733 -0.511881,0.453319 l -2.25813,0.3175 c -0.262467,0.03704 -0.105834,-0.466019 -0.09772,-0.492478 0.335845,-1.340202 1.067153,-2.687461 1.342319,-3.234972 0.274814,-0.551039 -0.154516,-0.490714 -0.177447,-0.487539 -0.0021,3.44e-4 -0.04374,0.0085 -0.116416,0.0187 -0.376767,0.05292 -1.531761,0.150989 -1.447095,-0.652991 0.103011,-0.963084 2.650772,-2.08915 2.730147,-2.133953 0.07655,-0.04445 0.05221,-0.122061 0.0508,-0.125942 0.0035,-1.679222 1.098198,-1.908527 1.2954,-1.93675 0.01976,-0.0025 0.02999,-0.0028 0.03034,-0.0028 7.15e-4,-3.53e-4 0.01094,-0.0028 0.03069,-0.0056" />
    </g>
  </g>
</svg>
