<?xml version="1.0" encoding="UTF-8" standalone="no"?>
<!-- Created with Inkscape (http://www.inkscape.org/) -->

<svg
   xmlns:dc="http://purl.org/dc/elements/1.1/"
   xmlns:cc="http://creativecommons.org/ns#"
   xmlns:rdf="http://www.w3.org/1999/02/22-rdf-syntax-ns#"
   xmlns:svg="http://www.w3.org/2000/svg"
   xmlns="http://www.w3.org/2000/svg"
   xmlns:sodipodi="http://sodipodi.sourceforge.net/DTD/sodipodi-0.dtd"
   xmlns:inkscape="http://www.inkscape.org/namespaces/inkscape"
   width="8.8179588mm"
   height="8.4508295mm"
   viewBox="0 0 8.8179589 8.4508295"
   version="1.1"
   id="svg80256"
   inkscape:version="0.92.3 (2405546, 2018-03-11)"
   sodipodi:docname="MeepleNormal_blue_f.svg">
  <defs
     id="defs80250">
    <clipPath
       clipPathUnits="userSpaceOnUse"
       id="clipPath4237">
      <path
         d="m 178.84,198.078 h 24.691 v 24.879 H 178.84 Z"
         id="path4235"
         inkscape:connector-curvature="0" />
    </clipPath>
    <clipPath
       clipPathUnits="userSpaceOnUse"
       id="clipPath4247">
      <path
         d="M 0,0 H 576 V 903 H 0 Z"
         id="path4245"
         inkscape:connector-curvature="0" />
    </clipPath>
    <clipPath
       clipPathUnits="userSpaceOnUse"
       id="clipPath4257">
      <path
         d="m 191.074,218.129 h 4.887 v 2.957 h -4.887 z"
         id="path4255"
         inkscape:connector-curvature="0" />
    </clipPath>
    <clipPath
       clipPathUnits="userSpaceOnUse"
       id="clipPath4267">
      <path
         d="M 0,0 H 576 V 903 H 0 Z"
         id="path4265"
         inkscape:connector-curvature="0" />
    </clipPath>
    <clipPath
       clipPathUnits="userSpaceOnUse"
       id="clipPath4277">
      <path
         d="m 191,218 h 5 v 4 h -5 z"
         id="path4275"
         inkscape:connector-curvature="0" />
    </clipPath>
    <clipPath
       clipPathUnits="userSpaceOnUse"
       id="clipPath4283">
      <path
         d="m 195.961,221.086 -4.277,-2.328 c -0.204,-0.113 -0.422,-0.305 -0.61,-0.629 l 4.278,2.324 c 0.183,0.328 0.402,0.52 0.609,0.633"
         id="path4281"
         inkscape:connector-curvature="0" />
    </clipPath>
    <clipPath
       clipPathUnits="userSpaceOnUse"
       id="clipPath4293">
      <path
         d="M 0,0 H 576 V 903 H 0 Z"
         id="path4291"
         inkscape:connector-curvature="0" />
    </clipPath>
    <clipPath
       clipPathUnits="userSpaceOnUse"
       id="clipPath4303">
      <path
         d="m 191.074,218.129 h 4.887 v 2.957 h -4.887 z"
         id="path4301"
         inkscape:connector-curvature="0" />
    </clipPath>
    <clipPath
       clipPathUnits="userSpaceOnUse"
       id="clipPath4313">
      <path
         d="M 0,0 H 576 V 903 H 0 Z"
         id="path4311"
         inkscape:connector-curvature="0" />
    </clipPath>
    <clipPath
       clipPathUnits="userSpaceOnUse"
       id="clipPath4325">
      <path
         d="m 189.512,215.418 h 5.84 v 5.035 h -5.84 z"
         id="path4323"
         inkscape:connector-curvature="0" />
    </clipPath>
    <clipPath
       clipPathUnits="userSpaceOnUse"
       id="clipPath4335">
      <path
         d="M 0,0 H 576 V 903 H 0 Z"
         id="path4333"
         inkscape:connector-curvature="0" />
    </clipPath>
    <clipPath
       clipPathUnits="userSpaceOnUse"
       id="clipPath4345">
      <path
         d="m 189,215 h 7 v 6 h -7 z"
         id="path4343"
         inkscape:connector-curvature="0" />
    </clipPath>
    <clipPath
       clipPathUnits="userSpaceOnUse"
       id="clipPath4351">
      <path
         d="m 195.352,220.453 -4.278,-2.324 c -0.058,-0.102 -1.207,-2.012 -1.562,-2.711 l 4.273,2.324 c 0.36,0.703 1.504,2.613 1.567,2.711"
         id="path4349"
         inkscape:connector-curvature="0" />
    </clipPath>
    <clipPath
       clipPathUnits="userSpaceOnUse"
       id="clipPath4361">
      <path
         d="M 0,0 H 576 V 903 H 0 Z"
         id="path4359"
         inkscape:connector-curvature="0" />
    </clipPath>
    <clipPath
       clipPathUnits="userSpaceOnUse"
       id="clipPath4371">
      <path
         d="m 189.512,215.418 h 5.84 v 5.035 h -5.84 z"
         id="path4369"
         inkscape:connector-curvature="0" />
    </clipPath>
    <clipPath
       clipPathUnits="userSpaceOnUse"
       id="clipPath4381">
      <path
         d="M 0,0 H 576 V 903 H 0 Z"
         id="path4379"
         inkscape:connector-curvature="0" />
    </clipPath>
    <clipPath
       clipPathUnits="userSpaceOnUse"
       id="clipPath4393">
      <path
         d="m 189.301,215.16 h 4.484 v 2.582 h -4.484 z"
         id="path4391"
         inkscape:connector-curvature="0" />
    </clipPath>
    <clipPath
       clipPathUnits="userSpaceOnUse"
       id="clipPath4403">
      <path
         d="M 0,0 H 576 V 903 H 0 Z"
         id="path4401"
         inkscape:connector-curvature="0" />
    </clipPath>
    <clipPath
       clipPathUnits="userSpaceOnUse"
       id="clipPath4413">
      <path
         d="m 189,215 h 5 v 3 h -5 z"
         id="path4411"
         inkscape:connector-curvature="0" />
    </clipPath>
    <clipPath
       clipPathUnits="userSpaceOnUse"
       id="clipPath4419">
      <path
         d="m 189.301,215.16 4.273,2.328 c 0.117,0.063 0.168,0.172 0.211,0.254 l -4.273,-2.324 c -0.047,-0.082 -0.098,-0.191 -0.211,-0.258"
         id="path4417"
         inkscape:connector-curvature="0" />
    </clipPath>
    <clipPath
       clipPathUnits="userSpaceOnUse"
       id="clipPath4429">
      <path
         d="M 0,0 H 576 V 903 H 0 Z"
         id="path4427"
         inkscape:connector-curvature="0" />
    </clipPath>
    <clipPath
       clipPathUnits="userSpaceOnUse"
       id="clipPath4439">
      <path
         d="m 189.301,215.16 h 4.484 v 2.582 h -4.484 z"
         id="path4437"
         inkscape:connector-curvature="0" />
    </clipPath>
    <clipPath
       clipPathUnits="userSpaceOnUse"
       id="clipPath4449">
      <path
         d="M 0,0 H 576 V 903 H 0 Z"
         id="path4447"
         inkscape:connector-curvature="0" />
    </clipPath>
    <clipPath
       clipPathUnits="userSpaceOnUse"
       id="clipPath4461">
      <path
         d="m 192.473,202.293 h 9.43 v 3.938 h -9.43 z"
         id="path4459"
         inkscape:connector-curvature="0" />
    </clipPath>
    <clipPath
       clipPathUnits="userSpaceOnUse"
       id="clipPath4471">
      <path
         d="M 0,0 H 576 V 903 H 0 Z"
         id="path4469"
         inkscape:connector-curvature="0" />
    </clipPath>
    <clipPath
       clipPathUnits="userSpaceOnUse"
       id="clipPath4481">
      <path
         d="m 192,202 h 10 v 5 h -10 z"
         id="path4479"
         inkscape:connector-curvature="0" />
    </clipPath>
    <clipPath
       clipPathUnits="userSpaceOnUse"
       id="clipPath4487">
      <path
         d="m 197.625,203.902 4.277,2.328 c -1.964,-1.07 -5.023,-1.57 -5.152,-1.609 l -4.277,-2.328 c 0.129,0.043 3.187,0.543 5.152,1.609"
         id="path4485"
         inkscape:connector-curvature="0" />
    </clipPath>
    <clipPath
       clipPathUnits="userSpaceOnUse"
       id="clipPath4497">
      <path
         d="M 0,0 H 576 V 903 H 0 Z"
         id="path4495"
         inkscape:connector-curvature="0" />
    </clipPath>
    <clipPath
       clipPathUnits="userSpaceOnUse"
       id="clipPath4507">
      <path
         d="m 192.473,202.293 h 9.43 v 3.938 h -9.43 z"
         id="path4505"
         inkscape:connector-curvature="0" />
    </clipPath>
    <clipPath
       clipPathUnits="userSpaceOnUse"
       id="clipPath4517">
      <path
         d="M 0,0 H 576 V 903 H 0 Z"
         id="path4515"
         inkscape:connector-curvature="0" />
    </clipPath>
    <clipPath
       clipPathUnits="userSpaceOnUse"
       id="clipPath4535">
      <path
         d="m 192.422,202.273 h 4.328 v 2.348 h -4.328 z"
         id="path4533"
         inkscape:connector-curvature="0" />
    </clipPath>
    <clipPath
       clipPathUnits="userSpaceOnUse"
       id="clipPath4545">
      <path
         d="M 0,0 H 576 V 903 H 0 Z"
         id="path4543"
         inkscape:connector-curvature="0" />
    </clipPath>
    <clipPath
       clipPathUnits="userSpaceOnUse"
       id="clipPath4555">
      <path
         d="m 192,202 h 5 v 3 h -5 z"
         id="path4553"
         inkscape:connector-curvature="0" />
    </clipPath>
    <clipPath
       clipPathUnits="userSpaceOnUse"
       id="clipPath4561">
      <path
         d="m 196.699,204.602 -4.277,-2.329 c 0.016,0.008 0.031,0.016 0.051,0.02 l 4.277,2.328 c -0.02,-0.008 -0.035,-0.016 -0.051,-0.019"
         id="path4559"
         inkscape:connector-curvature="0" />
    </clipPath>
    <clipPath
       clipPathUnits="userSpaceOnUse"
       id="clipPath4571">
      <path
         d="M 0,0 H 576 V 903 H 0 Z"
         id="path4569"
         inkscape:connector-curvature="0" />
    </clipPath>
    <clipPath
       clipPathUnits="userSpaceOnUse"
       id="clipPath4581">
      <path
         d="m 192.422,202.273 h 4.328 v 2.348 h -4.328 z"
         id="path4579"
         inkscape:connector-curvature="0" />
    </clipPath>
    <clipPath
       clipPathUnits="userSpaceOnUse"
       id="clipPath4591">
      <path
         d="M 0,0 H 576 V 903 H 0 Z"
         id="path4589"
         inkscape:connector-curvature="0" />
    </clipPath>
    <clipPath
       clipPathUnits="userSpaceOnUse"
       id="clipPath4605">
      <path
         d="m 179.703,219.395 h 4.445 v 3.531 h -4.445 z"
         id="path4603"
         inkscape:connector-curvature="0" />
    </clipPath>
    <clipPath
       clipPathUnits="userSpaceOnUse"
       id="clipPath4615">
      <path
         d="M 0,0 H 576 V 903 H 0 Z"
         id="path4613"
         inkscape:connector-curvature="0" />
    </clipPath>
    <clipPath
       clipPathUnits="userSpaceOnUse"
       id="clipPath4625">
      <path
         d="m 179,219 h 6 v 4 h -6 z"
         id="path4623"
         inkscape:connector-curvature="0" />
    </clipPath>
    <clipPath
       clipPathUnits="userSpaceOnUse"
       id="clipPath4631">
      <path
         d="m 184.148,222.926 -4.277,-2.328 c -0.348,-0.192 -0.051,-1.145 -0.031,-1.203 l 4.273,2.328 c -0.015,0.054 -0.312,1.011 0.035,1.203"
         id="path4629"
         inkscape:connector-curvature="0" />
    </clipPath>
    <clipPath
       clipPathUnits="userSpaceOnUse"
       id="clipPath4641">
      <path
         d="M 0,0 H 576 V 903 H 0 Z"
         id="path4639"
         inkscape:connector-curvature="0" />
    </clipPath>
    <clipPath
       clipPathUnits="userSpaceOnUse"
       id="clipPath4651">
      <path
         d="m 179.703,219.395 h 4.445 v 3.531 h -4.445 z"
         id="path4649"
         inkscape:connector-curvature="0" />
    </clipPath>
    <clipPath
       clipPathUnits="userSpaceOnUse"
       id="clipPath4661">
      <path
         d="M 0,0 H 576 V 903 H 0 Z"
         id="path4659"
         inkscape:connector-curvature="0" />
    </clipPath>
    <clipPath
       clipPathUnits="userSpaceOnUse"
       id="clipPath4673">
      <path
         d="m 179.84,210.199 h 7.84 v 11.523 h -7.84 z"
         id="path4671"
         inkscape:connector-curvature="0" />
    </clipPath>
    <clipPath
       clipPathUnits="userSpaceOnUse"
       id="clipPath4683">
      <path
         d="M 0,0 H 576 V 903 H 0 Z"
         id="path4681"
         inkscape:connector-curvature="0" />
    </clipPath>
    <clipPath
       clipPathUnits="userSpaceOnUse"
       id="clipPath4693">
      <path
         d="m 179,210 h 9 v 12 h -9 z"
         id="path4691"
         inkscape:connector-curvature="0" />
    </clipPath>
    <clipPath
       clipPathUnits="userSpaceOnUse"
       id="clipPath4699">
      <path
         d="m 183.191,210.199 4.278,2.328 c 0.215,0.118 0.347,0.411 -0.016,1.145 -0.691,1.367 -2.5,4.719 -3.34,8.051 l -4.273,-2.328 c 0.836,-3.332 2.644,-6.68 3.336,-8.047 0.367,-0.735 0.23,-1.032 0.015,-1.149"
         id="path4697"
         inkscape:connector-curvature="0" />
    </clipPath>
    <clipPath
       clipPathUnits="userSpaceOnUse"
       id="clipPath4709">
      <path
         d="M 0,0 H 576 V 903 H 0 Z"
         id="path4707"
         inkscape:connector-curvature="0" />
    </clipPath>
    <clipPath
       clipPathUnits="userSpaceOnUse"
       id="clipPath4719">
      <path
         d="m 179.84,210.199 h 7.84 v 11.523 h -7.84 z"
         id="path4717"
         inkscape:connector-curvature="0" />
    </clipPath>
    <clipPath
       clipPathUnits="userSpaceOnUse"
       id="clipPath4729">
      <path
         d="M 0,0 H 576 V 903 H 0 Z"
         id="path4727"
         inkscape:connector-curvature="0" />
    </clipPath>
    <clipPath
       clipPathUnits="userSpaceOnUse"
       id="clipPath4745">
      <path
         d="m 189.137,198.078 h 5.934 v 2.641 h -5.934 z"
         id="path4743"
         inkscape:connector-curvature="0" />
    </clipPath>
    <clipPath
       clipPathUnits="userSpaceOnUse"
       id="clipPath4755">
      <path
         d="M 0,0 H 576 V 903 H 0 Z"
         id="path4753"
         inkscape:connector-curvature="0" />
    </clipPath>
    <clipPath
       clipPathUnits="userSpaceOnUse"
       id="clipPath4765">
      <path
         d="m 189,198 h 7 v 3 h -7 z"
         id="path4763"
         inkscape:connector-curvature="0" />
    </clipPath>
    <clipPath
       clipPathUnits="userSpaceOnUse"
       id="clipPath4771">
      <path
         d="m 190.793,198.391 4.277,2.328 c -0.703,-0.383 -1.429,-0.324 -1.66,-0.289 l -4.273,-2.328 c 0.226,-0.032 0.953,-0.09 1.656,0.289"
         id="path4769"
         inkscape:connector-curvature="0" />
    </clipPath>
    <clipPath
       clipPathUnits="userSpaceOnUse"
       id="clipPath4781">
      <path
         d="M 0,0 H 576 V 903 H 0 Z"
         id="path4779"
         inkscape:connector-curvature="0" />
    </clipPath>
    <clipPath
       clipPathUnits="userSpaceOnUse"
       id="clipPath4791">
      <path
         d="m 189.137,198.078 h 5.934 v 2.641 h -5.934 z"
         id="path4789"
         inkscape:connector-curvature="0" />
    </clipPath>
    <clipPath
       clipPathUnits="userSpaceOnUse"
       id="clipPath4801">
      <path
         d="M 0,0 H 576 V 903 H 0 Z"
         id="path4799"
         inkscape:connector-curvature="0" />
    </clipPath>
    <clipPath
       clipPathUnits="userSpaceOnUse"
       id="clipPath4817">
      <path
         d="m 189.063,198.102 h 4.348 v 2.34 h -4.348 z"
         id="path4815"
         inkscape:connector-curvature="0" />
    </clipPath>
    <clipPath
       clipPathUnits="userSpaceOnUse"
       id="clipPath4827">
      <path
         d="M 0,0 H 576 V 903 H 0 Z"
         id="path4825"
         inkscape:connector-curvature="0" />
    </clipPath>
    <clipPath
       clipPathUnits="userSpaceOnUse"
       id="clipPath4837">
      <path
         d="m 189,198 h 5 v 3 h -5 z"
         id="path4835"
         inkscape:connector-curvature="0" />
    </clipPath>
    <clipPath
       clipPathUnits="userSpaceOnUse"
       id="clipPath4843">
      <path
         d="m 193.34,200.441 -4.277,-2.328 c 0,0 0.027,-0.004 0.074,-0.011 l 4.273,2.328 c -0.047,0.008 -0.07,0.011 -0.07,0.011"
         id="path4841"
         inkscape:connector-curvature="0" />
    </clipPath>
    <clipPath
       clipPathUnits="userSpaceOnUse"
       id="clipPath4853">
      <path
         d="M 0,0 H 576 V 903 H 0 Z"
         id="path4851"
         inkscape:connector-curvature="0" />
    </clipPath>
    <clipPath
       clipPathUnits="userSpaceOnUse"
       id="clipPath4863">
      <path
         d="m 189.063,198.102 h 4.348 v 2.34 h -4.348 z"
         id="path4861"
         inkscape:connector-curvature="0" />
    </clipPath>
    <clipPath
       clipPathUnits="userSpaceOnUse"
       id="clipPath4873">
      <path
         d="M 0,0 H 576 V 903 H 0 Z"
         id="path4871"
         inkscape:connector-curvature="0" />
    </clipPath>
    <clipPath
       clipPathUnits="userSpaceOnUse"
       id="clipPath4885">
      <path
         d="m 185.762,198.113 h 7.578 v 7.156 h -7.578 z"
         id="path4883"
         inkscape:connector-curvature="0" />
    </clipPath>
    <clipPath
       clipPathUnits="userSpaceOnUse"
       id="clipPath4895">
      <path
         d="M 0,0 H 576 V 903 H 0 Z"
         id="path4893"
         inkscape:connector-curvature="0" />
    </clipPath>
    <clipPath
       clipPathUnits="userSpaceOnUse"
       id="clipPath4905">
      <path
         d="m 185,198 h 9 v 8 h -9 z"
         id="path4903"
         inkscape:connector-curvature="0" />
    </clipPath>
    <clipPath
       clipPathUnits="userSpaceOnUse"
       id="clipPath4911">
      <path
         d="m 190.039,205.27 -4.277,-2.329 c 0.008,-4.179 2.738,-4.75 3.226,-4.82 0.047,-0.004 0.075,-0.008 0.075,-0.008 l 4.277,2.328 c 0,0 -0.027,0 -0.074,0.008 -0.489,0.071 -3.219,0.641 -3.227,4.821"
         id="path4909"
         inkscape:connector-curvature="0" />
    </clipPath>
    <clipPath
       clipPathUnits="userSpaceOnUse"
       id="clipPath4921">
      <path
         d="M 0,0 H 576 V 903 H 0 Z"
         id="path4919"
         inkscape:connector-curvature="0" />
    </clipPath>
    <clipPath
       clipPathUnits="userSpaceOnUse"
       id="clipPath4931">
      <path
         d="m 185.762,198.113 h 7.578 v 7.156 h -7.578 z"
         id="path4929"
         inkscape:connector-curvature="0" />
    </clipPath>
    <clipPath
       clipPathUnits="userSpaceOnUse"
       id="clipPath4941">
      <path
         d="M 0,0 H 576 V 903 H 0 Z"
         id="path4939"
         inkscape:connector-curvature="0" />
    </clipPath>
    <clipPath
       clipPathUnits="userSpaceOnUse"
       id="clipPath4971">
      <path
         d="m 178.84,202.941 h 11.211 v 9.316 H 178.84 Z"
         id="path4969"
         inkscape:connector-curvature="0" />
    </clipPath>
    <clipPath
       clipPathUnits="userSpaceOnUse"
       id="clipPath4981">
      <path
         d="M 0,0 H 576 V 903 H 0 Z"
         id="path4979"
         inkscape:connector-curvature="0" />
    </clipPath>
    <clipPath
       clipPathUnits="userSpaceOnUse"
       id="clipPath4991">
      <path
         d="m 178,202 h 13 v 11 h -13 z"
         id="path4989"
         inkscape:connector-curvature="0" />
    </clipPath>
    <clipPath
       clipPathUnits="userSpaceOnUse"
       id="clipPath4997">
      <path
         d="m 183.813,212.258 -4.278,-2.324 c -0.461,-0.254 -0.762,-0.68 -0.683,-1.375 0.25,-2.387 6.589,-5.192 6.781,-5.301 0.191,-0.117 0.133,-0.305 0.129,-0.317 l 4.277,2.329 c 0.004,0.011 0.063,0.199 -0.129,0.312 -0.191,0.113 -6.531,2.914 -6.785,5.301 -0.074,0.699 0.227,1.125 0.688,1.375"
         id="path4995"
         inkscape:connector-curvature="0" />
    </clipPath>
    <clipPath
       clipPathUnits="userSpaceOnUse"
       id="clipPath5007">
      <path
         d="M 0,0 H 576 V 903 H 0 Z"
         id="path5005"
         inkscape:connector-curvature="0" />
    </clipPath>
    <clipPath
       clipPathUnits="userSpaceOnUse"
       id="clipPath5017">
      <path
         d="m 178.84,202.941 h 11.211 v 9.316 H 178.84 Z"
         id="path5015"
         inkscape:connector-curvature="0" />
    </clipPath>
    <clipPath
       clipPathUnits="userSpaceOnUse"
       id="clipPath5027">
      <path
         d="M 0,0 H 576 V 903 H 0 Z"
         id="path5025"
         inkscape:connector-curvature="0" />
    </clipPath>
    <clipPath
       clipPathUnits="userSpaceOnUse"
       id="clipPath4535-9">
      <path
         d="m 192.422,202.273 h 4.328 v 2.348 h -4.328 z"
         id="path4533-7"
         inkscape:connector-curvature="0" />
    </clipPath>
    <clipPath
       clipPathUnits="userSpaceOnUse"
       id="clipPath4545-8">
      <path
         d="M 0,0 H 576 V 903 H 0 Z"
         id="path4543-1"
         inkscape:connector-curvature="0" />
    </clipPath>
    <clipPath
       clipPathUnits="userSpaceOnUse"
       id="clipPath4555-7">
      <path
         d="m 192,202 h 5 v 3 h -5 z"
         id="path4553-1"
         inkscape:connector-curvature="0" />
    </clipPath>
    <clipPath
       clipPathUnits="userSpaceOnUse"
       id="clipPath4561-7">
      <path
         d="m 196.699,204.602 -4.277,-2.329 c 0.016,0.008 0.031,0.016 0.051,0.02 l 4.277,2.328 c -0.02,-0.008 -0.035,-0.016 -0.051,-0.019"
         id="path4559-2"
         inkscape:connector-curvature="0" />
    </clipPath>
    <clipPath
       clipPathUnits="userSpaceOnUse"
       id="clipPath4571-7">
      <path
         d="M 0,0 H 576 V 903 H 0 Z"
         id="path4569-2"
         inkscape:connector-curvature="0" />
    </clipPath>
    <clipPath
       clipPathUnits="userSpaceOnUse"
       id="clipPath4581-2">
      <path
         d="m 192.422,202.273 h 4.328 v 2.348 h -4.328 z"
         id="path4579-1"
         inkscape:connector-curvature="0" />
    </clipPath>
    <clipPath
       clipPathUnits="userSpaceOnUse"
       id="clipPath4591-2">
      <path
         d="M 0,0 H 576 V 903 H 0 Z"
         id="path4589-4"
         inkscape:connector-curvature="0" />
    </clipPath>
  </defs>
  <sodipodi:namedview
     id="base"
     pagecolor="#ffffff"
     bordercolor="#666666"
     borderopacity="1.0"
     inkscape:pageopacity="0.0"
     inkscape:pageshadow="2"
     inkscape:zoom="11.2"
     inkscape:cx="-9.6510746"
     inkscape:cy="6.1263647"
     inkscape:document-units="mm"
     inkscape:current-layer="layer1"
     showgrid="false"
     inkscape:window-width="1920"
     inkscape:window-height="1017"
     inkscape:window-x="-8"
     inkscape:window-y="-8"
     inkscape:window-maximized="1" />
  <metadata
     id="metadata80253">
    <rdf:RDF>
      <cc:Work
         rdf:about="">
        <dc:format>image/svg+xml</dc:format>
        <dc:type
           rdf:resource="http://purl.org/dc/dcmitype/StillImage" />
        <dc:title />
      </cc:Work>
    </rdf:RDF>
  </metadata>
  <g
     inkscape:label="Ebene 1"
     inkscape:groupmode="layer"
     id="layer1"
     transform="translate(-34.120185,-84.77011)">
    <g
       id="g4961"
       transform="matrix(-0.35081092,0,0,0.33375459,105.59657,18.73395)"
       style="display:inline;fill:#0072bc;fill-opacity:1;stroke:#000000;stroke-width:0.15489082;stroke-miterlimit:4;stroke-dasharray:none;stroke-opacity:1"
       inkscape:label="MeepleNormal_blue">
      <path
         d="m 199.617,210.691 c 0.008,0 0.106,-0.007 0.285,-0.031 0.934,-0.133 3.821,-0.699 3.61,-2.64 -0.074,-0.723 -0.742,-1.317 -1.625,-1.797 0.004,0 0.008,0.004 0.011,0.004 l -0.019,-0.008 c -0.004,-0.004 -0.004,-0.004 -0.008,-0.004 l -4.25,-2.313 c -0.098,-0.054 -0.195,-0.105 -0.297,-0.152 -0.015,-0.008 -0.031,-0.016 -0.047,-0.023 -0.187,-0.09 -0.386,-0.18 -0.589,-0.262 -0.043,-0.016 -0.083,-0.035 -0.125,-0.051 -0.188,-1.598 -0.856,-2.363 -1.54,-2.715 0.016,0.008 0.032,0.012 0.047,0.02 l -4.273,-2.324 c -0.031,-0.016 -0.063,-0.032 -0.09,-0.047 -0.102,-0.051 -0.199,-0.078 -0.305,-0.11 -0.05,-0.019 -0.105,-0.047 -0.156,-0.062 -0.012,0 -0.019,-0.004 -0.023,-0.008 -0.149,-0.039 -0.285,-0.059 -0.414,-0.07 -0.036,-0.004 -0.059,-0.004 -0.094,-0.008 -0.106,-0.008 -0.199,-0.008 -0.281,-0.008 -0.032,0 -0.055,0 -0.086,0.004 -0.086,0.004 -0.168,0.012 -0.215,0.016 -0.047,0.007 -0.074,0.015 -0.078,0.015 0,0 -0.024,0 -0.075,0.008 -0.031,0.004 -0.078,0.012 -0.128,0.02 -0.016,0.007 -0.036,0.011 -0.051,0.015 -0.043,0.008 -0.086,0.016 -0.137,0.031 -0.027,0.008 -0.051,0.016 -0.074,0.02 -0.055,0.016 -0.113,0.035 -0.172,0.055 -0.027,0.011 -0.051,0.019 -0.078,0.031 -0.074,0.027 -0.149,0.055 -0.227,0.09 -0.015,0.008 -0.027,0.015 -0.047,0.023 0,0 -0.003,0.004 -0.007,0.004 -0.145,0.07 -0.301,0.156 -0.457,0.262 -0.012,0.008 -0.024,0.012 -0.039,0.023 -0.008,0.004 -0.016,0.016 -0.024,0.02 -0.109,0.078 -0.223,0.16 -0.328,0.258 l -0.004,0.007 c 0,0 -0.004,0 -0.004,0 -0.098,0.086 -0.191,0.184 -0.285,0.289 -0.004,0 -0.004,0.004 -0.004,0.004 -0.023,0.024 -0.047,0.059 -0.066,0.086 -0.16,0.188 -0.309,0.399 -0.442,0.645 -0.004,0.004 -0.008,0.008 -0.008,0.012 -0.007,0.015 -0.011,0.031 -0.019,0.046 -0.078,0.149 -0.152,0.313 -0.219,0.489 -0.008,0.023 -0.019,0.039 -0.027,0.066 -0.024,0.051 -0.035,0.113 -0.055,0.172 -0.023,0.078 -0.051,0.156 -0.074,0.238 -0.027,0.102 -0.051,0.211 -0.074,0.317 -0.02,0.082 -0.039,0.164 -0.051,0.25 -0.024,0.129 -0.039,0.265 -0.059,0.406 -0.007,0.078 -0.019,0.148 -0.023,0.23 -0.024,0.223 -0.031,0.461 -0.035,0.711 0.004,0 0.008,0.02 0.008,0.043 0,0.008 0,0.016 0,0.024 0,0.023 -0.004,0.047 -0.008,0.07 -0.008,0.027 -0.012,0.051 -0.032,0.078 -0.019,0.035 -0.054,0.067 -0.101,0.094 -0.016,0.008 -0.063,0.035 -0.125,0.066 -0.074,0.032 -0.172,0.082 -0.293,0.141 -0.016,0.004 -0.031,0.012 -0.047,0.023 -0.105,0.051 -0.226,0.106 -0.359,0.172 -0.039,0.02 -0.078,0.039 -0.117,0.059 -0.129,0.066 -0.266,0.137 -0.415,0.211 -0.046,0.023 -0.089,0.047 -0.136,0.074 -0.172,0.09 -0.356,0.184 -0.543,0.289 -0.028,0.012 -0.047,0.024 -0.074,0.039 -0.219,0.117 -0.446,0.246 -0.676,0.379 -0.028,0.016 -0.051,0.031 -0.078,0.047 -0.196,0.113 -0.391,0.234 -0.59,0.355 -0.071,0.047 -0.137,0.09 -0.203,0.133 -0.16,0.098 -0.313,0.203 -0.465,0.305 -0.039,0.027 -0.078,0.051 -0.117,0.078 -0.043,0.031 -0.086,0.063 -0.129,0.094 -0.129,0.09 -0.25,0.179 -0.375,0.269 -0.082,0.063 -0.164,0.12501 -0.242,0.18801 -0.118,0.094 -0.227,0.18699 -0.336,0.28099 -0.051,0.043 -0.106,0.086 -0.157,0.129 -0.019,0.019 -0.039,0.039 -0.058,0.059 -0.156,0.144 -0.297,0.285 -0.43,0.429 -0.023,0.024 -0.055,0.051 -0.074,0.074 -0.008,0.008 -0.008,0.012 -0.016,0.02 -0.039,0.043 -0.07,0.09 -0.109,0.133 -0.067,0.082 -0.133,0.16 -0.192,0.242 -0.011,0.02 -0.023,0.039 -0.039,0.062 -0.023,0.036 -0.046,0.075 -0.066,0.11 -0.031,0.051 -0.066,0.101 -0.094,0.148 -0.031,0.063 -0.054,0.125 -0.082,0.184 -0.012,0.027 -0.027,0.055 -0.039,0.082 -0.004,0.012 -0.012,0.023 -0.015,0.035 -0.047,0.133 -0.083,0.262 -0.094,0.395 -0.074,0.695 0.226,1.121 0.687,1.371 l 3.414,1.859 c -0.039,0.074 -0.07,0.145 -0.113,0.227 -0.082,0.156 -0.164,0.324 -0.258,0.504 l -0.136,0.277 c -0.11,0.215 -0.223,0.449 -0.34,0.695 -0.028,0.047 -0.047,0.09 -0.071,0.141 -0.14,0.289 -0.277,0.59 -0.422,0.902 -0.042,0.094 -0.082,0.184 -0.125,0.278 -0.105,0.238 -0.21,0.484 -0.316,0.734 -0.051,0.113 -0.094,0.223 -0.141,0.336 -0.117,0.285 -0.23,0.574 -0.343,0.867 -0.028,0.074 -0.055,0.141 -0.082,0.215 -0.008,0.019 -0.016,0.039 -0.02,0.055 -0.086,0.23 -0.16,0.46 -0.238,0.691 -0.051,0.156 -0.11,0.309 -0.16,0.465 -0.125,0.406 -0.246,0.812 -0.348,1.219 -0.019,0.058 -0.309,1.011 0.043,1.203 l 4.273,2.324 c -0.046,-0.024 -0.078,-0.063 -0.105,-0.11301 0.055,0.105 0.152,0.16401 0.312,0.144 l 5.614,-0.789 c 0.07,-0.012 0.789,-0.13699 1.277,-1.13299 0.039,-0.078 0.551,-1.066 1,-1.965 l 3.707,2.02 c 0,0 0,-0.004 -0.004,-0.004 0.332,0.184 0.629,0.152 0.68,0.145 l 5.609,-0.789 c 0.6529,-0.094 0.2659,-1.23503 0.2459,-1.29703 -0.82,-3.102 -2.632,-5.942 -3.308,-7.114 -0.68,-1.179 0.383,-1.328 0.441,-1.336"
         style="fill:none;fill-opacity:1;fill-rule:nonzero;stroke:#000000;stroke-width:0.44713762;stroke-miterlimit:4;stroke-dasharray:none;stroke-opacity:1"
         id="path4225"
         inkscape:connector-curvature="0" />
      <path
         d="m 199.617,210.691 c 0.008,0 0.106,-0.007 0.285,-0.031 0.934,-0.133 3.821,-0.699 3.61,-2.64 -0.074,-0.723 -0.742,-1.317 -1.625,-1.797 0.004,0 0.008,0.004 0.011,0.004 l -0.019,-0.008 c -0.004,-0.004 -0.004,-0.004 -0.008,-0.004 l -4.25,-2.313 c -0.098,-0.054 -0.195,-0.105 -0.297,-0.152 -0.015,-0.008 -0.031,-0.016 -0.047,-0.023 -0.187,-0.09 -0.386,-0.18 -0.589,-0.262 -0.043,-0.016 -0.083,-0.035 -0.125,-0.051 -0.188,-1.598 -0.856,-2.363 -1.54,-2.715 0.016,0.008 0.032,0.012 0.047,0.02 l -4.273,-2.324 c -0.031,-0.016 -0.063,-0.032 -0.09,-0.047 -0.102,-0.051 -0.199,-0.078 -0.305,-0.11 -0.05,-0.019 -0.105,-0.047 -0.156,-0.062 -0.012,0 -0.019,-0.004 -0.023,-0.008 -0.149,-0.039 -0.285,-0.059 -0.414,-0.07 -0.036,-0.004 -0.059,-0.004 -0.094,-0.008 -0.106,-0.008 -0.199,-0.008 -0.281,-0.008 -0.032,0 -0.055,0 -0.086,0.004 -0.086,0.004 -0.168,0.012 -0.215,0.016 -0.047,0.007 -0.074,0.015 -0.078,0.015 0,0 -0.024,0 -0.075,0.008 -0.031,0.004 -0.078,0.012 -0.128,0.02 -0.016,0.007 -0.036,0.011 -0.051,0.015 -0.043,0.008 -0.086,0.016 -0.137,0.031 -0.027,0.008 -0.051,0.016 -0.074,0.02 -0.055,0.016 -0.113,0.035 -0.172,0.055 -0.027,0.011 -0.051,0.019 -0.078,0.031 -0.074,0.027 -0.149,0.055 -0.227,0.09 -0.015,0.008 -0.027,0.015 -0.047,0.023 0,0 -0.003,0.004 -0.007,0.004 -0.145,0.07 -0.301,0.156 -0.457,0.262 -0.012,0.008 -0.024,0.012 -0.039,0.023 -0.008,0.004 -0.016,0.016 -0.024,0.02 -0.109,0.078 -0.223,0.16 -0.328,0.258 l -0.004,0.007 c 0,0 -0.004,0 -0.004,0 -0.098,0.086 -0.191,0.184 -0.285,0.289 -0.004,0 -0.004,0.004 -0.004,0.004 -0.023,0.024 -0.047,0.059 -0.066,0.086 -0.16,0.188 -0.309,0.399 -0.442,0.645 -0.004,0.004 -0.008,0.008 -0.008,0.012 -0.007,0.015 -0.011,0.031 -0.019,0.046 -0.078,0.149 -0.152,0.313 -0.219,0.489 -0.008,0.023 -0.019,0.039 -0.027,0.066 -0.024,0.051 -0.035,0.113 -0.055,0.172 -0.023,0.078 -0.051,0.156 -0.074,0.238 -0.027,0.102 -0.051,0.211 -0.074,0.317 -0.02,0.082 -0.039,0.164 -0.051,0.25 -0.024,0.129 -0.039,0.265 -0.059,0.406 -0.007,0.078 -0.019,0.148 -0.023,0.23 -0.024,0.223 -0.031,0.461 -0.035,0.711 0.004,0 0.008,0.02 0.008,0.043 0,0.008 0,0.016 0,0.024 0,0.023 -0.004,0.047 -0.008,0.07 -0.008,0.027 -0.012,0.051 -0.032,0.078 -0.019,0.035 -0.054,0.067 -0.101,0.094 -0.016,0.008 -0.063,0.035 -0.125,0.066 -0.074,0.032 -0.172,0.082 -0.293,0.141 -0.016,0.004 -0.031,0.012 -0.047,0.023 -0.105,0.051 -0.226,0.106 -0.359,0.172 -0.039,0.02 -0.078,0.039 -0.117,0.059 -0.129,0.066 -0.266,0.137 -0.415,0.211 -0.046,0.023 -0.089,0.047 -0.136,0.074 -0.172,0.09 -0.356,0.184 -0.543,0.289 -0.028,0.012 -0.047,0.024 -0.074,0.039 -0.219,0.117 -0.446,0.246 -0.676,0.379 -0.028,0.016 -0.051,0.031 -0.078,0.047 -0.196,0.113 -0.391,0.234 -0.59,0.355 -0.071,0.047 -0.137,0.09 -0.203,0.133 -0.16,0.098 -0.313,0.203 -0.465,0.305 -0.039,0.027 -0.078,0.051 -0.117,0.078 -0.043,0.031 -0.086,0.063 -0.129,0.094 -0.129,0.09 -0.25,0.179 -0.375,0.269 -0.082,0.063 -0.164,0.12501 -0.242,0.18801 -0.118,0.094 -0.227,0.18699 -0.336,0.28099 -0.051,0.043 -0.106,0.086 -0.157,0.129 -0.019,0.019 -0.039,0.039 -0.058,0.059 -0.156,0.144 -0.297,0.285 -0.43,0.429 -0.023,0.024 -0.055,0.051 -0.074,0.074 -0.008,0.008 -0.008,0.012 -0.016,0.02 -0.039,0.043 -0.07,0.09 -0.109,0.133 -0.067,0.082 -0.133,0.16 -0.192,0.242 -0.011,0.02 -0.023,0.039 -0.039,0.062 -0.023,0.036 -0.046,0.075 -0.066,0.11 -0.031,0.051 -0.066,0.101 -0.094,0.148 -0.031,0.063 -0.054,0.125 -0.082,0.184 -0.012,0.027 -0.027,0.055 -0.039,0.082 -0.004,0.012 -0.012,0.023 -0.015,0.035 -0.047,0.133 -0.083,0.262 -0.094,0.395 -0.074,0.695 0.226,1.121 0.687,1.371 l 3.414,1.859 c -0.039,0.074 -0.07,0.145 -0.113,0.227 -0.082,0.156 -0.164,0.324 -0.258,0.504 l -0.136,0.277 c -0.11,0.215 -0.223,0.449 -0.34,0.695 -0.028,0.047 -0.047,0.09 -0.071,0.141 -0.14,0.289 -0.277,0.59 -0.422,0.902 -0.042,0.094 -0.082,0.184 -0.125,0.278 -0.105,0.238 -0.21,0.484 -0.316,0.734 -0.051,0.113 -0.094,0.223 -0.141,0.336 -0.117,0.285 -0.23,0.574 -0.343,0.867 -0.028,0.074 -0.055,0.141 -0.082,0.215 -0.008,0.019 -0.016,0.039 -0.02,0.055 -0.086,0.23 -0.16,0.46 -0.238,0.691 -0.051,0.156 -0.11,0.309 -0.16,0.465 -0.125,0.406 -0.246,0.812 -0.348,1.219 -0.019,0.058 -0.309,1.01099 0.043,1.20299 l 4.273,2.32401 c -0.046,-0.024 -0.078,-0.063 -0.105,-0.11301 0.055,0.105 0.152,0.16401 0.312,0.144 l 5.614,-0.789 c 0.07,-0.012 0.789,-0.13699 1.277,-1.13299 0.039,-0.078 0.551,-1.066 1,-1.965 l 3.707,2.02 c 0,0 0,-0.004 -0.004,-0.004 0.332,0.184 0.629,0.152 0.68,0.145 l 5.609,-0.789 c 0.6528,-0.094 0.2658,-1.23506 0.2458,-1.29706 -0.82,-3.102 -2.632,-5.942 -3.308,-7.114 -0.68,-1.179 0.383,-1.328 0.441,-1.336"
         style="display:inline;fill:#004978;fill-opacity:1;fill-rule:nonzero;stroke:none;stroke-width:0.44713765;stroke-miterlimit:4;stroke-dasharray:none;stroke-opacity:1"
         id="path4225-7"
         inkscape:connector-curvature="0" />
      <path
         inkscape:connector-curvature="0"
         id="path4963"
         style="fill:#0072bc;fill-opacity:1;fill-rule:nonzero;stroke:#000000;stroke-width:0.15489082;stroke-miterlimit:4;stroke-dasharray:none;stroke-opacity:1"
         d="m 193.406,200.43 c 0.488,-0.071 3.215,-0.266 3.203,3.918 -0.004,0.007 -0.062,0.215 0.137,0.273 0.184,0.059 6.516,1.078 6.77,3.399 0.203,1.941 -2.68,2.507 -3.614,2.636 -0.179,0.028 -0.277,0.035 -0.285,0.035 -0.055,0.008 -1.129,0.161 -0.449,1.336 0.683,1.172 2.488,4.012 3.308,7.114 0.02,0.058 0.407,1.207 -0.242,1.297 l -5.605,0.789 c -0.078,0.011 -0.797,0.086 -1.281,-0.774 -0.059,-0.098 -1.207,-2.008 -1.567,-2.711 -0.07,-0.125 -0.148,-0.324 -0.476,-0.301 -0.336,0.071 -0.418,0.289 -0.493,0.438 -0.359,0.805 -1.507,3.035 -1.566,3.152 -0.488,0.996 -1.215,1.121 -1.285,1.129 l -5.613,0.789 c -0.649,0.094 -0.258,-1.16 -0.239,-1.226 0.84,-3.332 2.649,-6.684 3.34,-8.051 0.684,-1.367 -0.383,-1.219 -0.437,-1.211 -0.004,0.004 -0.11,0.023 -0.289,0.047 -0.93,0.133 -3.821,0.379 -3.602,-1.625 0.254,-2.387 6.594,-5.188 6.785,-5.301 0.192,-0.113 0.133,-0.301 0.129,-0.312 0.008,-4.184 2.738,-4.75 3.227,-4.821 0.047,-0.004 0.074,-0.008 0.074,-0.008 0,0 0.023,-0.003 0.07,-0.011" />
    </g>
  </g>
</svg>
