<?xml version="1.0" encoding="UTF-8" standalone="no"?>
<!-- Created with Inkscape (http://www.inkscape.org/) -->

<svg
   xmlns:dc="http://purl.org/dc/elements/1.1/"
   xmlns:cc="http://creativecommons.org/ns#"
   xmlns:rdf="http://www.w3.org/1999/02/22-rdf-syntax-ns#"
   xmlns:svg="http://www.w3.org/2000/svg"
   xmlns="http://www.w3.org/2000/svg"
   xmlns:sodipodi="http://sodipodi.sourceforge.net/DTD/sodipodi-0.dtd"
   xmlns:inkscape="http://www.inkscape.org/namespaces/inkscape"
   width="7.6263614mm"
   height="9.4238873mm"
   viewBox="0 0 7.6263614 9.4238872"
   version="1.1"
   id="svg37247"
   inkscape:version="0.92.3 (2405546, 2018-03-11)"
   sodipodi:docname="Ringmaster_red_f.svg">
  <defs
     id="defs37241">
    <clipPath
       clipPathUnits="userSpaceOnUse"
       id="clipPath42957">
      <path
         d="m 945.748,234.306 h 16.022 v 20.5 h -16.022 z"
         id="path42955"
         inkscape:connector-curvature="0" />
    </clipPath>
    <clipPath
       clipPathUnits="userSpaceOnUse"
       id="clipPath32813">
      <path
         d="m 945.748,234.306 h 16.022 v 20.5 h -16.022 z"
         id="path32811"
         inkscape:connector-curvature="0" />
    </clipPath>
    <clipPath
       clipPathUnits="userSpaceOnUse"
       id="clipPath32821">
      <path
         d="m 945.949,254.604 h 15.612 v -20.111 h -15.612 z"
         id="path32819"
         inkscape:connector-curvature="0" />
    </clipPath>
    <clipPath
       clipPathUnits="userSpaceOnUse"
       id="clipPath32825">
      <path
         d="m 945.949,234.493 h 15.611 v 20.111 h -15.611 z"
         id="path32823"
         inkscape:connector-curvature="0" />
    </clipPath>
    <clipPath
       clipPathUnits="userSpaceOnUse"
       id="clipPath32829">
      <path
         d="m 954.572,237.538 h 0.064 v -0.261 h -0.064 z"
         id="path32827"
         inkscape:connector-curvature="0" />
    </clipPath>
    <clipPath
       clipPathUnits="userSpaceOnUse"
       id="clipPath32833">
      <path
         d="m 954.572,237.536 c 0.045,-0.086 0.065,-0.175 0.064,-0.259 v 0 0.014 c -10e-4,0.114 -0.04,0.203 -0.059,0.246 v 0 c 0,0 -0.002,0 -0.005,0.001 v 0 z"
         id="path32831"
         inkscape:connector-curvature="0" />
    </clipPath>
    <clipPath
       clipPathUnits="userSpaceOnUse"
       id="clipPath32837">
      <path
         d="m 954.572,237.538 h 0.064 v -0.261 h -0.064 z"
         id="path32835"
         inkscape:connector-curvature="0" />
    </clipPath>
    <clipPath
       clipPathUnits="userSpaceOnUse"
       id="clipPath32841">
      <path
         d="m 954.572,237.277 h 0.064 v 0.261 h -0.064 z"
         id="path32839"
         inkscape:connector-curvature="0" />
    </clipPath>
    <clipPath
       clipPathUnits="userSpaceOnUse"
       id="clipPath32845">
      <path
         d="m 954.438,238.669 h 0.875 v -1.724 h -0.875 z"
         id="path32843"
         inkscape:connector-curvature="0" />
    </clipPath>
    <clipPath
       clipPathUnits="userSpaceOnUse"
       id="clipPath32849">
      <path
         d="m 955.312,238.668 c -0.023,-0.052 -0.073,-0.099 -0.147,-0.132 v 0 l -0.727,-1.591 c 0.074,0.033 0.129,0.091 0.162,0.163 v 0 c 0.238,0.52 0.475,1.04 0.712,1.56 z"
         id="path32847"
         inkscape:connector-curvature="0" />
    </clipPath>
    <clipPath
       clipPathUnits="userSpaceOnUse"
       id="clipPath32853">
      <path
         d="m 954.438,238.669 h 0.875 v -1.724 h -0.875 z"
         id="path32851"
         inkscape:connector-curvature="0" />
    </clipPath>
    <clipPath
       clipPathUnits="userSpaceOnUse"
       id="clipPath32857">
      <path
         d="m 954.438,236.945 h 0.874 v 1.724 h -0.874 z"
         id="path32855"
         inkscape:connector-curvature="0" />
    </clipPath>
    <clipPath
       clipPathUnits="userSpaceOnUse"
       id="clipPath32861">
      <path
         d="m 957.167,237.1 h 0.173 v -0.223 h -0.173 z"
         id="path32859"
         inkscape:connector-curvature="0" />
    </clipPath>
    <clipPath
       clipPathUnits="userSpaceOnUse"
       id="clipPath32865">
      <path
         d="m 957.334,237.1 c -0.05,-0.093 -0.112,-0.163 -0.167,-0.223 v 0 c 0.069,0.073 0.13,0.15 0.173,0.223 v 0 c -0.004,0 -0.006,0 -0.006,0 z"
         id="path32863"
         inkscape:connector-curvature="0" />
    </clipPath>
    <clipPath
       clipPathUnits="userSpaceOnUse"
       id="clipPath32869">
      <path
         d="m 957.167,237.1 h 0.173 v -0.223 h -0.173 z"
         id="path32867"
         inkscape:connector-curvature="0" />
    </clipPath>
    <clipPath
       clipPathUnits="userSpaceOnUse"
       id="clipPath32873">
      <path
         d="m 957.167,236.877 h 0.172 v 0.223 h -0.172 z"
         id="path32871"
         inkscape:connector-curvature="0" />
    </clipPath>
    <clipPath
       clipPathUnits="userSpaceOnUse"
       id="clipPath32877">
      <path
         d="m 955.165,238.763 h 0.236 v -0.227 h -0.236 z"
         id="path32875"
         inkscape:connector-curvature="0" />
    </clipPath>
    <clipPath
       clipPathUnits="userSpaceOnUse"
       id="clipPath32881">
      <path
         d="m 955.165,238.536 c 0.065,0.03 0.112,0.069 0.139,0.115 v 0 c 0.024,0.043 0.071,0.097 0.097,0.112 v 0 c -0.143,-0.063 -0.23,-0.216 -0.236,-0.227"
         id="path32879"
         inkscape:connector-curvature="0" />
    </clipPath>
    <clipPath
       clipPathUnits="userSpaceOnUse"
       id="clipPath32885">
      <path
         d="m 955.165,238.763 h 0.236 v -0.227 h -0.236 z"
         id="path32883"
         inkscape:connector-curvature="0" />
    </clipPath>
    <clipPath
       clipPathUnits="userSpaceOnUse"
       id="clipPath32889">
      <path
         d="m 955.165,238.536 h 0.237 v 0.227 h -0.237 z"
         id="path32887"
         inkscape:connector-curvature="0" />
    </clipPath>
    <clipPath
       clipPathUnits="userSpaceOnUse"
       id="clipPath32893">
      <path
         d="m 952.015,244.515 h 1.423 v -0.597 h -1.423 z"
         id="path32891"
         inkscape:connector-curvature="0" />
    </clipPath>
    <clipPath
       clipPathUnits="userSpaceOnUse"
       id="clipPath32897">
      <path
         d="m 952.616,244.178 c 0.436,0.185 0.761,0.312 0.806,0.329 v 0 c 0.006,0.003 0.011,0.005 0.016,0.008 v 0 c -0.302,-0.119 -0.584,-0.236 -0.822,-0.337 m -0.6,-0.26 c 0.123,0.055 0.334,0.148 0.6,0.26 v 0 c -0.184,-0.077 -0.389,-0.166 -0.6,-0.26"
         id="path32895"
         inkscape:connector-curvature="0" />
    </clipPath>
    <clipPath
       clipPathUnits="userSpaceOnUse"
       id="clipPath32901">
      <path
         d="m 952.015,244.515 h 1.423 v -0.597 h -1.423 z"
         id="path32899"
         inkscape:connector-curvature="0" />
    </clipPath>
    <clipPath
       clipPathUnits="userSpaceOnUse"
       id="clipPath32905">
      <path
         d="m 952.015,243.918 h 1.423 v 0.597 h -1.423 z"
         id="path32903"
         inkscape:connector-curvature="0" />
    </clipPath>
    <clipPath
       clipPathUnits="userSpaceOnUse"
       id="clipPath32909">
      <path
         d="m 951.579,249.494 h 1.576 v -0.552 h -1.576 z"
         id="path32907"
         inkscape:connector-curvature="0" />
    </clipPath>
    <clipPath
       clipPathUnits="userSpaceOnUse"
       id="clipPath32913">
      <path
         d="m 952.098,249.15 c 0.488,0.179 0.955,0.312 1.006,0.326 v 0 c 0.016,0.007 0.033,0.013 0.051,0.018 v 0 c -0.441,-0.126 -0.793,-0.246 -1.057,-0.344 m -0.519,-0.207 c 0.086,0.037 0.26,0.111 0.519,0.207 v 0 c -0.176,-0.064 -0.356,-0.134 -0.519,-0.207"
         id="path32911"
         inkscape:connector-curvature="0" />
    </clipPath>
    <clipPath
       clipPathUnits="userSpaceOnUse"
       id="clipPath32917">
      <path
         d="m 951.579,249.494 h 1.576 v -0.552 h -1.576 z"
         id="path32915"
         inkscape:connector-curvature="0" />
    </clipPath>
    <clipPath
       clipPathUnits="userSpaceOnUse"
       id="clipPath32921">
      <path
         d="m 951.579,248.942 h 1.576 v 0.552 h -1.576 z"
         id="path32919"
         inkscape:connector-curvature="0" />
    </clipPath>
    <clipPath
       clipPathUnits="userSpaceOnUse"
       id="clipPath32925">
      <path
         d="m 953.159,254.371 h 0.003 v -0.006 h -0.003 z"
         id="path32923"
         inkscape:connector-curvature="0" />
    </clipPath>
    <clipPath
       clipPathUnits="userSpaceOnUse"
       id="clipPath32929">
      <path
         d="m 953.159,254.372 c 0,-0.001 0,-0.002 10e-4,-0.003 v 0 c -10e-4,0.002 0,0.002 0.002,0 v 0 c -0.001,0.001 -0.002,0.002 -0.003,0.003 z m 0.002,-0.007 -10e-4,0.003 c 0,0 0,0.001 0,0.001 v 0 c 0,-0.001 0,-0.002 10e-4,-0.004"
         id="path32927"
         inkscape:connector-curvature="0" />
    </clipPath>
    <clipPath
       clipPathUnits="userSpaceOnUse"
       id="clipPath32933">
      <path
         d="m 953.159,254.371 h 0.003 v -0.006 h -0.003 z"
         id="path32931"
         inkscape:connector-curvature="0" />
    </clipPath>
    <clipPath
       clipPathUnits="userSpaceOnUse"
       id="clipPath32937">
      <path
         d="m 953.159,254.365 h 0.003 v 0.007 h -0.003 z"
         id="path32935"
         inkscape:connector-curvature="0" />
    </clipPath>
    <clipPath
       clipPathUnits="userSpaceOnUse"
       id="clipPath32941">
      <path
         d="m 958.452,240.439 h 1.737 v -4.288 h -1.737 z"
         id="path32939"
         inkscape:connector-curvature="0" />
    </clipPath>
    <clipPath
       clipPathUnits="userSpaceOnUse"
       id="clipPath32945">
      <path
         d="m 958.659,240.438 c 0,0.001 10e-4,0.001 10e-4,0.001 v 0 c 0,0 -10e-4,0 -10e-4,-0.001 m -0.004,-0.002 c -0.157,-0.07 -0.318,-0.266 -0.087,-0.817 v 0 c 0.362,-0.869 1.282,-2.64 1.331,-2.734 v 0 c 0.017,-0.034 0.287,-0.572 -0.007,-0.726 v 0 c 0.147,0.074 0.217,0.159 0.249,0.219 v 0 c 0.062,0.115 0.056,0.208 0.028,0.32 v 0 c -0.004,0.016 -0.026,0.098 -0.09,0.223 v 0 c -0.045,0.089 -0.091,0.178 -0.137,0.266 v 0 c -0.092,0.179 -0.283,0.551 -0.512,1.014 v 0 c -0.323,0.651 -0.486,1.009 -0.504,1.048 v 0 c -0.022,0.047 -0.05,0.111 -0.072,0.159 v 0 c -0.042,0.085 -0.091,0.2 -0.126,0.287 v 0 c -0.178,0.452 -0.124,0.683 -0.069,0.743 v 0 c -10e-4,-10e-4 -0.003,-10e-4 -0.004,-0.002 m 1.221,-4.284 c 0.005,0.002 0.011,0.005 0.016,0.007 v 0 c -0.005,-0.002 -0.011,-0.005 -0.016,-0.007"
         id="path32943"
         inkscape:connector-curvature="0" />
    </clipPath>
    <clipPath
       clipPathUnits="userSpaceOnUse"
       id="clipPath32949">
      <path
         d="m 958.452,240.439 h 1.737 v -4.288 h -1.737 z"
         id="path32947"
         inkscape:connector-curvature="0" />
    </clipPath>
    <clipPath
       clipPathUnits="userSpaceOnUse"
       id="clipPath32953">
      <path
         d="m 958.452,236.151 h 1.737 v 4.288 h -1.737 z"
         id="path32951"
         inkscape:connector-curvature="0" />
    </clipPath>
    <clipPath
       clipPathUnits="userSpaceOnUse"
       id="clipPath32957">
      <path
         d="m 957.437,246.966 h 0.953 v -3.131 h -0.953 z"
         id="path32955"
         inkscape:connector-curvature="0" />
    </clipPath>
    <clipPath
       clipPathUnits="userSpaceOnUse"
       id="clipPath32961">
      <path
         d="m 958.389,246.966 c -10e-4,-0.1 -0.051,-0.182 -0.15,-0.226 v 0 c -0.014,-1.168 -0.214,-1.25 -0.592,-1.55 v 0 c -0.155,-0.123 -0.209,-0.306 -0.21,-0.498 v 0 -0.002 c -10e-4,-0.393 0.217,-0.822 0.234,-0.855 v 0 c 0.107,0.048 0.171,0.055 0.186,0.028 v 0 c -0.043,0.084 -0.071,0.147 -0.073,0.154 v 0 c -0.108,0.25 -0.143,0.406 -0.162,0.49 v 0 c -0.07,0.311 -0.036,0.599 0.087,0.716 v 0 c 0.021,0.021 0.046,0.038 0.069,0.057 v 0 c 0.103,0.08 0.209,0.163 0.284,0.248 v 0 c 0.079,0.092 0.133,0.171 0.193,0.325 v 0 c 0.116,0.296 0.128,0.807 0.134,1.113 z"
         id="path32959"
         inkscape:connector-curvature="0" />
    </clipPath>
    <clipPath
       clipPathUnits="userSpaceOnUse"
       id="clipPath32965">
      <path
         d="m 957.437,246.966 h 0.953 v -3.131 h -0.953 z"
         id="path32963"
         inkscape:connector-curvature="0" />
    </clipPath>
    <clipPath
       clipPathUnits="userSpaceOnUse"
       id="clipPath32969">
      <path
         d="m 957.437,243.835 h 0.952 v 3.131 h -0.952 z"
         id="path32967"
         inkscape:connector-curvature="0" />
    </clipPath>
    <clipPath
       clipPathUnits="userSpaceOnUse"
       id="clipPath32973">
      <path
         d="m 957.671,243.879 h 3.89 v -3.685 h -3.89 z"
         id="path32971"
         inkscape:connector-curvature="0" />
    </clipPath>
    <clipPath
       clipPathUnits="userSpaceOnUse"
       id="clipPath32977">
      <path
         d="m 957.81,243.878 c -0.032,-0.002 -0.078,-0.016 -0.139,-0.043 v 0 c 0.139,-0.098 2.767,-1.955 3.45,-2.785 v 0 c 0.424,-0.514 0.289,-0.75 0.089,-0.848 v 0 c 0.057,0.027 0.17,0.086 0.259,0.194 v 0 c 0.092,0.112 0.092,0.202 0.092,0.245 v 0 c -0.001,0.168 -0.215,0.403 -0.371,0.576 v 0 c -0.435,0.479 -1.778,1.545 -3.342,2.654 v 0 c -0.005,0.004 -0.012,0.007 -0.021,0.007 v 0 z m 3.382,-3.684 c 0.006,0.002 0.012,0.005 0.018,0.008 v 0 c -0.007,-0.003 -0.013,-0.006 -0.018,-0.008"
         id="path32975"
         inkscape:connector-curvature="0" />
    </clipPath>
    <clipPath
       clipPathUnits="userSpaceOnUse"
       id="clipPath32981">
      <path
         d="m 957.671,243.879 h 3.889 v -3.685 h -3.889 z"
         id="path32979"
         inkscape:connector-curvature="0" />
    </clipPath>
    <clipPath
       clipPathUnits="userSpaceOnUse"
       id="clipPath32985">
      <path
         d="m 957.671,240.194 h 3.889 v 3.685 h -3.889 z"
         id="path32983"
         inkscape:connector-curvature="0" />
    </clipPath>
    <clipPath
       clipPathUnits="userSpaceOnUse"
       id="clipPath32989">
      <path
         d="m 958.567,253.522 h 0.011 v -0.014 h -0.011 z"
         id="path32987"
         inkscape:connector-curvature="0" />
    </clipPath>
    <clipPath
       clipPathUnits="userSpaceOnUse"
       id="clipPath32993">
      <path
         d="m 958.578,253.522 c -0.003,-0.003 -0.008,-0.006 -0.011,-0.008 v 0 c 0.005,0.003 0.006,0.002 0.002,-0.006 v 0 c 0.003,0.005 0.006,0.01 0.009,0.014 z"
         id="path32991"
         inkscape:connector-curvature="0" />
    </clipPath>
    <clipPath
       clipPathUnits="userSpaceOnUse"
       id="clipPath32997">
      <path
         d="m 958.567,253.522 h 0.011 v -0.014 h -0.011 z"
         id="path32995"
         inkscape:connector-curvature="0" />
    </clipPath>
    <clipPath
       clipPathUnits="userSpaceOnUse"
       id="clipPath33001">
      <path
         d="m 958.567,253.508 h 0.011 v 0.014 h -0.011 z"
         id="path32999"
         inkscape:connector-curvature="0" />
    </clipPath>
    <clipPath
       clipPathUnits="userSpaceOnUse"
       id="clipPath33005">
      <path
         d="m 957.953,253.223 h 0.651 v -4.515 h -0.651 z"
         id="path33003"
         inkscape:connector-curvature="0" />
    </clipPath>
    <clipPath
       clipPathUnits="userSpaceOnUse"
       id="clipPath33009">
      <path
         d="m 958.604,253.223 c -0.008,-0.067 -0.061,-0.13 -0.157,-0.173 v 0 l -0.494,-4.342 c 0.094,0.042 0.14,0.061 0.14,0.057 v 0 c 0.169,1.486 0.339,2.972 0.511,4.458 z"
         id="path33007"
         inkscape:connector-curvature="0" />
    </clipPath>
    <clipPath
       clipPathUnits="userSpaceOnUse"
       id="clipPath33013">
      <path
         d="m 957.953,253.223 h 0.651 v -4.515 h -0.651 z"
         id="path33011"
         inkscape:connector-curvature="0" />
    </clipPath>
    <clipPath
       clipPathUnits="userSpaceOnUse"
       id="clipPath33017">
      <path
         d="m 957.953,248.708 h 0.651 v 4.515 h -0.651 z"
         id="path33015"
         inkscape:connector-curvature="0" />
    </clipPath>
    <clipPath
       clipPathUnits="userSpaceOnUse"
       id="clipPath33021">
      <path
         d="m 957.953,248.766 h 2.334 v -1.923 h -2.334 z"
         id="path33019"
         inkscape:connector-curvature="0" />
    </clipPath>
    <clipPath
       clipPathUnits="userSpaceOnUse"
       id="clipPath33025">
      <path
         d="m 958.092,248.765 c -0.01,-10e-4 -0.056,-0.02 -0.139,-0.057 v 0 c 0.109,-0.068 2.182,-1.359 2.184,-1.709 v 0 c 0,-0.064 -0.043,-0.113 -0.118,-0.149 v 0 c 0.151,0.071 0.219,0.151 0.249,0.206 v 0 c 0.05,0.093 -0.014,0.158 -0.044,0.188 v 0 c -0.116,0.117 -0.264,0.252 -0.809,0.641 v 0 c -0.326,0.232 -0.882,0.603 -1.322,0.88 v 0 z m 1.927,-1.915 c 0,0 0,0 0,0 v 0 c 0,0 0,0 0,0 m 0,0 c 0,0 0,0 0,0 v 0 c 0,0 0,0 0,0 m -0.015,-0.007 c 0.005,0.002 0.01,0.004 0.015,0.007 v 0 c -0.005,-0.002 -0.01,-0.005 -0.015,-0.007"
         id="path33023"
         inkscape:connector-curvature="0" />
    </clipPath>
    <clipPath
       clipPathUnits="userSpaceOnUse"
       id="clipPath33029">
      <path
         d="m 957.953,248.766 h 2.333 v -1.923 h -2.333 z"
         id="path33027"
         inkscape:connector-curvature="0" />
    </clipPath>
    <clipPath
       clipPathUnits="userSpaceOnUse"
       id="clipPath33033">
      <path
         d="m 957.953,246.843 h 2.333 v 1.923 h -2.333 z"
         id="path33031"
         inkscape:connector-curvature="0" />
    </clipPath>
    <clipPath
       clipPathUnits="userSpaceOnUse"
       id="clipPath33037">
      <path
         d="m 945.949,234.493 h 15.611 v 20.111 h -15.611 z"
         id="path33035"
         inkscape:connector-curvature="0" />
    </clipPath>
    <clipPath
       clipPathUnits="userSpaceOnUse"
       id="clipPath33041">
      <path
         d="m 951.59,238.763 h 3.811 v -1.82 h -3.811 z"
         id="path33039"
         inkscape:connector-curvature="0" />
    </clipPath>
    <clipPath
       clipPathUnits="userSpaceOnUse"
       id="clipPath33045">
      <path
         d="m 951.827,237.171 c -0.143,-0.064 -0.231,-0.217 -0.236,-0.228 v 0 l 3.574,1.593 c 0.006,0.011 0.093,0.164 0.236,0.227 v 0 z"
         id="path33043"
         inkscape:connector-curvature="0" />
    </clipPath>
    <clipPath
       clipPathUnits="userSpaceOnUse"
       id="clipPath33049">
      <path
         d="m 951.59,238.763 h 3.811 v -1.82 h -3.811 z"
         id="path33047"
         inkscape:connector-curvature="0" />
    </clipPath>
    <clipPath
       clipPathUnits="userSpaceOnUse"
       id="clipPath33053">
      <path
         d="m 951.59,236.943 h 3.811 v 1.82 h -3.811 z"
         id="path33051"
         inkscape:connector-curvature="0" />
    </clipPath>
    <clipPath
       clipPathUnits="userSpaceOnUse"
       id="clipPath33057">
      <path
         d="m 945.949,242.915 h 3.899 v -3.022 h -3.899 z"
         id="path33055"
         inkscape:connector-curvature="0" />
    </clipPath>
    <clipPath
       clipPathUnits="userSpaceOnUse"
       id="clipPath33061">
      <path
         d="m 949.848,242.915 c -0.065,-0.026 -0.694,-0.272 -1.407,-0.59 v 0 c -0.906,-0.406 -1.544,-0.74 -1.897,-0.993 v 0 c -0.269,-0.191 -0.448,-0.381 -0.533,-0.563 v 0 c -0.078,-0.165 -0.05,-0.287 0.086,-0.386 v 0 c 0.045,-0.032 0.12,-0.086 0.29,-0.146 v 0 c 0.079,-0.028 0.168,-0.042 0.317,-0.068 v 0 c 0.122,-0.02 0.228,-0.037 0.582,-0.091 v 0 c 0.177,-0.027 0.355,-0.053 0.532,-0.079 v 0 c -10e-4,-0.002 0.339,-0.052 0.453,-0.067 v 0 c 0.02,-0.005 0.049,-0.008 0.07,-0.011 v 0 c 0.051,-0.007 0.102,-0.015 0.153,-0.022 v 0 c 0.014,-0.002 0.028,-0.004 0.042,-0.007 v 0 c -0.104,0.016 -0.166,0.112 -0.15,0.26 v 0 c -0.1,0.017 -1.087,0.16 -1.687,0.255 v 0 c -0.187,0.037 -0.334,0.054 -0.373,0.064 v 0 c -0.133,0.036 -0.458,0.036 -0.022,0.26 v 0 c 0.623,0.571 3.209,1.588 3.435,1.678 v 0 c -0.137,0.191 -0.089,0.418 0.109,0.506 z"
         id="path33059"
         inkscape:connector-curvature="0" />
    </clipPath>
    <clipPath
       clipPathUnits="userSpaceOnUse"
       id="clipPath33065">
      <path
         d="m 945.949,242.915 h 3.899 v -3.022 h -3.899 z"
         id="path33063"
         inkscape:connector-curvature="0" />
    </clipPath>
    <clipPath
       clipPathUnits="userSpaceOnUse"
       id="clipPath33069">
      <path
         d="m 945.949,239.893 h 3.899 v 3.023 h -3.899 z"
         id="path33067"
         inkscape:connector-curvature="0" />
    </clipPath>
    <clipPath
       clipPathUnits="userSpaceOnUse"
       id="clipPath33073">
      <path
         d="m 947.386,240.152 h 3.282 v -4.824 h -3.282 z"
         id="path33071"
         inkscape:connector-curvature="0" />
    </clipPath>
    <clipPath
       clipPathUnits="userSpaceOnUse"
       id="clipPath33077">
      <path
         d="m 948.386,240.152 c -0.016,-0.136 0.035,-0.226 0.124,-0.253 v 0 c 0.165,-0.054 0.557,-0.317 0.392,-0.882 v 0 c -0.013,-0.047 -0.055,-0.19 -0.406,-0.826 v 0 c -0.05,-0.091 -0.203,-0.366 -0.421,-0.739 v 0 c -0.231,-0.396 -0.412,-0.696 -0.462,-0.779 v 0 c -0.025,-0.041 -0.051,-0.08 -0.075,-0.122 v 0 c -0.065,-0.109 -0.171,-0.321 -0.147,-0.5 v 0 c 0.019,-0.142 0.173,-0.202 0.247,-0.231 v 0 c 0.033,-0.013 0.108,-0.033 0.146,-0.039 v 0 c 0.207,-0.038 0.415,-0.066 0.623,-0.1 v 0 c 0.359,-0.057 0.719,-0.112 1.079,-0.168 v 0 c 0.103,-0.016 0.242,-0.038 0.345,-0.054 v 0 c 0.048,-0.007 0.112,-0.017 0.159,-0.025 v 0 c 0.046,-0.007 0.105,-0.017 0.149,-0.023 v 0 l 0.528,-0.083 c -0.07,0.011 -0.142,0.042 -0.206,0.089 v 0 c -0.044,0.034 -0.065,0.054 -0.102,0.096 v 0 c -0.034,0.041 -0.054,0.079 -0.072,0.112 v 0 c 0,0.001 -1.834,0.287 -2.61,0.409 v 0 c -0.353,-0.085 -0.07,0.191 -0.058,0.211 v 0 c 0.051,0.077 0.959,1.57 1.326,2.345 v 0 c 0.484,1.166 -0.503,1.544 -0.559,1.562 z"
         id="path33075"
         inkscape:connector-curvature="0" />
    </clipPath>
    <clipPath
       clipPathUnits="userSpaceOnUse"
       id="clipPath33081">
      <path
         d="m 947.386,240.152 h 3.282 v -4.824 h -3.282 z"
         id="path33079"
         inkscape:connector-curvature="0" />
    </clipPath>
    <clipPath
       clipPathUnits="userSpaceOnUse"
       id="clipPath33085">
      <path
         d="m 947.386,235.328 h 3.282 v 4.824 h -3.282 z"
         id="path33083"
         inkscape:connector-curvature="0" />
    </clipPath>
    <clipPath
       clipPathUnits="userSpaceOnUse"
       id="clipPath33089">
      <path
         d="m 952.622,254.604 h 5.736 v -0.892 h -5.736 z"
         id="path33087"
         inkscape:connector-curvature="0" />
    </clipPath>
    <clipPath
       clipPathUnits="userSpaceOnUse"
       id="clipPath33093">
      <path
         d="m 952.622,254.55 c 0.049,0.021 0.114,0.028 0.204,0.015 v 0 c 0.514,-0.082 4.847,-0.768 5.362,-0.85 v 0 c 0.061,0.027 0.119,0.036 0.17,0.028 v 0 c -0.894,0.142 -1.788,0.283 -2.681,0.425 v 0 c -0.739,0.117 -1.479,0.234 -2.218,0.351 v 0 c -0.061,0.01 -0.142,0.023 -0.202,0.032 v 0 c -0.079,0.012 -0.183,0.029 -0.261,0.042 v 0 c -0.007,0.001 -0.014,0.002 -0.02,0.003 v 0 c -0.038,0.005 -0.072,0.007 -0.105,0.007 v 0 c -0.106,0 -0.185,-0.026 -0.249,-0.053"
         id="path33091"
         inkscape:connector-curvature="0" />
    </clipPath>
    <clipPath
       clipPathUnits="userSpaceOnUse"
       id="clipPath33097">
      <path
         d="m 952.622,254.604 h 5.736 v -0.892 h -5.736 z"
         id="path33095"
         inkscape:connector-curvature="0" />
    </clipPath>
    <clipPath
       clipPathUnits="userSpaceOnUse"
       id="clipPath33101">
      <path
         d="m 952.622,253.712 h 5.736 v 0.891 h -5.736 z"
         id="path33099"
         inkscape:connector-curvature="0" />
    </clipPath>
    <clipPath
       clipPathUnits="userSpaceOnUse"
       id="clipPath33105">
      <path
         d="m 950.283,237.037 h 1.307 v -1.713 h -1.307 z"
         id="path33103"
         inkscape:connector-curvature="0" />
    </clipPath>
    <clipPath
       clipPathUnits="userSpaceOnUse"
       id="clipPath33109">
      <path
         d="m 950.927,237.037 -0.644,-1.411 c 0.123,-0.239 0.383,-0.362 0.581,-0.273 v 0 l 0.726,1.588 v 0.002 c -0.198,-0.087 -0.494,-0.046 -0.663,0.094 z"
         id="path33107"
         inkscape:connector-curvature="0" />
    </clipPath>
    <clipPath
       clipPathUnits="userSpaceOnUse"
       id="clipPath33113">
      <path
         d="m 950.283,237.037 h 1.307 v -1.713 h -1.307 z"
         id="path33111"
         inkscape:connector-curvature="0" />
    </clipPath>
    <clipPath
       clipPathUnits="userSpaceOnUse"
       id="clipPath33117">
      <path
         d="m 950.283,235.324 h 1.308 v 1.713 h -1.308 z"
         id="path33115"
         inkscape:connector-curvature="0" />
    </clipPath>
    <clipPath
       clipPathUnits="userSpaceOnUse"
       id="clipPath33121">
      <path
         d="m 948.441,244.508 h 4.982 v -2.183 h -4.982 z"
         id="path33119"
         inkscape:connector-curvature="0" />
    </clipPath>
    <clipPath
       clipPathUnits="userSpaceOnUse"
       id="clipPath33125">
      <path
         d="m 952.016,243.918 -3.575,-1.593 c 0.713,0.318 1.342,0.564 1.407,0.59 v 0 l 3.574,1.592 c -0.065,-0.025 -0.694,-0.271 -1.406,-0.589"
         id="path33123"
         inkscape:connector-curvature="0" />
    </clipPath>
    <clipPath
       clipPathUnits="userSpaceOnUse"
       id="clipPath33129">
      <path
         d="m 948.441,244.508 h 4.982 v -2.183 h -4.982 z"
         id="path33127"
         inkscape:connector-curvature="0" />
    </clipPath>
    <clipPath
       clipPathUnits="userSpaceOnUse"
       id="clipPath33133">
      <path
         d="m 948.441,242.325 h 4.982 v 2.183 h -4.982 z"
         id="path33131"
         inkscape:connector-curvature="0" />
    </clipPath>
    <clipPath
       clipPathUnits="userSpaceOnUse"
       id="clipPath33137">
      <path
         d="m 958.188,253.746 h 0.487 v -0.696 h -0.487 z"
         id="path33135"
         inkscape:connector-curvature="0" />
    </clipPath>
    <clipPath
       clipPathUnits="userSpaceOnUse"
       id="clipPath33141">
      <path
         d="m 958.313,253.746 c -0.039,-0.001 -0.082,-0.011 -0.125,-0.031 v 0 c 0.515,-0.082 0.271,-0.636 0.259,-0.665 v 0 c 0.072,0.033 0.121,0.076 0.143,0.124 v 0 c 0.071,0.153 0.103,0.329 0.073,0.401 v 0 c -0.04,0.094 -0.121,0.138 -0.311,0.169 v 0 c -0.008,0.001 -0.016,0.002 -0.023,0.002 v 0 z"
         id="path33139"
         inkscape:connector-curvature="0" />
    </clipPath>
    <clipPath
       clipPathUnits="userSpaceOnUse"
       id="clipPath33145">
      <path
         d="m 958.188,253.746 h 0.487 v -0.696 h -0.487 z"
         id="path33143"
         inkscape:connector-curvature="0" />
    </clipPath>
    <clipPath
       clipPathUnits="userSpaceOnUse"
       id="clipPath33149">
      <path
         d="m 958.188,253.05 h 0.488 v 0.696 h -0.488 z"
         id="path33147"
         inkscape:connector-curvature="0" />
    </clipPath>
    <clipPath
       clipPathUnits="userSpaceOnUse"
       id="clipPath33153">
      <path
         d="m 952.238,236.79 h 0.812 v -1.802 h -0.812 z"
         id="path33151"
         inkscape:connector-curvature="0" />
    </clipPath>
    <clipPath
       clipPathUnits="userSpaceOnUse"
       id="clipPath33157">
      <path
         d="m 952.356,236.79 c -0.079,-0.033 -0.118,-0.05 -0.118,-0.05 v 0 c 0.253,-0.584 0.507,-1.168 0.759,-1.752 v 0 c -0.017,0.04 0,0.108 0.053,0.2 v 0 z"
         id="path33155"
         inkscape:connector-curvature="0" />
    </clipPath>
    <clipPath
       clipPathUnits="userSpaceOnUse"
       id="clipPath33161">
      <path
         d="m 952.238,236.79 h 0.812 v -1.802 h -0.812 z"
         id="path33159"
         inkscape:connector-curvature="0" />
    </clipPath>
    <clipPath
       clipPathUnits="userSpaceOnUse"
       id="clipPath33165">
      <path
         d="m 952.238,234.988 h 0.812 v 1.802 h -0.812 z"
         id="path33163"
         inkscape:connector-curvature="0" />
    </clipPath>
    <clipPath
       clipPathUnits="userSpaceOnUse"
       id="clipPath33169">
      <path
         d="m 950.928,237.44 h 1.428 v -0.699 h -1.428 z"
         id="path33167"
         inkscape:connector-curvature="0" />
    </clipPath>
    <clipPath
       clipPathUnits="userSpaceOnUse"
       id="clipPath33173">
      <path
         d="m 951.527,237.44 c -0.387,-0.015 -0.586,-0.38 -0.6,-0.403 v 0 c 0.17,-0.14 0.466,-0.181 0.664,-0.094 v 0 c 0.005,0.011 0.09,0.158 0.228,0.224 v 0 c 0.018,-0.001 0.098,-0.012 0.227,-0.142 v 0 c 0.045,-0.046 0.052,-0.056 0.137,-0.181 v 0 c 0,-0.001 0.028,-0.045 0.054,-0.103 v 0 h 0.003 c 0.01,0.004 0.048,0.02 0.116,0.049 v 0 c -0.02,0.043 -0.25,0.558 -0.717,0.644 v 0 c -0.021,0.003 -0.043,0.005 -0.063,0.006 v 0 z m 0.3,-0.269 c 0,0 0,0 0,0"
         id="path33171"
         inkscape:connector-curvature="0" />
    </clipPath>
    <clipPath
       clipPathUnits="userSpaceOnUse"
       id="clipPath33177">
      <path
         d="m 950.928,237.44 h 1.428 v -0.699 h -1.428 z"
         id="path33175"
         inkscape:connector-curvature="0" />
    </clipPath>
    <clipPath
       clipPathUnits="userSpaceOnUse"
       id="clipPath33181">
      <path
         d="m 950.928,236.741 h 1.428 v 0.699 h -1.428 z"
         id="path33179"
         inkscape:connector-curvature="0" />
    </clipPath>
    <clipPath
       clipPathUnits="userSpaceOnUse"
       id="clipPath33185">
      <path
         d="m 948.004,249.476 h 5.099 v -2.126 h -5.099 z"
         id="path33183"
         inkscape:connector-curvature="0" />
    </clipPath>
    <clipPath
       clipPathUnits="userSpaceOnUse"
       id="clipPath33189">
      <path
         d="m 953.1,249.475 c -0.087,-0.025 -0.913,-0.261 -1.521,-0.532 v 0 l -3.575,-1.593 c 0.616,0.274 1.456,0.514 1.525,0.533 v 0 l 3.573,1.592 z"
         id="path33187"
         inkscape:connector-curvature="0" />
    </clipPath>
    <clipPath
       clipPathUnits="userSpaceOnUse"
       id="clipPath33193">
      <path
         d="m 948.004,249.476 h 5.099 v -2.126 h -5.099 z"
         id="path33191"
         inkscape:connector-curvature="0" />
    </clipPath>
    <clipPath
       clipPathUnits="userSpaceOnUse"
       id="clipPath33197">
      <path
         d="m 948.004,247.35 h 5.099 v 2.126 h -5.099 z"
         id="path33195"
         inkscape:connector-curvature="0" />
    </clipPath>
    <clipPath
       clipPathUnits="userSpaceOnUse"
       id="clipPath33201">
      <path
         d="m 947.186,247.883 h 2.374 v -1.92 h -2.374 z"
         id="path33199"
         inkscape:connector-curvature="0" />
    </clipPath>
    <clipPath
       clipPathUnits="userSpaceOnUse"
       id="clipPath33205">
      <path
         d="m 948.004,247.35 c -0.052,-0.024 -0.121,-0.056 -0.173,-0.081 v 0 c -0.325,-0.16 -0.459,-0.28 -0.502,-0.324 v 0 c -0.035,-0.035 -0.093,-0.096 -0.114,-0.159 v 0 c -0.002,-0.002 -0.028,-0.083 0.018,-0.13 v 0 c 0.094,-0.097 0.292,-0.183 0.561,-0.281 v 0 c 0,-0.001 0.11,-0.04 0.252,-0.085 v 0 c 0.114,-0.037 0.242,-0.075 0.381,-0.117 v 0 c 0.405,-0.118 0.488,-0.143 0.687,-0.21 v 0 c -0.03,0.01 0.014,0.067 0.131,0.163 v 0 c -0.763,0.27 -1.683,0.534 -1.867,0.541 v 0 c 0.237,0.107 1.852,0.642 2.181,0.739 v 0 c -0.214,0.175 -0.227,0.389 -0.03,0.477 v 0 c -0.069,-0.019 -0.909,-0.259 -1.525,-0.533 m -0.654,-0.7 c 0,0 0,-0.001 10e-4,-0.001 v 0 c -10e-4,0 -0.002,0 -10e-4,0.001"
         id="path33203"
         inkscape:connector-curvature="0" />
    </clipPath>
    <clipPath
       clipPathUnits="userSpaceOnUse"
       id="clipPath33209">
      <path
         d="m 947.186,247.883 h 2.374 v -1.92 h -2.374 z"
         id="path33207"
         inkscape:connector-curvature="0" />
    </clipPath>
    <clipPath
       clipPathUnits="userSpaceOnUse"
       id="clipPath33213">
      <path
         d="m 947.186,245.963 h 2.373 v 1.92 h -2.373 z"
         id="path33211"
         inkscape:connector-curvature="0" />
    </clipPath>
    <clipPath
       clipPathUnits="userSpaceOnUse"
       id="clipPath33217">
      <path
         d="m 949.105,246.126 h 0.969 v -3.717 h -0.969 z"
         id="path33215"
         inkscape:connector-curvature="0" />
    </clipPath>
    <clipPath
       clipPathUnits="userSpaceOnUse"
       id="clipPath33221">
      <path
         d="m 949.245,246.126 c -0.094,-0.077 -0.141,-0.129 -0.14,-0.152 v 0 c 0.012,-0.525 0.054,-0.866 0.133,-1.105 v 0 c 0.055,-0.164 0.12,-0.258 0.158,-0.314 v 0 c 0.048,-0.068 0.13,-0.161 0.175,-0.209 v 0 c 0.13,-0.142 0.188,-0.207 0.238,-0.305 v 0 c 0.041,-0.083 0.099,-0.197 0.116,-0.401 v 0 c 0.026,-0.308 -0.097,-0.641 -0.222,-0.85 v 0 c -0.064,-0.108 -0.056,-0.253 0.036,-0.381 v 0 c 0.085,0.142 0.713,1.135 -0.006,1.964 v 0 c -0.319,0.352 -0.447,0.433 -0.488,1.753 z"
         id="path33219"
         inkscape:connector-curvature="0" />
    </clipPath>
    <clipPath
       clipPathUnits="userSpaceOnUse"
       id="clipPath33225">
      <path
         d="m 949.105,246.126 h 0.969 v -3.717 h -0.969 z"
         id="path33223"
         inkscape:connector-curvature="0" />
    </clipPath>
    <clipPath
       clipPathUnits="userSpaceOnUse"
       id="clipPath33229">
      <path
         d="m 949.105,242.409 h 0.969 v 3.717 h -0.969 z"
         id="path33227"
         inkscape:connector-curvature="0" />
    </clipPath>
    <clipPath
       clipPathUnits="userSpaceOnUse"
       id="clipPath33233">
      <path
         d="m 954.878,240.436 h 5.151 v -5.877 h -5.151 z"
         id="path33231"
         inkscape:connector-curvature="0" />
    </clipPath>
    <clipPath
       clipPathUnits="userSpaceOnUse"
       id="clipPath33237">
      <path
         d="m 958.655,240.436 -3.575,-1.593 c -0.156,-0.069 -0.318,-0.266 -0.087,-0.816 v 0 c 0.363,-0.869 1.282,-2.641 1.331,-2.734 v 0 c 0.018,-0.036 0.298,-0.592 -0.023,-0.734 v 0 l 3.575,1.593 c 0.109,0.048 0.148,0.145 0.152,0.253 v 0 0.036 c -0.007,0.2 -0.118,0.423 -0.129,0.444 v 0 c -0.049,0.094 -0.969,1.865 -1.331,2.734 v 0 c -0.231,0.551 -0.07,0.747 0.087,0.817 z"
         id="path33235"
         inkscape:connector-curvature="0" />
    </clipPath>
    <clipPath
       clipPathUnits="userSpaceOnUse"
       id="clipPath33241">
      <path
         d="m 954.878,240.436 h 5.151 v -5.877 h -5.151 z"
         id="path33239"
         inkscape:connector-curvature="0" />
    </clipPath>
    <clipPath
       clipPathUnits="userSpaceOnUse"
       id="clipPath33245">
      <path
         d="m 954.878,234.559 h 5.151 v 5.877 h -5.151 z"
         id="path33243"
         inkscape:connector-curvature="0" />
    </clipPath>
    <clipPath
       clipPathUnits="userSpaceOnUse"
       id="clipPath33249">
      <path
         d="m 948.848,252.271 h 0.712 v -4.866 h -0.712 z"
         id="path33247"
         inkscape:connector-curvature="0" />
    </clipPath>
    <clipPath
       clipPathUnits="userSpaceOnUse"
       id="clipPath33253">
      <path
         d="m 948.848,252.263 c 0.181,-1.533 0.362,-3.065 0.543,-4.598 v 0 c 0.01,-0.083 0.067,-0.176 0.168,-0.259 v 0 l -0.565,4.819 c -0.09,0.001 -0.138,0.016 -0.146,0.042 v 0 z"
         id="path33251"
         inkscape:connector-curvature="0" />
    </clipPath>
    <clipPath
       clipPathUnits="userSpaceOnUse"
       id="clipPath33257">
      <path
         d="m 948.848,252.271 h 0.712 v -4.866 h -0.712 z"
         id="path33255"
         inkscape:connector-curvature="0" />
    </clipPath>
    <clipPath
       clipPathUnits="userSpaceOnUse"
       id="clipPath33261">
      <path
         d="m 948.848,247.405 h 0.712 v 4.865 h -0.712 z"
         id="path33259"
         inkscape:connector-curvature="0" />
    </clipPath>
    <clipPath
       clipPathUnits="userSpaceOnUse"
       id="clipPath33265">
      <path
         d="m 948.759,252.979 h 5.854 v -1.415 h -5.854 z"
         id="path33263"
         inkscape:connector-curvature="0" />
    </clipPath>
    <clipPath
       clipPathUnits="userSpaceOnUse"
       id="clipPath33269">
      <path
         d="m 949.154,252.979 c -0.042,-0.001 -0.078,-0.009 -0.107,-0.022 v 0 c -0.143,-0.067 -0.233,-0.162 -0.268,-0.283 v 0 c -0.033,-0.117 0.013,-0.246 0.07,-0.408 v 0 c 0.008,-0.025 0.056,-0.04 0.145,-0.041 v 0 c -0.019,0.065 -0.06,0.14 -0.09,0.188 v 0 c 0.553,-0.088 4.841,-0.767 5.353,-0.849 v 0 c -10e-4,0.221 0.158,0.47 0.356,0.558 v 0 10e-4 c -0.52,0.082 -4.848,0.767 -5.362,0.849 v 0 c -0.026,0.004 -0.05,0.007 -0.072,0.007 v 0 z"
         id="path33267"
         inkscape:connector-curvature="0" />
    </clipPath>
    <clipPath
       clipPathUnits="userSpaceOnUse"
       id="clipPath33273">
      <path
         d="m 948.759,252.979 h 5.854 v -1.415 h -5.854 z"
         id="path33271"
         inkscape:connector-curvature="0" />
    </clipPath>
    <clipPath
       clipPathUnits="userSpaceOnUse"
       id="clipPath33277">
      <path
         d="m 948.759,251.564 h 5.854 v 1.415 h -5.854 z"
         id="path33275"
         inkscape:connector-curvature="0" />
    </clipPath>
    <clipPath
       clipPathUnits="userSpaceOnUse"
       id="clipPath33281">
      <path
         d="m 948.865,252.466 h 0.008 v -0.013 h -0.008 z"
         id="path33279"
         inkscape:connector-curvature="0" />
    </clipPath>
    <clipPath
       clipPathUnits="userSpaceOnUse"
       id="clipPath33285">
      <path
         d="m 948.873,252.454 c -0.004,0.006 -0.003,0.007 0,0.003 v 0 c -0.002,0.003 -0.006,0.007 -0.008,0.009 v 0 c 0.002,-0.003 0.005,-0.009 0.008,-0.012"
         id="path33283"
         inkscape:connector-curvature="0" />
    </clipPath>
    <clipPath
       clipPathUnits="userSpaceOnUse"
       id="clipPath33289">
      <path
         d="m 948.865,252.466 h 0.008 v -0.013 h -0.008 z"
         id="path33287"
         inkscape:connector-curvature="0" />
    </clipPath>
    <clipPath
       clipPathUnits="userSpaceOnUse"
       id="clipPath33293">
      <path
         d="m 948.865,252.453 h 0.007 v 0.013 h -0.007 z"
         id="path33291"
         inkscape:connector-curvature="0" />
    </clipPath>
    <clipPath
       clipPathUnits="userSpaceOnUse"
       id="clipPath33297">
      <path
         d="m 952.991,239.122 h 3.463 v -4.629 h -3.463 z"
         id="path33295"
         inkscape:connector-curvature="0" />
    </clipPath>
    <clipPath
       clipPathUnits="userSpaceOnUse"
       id="clipPath33301">
      <path
         d="m 954.319,237.739 c 0.373,-0.892 1.296,-2.675 1.347,-2.768 v 0 c 0.012,-0.023 0.297,-0.389 -0.059,-0.192 v 0 c -0.774,0.123 -2.562,0.41 -2.562,0.41 v 0 c -0.053,-0.1 -0.054,-0.148 -0.054,-0.173 v 0 c 0.003,-0.037 0.023,-0.059 0.059,-0.065 v 0 c 1.025,-0.164 2.755,-0.443 2.825,-0.452 v 0 c 0.029,-0.003 0.058,-0.005 0.084,-0.006 v 0 h 0.045 c 0.144,0.004 0.244,0.044 0.297,0.066 v 0 c 0.321,0.142 0.041,0.698 0.023,0.734 v 0 c -0.049,0.093 -0.968,1.865 -1.331,2.734 v 0 c -0.231,0.55 -0.069,0.747 0.087,0.816 v 0 c 0.004,0.002 0.02,0.007 0.051,0.007 v 0 c -0.128,0.004 -0.219,0.105 -0.219,0.271 v 0 c -0.003,0 -0.006,0 -0.01,0 v 0 c -0.143,0 -1.063,-0.096 -0.583,-1.382"
         id="path33299"
         inkscape:connector-curvature="0" />
    </clipPath>
    <clipPath
       clipPathUnits="userSpaceOnUse"
       id="clipPath33305">
      <path
         d="m 952.991,239.122 h 3.463 v -4.629 h -3.463 z"
         id="path33303"
         inkscape:connector-curvature="0" />
    </clipPath>
    <clipPath
       clipPathUnits="userSpaceOnUse"
       id="clipPath33309">
      <path
         d="m 952.991,234.493 h 3.463 v 4.628 h -3.463 z"
         id="path33307"
         inkscape:connector-curvature="0" />
    </clipPath>
    <clipPath
       clipPathUnits="userSpaceOnUse"
       id="clipPath33313">
      <path
         d="m 953.863,246.739 h 4.376 v -4.497 h -4.376 z"
         id="path33311"
         inkscape:connector-curvature="0" />
    </clipPath>
    <clipPath
       clipPathUnits="userSpaceOnUse"
       id="clipPath33317">
      <path
         d="m 958.239,246.74 -3.574,-1.594 c -0.014,-1.167 -0.215,-1.248 -0.593,-1.549 v 0 c -0.473,-0.376 0,-1.305 0.024,-1.355 v 0 l 3.575,1.593 c -0.025,0.049 -0.498,0.979 -0.024,1.355 v 0 c 0.378,0.3 0.578,0.382 0.592,1.55 z"
         id="path33315"
         inkscape:connector-curvature="0" />
    </clipPath>
    <clipPath
       clipPathUnits="userSpaceOnUse"
       id="clipPath33321">
      <path
         d="m 953.863,246.739 h 4.376 v -4.497 h -4.376 z"
         id="path33319"
         inkscape:connector-curvature="0" />
    </clipPath>
    <clipPath
       clipPathUnits="userSpaceOnUse"
       id="clipPath33325">
      <path
         d="m 953.863,242.242 h 4.377 v 4.497 h -4.377 z"
         id="path33323"
         inkscape:connector-curvature="0" />
    </clipPath>
    <clipPath
       clipPathUnits="userSpaceOnUse"
       id="clipPath33329">
      <path
         d="m 954.097,243.835 h 7.302 v -5.234 h -7.302 z"
         id="path33327"
         inkscape:connector-curvature="0" />
    </clipPath>
    <clipPath
       clipPathUnits="userSpaceOnUse"
       id="clipPath33333">
      <path
         d="m 957.671,243.835 -3.575,-1.593 c 0.139,-0.098 2.767,-1.956 3.45,-2.785 v 0 c 0.436,-0.529 0.281,-0.763 0.071,-0.856 v 0 l 3.575,1.593 c 0.21,0.092 0.365,0.326 -0.071,0.856 v 0 c -0.683,0.83 -3.311,2.687 -3.45,2.785 z"
         id="path33331"
         inkscape:connector-curvature="0" />
    </clipPath>
    <clipPath
       clipPathUnits="userSpaceOnUse"
       id="clipPath33337">
      <path
         d="m 954.097,243.835 h 7.302 v -5.234 h -7.302 z"
         id="path33335"
         inkscape:connector-curvature="0" />
    </clipPath>
    <clipPath
       clipPathUnits="userSpaceOnUse"
       id="clipPath33341">
      <path
         d="m 954.097,238.601 h 7.303 v 5.234 h -7.303 z"
         id="path33339"
         inkscape:connector-curvature="0" />
    </clipPath>
    <clipPath
       clipPathUnits="userSpaceOnUse"
       id="clipPath33345">
      <path
         d="m 953.151,245.379 h 1.514 v -3.565 h -1.514 z"
         id="path33343"
         inkscape:connector-curvature="0" />
    </clipPath>
    <clipPath
       clipPathUnits="userSpaceOnUse"
       id="clipPath33349">
      <path
         d="m 953.958,245.38 c -0.028,-1.309 -0.157,-1.349 -0.473,-1.601 v 0 c -0.713,-0.604 -0.078,-1.795 0.008,-1.964 v 0 c 0.136,0.147 0.406,0.339 0.603,0.427 v 0 c -0.024,0.05 -0.497,0.979 -0.024,1.355 v 0 c 0.378,0.301 0.579,0.382 0.593,1.549 v 0 c -0.198,-0.088 -0.515,0.017 -0.707,0.234 z"
         id="path33347"
         inkscape:connector-curvature="0" />
    </clipPath>
    <clipPath
       clipPathUnits="userSpaceOnUse"
       id="clipPath33353">
      <path
         d="m 953.151,245.379 h 1.514 v -3.565 h -1.514 z"
         id="path33351"
         inkscape:connector-curvature="0" />
    </clipPath>
    <clipPath
       clipPathUnits="userSpaceOnUse"
       id="clipPath33357">
      <path
         d="m 953.151,241.814 h 1.514 v 3.565 h -1.514 z"
         id="path33355"
         inkscape:connector-curvature="0" />
    </clipPath>
    <clipPath
       clipPathUnits="userSpaceOnUse"
       id="clipPath33361">
      <path
         d="m 953.493,242.242 h 4.332 v -3.727 h -4.332 z"
         id="path33359"
         inkscape:connector-curvature="0" />
    </clipPath>
    <clipPath
       clipPathUnits="userSpaceOnUse"
       id="clipPath33365">
      <path
         d="m 954.096,242.242 c -0.197,-0.088 -0.467,-0.28 -0.603,-0.427 v 0 c 0.227,-0.163 2.825,-2.001 3.455,-2.77 v 0 c 0.438,-0.354 0.057,-0.264 0.002,-0.256 v 0 c -0.153,0.024 -1.944,0.316 -2.038,0.332 v 0 c 0,-0.151 0.075,-0.249 0.186,-0.267 v 0 c 0.151,-0.026 0.302,-0.05 0.454,-0.074 v 0 c 0.322,-0.053 0.643,-0.105 0.965,-0.158 v 0 c 0.651,-0.106 0.651,-0.106 0.701,-0.107 v 0 h 0.028 c 0.169,0.003 0.315,0.063 0.371,0.086 v 0 c 0.21,0.093 0.365,0.327 -0.071,0.856 v 0 c -0.683,0.829 -3.311,2.687 -3.45,2.785 z"
         id="path33363"
         inkscape:connector-curvature="0" />
    </clipPath>
    <clipPath
       clipPathUnits="userSpaceOnUse"
       id="clipPath33369">
      <path
         d="m 953.493,242.242 h 4.332 v -3.727 h -4.332 z"
         id="path33367"
         inkscape:connector-curvature="0" />
    </clipPath>
    <clipPath
       clipPathUnits="userSpaceOnUse"
       id="clipPath33373">
      <path
         d="m 953.493,238.515 h 4.332 v 3.727 h -4.332 z"
         id="path33371"
         inkscape:connector-curvature="0" />
    </clipPath>
    <clipPath
       clipPathUnits="userSpaceOnUse"
       id="clipPath33377">
      <path
         d="m 954.378,248.708 h 5.759 v -3.458 h -5.759 z"
         id="path33375"
         inkscape:connector-curvature="0" />
    </clipPath>
    <clipPath
       clipPathUnits="userSpaceOnUse"
       id="clipPath33381">
      <path
         d="m 957.953,248.708 -3.575,-1.593 c 0.11,-0.068 2.182,-1.359 2.184,-1.709 v 0 c 0,-0.068 -0.049,-0.119 -0.133,-0.156 v 0 l 3.575,1.593 c 0.084,0.037 0.133,0.087 0.133,0.156 v 0 c -0.002,0.35 -2.075,1.641 -2.184,1.709 z"
         id="path33379"
         inkscape:connector-curvature="0" />
    </clipPath>
    <clipPath
       clipPathUnits="userSpaceOnUse"
       id="clipPath33385">
      <path
         d="m 954.378,248.708 h 5.759 v -3.458 h -5.759 z"
         id="path33383"
         inkscape:connector-curvature="0" />
    </clipPath>
    <clipPath
       clipPathUnits="userSpaceOnUse"
       id="clipPath33389">
      <path
         d="m 954.378,245.25 h 5.758 v 3.458 h -5.758 z"
         id="path33387"
         inkscape:connector-curvature="0" />
    </clipPath>
    <clipPath
       clipPathUnits="userSpaceOnUse"
       id="clipPath33393">
      <path
         d="m 953.636,247.115 h 2.926 v -2.01 h -2.926 z"
         id="path33391"
         inkscape:connector-curvature="0" />
    </clipPath>
    <clipPath
       clipPathUnits="userSpaceOnUse"
       id="clipPath33397">
      <path
         d="m 954.378,247.115 c -0.197,-0.088 -0.529,-0.244 -0.743,-0.349 v 0 c 0.304,-0.192 1.739,-1.153 2.123,-1.404 v 0 c -0.28,0.053 -1.109,0.043 -1.8,0.018 v 0 c 0.151,-0.17 0.379,-0.271 0.565,-0.264 v 0 c 0.096,0.003 0.209,0.003 0.427,0.002 v 0 c 0.342,-0.003 0.637,-0.006 0.895,0.012 v 0 c 0.348,0.026 0.479,0.078 0.584,0.12 v 0 c 0.084,0.037 0.133,0.088 0.133,0.156 v 0 c -0.002,0.35 -2.074,1.641 -2.184,1.709 z"
         id="path33395"
         inkscape:connector-curvature="0" />
    </clipPath>
    <clipPath
       clipPathUnits="userSpaceOnUse"
       id="clipPath33401">
      <path
         d="m 953.636,247.115 h 2.926 v -2.01 h -2.926 z"
         id="path33399"
         inkscape:connector-curvature="0" />
    </clipPath>
    <clipPath
       clipPathUnits="userSpaceOnUse"
       id="clipPath33405">
      <path
         d="m 953.636,245.105 h 2.927 v 2.01 h -2.927 z"
         id="path33403"
         inkscape:connector-curvature="0" />
    </clipPath>
    <clipPath
       clipPathUnits="userSpaceOnUse"
       id="clipPath33409">
      <path
         d="m 945.949,234.493 h 15.611 v 20.111 h -15.611 z"
         id="path33407"
         inkscape:connector-curvature="0" />
    </clipPath>
    <clipPath
       clipPathUnits="userSpaceOnUse"
       id="clipPath33413">
      <path
         d="m 949.047,254.572 h 9.141 v -2.449 h -9.141 z"
         id="path33411"
         inkscape:connector-curvature="0" />
    </clipPath>
    <clipPath
       clipPathUnits="userSpaceOnUse"
       id="clipPath33417">
      <path
         d="m 952.622,254.55 -3.575,-1.593 c 0.049,0.022 0.115,0.029 0.204,0.015 v 0 c 0.515,-0.082 4.847,-0.768 5.363,-0.85 v 0 l 3.574,1.593 c -0.515,0.082 -4.848,0.768 -5.362,0.85 v 0 c -0.031,0.005 -0.059,0.007 -0.084,0.007 v 0 c -0.049,0 -0.088,-0.008 -0.12,-0.022"
         id="path33415"
         inkscape:connector-curvature="0" />
    </clipPath>
    <clipPath
       clipPathUnits="userSpaceOnUse"
       id="clipPath33421">
      <path
         d="m 949.047,254.572 h 9.141 v -2.449 h -9.141 z"
         id="path33419"
         inkscape:connector-curvature="0" />
    </clipPath>
    <clipPath
       clipPathUnits="userSpaceOnUse"
       id="clipPath33425">
      <path
         d="m 949.047,252.123 h 9.14 v 2.449 h -9.14 z"
         id="path33423"
         inkscape:connector-curvature="0" />
    </clipPath>
    <clipPath
       clipPathUnits="userSpaceOnUse"
       id="clipPath33429">
      <path
         d="m 954.613,253.715 h 3.902 v -2.258 h -3.902 z"
         id="path33427"
         inkscape:connector-curvature="0" />
    </clipPath>
    <clipPath
       clipPathUnits="userSpaceOnUse"
       id="clipPath33433">
      <path
         d="m 958.188,253.715 -3.574,-1.593 c 0.514,-0.081 0.272,-0.636 0.258,-0.665 v 0 l 3.575,1.593 c 0.012,0.029 0.256,0.583 -0.259,0.665 z"
         id="path33431"
         inkscape:connector-curvature="0" />
    </clipPath>
    <clipPath
       clipPathUnits="userSpaceOnUse"
       id="clipPath33437">
      <path
         d="m 954.613,253.715 h 3.902 v -2.258 h -3.902 z"
         id="path33435"
         inkscape:connector-curvature="0" />
    </clipPath>
    <clipPath
       clipPathUnits="userSpaceOnUse"
       id="clipPath33441">
      <path
         d="m 954.613,251.457 h 3.902 v 2.258 h -3.902 z"
         id="path33439"
         inkscape:connector-curvature="0" />
    </clipPath>
    <clipPath
       clipPathUnits="userSpaceOnUse"
       id="clipPath33445">
      <path
         d="m 953.636,251.52 h 1.236 v -4.755 h -1.236 z"
         id="path33443"
         inkscape:connector-curvature="0" />
    </clipPath>
    <clipPath
       clipPathUnits="userSpaceOnUse"
       id="clipPath33449">
      <path
         d="m 954.189,251.519 -0.554,-4.753 c 0.214,0.105 0.546,0.261 0.743,0.349 v 0 l 0.494,4.342 c -0.197,-0.088 -0.503,-0.06 -0.683,0.062 z"
         id="path33447"
         inkscape:connector-curvature="0" />
    </clipPath>
    <clipPath
       clipPathUnits="userSpaceOnUse"
       id="clipPath33453">
      <path
         d="m 953.636,251.52 h 1.236 v -4.755 h -1.236 z"
         id="path33451"
         inkscape:connector-curvature="0" />
    </clipPath>
    <clipPath
       clipPathUnits="userSpaceOnUse"
       id="clipPath33457">
      <path
         d="m 953.636,246.765 h 1.237 v 4.755 h -1.237 z"
         id="path33455"
         inkscape:connector-curvature="0" />
    </clipPath>
    <clipPath
       clipPathUnits="userSpaceOnUse"
       id="clipPath33461">
      <path
         d="m 954.277,251.611 h 0.012 v -0.014 h -0.012 z"
         id="path33459"
         inkscape:connector-curvature="0" />
    </clipPath>
    <clipPath
       clipPathUnits="userSpaceOnUse"
       id="clipPath33465">
      <path
         d="m 954.289,251.611 c -0.004,-0.002 -0.008,-0.006 -0.012,-0.008 v 0 c 0.005,0.003 0.007,0.002 0.003,-0.006 v 0 c 0.003,0.004 0.006,0.011 0.009,0.014 z"
         id="path33463"
         inkscape:connector-curvature="0" />
    </clipPath>
    <clipPath
       clipPathUnits="userSpaceOnUse"
       id="clipPath33469">
      <path
         d="m 954.277,251.611 h 0.012 v -0.014 h -0.012 z"
         id="path33467"
         inkscape:connector-curvature="0" />
    </clipPath>
    <clipPath
       clipPathUnits="userSpaceOnUse"
       id="clipPath33473">
      <path
         d="m 954.277,251.597 h 0.012 v 0.014 h -0.012 z"
         id="path33471"
         inkscape:connector-curvature="0" />
    </clipPath>
    <clipPath
       clipPathUnits="userSpaceOnUse"
       id="clipPath33477">
      <path
         d="m 954.189,252.123 h 0.752 v -0.717 h -0.752 z"
         id="path33475"
         inkscape:connector-curvature="0" />
    </clipPath>
    <clipPath
       clipPathUnits="userSpaceOnUse"
       id="clipPath33481">
      <path
         d="m 954.614,252.122 c -0.191,-0.084 -0.347,-0.32 -0.356,-0.535 v 0 c -0.026,-0.023 -0.064,-0.061 -0.069,-0.068 v 0 c 0.105,-0.071 0.252,-0.11 0.396,-0.113 v 0 h 0.036 c 0.091,0.002 0.178,0.019 0.251,0.051 v 0 c 0.006,0.014 0.064,0.146 0.068,0.289 v 0 0.034 c -0.004,0.149 -0.075,0.303 -0.326,0.342 z"
         id="path33479"
         inkscape:connector-curvature="0" />
    </clipPath>
    <clipPath
       clipPathUnits="userSpaceOnUse"
       id="clipPath33485">
      <path
         d="m 954.189,252.123 h 0.752 v -0.717 h -0.752 z"
         id="path33483"
         inkscape:connector-curvature="0" />
    </clipPath>
    <clipPath
       clipPathUnits="userSpaceOnUse"
       id="clipPath33489">
      <path
         d="m 954.189,251.406 h 0.751 v 0.717 h -0.751 z"
         id="path33487"
         inkscape:connector-curvature="0" />
    </clipPath>
    <clipPath
       clipPathUnits="userSpaceOnUse"
       id="clipPath33389-3">
      <path
         d="m 954.378,245.25 h 5.758 v 3.458 h -5.758 z"
         id="path33387-0"
         inkscape:connector-curvature="0" />
    </clipPath>
    <clipPath
       clipPathUnits="userSpaceOnUse"
       id="clipPath33341-6">
      <path
         d="m 954.097,238.601 h 7.303 v 5.234 h -7.303 z"
         id="path33339-9"
         inkscape:connector-curvature="0" />
    </clipPath>
    <clipPath
       clipPathUnits="userSpaceOnUse"
       id="clipPath33245-6">
      <path
         d="m 954.878,234.559 h 5.151 v 5.877 h -5.151 z"
         id="path33243-6"
         inkscape:connector-curvature="0" />
    </clipPath>
    <clipPath
       clipPathUnits="userSpaceOnUse"
       id="clipPath33325-1">
      <path
         d="m 953.863,242.242 h 4.377 v 4.497 h -4.377 z"
         id="path33323-1"
         inkscape:connector-curvature="0" />
    </clipPath>
    <clipPath
       clipPathUnits="userSpaceOnUse"
       id="clipPath33441-4">
      <path
         d="m 954.613,251.457 h 3.902 v 2.258 h -3.902 z"
         id="path33439-9"
         inkscape:connector-curvature="0" />
    </clipPath>
    <clipPath
       clipPathUnits="userSpaceOnUse"
       id="clipPath33425-8">
      <path
         d="m 949.047,252.123 h 9.14 v 2.449 h -9.14 z"
         id="path33423-4"
         inkscape:connector-curvature="0" />
    </clipPath>
  </defs>
  <sodipodi:namedview
     id="base"
     pagecolor="#ffffff"
     bordercolor="#666666"
     borderopacity="1.0"
     inkscape:pageopacity="0.0"
     inkscape:pageshadow="2"
     inkscape:zoom="11.313709"
     inkscape:cx="4.3737529"
     inkscape:cy="8.6168864"
     inkscape:document-units="mm"
     inkscape:current-layer="layer1"
     showgrid="false"
     inkscape:window-width="1920"
     inkscape:window-height="1017"
     inkscape:window-x="-8"
     inkscape:window-y="-8"
     inkscape:window-maximized="1"
     inkscape:snap-global="true"
     inkscape:snap-bbox="false" />
  <metadata
     id="metadata37244">
    <rdf:RDF>
      <cc:Work
         rdf:about="">
        <dc:format>image/svg+xml</dc:format>
        <dc:type
           rdf:resource="http://purl.org/dc/dcmitype/StillImage" />
        <dc:title />
      </cc:Work>
    </rdf:RDF>
  </metadata>
  <g
     inkscape:label="Ebene 1"
     inkscape:groupmode="layer"
     id="layer1"
     transform="translate(-68.612494,-74.978653)">
    <g
       id="g26763"
       inkscape:label="Ringmaster_red"
       transform="matrix(1.1095214,0,0,1.0705302,-7.5246076,-5.9476456)"
       style="stroke-width:0.91755623">
      <path
         sodipodi:nodetypes="ccccccccccccccccccccccccccccccccccccc"
         d="m 69.926527,76.603556 c 0,0 -0.06015,-0.159283 0.06016,-0.21268 0.158278,-0.08288 1.586395,-0.700211 1.586395,-0.700211 0,0 0.125068,-0.02238 0.224014,-0.0077 0.112812,0.01522 2.224821,0.354079 2.224821,0.354079 0,0 0.22421,0.01541 0.125843,0.240913 -0.02225,0.165752 -0.216738,1.905855 -0.216738,1.905855 0,0 0.606271,0.367074 0.86992,0.615263 0.03802,0.05281 0.08535,0.140122 -0.02047,0.200308 -0.105321,0.06015 -0.750988,0.334185 -0.750988,0.334185 0,0 0.05291,0.1579 -0.286383,0.413938 -0.06079,0.06015 -0.03801,0.29312 0.09057,0.549164 0.211181,0.15049 1.229046,0.880229 1.515869,1.233977 0.170662,0.219913 -0.04383,0.328452 -0.04383,0.328452 l -1.003279,0.447872 0.526758,1.104958 c 0,0 0.05227,0.09112 -0.105917,0.196744 -0.158278,0.1051 -1.564055,0.697721 -1.564055,0.697721 0,0 -0.171211,0.01912 -0.301503,-0.0026 -0.129861,-0.02272 -1.037678,-0.166694 -1.037678,-0.166694 0,0 -0.06565,6.7e-4 -0.107374,-0.0827 l -0.174066,-0.407873 -0.722861,0.318235 c 0,0 -0.13293,-0.0036 -0.240488,-0.02655 -0.107553,-0.02273 -1.145451,-0.178699 -1.145451,-0.178699 0,0 -0.202474,-0.0098 -0.103313,-0.175511 0.06202,-0.135651 0.55209,-1.004404 0.55209,-1.004404 0,0 0.297292,-0.415861 -0.07213,-0.585362 -0.17914,-0.02431 -0.84992,-0.10053 -1.007053,-0.186233 0,0 -0.183127,-0.09973 -0.0406,-0.241327 0.197624,-0.208934 0.807761,-0.529568 1.582974,-0.856708 0.02225,-0.09599 0.189048,-0.37066 -0.05451,-0.607946 -0.23742,-0.219839 -0.208163,-0.655982 -0.230901,-0.712248 -0.06779,0.0063 -0.639973,-0.212251 -0.694474,-0.238079 -0.04861,-0.02459 -0.169783,-0.05172 -0.08202,-0.172623 0.217177,-0.199735 0.889737,-0.449275 0.889737,-0.449275 z"
         style="opacity:1;fill:none;fill-opacity:1;stroke:#000000;stroke-width:0.16589902;stroke-linecap:square;stroke-linejoin:round;stroke-miterlimit:10;stroke-dasharray:none;stroke-opacity:1"
         id="path42961"
         inkscape:connector-curvature="0" />
      <path
         sodipodi:nodetypes="ccccccccccccccccccccccccccccccccccccc"
         d="m 69.926527,76.603556 c 0,0 -0.06015,-0.159283 0.06016,-0.21268 0.158278,-0.08288 1.586395,-0.700211 1.586395,-0.700211 0,0 0.125068,-0.02238 0.224014,-0.0077 0.112812,0.01522 2.224821,0.354079 2.224821,0.354079 0,0 0.22421,0.01541 0.125843,0.240913 -0.02225,0.165752 -0.216738,1.905855 -0.216738,1.905855 0,0 0.606271,0.367074 0.86992,0.615263 0.03802,0.05281 0.08535,0.140122 -0.02047,0.200308 -0.105321,0.06015 -0.750988,0.334185 -0.750988,0.334185 0,0 0.05291,0.1579 -0.286383,0.413938 -0.06079,0.06015 -0.03801,0.29312 0.09057,0.549164 0.211181,0.15049 1.229046,0.880229 1.515869,1.233977 0.170662,0.219913 -0.04383,0.328452 -0.04383,0.328452 l -1.003279,0.447872 0.526758,1.104958 c 0,0 0.05227,0.09112 -0.105917,0.196744 -0.158278,0.1051 -1.564055,0.697722 -1.564055,0.697722 0,0 -0.171211,0.01912 -0.301503,-0.0026 -0.129861,-0.02272 -1.037678,-0.166695 -1.037678,-0.166695 0,0 -0.06565,6.62e-4 -0.107374,-0.0827 l -0.174066,-0.407872 -0.722861,0.318235 c 0,0 -0.13293,-0.0036 -0.240488,-0.02655 -0.107553,-0.02273 -1.145451,-0.178699 -1.145451,-0.178699 0,0 -0.202474,-0.0098 -0.103313,-0.175511 0.06202,-0.135652 0.55209,-1.004405 0.55209,-1.004405 0,0 0.297292,-0.415861 -0.07213,-0.585361 -0.17914,-0.02431 -0.84992,-0.10053 -1.007053,-0.186233 0,0 -0.183127,-0.09973 -0.0406,-0.241327 0.197625,-0.208942 0.807762,-0.529576 1.582975,-0.856716 0.02225,-0.09599 0.189048,-0.37066 -0.05451,-0.607946 -0.23742,-0.219839 -0.208163,-0.655982 -0.230901,-0.712248 -0.06779,0.0063 -0.639973,-0.212251 -0.694474,-0.238079 -0.04861,-0.02459 -0.169783,-0.05172 -0.08202,-0.172623 0.217177,-0.199735 0.889737,-0.449275 0.889737,-0.449275 z"
         style="opacity:1;fill:#6f0b0e;fill-opacity:1;stroke:none;stroke-width:0.16589902;stroke-linecap:square;stroke-linejoin:round;stroke-miterlimit:10;stroke-dasharray:none;stroke-opacity:1"
         id="path42961-2"
         inkscape:connector-curvature="0" />
      <path
         sodipodi:nodetypes="ccccccccccccccccccccccccccccccscsccccccc"
         inkscape:connector-curvature="0"
         id="path42905"
         style="opacity:1;fill:#ed1c24;fill-opacity:1;fill-rule:nonzero;stroke:#000000;stroke-width:0.05940976;stroke-linejoin:round;stroke-miterlimit:4;stroke-dasharray:none;stroke-opacity:1"
         d="m 72.330232,78.894994 c 0,0 0.942102,0.632028 0.940381,0.728691 0.05937,0.139901 -0.319435,0.117245 -0.816911,0.119761 0.0078,0.10228 -0.0028,0.34955 -0.06785,0.470764 -0.06643,0.159881 -0.206081,0.157416 -0.25343,0.291886 -0.06283,0.164192 0.03469,0.394601 0.07645,0.48903 0.0021,0.03279 1.190652,0.844944 1.527661,1.231739 0.121215,0.11111 0.168668,0.430222 -0.252705,0.351843 -0.06515,-0.01468 -0.794088,-0.126577 -0.834602,-0.133475 -0.05536,0.03736 -0.169158,0.08164 -0.04726,0.382062 0.160753,0.383996 0.544899,1.106149 0.612906,1.251242 0.05198,0.16507 -0.0063,0.282985 -0.252994,0.240179 -0.344345,-0.05472 -1.087053,-0.17528 -1.195633,-0.191693 -0.02842,0.0063 -0.09189,-0.173338 -0.331878,-0.739476 -0.009,-0.01897 -0.0632,-0.207991 -0.203722,-0.206653 -0.04828,0.02757 -0.05749,0.03727 -0.09497,0.08743 -0.110319,0.240912 -0.249485,0.547075 -0.312847,0.685419 -0.03791,0.02234 -0.07696,0.01013 -0.12715,0.0027 -0.321601,-0.05377 -1.183281,-0.1821 -1.240094,-0.194094 -0.175081,-0.02753 -0.16551,-0.08825 -0.118402,-0.205487 -0.0036,-0.05945 0.186609,-0.336009 0.33295,-0.589807 0.116038,-0.205818 0.152065,-0.274053 0.241883,-0.443582 0.181208,-0.343306 0.0112,-0.479108 -0.10562,-0.530132 -0.255805,-0.03457 -0.55557,-0.07962 -0.868883,-0.132568 -0.290587,-0.08285 -0.260271,-0.198253 -0.131744,-0.350388 0.207064,-0.253552 1.268779,-0.681231 1.535942,-0.801314 0,0 0.03493,-0.05194 0.06361,-0.180782 0.01954,-0.127515 0.01062,-0.193543 -0.0086,-0.250116 -0.0194,-0.05655 -0.04952,-0.103735 -0.08305,-0.147937 -0.121493,-0.134025 -0.243424,-0.198451 -0.253086,-0.751754 -0.202716,-0.06261 -0.395645,-0.120355 -0.551826,-0.171705 -0.156182,-0.05131 -0.276885,-0.112745 -0.263181,-0.163681 0.02395,-0.117616 0.244967,-0.203919 0.445111,-0.294912 0.198014,-0.09001 0.410268,-0.144183 0.488059,-0.167027 -0.09228,-0.782647 -0.149363,-1.259148 -0.223921,-1.906039 -0.02731,-0.08814 -0.05323,-0.135637 -0.02187,-0.213666 0.02518,-0.0528 0.09609,-0.102147 0.164755,-0.09638 0.399779,0.06866 2.169451,0.341036 2.333592,0.371337 0.208459,0.0435 0.112724,0.209581 0.111574,0.2866 z" />
    </g>
  </g>
</svg>
