<?xml version="1.0" encoding="UTF-8" standalone="no"?><svg height="327px" width="522px" x="0px" y="0px" xmlns="http://www.w3.org/2000/svg"><title>Vergleichen()</title><desc>Export aus hus-Struktogrammer v0.1-java , www.struktogrammer.ch , Date: 25.08.22 12:41</desc><g stroke-linecap="square" stroke-linejoin="miter" stroke-width="1"><g fill-opacity="1" stroke="none"><g fill="#d3d3d3"><path d="M 0.5 0.5 L 521.5 0.5 L 521.5 326.5 L 0.5 326.5 z"/></g><g fill="#ffffff"><path d="M 20.5 25.5 L 521.5 25.5 L 521.5 306.5 L 20.5 306.5 z"/></g></g><g fill="none" stroke="#000000" stroke-opacity="1" stroke-width="1"><path d="M 520.5 25.5 L 20.5 25.5 L 20.5 306.5 L 520.5 306.5"/><path d="M 0.5 0.5 L 521.5 0.5 L 521.5 326.5 L 0.5 326.5 z"/><path d="M 20.5 103.5 L 520.5 103.5"/><path d="M 20.5 129.5 L 521.5 129.5"/><path d="M 269.5 129.5 L 269.5 306.5"/><path d="M 20.5 103.5 L 269.5 128.5"/><path d="M 269.5 128.5 L 520.5 103.5"/><path d="M 41.5 51.5 L 520.5 51.5"/><path d="M 40.5 51.5 L 40.5 103.5"/><path d="M 40.5 77.5 L 521.5 77.5"/><path d="M 279.5 77.5 L 279.5 103.5"/><path d="M 40.5 51.5 L 279.5 76.5"/><path d="M 279.5 76.5 L 520.5 51.5"/></g></g><g fill="#000000" font-family="Arial" font-size="13" font-style="normal" font-weight="normal" stroke="none" stroke-opacity="1" xml:space="preserve"><text x="23.5" y="125.5">J</text><text x="511.5" y="125.5">N</text><text x="244.5" y="121.5">Ist b=0 ?</text><text x="275.5" y="147.5">Ausgabe b</text><text x="26.5" y="147.5">Ausgabe a</text><text x="26.5" y="43.5">Solange a&gt;0 und b&gt;0</text><text x="43.5" y="73.5">J</text><text x="511.5" y="73.5">N</text><text x="256.5" y="69.5">Ist a&gt;b?</text><text x="285.5" y="95.5">b= b-a</text><text x="46.5" y="95.5">a =a-b</text><text x="5.5" y="17.5">Vergleichen()</text></g></svg>