<?xml version="1.0" encoding="UTF-8" standalone="no"?>
<!-- Created with Inkscape (http://www.inkscape.org/) -->

<svg
   xmlns:dc="http://purl.org/dc/elements/1.1/"
   xmlns:cc="http://creativecommons.org/ns#"
   xmlns:rdf="http://www.w3.org/1999/02/22-rdf-syntax-ns#"
   xmlns:svg="http://www.w3.org/2000/svg"
   xmlns="http://www.w3.org/2000/svg"
   xmlns:sodipodi="http://sodipodi.sourceforge.net/DTD/sodipodi-0.dtd"
   xmlns:inkscape="http://www.inkscape.org/namespaces/inkscape"
   width="10.286741mm"
   height="10.297575mm"
   viewBox="0 0 10.286741 10.297575"
   version="1.1"
   id="svg59498"
   inkscape:version="0.92.3 (2405546, 2018-03-11)"
   sodipodi:docname="MeepleBig_green_f.svg">
  <defs
     id="defs59492" />
  <sodipodi:namedview
     id="base"
     pagecolor="#ffffff"
     bordercolor="#666666"
     borderopacity="1.0"
     inkscape:pageopacity="0.0"
     inkscape:pageshadow="2"
     inkscape:zoom="15.839192"
     inkscape:cx="5.2556311"
     inkscape:cy="19.179047"
     inkscape:document-units="mm"
     inkscape:current-layer="layer1"
     showgrid="false"
     inkscape:window-width="1920"
     inkscape:window-height="1017"
     inkscape:window-x="-8"
     inkscape:window-y="-8"
     inkscape:window-maximized="1" />
  <metadata
     id="metadata59495">
    <rdf:RDF>
      <cc:Work
         rdf:about="">
        <dc:format>image/svg+xml</dc:format>
        <dc:type
           rdf:resource="http://purl.org/dc/dcmitype/StillImage" />
        <dc:title />
      </cc:Work>
    </rdf:RDF>
  </metadata>
  <g
     inkscape:label="Ebene 1"
     inkscape:groupmode="layer"
     id="layer1"
     transform="translate(249.62876,85.989546)">
    <g
       transform="matrix(-1.0207354,0,0,1.0148697,-168.68719,-157.61688)"
       id="g58240"
       inkscape:label="MeepleBig_green"
       style="stroke-width:0.98251289">
      <path
         d="m 77.651238,75.720563 c 0.0021,0 0.04374,-0.0039 0.116769,-0.01411 0.37712,-0.05256 1.533878,-0.279753 1.449917,-1.059745 -0.03069,-0.291041 -0.299508,-0.531283 -0.656872,-0.724605 l 0.0063,0.0032 -1.719439,-0.935214 c -0.03916,-0.02117 -0.07867,-0.04163 -0.119592,-0.06174 -0.0039,-0.0018 -0.0085,-0.0035 -0.01199,-0.0053 -0.08043,-0.03916 -0.163689,-0.07585 -0.249061,-0.110419 -0.01552,-0.0064 -0.03034,-0.01235 -0.04586,-0.0187 -0.07444,-0.637823 -0.339725,-0.945092 -0.612775,-1.086909 0.0053,0.0028 0.01058,0.0035 0.01552,0.0063 l -1.719086,-0.935566 c -0.01164,-0.0063 -0.02364,-0.01235 -0.03528,-0.01834 -0.03951,-0.01905 -0.07761,-0.02928 -0.116417,-0.04304 -0.02293,-0.0078 -0.04586,-0.01905 -0.06879,-0.02505 -0.0032,-0.0011 -0.0063,-0.0028 -0.0099,-0.0039 -0.0575,-0.01482 -0.111478,-0.02293 -0.162983,-0.02822 -0.01446,-0.0014 -0.02575,-0.0018 -0.03951,-0.0025 -0.04127,-0.0028 -0.07796,-0.0042 -0.111478,-0.0035 -0.0127,3.53e-4 -0.02328,3.53e-4 -0.03492,0.0011 -0.03634,0.0021 -0.06809,0.0046 -0.0882,0.0074 -0.02081,0.0032 -0.0314,0.0053 -0.0321,0.0053 -3.53e-4,0 -0.01129,0.0011 -0.03175,0.0039 -0.01376,0.0018 -0.03246,0.0049 -0.05397,0.0092 -0.0063,0.0014 -0.01305,0.0032 -0.02011,0.0046 -0.01729,0.0035 -0.03563,0.0081 -0.05609,0.01376 -0.0099,0.0025 -0.02011,0.0053 -0.03069,0.0085 -0.02081,0.006 -0.04198,0.01305 -0.06526,0.02081 -0.01199,0.0042 -0.02399,0.0085 -0.03669,0.01341 -0.02434,0.0088 -0.04974,0.01975 -0.07585,0.03175 -0.0099,0.0039 -0.01905,0.0071 -0.02928,0.01199 -0.0018,0.0011 -0.0042,0.0025 -0.006,0.0035 -0.05715,0.02716 -0.117475,0.06174 -0.178505,0.103011 -0.0056,0.0035 -0.01129,0.0053 -0.01693,0.0095 -0.0046,0.0032 -0.0092,0.0071 -0.01305,0.01023 -0.04022,0.02822 -0.08008,0.05927 -0.119591,0.09454 -0.0039,0.0032 -0.0078,0.0053 -0.01129,0.0088 l -0.0021,0.0021 c -0.114653,0.103364 -0.225072,0.237067 -0.318558,0.409575 -7.06e-4,0.0014 -0.0018,0.0025 -0.0025,0.0039 -0.0028,0.0056 -0.0049,0.0127 -0.0081,0.0187 -0.0314,0.05997 -0.06033,0.125236 -0.08714,0.195086 -0.0035,0.0099 -0.0081,0.01729 -0.01199,0.02716 -0.0088,0.02364 -0.01517,0.05045 -0.02364,0.07514 -0.0092,0.02963 -0.01905,0.05856 -0.02787,0.08996 -0.01164,0.04304 -0.02152,0.08925 -0.0314,0.135467 -0.0063,0.03069 -0.01376,0.06033 -0.0194,0.09243 -0.0095,0.05398 -0.01588,0.112184 -0.02258,0.170392 -0.0032,0.02893 -0.0078,0.05574 -0.01023,0.08608 -0.0074,0.09031 -0.01199,0.185208 -0.01235,0.28575 3.53e-4,0.0011 0.0021,0.0088 0.0028,0.01834 3.53e-4,0.0021 0,0.0053 0,0.0081 3.53e-4,0.0085 -0.0014,0.01905 -0.0042,0.02999 -0.0025,0.0095 -0.0049,0.0194 -0.01129,0.02928 0,0 -3.53e-4,3.53e-4 -3.53e-4,7.05e-4 -0.0088,0.01305 -0.02187,0.02611 -0.04092,0.03704 -0.0042,0.0028 -0.0187,0.01023 -0.04022,0.02046 -0.0025,0.0011 -0.0039,0.0021 -0.0067,0.0032 -0.02505,0.01199 -0.05997,0.02893 -0.101952,0.04939 -0.02999,0.01446 -0.0635,0.02999 -0.100895,0.04868 -0.01517,0.0078 -0.03069,0.01517 -0.04727,0.02328 -0.03387,0.01623 -0.06985,0.03422 -0.10795,0.05362 -0.0187,0.0092 -0.03598,0.01799 -0.05503,0.02787 -0.04939,0.02469 -0.1016,0.05186 -0.155928,0.08008 -0.01905,0.0099 -0.03775,0.01976 -0.0575,0.03034 -0.05891,0.03069 -0.119239,0.06279 -0.18168,0.09737 -0.01411,0.0078 -0.02858,0.01587 -0.04304,0.02364 -0.05997,0.03316 -0.121003,0.06773 -0.183092,0.103363 -0.01199,0.0071 -0.02399,0.01341 -0.03634,0.02081 -0.0695,0.04022 -0.139347,0.0822 -0.20955,0.125236 l -0.04762,0.02893 c -0.07126,0.04445 -0.142522,0.08996 -0.213078,0.136525 -0.01129,0.0078 -0.02223,0.01517 -0.03316,0.02258 -0.02858,0.01905 -0.0575,0.0381 -0.08572,0.05786 -0.0194,0.01341 -0.03739,0.02752 -0.05644,0.04092 -0.04868,0.03422 -0.09596,0.06914 -0.142875,0.104422 -0.03422,0.02575 -0.06809,0.05151 -0.101248,0.07796 -0.04551,0.03598 -0.08855,0.07232 -0.13088,0.108655 -0.02117,0.01799 -0.0441,0.03563 -0.06456,0.05327 -0.0092,0.0088 -0.01658,0.01729 -0.02575,0.02611 -0.0575,0.05256 -0.110067,0.105481 -0.159809,0.159456 -0.01305,0.01376 -0.02928,0.02752 -0.04163,0.04127 -0.0032,0.0035 -0.0053,0.0071 -0.0085,0.01023 -0.01341,0.01552 -0.02434,0.0314 -0.03704,0.04692 -0.02752,0.03387 -0.05644,0.06738 -0.08008,0.100542 -0.006,0.0088 -0.01023,0.01764 -0.01623,0.02611 -0.01023,0.01552 -0.01905,0.03069 -0.02858,0.04621 -0.01199,0.0194 -0.02575,0.03881 -0.03598,0.05786 -0.01446,0.02681 -0.0247,0.05327 -0.03669,0.07973 -0.0032,0.0085 -0.0081,0.01764 -0.01164,0.02611 -0.0021,0.0049 -0.0053,0.01023 -0.0067,0.01482 -0.01975,0.05433 -0.03281,0.107597 -0.03845,0.160514 -0.02963,0.279752 0.09137,0.450497 0.27693,0.551744 l 1.373364,0.747183 c -0.01341,0.02646 -0.0247,0.04939 -0.03951,0.07796 -0.03669,0.07126 -0.0755,0.14852 -0.117475,0.231775 -0.01482,0.02893 -0.02787,0.05539 -0.04304,0.08537 -0.05256,0.105128 -0.107245,0.215195 -0.164747,0.334787 l -0.0021,0.0042 c -0.0568,0.118533 -0.115358,0.244122 -0.174625,0.374297 -0.01411,0.03105 -0.02822,0.0628 -0.04233,0.09455 -0.04621,0.103363 -0.09207,0.209197 -0.138289,0.317852 -0.01587,0.03845 -0.03175,0.0755 -0.04762,0.1143 -0.05433,0.131939 -0.107245,0.265995 -0.15875,0.403225 -0.0042,0.01094 -0.0081,0.02117 -0.01235,0.03175 -0.0032,0.0088 -0.0071,0.01729 -0.0099,0.02611 -0.04586,0.12453 -0.08784,0.251178 -0.12947,0.37853 -0.0095,0.02963 -0.02046,0.05821 -0.02999,0.08784 -0.05186,0.1651 -0.100189,0.331611 -0.141464,0.498122 -0.0071,0.02258 -0.125941,0.401814 0.01376,0.478014 l 1.719439,0.935214 c -0.01834,-0.01023 -0.03175,-0.02575 -0.04198,-0.04445 0.02222,0.04092 0.06103,0.06456 0.125589,0.05574 l 2.258483,-0.3175 c 0.03246,-0.0042 0.316442,-0.05503 0.511528,-0.452967 0.01623,-0.03104 0.221897,-0.429683 0.402519,-0.790928 l 1.490486,0.811037 c -0.0011,-7.06e-4 -0.0025,-0.0014 -0.0035,-0.0021 0.134408,0.07444 0.254705,0.06174 0.277636,0.05856 l 2.254603,-0.316794 c 0.26035,-0.03669 0.105127,-0.493184 0.09701,-0.51682 -0.330905,-1.249186 -1.057627,-2.391833 -1.33103,-2.862791 -0.27305,-0.473428 0.156633,-0.533753 0.179211,-0.537281 z"
         style="display:inline;fill:none;fill-opacity:1;stroke:#000000;stroke-width:0.15032448;stroke-linecap:butt;stroke-linejoin:miter;stroke-miterlimit:4;stroke-dasharray:none;stroke-opacity:1"
         id="path17937"
         inkscape:connector-curvature="0" />
      <path
         d="m 77.651231,75.720565 c 0.0021,0 0.04374,-0.0039 0.116769,-0.01411 0.37712,-0.05256 1.533878,-0.279753 1.449917,-1.059745 -0.03069,-0.291041 -0.299508,-0.531283 -0.656872,-0.724605 l 0.0063,0.0032 -1.719439,-0.935214 c -0.03916,-0.02117 -0.07867,-0.04163 -0.119592,-0.06174 -0.0039,-0.0018 -0.0085,-0.0035 -0.01199,-0.0053 -0.08043,-0.03916 -0.163689,-0.07585 -0.249061,-0.110419 -0.01552,-0.0064 -0.03034,-0.01235 -0.04586,-0.0187 -0.07444,-0.637823 -0.339725,-0.945092 -0.612775,-1.086909 0.0053,0.0028 0.01058,0.0035 0.01552,0.0063 l -1.719086,-0.935566 c -0.01164,-0.0063 -0.02364,-0.01235 -0.03528,-0.01834 -0.03951,-0.01905 -0.07761,-0.02928 -0.116417,-0.04304 -0.02293,-0.0078 -0.04586,-0.01905 -0.06879,-0.02505 -0.0032,-0.0011 -0.0063,-0.0028 -0.0099,-0.0039 -0.0575,-0.01482 -0.111478,-0.02293 -0.162983,-0.02822 -0.01446,-0.0014 -0.02575,-0.0018 -0.03951,-0.0025 -0.04127,-0.0028 -0.07796,-0.0042 -0.111478,-0.0035 -0.0127,3.53e-4 -0.02328,3.53e-4 -0.03492,0.0011 -0.03634,0.0021 -0.06809,0.0046 -0.0882,0.0074 -0.02081,0.0032 -0.0314,0.0053 -0.0321,0.0053 -3.44e-4,0 -0.01129,0.0011 -0.03175,0.0039 -0.01376,0.0018 -0.03246,0.0049 -0.05397,0.0092 -0.0063,0.0014 -0.01305,0.0032 -0.02011,0.0046 -0.01729,0.0035 -0.03563,0.0081 -0.05609,0.01376 -0.0099,0.0025 -0.02011,0.0053 -0.03069,0.0085 -0.02081,0.006 -0.04198,0.01305 -0.06526,0.02081 -0.01199,0.0042 -0.02399,0.0085 -0.03669,0.01341 -0.02434,0.0088 -0.04974,0.01975 -0.07585,0.03175 -0.0099,0.0039 -0.01905,0.0071 -0.02928,0.01199 -0.0018,0.0011 -0.0042,0.0025 -0.006,0.0035 -0.05715,0.02716 -0.117475,0.06174 -0.178505,0.103011 -0.0056,0.0035 -0.01129,0.0053 -0.01693,0.0095 -0.0046,0.0032 -0.0092,0.0071 -0.01305,0.01023 -0.04022,0.02822 -0.08008,0.05927 -0.119591,0.09454 -0.0039,0.0032 -0.0078,0.0053 -0.01129,0.0088 l -0.0021,0.0021 c -0.114653,0.103364 -0.225072,0.237067 -0.318558,0.409575 -7.15e-4,0.0014 -0.0018,0.0025 -0.0025,0.0039 -0.0028,0.0056 -0.0049,0.0127 -0.0081,0.0187 -0.0314,0.05997 -0.06033,0.125236 -0.08714,0.195086 -0.0035,0.0099 -0.0081,0.01729 -0.01199,0.02716 -0.0088,0.02364 -0.01517,0.05045 -0.02364,0.07514 -0.0092,0.02963 -0.01905,0.05856 -0.02787,0.08996 -0.01164,0.04304 -0.02152,0.08925 -0.0314,0.135467 -0.0063,0.03069 -0.01376,0.06033 -0.0194,0.09243 -0.0095,0.05398 -0.01588,0.112184 -0.02258,0.170392 -0.0032,0.02893 -0.0078,0.05574 -0.01023,0.08608 -0.0074,0.09031 -0.01199,0.185208 -0.01235,0.28575 3.43e-4,0.0011 0.0021,0.0088 0.0028,0.01834 3.44e-4,0.0021 0,0.0053 0,0.0081 3.44e-4,0.0085 -0.0014,0.01905 -0.0042,0.02999 -0.0025,0.0095 -0.0049,0.0194 -0.01129,0.02928 0,0 -3.44e-4,3.52e-4 -3.44e-4,7.04e-4 -0.0088,0.01305 -0.02187,0.02611 -0.04092,0.03704 -0.0042,0.0028 -0.0187,0.01023 -0.04022,0.02046 -0.0025,0.0011 -0.0039,0.0021 -0.0067,0.0032 -0.02505,0.01199 -0.05997,0.02893 -0.101952,0.04939 -0.02999,0.01446 -0.0635,0.02999 -0.100895,0.04868 -0.01517,0.0078 -0.03069,0.01517 -0.04727,0.02328 -0.03387,0.01623 -0.06985,0.03422 -0.10795,0.05362 -0.0187,0.0092 -0.03598,0.01799 -0.05503,0.02787 -0.04939,0.02469 -0.1016,0.05186 -0.155928,0.08008 -0.01905,0.0099 -0.03775,0.01976 -0.0575,0.03034 -0.05891,0.03069 -0.119239,0.06279 -0.18168,0.09737 -0.01411,0.0078 -0.02858,0.01587 -0.04304,0.02364 -0.05997,0.03316 -0.121003,0.06773 -0.183092,0.103362 -0.01199,0.0071 -0.02399,0.01341 -0.03634,0.02081 -0.0695,0.04022 -0.139347,0.0822 -0.20955,0.125236 l -0.04762,0.02893 c -0.07126,0.04445 -0.142522,0.08996 -0.213078,0.136525 -0.01129,0.0078 -0.02223,0.01517 -0.03316,0.02258 -0.02858,0.01905 -0.0575,0.0381 -0.08572,0.05786 -0.0194,0.01341 -0.03739,0.02752 -0.05644,0.04092 -0.04868,0.03422 -0.09596,0.06914 -0.142875,0.104422 -0.03422,0.02575 -0.06809,0.05151 -0.101248,0.07796 -0.04551,0.03598 -0.08855,0.07232 -0.13088,0.108655 -0.02117,0.01799 -0.0441,0.03563 -0.06456,0.05327 -0.0092,0.0088 -0.01658,0.01729 -0.02575,0.02611 -0.0575,0.05256 -0.110068,0.105481 -0.15981,0.159456 -0.01305,0.01376 -0.02928,0.02752 -0.04163,0.04127 -0.0032,0.0035 -0.0053,0.0071 -0.0085,0.01023 -0.01341,0.01552 -0.02434,0.0314 -0.03704,0.04692 -0.02752,0.03387 -0.05644,0.06738 -0.08008,0.100542 -0.006,0.0088 -0.01023,0.01764 -0.01623,0.02611 -0.01023,0.01552 -0.01905,0.03069 -0.02858,0.04621 -0.01199,0.0194 -0.02575,0.03881 -0.03598,0.05786 -0.01446,0.02681 -0.0247,0.05327 -0.03669,0.07973 -0.0032,0.0085 -0.0081,0.01764 -0.01164,0.02611 -0.0021,0.0049 -0.0053,0.01023 -0.0067,0.01482 -0.01975,0.05433 -0.03281,0.107597 -0.03845,0.160514 -0.02963,0.279752 0.09137,0.450497 0.276929,0.551744 l 1.373364,0.747183 c -0.01341,0.02646 -0.0247,0.04939 -0.03951,0.07796 -0.03669,0.07126 -0.0755,0.14852 -0.117475,0.231775 -0.01482,0.02893 -0.02787,0.05539 -0.04304,0.08537 -0.05256,0.105128 -0.107245,0.215195 -0.164746,0.334788 l -0.0021,0.0042 c -0.0568,0.118533 -0.115358,0.244122 -0.174624,0.374297 -0.01411,0.03105 -0.02822,0.0628 -0.04233,0.09455 -0.04621,0.103363 -0.09207,0.209197 -0.138288,0.317852 -0.01587,0.03845 -0.03175,0.0755 -0.04762,0.1143 -0.05433,0.131939 -0.107245,0.265995 -0.15875,0.403225 -0.0042,0.01094 -0.0081,0.02117 -0.01235,0.03175 -0.0032,0.0088 -0.0071,0.01729 -0.0099,0.02611 -0.04586,0.12453 -0.08784,0.251178 -0.12947,0.37853 -0.0095,0.02963 -0.02046,0.05821 -0.02999,0.08784 -0.05186,0.1651 -0.100189,0.331611 -0.141464,0.498122 -0.0071,0.02258 -0.125941,0.401814 0.01376,0.478014 l 1.719439,0.935214 c -0.01834,-0.01023 -0.03175,-0.02575 -0.04198,-0.04445 0.02222,0.04092 0.06103,0.06456 0.125589,0.05574 l 2.258483,-0.3175 c 0.03246,-0.0042 0.316442,-0.05503 0.511528,-0.452967 0.01623,-0.03104 0.221897,-0.429683 0.402519,-0.790928 l 1.490486,0.811037 c -0.0011,-7.14e-4 -0.0025,-0.0014 -0.0035,-0.0021 0.134408,0.07444 0.254705,0.06174 0.277636,0.05856 l 2.254562,-0.316795 c 0.26035,-0.03669 0.105127,-0.493184 0.09701,-0.51682 -0.330905,-1.249186 -1.057627,-2.391833 -1.33103,-2.862791 -0.27305,-0.473428 0.156633,-0.533753 0.179211,-0.537281 z"
         style="display:inline;fill:#006730;fill-opacity:1;stroke:none;stroke-width:0.15032448;stroke-linecap:butt;stroke-linejoin:miter;stroke-miterlimit:4;stroke-dasharray:none;stroke-opacity:1"
         id="path17937-0"
         inkscape:connector-curvature="0" />
      <path
         inkscape:connector-curvature="0"
         id="path19951"
         style="display:inline;fill:#00a14b;fill-opacity:1;fill-rule:nonzero;stroke:#000000;stroke-width:0.05207319;stroke-miterlimit:4;stroke-dasharray:none;stroke-opacity:1"
         d="m 75.15731,71.596754 c 0.202141,-0.02822 1.290108,-0.103717 1.286933,1.573036 -0.0011,0.0046 -0.02505,0.08608 0.0508,0.109361 0.07655,0.0254 2.621139,0.432858 2.720975,1.367719 0.08361,0.779639 -1.071033,1.006475 -1.4478,1.059039 -0.07267,0.01058 -0.1143,0.01411 -0.116769,0.01411 -0.02223,0.0035 -0.451909,0.06385 -0.178859,0.537633 0.273403,0.470959 0.999772,1.613253 1.331031,2.862439 0.0081,0.02399 0.162983,0.480483 -0.09984,0.517172 l -2.254956,0.316795 c -0.03528,0.0053 -0.319969,0.03422 -0.513644,-0.309034 -0.02434,-0.04022 -0.484364,-0.806802 -0.627945,-1.088319 -0.02787,-0.05397 -0.06174,-0.131939 -0.194733,-0.122061 -0.132997,0.02787 -0.166864,0.115005 -0.195086,0.176742 -0.144639,0.322086 -0.608189,1.218847 -0.632531,1.266119 -0.194733,0.397933 -0.479425,0.448381 -0.51188,0.452967 l -2.260953,0.317852 c -0.259644,0.03634 -0.103364,-0.46355 -0.09525,-0.490008 0.33655,-1.343025 1.067506,-2.68993 1.342319,-3.238147 0.275167,-0.551039 -0.153811,-0.490714 -0.176741,-0.487186 -0.0021,3.44e-4 -0.04375,0.0081 -0.117122,0.0187 -0.37712,0.05292 -1.533878,0.151342 -1.446742,-0.652639 0.103717,-0.963083 2.650772,-2.08668 2.726972,-2.133952 0.07937,-0.0448 0.05503,-0.119592 0.05398,-0.123473 0.0032,-1.676752 1.091847,-1.907822 1.293636,-1.936044 0.02081,-0.0025 0.0314,-0.0035 0.0321,-0.0035 7.15e-4,0 0.01164,-0.0025 0.0321,-0.0053" />
    </g>
  </g>
</svg>
