<?xml version="1.0" encoding="UTF-8" standalone="no"?>
<!-- Created with Inkscape (http://www.inkscape.org/) -->

<svg
   xmlns:dc="http://purl.org/dc/elements/1.1/"
   xmlns:cc="http://creativecommons.org/ns#"
   xmlns:rdf="http://www.w3.org/1999/02/22-rdf-syntax-ns#"
   xmlns:svg="http://www.w3.org/2000/svg"
   xmlns="http://www.w3.org/2000/svg"
   xmlns:sodipodi="http://sodipodi.sourceforge.net/DTD/sodipodi-0.dtd"
   xmlns:inkscape="http://www.inkscape.org/namespaces/inkscape"
   width="10.286741mm"
   height="10.297576mm"
   viewBox="0 0 10.286741 10.297576"
   version="1.1"
   id="svg59498"
   inkscape:version="0.92.3 (2405546, 2018-03-11)"
   sodipodi:docname="MeepleBig_yellow_f.svg">
  <defs
     id="defs59492" />
  <sodipodi:namedview
     id="base"
     pagecolor="#ffffff"
     bordercolor="#666666"
     borderopacity="1.0"
     inkscape:pageopacity="0.0"
     inkscape:pageshadow="2"
     inkscape:zoom="15.839192"
     inkscape:cx="6.3719606"
     inkscape:cy="17.931911"
     inkscape:document-units="mm"
     inkscape:current-layer="layer1"
     showgrid="false"
     inkscape:window-width="1920"
     inkscape:window-height="1017"
     inkscape:window-x="-8"
     inkscape:window-y="-8"
     inkscape:window-maximized="1" />
  <metadata
     id="metadata59495">
    <rdf:RDF>
      <cc:Work
         rdf:about="">
        <dc:format>image/svg+xml</dc:format>
        <dc:type
           rdf:resource="http://purl.org/dc/dcmitype/StillImage" />
        <dc:title />
      </cc:Work>
    </rdf:RDF>
  </metadata>
  <g
     inkscape:label="Ebene 1"
     inkscape:groupmode="layer"
     id="layer1"
     transform="translate(249.92412,86.319519)">
    <g
       transform="matrix(-1.0209274,0,0,1.0148089,-181.71866,-157.94231)"
       id="g58042"
       inkscape:label="MeepleBig_yellow"
       style="stroke-width:0.98244995">
      <path
         d="m 65.163438,75.720203 c 0.0025,0 0.0441,-0.0039 0.116769,-0.01411 0.376414,-0.05256 1.531409,-0.2794 1.4478,-1.059392 -0.03034,-0.290689 -0.297744,-0.530578 -0.65405,-0.723547 l 0.0042,0.0021 -0.0071,-0.0039 c -0.0014,-7.05e-4 -0.0028,-0.0014 -0.0039,-0.0021 l -1.708503,-0.929216 c -0.03881,-0.02117 -0.07867,-0.04163 -0.119239,-0.06174 -0.0046,-0.0021 -0.0095,-0.0042 -0.01411,-0.0063 -0.07973,-0.03881 -0.162631,-0.07514 -0.24765,-0.109714 -0.01482,-0.006 -0.02928,-0.01164 -0.0441,-0.01799 -0.07444,-0.640997 -0.341489,-0.947914 -0.615598,-1.089378 0.006,0.0035 0.01235,0.0042 0.01834,0.0078 l -1.719086,-0.935214 c -0.01164,-0.0063 -0.02328,-0.01235 -0.03493,-0.01834 -0.04022,-0.0194 -0.07867,-0.02963 -0.117475,-0.04339 -0.02293,-0.0074 -0.04551,-0.0187 -0.06809,-0.0247 -0.0032,-0.0011 -0.0067,-0.0032 -0.0099,-0.0039 -0.0575,-0.01482 -0.111478,-0.02258 -0.162631,-0.02822 -0.01446,-0.0014 -0.02611,-0.0018 -0.03986,-0.0025 -0.04127,-0.0028 -0.07761,-0.0042 -0.111125,-0.0035 -0.01305,3.53e-4 -0.02328,3.53e-4 -0.03493,0.0011 -0.03634,0.0021 -0.06809,0.0046 -0.08819,0.0074 -0.02081,0.0032 -0.03175,0.0053 -0.03245,0.0053 -3.53e-4,0 -0.01094,0.0011 -0.03175,0.0039 -0.01376,0.0018 -0.03281,0.0049 -0.05433,0.0095 -0.006,0.0011 -0.01235,0.0028 -0.01905,0.0042 -0.01764,0.0035 -0.03634,0.0081 -0.0575,0.01376 -0.0095,0.0025 -0.01976,0.0053 -0.03034,0.0085 -0.02117,0.0063 -0.04304,0.01341 -0.06667,0.02152 -0.01164,0.0039 -0.02258,0.0078 -0.03457,0.01235 -0.02716,0.01023 -0.05539,0.02223 -0.08502,0.03563 -0.0078,0.0032 -0.01411,0.0056 -0.02187,0.0092 -0.0014,7.05e-4 -0.0028,0.0018 -0.0042,0.0025 -0.05715,0.02716 -0.117475,0.06138 -0.178506,0.102659 -0.0067,0.0042 -0.01305,0.0064 -0.0194,0.01094 -0.0049,0.0035 -0.0099,0.0081 -0.01482,0.01164 -0.03775,0.02646 -0.07479,0.05609 -0.111831,0.08855 -0.006,0.0053 -0.01199,0.0085 -0.01764,0.01376 -0.0011,0.0011 -0.0018,0.0021 -0.0028,0.0028 -0.03775,0.03387 -0.07408,0.07056 -0.110419,0.111125 l -0.0039,0.0042 c -0.02223,0.02505 -0.04304,0.05397 -0.06456,0.08185 -0.01305,0.01693 -0.02681,0.0321 -0.03951,0.05045 -3.53e-4,3.53e-4 -7.06e-4,0.0011 -0.0011,0.0014 -0.0067,0.0092 -0.01199,0.02081 -0.0187,0.03034 -0.02716,0.04092 -0.05433,0.0829 -0.07937,0.129117 -7.05e-4,0.0018 -0.0018,0.0032 -0.0028,0.0049 -0.0039,0.0067 -0.0067,0.01588 -0.01058,0.02293 -0.03034,0.05821 -0.05821,0.121356 -0.08396,0.188384 -0.0042,0.01058 -0.0092,0.0187 -0.01305,0.02928 -0.0088,0.02505 -0.01623,0.05362 -0.02434,0.07937 -0.0092,0.02752 -0.01799,0.05433 -0.02611,0.08326 -0.0127,0.04515 -0.02293,0.09349 -0.03316,0.142522 -0.0063,0.02858 -0.0127,0.05609 -0.01834,0.08608 -0.0095,0.05644 -0.01693,0.116416 -0.02328,0.177447 -0.0032,0.02681 -0.0074,0.0515 -0.0099,0.07937 -0.0074,0.09066 -0.01199,0.185561 -0.01235,0.286455 3.52e-4,0.0011 0.0021,0.0085 0.0035,0.01693 3.53e-4,0.0028 -3.52e-4,0.0074 0,0.01129 0,0.0078 -0.0014,0.01729 -0.0035,0.02716 -0.0025,0.0099 -0.0049,0.02011 -0.01164,0.03034 -0.0092,0.01341 -0.02258,0.02646 -0.04198,0.03775 -0.0046,0.0028 -0.01905,0.0099 -0.0388,0.0194 -0.0053,0.0028 -0.0092,0.0046 -0.01552,0.0078 -0.0018,0.0011 -0.0053,0.0025 -0.0078,0.0035 -0.0194,0.0095 -0.04339,0.02081 -0.07056,0.03387 -0.0011,7.06e-4 -0.0021,0.0011 -0.0032,0.0018 -0.0381,0.01834 -0.08184,0.03916 -0.132644,0.06456 -0.0032,0.0011 -0.0067,0.0028 -0.0095,0.0042 -0.04269,0.02117 -0.09031,0.0448 -0.140759,0.0702 -0.01235,0.006 -0.02293,0.01164 -0.03528,0.01764 -0.05327,0.02681 -0.110066,0.05609 -0.16898,0.08678 -0.01411,0.0078 -0.02822,0.01517 -0.04304,0.02293 -0.06138,0.03246 -0.124883,0.06597 -0.1905,0.102306 l -0.03739,0.02046 c -0.06138,0.03422 -0.124178,0.0695 -0.188031,0.106186 -0.01129,0.0067 -0.02258,0.0127 -0.03422,0.01976 -0.0695,0.04022 -0.140053,0.08255 -0.210256,0.125589 -0.01552,0.0095 -0.03069,0.0187 -0.04586,0.02822 -0.07161,0.04445 -0.142875,0.08996 -0.213431,0.136878 -0.01164,0.0078 -0.02258,0.01517 -0.03387,0.02293 -0.02787,0.01834 -0.05574,0.03704 -0.08326,0.05609 -0.0194,0.01341 -0.03704,0.02752 -0.05609,0.04092 -0.04974,0.03528 -0.09878,0.07055 -0.146755,0.107244 -0.0321,0.02434 -0.06385,0.04833 -0.09525,0.07338 -0.04974,0.03916 -0.09666,0.07867 -0.142875,0.118886 -0.01764,0.01517 -0.0381,0.03034 -0.05539,0.04551 -0.0081,0.0074 -0.01411,0.01482 -0.02222,0.02222 -0.06068,0.05574 -0.116417,0.111478 -0.168628,0.168275 -0.01164,0.01235 -0.02611,0.02434 -0.03704,0.03669 -0.0028,0.0032 -0.0049,0.0067 -0.0081,0.0095 -0.01376,0.01623 -0.02505,0.03246 -0.0381,0.04833 -0.02716,0.03351 -0.05609,0.06668 -0.07973,0.09984 -0.0063,0.0095 -0.01094,0.0187 -0.01693,0.02787 -0.0099,0.01411 -0.01799,0.02822 -0.02681,0.04233 -0.01235,0.02011 -0.02646,0.04022 -0.03704,0.05997 -0.01376,0.02611 -0.02399,0.05186 -0.03528,0.07796 -0.0042,0.0095 -0.0095,0.01976 -0.01341,0.02963 -0.0018,0.0046 -0.0046,0.0088 -0.006,0.01341 -0.02011,0.05433 -0.03316,0.107597 -0.0388,0.160514 -0.03034,0.280105 0.09031,0.45085 0.276225,0.552097 l 1.373716,0.74683 c -0.02011,0.03916 -0.03986,0.07867 -0.06244,0.122414 -0.02469,0.04798 -0.04974,0.09772 -0.07726,0.151342 -0.02328,0.04621 -0.04551,0.09102 -0.07091,0.141111 -0.03704,0.07444 -0.0762,0.153458 -0.115711,0.235656 -0.01658,0.03387 -0.0321,0.06491 -0.04904,0.100188 -0.05221,0.109009 -0.106187,0.225073 -0.160514,0.343959 -0.0194,0.04304 -0.03845,0.08643 -0.05786,0.129822 -0.04057,0.09102 -0.08079,0.183797 -0.121003,0.2794 -0.01976,0.04657 -0.03916,0.09278 -0.05856,0.140406 -0.04939,0.119591 -0.09737,0.2413 -0.143933,0.365477 -0.0081,0.02223 -0.01693,0.04304 -0.02505,0.06526 -0.0021,0.0053 -0.0042,0.01023 -0.0063,0.01588 -0.03775,0.103364 -0.07232,0.209197 -0.107245,0.314325 -0.01799,0.05327 -0.03739,0.105128 -0.05433,0.158397 -0.05186,0.164748 -0.09984,0.330906 -0.141112,0.497064 -0.0071,0.02258 -0.125941,0.402872 0.0127,0.478367 l 1.719439,0.935567 c -0.01834,-0.01023 -0.03175,-0.02575 -0.04198,-0.04445 0.02222,0.04057 0.06032,0.06456 0.124177,0.05574 l 2.260953,-0.318205 c 0.03246,-0.0042 0.316795,-0.05503 0.511881,-0.452967 0.01588,-0.03104 0.221544,-0.429683 0.402166,-0.790575 l 1.491192,0.811389 c -0.0014,-7.05e-4 -0.0025,-0.0018 -0.0039,-0.0025 0.13335,0.07408 0.252237,0.06174 0.274462,0.05856 L 66.2153,79.637448 c 0.26035,-0.03669 0.10795,-0.493536 0.100189,-0.517172 -0.331258,-1.249186 -1.057628,-2.391833 -1.33103,-2.862791 -0.275873,-0.473075 0.15628,-0.533753 0.178858,-0.537281 z"
         style="display:inline;fill:none;fill-opacity:1;stroke:#000000;stroke-width:0.15031485;stroke-linecap:butt;stroke-linejoin:miter;stroke-miterlimit:10;stroke-dasharray:none;stroke-opacity:1"
         id="path17929"
         inkscape:connector-curvature="0" />
      <path
         d="m 65.171238,75.716703 c 0.0025,0 0.0441,-0.0039 0.116769,-0.01411 0.376414,-0.05256 1.531409,-0.2794 1.4478,-1.059392 -0.03034,-0.290689 -0.297744,-0.530578 -0.65405,-0.723547 l 0.0042,0.0021 -0.0071,-0.0039 c -0.0014,-7.14e-4 -0.0028,-0.0014 -0.0039,-0.0021 l -1.708503,-0.929216 c -0.03881,-0.02117 -0.07867,-0.04163 -0.119239,-0.06174 -0.0046,-0.0021 -0.0095,-0.0042 -0.01411,-0.0063 -0.07973,-0.03881 -0.162631,-0.07514 -0.24765,-0.109714 -0.01482,-0.006 -0.02928,-0.01164 -0.0441,-0.01799 -0.07444,-0.640997 -0.341489,-0.947914 -0.615598,-1.089378 0.006,0.0035 0.01235,0.0042 0.01834,0.0078 l -1.719086,-0.935214 c -0.01164,-0.0063 -0.02328,-0.01235 -0.03493,-0.01834 -0.04022,-0.0194 -0.07867,-0.02963 -0.117475,-0.04339 -0.02293,-0.0074 -0.04551,-0.0187 -0.06809,-0.0247 -0.0032,-0.0011 -0.0067,-0.0032 -0.0099,-0.0039 -0.0575,-0.01482 -0.111478,-0.02258 -0.162631,-0.02822 -0.01446,-0.0014 -0.02611,-0.0018 -0.03986,-0.0025 -0.04127,-0.0028 -0.07761,-0.0042 -0.111125,-0.0035 -0.01305,3.53e-4 -0.02328,3.53e-4 -0.03493,0.0011 -0.03634,0.0021 -0.06809,0.0046 -0.08819,0.0074 -0.02081,0.0032 -0.03175,0.0053 -0.03245,0.0053 -3.44e-4,0 -0.01094,0.0011 -0.03175,0.0039 -0.01376,0.0018 -0.03281,0.0049 -0.05433,0.0095 -0.006,0.0011 -0.01235,0.0028 -0.01905,0.0042 -0.01764,0.0035 -0.03634,0.0081 -0.0575,0.01376 -0.0095,0.0025 -0.01976,0.0053 -0.03034,0.0085 -0.02117,0.0063 -0.04304,0.01341 -0.06667,0.02152 -0.01164,0.0039 -0.02258,0.0078 -0.03457,0.01235 -0.02716,0.01023 -0.05539,0.02223 -0.08502,0.03563 -0.0078,0.0032 -0.01411,0.0056 -0.02187,0.0092 -0.0014,7.05e-4 -0.0028,0.0018 -0.0042,0.0025 -0.05715,0.02716 -0.117475,0.06138 -0.178506,0.102659 -0.0067,0.0042 -0.01305,0.0064 -0.0194,0.01094 -0.0049,0.0035 -0.0099,0.0081 -0.01482,0.01164 -0.03775,0.02646 -0.07479,0.05609 -0.111831,0.08855 -0.006,0.0053 -0.01199,0.0085 -0.01764,0.01376 -0.0011,0.0011 -0.0018,0.0021 -0.0028,0.0028 -0.03775,0.03387 -0.07408,0.07056 -0.110419,0.111125 l -0.0039,0.0042 c -0.02223,0.02505 -0.04304,0.05397 -0.06456,0.08185 -0.01305,0.01693 -0.02681,0.0321 -0.03951,0.05045 -3.44e-4,3.52e-4 -7.14e-4,0.0011 -0.0011,0.0014 -0.0067,0.0092 -0.01199,0.02081 -0.0187,0.03034 -0.02716,0.04092 -0.05433,0.0829 -0.07937,0.129117 -7.14e-4,0.0018 -0.0018,0.0032 -0.0028,0.0049 -0.0039,0.0067 -0.0067,0.01588 -0.01058,0.02293 -0.03034,0.05821 -0.05821,0.121356 -0.08396,0.188384 -0.0042,0.01058 -0.0092,0.0187 -0.01305,0.02928 -0.0088,0.02505 -0.01623,0.05362 -0.02434,0.07937 -0.0092,0.02752 -0.01799,0.05433 -0.02611,0.08326 -0.0127,0.04515 -0.02293,0.09349 -0.03316,0.142522 -0.0063,0.02858 -0.0127,0.05609 -0.01834,0.08608 -0.0095,0.05644 -0.01693,0.116416 -0.02328,0.177447 -0.0032,0.02681 -0.0074,0.0515 -0.0099,0.07937 -0.0074,0.09066 -0.01199,0.185561 -0.01235,0.286455 3.44e-4,0.0011 0.0021,0.0085 0.0035,0.01693 3.43e-4,0.0028 -3.44e-4,0.0074 0,0.01129 0,0.0078 -0.0014,0.01729 -0.0035,0.02716 -0.0025,0.0099 -0.0049,0.02011 -0.01164,0.03034 -0.0092,0.01341 -0.02258,0.02646 -0.04198,0.03775 -0.0046,0.0028 -0.01905,0.0099 -0.0388,0.0194 -0.0053,0.0028 -0.0092,0.0046 -0.01552,0.0078 -0.0018,0.0011 -0.0053,0.0025 -0.0078,0.0035 -0.0194,0.0095 -0.04339,0.02081 -0.07056,0.03387 -0.0011,7.06e-4 -0.0021,0.0011 -0.0032,0.0018 -0.0381,0.01834 -0.08184,0.03916 -0.132645,0.06456 -0.0032,0.0011 -0.0067,0.0028 -0.0095,0.0042 -0.04269,0.02117 -0.09031,0.0448 -0.140759,0.0702 -0.01235,0.006 -0.02293,0.01164 -0.03528,0.01764 -0.05327,0.02681 -0.110066,0.05609 -0.16898,0.08678 -0.01411,0.0078 -0.02822,0.01517 -0.04304,0.02293 -0.06138,0.03246 -0.124883,0.06597 -0.1905,0.102306 l -0.03739,0.02046 c -0.06138,0.03422 -0.124178,0.0695 -0.188031,0.106186 -0.01129,0.0067 -0.02258,0.0127 -0.03422,0.01976 -0.0695,0.04022 -0.140053,0.08255 -0.210256,0.125589 -0.01552,0.0095 -0.03069,0.0187 -0.04586,0.02822 -0.07161,0.04445 -0.142875,0.08996 -0.213431,0.136878 -0.01164,0.0078 -0.02258,0.01517 -0.03387,0.02293 -0.02787,0.01834 -0.05574,0.03704 -0.08326,0.05609 -0.0194,0.01341 -0.03704,0.02752 -0.05609,0.04092 -0.04974,0.03528 -0.09878,0.07055 -0.146755,0.107244 -0.0321,0.02434 -0.06385,0.04833 -0.09525,0.07338 -0.04974,0.03916 -0.09666,0.07867 -0.142875,0.118886 -0.01764,0.01517 -0.0381,0.03034 -0.05539,0.04551 -0.0081,0.0074 -0.01411,0.01482 -0.02222,0.02222 -0.06068,0.05574 -0.116417,0.111478 -0.168628,0.168275 -0.01164,0.01235 -0.02611,0.02434 -0.03704,0.03669 -0.0028,0.0032 -0.0049,0.0067 -0.0081,0.0095 -0.01376,0.01623 -0.02505,0.03246 -0.0381,0.04833 -0.02716,0.03351 -0.05609,0.06668 -0.07973,0.09984 -0.0063,0.0095 -0.01094,0.0187 -0.01693,0.02787 -0.0099,0.01411 -0.01799,0.02822 -0.02681,0.04233 -0.01235,0.02011 -0.02646,0.04022 -0.03704,0.05997 -0.01376,0.02611 -0.02399,0.05186 -0.03528,0.07796 -0.0042,0.0095 -0.0095,0.01976 -0.01341,0.02963 -0.0018,0.0046 -0.0046,0.0088 -0.006,0.01341 -0.02011,0.05433 -0.03316,0.107597 -0.0388,0.160514 -0.03034,0.280105 0.09031,0.45085 0.276225,0.552097 l 1.373716,0.74683 c -0.02011,0.03916 -0.03986,0.07867 -0.06244,0.122414 -0.02469,0.04798 -0.04974,0.09772 -0.07726,0.151342 -0.02328,0.04621 -0.04551,0.09102 -0.07091,0.141111 -0.03704,0.07444 -0.0762,0.153458 -0.115711,0.235656 -0.01658,0.03387 -0.0321,0.06491 -0.04904,0.100188 -0.05221,0.109009 -0.106187,0.225073 -0.160514,0.343959 -0.0194,0.04304 -0.03845,0.08643 -0.05786,0.129822 -0.04057,0.09102 -0.08079,0.183797 -0.121003,0.2794 -0.01976,0.04657 -0.03916,0.09278 -0.05856,0.140406 -0.04939,0.119591 -0.09737,0.2413 -0.143933,0.365477 -0.0081,0.02223 -0.01693,0.04304 -0.02505,0.06526 -0.0021,0.0053 -0.0042,0.01023 -0.0063,0.01588 -0.03775,0.103364 -0.07232,0.209197 -0.107245,0.314325 -0.01799,0.05327 -0.03739,0.105128 -0.05433,0.158397 -0.05186,0.164749 -0.09984,0.330907 -0.141112,0.497064 -0.0071,0.02258 -0.125941,0.402873 0.0127,0.478368 l 1.719439,0.935567 c -0.01834,-0.01023 -0.03175,-0.02575 -0.04198,-0.04445 0.02222,0.04057 0.06032,0.06456 0.124177,0.05574 l 2.260953,-0.318205 c 0.03246,-0.0042 0.316795,-0.05503 0.511881,-0.452967 0.01588,-0.03104 0.221544,-0.429683 0.402166,-0.790575 l 1.491192,0.811389 c -0.0014,-7.15e-4 -0.0025,-0.0018 -0.0039,-0.0025 0.13335,0.07408 0.252237,0.06174 0.274462,0.05856 l 2.254611,-0.316802 c 0.26035,-0.03669 0.10795,-0.493536 0.100189,-0.517172 -0.331258,-1.249186 -1.057628,-2.391833 -1.33103,-2.862791 -0.275873,-0.473075 0.15628,-0.533753 0.178858,-0.537281 z"
         style="display:inline;fill:#a38e0f;fill-opacity:1;stroke:none;stroke-width:0.15031485;stroke-linecap:butt;stroke-linejoin:miter;stroke-miterlimit:10;stroke-dasharray:none;stroke-opacity:1"
         id="path17929-9"
         inkscape:connector-curvature="0" />
      <path
         inkscape:connector-curvature="0"
         id="path19431"
         style="display:inline;fill:#ffde17;fill-opacity:1;fill-rule:nonzero;stroke:#000000;stroke-width:0.05206984;stroke-miterlimit:4;stroke-dasharray:none;stroke-opacity:1"
         d="m 62.677099,71.593438 c 0.201436,-0.02822 1.287286,-0.103364 1.284464,1.573389 -0.0011,0.0046 -0.02293,0.08573 0.05327,0.108655 0.0762,0.02575 2.623608,0.432859 2.720622,1.368072 0.08361,0.779639 -1.071034,1.006475 -1.4478,1.059039 -0.07267,0.01058 -0.113947,0.01411 -0.116417,0.01411 -0.02258,0.0035 -0.455083,0.06421 -0.18168,0.537986 0.275872,0.470606 1.000125,1.613253 1.330677,2.862439 0.0085,0.02399 0.163336,0.480131 -0.09666,0.51682 l -2.255308,0.316794 c -0.03563,0.0053 -0.322792,0.03457 -0.516114,-0.308327 -0.02399,-0.04057 -0.481542,-0.807509 -0.627945,-1.089025 -0.0254,-0.05398 -0.05927,-0.131939 -0.191911,-0.122061 -0.136172,0.02822 -0.167217,0.115005 -0.195439,0.176741 -0.147461,0.322439 -0.607836,1.218847 -0.632178,1.26612 -0.195086,0.397933 -0.482247,0.448733 -0.515055,0.453319 l -2.257778,0.317148 c -0.259997,0.03669 -0.103364,-0.463197 -0.09525,-0.489655 0.336197,-1.343025 1.064683,-2.689578 1.339497,-3.237795 0.275167,-0.551039 -0.151694,-0.490714 -0.174272,-0.487539 -0.0021,3.44e-4 -0.04374,0.0081 -0.116769,0.0187 -0.377473,0.05292 -1.533878,0.151342 -1.447095,-0.652638 0.103717,-0.963084 2.651125,-2.086681 2.727325,-2.133953 0.07655,-0.04445 0.05503,-0.119592 0.05398,-0.123472 0.0032,-1.676753 1.091847,-1.907823 1.293636,-1.936045 0.02081,-0.0025 0.0314,-0.0035 0.0321,-0.0035 7.15e-4,-3.52e-4 0.01129,-0.0025 0.0321,-0.0053" />
    </g>
  </g>
</svg>
