<?xml version="1.0" encoding="UTF-8" standalone="no"?>
<!-- Created with Inkscape (http://www.inkscape.org/) -->

<svg
   xmlns:dc="http://purl.org/dc/elements/1.1/"
   xmlns:cc="http://creativecommons.org/ns#"
   xmlns:rdf="http://www.w3.org/1999/02/22-rdf-syntax-ns#"
   xmlns:svg="http://www.w3.org/2000/svg"
   xmlns="http://www.w3.org/2000/svg"
   xmlns:sodipodi="http://sodipodi.sourceforge.net/DTD/sodipodi-0.dtd"
   xmlns:inkscape="http://www.inkscape.org/namespaces/inkscape"
   width="9.0320759mm"
   height="10.90574mm"
   viewBox="0 0 9.0320759 10.90574"
   version="1.1"
   id="svg158643"
   inkscape:version="0.92.3 (2405546, 2018-03-11)"
   sodipodi:docname="Abbot_black_f.svg">
  <defs
     id="defs158637">
    <clipPath
       clipPathUnits="userSpaceOnUse"
       id="clipPath146738">
      <path
         d="m 350.898,440.711 h 25.016 v 32.707 h -25.016 z"
         id="path146736"
         inkscape:connector-curvature="0" />
    </clipPath>
    <clipPath
       clipPathUnits="userSpaceOnUse"
       id="clipPath146748">
      <path
         d="M 0,0 H 576 V 903 H 0 Z"
         id="path146746"
         inkscape:connector-curvature="0" />
    </clipPath>
    <clipPath
       clipPathUnits="userSpaceOnUse"
       id="clipPath146760">
      <path
         d="M 0,0 H 576 V 903 H 0 Z"
         id="path146758"
         inkscape:connector-curvature="0" />
    </clipPath>
    <clipPath
       clipPathUnits="userSpaceOnUse"
       id="clipPath146770">
      <path
         d="m 364.477,454.855 h 9.699 v 3.457 h -9.699 z"
         id="path146768"
         inkscape:connector-curvature="0" />
    </clipPath>
    <clipPath
       clipPathUnits="userSpaceOnUse"
       id="clipPath146780">
      <path
         d="M 0,0 H 576 V 903 H 0 Z"
         id="path146778"
         inkscape:connector-curvature="0" />
    </clipPath>
    <clipPath
       clipPathUnits="userSpaceOnUse"
       id="clipPath146792">
      <path
         d="M 0,0 H 576 V 903 H 0 Z"
         id="path146790"
         inkscape:connector-curvature="0" />
    </clipPath>
    <clipPath
       clipPathUnits="userSpaceOnUse"
       id="clipPath146802">
      <path
         d="m 364,454 h 11 v 5 h -11 z"
         id="path146800"
         inkscape:connector-curvature="0" />
    </clipPath>
    <clipPath
       clipPathUnits="userSpaceOnUse"
       id="clipPath146812">
      <path
         d="M 0,0 H 576 V 903 H 0 Z"
         id="path146810"
         inkscape:connector-curvature="0" />
    </clipPath>
    <clipPath
       clipPathUnits="userSpaceOnUse"
       id="clipPath146822">
      <path
         d="m 364,454 h 11 v 5 h -11 z"
         id="path146820"
         inkscape:connector-curvature="0" />
    </clipPath>
    <clipPath
       clipPathUnits="userSpaceOnUse"
       id="clipPath146828">
      <path
         d="m 369.391,457.527 -4.914,-2.672 c 0.234,0.129 0.671,0.055 1.062,0.032 0.641,-0.039 2.227,-0.063 3.727,0.754 l 4.91,2.672 c -1.496,-0.817 -3.082,-0.793 -3.723,-0.754 -0.39,0.023 -0.828,0.097 -1.062,-0.032"
         id="path146826"
         inkscape:connector-curvature="0" />
    </clipPath>
    <clipPath
       clipPathUnits="userSpaceOnUse"
       id="clipPath146838">
      <path
         d="M 0,0 H 576 V 903 H 0 Z"
         id="path146836"
         inkscape:connector-curvature="0" />
    </clipPath>
    <clipPath
       clipPathUnits="userSpaceOnUse"
       id="clipPath146850">
      <path
         d="M 0,0 H 576 V 903 H 0 Z"
         id="path146848"
         inkscape:connector-curvature="0" />
    </clipPath>
    <clipPath
       clipPathUnits="userSpaceOnUse"
       id="clipPath146860">
      <path
         d="m 364.477,454.855 h 9.699 v 3.457 h -9.699 z"
         id="path146858"
         inkscape:connector-curvature="0" />
    </clipPath>
    <clipPath
       clipPathUnits="userSpaceOnUse"
       id="clipPath146870">
      <path
         d="M 0,0 H 576 V 903 H 0 Z"
         id="path146868"
         inkscape:connector-curvature="0" />
    </clipPath>
    <clipPath
       clipPathUnits="userSpaceOnUse"
       id="clipPath146882">
      <path
         d="M 0,0 H 576 V 903 H 0 Z"
         id="path146880"
         inkscape:connector-curvature="0" />
    </clipPath>
    <clipPath
       clipPathUnits="userSpaceOnUse"
       id="clipPath146902">
      <path
         d="m 350.898,461.547 h 9 v 11.727 h -9 z"
         id="path146900"
         inkscape:connector-curvature="0" />
    </clipPath>
    <clipPath
       clipPathUnits="userSpaceOnUse"
       id="clipPath146912">
      <path
         d="M 0,0 H 576 V 903 H 0 Z"
         id="path146910"
         inkscape:connector-curvature="0" />
    </clipPath>
    <clipPath
       clipPathUnits="userSpaceOnUse"
       id="clipPath146924">
      <path
         d="M 0,0 H 576 V 903 H 0 Z"
         id="path146922"
         inkscape:connector-curvature="0" />
    </clipPath>
    <clipPath
       clipPathUnits="userSpaceOnUse"
       id="clipPath146934">
      <path
         d="m 350,461 h 10 v 13 h -10 z"
         id="path146932"
         inkscape:connector-curvature="0" />
    </clipPath>
    <clipPath
       clipPathUnits="userSpaceOnUse"
       id="clipPath146944">
      <path
         d="M 0,0 H 576 V 903 H 0 Z"
         id="path146942"
         inkscape:connector-curvature="0" />
    </clipPath>
    <clipPath
       clipPathUnits="userSpaceOnUse"
       id="clipPath146954">
      <path
         d="m 350,461 h 10 v 13 h -10 z"
         id="path146952"
         inkscape:connector-curvature="0" />
    </clipPath>
    <clipPath
       clipPathUnits="userSpaceOnUse"
       id="clipPath146960">
      <path
         d="m 356.273,473.273 -4.91,-2.671 c -0.398,-0.219 -0.633,-0.7 -0.32,-1.586 0.469,-1.321 2.309,-4.95 3.344,-6.02 0.808,-0.832 0.668,-1.273 0.343,-1.449 l 4.915,2.672 c 0.324,0.176 0.464,0.617 -0.344,1.449 -1.035,1.07 -2.875,4.699 -3.344,6.02 -0.312,0.886 -0.082,1.367 0.316,1.585"
         id="path146958"
         inkscape:connector-curvature="0" />
    </clipPath>
    <clipPath
       clipPathUnits="userSpaceOnUse"
       id="clipPath146970">
      <path
         d="M 0,0 H 576 V 903 H 0 Z"
         id="path146968"
         inkscape:connector-curvature="0" />
    </clipPath>
    <clipPath
       clipPathUnits="userSpaceOnUse"
       id="clipPath146982">
      <path
         d="M 0,0 H 576 V 903 H 0 Z"
         id="path146980"
         inkscape:connector-curvature="0" />
    </clipPath>
    <clipPath
       clipPathUnits="userSpaceOnUse"
       id="clipPath146992">
      <path
         d="m 350.898,461.547 h 9 v 11.727 h -9 z"
         id="path146990"
         inkscape:connector-curvature="0" />
    </clipPath>
    <clipPath
       clipPathUnits="userSpaceOnUse"
       id="clipPath147002">
      <path
         d="M 0,0 H 576 V 903 H 0 Z"
         id="path147000"
         inkscape:connector-curvature="0" />
    </clipPath>
    <clipPath
       clipPathUnits="userSpaceOnUse"
       id="clipPath147014">
      <path
         d="M 0,0 H 576 V 903 H 0 Z"
         id="path147012"
         inkscape:connector-curvature="0" />
    </clipPath>
    <clipPath
       clipPathUnits="userSpaceOnUse"
       id="clipPath147048">
      <path
         d="M 351.258,450.113 H 363 v 13.691 h -11.742 z"
         id="path147046"
         inkscape:connector-curvature="0" />
    </clipPath>
    <clipPath
       clipPathUnits="userSpaceOnUse"
       id="clipPath147058">
      <path
         d="M 0,0 H 576 V 903 H 0 Z"
         id="path147056"
         inkscape:connector-curvature="0" />
    </clipPath>
    <clipPath
       clipPathUnits="userSpaceOnUse"
       id="clipPath147070">
      <path
         d="M 0,0 H 576 V 903 H 0 Z"
         id="path147068"
         inkscape:connector-curvature="0" />
    </clipPath>
    <clipPath
       clipPathUnits="userSpaceOnUse"
       id="clipPath147080">
      <path
         d="m 351,450 h 12 v 14 h -12 z"
         id="path147078"
         inkscape:connector-curvature="0" />
    </clipPath>
    <clipPath
       clipPathUnits="userSpaceOnUse"
       id="clipPath147090">
      <path
         d="M 0,0 H 576 V 903 H 0 Z"
         id="path147088"
         inkscape:connector-curvature="0" />
    </clipPath>
    <clipPath
       clipPathUnits="userSpaceOnUse"
       id="clipPath147100">
      <path
         d="m 351,450 h 12 v 14 h -12 z"
         id="path147098"
         inkscape:connector-curvature="0" />
    </clipPath>
    <clipPath
       clipPathUnits="userSpaceOnUse"
       id="clipPath147106">
      <path
         d="m 356.988,463.805 -4.91,-2.672 c -0.004,-0.004 -0.008,-0.004 -0.012,-0.008 -0.308,-0.18 -1.656,-0.906 0.008,-2.594 1.653,-1.676 3.614,-2.203 4.336,-2.363 0.723,-0.152 1.602,-0.199 1.082,-1.23 -0.512,-1.047 -0.097,-2.668 0.367,-3.348 0.465,-0.68 0.079,-1.438 0.059,-1.477 l 4.914,2.672 c 0.02,0.039 0.406,0.797 -0.062,1.477 -0.465,0.679 -0.875,2.301 -0.364,3.343 0.52,1.036 -0.363,1.083 -1.086,1.235 -0.718,0.164 -2.683,0.687 -4.336,2.363 -1.66,1.688 -0.316,2.414 -0.004,2.598 0.004,0 0.008,0 0.008,0.004"
         id="path147104"
         inkscape:connector-curvature="0" />
    </clipPath>
    <clipPath
       clipPathUnits="userSpaceOnUse"
       id="clipPath147116">
      <path
         d="M 0,0 H 576 V 903 H 0 Z"
         id="path147114"
         inkscape:connector-curvature="0" />
    </clipPath>
    <clipPath
       clipPathUnits="userSpaceOnUse"
       id="clipPath147128">
      <path
         d="M 0,0 H 576 V 903 H 0 Z"
         id="path147126"
         inkscape:connector-curvature="0" />
    </clipPath>
    <clipPath
       clipPathUnits="userSpaceOnUse"
       id="clipPath147138">
      <path
         d="M 351.258,450.113 H 363 v 13.691 h -11.742 z"
         id="path147136"
         inkscape:connector-curvature="0" />
    </clipPath>
    <clipPath
       clipPathUnits="userSpaceOnUse"
       id="clipPath147148">
      <path
         d="M 0,0 H 576 V 903 H 0 Z"
         id="path147146"
         inkscape:connector-curvature="0" />
    </clipPath>
    <clipPath
       clipPathUnits="userSpaceOnUse"
       id="clipPath147160">
      <path
         d="M 0,0 H 576 V 903 H 0 Z"
         id="path147158"
         inkscape:connector-curvature="0" />
    </clipPath>
    <clipPath
       clipPathUnits="userSpaceOnUse"
       id="clipPath147216">
      <path
         d="m 356.316,441.086 h 8.695 v 7.344 h -8.695 z"
         id="path147214"
         inkscape:connector-curvature="0" />
    </clipPath>
    <clipPath
       clipPathUnits="userSpaceOnUse"
       id="clipPath147226">
      <path
         d="M 0,0 H 576 V 903 H 0 Z"
         id="path147224"
         inkscape:connector-curvature="0" />
    </clipPath>
    <clipPath
       clipPathUnits="userSpaceOnUse"
       id="clipPath147238">
      <path
         d="M 0,0 H 576 V 903 H 0 Z"
         id="path147236"
         inkscape:connector-curvature="0" />
    </clipPath>
    <clipPath
       clipPathUnits="userSpaceOnUse"
       id="clipPath147248">
      <path
         d="m 356,441 h 10 v 8 h -10 z"
         id="path147246"
         inkscape:connector-curvature="0" />
    </clipPath>
    <clipPath
       clipPathUnits="userSpaceOnUse"
       id="clipPath147258">
      <path
         d="M 0,0 H 576 V 903 H 0 Z"
         id="path147256"
         inkscape:connector-curvature="0" />
    </clipPath>
    <clipPath
       clipPathUnits="userSpaceOnUse"
       id="clipPath147268">
      <path
         d="m 356,441 h 10 v 8 h -10 z"
         id="path147266"
         inkscape:connector-curvature="0" />
    </clipPath>
    <clipPath
       clipPathUnits="userSpaceOnUse"
       id="clipPath147274">
      <path
         d="m 361.23,448.43 -4.914,-2.672 c 3.247,-4.035 3.25,-4.028 3.782,-4.672 l 4.914,2.672 c -0.532,0.644 -0.539,0.637 -3.782,4.672"
         id="path147272"
         inkscape:connector-curvature="0" />
    </clipPath>
    <clipPath
       clipPathUnits="userSpaceOnUse"
       id="clipPath147284">
      <path
         d="M 0,0 H 576 V 903 H 0 Z"
         id="path147282"
         inkscape:connector-curvature="0" />
    </clipPath>
    <clipPath
       clipPathUnits="userSpaceOnUse"
       id="clipPath147296">
      <path
         d="M 0,0 H 576 V 903 H 0 Z"
         id="path147294"
         inkscape:connector-curvature="0" />
    </clipPath>
    <clipPath
       clipPathUnits="userSpaceOnUse"
       id="clipPath147306">
      <path
         d="m 356.316,441.086 h 8.695 v 7.344 h -8.695 z"
         id="path147304"
         inkscape:connector-curvature="0" />
    </clipPath>
    <clipPath
       clipPathUnits="userSpaceOnUse"
       id="clipPath147316">
      <path
         d="M 0,0 H 576 V 903 H 0 Z"
         id="path147314"
         inkscape:connector-curvature="0" />
    </clipPath>
    <clipPath
       clipPathUnits="userSpaceOnUse"
       id="clipPath147328">
      <path
         d="M 0,0 H 576 V 903 H 0 Z"
         id="path147326"
         inkscape:connector-curvature="0" />
    </clipPath>
    <clipPath
       clipPathUnits="userSpaceOnUse"
       id="clipPath147340">
      <path
         d="m 356.074,445.758 h 6.758 v 7.027 h -6.758 z"
         id="path147338"
         inkscape:connector-curvature="0" />
    </clipPath>
    <clipPath
       clipPathUnits="userSpaceOnUse"
       id="clipPath147350">
      <path
         d="M 0,0 H 576 V 903 H 0 Z"
         id="path147348"
         inkscape:connector-curvature="0" />
    </clipPath>
    <clipPath
       clipPathUnits="userSpaceOnUse"
       id="clipPath147362">
      <path
         d="M 0,0 H 576 V 903 H 0 Z"
         id="path147360"
         inkscape:connector-curvature="0" />
    </clipPath>
    <clipPath
       clipPathUnits="userSpaceOnUse"
       id="clipPath147372">
      <path
         d="m 356,445 h 7 v 8 h -7 z"
         id="path147370"
         inkscape:connector-curvature="0" />
    </clipPath>
    <clipPath
       clipPathUnits="userSpaceOnUse"
       id="clipPath147382">
      <path
         d="M 0,0 H 576 V 903 H 0 Z"
         id="path147380"
         inkscape:connector-curvature="0" />
    </clipPath>
    <clipPath
       clipPathUnits="userSpaceOnUse"
       id="clipPath147392">
      <path
         d="m 356,445 h 7 v 8 h -7 z"
         id="path147390"
         inkscape:connector-curvature="0" />
    </clipPath>
    <clipPath
       clipPathUnits="userSpaceOnUse"
       id="clipPath147398">
      <path
         d="m 362.832,452.785 -4.914,-2.672 c -0.055,-0.093 -1.078,-1.828 -1.605,-2.785 -0.528,-0.961 -0.024,-1.543 0.003,-1.57 l 4.914,2.672 c -0.027,0.031 -0.531,0.609 -0.003,1.574 0.527,0.953 1.55,2.687 1.605,2.781"
         id="path147396"
         inkscape:connector-curvature="0" />
    </clipPath>
    <clipPath
       clipPathUnits="userSpaceOnUse"
       id="clipPath147408">
      <path
         d="M 0,0 H 576 V 903 H 0 Z"
         id="path147406"
         inkscape:connector-curvature="0" />
    </clipPath>
    <clipPath
       clipPathUnits="userSpaceOnUse"
       id="clipPath147420">
      <path
         d="M 0,0 H 576 V 903 H 0 Z"
         id="path147418"
         inkscape:connector-curvature="0" />
    </clipPath>
    <clipPath
       clipPathUnits="userSpaceOnUse"
       id="clipPath147430">
      <path
         d="m 356.074,445.758 h 6.758 v 7.027 h -6.758 z"
         id="path147428"
         inkscape:connector-curvature="0" />
    </clipPath>
    <clipPath
       clipPathUnits="userSpaceOnUse"
       id="clipPath147440">
      <path
         d="M 0,0 H 576 V 903 H 0 Z"
         id="path147438"
         inkscape:connector-curvature="0" />
    </clipPath>
    <clipPath
       clipPathUnits="userSpaceOnUse"
       id="clipPath147452">
      <path
         d="M 0,0 H 576 V 903 H 0 Z"
         id="path147450"
         inkscape:connector-curvature="0" />
    </clipPath>
  </defs>
  <sodipodi:namedview
     id="base"
     pagecolor="#ffffff"
     bordercolor="#666666"
     borderopacity="1.0"
     inkscape:pageopacity="0.0"
     inkscape:pageshadow="2"
     inkscape:zoom="9.275"
     inkscape:cx="-46.348413"
     inkscape:cy="27.988162"
     inkscape:document-units="mm"
     inkscape:current-layer="layer1"
     showgrid="false"
     inkscape:window-width="1920"
     inkscape:window-height="1017"
     inkscape:window-x="-8"
     inkscape:window-y="-8"
     inkscape:window-maximized="1" />
  <metadata
     id="metadata158640">
    <rdf:RDF>
      <cc:Work
         rdf:about="">
        <dc:format>image/svg+xml</dc:format>
        <dc:type
           rdf:resource="http://purl.org/dc/dcmitype/StillImage" />
        <dc:title />
      </cc:Work>
    </rdf:RDF>
  </metadata>
  <g
     inkscape:label="Ebene 1"
     inkscape:groupmode="layer"
     id="layer1"
     transform="translate(-88.113001,-116.4531)">
    <g
       id="g147464"
       transform="matrix(-0.35468071,0,0,0.32889066,221.52348,-28.41765)"
       inkscape:label="Abbot_black"
       style="stroke-width:1.03289604">
      <path
         inkscape:connector-curvature="0"
         id="path146730"
         style="display:inline;fill:none;fill-opacity:1;stroke:#231f20;stroke-width:0.44796777;stroke-linecap:round;stroke-linejoin:round;stroke-miterlimit:10;stroke-dasharray:none;stroke-opacity:1"
         d="m 375.78109,468.895 c -0.465,-1.184 -2.289,-4.305 -3.324,-5.067 -1.024,-0.777 -0.508,-1.355 -0.047,-1.527 0.472,-0.18 2.066,-0.735 2.379,-1.008 0.308,-0.27 1.652,-1.379 0.007,-2.586 -0.2157,-0.12205 -0.41733,-0.26746 -0.628,-0.398 l -4.579,-2.493 c 0.118,-0.988 -0.207,-2 -0.566,-2.433 -0.469,-0.543 -0.074,-1.418 -0.051,-1.461 0.051,-0.109 1.086,-2.129 1.613,-3.238 0.528,-1.102 0.032,-1.539 0.004,-1.567 -3.234,-3.125 -3.234,-3.113 -3.761,-3.617 l -0.153,-0.113 -4.91,-2.672 -0.183,-0.008 -0.575,0.082 -0.574,0.078 -0.183,0.059 -0.145,0.156 c -0.539,0.656 -0.539,0.645 -3.789,4.68 0,0.004 -0.012,0.019 -0.031,0.039 -0.004,0.008 -0.004,0.008 -0.008,0.012 -0.008,0.011 -0.016,0.031 -0.024,0.042 -0.011,0.012 -0.019,0.024 -0.023,0.04 -0.008,0.007 -0.008,0.011 -0.012,0.019 -0.008,0.016 -0.015,0.035 -0.023,0.051 -0.012,0.023 -0.024,0.047 -0.035,0.074 -0.004,0.012 -0.004,0.016 -0.008,0.024 -0.004,0.011 -0.008,0.031 -0.012,0.042 -0.015,0.043 -0.027,0.09 -0.035,0.141 -0.008,0.031 -0.012,0.063 -0.016,0.098 -0.007,0.051 -0.007,0.105 -0.007,0.164 0,0.039 0,0.078 0.007,0.117 0.004,0.066 0.02,0.137 0.039,0.211 0.008,0.039 0.012,0.078 0.028,0.117 0.035,0.117 0.086,0.242 0.16,0.371 0.523,0.961 1.551,2.696 1.605,2.789 0.004,0.004 0.02,0.047 0.036,0.086 0.007,0.012 0.015,0.028 0.019,0.043 0.024,0.059 0.047,0.137 0.07,0.223 0.004,0.019 0.008,0.043 0.012,0.066 0.02,0.098 0.035,0.207 0.035,0.324 0,0.02 -0.004,0.036 -0.004,0.051 -0.007,0.117 -0.023,0.242 -0.066,0.367 -0.008,0.016 -0.008,0.032 -0.016,0.047 -0.004,0.016 -0.011,0.028 -0.015,0.035 -0.032,0.079 -0.071,0.157 -0.121,0.231 -0.043,0.062 -0.086,0.137 -0.129,0.211 -0.008,0.012 -0.012,0.031 -0.02,0.043 -0.137,0.269 -0.258,0.609 -0.344,0.98 -0.011,0.051 -0.019,0.098 -0.031,0.145 -0.039,0.207 -0.07,0.418 -0.082,0.629 -0.008,0.211 0.004,0.414 0.031,0.613 0.008,0.051 0.016,0.102 0.024,0.152 0.039,0.2 0.094,0.395 0.18,0.571 0.074,0.148 0.109,0.269 0.132,0.379 0.008,0.039 0.004,0.07 0.008,0.105 0.004,0.066 0.004,0.129 -0.012,0.184 -0.015,0.05 -0.027,0.101 -0.054,0.14 0,0.004 0,0.004 -0.004,0.004 -0.035,0.055 -0.086,0.098 -0.145,0.137 -0.011,0.008 -0.023,0.012 -0.031,0.016 -0.039,0.023 -0.078,0.043 -0.121,0.062 -0.113,0.047 -0.238,0.082 -0.375,0.113 -0.043,0.012 -0.09,0.02 -0.133,0.028 -0.117,0.023 -0.238,0.047 -0.351,0.07 -0.094,0.02 -0.207,0.047 -0.336,0.082 h -0.008 c -0.129,0.035 -0.27,0.074 -0.426,0.125 -0.027,0.008 -0.062,0.02 -0.086,0.031 -0.137,0.043 -0.277,0.09 -0.426,0.149 -0.054,0.019 -0.113,0.047 -0.168,0.07 -0.136,0.055 -0.269,0.109 -0.41,0.176 -0.011,0.004 -0.019,0.008 -0.031,0.012 -0.074,0.035 -0.148,0.082 -0.223,0.117 -0.117,0.058 -0.234,0.117 -0.355,0.183 -0.098,0.059 -0.199,0.121 -0.297,0.184 -0.113,0.07 -0.223,0.133 -0.332,0.207 -0.016,0.012 -0.031,0.019 -0.047,0.027 -0.039,0.032 -0.082,0.071 -0.121,0.102 -0.199,0.14 -0.395,0.297 -0.59,0.465 -0.039,0.035 -0.082,0.058 -0.121,0.093 -0.121,0.11 -0.242,0.227 -0.363,0.348 -0.071,0.07 -0.137,0.145 -0.196,0.211 -0.011,0.012 -0.019,0.02 -0.027,0.031 -0.066,0.078 -0.121,0.153 -0.176,0.22299 -0.015,0.023 -0.039,0.047 -0.054,0.07 -0.008,0.008 -0.008,0.012 -0.016,0.02 -0.031,0.047 -0.055,0.09 -0.082,0.136 -0.023,0.036 -0.047,0.071 -0.066,0.10601 -0.004,0.008 -0.008,0.012 -0.012,0.023 -0.024,0.043 -0.039,0.086 -0.059,0.129 -0.011,0.032 -0.031,0.063 -0.039,0.09 -0.004,0.008 0,0.012 -0.004,0.016 -0.039,0.105 -0.058,0.20299 -0.07,0.29299 0,0.023 -0.004,0.043 -0.004,0.062 -0.004,0.078 0,0.156 0.012,0.231 v 0.031 c 0.019,0.078 0.043,0.14801 0.074,0.219 0.008,0.015 0.016,0.031 0.023,0.047 0.032,0.058 0.067,0.117 0.106,0.168 0.004,0.003 0.008,0.007 0.012,0.015 0.043,0.055 0.089,0.106 0.14,0.149 0.012,0.011 0.024,0.023 0.035,0.035 0.043,0.039 0.09,0.078 0.137,0.109 0,0.004 0.004,0.004 0.004,0.008 0.047,0.031 0.094,0.062 0.133,0.09 0.015,0.008 0.027,0.015 0.039,0.023 0.035,0.02 0.062,0.035 0.086,0.051 0.004,0.004 0.008,0.004 0.012,0.008 l 2.656,1.445 c -0.016,0.024 -0.031,0.051 -0.051,0.078 -0.031,0.035 -0.059,0.074 -0.094,0.114 -0.062,0.078 -0.125,0.152 -0.207,0.234 -0.039,0.043 -0.078,0.086 -0.121,0.133 -0.047,0.051 -0.101,0.133 -0.148,0.191 -0.078,0.098 -0.153,0.192 -0.239,0.309 -0.023,0.031 -0.039,0.051 -0.062,0.082 -0.102,0.148 -0.211,0.308 -0.316,0.476 -0.012,0.016 -0.02,0.032 -0.028,0.047 -0.14,0.219 -0.281,0.453 -0.422,0.696 -0.035,0.058 -0.07,0.117 -0.105,0.175 -0.145,0.254 -0.289,0.512 -0.43,0.774 0,0.004 0,0.004 -0.004,0.008 -0.047,0.089 -0.09,0.175 -0.14,0.265 -0.11,0.215 -0.223,0.422 -0.325,0.633 -0.035,0.062 -0.062,0.125 -0.093,0.187 -0.114,0.227 -0.223,0.446 -0.321,0.657 -0.035,0.074 -0.062,0.14 -0.097,0.215 -0.082,0.179 -0.164,0.359 -0.231,0.515 -0.039,0.098 -0.07,0.172 -0.105,0.262 -0.039,0.094 -0.086,0.207 -0.117,0.289 -0.012,0.031 -0.02,0.062 -0.032,0.09 -0.32,0.887 -0.082,1.375 0.317,1.594 l 4.914,2.671 c -0.012,-0.007 -0.02,-0.015 -0.028,-0.023 0.2,0.117 0.442,0.172 0.684,0.168 l 8.9259,-1.25398 8.93,-1.258 c 0.699,-0.179 1.445,-0.824 0.988,-2.011 z"
         sodipodi:nodetypes="ccccccccccccccccccccccccsccccccscccccccccsccccccccccccccccccccccccccccccccccccccccccccccccccccccccccccccccccccccccccccccccccccaccccccccccccc" />
      <path
         inkscape:connector-curvature="0"
         id="path146730-3"
         style="display:inline;fill:#2b2a2c;fill-opacity:1;stroke:none;stroke-width:0.4479678;stroke-linecap:round;stroke-linejoin:round;stroke-miterlimit:10;stroke-dasharray:none;stroke-opacity:1"
         d="m 375.78109,468.895 c -0.465,-1.184 -2.289,-4.305 -3.324,-5.067 -1.024,-0.777 -0.508,-1.355 -0.047,-1.527 0.472,-0.18 2.066,-0.735 2.379,-1.008 0.308,-0.27 1.652,-1.379 0.007,-2.586 -0.2157,-0.12205 -0.41733,-0.26746 -0.628,-0.398 l -4.579,-2.493 c 0.118,-0.988 -0.207,-2 -0.566,-2.433 -0.469,-0.543 -0.074,-1.418 -0.051,-1.461 0.051,-0.109 1.086,-2.129 1.613,-3.238 0.528,-1.102 0.032,-1.539 0.004,-1.567 -3.234,-3.125 -3.234,-3.113 -3.761,-3.617 l -0.153,-0.113 -4.91,-2.672 -0.183,-0.008 -0.575,0.082 -0.574,0.078 -0.183,0.059 -0.145,0.156 c -0.539,0.656 -0.539,0.645 -3.789,4.68 0,0.004 -0.012,0.019 -0.031,0.039 -0.004,0.008 -0.004,0.008 -0.008,0.012 -0.008,0.011 -0.016,0.031 -0.024,0.042 -0.011,0.012 -0.019,0.024 -0.023,0.04 -0.008,0.007 -0.008,0.011 -0.012,0.019 -0.008,0.016 -0.015,0.035 -0.023,0.051 -0.012,0.023 -0.024,0.047 -0.035,0.074 -0.004,0.012 -0.004,0.016 -0.008,0.024 -0.004,0.011 -0.008,0.031 -0.012,0.042 -0.015,0.043 -0.027,0.09 -0.035,0.141 -0.008,0.031 -0.012,0.063 -0.016,0.098 -0.007,0.051 -0.007,0.105 -0.007,0.164 0,0.039 0,0.078 0.007,0.117 0.004,0.066 0.02,0.137 0.039,0.211 0.008,0.039 0.012,0.078 0.028,0.117 0.035,0.117 0.086,0.242 0.16,0.371 0.523,0.961 1.551,2.696 1.605,2.789 0.004,0.004 0.02,0.047 0.036,0.086 0.007,0.012 0.015,0.028 0.019,0.043 0.024,0.059 0.047,0.137 0.07,0.223 0.004,0.019 0.008,0.043 0.012,0.066 0.02,0.098 0.035,0.207 0.035,0.324 0,0.02 -0.004,0.036 -0.004,0.051 -0.007,0.117 -0.023,0.242 -0.066,0.367 -0.008,0.016 -0.008,0.032 -0.016,0.047 -0.004,0.016 -0.011,0.028 -0.015,0.035 -0.032,0.079 -0.071,0.157 -0.121,0.231 -0.043,0.062 -0.086,0.137 -0.129,0.211 -0.008,0.012 -0.012,0.031 -0.02,0.043 -0.137,0.269 -0.258,0.609 -0.344,0.98 -0.011,0.051 -0.019,0.098 -0.031,0.145 -0.039,0.207 -0.07,0.418 -0.082,0.629 -0.008,0.211 0.004,0.414 0.031,0.613 0.008,0.051 0.016,0.102 0.024,0.152 0.039,0.2 0.094,0.395 0.18,0.571 0.074,0.148 0.109,0.269 0.132,0.379 0.008,0.039 0.004,0.07 0.008,0.105 0.004,0.066 0.004,0.129 -0.012,0.184 -0.015,0.05 -0.027,0.101 -0.054,0.14 0,0.004 0,0.004 -0.004,0.004 -0.035,0.055 -0.086,0.098 -0.145,0.137 -0.011,0.008 -0.023,0.012 -0.031,0.016 -0.039,0.023 -0.078,0.043 -0.121,0.062 -0.113,0.047 -0.238,0.082 -0.375,0.113 -0.043,0.012 -0.09,0.02 -0.133,0.028 -0.117,0.023 -0.238,0.047 -0.351,0.07 -0.094,0.02 -0.207,0.047 -0.336,0.082 h -0.008 c -0.129,0.035 -0.27,0.074 -0.426,0.125 -0.027,0.008 -0.062,0.02 -0.086,0.031 -0.137,0.043 -0.277,0.09 -0.426,0.149 -0.054,0.019 -0.113,0.047 -0.168,0.07 -0.136,0.055 -0.269,0.109 -0.41,0.176 -0.011,0.004 -0.019,0.008 -0.031,0.012 -0.074,0.035 -0.148,0.082 -0.223,0.117 -0.117,0.058 -0.234,0.117 -0.355,0.183 -0.098,0.059 -0.199,0.121 -0.297,0.184 -0.113,0.07 -0.223,0.133 -0.332,0.207 -0.016,0.012 -0.031,0.019 -0.047,0.027 -0.039,0.032 -0.082,0.071 -0.121,0.102 -0.199,0.14 -0.395,0.297 -0.59,0.465 -0.039,0.035 -0.082,0.058 -0.121,0.093 -0.121,0.11 -0.242,0.227 -0.363,0.348 -0.071,0.07 -0.137,0.145 -0.196,0.211 -0.011,0.012 -0.019,0.02 -0.027,0.031 -0.066,0.078 -0.121,0.153 -0.176,0.22299 -0.015,0.023 -0.039,0.047 -0.054,0.07 -0.008,0.008 -0.008,0.012 -0.016,0.02 -0.031,0.047 -0.055,0.09 -0.082,0.136 -0.023,0.036 -0.047,0.071 -0.066,0.10601 -0.004,0.008 -0.008,0.012 -0.012,0.023 -0.024,0.043 -0.039,0.086 -0.059,0.129 -0.011,0.032 -0.031,0.063 -0.039,0.09 -0.004,0.008 0,0.012 -0.004,0.016 -0.039,0.105 -0.058,0.20299 -0.07,0.29299 0,0.023 -0.004,0.043 -0.004,0.062 -0.004,0.078 0,0.156 0.012,0.231 v 0.031 c 0.019,0.078 0.043,0.14801 0.074,0.219 0.008,0.015 0.016,0.031 0.023,0.047 0.032,0.058 0.067,0.117 0.106,0.168 0.004,0.003 0.008,0.007 0.012,0.015 0.043,0.055 0.089,0.106 0.14,0.149 0.012,0.011 0.024,0.023 0.035,0.035 0.043,0.039 0.09,0.078 0.137,0.109 0,0.004 0.004,0.004 0.004,0.008 0.047,0.031 0.094,0.062 0.133,0.09 0.015,0.008 0.027,0.015 0.039,0.023 0.035,0.02 0.062,0.035 0.086,0.051 0.004,0.004 0.008,0.004 0.012,0.008 l 2.656,1.445 c -0.016,0.024 -0.031,0.051 -0.051,0.078 -0.031,0.035 -0.059,0.074 -0.094,0.114 -0.062,0.078 -0.125,0.152 -0.207,0.234 -0.039,0.043 -0.078,0.086 -0.121,0.133 -0.047,0.051 -0.101,0.133 -0.148,0.191 -0.078,0.098 -0.153,0.192 -0.239,0.309 -0.023,0.031 -0.039,0.051 -0.062,0.082 -0.102,0.148 -0.211,0.308 -0.316,0.476 -0.012,0.016 -0.02,0.032 -0.028,0.047 -0.14,0.219 -0.281,0.453 -0.422,0.696 -0.035,0.058 -0.07,0.117 -0.105,0.175 -0.145,0.254 -0.289,0.512 -0.43,0.774 0,0.004 0,0.004 -0.004,0.008 -0.047,0.089 -0.09,0.175 -0.14,0.265 -0.11,0.215 -0.223,0.422 -0.325,0.633 -0.035,0.062 -0.062,0.125 -0.093,0.187 -0.114,0.227 -0.223,0.446 -0.321,0.657 -0.035,0.074 -0.062,0.14 -0.097,0.215 -0.082,0.179 -0.164,0.359 -0.231,0.515 -0.039,0.098 -0.07,0.172 -0.105,0.262 -0.039,0.094 -0.086,0.207 -0.117,0.289 -0.012,0.031 -0.02,0.062 -0.032,0.09 -0.32,0.887 -0.082,1.375 0.317,1.594 l 4.914,2.671 c -0.012,-0.007 -0.02,-0.015 -0.028,-0.023 0.2,0.117 0.44201,0.172 0.684,0.168 l 8.9258,-1.25396 8.93,-1.258 c 0.699,-0.179 1.445,-0.824 0.988,-2.011 z"
         sodipodi:nodetypes="ccccccccccccccccccccccccsccccccscccccccccsccccccccccccccccccccccccccccccccccccccccccccccccccccccccccccccccccccccccccccccccccccaccccccccccccc" />
      <path
         inkscape:connector-curvature="0"
         id="path147466"
         style="display:inline;fill:#414042;fill-opacity:1;fill-rule:nonzero;stroke:#231f20;stroke-width:0.1551784;stroke-miterlimit:4;stroke-dasharray:none;stroke-opacity:1"
         d="m 366.492,443.383 h 0.184 l 0.144,0.117 c 0.535,0.496 0.535,0.488 3.766,3.613 0.023,0.024 0.527,0.461 -0.004,1.575 -0.523,1.101 -1.562,3.128 -1.617,3.234 -0.02,0.047 -0.41,0.914 0.055,1.461 0.46,0.551 0.875,2.055 0.355,3.246 -0.523,1.18 0.355,0.976 1.078,0.93 0.727,-0.043 2.684,-0.067 4.34,1.14 1.645,1.223 0.297,2.328 -0.008,2.598 -0.312,0.266 -1.914,0.82 -2.379,0.996 -0.465,0.18 -0.976,0.754 0.055,1.527 1.031,0.778 2.848,3.895 3.312,5.082 0.461,1.188 -0.285,1.821 -0.98,2.004 l -8.934,1.254 -8.929,1.258 c -0.696,0.012 -1.442,-0.41 -0.973,-1.73 0.469,-1.321 2.305,-4.95 3.344,-6.02 1.035,-1.063 0.512,-1.488 0.051,-1.539 -0.465,-0.047 -2.067,-0.149 -2.372,-0.328 -0.312,-0.184 -1.656,-0.91 0.004,-2.598 1.653,-1.676 3.618,-2.203 4.336,-2.363 0.723,-0.152 1.606,-0.199 1.086,-1.231 -0.511,-1.046 -0.101,-2.668 0.364,-3.347 0.468,-0.68 0.082,-1.438 0.062,-1.477 -0.055,-0.09 -1.078,-1.828 -1.605,-2.785 -0.528,-0.961 -0.024,-1.543 0,-1.57 3.246,-4.035 3.253,-4.028 3.785,-4.672 l 0.152,-0.16 0.176,-0.051 0.574,-0.082 z" />
    </g>
  </g>
</svg>
