<?xml version="1.0" encoding="UTF-8" standalone="no"?>
<!-- Created with Inkscape (http://www.inkscape.org/) -->

<svg
   xmlns:dc="http://purl.org/dc/elements/1.1/"
   xmlns:cc="http://creativecommons.org/ns#"
   xmlns:rdf="http://www.w3.org/1999/02/22-rdf-syntax-ns#"
   xmlns:svg="http://www.w3.org/2000/svg"
   xmlns="http://www.w3.org/2000/svg"
   xmlns:sodipodi="http://sodipodi.sourceforge.net/DTD/sodipodi-0.dtd"
   xmlns:inkscape="http://www.inkscape.org/namespaces/inkscape"
   width="9.0320778mm"
   height="10.905867mm"
   viewBox="0 0 9.0320777 10.905867"
   version="1.1"
   id="svg153180"
   inkscape:version="0.92.3 (2405546, 2018-03-11)"
   sodipodi:docname="Abbot_red_f.svg">
  <defs
     id="defs153174">
    <clipPath
       clipPathUnits="userSpaceOnUse"
       id="clipPath145992">
      <path
         d="m 386.324,440.711 h 25.016 v 32.707 h -25.016 z"
         id="path145990"
         inkscape:connector-curvature="0" />
    </clipPath>
    <clipPath
       clipPathUnits="userSpaceOnUse"
       id="clipPath146002">
      <path
         d="M 0,0 H 576 V 903 H 0 Z"
         id="path146000"
         inkscape:connector-curvature="0" />
    </clipPath>
    <clipPath
       clipPathUnits="userSpaceOnUse"
       id="clipPath146014">
      <path
         d="M 0,0 H 576 V 903 H 0 Z"
         id="path146012"
         inkscape:connector-curvature="0" />
    </clipPath>
    <clipPath
       clipPathUnits="userSpaceOnUse"
       id="clipPath146024">
      <path
         d="m 399.902,454.855 h 9.688 v 3.453 h -9.688 z"
         id="path146022"
         inkscape:connector-curvature="0" />
    </clipPath>
    <clipPath
       clipPathUnits="userSpaceOnUse"
       id="clipPath146034">
      <path
         d="M 0,0 H 576 V 903 H 0 Z"
         id="path146032"
         inkscape:connector-curvature="0" />
    </clipPath>
    <clipPath
       clipPathUnits="userSpaceOnUse"
       id="clipPath146046">
      <path
         d="M 0,0 H 576 V 903 H 0 Z"
         id="path146044"
         inkscape:connector-curvature="0" />
    </clipPath>
    <clipPath
       clipPathUnits="userSpaceOnUse"
       id="clipPath146056">
      <path
         d="m 399,454 h 11 v 5 h -11 z"
         id="path146054"
         inkscape:connector-curvature="0" />
    </clipPath>
    <clipPath
       clipPathUnits="userSpaceOnUse"
       id="clipPath146066">
      <path
         d="M 0,0 H 576 V 903 H 0 Z"
         id="path146064"
         inkscape:connector-curvature="0" />
    </clipPath>
    <clipPath
       clipPathUnits="userSpaceOnUse"
       id="clipPath146076">
      <path
         d="m 399,454 h 11 v 5 h -11 z"
         id="path146074"
         inkscape:connector-curvature="0" />
    </clipPath>
    <clipPath
       clipPathUnits="userSpaceOnUse"
       id="clipPath146082">
      <path
         d="m 404.813,457.527 -4.911,-2.672 c 0.235,0.125 0.672,0.055 1.063,0.028 0.633,-0.035 2.219,-0.059 3.711,0.754 l 4.914,2.672 c -1.492,-0.813 -3.078,-0.789 -3.711,-0.754 -0.391,0.027 -0.828,0.097 -1.066,-0.028"
         id="path146080"
         inkscape:connector-curvature="0" />
    </clipPath>
    <clipPath
       clipPathUnits="userSpaceOnUse"
       id="clipPath146092">
      <path
         d="M 0,0 H 576 V 903 H 0 Z"
         id="path146090"
         inkscape:connector-curvature="0" />
    </clipPath>
    <clipPath
       clipPathUnits="userSpaceOnUse"
       id="clipPath146104">
      <path
         d="M 0,0 H 576 V 903 H 0 Z"
         id="path146102"
         inkscape:connector-curvature="0" />
    </clipPath>
    <clipPath
       clipPathUnits="userSpaceOnUse"
       id="clipPath146114">
      <path
         d="m 399.902,454.855 h 9.688 v 3.453 h -9.688 z"
         id="path146112"
         inkscape:connector-curvature="0" />
    </clipPath>
    <clipPath
       clipPathUnits="userSpaceOnUse"
       id="clipPath146124">
      <path
         d="M 0,0 H 576 V 903 H 0 Z"
         id="path146122"
         inkscape:connector-curvature="0" />
    </clipPath>
    <clipPath
       clipPathUnits="userSpaceOnUse"
       id="clipPath146136">
      <path
         d="M 0,0 H 576 V 903 H 0 Z"
         id="path146134"
         inkscape:connector-curvature="0" />
    </clipPath>
    <clipPath
       clipPathUnits="userSpaceOnUse"
       id="clipPath146156">
      <path
         d="m 386.324,461.543 h 8.996 v 11.73 h -8.996 z"
         id="path146154"
         inkscape:connector-curvature="0" />
    </clipPath>
    <clipPath
       clipPathUnits="userSpaceOnUse"
       id="clipPath146166">
      <path
         d="M 0,0 H 576 V 903 H 0 Z"
         id="path146164"
         inkscape:connector-curvature="0" />
    </clipPath>
    <clipPath
       clipPathUnits="userSpaceOnUse"
       id="clipPath146178">
      <path
         d="M 0,0 H 576 V 903 H 0 Z"
         id="path146176"
         inkscape:connector-curvature="0" />
    </clipPath>
    <clipPath
       clipPathUnits="userSpaceOnUse"
       id="clipPath146188">
      <path
         d="m 386,461 h 10 v 13 h -10 z"
         id="path146186"
         inkscape:connector-curvature="0" />
    </clipPath>
    <clipPath
       clipPathUnits="userSpaceOnUse"
       id="clipPath146198">
      <path
         d="M 0,0 H 576 V 903 H 0 Z"
         id="path146196"
         inkscape:connector-curvature="0" />
    </clipPath>
    <clipPath
       clipPathUnits="userSpaceOnUse"
       id="clipPath146208">
      <path
         d="m 386,461 h 10 v 13 h -10 z"
         id="path146206"
         inkscape:connector-curvature="0" />
    </clipPath>
    <clipPath
       clipPathUnits="userSpaceOnUse"
       id="clipPath146214">
      <path
         d="m 391.699,473.273 -4.914,-2.671 c -0.394,-0.219 -0.629,-0.7 -0.316,-1.586 0.469,-1.321 2.301,-4.95 3.336,-6.02 0.812,-0.832 0.672,-1.277 0.347,-1.453 l 4.911,2.672 c 0.324,0.176 0.464,0.621 -0.348,1.453 -1.035,1.07 -2.867,4.699 -3.332,6.02 -0.317,0.886 -0.082,1.367 0.316,1.585"
         id="path146212"
         inkscape:connector-curvature="0" />
    </clipPath>
    <clipPath
       clipPathUnits="userSpaceOnUse"
       id="clipPath146224">
      <path
         d="M 0,0 H 576 V 903 H 0 Z"
         id="path146222"
         inkscape:connector-curvature="0" />
    </clipPath>
    <clipPath
       clipPathUnits="userSpaceOnUse"
       id="clipPath146236">
      <path
         d="M 0,0 H 576 V 903 H 0 Z"
         id="path146234"
         inkscape:connector-curvature="0" />
    </clipPath>
    <clipPath
       clipPathUnits="userSpaceOnUse"
       id="clipPath146246">
      <path
         d="m 386.324,461.543 h 8.996 v 11.73 h -8.996 z"
         id="path146244"
         inkscape:connector-curvature="0" />
    </clipPath>
    <clipPath
       clipPathUnits="userSpaceOnUse"
       id="clipPath146256">
      <path
         d="M 0,0 H 576 V 903 H 0 Z"
         id="path146254"
         inkscape:connector-curvature="0" />
    </clipPath>
    <clipPath
       clipPathUnits="userSpaceOnUse"
       id="clipPath146268">
      <path
         d="M 0,0 H 576 V 903 H 0 Z"
         id="path146266"
         inkscape:connector-curvature="0" />
    </clipPath>
    <clipPath
       clipPathUnits="userSpaceOnUse"
       id="clipPath146302">
      <path
         d="m 386.684,450.113 h 11.742 v 13.688 h -11.742 z"
         id="path146300"
         inkscape:connector-curvature="0" />
    </clipPath>
    <clipPath
       clipPathUnits="userSpaceOnUse"
       id="clipPath146312">
      <path
         d="M 0,0 H 576 V 903 H 0 Z"
         id="path146310"
         inkscape:connector-curvature="0" />
    </clipPath>
    <clipPath
       clipPathUnits="userSpaceOnUse"
       id="clipPath146324">
      <path
         d="M 0,0 H 576 V 903 H 0 Z"
         id="path146322"
         inkscape:connector-curvature="0" />
    </clipPath>
    <clipPath
       clipPathUnits="userSpaceOnUse"
       id="clipPath146334">
      <path
         d="m 386,450 h 13 v 14 h -13 z"
         id="path146332"
         inkscape:connector-curvature="0" />
    </clipPath>
    <clipPath
       clipPathUnits="userSpaceOnUse"
       id="clipPath146344">
      <path
         d="M 0,0 H 576 V 903 H 0 Z"
         id="path146342"
         inkscape:connector-curvature="0" />
    </clipPath>
    <clipPath
       clipPathUnits="userSpaceOnUse"
       id="clipPath146354">
      <path
         d="m 386,450 h 13 v 14 h -13 z"
         id="path146352"
         inkscape:connector-curvature="0" />
    </clipPath>
    <clipPath
       clipPathUnits="userSpaceOnUse"
       id="clipPath146360">
      <path
         d="m 392.398,463.801 -4.914,-2.672 c -0.3,-0.184 -1.648,-0.91 0.004,-2.598 1.66,-1.676 3.617,-2.199 4.348,-2.363 0.719,-0.152 1.594,-0.199 1.082,-1.234 -0.512,-1.043 -0.102,-2.664 0.367,-3.344 0.465,-0.68 0.078,-1.438 0.059,-1.477 l 4.91,2.672 c 0.019,0.039 0.406,0.797 -0.059,1.477 -0.465,0.679 -0.875,2.301 -0.367,3.343 0.512,1.036 -0.359,1.083 -1.082,1.235 -0.726,0.164 -2.683,0.687 -4.344,2.363 -1.652,1.688 -0.308,2.414 -0.004,2.598"
         id="path146358"
         inkscape:connector-curvature="0" />
    </clipPath>
    <clipPath
       clipPathUnits="userSpaceOnUse"
       id="clipPath146370">
      <path
         d="M 0,0 H 576 V 903 H 0 Z"
         id="path146368"
         inkscape:connector-curvature="0" />
    </clipPath>
    <clipPath
       clipPathUnits="userSpaceOnUse"
       id="clipPath146382">
      <path
         d="M 0,0 H 576 V 903 H 0 Z"
         id="path146380"
         inkscape:connector-curvature="0" />
    </clipPath>
    <clipPath
       clipPathUnits="userSpaceOnUse"
       id="clipPath146392">
      <path
         d="m 386.684,450.113 h 11.742 v 13.688 h -11.742 z"
         id="path146390"
         inkscape:connector-curvature="0" />
    </clipPath>
    <clipPath
       clipPathUnits="userSpaceOnUse"
       id="clipPath146402">
      <path
         d="M 0,0 H 576 V 903 H 0 Z"
         id="path146400"
         inkscape:connector-curvature="0" />
    </clipPath>
    <clipPath
       clipPathUnits="userSpaceOnUse"
       id="clipPath146414">
      <path
         d="M 0,0 H 576 V 903 H 0 Z"
         id="path146412"
         inkscape:connector-curvature="0" />
    </clipPath>
    <clipPath
       clipPathUnits="userSpaceOnUse"
       id="clipPath146470">
      <path
         d="m 391.742,441.086 h 8.691 v 7.344 h -8.691 z"
         id="path146468"
         inkscape:connector-curvature="0" />
    </clipPath>
    <clipPath
       clipPathUnits="userSpaceOnUse"
       id="clipPath146480">
      <path
         d="M 0,0 H 576 V 903 H 0 Z"
         id="path146478"
         inkscape:connector-curvature="0" />
    </clipPath>
    <clipPath
       clipPathUnits="userSpaceOnUse"
       id="clipPath146492">
      <path
         d="M 0,0 H 576 V 903 H 0 Z"
         id="path146490"
         inkscape:connector-curvature="0" />
    </clipPath>
    <clipPath
       clipPathUnits="userSpaceOnUse"
       id="clipPath146502">
      <path
         d="m 391,441 h 10 v 8 h -10 z"
         id="path146500"
         inkscape:connector-curvature="0" />
    </clipPath>
    <clipPath
       clipPathUnits="userSpaceOnUse"
       id="clipPath146512">
      <path
         d="M 0,0 H 576 V 903 H 0 Z"
         id="path146510"
         inkscape:connector-curvature="0" />
    </clipPath>
    <clipPath
       clipPathUnits="userSpaceOnUse"
       id="clipPath146522">
      <path
         d="m 391,441 h 10 v 8 h -10 z"
         id="path146520"
         inkscape:connector-curvature="0" />
    </clipPath>
    <clipPath
       clipPathUnits="userSpaceOnUse"
       id="clipPath146528">
      <path
         d="m 396.652,448.43 -4.91,-2.672 c 3.242,-4.035 3.242,-4.028 3.781,-4.672 l 4.911,2.672 c -0.539,0.644 -0.539,0.637 -3.782,4.672"
         id="path146526"
         inkscape:connector-curvature="0" />
    </clipPath>
    <clipPath
       clipPathUnits="userSpaceOnUse"
       id="clipPath146538">
      <path
         d="M 0,0 H 576 V 903 H 0 Z"
         id="path146536"
         inkscape:connector-curvature="0" />
    </clipPath>
    <clipPath
       clipPathUnits="userSpaceOnUse"
       id="clipPath146550">
      <path
         d="M 0,0 H 576 V 903 H 0 Z"
         id="path146548"
         inkscape:connector-curvature="0" />
    </clipPath>
    <clipPath
       clipPathUnits="userSpaceOnUse"
       id="clipPath146560">
      <path
         d="m 391.742,441.086 h 8.691 v 7.344 h -8.691 z"
         id="path146558"
         inkscape:connector-curvature="0" />
    </clipPath>
    <clipPath
       clipPathUnits="userSpaceOnUse"
       id="clipPath146570">
      <path
         d="M 0,0 H 576 V 903 H 0 Z"
         id="path146568"
         inkscape:connector-curvature="0" />
    </clipPath>
    <clipPath
       clipPathUnits="userSpaceOnUse"
       id="clipPath146582">
      <path
         d="M 0,0 H 576 V 903 H 0 Z"
         id="path146580"
         inkscape:connector-curvature="0" />
    </clipPath>
    <clipPath
       clipPathUnits="userSpaceOnUse"
       id="clipPath146594">
      <path
         d="m 391.5,445.758 h 6.754 v 7.027 H 391.5 Z"
         id="path146592"
         inkscape:connector-curvature="0" />
    </clipPath>
    <clipPath
       clipPathUnits="userSpaceOnUse"
       id="clipPath146604">
      <path
         d="M 0,0 H 576 V 903 H 0 Z"
         id="path146602"
         inkscape:connector-curvature="0" />
    </clipPath>
    <clipPath
       clipPathUnits="userSpaceOnUse"
       id="clipPath146616">
      <path
         d="M 0,0 H 576 V 903 H 0 Z"
         id="path146614"
         inkscape:connector-curvature="0" />
    </clipPath>
    <clipPath
       clipPathUnits="userSpaceOnUse"
       id="clipPath146626">
      <path
         d="m 391,445 h 8 v 8 h -8 z"
         id="path146624"
         inkscape:connector-curvature="0" />
    </clipPath>
    <clipPath
       clipPathUnits="userSpaceOnUse"
       id="clipPath146636">
      <path
         d="M 0,0 H 576 V 903 H 0 Z"
         id="path146634"
         inkscape:connector-curvature="0" />
    </clipPath>
    <clipPath
       clipPathUnits="userSpaceOnUse"
       id="clipPath146646">
      <path
         d="m 391,445 h 8 v 8 h -8 z"
         id="path146644"
         inkscape:connector-curvature="0" />
    </clipPath>
    <clipPath
       clipPathUnits="userSpaceOnUse"
       id="clipPath146652">
      <path
         d="m 398.254,452.785 -4.91,-2.672 c -0.055,-0.093 -1.086,-1.828 -1.606,-2.785 -0.523,-0.961 -0.023,-1.543 0.004,-1.57 l 4.91,2.672 c -0.023,0.031 -0.527,0.609 0,1.57 0.52,0.957 1.547,2.691 1.602,2.785"
         id="path146650"
         inkscape:connector-curvature="0" />
    </clipPath>
    <clipPath
       clipPathUnits="userSpaceOnUse"
       id="clipPath146662">
      <path
         d="M 0,0 H 576 V 903 H 0 Z"
         id="path146660"
         inkscape:connector-curvature="0" />
    </clipPath>
    <clipPath
       clipPathUnits="userSpaceOnUse"
       id="clipPath146674">
      <path
         d="M 0,0 H 576 V 903 H 0 Z"
         id="path146672"
         inkscape:connector-curvature="0" />
    </clipPath>
    <clipPath
       clipPathUnits="userSpaceOnUse"
       id="clipPath146684">
      <path
         d="m 391.5,445.758 h 6.754 v 7.027 H 391.5 Z"
         id="path146682"
         inkscape:connector-curvature="0" />
    </clipPath>
    <clipPath
       clipPathUnits="userSpaceOnUse"
       id="clipPath146694">
      <path
         d="M 0,0 H 576 V 903 H 0 Z"
         id="path146692"
         inkscape:connector-curvature="0" />
    </clipPath>
    <clipPath
       clipPathUnits="userSpaceOnUse"
       id="clipPath146706">
      <path
         d="M 0,0 H 576 V 903 H 0 Z"
         id="path146704"
         inkscape:connector-curvature="0" />
    </clipPath>
  </defs>
  <sodipodi:namedview
     id="base"
     pagecolor="#ffffff"
     bordercolor="#666666"
     borderopacity="1.0"
     inkscape:pageopacity="0.0"
     inkscape:pageshadow="2"
     inkscape:zoom="8.075"
     inkscape:cx="10.240679"
     inkscape:cy="21.949087"
     inkscape:document-units="mm"
     inkscape:current-layer="layer1"
     showgrid="false"
     inkscape:window-width="1920"
     inkscape:window-height="1017"
     inkscape:window-x="-8"
     inkscape:window-y="-8"
     inkscape:window-maximized="1" />
  <metadata
     id="metadata153177">
    <rdf:RDF>
      <cc:Work
         rdf:about="">
        <dc:format>image/svg+xml</dc:format>
        <dc:type
           rdf:resource="http://purl.org/dc/dcmitype/StillImage" />
        <dc:title />
      </cc:Work>
    </rdf:RDF>
  </metadata>
  <g
     inkscape:label="Ebene 1"
     inkscape:groupmode="layer"
     id="layer1"
     transform="translate(-109.53202,-132.0266)">
    <g
       id="g146718"
       transform="matrix(-0.35594159,0,0,0.32980831,256.00861,-13.263508)"
       style="stroke:#231f20;stroke-width:0.15468767;stroke-miterlimit:4;stroke-dasharray:none;stroke-opacity:1"
       inkscape:label="Abbot_red">
      <path
         inkscape:connector-curvature="0"
         id="path145984"
         style="display:inline;fill:none;fill-opacity:1;stroke:#231f20;stroke-width:0.35607347;stroke-linecap:round;stroke-linejoin:round;stroke-miterlimit:10;stroke-dasharray:none;stroke-opacity:1"
         d="m 411.20304,468.895 c -0.469,-1.184 -2.293,-4.305 -3.328,-5.067 -1.023,-0.777 -0.508,-1.355 -0.043,-1.527 0.469,-0.18 2.063,-0.735 2.379,-1.008 0.309,-0.27 1.648,-1.379 0.004,-2.586 -0.21596,-0.12216 -0.41801,-0.26745 -0.629,-0.398 l -4.578,-2.493 c 0.117,-0.988 -0.203,-2 -0.563,-2.433 -0.468,-0.543 -0.078,-1.418 -0.054,-1.461 0.05,-0.109 1.086,-2.129 1.617,-3.238 0.527,-1.102 0.027,-1.539 0,-1.567 -3.235,-3.125 -3.235,-3.113 -3.762,-3.617 l -0.152,-0.113 -4.91,-2.672 -0.184,-0.008 -0.574,0.082 -0.574,0.078 -0.184,0.059 -0.145,0.156 c -0.539,0.656 -0.539,0.645 -3.785,4.68 -0.004,0.004 -0.015,0.019 -0.031,0.039 -0.004,0.008 -0.008,0.008 -0.012,0.012 -0.004,0.011 -0.015,0.031 -0.023,0.042 -0.008,0.012 -0.016,0.024 -0.024,0.04 -0.003,0.007 -0.007,0.011 -0.011,0.019 -0.008,0.016 -0.016,0.035 -0.024,0.051 -0.011,0.023 -0.019,0.047 -0.035,0.074 -0.004,0.012 -0.004,0.016 -0.008,0.024 -0.004,0.011 -0.007,0.031 -0.011,0.042 -0.016,0.043 -0.028,0.09 -0.036,0.141 -0.007,0.031 -0.011,0.063 -0.015,0.098 -0.004,0.051 -0.008,0.105 -0.008,0.164 0,0.039 0.004,0.078 0.008,0.117 0.004,0.066 0.019,0.137 0.039,0.211 0.008,0.039 0.016,0.078 0.027,0.117 0.035,0.117 0.086,0.242 0.16,0.371 0.528,0.961 1.551,2.696 1.606,2.789 0.004,0.004 0.019,0.047 0.039,0.086 0.004,0.012 0.012,0.028 0.019,0.043 0.02,0.059 0.043,0.137 0.067,0.223 0.004,0.019 0.008,0.043 0.015,0.066 0.016,0.098 0.032,0.207 0.032,0.324 0,0.02 -0.004,0.036 -0.004,0.051 -0.004,0.117 -0.024,0.242 -0.067,0.367 -0.007,0.016 -0.007,0.032 -0.011,0.047 -0.008,0.016 -0.016,0.028 -0.02,0.035 -0.031,0.079 -0.066,0.157 -0.121,0.231 -0.043,0.062 -0.086,0.137 -0.129,0.211 -0.008,0.012 -0.012,0.031 -0.015,0.043 -0.141,0.269 -0.262,0.609 -0.348,0.98 -0.012,0.051 -0.02,0.098 -0.027,0.145 -0.043,0.207 -0.075,0.418 -0.082,0.629 h -0.004 c -0.008,0.211 0.007,0.414 0.031,0.613 0.008,0.051 0.015,0.102 0.023,0.152 0.039,0.2 0.094,0.395 0.18,0.571 0.074,0.148 0.113,0.269 0.133,0.379 0.008,0.039 0.008,0.07 0.008,0.105 0.004,0.066 0.004,0.129 -0.012,0.184 -0.016,0.05 -0.027,0.101 -0.055,0.14 v 0.004 c -0.039,0.055 -0.09,0.098 -0.144,0.137 -0.012,0.008 -0.024,0.012 -0.035,0.016 -0.036,0.023 -0.079,0.043 -0.122,0.062 -0.113,0.047 -0.238,0.082 -0.375,0.113 -0.043,0.012 -0.086,0.02 -0.132,0.028 -0.118,0.023 -0.235,0.047 -0.352,0.07 -0.09,0.02 -0.203,0.047 -0.336,0.082 h -0.008 c -0.125,0.035 -0.269,0.074 -0.425,0.125 -0.028,0.008 -0.059,0.02 -0.086,0.031 -0.137,0.043 -0.278,0.09 -0.426,0.149 -0.055,0.019 -0.113,0.047 -0.168,0.07 -0.133,0.055 -0.266,0.109 -0.406,0.176 -0.016,0.004 -0.024,0.008 -0.036,0.012 -0.07,0.035 -0.148,0.082 -0.222,0.117 -0.117,0.058 -0.235,0.117 -0.356,0.183 -0.097,0.059 -0.199,0.121 -0.297,0.184 -0.113,0.07 -0.218,0.133 -0.332,0.207 -0.015,0.012 -0.031,0.019 -0.043,0.027 -0.043,0.032 -0.086,0.071 -0.125,0.102 -0.199,0.14 -0.394,0.297 -0.589,0.465 -0.039,0.035 -0.082,0.058 -0.122,0.093 -0.121,0.11 -0.242,0.227 -0.359,0.348 -0.07,0.07 -0.137,0.145 -0.199,0.211 -0.012,0.012 -0.016,0.02 -0.027,0.031 -0.067,0.078 -0.122,0.153 -0.176,0.223 -0.016,0.023 -0.039,0.047 -0.055,0.07 -0.008,0.008 -0.008,0.012 -0.012,0.02 -0.035,0.047 -0.058,0.09 -0.086,0.136 -0.023,0.036 -0.046,0.071 -0.066,0.106 -0.004,0.008 -0.008,0.012 -0.008,0.023 -0.023,0.043 -0.043,0.086 -0.058,0.129 -0.016,0.032 -0.032,0.063 -0.043,0.09 -0.004,0.008 0,0.012 -0.004,0.016 -0.035,0.105 -0.059,0.203 -0.071,0.293 v 0.062 c -0.007,0.078 -0.003,0.156 0.008,0.231 0,0.008 0,0.019 0.004,0.031 0.016,0.078 0.039,0.148 0.07,0.219 0.008,0.015 0.016,0.031 0.024,0.047 0.031,0.058 0.066,0.117 0.105,0.168 0.004,0.003 0.008,0.007 0.012,0.015 0.043,0.055 0.09,0.106 0.141,0.149 l 0.035,0.035 c 0.047,0.039 0.09,0.078 0.137,0.109 0,0.004 0.003,0.004 0.003,0.008 0.051,0.031 0.094,0.062 0.137,0.09 0.016,0.008 0.024,0.015 0.039,0.023 0.032,0.02 0.063,0.035 0.082,0.051 0.004,0.004 0.008,0.004 0.012,0.008 l 2.66,1.445 c -0.019,0.024 -0.035,0.051 -0.055,0.078 -0.027,0.035 -0.058,0.074 -0.093,0.114 -0.063,0.078 -0.125,0.152 -0.203,0.234 -0.039,0.043 -0.082,0.086 -0.125,0.133 -0.043,0.051 -0.098,0.133 -0.149,0.191 -0.078,0.098 -0.152,0.192 -0.238,0.309 -0.02,0.031 -0.039,0.051 -0.059,0.082 -0.105,0.148 -0.211,0.308 -0.32,0.476 -0.012,0.016 -0.02,0.032 -0.027,0.047 -0.141,0.219 -0.282,0.453 -0.422,0.696 -0.035,0.058 -0.071,0.117 -0.102,0.17501 -0.144,0.25399 -0.293,0.51199 -0.429,0.774 l -0.008,0.008 c -0.047,0.089 -0.09,0.175 -0.137,0.265 -0.113,0.215 -0.227,0.422 -0.328,0.633 -0.035,0.062 -0.063,0.125 -0.094,0.187 -0.109,0.227 -0.219,0.446 -0.316,0.657 -0.039,0.074 -0.067,0.14 -0.098,0.215 -0.086,0.179 -0.168,0.359 -0.234,0.515 -0.039,0.098 -0.071,0.172 -0.106,0.262 -0.035,0.094 -0.086,0.207 -0.117,0.289 -0.012,0.031 -0.02,0.062 -0.031,0.09 -0.31699,0.887 -0.082,1.375 0.32001,1.594 l 4.90999,2.671 c -0.011,-0.007 -0.015,-0.015 -0.027,-0.023 0.19901,0.117 0.441,0.17199 0.68301,0.168 l 8.92995,-1.25398 8.926,-1.258 c 0.699,-0.179 1.449,-0.824 0.992,-2.011 z"
         sodipodi:nodetypes="ccccccccccccccccccccccccsccccccscccccccccsccccccccccccccccccccccccccccccccccccccccccccccccccccccccccccccccccccccccccccccccccccacccccccccccccc" />
      <path
         inkscape:connector-curvature="0"
         id="path145984-3"
         style="display:inline;fill:#9c1218;fill-opacity:1;stroke:none;stroke-width:0.35607347;stroke-linecap:round;stroke-linejoin:round;stroke-miterlimit:10;stroke-dasharray:none;stroke-opacity:1"
         d="m 411.20304,468.895 c -0.469,-1.184 -2.293,-4.305 -3.328,-5.067 -1.023,-0.777 -0.508,-1.355 -0.043,-1.527 0.469,-0.18 2.063,-0.735 2.379,-1.008 0.309,-0.27 1.648,-1.379 0.004,-2.586 -0.21596,-0.12216 -0.41801,-0.26745 -0.629,-0.398 l -4.578,-2.493 c 0.117,-0.988 -0.203,-2 -0.563,-2.433 -0.468,-0.543 -0.078,-1.418 -0.054,-1.461 0.05,-0.109 1.086,-2.129 1.617,-3.238 0.527,-1.102 0.027,-1.539 0,-1.567 -3.235,-3.125 -3.235,-3.113 -3.762,-3.617 l -0.152,-0.113 -4.91,-2.672 -0.184,-0.008 -0.574,0.082 -0.574,0.078 -0.184,0.059 -0.145,0.156 c -0.539,0.656 -0.539,0.645 -3.785,4.68 -0.004,0.004 -0.015,0.019 -0.031,0.039 -0.004,0.008 -0.008,0.008 -0.012,0.012 -0.004,0.011 -0.015,0.031 -0.023,0.042 -0.008,0.012 -0.016,0.024 -0.024,0.04 -0.003,0.007 -0.007,0.011 -0.011,0.019 -0.008,0.016 -0.016,0.035 -0.024,0.051 -0.011,0.023 -0.019,0.047 -0.035,0.074 -0.004,0.012 -0.004,0.016 -0.008,0.024 -0.004,0.011 -0.007,0.031 -0.011,0.042 -0.016,0.043 -0.028,0.09 -0.036,0.141 -0.007,0.031 -0.011,0.063 -0.015,0.098 -0.004,0.051 -0.008,0.105 -0.008,0.164 0,0.039 0.004,0.078 0.008,0.117 0.004,0.066 0.019,0.137 0.039,0.211 0.008,0.039 0.016,0.078 0.027,0.117 0.035,0.117 0.086,0.242 0.16,0.371 0.528,0.961 1.551,2.696 1.606,2.789 0.004,0.004 0.019,0.047 0.039,0.086 0.004,0.012 0.012,0.028 0.019,0.043 0.02,0.059 0.043,0.137 0.067,0.223 0.004,0.019 0.008,0.043 0.015,0.066 0.016,0.098 0.032,0.207 0.032,0.324 0,0.02 -0.004,0.036 -0.004,0.051 -0.004,0.117 -0.024,0.242 -0.067,0.367 -0.007,0.016 -0.007,0.032 -0.011,0.047 -0.008,0.016 -0.016,0.028 -0.02,0.035 -0.031,0.079 -0.066,0.157 -0.121,0.231 -0.043,0.062 -0.086,0.137 -0.129,0.211 -0.008,0.012 -0.012,0.031 -0.015,0.043 -0.141,0.269 -0.262,0.609 -0.348,0.98 -0.012,0.051 -0.02,0.098 -0.027,0.145 -0.043,0.207 -0.075,0.418 -0.082,0.629 h -0.004 c -0.008,0.211 0.007,0.414 0.031,0.613 0.008,0.051 0.015,0.102 0.023,0.152 0.039,0.2 0.094,0.395 0.18,0.571 0.074,0.148 0.113,0.269 0.133,0.379 0.008,0.039 0.008,0.07 0.008,0.105 0.004,0.066 0.004,0.129 -0.012,0.184 -0.016,0.05 -0.027,0.101 -0.055,0.14 v 0.004 c -0.039,0.055 -0.09,0.098 -0.144,0.137 -0.012,0.008 -0.024,0.012 -0.035,0.016 -0.036,0.023 -0.079,0.043 -0.122,0.062 -0.113,0.047 -0.238,0.082 -0.375,0.113 -0.043,0.012 -0.086,0.02 -0.132,0.028 -0.118,0.023 -0.235,0.047 -0.352,0.07 -0.09,0.02 -0.203,0.047 -0.336,0.082 h -0.008 c -0.125,0.035 -0.269,0.074 -0.425,0.125 -0.028,0.008 -0.059,0.02 -0.086,0.031 -0.137,0.043 -0.278,0.09 -0.426,0.149 -0.055,0.019 -0.113,0.047 -0.168,0.07 -0.133,0.055 -0.266,0.109 -0.406,0.176 -0.016,0.004 -0.024,0.008 -0.036,0.012 -0.07,0.035 -0.148,0.082 -0.222,0.117 -0.117,0.058 -0.235,0.117 -0.356,0.183 -0.097,0.059 -0.199,0.121 -0.297,0.184 -0.113,0.07 -0.218,0.133 -0.332,0.207 -0.015,0.012 -0.031,0.019 -0.043,0.027 -0.043,0.032 -0.086,0.071 -0.125,0.102 -0.199,0.14 -0.394,0.297 -0.589,0.465 -0.039,0.035 -0.082,0.058 -0.122,0.093 -0.121,0.11 -0.242,0.227 -0.359,0.348 -0.07,0.07 -0.137,0.145 -0.199,0.211 -0.012,0.012 -0.016,0.02 -0.027,0.031 -0.067,0.078 -0.122,0.153 -0.176,0.223 -0.016,0.023 -0.039,0.047 -0.055,0.07 -0.008,0.008 -0.008,0.012 -0.012,0.02 -0.035,0.047 -0.058,0.09 -0.086,0.136 -0.023,0.036 -0.046,0.071 -0.066,0.106 -0.004,0.008 -0.008,0.012 -0.008,0.023 -0.023,0.043 -0.043,0.086 -0.058,0.129 -0.016,0.032 -0.032,0.063 -0.043,0.09 -0.004,0.008 0,0.012 -0.004,0.016 -0.035,0.105 -0.059,0.203 -0.071,0.293 v 0.062 c -0.007,0.078 -0.003,0.156 0.008,0.231 0,0.008 0,0.019 0.004,0.031 0.016,0.078 0.039,0.148 0.07,0.219 0.008,0.015 0.016,0.031 0.024,0.047 0.031,0.058 0.066,0.117 0.105,0.168 0.004,0.003 0.008,0.007 0.012,0.015 0.043,0.055 0.09,0.106 0.141,0.149 l 0.035,0.035 c 0.047,0.039 0.09,0.078 0.137,0.109 0,0.004 0.003,0.004 0.003,0.008 0.051,0.031 0.094,0.062 0.137,0.09 0.016,0.008 0.024,0.015 0.039,0.023 0.032,0.02 0.063,0.035 0.082,0.051 0.004,0.004 0.008,0.004 0.012,0.008 l 2.66,1.445 c -0.019,0.024 -0.035,0.051 -0.055,0.078 -0.027,0.035 -0.058,0.074 -0.093,0.114 -0.063,0.078 -0.125,0.152 -0.203,0.234 -0.039,0.043 -0.082,0.086 -0.125,0.133 -0.043,0.051 -0.098,0.133 -0.149,0.191 -0.078,0.098 -0.152,0.192 -0.238,0.309 -0.02,0.031 -0.039,0.051 -0.059,0.082 -0.105,0.148 -0.21099,0.308 -0.31999,0.476 -0.012,0.016 -0.02,0.032 -0.027,0.047 -0.141,0.219 -0.282,0.453 -0.422,0.696 -0.035,0.058 -0.071,0.117 -0.102,0.17501 -0.144,0.25399 -0.293,0.51199 -0.429,0.774 l -0.008,0.008 c -0.047,0.089 -0.09,0.175 -0.137,0.265 -0.113,0.215 -0.227,0.422 -0.328,0.633 -0.035,0.062 -0.063,0.125 -0.094,0.187 -0.109,0.227 -0.219,0.446 -0.316,0.657 -0.039,0.074 -0.067,0.14 -0.098,0.215 -0.086,0.179 -0.168,0.359 -0.234,0.515 -0.039,0.098 -0.071,0.172 -0.106,0.262 -0.035,0.094 -0.086,0.207 -0.117,0.289 -0.012,0.031 -0.02,0.062 -0.031,0.09 -0.31699,0.887 -0.082,1.375 0.32001,1.594 l 4.90999,2.671 c -0.011,-0.007 -0.015,-0.015 -0.027,-0.023 0.19901,0.117 0.441,0.17199 0.68301,0.168 l 8.92991,-1.25395 8.926,-1.258 c 0.699,-0.179 1.449,-0.824 0.992,-2.011 z"
         sodipodi:nodetypes="ccccccccccccccccccccccccsccccccscccccccccsccccccccccccccccccccccccccccccccccccccccccccccccccccccccccccccccccccccccccccccccccccacccccccccccccc" />
      <path
         inkscape:connector-curvature="0"
         id="path146720"
         style="display:inline;fill:#ed1c24;fill-opacity:1;fill-rule:nonzero;stroke:#231f20;stroke-width:0.15468767;stroke-miterlimit:4;stroke-dasharray:none;stroke-opacity:1"
         d="m 401.918,443.383 0.176,0.004 0.148,0.113 c 0.539,0.496 0.539,0.488 3.77,3.613 0.023,0.024 0.523,0.461 -0.004,1.575 -0.524,1.101 -1.563,3.128 -1.617,3.234 -0.02,0.047 -0.418,0.914 0.054,1.461 0.461,0.551 0.868,2.058 0.356,3.242 -0.528,1.184 0.355,0.98 1.078,0.93 0.719,-0.039 2.684,-0.067 4.328,1.148 1.648,1.219 0.309,2.324 -0.004,2.594 -0.305,0.266 -1.906,0.82 -2.371,0.996 -0.465,0.18 -0.988,0.754 0.043,1.527 1.031,0.778 2.859,3.891 3.32,5.082 0.465,1.188 -0.289,1.821 -0.984,2.004 l -8.926,1.254 -8.93,1.258 c -0.699,0.012 -1.441,-0.414 -0.972,-1.73 0.465,-1.321 2.297,-4.95 3.332,-6.02 1.035,-1.059 0.523,-1.492 0.058,-1.539 -0.464,-0.047 -2.062,-0.149 -2.375,-0.328 -0.304,-0.184 -1.648,-0.91 0.004,-2.598 1.661,-1.676 3.618,-2.199 4.344,-2.363 0.723,-0.152 1.594,-0.199 1.082,-1.235 -0.508,-1.042 -0.098,-2.664 0.367,-3.343 0.465,-0.68 0.078,-1.438 0.059,-1.477 -0.055,-0.094 -1.082,-1.828 -1.602,-2.785 -0.527,-0.961 -0.023,-1.543 0,-1.57 3.243,-4.035 3.243,-4.028 3.782,-4.676 l 0.144,-0.156 0.184,-0.051 z" />
    </g>
  </g>
</svg>
