<?xml version="1.0" encoding="UTF-8" standalone="no"?>
<!-- Created with Inkscape (http://www.inkscape.org/) -->

<svg
   xmlns:dc="http://purl.org/dc/elements/1.1/"
   xmlns:cc="http://creativecommons.org/ns#"
   xmlns:rdf="http://www.w3.org/1999/02/22-rdf-syntax-ns#"
   xmlns:svg="http://www.w3.org/2000/svg"
   xmlns="http://www.w3.org/2000/svg"
   xmlns:sodipodi="http://sodipodi.sourceforge.net/DTD/sodipodi-0.dtd"
   xmlns:inkscape="http://www.inkscape.org/namespaces/inkscape"
   version="1.1"
   id="svg2217"
   width="30.902178"
   height="30.34989"
   viewBox="0 0 30.902178 30.34989"
   sodipodi:docname="BigTop.svg"
   inkscape:version="0.92.3 (2405546, 2018-03-11)">
  <metadata
     id="metadata2223">
    <rdf:RDF>
      <cc:Work
         rdf:about="">
        <dc:format>image/svg+xml</dc:format>
        <dc:type
           rdf:resource="http://purl.org/dc/dcmitype/StillImage" />
        <dc:title />
      </cc:Work>
    </rdf:RDF>
  </metadata>
  <defs
     id="defs2221" />
  <sodipodi:namedview
     pagecolor="#ffffff"
     bordercolor="#666666"
     borderopacity="1"
     objecttolerance="10"
     gridtolerance="10"
     guidetolerance="10"
     inkscape:pageopacity="0"
     inkscape:pageshadow="2"
     inkscape:window-width="1920"
     inkscape:window-height="1017"
     id="namedview2219"
     showgrid="false"
     inkscape:object-paths="true"
     inkscape:snap-global="false"
     inkscape:zoom="10.24"
     inkscape:cx="-5.9118407"
     inkscape:cy="19.988663"
     inkscape:window-x="-8"
     inkscape:window-y="-8"
     inkscape:window-maximized="1"
     inkscape:current-layer="g822" />
  <g
     id="g822"
     inkscape:label="Ebene 1">
    <g
       inkscape:label="BigTop"
       id="g816">
      <path
         style="fill:#7d002d;fill-opacity:1;stroke:#000000;stroke-width:0.62400001;stroke-linecap:butt;stroke-linejoin:round;stroke-miterlimit:4;stroke-dasharray:none;stroke-opacity:1"
         d="m 15.374921,0.3119737 c -0.540039,0.80536 -0.788034,1.62032 -1.611328,2.24609 -3.388095,2.46397 -6.6369287,4.8281 -11.0527339,7.5175803 -1.4596701,1.14893 -1.3650923,2.30557 -0.2617188,3.10352 0.6218923,0.34042 1.2831843,0.6366 1.9765625,0.89062 h -0.00977 c -0.421856,2.12802 -1.0319395,3.80113 -1.6289062,5.50586 -0.6566318,1.61909 -1.3011682,3.28062 -2.06250005,4.69141 -0.56436958,0.96979 -0.52267865,1.62305 -0.0390625,2.04687 0.92611025,1.25832 2.89094995,1.91562 4.93359375,2.57813 2.7263115,0.82003 6.2404982,1.21887 9.9003912,1.13476 3.659893,0.0841 7.037359,-0.31468 9.763671,-1.13476 2.042644,-0.66251 4.007483,-1.31981 4.933594,-2.57813 0.483616,-0.42382 0.525306,-1.07708 -0.03906,-2.04687 -0.761332,-1.41079 -1.40782,-3.07232 -2.064453,-4.69141 -0.596966,-1.70473 -1.205098,-3.37784 -1.626953,-5.50586 -0.07103,0.041 0.916794,-0.31477 1.8125,-0.89062 1.103373,-0.79795 1.197951,-1.95459 -0.261719,-3.10352 -4.415805,-2.6894803 -7.664641,-5.0536103 -11.052735,-7.5175803 -0.823295,-0.62577 -1.069335,-1.44073 -1.609375,-2.24609 z"
         id="path2804"
         inkscape:connector-curvature="0"
         sodipodi:nodetypes="ccccccccccccccccccccc" />
      <path
         style="fill:#7d002d;fill-opacity:1;stroke:#000000;stroke-width:0.20031497;stroke-linecap:butt;stroke-linejoin:miter;stroke-miterlimit:4;stroke-dasharray:none;stroke-opacity:1"
         d="m 15.374921,0.3119737 c -0.540039,0.80536 -0.787472,1.6193 -1.610766,2.24507 -3.388096,2.46397 -6.6359768,4.82927 -11.0517818,7.5187503 -1.45967,1.14893 -1.365315,2.30601 -0.261941,3.10396 1.176116,0.6438 2.480071,1.13309 3.911863,1.46787 2.771866,0.73497 5.7428368,1.03542 8.8208688,1.10225 h 0.383516 c 3.078032,-0.0668 6.049003,-0.36728 8.820868,-1.10225 1.431793,-0.33478 2.735748,-0.82407 3.911864,-1.46787 1.103373,-0.79795 1.197728,-1.95503 -0.261942,-3.10396 -4.415805,-2.6894803 -7.663686,-5.0547803 -11.05178,-7.5187503 -0.823295,-0.62577 -1.070729,-1.43971 -1.610769,-2.24507"
         id="path2770-0"
         inkscape:connector-curvature="0"
         sodipodi:nodetypes="cccccccccccc" />
    </g>
  </g>
</svg>
