<?xml version="1.0" encoding="UTF-8" standalone="no"?>
<!-- Created with Inkscape (http://www.inkscape.org/) -->

<svg
   xmlns:dc="http://purl.org/dc/elements/1.1/"
   xmlns:cc="http://creativecommons.org/ns#"
   xmlns:rdf="http://www.w3.org/1999/02/22-rdf-syntax-ns#"
   xmlns:svg="http://www.w3.org/2000/svg"
   xmlns="http://www.w3.org/2000/svg"
   xmlns:sodipodi="http://sodipodi.sourceforge.net/DTD/sodipodi-0.dtd"
   xmlns:inkscape="http://www.inkscape.org/namespaces/inkscape"
   width="10.972155mm"
   height="10.09046mm"
   viewBox="0 0 10.972154 10.09046"
   version="1.1"
   id="svg107615"
   inkscape:version="0.92.3 (2405546, 2018-03-11)"
   sodipodi:docname="Dice2_f.svg">
  <defs
     id="defs107609">
    <clipPath
       clipPathUnits="userSpaceOnUse"
       id="clipPath96385">
      <path
         d="m 315.76,201.783 h 37.552 V 180.241 H 315.76 Z"
         id="path96383"
         inkscape:connector-curvature="0" />
    </clipPath>
    <clipPath
       clipPathUnits="userSpaceOnUse"
       id="clipPath96389">
      <path
         d="m 347.441,198.393 h 5.457 v -2.591 h -5.457 z"
         id="path96387"
         inkscape:connector-curvature="0" />
    </clipPath>
    <clipPath
       clipPathUnits="userSpaceOnUse"
       id="clipPath96393">
      <path
         d="m 348.34,198.281 4.558,-2.479 c -0.242,0.131 -0.535,0.121 -0.718,0.094 -0.11,-0.014 -0.176,-0.034 -0.18,-0.035 l -4.559,2.48 c 0.004,0.001 0.071,0.02 0.18,0.036 0.184,0.025 0.477,0.036 0.719,-0.096"
         id="path96391"
         inkscape:connector-curvature="0" />
    </clipPath>
    <clipPath
       clipPathUnits="userSpaceOnUse"
       id="clipPath96397">
      <path
         d="m 347.441,198.393 h 5.457 v -2.591 h -5.457 z"
         id="path96395"
         inkscape:connector-curvature="0" />
    </clipPath>
    <clipPath
       clipPathUnits="userSpaceOnUse"
       id="clipPath96401">
      <path
         d="m 343.53,198.136 h 5.29 v -2.558 h -5.29 z"
         id="path96399"
         inkscape:connector-curvature="0" />
    </clipPath>
    <clipPath
       clipPathUnits="userSpaceOnUse"
       id="clipPath96405">
      <path
         d="m 348.089,195.655 -4.559,2.481 c 0.13,-0.072 0.331,-0.101 0.641,-0.058 0.029,0.005 0.059,0.01 0.091,0.015 l 4.558,-2.48 c -0.031,-0.005 -0.061,-0.01 -0.091,-0.014 -0.309,-0.044 -0.51,-0.014 -0.64,0.056"
         id="path96403"
         inkscape:connector-curvature="0" />
    </clipPath>
    <clipPath
       clipPathUnits="userSpaceOnUse"
       id="clipPath96409">
      <path
         d="m 343.53,198.136 h 5.29 v -2.558 h -5.29 z"
         id="path96407"
         inkscape:connector-curvature="0" />
    </clipPath>
    <clipPath
       clipPathUnits="userSpaceOnUse"
       id="clipPath96413">
      <path
         d="m 333.115,186.979 h 5.147 v -5.38 h -5.147 z"
         id="path96411"
         inkscape:connector-curvature="0" />
    </clipPath>
    <clipPath
       clipPathUnits="userSpaceOnUse"
       id="clipPath96417">
      <path
         d="m 338.262,181.599 -4.559,2.48 c -0.337,0.184 -0.414,0.567 -0.412,1.175 10e-4,0.796 0.135,1.557 -0.176,1.725 l 4.559,-2.48 c 0.31,-0.169 0.177,-0.929 0.176,-1.725 -0.002,-0.607 0.075,-0.992 0.412,-1.175"
         id="path96415"
         inkscape:connector-curvature="0" />
    </clipPath>
    <clipPath
       clipPathUnits="userSpaceOnUse"
       id="clipPath96421">
      <path
         d="m 333.115,186.979 h 5.147 v -5.38 h -5.147 z"
         id="path96419"
         inkscape:connector-curvature="0" />
    </clipPath>
    <clipPath
       clipPathUnits="userSpaceOnUse"
       id="clipPath96425">
      <path
         d="m 322.291,182.93 h 4.663 v -2.615 h -4.663 z"
         id="path96423"
         inkscape:connector-curvature="0" />
    </clipPath>
    <clipPath
       clipPathUnits="userSpaceOnUse"
       id="clipPath96429">
      <path
         d="m 326.954,180.315 -4.558,2.48 c -0.06,0.032 -0.096,0.077 -0.105,0.135 l 4.559,-2.48 c 0.008,-0.058 0.045,-0.102 0.104,-0.135"
         id="path96427"
         inkscape:connector-curvature="0" />
    </clipPath>
    <clipPath
       clipPathUnits="userSpaceOnUse"
       id="clipPath96433">
      <path
         d="m 322.291,182.93 h 4.663 v -2.615 h -4.663 z"
         id="path96431"
         inkscape:connector-curvature="0" />
    </clipPath>
    <clipPath
       clipPathUnits="userSpaceOnUse"
       id="clipPath96437">
      <path
         d="m 327.305,201.783 h 19.421 v -4.204 h -19.421 z"
         id="path96435"
         inkscape:connector-curvature="0" />
    </clipPath>
    <clipPath
       clipPathUnits="userSpaceOnUse"
       id="clipPath96441">
      <path
         d="m 342.167,201.333 4.559,-2.479 c -0.125,0.067 -0.241,0.102 -0.334,0.108 -0.035,0.003 -0.071,0.001 -0.107,-0.004 -0.432,-0.061 -0.881,-0.631 -1.088,-0.924 -0.178,-0.248 -0.494,-0.373 -0.86,-0.425 -1,-0.14 -2.307,0.252 -2.375,0.273 -0.953,0.289 -1.899,0.597 -2.882,0.822 -1.657,0.381 -3.339,0.594 -5.084,0.6 -0.545,0.001 -1.098,-0.026 -1.642,-0.084 -0.164,-0.018 -0.327,-0.037 -0.491,-0.061 l -4.558,2.481 c 0.164,0.022 0.327,0.043 0.491,0.06 0.544,0.059 1.097,0.084 1.642,0.083 1.745,-0.005 3.426,-0.218 5.083,-0.599 0.984,-0.225 1.929,-0.533 2.881,-0.822 0.07,-0.021 1.376,-0.414 2.376,-0.273 0.366,0.052 0.682,0.178 0.861,0.425 0.207,0.293 0.655,0.863 1.088,0.924 0.036,0.004 0.071,0.007 0.106,0.004 0.094,-0.005 0.209,-0.041 0.334,-0.109"
         id="path96439"
         inkscape:connector-curvature="0" />
    </clipPath>
    <clipPath
       clipPathUnits="userSpaceOnUse"
       id="clipPath96445">
      <path
         d="m 327.305,201.783 h 19.421 v -4.204 h -19.421 z"
         id="path96443"
         inkscape:connector-curvature="0" />
    </clipPath>
    <clipPath
       clipPathUnits="userSpaceOnUse"
       id="clipPath96449">
      <path
         d="m 315.76,201.64 h 16.103 V 180.45 H 315.76 Z"
         id="path96447"
         inkscape:connector-curvature="0" />
    </clipPath>
    <clipPath
       clipPathUnits="userSpaceOnUse"
       id="clipPath96453">
      <path
         d="m 326.85,180.45 -4.559,2.48 c -0.246,1.348 -1.703,1.862 -2.294,2.469 -1.464,1.489 -3.463,2.971 -4.124,5.161 -0.334,1.128 0.118,2.635 0.704,3.703 0.531,0.982 1.229,1.867 1.999,2.648 0.611,0.623 1.268,1.216 1.926,1.767 2.034,1.694 4.417,2.626 6.803,2.962 l 4.558,-2.481 c -2.384,-0.335 -4.768,-1.267 -6.802,-2.961 -0.659,-0.551 -1.316,-1.144 -1.926,-1.766 -0.771,-0.783 -1.468,-1.667 -1.999,-2.65 -0.586,-1.066 -1.038,-2.574 -0.703,-3.703 0.66,-2.189 2.659,-3.671 4.123,-5.159 0.59,-0.608 2.048,-1.121 2.294,-2.47"
         id="path96451"
         inkscape:connector-curvature="0" />
    </clipPath>
    <clipPath
       clipPathUnits="userSpaceOnUse"
       id="clipPath96457">
      <path
         d="m 315.76,201.64 h 16.103 V 180.45 H 315.76 Z"
         id="path96455"
         inkscape:connector-curvature="0" />
    </clipPath>
    <clipPath
       clipPathUnits="userSpaceOnUse"
       id="clipPath93337">
      <path
         d="m 434.071,205.579 h 30.106 v -19.855 h -30.106 z"
         id="path93335"
         inkscape:connector-curvature="0" />
    </clipPath>
    <clipPath
       clipPathUnits="userSpaceOnUse"
       id="clipPath93341">
      <path
         d="m 456.027,203.756 h 7.549 v -3.838 h -7.549 z"
         id="path93339"
         inkscape:connector-curvature="0" />
    </clipPath>
    <clipPath
       clipPathUnits="userSpaceOnUse"
       id="clipPath93345">
      <path
         d="m 456.737,203.638 6.839,-3.72 c -0.257,0.14 -0.524,0.124 -0.644,0.107 -0.042,-0.005 -0.065,-0.011 -0.067,-0.011 l -6.838,3.719 c 0.001,0 0.025,0.006 0.066,0.012 0.121,0.018 0.388,0.032 0.644,-0.107"
         id="path93343"
         inkscape:connector-curvature="0" />
    </clipPath>
    <clipPath
       clipPathUnits="userSpaceOnUse"
       id="clipPath93349">
      <path
         d="m 456.027,203.756 h 7.549 v -3.838 h -7.549 z"
         id="path93347"
         inkscape:connector-curvature="0" />
    </clipPath>
    <clipPath
       clipPathUnits="userSpaceOnUse"
       id="clipPath93353">
      <path
         d="m 447.63,192.457 h 7.731 v -4.533 h -7.731 z"
         id="path93351"
         inkscape:connector-curvature="0" />
    </clipPath>
    <clipPath
       clipPathUnits="userSpaceOnUse"
       id="clipPath93357">
      <path
         d="m 455.361,187.924 -6.839,3.72 c -0.29,0.158 -0.6,0.412 -0.892,0.813 l 6.838,-3.72 c 0.293,-0.401 0.602,-0.655 0.893,-0.813"
         id="path93355"
         inkscape:connector-curvature="0" />
    </clipPath>
    <clipPath
       clipPathUnits="userSpaceOnUse"
       id="clipPath93361">
      <path
         d="m 447.63,192.457 h 7.731 v -4.533 h -7.731 z"
         id="path93359"
         inkscape:connector-curvature="0" />
    </clipPath>
    <clipPath
       clipPathUnits="userSpaceOnUse"
       id="clipPath93365">
      <path
         d="m 445.921,194.844 h 7.007 v -3.861 h -7.007 z"
         id="path93363"
         inkscape:connector-curvature="0" />
    </clipPath>
    <clipPath
       clipPathUnits="userSpaceOnUse"
       id="clipPath93369">
      <path
         d="m 445.921,194.844 6.839,-3.721 c 0.098,-0.054 0.162,-0.133 0.168,-0.14 l -6.839,3.72 c -0.005,0.007 -0.068,0.086 -0.168,0.141"
         id="path93367"
         inkscape:connector-curvature="0" />
    </clipPath>
    <clipPath
       clipPathUnits="userSpaceOnUse"
       id="clipPath93373">
      <path
         d="m 445.921,194.844 h 7.007 v -3.861 h -7.007 z"
         id="path93371"
         inkscape:connector-curvature="0" />
    </clipPath>
    <clipPath
       clipPathUnits="userSpaceOnUse"
       id="clipPath93377">
      <path
         d="m 448.153,202.894 h 7.825 v -3.873 h -7.825 z"
         id="path93375"
         inkscape:connector-curvature="0" />
    </clipPath>
    <clipPath
       clipPathUnits="userSpaceOnUse"
       id="clipPath93381">
      <path
         d="m 454.991,199.174 -6.838,3.72 c 0.207,-0.113 0.522,-0.194 0.986,-0.128 l 6.839,-3.721 c -0.464,-0.066 -0.779,0.016 -0.987,0.129"
         id="path93379"
         inkscape:connector-curvature="0" />
    </clipPath>
    <clipPath
       clipPathUnits="userSpaceOnUse"
       id="clipPath93385">
      <path
         d="m 448.153,202.894 h 7.825 v -3.872 h -7.825 z"
         id="path93383"
         inkscape:connector-curvature="0" />
    </clipPath>
    <clipPath
       clipPathUnits="userSpaceOnUse"
       id="clipPath93389">
      <path
         d="m 445.718,205.579 h 7.104 v -3.795 h -7.104 z"
         id="path93387"
         inkscape:connector-curvature="0" />
    </clipPath>
    <clipPath
       clipPathUnits="userSpaceOnUse"
       id="clipPath93393">
      <path
         d="m 445.984,205.504 6.838,-3.72 c -0.149,0.081 -0.236,0.077 -0.266,0.073 l -6.838,3.72 c 0.029,0.004 0.116,0.008 0.266,-0.073"
         id="path93391"
         inkscape:connector-curvature="0" />
    </clipPath>
    <clipPath
       clipPathUnits="userSpaceOnUse"
       id="clipPath93397">
      <path
         d="m 445.718,205.579 h 7.104 v -3.795 h -7.104 z"
         id="path93395"
         inkscape:connector-curvature="0" />
    </clipPath>
    <clipPath
       clipPathUnits="userSpaceOnUse"
       id="clipPath93401">
      <path
         d="m 444.376,205.577 h 8.18 v -5.36 h -8.18 z"
         id="path93399"
         inkscape:connector-curvature="0" />
    </clipPath>
    <clipPath
       clipPathUnits="userSpaceOnUse"
       id="clipPath93405">
      <path
         d="m 451.215,200.217 -6.839,3.72 c 0.863,1.522 1.284,1.632 1.342,1.64 l 6.838,-3.72 c -0.057,-0.007 -0.478,-0.119 -1.341,-1.64"
         id="path93403"
         inkscape:connector-curvature="0" />
    </clipPath>
    <clipPath
       clipPathUnits="userSpaceOnUse"
       id="clipPath93409">
      <path
         d="m 444.376,205.577 h 8.18 v -5.36 h -8.18 z"
         id="path93407"
         inkscape:connector-curvature="0" />
    </clipPath>
    <clipPath
       clipPathUnits="userSpaceOnUse"
       id="clipPath93413">
      <path
         d="m 442.306,202.658 h 8.177 v -4.573 h -8.177 z"
         id="path93411"
         inkscape:connector-curvature="0" />
    </clipPath>
    <clipPath
       clipPathUnits="userSpaceOnUse"
       id="clipPath93417">
      <path
         d="m 449.145,198.085 -6.839,3.72 c 1.034,0.145 1.324,0.817 1.339,0.853 l 6.838,-3.72 c -0.015,-0.036 -0.305,-0.708 -1.338,-0.853"
         id="path93415"
         inkscape:connector-curvature="0" />
    </clipPath>
    <clipPath
       clipPathUnits="userSpaceOnUse"
       id="clipPath93421">
      <path
         d="m 442.306,202.658 h 8.177 v -4.573 h -8.177 z"
         id="path93419"
         inkscape:connector-curvature="0" />
    </clipPath>
    <clipPath
       clipPathUnits="userSpaceOnUse"
       id="clipPath93425">
      <path
         d="m 434.071,191.122 h 7.504 v -5.229 h -7.504 z"
         id="path93423"
         inkscape:connector-curvature="0" />
    </clipPath>
    <clipPath
       clipPathUnits="userSpaceOnUse"
       id="clipPath93429">
      <path
         d="m 441.575,185.893 -6.839,3.719 c -0.756,0.411 -0.664,1.439 -0.658,1.51 l 6.839,-3.72 c -0.007,-0.071 -0.099,-1.098 0.658,-1.509"
         id="path93427"
         inkscape:connector-curvature="0" />
    </clipPath>
    <clipPath
       clipPathUnits="userSpaceOnUse"
       id="clipPath93433">
      <path
         d="m 434.071,191.122 h 7.504 v -5.229 h -7.504 z"
         id="path93431"
         inkscape:connector-curvature="0" />
    </clipPath>
    <clipPath
       clipPathUnits="userSpaceOnUse"
       id="clipPath93437">
      <path
         d="m 434.093,200.835 h 8.155 v -5.634 h -8.155 z"
         id="path93435"
         inkscape:connector-curvature="0" />
    </clipPath>
    <clipPath
       clipPathUnits="userSpaceOnUse"
       id="clipPath93441">
      <path
         d="m 440.932,195.201 -6.839,3.721 c 0.003,1.622 0.985,1.869 1.251,1.907 0.042,0.006 0.064,0.006 0.065,0.006 l 6.839,-3.72 c -10e-4,0 -0.023,0 -0.065,-0.006 -0.266,-0.038 -1.248,-0.285 -1.251,-1.908"
         id="path93439"
         inkscape:connector-curvature="0" />
    </clipPath>
    <clipPath
       clipPathUnits="userSpaceOnUse"
       id="clipPath93445">
      <path
         d="m 434.093,200.835 h 8.155 v -5.634 h -8.155 z"
         id="path93443"
         inkscape:connector-curvature="0" />
    </clipPath>
    <clipPath
       clipPathUnits="userSpaceOnUse"
       id="clipPath92361">
      <path
         d="m 432.921,181.724 h 32.406 v -32.706 h -32.406 z"
         id="path92359"
         inkscape:connector-curvature="0" />
    </clipPath>
    <clipPath
       clipPathUnits="userSpaceOnUse"
       id="clipPath92365">
      <path
         d="m 454.877,168.282 h 9.832 v -5.077 h -9.832 z"
         id="path92363"
         inkscape:connector-curvature="0" />
    </clipPath>
    <clipPath
       clipPathUnits="userSpaceOnUse"
       id="clipPath92369">
      <path
         d="m 455.592,168.165 9.117,-4.96 c -0.253,0.138 -0.518,0.124 -0.642,0.107 -0.046,-0.007 -0.071,-0.014 -0.072,-0.015 l -9.118,4.96 c 0.002,0.001 0.027,0.008 0.073,0.014 0.124,0.017 0.389,0.032 0.642,-0.106"
         id="path92367"
         inkscape:connector-curvature="0" />
    </clipPath>
    <clipPath
       clipPathUnits="userSpaceOnUse"
       id="clipPath92373">
      <path
         d="m 454.877,168.281 h 9.832 v -5.076 h -9.832 z"
         id="path92371"
         inkscape:connector-curvature="0" />
    </clipPath>
    <clipPath
       clipPathUnits="userSpaceOnUse"
       id="clipPath92377">
      <path
         d="m 446.479,156.99 h 10.01 v -5.772 h -10.01 z"
         id="path92375"
         inkscape:connector-curvature="0" />
    </clipPath>
    <clipPath
       clipPathUnits="userSpaceOnUse"
       id="clipPath92381">
      <path
         d="m 456.489,151.218 -9.117,4.96 c -0.291,0.158 -0.6,0.411 -0.893,0.812 l 9.118,-4.96 c 0.293,-0.401 0.602,-0.654 0.892,-0.812"
         id="path92379"
         inkscape:connector-curvature="0" />
    </clipPath>
    <clipPath
       clipPathUnits="userSpaceOnUse"
       id="clipPath92385">
      <path
         d="m 446.479,156.99 h 10.01 v -5.772 h -10.01 z"
         id="path92383"
         inkscape:connector-curvature="0" />
    </clipPath>
    <clipPath
       clipPathUnits="userSpaceOnUse"
       id="clipPath92389">
      <path
         d="m 444.771,159.377 h 9.286 v -5.1 h -9.286 z"
         id="path92387"
         inkscape:connector-curvature="0" />
    </clipPath>
    <clipPath
       clipPathUnits="userSpaceOnUse"
       id="clipPath92393">
      <path
         d="m 444.771,159.377 9.118,-4.96 c 0.098,-0.054 0.162,-0.133 0.168,-0.14 l -9.119,4.96 c -0.004,0.007 -0.068,0.086 -0.167,0.14"
         id="path92391"
         inkscape:connector-curvature="0" />
    </clipPath>
    <clipPath
       clipPathUnits="userSpaceOnUse"
       id="clipPath92397">
      <path
         d="m 444.771,159.377 h 9.286 v -5.1 h -9.286 z"
         id="path92395"
         inkscape:connector-curvature="0" />
    </clipPath>
    <clipPath
       clipPathUnits="userSpaceOnUse"
       id="clipPath92401">
      <path
         d="m 454.899,179.9 h 9.827 v -5.078 h -9.827 z"
         id="path92399"
         inkscape:connector-curvature="0" />
    </clipPath>
    <clipPath
       clipPathUnits="userSpaceOnUse"
       id="clipPath92405">
      <path
         d="m 455.608,179.782 9.118,-4.96 c -0.256,0.14 -0.523,0.125 -0.644,0.108 -0.041,-0.006 -0.064,-0.012 -0.065,-0.012 l -9.118,4.96 c 10e-4,0 0.025,0.006 0.066,0.012 0.121,0.016 0.388,0.032 0.643,-0.108"
         id="path92403"
         inkscape:connector-curvature="0" />
    </clipPath>
    <clipPath
       clipPathUnits="userSpaceOnUse"
       id="clipPath92409">
      <path
         d="m 454.899,179.9 h 9.827 v -5.078 h -9.827 z"
         id="path92407"
         inkscape:connector-curvature="0" />
    </clipPath>
    <clipPath
       clipPathUnits="userSpaceOnUse"
       id="clipPath92413">
      <path
         d="m 447.01,167.418 h 10.096 v -5.111 H 447.01 Z"
         id="path92411"
         inkscape:connector-curvature="0" />
    </clipPath>
    <clipPath
       clipPathUnits="userSpaceOnUse"
       id="clipPath92417">
      <path
         d="m 456.127,162.458 -9.117,4.96 c 0.207,-0.113 0.52,-0.193 0.979,-0.129 l 9.117,-4.96 c -0.459,-0.064 -0.772,0.017 -0.979,0.129"
         id="path92415"
         inkscape:connector-curvature="0" />
    </clipPath>
    <clipPath
       clipPathUnits="userSpaceOnUse"
       id="clipPath92421">
      <path
         d="m 447.01,167.418 h 10.096 v -5.111 H 447.01 Z"
         id="path92419"
         inkscape:connector-curvature="0" />
    </clipPath>
    <clipPath
       clipPathUnits="userSpaceOnUse"
       id="clipPath92425">
      <path
         d="m 446.501,168.602 h 10.011 v -5.773 h -10.011 z"
         id="path92423"
         inkscape:connector-curvature="0" />
    </clipPath>
    <clipPath
       clipPathUnits="userSpaceOnUse"
       id="clipPath92429">
      <path
         d="m 456.512,162.829 -9.117,4.96 c -0.291,0.158 -0.601,0.412 -0.894,0.813 l 9.117,-4.959 c 0.293,-0.402 0.603,-0.656 0.894,-0.814"
         id="path92427"
         inkscape:connector-curvature="0" />
    </clipPath>
    <clipPath
       clipPathUnits="userSpaceOnUse"
       id="clipPath92433">
      <path
         d="m 446.501,168.602 h 10.011 v -5.773 h -10.011 z"
         id="path92431"
         inkscape:connector-curvature="0" />
    </clipPath>
    <clipPath
       clipPathUnits="userSpaceOnUse"
       id="clipPath92437">
      <path
         d="m 444.567,170.112 h 9.384 v -5.035 h -9.384 z"
         id="path92435"
         inkscape:connector-curvature="0" />
    </clipPath>
    <clipPath
       clipPathUnits="userSpaceOnUse"
       id="clipPath92441">
      <path
         d="m 444.834,170.037 9.117,-4.96 c -0.15,0.081 -0.237,0.077 -0.266,0.073 l -9.118,4.96 c 0.03,0.004 0.117,0.008 0.267,-0.073"
         id="path92439"
         inkscape:connector-curvature="0" />
    </clipPath>
    <clipPath
       clipPathUnits="userSpaceOnUse"
       id="clipPath92445">
      <path
         d="m 444.567,170.112 h 9.384 v -5.035 h -9.384 z"
         id="path92443"
         inkscape:connector-curvature="0" />
    </clipPath>
    <clipPath
       clipPathUnits="userSpaceOnUse"
       id="clipPath92449">
      <path
         d="m 444.793,170.988 h 9.285 v -5.099 h -9.285 z"
         id="path92447"
         inkscape:connector-curvature="0" />
    </clipPath>
    <clipPath
       clipPathUnits="userSpaceOnUse"
       id="clipPath92453">
      <path
         d="m 444.793,170.988 9.117,-4.96 c 0.099,-0.053 0.162,-0.132 0.168,-0.139 l -9.117,4.96 c -0.006,0.006 -0.069,0.086 -0.168,0.139"
         id="path92451"
         inkscape:connector-curvature="0" />
    </clipPath>
    <clipPath
       clipPathUnits="userSpaceOnUse"
       id="clipPath92457">
      <path
         d="m 444.793,170.988 h 9.285 v -5.099 h -9.285 z"
         id="path92455"
         inkscape:connector-curvature="0" />
    </clipPath>
    <clipPath
       clipPathUnits="userSpaceOnUse"
       id="clipPath92461">
      <path
         d="m 443.226,170.11 h 10.459 v -6.6 h -10.459 z"
         id="path92459"
         inkscape:connector-curvature="0" />
    </clipPath>
    <clipPath
       clipPathUnits="userSpaceOnUse"
       id="clipPath92465">
      <path
         d="m 452.343,163.51 -9.117,4.96 c 0.863,1.521 1.284,1.633 1.341,1.64 l 9.118,-4.96 c -0.058,-0.007 -0.479,-0.119 -1.342,-1.64"
         id="path92463"
         inkscape:connector-curvature="0" />
    </clipPath>
    <clipPath
       clipPathUnits="userSpaceOnUse"
       id="clipPath92469">
      <path
         d="m 443.226,170.11 h 10.459 v -6.6 h -10.459 z"
         id="path92467"
         inkscape:connector-curvature="0" />
    </clipPath>
    <clipPath
       clipPathUnits="userSpaceOnUse"
       id="clipPath92473">
      <path
         d="m 441.155,167.191 h 10.456 v -5.822 h -10.456 z"
         id="path92471"
         inkscape:connector-curvature="0" />
    </clipPath>
    <clipPath
       clipPathUnits="userSpaceOnUse"
       id="clipPath92477">
      <path
         d="m 450.272,161.369 -9.117,4.959 c 1.034,0.146 1.324,0.827 1.339,0.863 l 9.117,-4.96 c -0.014,-0.036 -0.304,-0.717 -1.339,-0.862"
         id="path92475"
         inkscape:connector-curvature="0" />
    </clipPath>
    <clipPath
       clipPathUnits="userSpaceOnUse"
       id="clipPath92481">
      <path
         d="m 441.155,167.191 h 10.456 v -5.822 h -10.456 z"
         id="path92479"
         inkscape:connector-curvature="0" />
    </clipPath>
    <clipPath
       clipPathUnits="userSpaceOnUse"
       id="clipPath92485">
      <path
         d="m 447.024,179.038 h 10.104 v -5.111 h -10.104 z"
         id="path92483"
         inkscape:connector-curvature="0" />
    </clipPath>
    <clipPath
       clipPathUnits="userSpaceOnUse"
       id="clipPath92489">
      <path
         d="m 456.142,174.079 -9.118,4.959 c 0.207,-0.112 0.522,-0.193 0.987,-0.128 l 9.117,-4.96 c -0.464,-0.065 -0.779,0.016 -0.986,0.129"
         id="path92487"
         inkscape:connector-curvature="0" />
    </clipPath>
    <clipPath
       clipPathUnits="userSpaceOnUse"
       id="clipPath92493">
      <path
         d="m 447.024,179.038 h 10.104 v -5.111 h -10.104 z"
         id="path92491"
         inkscape:connector-curvature="0" />
    </clipPath>
    <clipPath
       clipPathUnits="userSpaceOnUse"
       id="clipPath92497">
      <path
         d="m 432.921,155.656 h 9.782 v -6.469 h -9.782 z"
         id="path92495"
         inkscape:connector-curvature="0" />
    </clipPath>
    <clipPath
       clipPathUnits="userSpaceOnUse"
       id="clipPath92501">
      <path
         d="m 442.703,149.187 -9.117,4.959 c -0.757,0.412 -0.665,1.439 -0.658,1.51 l 9.117,-4.96 c -0.007,-0.071 -0.099,-1.098 0.658,-1.509"
         id="path92499"
         inkscape:connector-curvature="0" />
    </clipPath>
    <clipPath
       clipPathUnits="userSpaceOnUse"
       id="clipPath92505">
      <path
         d="m 432.921,155.656 h 9.782 v -6.469 h -9.782 z"
         id="path92503"
         inkscape:connector-curvature="0" />
    </clipPath>
    <clipPath
       clipPathUnits="userSpaceOnUse"
       id="clipPath92509">
      <path
         d="m 444.589,181.724 h 9.384 v -5.036 h -9.384 z"
         id="path92507"
         inkscape:connector-curvature="0" />
    </clipPath>
    <clipPath
       clipPathUnits="userSpaceOnUse"
       id="clipPath92513">
      <path
         d="m 444.855,181.648 9.118,-4.96 c -0.15,0.082 -0.238,0.078 -0.267,0.074 l -9.117,4.96 c 0.029,0.004 0.116,0.007 0.266,-0.074"
         id="path92511"
         inkscape:connector-curvature="0" />
    </clipPath>
    <clipPath
       clipPathUnits="userSpaceOnUse"
       id="clipPath92517">
      <path
         d="m 444.589,181.724 h 9.384 v -5.036 h -9.384 z"
         id="path92515"
         inkscape:connector-curvature="0" />
    </clipPath>
    <clipPath
       clipPathUnits="userSpaceOnUse"
       id="clipPath92521">
      <path
         d="m 443.247,181.722 h 10.459 v -6.601 h -10.459 z"
         id="path92519"
         inkscape:connector-curvature="0" />
    </clipPath>
    <clipPath
       clipPathUnits="userSpaceOnUse"
       id="clipPath92525">
      <path
         d="m 452.365,175.121 -9.118,4.96 c 0.863,1.522 1.284,1.633 1.342,1.641 l 9.117,-4.96 c -0.058,-0.008 -0.478,-0.119 -1.341,-1.641"
         id="path92523"
         inkscape:connector-curvature="0" />
    </clipPath>
    <clipPath
       clipPathUnits="userSpaceOnUse"
       id="clipPath92529">
      <path
         d="m 443.247,181.722 h 10.459 v -6.601 h -10.459 z"
         id="path92527"
         inkscape:connector-curvature="0" />
    </clipPath>
    <clipPath
       clipPathUnits="userSpaceOnUse"
       id="clipPath92533">
      <path
         d="m 441.177,178.803 h 10.457 v -5.814 h -10.457 z"
         id="path92531"
         inkscape:connector-curvature="0" />
    </clipPath>
    <clipPath
       clipPathUnits="userSpaceOnUse"
       id="clipPath92537">
      <path
         d="m 450.295,172.989 -9.118,4.96 c 1.034,0.146 1.324,0.819 1.339,0.854 l 9.118,-4.96 c -0.016,-0.035 -0.306,-0.708 -1.339,-0.854"
         id="path92535"
         inkscape:connector-curvature="0" />
    </clipPath>
    <clipPath
       clipPathUnits="userSpaceOnUse"
       id="clipPath92541">
      <path
         d="m 441.177,178.803 h 10.457 v -5.814 h -10.457 z"
         id="path92539"
         inkscape:connector-curvature="0" />
    </clipPath>
    <clipPath
       clipPathUnits="userSpaceOnUse"
       id="clipPath92545">
      <path
         d="m 432.942,165.359 h 10.434 v -6.864 h -10.434 z"
         id="path92543"
         inkscape:connector-curvature="0" />
    </clipPath>
    <clipPath
       clipPathUnits="userSpaceOnUse"
       id="clipPath92549">
      <path
         d="m 442.06,158.495 -9.118,4.96 c 0.003,1.609 0.97,1.859 1.245,1.898 0.045,0.006 0.07,0.006 0.072,0.006 l 9.117,-4.96 c -10e-4,0 -0.026,0 -0.072,-0.006 -0.275,-0.039 -1.241,-0.289 -1.244,-1.898"
         id="path92547"
         inkscape:connector-curvature="0" />
    </clipPath>
    <clipPath
       clipPathUnits="userSpaceOnUse"
       id="clipPath92553">
      <path
         d="m 432.942,165.359 h 10.434 v -6.864 h -10.434 z"
         id="path92551"
         inkscape:connector-curvature="0" />
    </clipPath>
    <clipPath
       clipPathUnits="userSpaceOnUse"
       id="clipPath92557">
      <path
         d="m 432.942,167.268 h 9.783 v -6.47 h -9.783 z"
         id="path92555"
         inkscape:connector-curvature="0" />
    </clipPath>
    <clipPath
       clipPathUnits="userSpaceOnUse"
       id="clipPath92561">
      <path
         d="m 442.725,160.798 -9.118,4.96 c -0.756,0.411 -0.665,1.438 -0.658,1.51 l 9.117,-4.96 c -0.005,-0.072 -0.098,-1.099 0.659,-1.51"
         id="path92559"
         inkscape:connector-curvature="0" />
    </clipPath>
    <clipPath
       clipPathUnits="userSpaceOnUse"
       id="clipPath92565">
      <path
         d="m 432.942,167.268 h 9.783 v -6.47 h -9.783 z"
         id="path92563"
         inkscape:connector-curvature="0" />
    </clipPath>
    <clipPath
       clipPathUnits="userSpaceOnUse"
       id="clipPath92569">
      <path
         d="m 432.964,176.98 h 10.433 v -6.875 h -10.433 z"
         id="path92567"
         inkscape:connector-curvature="0" />
    </clipPath>
    <clipPath
       clipPathUnits="userSpaceOnUse"
       id="clipPath92573">
      <path
         d="m 442.081,170.105 -9.117,4.96 c 0.003,1.623 0.985,1.872 1.251,1.909 0.042,0.005 0.064,0.005 0.065,0.006 l 9.117,-4.959 c -10e-4,0 -0.023,-10e-4 -0.065,-0.007 -0.266,-0.037 -1.248,-0.285 -1.251,-1.909"
         id="path92571"
         inkscape:connector-curvature="0" />
    </clipPath>
    <clipPath
       clipPathUnits="userSpaceOnUse"
       id="clipPath92577">
      <path
         d="m 432.964,176.98 h 10.433 v -6.875 h -10.433 z"
         id="path92575"
         inkscape:connector-curvature="0" />
    </clipPath>
    <clipPath
       clipPathUnits="userSpaceOnUse"
       id="clipPath93337-1">
      <path
         d="m 434.071,205.579 h 30.106 v -19.855 h -30.106 z"
         id="path93335-9"
         inkscape:connector-curvature="0" />
    </clipPath>
    <clipPath
       clipPathUnits="userSpaceOnUse"
       id="clipPath93341-0">
      <path
         d="m 456.027,203.756 h 7.549 v -3.838 h -7.549 z"
         id="path93339-9"
         inkscape:connector-curvature="0" />
    </clipPath>
    <clipPath
       clipPathUnits="userSpaceOnUse"
       id="clipPath93345-5">
      <path
         d="m 456.737,203.638 6.839,-3.72 c -0.257,0.14 -0.524,0.124 -0.644,0.107 -0.042,-0.005 -0.065,-0.011 -0.067,-0.011 l -6.838,3.719 c 0.001,0 0.025,0.006 0.066,0.012 0.121,0.018 0.388,0.032 0.644,-0.107"
         id="path93343-6"
         inkscape:connector-curvature="0" />
    </clipPath>
    <clipPath
       clipPathUnits="userSpaceOnUse"
       id="clipPath93349-1">
      <path
         d="m 456.027,203.756 h 7.549 v -3.838 h -7.549 z"
         id="path93347-6"
         inkscape:connector-curvature="0" />
    </clipPath>
    <clipPath
       clipPathUnits="userSpaceOnUse"
       id="clipPath93353-1">
      <path
         d="m 447.63,192.457 h 7.731 v -4.533 h -7.731 z"
         id="path93351-2"
         inkscape:connector-curvature="0" />
    </clipPath>
    <clipPath
       clipPathUnits="userSpaceOnUse"
       id="clipPath93357-4">
      <path
         d="m 455.361,187.924 -6.839,3.72 c -0.29,0.158 -0.6,0.412 -0.892,0.813 l 6.838,-3.72 c 0.293,-0.401 0.602,-0.655 0.893,-0.813"
         id="path93355-6"
         inkscape:connector-curvature="0" />
    </clipPath>
    <clipPath
       clipPathUnits="userSpaceOnUse"
       id="clipPath93361-2">
      <path
         d="m 447.63,192.457 h 7.731 v -4.533 h -7.731 z"
         id="path93359-2"
         inkscape:connector-curvature="0" />
    </clipPath>
    <clipPath
       clipPathUnits="userSpaceOnUse"
       id="clipPath93365-8">
      <path
         d="m 445.921,194.844 h 7.007 v -3.861 h -7.007 z"
         id="path93363-1"
         inkscape:connector-curvature="0" />
    </clipPath>
    <clipPath
       clipPathUnits="userSpaceOnUse"
       id="clipPath93369-5">
      <path
         d="m 445.921,194.844 6.839,-3.721 c 0.098,-0.054 0.162,-0.133 0.168,-0.14 l -6.839,3.72 c -0.005,0.007 -0.068,0.086 -0.168,0.141"
         id="path93367-1"
         inkscape:connector-curvature="0" />
    </clipPath>
    <clipPath
       clipPathUnits="userSpaceOnUse"
       id="clipPath93373-1">
      <path
         d="m 445.921,194.844 h 7.007 v -3.861 h -7.007 z"
         id="path93371-6"
         inkscape:connector-curvature="0" />
    </clipPath>
    <clipPath
       clipPathUnits="userSpaceOnUse"
       id="clipPath93377-3">
      <path
         d="m 448.153,202.894 h 7.825 v -3.873 h -7.825 z"
         id="path93375-7"
         inkscape:connector-curvature="0" />
    </clipPath>
    <clipPath
       clipPathUnits="userSpaceOnUse"
       id="clipPath93381-5">
      <path
         d="m 454.991,199.174 -6.838,3.72 c 0.207,-0.113 0.522,-0.194 0.986,-0.128 l 6.839,-3.721 c -0.464,-0.066 -0.779,0.016 -0.987,0.129"
         id="path93379-1"
         inkscape:connector-curvature="0" />
    </clipPath>
    <clipPath
       clipPathUnits="userSpaceOnUse"
       id="clipPath93385-0">
      <path
         d="m 448.153,202.894 h 7.825 v -3.872 h -7.825 z"
         id="path93383-1"
         inkscape:connector-curvature="0" />
    </clipPath>
    <clipPath
       clipPathUnits="userSpaceOnUse"
       id="clipPath93389-1">
      <path
         d="m 445.718,205.579 h 7.104 v -3.795 h -7.104 z"
         id="path93387-1"
         inkscape:connector-curvature="0" />
    </clipPath>
    <clipPath
       clipPathUnits="userSpaceOnUse"
       id="clipPath93393-2">
      <path
         d="m 445.984,205.504 6.838,-3.72 c -0.149,0.081 -0.236,0.077 -0.266,0.073 l -6.838,3.72 c 0.029,0.004 0.116,0.008 0.266,-0.073"
         id="path93391-0"
         inkscape:connector-curvature="0" />
    </clipPath>
    <clipPath
       clipPathUnits="userSpaceOnUse"
       id="clipPath93397-8">
      <path
         d="m 445.718,205.579 h 7.104 v -3.795 h -7.104 z"
         id="path93395-5"
         inkscape:connector-curvature="0" />
    </clipPath>
    <clipPath
       clipPathUnits="userSpaceOnUse"
       id="clipPath93401-3">
      <path
         d="m 444.376,205.577 h 8.18 v -5.36 h -8.18 z"
         id="path93399-5"
         inkscape:connector-curvature="0" />
    </clipPath>
    <clipPath
       clipPathUnits="userSpaceOnUse"
       id="clipPath93405-1">
      <path
         d="m 451.215,200.217 -6.839,3.72 c 0.863,1.522 1.284,1.632 1.342,1.64 l 6.838,-3.72 c -0.057,-0.007 -0.478,-0.119 -1.341,-1.64"
         id="path93403-0"
         inkscape:connector-curvature="0" />
    </clipPath>
    <clipPath
       clipPathUnits="userSpaceOnUse"
       id="clipPath93409-5">
      <path
         d="m 444.376,205.577 h 8.18 v -5.36 h -8.18 z"
         id="path93407-6"
         inkscape:connector-curvature="0" />
    </clipPath>
    <clipPath
       clipPathUnits="userSpaceOnUse"
       id="clipPath93413-8">
      <path
         d="m 442.306,202.658 h 8.177 v -4.573 h -8.177 z"
         id="path93411-3"
         inkscape:connector-curvature="0" />
    </clipPath>
    <clipPath
       clipPathUnits="userSpaceOnUse"
       id="clipPath93417-3">
      <path
         d="m 449.145,198.085 -6.839,3.72 c 1.034,0.145 1.324,0.817 1.339,0.853 l 6.838,-3.72 c -0.015,-0.036 -0.305,-0.708 -1.338,-0.853"
         id="path93415-9"
         inkscape:connector-curvature="0" />
    </clipPath>
    <clipPath
       clipPathUnits="userSpaceOnUse"
       id="clipPath93421-4">
      <path
         d="m 442.306,202.658 h 8.177 v -4.573 h -8.177 z"
         id="path93419-4"
         inkscape:connector-curvature="0" />
    </clipPath>
    <clipPath
       clipPathUnits="userSpaceOnUse"
       id="clipPath93425-9">
      <path
         d="m 434.071,191.122 h 7.504 v -5.229 h -7.504 z"
         id="path93423-5"
         inkscape:connector-curvature="0" />
    </clipPath>
    <clipPath
       clipPathUnits="userSpaceOnUse"
       id="clipPath93429-2">
      <path
         d="m 441.575,185.893 -6.839,3.719 c -0.756,0.411 -0.664,1.439 -0.658,1.51 l 6.839,-3.72 c -0.007,-0.071 -0.099,-1.098 0.658,-1.509"
         id="path93427-1"
         inkscape:connector-curvature="0" />
    </clipPath>
    <clipPath
       clipPathUnits="userSpaceOnUse"
       id="clipPath93433-9">
      <path
         d="m 434.071,191.122 h 7.504 v -5.229 h -7.504 z"
         id="path93431-1"
         inkscape:connector-curvature="0" />
    </clipPath>
    <clipPath
       clipPathUnits="userSpaceOnUse"
       id="clipPath93437-4">
      <path
         d="m 434.093,200.835 h 8.155 v -5.634 h -8.155 z"
         id="path93435-2"
         inkscape:connector-curvature="0" />
    </clipPath>
    <clipPath
       clipPathUnits="userSpaceOnUse"
       id="clipPath93441-0">
      <path
         d="m 440.932,195.201 -6.839,3.721 c 0.003,1.622 0.985,1.869 1.251,1.907 0.042,0.006 0.064,0.006 0.065,0.006 l 6.839,-3.72 c -10e-4,0 -0.023,0 -0.065,-0.006 -0.266,-0.038 -1.248,-0.285 -1.251,-1.908"
         id="path93439-3"
         inkscape:connector-curvature="0" />
    </clipPath>
    <clipPath
       clipPathUnits="userSpaceOnUse"
       id="clipPath93445-7">
      <path
         d="m 434.093,200.835 h 8.155 v -5.634 h -8.155 z"
         id="path93443-1"
         inkscape:connector-curvature="0" />
    </clipPath>
    <linearGradient
       x1="0"
       y1="0"
       x2="1"
       y2="0"
       gradientUnits="userSpaceOnUse"
       gradientTransform="matrix(0,-23.078125,-23.078125,0,416.4873,109.15137)"
       spreadMethod="pad"
       id="linearGradient97145">
      <stop
         style="stop-opacity:1;stop-color:#d1d3d4"
         offset="0"
         id="stop97141" />
      <stop
         style="stop-opacity:1;stop-color:#a7a9ac"
         offset="1"
         id="stop97143" />
    </linearGradient>
  </defs>
  <sodipodi:namedview
     id="base"
     pagecolor="#ffffff"
     bordercolor="#666666"
     borderopacity="1.0"
     inkscape:pageopacity="0.0"
     inkscape:pageshadow="2"
     inkscape:zoom="11.2"
     inkscape:cx="11.81588"
     inkscape:cy="8.4440836"
     inkscape:document-units="mm"
     inkscape:current-layer="layer1"
     showgrid="false"
     inkscape:window-width="1920"
     inkscape:window-height="1017"
     inkscape:window-x="-8"
     inkscape:window-y="-8"
     inkscape:window-maximized="1" />
  <metadata
     id="metadata107612">
    <rdf:RDF>
      <cc:Work
         rdf:about="">
        <dc:format>image/svg+xml</dc:format>
        <dc:type
           rdf:resource="http://purl.org/dc/dcmitype/StillImage" />
        <dc:title></dc:title>
      </cc:Work>
    </rdf:RDF>
  </metadata>
  <g
     inkscape:label="Ebene 1"
     inkscape:groupmode="layer"
     id="layer1"
     transform="translate(-63.372597,-116.374)">
    <g
       id="g114400"
       inkscape:label="Dice2">
      <path
         inkscape:connector-curvature="0"
         id="path97269"
         style="fill:none;stroke:#231f20;stroke-width:0.32349721;stroke-linecap:butt;stroke-linejoin:miter;stroke-miterlimit:10;stroke-dasharray:none;stroke-opacity:1"
         d="m 74.17449,119.25007 c -0.0035,-1.28129 -1.051984,-2.40277 -2.330098,-2.49203 l -2.927702,-0.20531 c -1.278114,-0.0889 -3.013428,0.19544 -3.856214,0.63288 -0.843139,0.4378 -1.529644,1.84397 -1.526117,3.12526 l 0.0085,3.27766 c 0.0035,1.28129 1.052336,2.40277 2.33045,2.49202 l 2.92735,0.20496 c 1.278114,0.0896 3.01378,-0.19508 3.856214,-0.63288 0.842786,-0.43744 1.529644,-1.84362 1.526116,-3.1249 z" />
      <path
         inkscape:connector-curvature="0"
         id="path97273"
         style="fill:#d1d3d4;fill-opacity:1;fill-rule:nonzero;stroke:none;stroke-width:0.35277775"
         d="m 74.17449,119.25007 c -0.0035,-1.28129 -1.051984,-2.40277 -2.330098,-2.49203 l -2.927702,-0.20531 c -1.278114,-0.0889 -3.013428,0.19544 -3.856214,0.63288 -0.843139,0.4378 -1.529644,1.84397 -1.526117,3.12526 l 0.0085,3.27766 c 0.0035,1.28129 1.052336,2.40277 2.33045,2.49202 l 2.92735,0.20496 c 1.278114,0.0896 3.01378,-0.19508 3.856214,-0.63288 0.842786,-0.43744 1.529644,-1.84362 1.526116,-3.1249 z" />
      <g
         inkscape:label="Three"
         id="g114336">
        <path
           d="m 74.154486,121.01359 c 3.53e-4,-2.0066 -0.621595,-3.28013 -1.388533,-2.84515 -0.766234,0.43497 -1.388181,2.413 -1.388181,4.42066 0,2.00589 0.621947,3.28048 1.388181,2.84585 0.766938,-0.43532 1.388533,-2.41405 1.388533,-4.42136"
           style="fill:#f1f2f2;fill-opacity:1;fill-rule:nonzero;stroke:none;stroke-width:0.35277775"
           id="path97289"
           inkscape:connector-curvature="0" />
        <path
           d="m 72.644845,122.58628 -0.526697,0.30903 v -1.45274 l 0.526697,-0.28363 z"
           style="fill:#231f20;fill-opacity:1;fill-rule:nonzero;stroke:none;stroke-width:0.35277775"
           id="path97293"
           inkscape:connector-curvature="0" />
        <path
           d="m 73.317662,122.19115 -0.50165,0.29457 v -1.41852 l 0.50165,-0.26988 z"
           style="fill:#231f20;fill-opacity:1;fill-rule:nonzero;stroke:none;stroke-width:0.35277775"
           id="path97297"
           inkscape:connector-curvature="0" />
        <path
           d="m 73.960176,121.81356 -0.479072,0.28222 v -1.38606 l 0.479072,-0.25753 z"
           style="fill:#231f20;fill-opacity:1;fill-rule:nonzero;stroke:none;stroke-width:0.35277775"
           id="path97301"
           inkscape:connector-curvature="0" />
      </g>
      <g
         inkscape:label="Two"
         id="g114366">
        <path
           d="m 67.271544,126.11407 c 2.048934,0.14464 3.7084,-1.41358 3.709106,-3.48085 0,-2.06693 -1.660172,-3.85939 -3.709106,-4.00474 -2.048933,-0.14393 -3.709105,1.41394 -3.709105,3.48121 0,2.06799 1.660172,3.85975 3.709105,4.00438"
           style="fill:#f1f2f2;fill-opacity:1;fill-rule:nonzero;stroke:none;stroke-width:0.35277775"
           id="path97277"
           inkscape:connector-curvature="0" />
        <path
           d="m 65.550376,123.06896 v -1.49436 l 1.483078,0.10407 v 1.49472 z"
           style="fill:#231f20;fill-opacity:1;fill-rule:nonzero;stroke:none;stroke-width:0.35277775"
           id="path97281"
           inkscape:connector-curvature="0" />
        <path
           d="m 67.397628,123.22432 v -1.49436 l 1.483431,0.10407 v 1.49472 z"
           style="fill:#231f20;fill-opacity:1;fill-rule:nonzero;stroke:none;stroke-width:0.35277775"
           id="path97285"
           inkscape:connector-curvature="0" />
      </g>
      <g
         inkscape:label="One"
         id="g114340">
        <path
           d="m 72.300003,117.86067 c 1.079147,-0.42193 0.42298,-0.9391 -1.465439,-1.15394 -1.887714,-0.21519 -4.293658,-0.0473 -5.373158,0.37465 -1.078795,0.42263 -0.421922,0.93945 1.465086,1.15429 1.889478,0.21555 4.294364,0.0476 5.373511,-0.375"
           style="fill:#f1f2f2;fill-opacity:1;fill-rule:nonzero;stroke:none;stroke-width:0.35277775"
           id="path97305"
           inkscape:connector-curvature="0" />
        <path
           d="m 69.173935,117.70184 -1.368072,-0.15558 0.781755,-0.30586 1.368072,0.15593 z"
           style="fill:#231f20;fill-opacity:1;fill-rule:nonzero;stroke:none;stroke-width:0.35277775"
           id="path97309"
           inkscape:connector-curvature="0" />
      </g>
    </g>
  </g>
</svg>
