<?xml version="1.0" encoding="UTF-8" standalone="no"?>
<!-- Created with Inkscape (http://www.inkscape.org/) -->

<svg
   xmlns:dc="http://purl.org/dc/elements/1.1/"
   xmlns:cc="http://creativecommons.org/ns#"
   xmlns:rdf="http://www.w3.org/1999/02/22-rdf-syntax-ns#"
   xmlns:svg="http://www.w3.org/2000/svg"
   xmlns="http://www.w3.org/2000/svg"
   xmlns:sodipodi="http://sodipodi.sourceforge.net/DTD/sodipodi-0.dtd"
   xmlns:inkscape="http://www.inkscape.org/namespaces/inkscape"
   width="9.0183172mm"
   height="14.680938mm"
   viewBox="0 0 9.0183172 14.680938"
   version="1.1"
   id="svg110025"
   inkscape:version="0.92.3 (2405546, 2018-03-11)"
   sodipodi:docname="Mage_f.svg">
  <defs
     id="defs110019" />
  <sodipodi:namedview
     id="base"
     pagecolor="#ffffff"
     bordercolor="#666666"
     borderopacity="1.0"
     inkscape:pageopacity="0.0"
     inkscape:pageshadow="2"
     inkscape:zoom="7.9195959"
     inkscape:cx="-4.6956135"
     inkscape:cy="27.333078"
     inkscape:document-units="mm"
     inkscape:current-layer="layer1"
     showgrid="false"
     inkscape:window-width="1920"
     inkscape:window-height="1017"
     inkscape:window-x="-8"
     inkscape:window-y="-8"
     inkscape:window-maximized="1" />
  <metadata
     id="metadata110022">
    <rdf:RDF>
      <cc:Work
         rdf:about="">
        <dc:format>image/svg+xml</dc:format>
        <dc:type
           rdf:resource="http://purl.org/dc/dcmitype/StillImage" />
        <dc:title />
      </cc:Work>
    </rdf:RDF>
  </metadata>
  <g
     inkscape:label="Ebene 1"
     inkscape:groupmode="layer"
     id="layer1"
     transform="translate(323.71128,-25.801721)">
    <g
       transform="matrix(-0.98031109,0,0,0.91640065,-284.35467,-27.052231)"
       id="g109607"
       inkscape:label="Mage"
       style="stroke-width:1.05505562">
      <path
         inkscape:connector-curvature="0"
         id="path2501"
         style="display:inline;fill:none;fill-opacity:1;stroke:#000000;stroke-width:0.04270998;stroke-linecap:round;stroke-linejoin:round;stroke-miterlimit:10;stroke-dasharray:none;stroke-opacity:1"
         d="m 40.076067,72.122786 c -0.03528,-0.08537 -0.706261,-1.712031 -1.110898,-2.770716 -0.404988,-1.056571 -0.243063,-1.353257 -0.172508,-1.414993 0.07056,-0.06209 0.226836,-0.498475 -0.04657,-0.945092 -0.27305,-0.446616 0.186267,-0.563386 0.210256,-0.569383 1.28905,-0.309033 1.08338,-0.767997 1.044575,-1.030817 -0.01976,-0.124177 -0.141817,-0.216252 -0.268111,-0.280811 0.0081,0.0042 0.01588,0.0074 0.02399,0.01129 l -1.362075,-0.74048 c -0.231776,-1.05904 -0.896057,-4.065412 -1.120423,-4.748037 -0.125236,-0.37465 -0.252236,-0.530578 -0.376061,-0.590198 0.0049,0.0021 0.0095,0.0025 0.01411,0.0049 l -2.412294,-1.311941 c -0.0039,-0.0025 -0.0078,-0.0046 -0.01199,-0.0067 -0.02011,-0.0095 -0.04022,-0.01729 -0.06068,-0.02222 -0.0021,-3.44e-4 -0.0039,-3.44e-4 -0.006,-7.15e-4 -0.02893,-0.0071 -0.05821,-0.01023 -0.08678,-0.0099 -0.0078,0.0028 -0.01552,0.006 -0.02434,0.01023 -0.0025,0.0011 -0.0056,0.0032 -0.0081,0.0046 -0.0071,0.0035 -0.01376,0.0078 -0.02117,0.01235 -0.0046,0.0028 -0.0092,0.0046 -0.01446,0.0081 -0.0046,0.0035 -0.0099,0.0078 -0.01482,0.01164 -0.0049,0.0042 -0.0099,0.0081 -0.01517,0.01199 -0.0035,0.0035 -0.0071,0.0056 -0.01094,0.0092 -0.0085,0.0074 -0.01764,0.01764 -0.02611,0.02646 -0.0046,0.0049 -0.0092,0.0085 -0.01341,0.01376 l -0.0049,0.0049 c -0.01411,0.01588 -0.02858,0.03493 -0.04339,0.05503 -0.0028,0.0039 -0.0056,0.0067 -0.0081,0.01058 -7.14e-4,0.0011 -0.0014,0.0018 -0.0021,0.0028 -0.0042,0.006 -0.0085,0.01446 -0.01235,0.02081 -0.01799,0.02646 -0.03598,0.05503 -0.05468,0.0889 -0.0021,0.0035 -0.0039,0.006 -0.006,0.01023 -0.0095,0.01729 -0.01905,0.0388 -0.02822,0.05821 -0.0095,0.0187 -0.01834,0.03563 -0.02787,0.05644 -0.01199,0.02646 -0.02399,0.05786 -0.03634,0.0882 -0.0092,0.02363 -0.01905,0.04551 -0.02858,0.07161 -7.14e-4,0.0021 -0.0018,0.0039 -0.0025,0.006 -0.02046,0.05503 -0.04057,0.115711 -0.06138,0.18168 -0.269875,0.885825 -1.171575,5.221464 -1.2192,5.450064 0,0.0011 0,0.0078 -7.06e-4,0.01588 -3.52e-4,0.0021 -0.0018,0.0063 -0.0025,0.0095 -0.0018,0.01023 -0.0046,0.02222 -0.0127,0.0374 -3.52e-4,3.43e-4 -3.52e-4,7.14e-4 -7.07e-4,0.0014 -0.0092,0.01764 -0.02434,0.03775 -0.04692,0.05856 -3.52e-4,7.14e-4 -7.06e-4,0.0011 -0.0014,0.0018 -0.02364,0.02152 -0.05574,0.0441 -0.09913,0.06632 -0.0042,0.0021 -0.0092,0.0039 -0.01446,0.0063 -0.120297,0.05644 -0.382763,0.1651 -0.570794,0.242006 -0.113594,0.04621 -0.200731,0.08114 -0.212019,0.08573 -0.0028,0.0014 -0.01164,0.0064 -0.02364,0.01305 -0.0056,0.0032 -0.01164,0.0067 -0.0194,0.01058 -0.01058,0.0063 -0.02187,0.0127 -0.03598,0.02152 -0.0092,0.0056 -0.01834,0.01093 -0.02893,0.01764 -0.01552,0.0092 -0.0314,0.0194 -0.04868,0.03104 -0.01129,0.0071 -0.02187,0.01411 -0.03387,0.02222 l -0.01446,0.0095 c -0.0039,0.0028 -0.0081,0.0067 -0.01199,0.0095 -0.04621,0.03246 -0.09349,0.06844 -0.1397,0.109008 -0.0039,0.0035 -0.0085,0.006 -0.01199,0.0095 -0.0014,0.0011 -0.0025,0.0025 -0.0039,0.0035 -0.0095,0.0088 -0.01799,0.01834 -0.02716,0.02752 -0.01764,0.01658 -0.03598,0.03351 -0.05186,0.0515 -0.0028,0.0032 -0.0049,0.0067 -0.0078,0.0099 -0.0049,0.0056 -0.0088,0.01129 -0.01341,0.01658 -0.0095,0.01164 -0.01975,0.02328 -0.02787,0.03528 -0.01199,0.01693 -0.02258,0.03387 -0.03175,0.0508 -3.52e-4,7.15e-4 -3.52e-4,0.0011 -7.07e-4,0.0018 -3.52e-4,3.44e-4 -3.52e-4,7.14e-4 -7.06e-4,0.0014 -0.0081,0.01552 -0.01517,0.03104 -0.02117,0.04657 -0.0063,0.01834 -0.01129,0.03634 -0.01446,0.05433 -0.02575,0.178858 -0.122766,0.46108 0.170745,0.620889 l 1.093611,0.595136 c -0.0053,0.01129 -0.0085,0.02046 -0.01482,0.03246 -0.03281,0.06279 -0.05997,0.123825 -0.08114,0.182386 -3.52e-4,0.0014 -7.07e-4,0.0025 -0.0011,0.0039 -0.0053,0.01411 -0.0081,0.02716 -0.01235,0.04127 -0.01376,0.04233 -0.02646,0.08431 -0.03563,0.123825 -0.0046,0.02187 -0.0067,0.04198 -0.01023,0.06244 -0.0049,0.02999 -0.0095,0.05997 -0.01199,0.08784 -0.0018,0.02152 -0.0021,0.04092 -0.0025,0.06103 -7.07e-4,0.02469 -0.0011,0.04939 3.52e-4,0.07232 7.06e-4,0.0187 0.0025,0.03634 0.0042,0.05362 0.0021,0.02117 0.0053,0.04092 0.0088,0.05997 0.0028,0.01517 0.0056,0.02963 0.0088,0.04375 0.0049,0.01764 0.0099,0.03351 0.01517,0.04868 0.0035,0.01093 0.0071,0.02222 0.01129,0.0314 0.006,0.01517 0.0127,0.02716 0.01905,0.03845 0.0035,0.006 0.0067,0.01305 0.0099,0.01764 0.0095,0.01411 0.01905,0.02505 0.02752,0.02963 0.07056,0.04198 0.231069,0.293864 -0.1778,1.464736 -0.05539,0.159102 -0.116064,0.3302 -0.179212,0.507293 -3.51e-4,0.0013 -0.0011,0.0028 -0.0014,0.0042 -0.189794,0.531635 -0.403224,1.116541 -0.578908,1.59385 -0.0702,0.191558 -0.134055,0.364773 -0.188736,0.511881 -0.09701,0.262112 -0.163336,0.43956 -0.173567,0.467429 -0.006,0.01976 -0.124883,0.401815 0.02434,0.530225 0.01376,0.0113 0.02858,0.02117 0.04445,0.02999 l 2.412295,1.311978 c -0.01623,-0.0085 -0.03104,-0.01834 -0.04445,-0.02998 0.149577,0.128765 0.504119,0.07867 0.522816,0.0762 l 2.718153,-0.382058 0.110419,-0.01553 2.718506,-0.382059 c 0.0187,-0.0028 0.372886,-0.05221 0.523169,-0.223308 0.150284,-0.170037 0.03281,-0.518583 0.02646,-0.537279 z" />
      <path
         inkscape:connector-curvature="0"
         id="path2501-7"
         style="display:inline;fill:#371a2b;fill-opacity:1;stroke:none;stroke-width:0.37220013;stroke-linecap:round;stroke-linejoin:round;stroke-miterlimit:10;stroke-dasharray:none;stroke-opacity:1"
         d="m 40.076067,72.122786 c -0.03528,-0.08537 -0.706261,-1.712031 -1.110898,-2.770716 -0.404988,-1.056571 -0.243063,-1.353257 -0.172508,-1.414993 0.07056,-0.06209 0.226836,-0.498475 -0.04657,-0.945092 -0.27305,-0.446616 0.186267,-0.563386 0.210256,-0.569383 1.28905,-0.309033 1.08338,-0.767997 1.044575,-1.030817 -0.01976,-0.124177 -0.141817,-0.216252 -0.268111,-0.280811 0.0081,0.0042 0.01588,0.0074 0.02399,0.01129 l -1.362075,-0.740481 c -0.231776,-1.059039 -0.896057,-4.065411 -1.120423,-4.748036 -0.125236,-0.37465 -0.252236,-0.530578 -0.376061,-0.590198 0.0049,0.0021 0.0095,0.0025 0.01411,0.0049 l -2.412294,-1.311941 c -0.0039,-0.0025 -0.0078,-0.0046 -0.01199,-0.0067 -0.02011,-0.0095 -0.04022,-0.01729 -0.06068,-0.02222 -0.0021,-3.44e-4 -0.0039,-3.44e-4 -0.006,-7.15e-4 -0.02893,-0.0071 -0.05821,-0.01023 -0.08678,-0.0099 -0.0078,0.0028 -0.01552,0.006 -0.02434,0.01023 -0.0025,0.0011 -0.0056,0.0032 -0.0081,0.0046 -0.0071,0.0035 -0.01376,0.0078 -0.02117,0.01235 -0.0046,0.0028 -0.0092,0.0046 -0.01446,0.0081 -0.0046,0.0035 -0.0099,0.0078 -0.01482,0.01164 -0.0049,0.0042 -0.0099,0.0081 -0.01517,0.01199 -0.0035,0.0035 -0.0071,0.0056 -0.01094,0.0092 -0.0085,0.0074 -0.01764,0.01764 -0.02611,0.02646 -0.0046,0.0049 -0.0092,0.0085 -0.01341,0.01376 l -0.0049,0.0049 c -0.01411,0.01588 -0.02858,0.03493 -0.04339,0.05503 -0.0028,0.0039 -0.0056,0.0067 -0.0081,0.01058 -7.14e-4,0.0011 -0.0014,0.0018 -0.0021,0.0028 -0.0042,0.006 -0.0085,0.01446 -0.01235,0.02081 -0.01799,0.02646 -0.03598,0.05503 -0.05468,0.0889 -0.0021,0.0035 -0.0039,0.006 -0.006,0.01023 -0.0095,0.01729 -0.01905,0.0388 -0.02822,0.05821 -0.0095,0.0187 -0.01834,0.03563 -0.02787,0.05644 -0.01199,0.02646 -0.02399,0.05786 -0.03634,0.0882 -0.0092,0.02363 -0.01905,0.04551 -0.02858,0.07161 -7.14e-4,0.0021 -0.0018,0.0039 -0.0025,0.006 -0.02046,0.05503 -0.04057,0.115711 -0.06138,0.18168 -0.269875,0.885825 -1.171575,5.221464 -1.2192,5.450064 0,0.0011 0,0.0078 -7.07e-4,0.01588 -3.52e-4,0.0021 -0.0018,0.0063 -0.0025,0.0095 -0.0018,0.01023 -0.0046,0.02222 -0.0127,0.0374 -3.52e-4,3.44e-4 -3.52e-4,7.15e-4 -7.06e-4,0.0014 -0.0092,0.01764 -0.02434,0.03775 -0.04692,0.05856 -3.52e-4,7.15e-4 -7.07e-4,0.0011 -0.0014,0.0018 -0.02364,0.02152 -0.05574,0.0441 -0.09913,0.06632 -0.0042,0.0021 -0.0092,0.0039 -0.01446,0.0063 -0.120297,0.05644 -0.382763,0.1651 -0.570794,0.242006 -0.113594,0.04621 -0.200731,0.08114 -0.212019,0.08573 -0.0028,0.0014 -0.01164,0.0064 -0.02364,0.01305 -0.0056,0.0032 -0.01164,0.0067 -0.0194,0.01058 -0.01058,0.0063 -0.02187,0.0127 -0.03598,0.02152 -0.0092,0.0056 -0.01834,0.01093 -0.02893,0.01764 -0.01552,0.0092 -0.0314,0.0194 -0.04868,0.03104 -0.01129,0.0071 -0.02187,0.01411 -0.03387,0.02222 l -0.01446,0.0095 c -0.0039,0.0028 -0.0081,0.0067 -0.01199,0.0095 -0.04621,0.03246 -0.09349,0.06844 -0.1397,0.109008 -0.0039,0.0035 -0.0085,0.006 -0.01199,0.0095 -0.0014,0.0011 -0.0025,0.0025 -0.0039,0.0035 -0.0095,0.0088 -0.01799,0.01834 -0.02716,0.02752 -0.01764,0.01658 -0.03598,0.03351 -0.05186,0.0515 -0.0028,0.0032 -0.0049,0.0067 -0.0078,0.0099 -0.0049,0.0056 -0.0088,0.01129 -0.01341,0.01658 -0.0095,0.01164 -0.01975,0.02328 -0.02787,0.03528 -0.01199,0.01693 -0.02258,0.03387 -0.03175,0.0508 -3.52e-4,7.14e-4 -3.52e-4,0.0011 -7.07e-4,0.0018 -3.52e-4,3.44e-4 -3.52e-4,7.14e-4 -7.06e-4,0.0014 -0.0081,0.01552 -0.01517,0.03104 -0.02117,0.04657 -0.0063,0.01834 -0.01129,0.03634 -0.01446,0.05433 -0.02575,0.178858 -0.122766,0.46108 0.170745,0.620889 l 1.093611,0.595136 c -0.0053,0.01129 -0.0085,0.02046 -0.01482,0.03246 -0.03281,0.06279 -0.05997,0.123825 -0.08114,0.182386 -3.52e-4,0.0014 -7.07e-4,0.0025 -0.0011,0.0039 -0.0053,0.01411 -0.0081,0.02716 -0.01235,0.04127 -0.01376,0.04233 -0.02646,0.08431 -0.03563,0.123825 -0.0046,0.02187 -0.0067,0.04198 -0.01023,0.06244 -0.0049,0.02999 -0.0095,0.05997 -0.01199,0.08784 -0.0018,0.02152 -0.0021,0.04092 -0.0025,0.06103 -7.06e-4,0.02469 -0.0011,0.04939 3.52e-4,0.07232 7.07e-4,0.0187 0.0025,0.03634 0.0042,0.05362 0.0021,0.02117 0.0053,0.04092 0.0088,0.05997 0.0028,0.01517 0.0056,0.02963 0.0088,0.04375 0.0049,0.01764 0.0099,0.03351 0.01517,0.04868 0.0035,0.01093 0.0071,0.02222 0.01129,0.0314 0.006,0.01517 0.0127,0.02716 0.01905,0.03845 0.0035,0.006 0.0067,0.01305 0.0099,0.01764 0.0095,0.01411 0.01905,0.02505 0.02752,0.02963 0.07056,0.04198 0.231069,0.293864 -0.1778,1.464736 -0.05539,0.159102 -0.116064,0.3302 -0.179212,0.507293 -3.51e-4,0.0013 -0.0011,0.0028 -0.0014,0.0042 -0.189794,0.531635 -0.403224,1.116541 -0.578908,1.59385 -0.0702,0.191558 -0.134055,0.364773 -0.188736,0.511881 -0.09701,0.262112 -0.163336,0.43956 -0.173567,0.467429 -0.006,0.01976 -0.124883,0.401815 0.02434,0.530225 0.01376,0.0113 0.02858,0.02117 0.04445,0.02999 l 2.412271,1.311974 c -0.01623,-0.0085 -0.03104,-0.01834 -0.04445,-0.02998 0.149577,0.128765 0.504119,0.07867 0.522816,0.0762 l 2.718153,-0.382058 0.110419,-0.01553 2.718506,-0.382059 c 0.0187,-0.0028 0.372886,-0.05221 0.523169,-0.223308 0.150284,-0.170037 0.03281,-0.518583 0.02646,-0.537279 z" />
      <path
         inkscape:connector-curvature="0"
         id="path43531"
         style="display:inline;fill:#693252;fill-opacity:1;fill-rule:nonzero;stroke:#000000;stroke-width:0.01479496;stroke-miterlimit:4;stroke-dasharray:none;stroke-opacity:1"
         d="m 36.747085,59.009367 c 0.169333,-0.0025 0.349955,0.09419 0.52705,0.624769 0.267052,0.809625 1.152877,4.891969 1.199797,5.106458 -7.14e-4,0.0056 -0.01199,0.108303 0.163336,0.144639 0.174978,0.03986 0.765528,0.110067 0.796572,0.113947 0.02611,0.0063 0.524934,0.130528 0.567267,0.392995 0.03881,0.262819 0.244122,0.721783 -1.044575,1.031169 -0.02434,0.006 -0.483306,0.122414 -0.210256,0.569384 0.27305,0.446263 0.117123,0.88265 0.04657,0.944738 -0.07056,0.06174 -0.23248,0.358775 0.172156,1.414992 0.404989,1.059039 1.075619,2.68605 1.11125,2.771422 0.0056,0.01834 0.123119,0.366889 -0.02681,0.536928 -0.14993,0.171097 -0.504119,0.220486 -0.522817,0.223308 l -2.718505,0.382059 -0.110772,0.01552 -2.718153,0.382058 c -0.01834,0.0028 -0.372886,0.05221 -0.522111,-0.0762 -0.149578,-0.128055 -0.03069,-0.509761 -0.0247,-0.529869 0.03563,-0.0956 0.712611,-1.911703 1.12148,-3.085394 0.409223,-1.170517 0.248709,-1.422048 0.1778,-1.464028 -0.0702,-0.04198 -0.225072,-0.435328 0.05009,-0.958497 0.275167,-0.523523 -0.18415,-0.510823 -0.208139,-0.510117 -1.288344,0.05256 -1.080911,-0.464608 -1.041047,-0.738364 0.04304,-0.274108 0.542925,-0.538692 0.56903,-0.552803 0.03104,-0.0127 0.619125,-0.248708 0.797278,-0.337608 0.175331,-0.08572 0.164747,-0.185561 0.164395,-0.190853 0.04692,-0.227895 0.948972,-4.561065 1.219199,-5.44689 0.178506,-0.579966 0.359834,-0.727427 0.464609,-0.763763" />
    </g>
  </g>
</svg>
