<?xml version="1.0" encoding="UTF-8" standalone="no"?>
<!-- Created with Inkscape (http://www.inkscape.org/) -->

<svg
   xmlns:dc="http://purl.org/dc/elements/1.1/"
   xmlns:cc="http://creativecommons.org/ns#"
   xmlns:rdf="http://www.w3.org/1999/02/22-rdf-syntax-ns#"
   xmlns:svg="http://www.w3.org/2000/svg"
   xmlns="http://www.w3.org/2000/svg"
   xmlns:sodipodi="http://sodipodi.sourceforge.net/DTD/sodipodi-0.dtd"
   xmlns:inkscape="http://www.inkscape.org/namespaces/inkscape"
   width="13.224795mm"
   height="6.9842916mm"
   viewBox="0 0 13.224795 6.9842916"
   version="1.1"
   id="svg108999"
   inkscape:version="0.92.3 (2405546, 2018-03-11)"
   sodipodi:docname="BigPig_f.svg">
  <defs
     id="defs108993" />
  <sodipodi:namedview
     id="base"
     pagecolor="#ffffff"
     bordercolor="#666666"
     borderopacity="1.0"
     inkscape:pageopacity="0.0"
     inkscape:pageshadow="2"
     inkscape:zoom="7.9195959"
     inkscape:cx="25.016528"
     inkscape:cy="-0.816696"
     inkscape:document-units="mm"
     inkscape:current-layer="layer1"
     showgrid="false"
     inkscape:window-width="1920"
     inkscape:window-height="1017"
     inkscape:window-x="-8"
     inkscape:window-y="-8"
     inkscape:window-maximized="1" />
  <metadata
     id="metadata108996">
    <rdf:RDF>
      <cc:Work
         rdf:about="">
        <dc:format>image/svg+xml</dc:format>
        <dc:type
           rdf:resource="http://purl.org/dc/dcmitype/StillImage" />
        <dc:title />
      </cc:Work>
    </rdf:RDF>
  </metadata>
  <g
     inkscape:label="Ebene 1"
     inkscape:groupmode="layer"
     id="layer1"
     transform="translate(66.045025,-145.72199)">
    <g
       transform="matrix(0.98635467,0,0,0.89978448,-170.53249,46.553005)"
       id="g108948"
       inkscape:label="BigPig"
       style="stroke-width:1.06148577">
      <path
         inkscape:connector-curvature="0"
         id="path96377"
         style="display:inline;fill:none;fill-opacity:1;stroke:#000000;stroke-width:0.16240734;stroke-linecap:round;stroke-linejoin:round;stroke-miterlimit:10;stroke-dasharray:none;stroke-opacity:1"
         d="m 106.01416,112.712 c -3.4e-4,-0.17533 0.0663,-0.26458 0.14852,-0.30798 -7.1e-4,3.6e-4 -0.002,0 -0.003,7.1e-4 l 1.60829,-0.87489 c 0.003,-10e-4 0.007,-0.004 0.0102,-0.005 0.0191,-0.01 0.0388,-0.0166 0.0589,-0.0219 0.0162,-0.004 0.0321,-0.004 0.048,-0.006 0.0123,-0.002 0.0226,-0.004 0.0342,-0.005 0.0381,-0.002 0.0741,-3.5e-4 0.10196,0.004 0.0388,0.005 0.0621,0.0123 0.0635,0.0127 l 0.0529,0.004 c 0.0695,-0.097 0.14605,-0.15663 0.21413,-0.19015 -0.005,0.003 -0.009,0.002 -0.0145,0.005 l 1.60831,-0.87453 c 0.005,-0.003 0.0102,-0.006 0.0152,-0.008 0.0222,-0.0109 0.0437,-0.0191 0.0631,-0.024 0.0141,-0.004 0.0272,-0.006 0.0395,-0.007 0.0123,-0.001 0.0247,0 0.0374,0.002 0.024,0.004 0.0487,0.0113 0.073,0.0229 0.0113,0.005 0.0222,0.0127 0.0335,0.0194 0.005,0.003 0.009,0.005 0.0141,0.008 0.004,0.003 0.008,0.004 0.0116,0.007 0.0222,0.0155 0.0441,0.0332 0.0653,0.0522 0.005,0.004 0.009,0.01 0.0145,0.0148 0.012,0.0113 0.0226,0.0226 0.0342,0.0349 0.0109,0.0113 0.0233,0.0222 0.0332,0.0335 0.007,0.008 0.01,0.0134 0.0162,0.0208 0.0349,0.0413 0.066,0.0811 0.0882,0.11218 0.0314,0.0434 0.0751,0.0762 0.12665,0.10019 0.0519,0.0247 0.11253,0.0402 0.17674,0.0497 0.0621,0.008 0.12806,0.0102 0.19403,0.009 0.0138,-3.5e-4 0.0279,-3.5e-4 0.0416,-0.001 0.0642,-0.003 0.12805,-0.008 0.18873,-0.0162 0.005,-7.1e-4 0.01,-0.002 0.0145,-0.002 0.0589,-0.008 0.11465,-0.0183 0.16439,-0.0286 0.009,-0.002 0.0187,-0.004 0.0272,-0.005 0.0497,-0.0106 0.0945,-0.0215 0.12841,-0.03 0.0116,-0.003 0.0208,-0.006 0.0307,-0.008 0.007,-0.002 0.0176,-0.005 0.0236,-0.006 0.0124,-0.004 0.0222,-0.007 0.0251,-0.007 0.14429,-0.0437 0.28857,-0.0882 0.43286,-0.13159 0.0511,-0.0155 0.10336,-0.0293 0.15452,-0.0441 0.0787,-0.0222 0.15663,-0.0462 0.23601,-0.0667 0.0642,-0.0166 0.12805,-0.0324 0.19296,-0.0473 0.58456,-0.13476 1.17793,-0.2099 1.79353,-0.21167 0.19226,-3.5e-4 0.38735,0.009 0.57926,0.0293 0.0579,0.006 0.11536,0.0138 0.17321,0.0215 0.11289,0.0159 0.22578,0.0367 0.33867,0.06 0.0363,0.007 0.073,0.0176 0.10936,0.0261 0.0762,0.018 0.1524,0.0363 0.22825,0.0575 0.0427,0.012 0.0847,0.0261 0.127,0.0395 0.0699,0.0215 0.1397,0.0448 0.20884,0.0698 0.0434,0.0159 0.0861,0.0325 0.12912,0.0494 0.0688,0.0275 0.13688,0.0561 0.20461,0.0868 0.0233,0.0106 0.0473,0.0187 0.0702,0.03 0.0184,0.008 0.036,0.0191 0.054,0.0282 0.0663,0.0318 0.13194,0.0667 0.19685,0.1023 0.0416,0.0226 0.0829,0.0448 0.12382,0.0688 0.0674,0.0399 0.13441,0.0829 0.20038,0.12665 0.0279,0.0187 0.0571,0.0342 0.0847,0.0536 0.007,0.005 0.0134,0.0106 0.0205,0.0155 0.10301,0.0723 0.20461,0.14852 0.30374,0.23072 0.0977,0.0819 0.19579,0.16687 0.29245,0.254 0.006,0.005 0.0113,0.0109 0.0173,0.0166 0.12629,0.1143 0.25047,0.23142 0.36936,0.35278 0.0624,0.0632 0.12382,0.12876 0.18309,0.19579 10e-4,0.002 0.002,0.004 0.004,0.005 0.0931,0.10619 0.18027,0.21802 0.26352,0.33302 0.01,0.0131 0.0208,0.025 0.0303,0.0385 0.008,0.012 0.0148,0.025 0.0229,0.037 0.072,0.10513 0.14076,0.21272 0.20144,0.32491 0.003,0.006 0.007,0.0123 0.0102,0.0183 0.002,0.004 0.004,0.009 0.006,0.0131 0.0501,0.0938 0.0967,0.19615 0.13688,0.3041 10e-4,0.004 0.004,0.008 0.005,0.0116 0.004,0.0106 0.006,0.0215 0.01,0.0317 0.0208,0.0586 0.0388,0.11783 0.055,0.1778 0.005,0.0176 0.01,0.0349 0.0138,0.0526 0.0176,0.0737 0.0321,0.14747 0.0409,0.22084 0.001,0.0106 0.001,0.0208 0.002,0.0314 0.006,0.0632 0.008,0.12524 0.006,0.18627 -7.1e-4,0.0187 -0.001,0.0374 -0.003,0.0561 -0.005,0.0699 -0.0152,0.13829 -0.0342,0.20249 -0.23318,0.77259 -0.93838,1.2954 -1.45485,1.82034 -0.20814,0.21449 -0.72214,0.39546 -0.80892,0.87136 -0.003,0.0205 -0.0159,0.0363 -0.037,0.0476 l -1.60832,0.87454 c 0.0212,-0.0113 0.0339,-0.0268 0.0371,-0.0476 -0.0145,0.096 -0.23919,0.0843 -0.51965,0.0444 -0.0963,-0.0134 -0.19896,-0.03 -0.30233,-0.0469 -0.12735,-0.0208 -0.25752,-0.0423 -0.37606,-0.0589 -0.16369,-0.0233 -0.2861,-0.54963 -0.30656,-0.82374 -0.0113,-0.13723 -0.0769,-0.18485 -0.1517,-0.19508 -0.0758,-0.0106 -0.16016,0.0169 -0.20425,0.0261 -0.18592,0.0441 -0.40005,0.0402 -0.61666,0.0102 -0.0924,-0.0134 -0.18521,-0.0321 -0.27658,-0.0533 l -1.27211,0.69215 c 0.005,-0.003 0.008,-0.008 0.0138,-0.0117 -0.0928,0.06 -0.24553,0.0716 -0.50306,0.0353 -0.55068,-0.0773 -0.69779,-0.21731 -0.82021,-0.42898 -0.0734,-0.12312 -0.18168,-0.4251 -0.29739,-0.49918 -0.78069,-0.50024 -1.84256,-1.4231 -1.89829,-1.47143 -0.0582,-0.0688 -0.5133,-0.14041 -0.7546,-0.17428 -0.0896,-0.0127 -0.1471,-0.0198 -0.14993,-0.0201 -0.93274,-0.13088 -0.89887,-0.70555 -0.89711,-0.73589 z" />
      <path
         inkscape:connector-curvature="0"
         id="path96377-9"
         style="display:inline;fill:#a37f95;fill-opacity:1;stroke:none;stroke-width:0.16240734;stroke-linecap:round;stroke-linejoin:round;stroke-miterlimit:10;stroke-dasharray:none;stroke-opacity:1"
         d="m 106.01416,112.712 c -3.4e-4,-0.17533 0.0663,-0.26458 0.14852,-0.30798 -7.1e-4,3.6e-4 -0.002,0 -0.003,7.1e-4 l 1.60829,-0.87489 c 0.003,-10e-4 0.007,-0.004 0.0102,-0.005 0.0191,-0.01 0.0388,-0.0166 0.0589,-0.0219 0.0162,-0.004 0.0321,-0.004 0.048,-0.006 0.0123,-0.002 0.0226,-0.004 0.0342,-0.005 0.0381,-0.002 0.0741,-3.5e-4 0.10196,0.004 0.0388,0.005 0.0621,0.0123 0.0635,0.0127 l 0.0529,0.004 c 0.0695,-0.097 0.14605,-0.15663 0.21413,-0.19015 -0.005,0.003 -0.009,0.002 -0.0145,0.005 l 1.60831,-0.87453 c 0.005,-0.003 0.0102,-0.006 0.0152,-0.008 0.0222,-0.0109 0.0437,-0.0191 0.0631,-0.024 0.0141,-0.004 0.0272,-0.006 0.0395,-0.007 0.0123,-0.001 0.0247,0 0.0374,0.002 0.024,0.004 0.0487,0.0113 0.073,0.0229 0.0113,0.005 0.0222,0.0127 0.0335,0.0194 0.005,0.003 0.009,0.005 0.0141,0.008 0.004,0.003 0.008,0.004 0.0116,0.007 0.0222,0.0155 0.0441,0.0332 0.0653,0.0522 0.005,0.004 0.009,0.01 0.0145,0.0148 0.012,0.0113 0.0226,0.0226 0.0342,0.0349 0.0109,0.0113 0.0233,0.0222 0.0332,0.0335 0.007,0.008 0.01,0.0134 0.0162,0.0208 0.0349,0.0413 0.066,0.0811 0.0882,0.11218 0.0314,0.0434 0.0751,0.0762 0.12665,0.10019 0.0519,0.0247 0.11253,0.0402 0.17674,0.0497 0.0621,0.008 0.12806,0.0102 0.19403,0.009 0.0138,-3.5e-4 0.0279,-3.5e-4 0.0416,-0.001 0.0642,-0.003 0.12805,-0.008 0.18873,-0.0162 0.005,-7.1e-4 0.01,-0.002 0.0145,-0.002 0.0589,-0.008 0.11465,-0.0183 0.16439,-0.0286 0.009,-0.002 0.0187,-0.004 0.0272,-0.005 0.0497,-0.0106 0.0945,-0.0215 0.12841,-0.03 0.0116,-0.003 0.0208,-0.006 0.0307,-0.008 0.007,-0.002 0.0176,-0.005 0.0236,-0.006 0.0124,-0.004 0.0222,-0.007 0.0251,-0.007 0.14429,-0.0437 0.28857,-0.0882 0.43286,-0.13159 0.0511,-0.0155 0.10336,-0.0293 0.15452,-0.0441 0.0787,-0.0222 0.15663,-0.0462 0.23601,-0.0667 0.0642,-0.0166 0.12805,-0.0324 0.19296,-0.0473 0.58456,-0.13476 1.17793,-0.2099 1.79353,-0.21167 0.19226,-3.5e-4 0.38735,0.009 0.57926,0.0293 0.0579,0.006 0.11536,0.0138 0.17321,0.0215 0.11289,0.0159 0.22578,0.0367 0.33867,0.06 0.0363,0.007 0.073,0.0176 0.10936,0.0261 0.0762,0.018 0.1524,0.0363 0.22825,0.0575 0.0427,0.012 0.0847,0.0261 0.127,0.0395 0.0699,0.0215 0.1397,0.0448 0.20884,0.0698 0.0434,0.0159 0.0861,0.0325 0.12912,0.0494 0.0688,0.0275 0.13688,0.0561 0.20461,0.0868 0.0233,0.0106 0.0473,0.0187 0.0702,0.03 0.0184,0.008 0.036,0.0191 0.054,0.0282 0.0663,0.0318 0.13194,0.0667 0.19685,0.1023 0.0416,0.0226 0.0829,0.0448 0.12382,0.0688 0.0674,0.0399 0.13441,0.0829 0.20038,0.12665 0.0279,0.0187 0.0571,0.0342 0.0847,0.0536 0.007,0.005 0.0134,0.0106 0.0205,0.0155 0.10301,0.0723 0.20461,0.14852 0.30374,0.23072 0.0977,0.0819 0.19579,0.16687 0.29245,0.254 0.006,0.005 0.0113,0.0109 0.0173,0.0166 0.12629,0.1143 0.25047,0.23142 0.36936,0.35278 0.0624,0.0632 0.12382,0.12876 0.18309,0.19579 10e-4,0.002 0.002,0.004 0.004,0.005 0.0931,0.10619 0.18027,0.21802 0.26352,0.33302 0.01,0.0131 0.0208,0.025 0.0303,0.0385 0.008,0.012 0.0148,0.025 0.0229,0.037 0.072,0.10513 0.14076,0.21272 0.20144,0.32491 0.003,0.006 0.007,0.0123 0.0102,0.0183 0.002,0.004 0.004,0.009 0.006,0.0131 0.0501,0.0938 0.0967,0.19615 0.13688,0.3041 10e-4,0.004 0.004,0.008 0.005,0.0116 0.004,0.0106 0.006,0.0215 0.01,0.0317 0.0208,0.0586 0.0388,0.11783 0.055,0.1778 0.005,0.0176 0.01,0.0349 0.0138,0.0526 0.0176,0.0737 0.0321,0.14747 0.0409,0.22084 0.001,0.0106 0.001,0.0208 0.002,0.0314 0.006,0.0632 0.008,0.12524 0.006,0.18627 -7.1e-4,0.0187 -0.001,0.0374 -0.003,0.0561 -0.005,0.0699 -0.0152,0.13829 -0.0342,0.20249 -0.23318,0.77259 -0.93838,1.2954 -1.45485,1.82034 -0.20814,0.21449 -0.72214,0.39546 -0.80892,0.87136 -0.003,0.0205 -0.0159,0.0363 -0.037,0.0476 l -1.60832,0.87454 c 0.0212,-0.0113 0.0339,-0.0268 0.0371,-0.0476 -0.0145,0.096 -0.23919,0.0843 -0.51965,0.0444 -0.0963,-0.0134 -0.19896,-0.03 -0.30233,-0.0469 -0.12735,-0.0208 -0.25752,-0.0423 -0.37606,-0.0589 -0.16369,-0.0233 -0.2861,-0.54963 -0.30656,-0.82374 -0.0113,-0.13723 -0.0769,-0.18485 -0.1517,-0.19508 -0.0758,-0.0106 -0.16016,0.0169 -0.20425,0.0261 -0.18592,0.0441 -0.40005,0.0402 -0.61666,0.0102 -0.0924,-0.0134 -0.18521,-0.0321 -0.27658,-0.0533 l -1.27211,0.69215 c 0.005,-0.003 0.008,-0.008 0.0138,-0.0117 -0.0928,0.06 -0.24553,0.0716 -0.50306,0.0353 -0.55068,-0.0773 -0.69779,-0.21731 -0.82021,-0.42898 -0.0734,-0.12312 -0.18168,-0.4251 -0.29739,-0.49918 -0.78069,-0.50024 -1.84256,-1.4231 -1.89829,-1.47143 -0.0582,-0.0688 -0.5133,-0.14041 -0.7546,-0.17428 -0.0896,-0.0127 -0.1471,-0.0198 -0.14993,-0.0201 -0.93274,-0.13088 -0.89887,-0.70555 -0.89711,-0.73589 z" />
      <path
         inkscape:connector-curvature="0"
         id="path96699"
         style="display:inline;fill:#f7c1e1;fill-opacity:1;fill-rule:nonzero;stroke:#000000;stroke-width:0.05625875;stroke-miterlimit:4;stroke-dasharray:none;stroke-opacity:1"
         d="m 113.58061,111.22028 c -0.0579,-0.008 -0.11535,-0.0152 -0.17321,-0.0215 -0.19191,-0.0205 -0.387,-0.03 -0.57926,-0.0296 -0.6156,0.002 -1.20897,0.0773 -1.79352,0.21167 -0.34678,0.0794 -0.68051,0.18803 -1.01671,0.28998 -0.024,0.007 -0.48507,0.1457 -0.83785,0.0963 -0.12911,-0.0183 -0.24024,-0.0624 -0.30338,-0.14993 -0.073,-0.10337 -0.23107,-0.30445 -0.38383,-0.32597 -0.0127,-0.002 -0.0254,-0.002 -0.0374,-0.001 -0.16087,0.0109 -0.50553,0.26141 -0.51541,0.92745 0,0.11536 0.0219,0.30551 -0.30939,0.25929 -0.0106,-10e-4 -0.0212,-0.004 -0.0321,-0.005 l -1.12183,-0.0875 c -0.001,-3.5e-4 -0.0247,-0.007 -0.0631,-0.0123 -0.127,-0.018 -0.40005,-0.0148 -0.39934,0.34078 l 0.003,1.39665 c -0.002,0.0303 -0.0356,0.60501 0.89711,0.73589 0.002,3.5e-4 0.06,0.008 0.14958,0.0201 0.24165,0.0342 0.69673,0.10583 0.75494,0.17427 0.0557,0.0487 1.1176,0.9712 1.8983,1.47144 0.11567,0.0741 0.22397,0.37641 0.29735,0.49918 0.12206,0.21202 0.26917,0.35172 0.82021,0.42933 0.54857,0.0773 0.63535,-0.054 0.63465,-0.4385 -7.2e-4,-0.33303 -0.067,-0.64806 0.14005,-0.61878 0.0321,0.005 0.0699,0.0169 0.11606,0.0388 0.23319,0.11148 0.69533,0.29175 1.14724,0.3556 0.21625,0.0303 0.43074,0.0342 0.6163,-0.01 0.0441,-0.01 0.12876,-0.037 0.20426,-0.0265 0.0748,0.0106 0.14076,0.0582 0.15205,0.19509 0.0205,0.27446 0.14252,0.80081 0.30656,0.82374 0.11853,0.0166 0.24871,0.0385 0.37606,0.0589 0.10337,0.0169 0.20602,0.0339 0.30233,0.0473 0.28046,0.0395 0.50518,0.0512 0.51964,-0.0444 0.0868,-0.47589 0.60078,-0.65652 0.80928,-0.87136 0.51612,-0.52493 1.22167,-1.0474 1.45451,-1.81998 0.11818,-0.39829 -0.0416,-0.93028 -0.24801,-1.30634 -0.18767,-0.34642 -0.43356,-0.65863 -0.7052,-0.9345 -0.21555,-0.21979 -0.44732,-0.42898 -0.67945,-0.62336 -0.71755,-0.59726 -1.55857,-0.9264 -2.39995,-1.04458" />
    </g>
  </g>
</svg>
