<?xml version="1.0" encoding="UTF-8" standalone="no"?>
<!-- Created with Inkscape (http://www.inkscape.org/) -->

<svg
   xmlns:dc="http://purl.org/dc/elements/1.1/"
   xmlns:cc="http://creativecommons.org/ns#"
   xmlns:rdf="http://www.w3.org/1999/02/22-rdf-syntax-ns#"
   xmlns:svg="http://www.w3.org/2000/svg"
   xmlns="http://www.w3.org/2000/svg"
   xmlns:sodipodi="http://sodipodi.sourceforge.net/DTD/sodipodi-0.dtd"
   xmlns:inkscape="http://www.inkscape.org/namespaces/inkscape"
   width="26.184935mm"
   height="13.17816mm"
   viewBox="0 0 26.184935 13.17816"
   version="1.1"
   id="svg148341"
   inkscape:version="0.92.3 (2405546, 2018-03-11)"
   sodipodi:docname="Dragon_f.svg">
  <defs
     id="defs148335" />
  <sodipodi:namedview
     id="base"
     pagecolor="#ffffff"
     bordercolor="#666666"
     borderopacity="1.0"
     inkscape:pageopacity="0.0"
     inkscape:pageshadow="2"
     inkscape:zoom="5.6"
     inkscape:cx="38.260844"
     inkscape:cy="7.48806"
     inkscape:document-units="mm"
     inkscape:current-layer="layer1"
     showgrid="false"
     inkscape:window-width="1920"
     inkscape:window-height="1017"
     inkscape:window-x="-8"
     inkscape:window-y="-8"
     inkscape:window-maximized="1" />
  <metadata
     id="metadata148338">
    <rdf:RDF>
      <cc:Work
         rdf:about="">
        <dc:format>image/svg+xml</dc:format>
        <dc:type
           rdf:resource="http://purl.org/dc/dcmitype/StillImage" />
        <dc:title />
      </cc:Work>
    </rdf:RDF>
  </metadata>
  <g
     inkscape:label="Ebene 1"
     inkscape:groupmode="layer"
     id="layer1"
     transform="translate(152.84652,-34.330311)">
    <g
       transform="matrix(-0.95181071,0,0,0.87354939,31.456073,-134.15254)"
       id="g144130"
       inkscape:label="Dragon"
       style="stroke-width:1.09668267">
      <path
         inkscape:connector-curvature="0"
         id="path2517"
         style="display:inline;fill:none;fill-opacity:1;stroke:#000000;stroke-width:0.16779244;stroke-linecap:round;stroke-linejoin:round;stroke-miterlimit:10;stroke-dasharray:none;stroke-opacity:1"
         d="m 193.36942,196.69327 c 0.006,0.003 0.012,0.002 0.0177,0.006 l -2.4123,-1.31229 c -0.003,-0.002 -0.006,-0.003 -0.009,-0.005 -0.0155,-0.007 -0.0314,-0.0134 -0.0476,-0.0176 -0.006,-0.001 -0.0116,3.5e-4 -0.0173,-7.1e-4 -0.0392,-0.007 -0.079,-0.01 -0.11712,-0.004 -0.0339,0.005 -0.0642,0.013 -0.0921,0.0219 -0.009,0.003 -0.0162,0.006 -0.0247,0.009 -0.018,0.006 -0.0328,0.0123 -0.0452,0.0176 -0.002,10e-4 -0.007,0.003 -0.009,0.004 -0.004,0.002 -0.004,0.002 -0.007,0.004 -0.0113,0.006 -0.0187,0.01 -0.0201,0.0102 l -1.80657,0.75106 -0.32774,0.12242 c -0.0452,0.0166 -0.0857,0.0332 -0.121,0.0494 -3.4e-4,3.4e-4 -7.1e-4,3.4e-4 -0.001,7.1e-4 -0.0166,0.008 -0.0286,0.0162 -0.043,0.0243 -0.0166,0.009 -0.0353,0.018 -0.0494,0.0275 -0.001,7.2e-4 -0.002,0.002 -0.003,0.002 -0.002,0.002 -0.004,0.003 -0.007,0.005 -0.0102,0.007 -0.0208,0.0148 -0.0293,0.0229 -0.01,0.008 -0.0176,0.0169 -0.0254,0.0254 -0.002,0.002 -0.004,0.006 -0.006,0.008 -0.001,0.001 -0.002,0.003 -0.004,0.005 -0.003,0.004 -0.006,0.008 -0.009,0.012 -0.006,0.009 -0.012,0.018 -0.0173,0.0275 -0.006,0.0102 -0.01,0.0208 -0.0141,0.0314 l -0.001,0.002 c -7.1e-4,0.002 -0.001,0.003 -0.002,0.005 -0.006,0.018 -0.009,0.0392 -0.0134,0.0596 -0.002,0.0106 -0.005,0.0194 -0.007,0.031 -0.003,0.0222 -0.002,0.0487 -0.003,0.0748 -3.4e-4,0.0145 -0.002,0.0265 -0.001,0.042 3.5e-4,0.0247 0.003,0.0547 0.005,0.0829 0.001,0.0212 0.001,0.0395 0.004,0.0628 0.005,0.0529 0.012,0.11148 0.0198,0.17639 0.008,0.0741 0.007,0.15028 3.5e-4,0.22648 -0.001,0.0162 -0.003,0.0328 -0.005,0.0494 -0.01,0.0748 -0.0265,0.14993 -0.0526,0.22402 -0.0113,0.0314 -0.025,0.0624 -0.0392,0.0931 -0.008,0.0169 -0.0141,0.0342 -0.0233,0.0508 -0.024,0.0462 -0.0522,0.0914 -0.084,0.13582 -0.007,0.009 -0.0152,0.0187 -0.0226,0.0279 -0.0261,0.0346 -0.0554,0.0677 -0.0868,0.10054 -0.0123,0.0127 -0.0247,0.0254 -0.0374,0.0381 -0.0307,0.0293 -0.0646,0.0572 -0.0991,0.0843 -0.0176,0.0138 -0.0339,0.0279 -0.0526,0.0413 -0.0533,0.0381 -0.10972,0.0748 -0.17286,0.10866 -0.0466,0.0247 -0.0864,0.0416 -0.12524,0.0572 -0.0127,0.005 -0.0261,0.0109 -0.0378,0.0152 -0.0406,0.0141 -0.0787,0.024 -0.11254,0.0289 -0.0342,0.005 -0.0653,0.005 -0.0945,0.003 -0.009,-7.2e-4 -0.0173,-0.003 -0.0261,-0.004 -0.0187,-0.003 -0.037,-0.006 -0.054,-0.0109 -0.0504,-0.0141 -0.0977,-0.0353 -0.14746,-0.0582 -0.0487,-0.0215 -0.10195,-0.043 -0.16192,-0.0603 -0.007,-0.002 -0.0123,-0.005 -0.0198,-0.007 -0.005,-0.001 -0.0123,-0.002 -0.0176,-0.003 -0.0275,-0.006 -0.0579,-0.0106 -0.0896,-0.0145 -0.0166,-0.002 -0.0321,-0.004 -0.0497,-0.005 -0.0515,-0.003 -0.10725,-0.002 -0.17216,0.005 -0.0568,0.008 -0.10901,0.0243 -0.15734,0.0469 -0.007,0.004 -0.0134,0.008 -0.0205,0.0116 -0.007,0.004 -0.0141,0.008 -0.0208,0.012 -0.0145,0.009 -0.0296,0.0155 -0.0434,0.0254 -0.0251,0.0169 -0.0487,0.036 -0.0713,0.0564 -0.007,0.006 -0.0138,0.0145 -0.0212,0.0212 -0.006,0.005 -0.0106,0.0109 -0.0162,0.0162 -0.0116,0.0123 -0.024,0.0236 -0.0353,0.0363 -0.0282,0.0321 -0.0547,0.067 -0.0804,0.10336 -0.003,0.004 -0.005,0.006 -0.007,0.01 -0.001,0.002 -0.002,0.003 -0.004,0.005 -0.005,0.006 -0.008,0.0141 -0.0123,0.0208 -0.061,0.0892 -0.11747,0.18732 -0.17356,0.28681 -0.0571,0.10124 -0.11572,0.20073 -0.17851,0.29421 -0.025,0.037 -0.0504,0.073 -0.0776,0.1069 -0.004,0.005 -0.008,0.0102 -0.0116,0.0152 l -0.45085,-0.24554 c -0.65652,-1.32468 -1.84432,-2.16253 -2.5534,-2.53153 0.0279,0.0145 0.0533,0.0268 0.0825,0.0427 l -0.86643,-0.47131 c -0.11571,-0.2473 -0.0737,-0.6724 -0.0628,-1.11513 0.008,-0.35172 -0.0512,-0.57609 -0.2039,-0.65335 0.002,10e-4 0.005,10e-4 0.007,0.002 l -2.4123,-1.31233 c -0.003,-0.002 -0.006,-0.004 -0.01,-0.005 -0.0159,-0.008 -0.0332,-0.0148 -0.0515,-0.019 -0.004,-10e-4 -0.01,3.4e-4 -0.0145,-3.5e-4 -0.0395,-0.008 -0.0822,-0.0113 -0.13194,-0.005 -0.0473,0.007 -0.10019,0.0229 -0.15628,0.043 -0.0166,0.006 -0.0342,0.0138 -0.0515,0.0212 -0.0187,0.008 -0.0363,0.0134 -0.0568,0.0229 -0.0384,0.018 -0.079,0.0392 -0.12171,0.0628 -0.0198,0.0113 -0.0413,0.0247 -0.0635,0.0406 -0.009,0.006 -0.0198,0.0166 -0.0286,0.0236 -0.0335,0.0247 -0.0695,0.0543 -0.10724,0.0871 -0.0127,0.0109 -0.0222,0.0169 -0.0356,0.0289 -0.005,0.005 -0.0123,0.0123 -0.0176,0.0173 -0.0653,0.0596 -0.13476,0.12771 -0.2092,0.20497 -0.0145,0.0152 -0.03,0.0321 -0.0448,0.0476 -0.0632,0.0667 -0.12806,0.13793 -0.19614,0.21378 -0.012,0.0138 -0.0226,0.0243 -0.0346,0.0381 -0.018,0.0205 -0.0367,0.0427 -0.055,0.0635 -0.0296,0.0342 -0.0593,0.0681 -0.0892,0.10372 -0.0363,0.0423 -0.073,0.0857 -0.11007,0.13017 -0.0317,0.0374 -0.0631,0.0755 -0.0952,0.11395 -0.0363,0.0448 -0.0734,0.0896 -0.11007,0.13511 -0.0325,0.0402 -0.0649,0.0804 -0.0974,0.12101 -0.0367,0.0455 -0.0727,0.0914 -0.109,0.13723 -0.0325,0.0416 -0.0646,0.0822 -0.0967,0.12347 -0.0378,0.0483 -0.0744,0.096 -0.11148,0.14429 -0.03,0.0388 -0.0596,0.0773 -0.0889,0.11571 -0.0399,0.0529 -0.0783,0.10442 -0.11748,0.15628 -0.0247,0.0332 -0.0497,0.0663 -0.0741,0.0991 -0.0455,0.0614 -0.0889,0.12065 -0.13194,0.17991 -0.0159,0.0215 -0.0325,0.0441 -0.048,0.0653 -0.0617,0.0857 -0.12135,0.16934 -0.17709,0.24801 -0.0998,0.14287 -0.18627,0.27058 -0.25753,0.38064 -0.009,0.0145 -0.0166,0.0261 -0.025,0.0399 -0.0254,0.0392 -0.0483,0.0762 -0.0684,0.10901 -0.009,0.0148 -0.0162,0.0279 -0.024,0.0413 -0.009,0.0159 -0.0212,0.0353 -0.0289,0.0494 -0.008,0.0162 -0.0166,0.031 -0.0229,0.0445 -0.0279,0.0561 -0.0596,0.12206 -0.0924,0.18768 -0.0116,0.0236 -0.024,0.0473 -0.0356,0.0713 -0.0134,0.0268 -0.0282,0.0543 -0.042,0.0815 -0.10972,-0.3362 -0.24765,-0.48824 -0.36548,-0.5521 l -0.98425,-0.53551 c -0.0512,-0.0935 -0.0878,-0.15911 -0.0928,-0.16793 -0.0903,-0.16439 -0.16898,-0.25117 -0.24271,-0.2861 0.004,0.002 0.007,0 0.0106,0.002 l -2.41215,-1.31231 c -0.002,-0.001 -0.005,-0.003 -0.008,-0.004 -0.012,-0.006 -0.0236,-0.0102 -0.0353,-0.0134 -0.0205,-0.005 -0.0399,-0.006 -0.0596,-0.004 -0.0166,0.002 -0.0332,0.008 -0.0494,0.0148 -0.0123,0.006 -0.0243,0.0134 -0.0367,0.0219 -3.4e-4,0 -3.4e-4,3.4e-4 -7.1e-4,3.4e-4 -7.2e-4,7.2e-4 -0.001,0.001 -0.002,0.002 -0.0113,0.008 -0.0222,0.0169 -0.0335,0.0268 -0.0152,0.0138 -0.0303,0.0296 -0.0459,0.0469 h 3.5e-4 c -0.001,0.001 -0.002,0.003 -0.002,0.003 -0.008,0.01 -0.0169,0.0219 -0.0254,0.0321 -0.0155,0.0201 -0.0314,0.0388 -0.0476,0.0617 -0.004,0.005 -0.007,0.0109 -0.0106,0.0159 -0.0176,0.0261 -0.0363,0.0557 -0.055,0.085 -0.0127,0.0205 -0.0257,0.0395 -0.0388,0.061 -0.0289,0.0473 -0.0593,0.0981 -0.0903,0.14993 -0.0152,0.025 -0.0317,0.0519 -0.0476,0.078 -0.0215,0.0356 -0.0434,0.0716 -0.0663,0.10795 -0.0201,0.0317 -0.0416,0.0635 -0.0632,0.0952 -0.0194,0.0289 -0.0377,0.0582 -0.0579,0.0868 -0.0448,0.0639 -0.0924,0.12665 -0.14288,0.18697 -0.0522,0.0614 -0.11324,0.11642 -0.17674,0.16899 -0.0197,0.0166 -0.0402,0.0321 -0.0603,0.0476 -0.0374,0.0279 -0.0773,0.0529 -0.11677,0.078 -0.0688,0.0437 -0.13935,0.084 -0.21273,0.12065 -0.0353,0.0176 -0.0705,0.0367 -0.10689,0.0529 -0.0205,0.009 -0.0413,0.018 -0.0617,0.0268 -0.073,0.0303 -0.14641,0.0593 -0.21873,0.084 -0.005,0.002 -0.01,0.004 -0.0145,0.005 -0.078,0.0265 -0.15417,0.0487 -0.2279,0.0688 -0.0194,0.005 -0.0381,0.0106 -0.0568,0.0155 -0.0667,0.0173 -0.13088,0.0332 -0.1898,0.0459 -0.004,10e-4 -0.009,0.002 -0.0127,0.003 -0.0624,0.0138 -0.11747,0.024 -0.16722,0.0328 -0.0141,0.002 -0.0279,0.005 -0.0409,0.007 -0.0423,0.007 -0.0825,0.0138 -0.10971,0.0176 -0.0395,0.005 -0.0607,0.008 -0.0614,0.008 -0.15699,0.0222 -0.30339,0.0473 -0.44062,0.0751 -0.0547,0.0109 -0.10125,0.0243 -0.15276,0.036 -0.0787,0.0183 -0.1598,0.0356 -0.23177,0.0557 -0.0512,0.0141 -0.0949,0.0303 -0.14288,0.0452 -0.0642,0.0198 -0.13158,0.0395 -0.1905,0.0607 -0.043,0.0159 -0.0797,0.0335 -0.12029,0.0501 -0.0522,0.0212 -0.1076,0.0416 -0.15523,0.0642 -0.004,0.002 -0.007,0.004 -0.0102,0.005 -0.0123,0.006 -0.0229,0.012 -0.0346,0.0176 -0.0663,0.0328 -0.12841,0.0667 -0.18627,0.10124 -0.0201,0.0116 -0.0388,0.0243 -0.0575,0.0363 -0.0205,0.013 -0.043,0.0257 -0.0624,0.0388 -0.019,0.013 -0.0332,0.0268 -0.0508,0.0399 -0.0335,0.025 -0.0663,0.0501 -0.0963,0.0759 -0.0134,0.0109 -0.0296,0.0219 -0.0423,0.0332 -0.0166,0.0148 -0.0296,0.0303 -0.0448,0.0451 -0.0183,0.018 -0.0367,0.0356 -0.0533,0.0533 -0.01,0.0106 -0.0215,0.0208 -0.0307,0.031 -0.0187,0.0212 -0.0335,0.042 -0.0501,0.0635 -0.0116,0.0148 -0.0243,0.0296 -0.0353,0.0448 -0.005,0.006 -0.0106,0.0123 -0.0152,0.0191 -0.0187,0.0268 -0.0335,0.054 -0.0501,0.0811 -0.009,0.0152 -0.0194,0.03 -0.0272,0.0448 -0.002,0.004 -0.006,0.008 -0.008,0.012 -0.009,0.0173 -0.0145,0.0342 -0.0226,0.0512 -0.0166,0.0346 -0.0332,0.0692 -0.0462,0.10337 -0.002,0.006 -0.006,0.0123 -0.008,0.0183 -0.004,0.0116 -0.005,0.0226 -0.01,0.0339 -0.0169,0.0508 -0.031,0.10054 -0.0416,0.14993 -0.004,0.0145 -0.007,0.0289 -0.01,0.0437 -0.0116,0.06 -0.0198,0.11853 -0.025,0.17498 -0.001,0.0106 -0.001,0.0205 -0.002,0.0307 -0.003,0.0487 -0.006,0.0945 -0.006,0.13864 -3.5e-4,0.0162 -7.1e-4,0.0307 -0.001,0.0459 -3.5e-4,0.0452 -3.5e-4,0.0882 -3.5e-4,0.12735 -7.1e-4,0.30515 0.14217,0.78034 0.68192,1.07386 0.80398,0.43744 1.60796,0.87488 2.41229,1.31198 -0.004,-0.002 -0.007,-0.005 -0.0113,-0.007 0.40288,0.22366 1.02941,0.34607 1.99143,0.21484 0.0335,-0.004 0.0632,-0.003 0.096,-0.006 0.23424,0.41769 0.32914,0.78422 0.34078,0.83079 l 0.0314,1.5935 c -3.4e-4,0.11994 -0.012,0.22789 -0.0293,0.32914 -0.005,0.0314 -0.0127,0.0596 -0.0194,0.0892 -0.0148,0.0667 -0.0314,0.13017 -0.0508,0.18803 -0.0106,0.0307 -0.0215,0.0607 -0.0332,0.0893 -0.0162,0.0406 -0.0335,0.079 -0.0515,0.11501 -0.0134,0.0265 -0.0268,0.0529 -0.0406,0.0769 -0.0162,0.0282 -0.0325,0.0547 -0.0483,0.0794 -0.0141,0.0208 -0.0279,0.0413 -0.0413,0.06 -0.0194,0.0261 -0.0381,0.0497 -0.0561,0.0709 -0.01,0.0113 -0.0198,0.0236 -0.0286,0.0339 -0.0289,0.0321 -0.0561,0.0596 -0.0741,0.0755 -0.0159,0.0141 -0.0261,0.0222 -0.0293,0.0251 -0.0459,0.0441 -0.0878,0.0882 -0.12629,0.13194 -0.0155,0.0177 -0.0265,0.0342 -0.0409,0.0512 -0.0208,0.0254 -0.0402,0.0497 -0.0589,0.0744 -0.0145,0.0194 -0.0321,0.0392 -0.0455,0.0579 -0.0155,0.0226 -0.0261,0.043 -0.0402,0.0649 -0.0173,0.0275 -0.0342,0.054 -0.0497,0.0811 -0.008,0.013 -0.018,0.0272 -0.0251,0.0402 -0.01,0.0187 -0.0148,0.0342 -0.0236,0.0526 -0.0208,0.0413 -0.0388,0.0811 -0.054,0.11959 -0.005,0.0127 -0.0138,0.0275 -0.0183,0.0399 -0.005,0.0141 -0.007,0.0257 -0.0117,0.0392 -0.0116,0.0346 -0.0212,0.0663 -0.0289,0.0977 -0.006,0.0219 -0.0117,0.0427 -0.0159,0.0624 -0.007,0.0332 -0.0113,0.061 -0.0152,0.0882 -0.002,0.013 -0.004,0.0265 -0.006,0.0384 -0.003,0.0303 -0.005,0.0543 -0.005,0.0744 0,0.004 -7.1e-4,0.008 -7.1e-4,0.0113 0,0.0212 3.4e-4,0.0356 7.1e-4,0.0395 l -0.001,0.70132 c -7.1e-4,0.35348 0.11677,0.52528 0.26176,0.60395 l 2.4123,1.31269 c -0.002,-0.001 -0.004,-0.003 -0.006,-0.004 0.13829,0.078 0.30198,0.0699 0.41204,0.0529 l 3.11115,-0.43709 c 0.79375,-0.11148 0.75494,-0.77223 0.75283,-0.80716 -0.003,-0.0395 -0.0635,-0.79022 1.30739,-1.07103 0.0773,-0.0159 0.15311,-0.0289 0.22648,-0.0395 0.3549,-0.0497 0.66429,-0.037 0.93592,0.0141 l 1.77095,0.96343 c -0.006,-0.003 -0.0127,-0.008 -0.0187,-0.0113 0.26247,0.14676 0.41663,0.15029 0.50447,0.13547 l 1.43298,-0.20143 c 0.97473,-0.13688 1.14618,-1.14265 1.18075,-1.41006 0.0243,-0.17674 0.15381,-0.22436 0.23883,-0.23636 0.0434,-0.006 0.0737,-0.003 0.0748,-0.003 0.53587,0.0265 1.02658,0.002 1.47779,-0.0607 3.58493,-0.50412 4.62421,-3.52178 4.99427,-4.12362 0.21555,-0.34925 0.37042,-0.44767 0.46955,-0.46143 0.004,-7.2e-4 0.007,3.4e-4 0.0106,0 l 0.26176,0.14252 c -0.004,-0.002 -0.009,-0.007 -0.0127,-0.009 0.0917,0.0529 0.17251,0.0709 0.2413,0.061 0.32773,-0.0462 0.41099,-0.63465 0.41557,-0.66534 l 0.39688,-2.30328 c 0.0547,-0.42263 -0.0399,-0.58844 -0.16404,-0.64347 z" />
      <path
         inkscape:connector-curvature="0"
         id="path2517-9"
         style="display:inline;fill:#6a1119;fill-opacity:1;stroke:none;stroke-width:0.16779244;stroke-linecap:round;stroke-linejoin:round;stroke-miterlimit:10;stroke-dasharray:none;stroke-opacity:1"
         d="m 193.36936,196.69329 c 0.006,0.003 0.012,0.002 0.0177,0.006 l -2.4123,-1.31229 c -0.003,-0.002 -0.006,-0.003 -0.009,-0.005 -0.0155,-0.007 -0.0314,-0.0134 -0.0476,-0.0176 -0.006,-10e-4 -0.0116,3.5e-4 -0.0173,-7.1e-4 -0.0392,-0.007 -0.079,-0.01 -0.11712,-0.004 -0.0339,0.005 -0.0642,0.013 -0.0921,0.0219 -0.009,0.003 -0.0162,0.006 -0.0247,0.009 -0.018,0.006 -0.0328,0.0123 -0.0452,0.0176 -0.002,0.001 -0.007,0.003 -0.009,0.004 -0.004,0.002 -0.004,0.002 -0.007,0.004 -0.0113,0.006 -0.0187,0.01 -0.0201,0.0102 l -1.80657,0.75106 -0.32774,0.12242 c -0.0452,0.0166 -0.0857,0.0332 -0.121,0.0494 -3.4e-4,3.4e-4 -7.1e-4,3.4e-4 -0.001,7.2e-4 -0.0166,0.008 -0.0286,0.0162 -0.043,0.0243 -0.0166,0.009 -0.0353,0.018 -0.0494,0.0275 -0.001,7.2e-4 -0.002,0.002 -0.003,0.002 -0.002,0.002 -0.004,0.003 -0.007,0.005 -0.0102,0.007 -0.0208,0.0148 -0.0293,0.0229 -0.01,0.008 -0.0176,0.0169 -0.0254,0.0254 -0.002,0.002 -0.004,0.006 -0.006,0.008 -0.001,0.001 -0.002,0.003 -0.004,0.005 -0.003,0.004 -0.006,0.008 -0.009,0.012 -0.006,0.009 -0.012,0.018 -0.0173,0.0275 -0.006,0.0102 -0.01,0.0208 -0.0141,0.0314 l -10e-4,0.002 c -7.2e-4,0.002 -0.001,0.003 -0.002,0.005 -0.006,0.018 -0.009,0.0392 -0.0134,0.0596 -0.002,0.0106 -0.005,0.0194 -0.007,0.031 -0.003,0.0222 -0.002,0.0487 -0.003,0.0748 -3.4e-4,0.0145 -0.002,0.0265 -0.001,0.042 3.4e-4,0.0247 0.003,0.0547 0.005,0.0829 10e-4,0.0212 10e-4,0.0395 0.004,0.0628 0.005,0.0529 0.012,0.11148 0.0198,0.17639 0.008,0.0741 0.007,0.15028 3.4e-4,0.22648 -0.001,0.0162 -0.003,0.0328 -0.005,0.0494 -0.01,0.0748 -0.0265,0.14993 -0.0526,0.22402 -0.0113,0.0314 -0.025,0.0624 -0.0392,0.0931 -0.008,0.0169 -0.0141,0.0342 -0.0233,0.0508 -0.024,0.0462 -0.0522,0.0914 -0.084,0.13582 -0.007,0.009 -0.0152,0.0187 -0.0226,0.0279 -0.0261,0.0346 -0.0554,0.0677 -0.0868,0.10054 -0.0123,0.0127 -0.0247,0.0254 -0.0374,0.0381 -0.0307,0.0293 -0.0646,0.0572 -0.0991,0.0843 -0.0176,0.0138 -0.0339,0.0279 -0.0526,0.0413 -0.0533,0.0381 -0.10972,0.0748 -0.17286,0.10866 -0.0466,0.0247 -0.0864,0.0416 -0.12524,0.0572 -0.0127,0.005 -0.0261,0.0109 -0.0378,0.0152 -0.0406,0.0141 -0.0787,0.024 -0.11254,0.0289 -0.0342,0.005 -0.0653,0.005 -0.0945,0.003 -0.009,-7.2e-4 -0.0173,-0.003 -0.0261,-0.004 -0.0187,-0.003 -0.037,-0.006 -0.054,-0.0109 -0.0504,-0.0141 -0.0977,-0.0353 -0.14746,-0.0582 -0.0487,-0.0215 -0.10195,-0.043 -0.16192,-0.0603 -0.007,-0.002 -0.0123,-0.005 -0.0198,-0.007 -0.005,-0.001 -0.0123,-0.002 -0.0176,-0.003 -0.0275,-0.006 -0.0579,-0.0106 -0.0896,-0.0145 -0.0166,-0.002 -0.0321,-0.004 -0.0497,-0.005 -0.0515,-0.003 -0.10725,-0.002 -0.17216,0.005 -0.0568,0.008 -0.10901,0.0243 -0.15734,0.0469 -0.007,0.004 -0.0134,0.008 -0.0205,0.0116 -0.007,0.004 -0.0141,0.008 -0.0208,0.012 -0.0145,0.009 -0.0296,0.0155 -0.0434,0.0254 -0.0251,0.0169 -0.0487,0.036 -0.0713,0.0564 -0.007,0.006 -0.0138,0.0145 -0.0212,0.0212 -0.006,0.005 -0.0106,0.0109 -0.0162,0.0162 -0.0116,0.0123 -0.024,0.0236 -0.0353,0.0363 -0.0282,0.0321 -0.0547,0.067 -0.0804,0.10336 -0.003,0.004 -0.005,0.006 -0.007,0.01 -0.001,0.002 -0.002,0.003 -0.004,0.005 -0.005,0.006 -0.008,0.0141 -0.0123,0.0208 -0.061,0.0892 -0.11747,0.18732 -0.17356,0.28681 -0.0571,0.10124 -0.11572,0.20073 -0.17851,0.29421 -0.025,0.037 -0.0504,0.073 -0.0776,0.1069 -0.004,0.005 -0.008,0.0102 -0.0116,0.0152 l -0.45085,-0.24554 c -0.65652,-1.32468 -1.84432,-2.16253 -2.5534,-2.53153 0.0279,0.0145 0.0533,0.0268 0.0825,0.0427 l -0.86639,-0.47134 c -0.11571,-0.2473 -0.0737,-0.6724 -0.0628,-1.11513 0.008,-0.35172 -0.0512,-0.57609 -0.2039,-0.65335 0.002,10e-4 0.005,10e-4 0.007,0.002 l -2.4123,-1.31233 c -0.003,-0.002 -0.006,-0.004 -0.01,-0.005 -0.0159,-0.008 -0.0332,-0.0148 -0.0515,-0.019 -0.004,-10e-4 -0.01,3.4e-4 -0.0145,-3.5e-4 -0.0395,-0.008 -0.0822,-0.0113 -0.13194,-0.005 -0.0473,0.007 -0.10019,0.0229 -0.15628,0.043 -0.0166,0.006 -0.0342,0.0138 -0.0515,0.0212 -0.0187,0.008 -0.0363,0.0134 -0.0568,0.0229 -0.0384,0.018 -0.079,0.0392 -0.12171,0.0628 -0.0198,0.0113 -0.0413,0.0247 -0.0635,0.0406 -0.009,0.006 -0.0198,0.0166 -0.0286,0.0236 -0.0335,0.0247 -0.0695,0.0543 -0.10724,0.0871 -0.0127,0.0109 -0.0222,0.0169 -0.0356,0.0289 -0.005,0.005 -0.0123,0.0123 -0.0176,0.0173 -0.0653,0.0596 -0.13476,0.12771 -0.2092,0.20497 -0.0145,0.0152 -0.03,0.0321 -0.0448,0.0476 -0.0632,0.0667 -0.12806,0.13793 -0.19614,0.21378 -0.012,0.0138 -0.0226,0.0243 -0.0346,0.0381 -0.018,0.0205 -0.0367,0.0427 -0.055,0.0635 -0.0296,0.0342 -0.0593,0.0681 -0.0892,0.10372 -0.0363,0.0423 -0.073,0.0857 -0.11007,0.13017 -0.0317,0.0374 -0.0631,0.0755 -0.0952,0.11395 -0.0363,0.0448 -0.0734,0.0896 -0.11007,0.13511 -0.0325,0.0402 -0.0649,0.0804 -0.0974,0.12101 -0.0367,0.0455 -0.0727,0.0914 -0.109,0.13723 -0.0325,0.0416 -0.0646,0.0822 -0.0967,0.12347 -0.0378,0.0483 -0.0744,0.096 -0.11148,0.14429 -0.03,0.0388 -0.0596,0.0773 -0.0889,0.11571 -0.0399,0.0529 -0.0783,0.10442 -0.11748,0.15628 -0.0247,0.0332 -0.0497,0.0663 -0.0741,0.0991 -0.0455,0.0614 -0.0889,0.12065 -0.13194,0.17991 -0.0159,0.0215 -0.0325,0.0441 -0.048,0.0653 -0.0617,0.0857 -0.12135,0.16934 -0.17709,0.24801 -0.0998,0.14287 -0.18627,0.27058 -0.25753,0.38064 -0.009,0.0145 -0.0166,0.0261 -0.025,0.0399 -0.0254,0.0392 -0.0483,0.0762 -0.0684,0.10901 -0.009,0.0148 -0.0162,0.0279 -0.024,0.0413 -0.009,0.0159 -0.0212,0.0353 -0.0289,0.0494 -0.008,0.0162 -0.0166,0.031 -0.0229,0.0445 -0.0279,0.0561 -0.0596,0.12206 -0.0924,0.18768 -0.0116,0.0236 -0.024,0.0473 -0.0356,0.0713 -0.0134,0.0268 -0.0282,0.0543 -0.042,0.0815 -0.10972,-0.3362 -0.24765,-0.48824 -0.36548,-0.5521 l -0.98425,-0.53551 c -0.0512,-0.0935 -0.0878,-0.15911 -0.0928,-0.16793 -0.0903,-0.16439 -0.16898,-0.25117 -0.24271,-0.2861 0.004,0.002 0.007,0 0.0106,0.002 l -2.41215,-1.31231 c -0.002,-0.001 -0.005,-0.003 -0.008,-0.004 -0.012,-0.006 -0.0236,-0.0102 -0.0353,-0.0134 -0.0205,-0.005 -0.0399,-0.006 -0.0596,-0.004 -0.0166,0.002 -0.0332,0.008 -0.0494,0.0148 -0.0123,0.006 -0.0243,0.0134 -0.0367,0.0219 -3.4e-4,0 -3.4e-4,3.4e-4 -7.1e-4,3.4e-4 -7.2e-4,7.2e-4 -0.001,0.001 -0.002,0.002 -0.0113,0.008 -0.0222,0.0169 -0.0335,0.0268 -0.0152,0.0138 -0.0303,0.0296 -0.0459,0.0469 h 3.4e-4 c -10e-4,0.001 -0.002,0.003 -0.002,0.003 -0.008,0.01 -0.0169,0.0219 -0.0254,0.0321 -0.0155,0.0201 -0.0314,0.0388 -0.0476,0.0617 -0.004,0.005 -0.007,0.0109 -0.0106,0.0159 -0.0176,0.0261 -0.0363,0.0557 -0.055,0.085 -0.0127,0.0205 -0.0257,0.0395 -0.0388,0.061 -0.0289,0.0473 -0.0593,0.0981 -0.0903,0.14993 -0.0152,0.025 -0.0317,0.0519 -0.0476,0.078 -0.0215,0.0356 -0.0434,0.0716 -0.0663,0.10795 -0.0201,0.0317 -0.0416,0.0635 -0.0632,0.0952 -0.0194,0.0289 -0.0377,0.0582 -0.0579,0.0868 -0.0448,0.0639 -0.0924,0.12665 -0.14288,0.18697 -0.0522,0.0614 -0.11324,0.11642 -0.17674,0.16899 -0.0197,0.0166 -0.0402,0.0321 -0.0603,0.0476 -0.0374,0.0279 -0.0773,0.0529 -0.11677,0.078 -0.0688,0.0437 -0.13935,0.084 -0.21273,0.12065 -0.0353,0.0176 -0.0705,0.0367 -0.10689,0.0529 -0.0205,0.009 -0.0413,0.018 -0.0617,0.0268 -0.073,0.0303 -0.14641,0.0593 -0.21873,0.084 -0.005,0.002 -0.01,0.004 -0.0145,0.005 -0.078,0.0265 -0.15417,0.0487 -0.2279,0.0688 -0.0194,0.005 -0.0381,0.0106 -0.0568,0.0155 -0.0667,0.0173 -0.13088,0.0332 -0.1898,0.0459 -0.004,10e-4 -0.009,0.002 -0.0127,0.003 -0.0624,0.0138 -0.11747,0.024 -0.16722,0.0328 -0.0141,0.002 -0.0279,0.005 -0.0409,0.007 -0.0423,0.007 -0.0825,0.0138 -0.10971,0.0176 -0.0395,0.005 -0.0607,0.008 -0.0614,0.008 -0.15699,0.0222 -0.30339,0.0473 -0.44062,0.0751 -0.0547,0.0109 -0.10125,0.0243 -0.15276,0.036 -0.0787,0.0183 -0.1598,0.0356 -0.23177,0.0557 -0.0512,0.0141 -0.0949,0.0303 -0.14288,0.0452 -0.0642,0.0198 -0.13158,0.0395 -0.1905,0.0607 -0.043,0.0159 -0.0797,0.0335 -0.12029,0.0501 -0.0522,0.0212 -0.1076,0.0416 -0.15523,0.0642 -0.004,0.002 -0.007,0.004 -0.0102,0.005 -0.0123,0.006 -0.0229,0.012 -0.0346,0.0176 -0.0663,0.0328 -0.12841,0.0667 -0.18627,0.10124 -0.0201,0.0116 -0.0388,0.0243 -0.0575,0.0363 -0.0205,0.013 -0.043,0.0257 -0.0624,0.0388 -0.019,0.013 -0.0332,0.0268 -0.0508,0.0399 -0.0335,0.025 -0.0663,0.0501 -0.0963,0.0759 -0.0134,0.0109 -0.0296,0.0219 -0.0423,0.0332 -0.0166,0.0148 -0.0296,0.0303 -0.0448,0.0451 -0.0183,0.018 -0.0367,0.0356 -0.0533,0.0533 -0.01,0.0106 -0.0215,0.0208 -0.0307,0.031 -0.0187,0.0212 -0.0335,0.042 -0.0501,0.0635 -0.0116,0.0148 -0.0243,0.0296 -0.0353,0.0448 -0.005,0.006 -0.0106,0.0123 -0.0152,0.0191 -0.0187,0.0268 -0.0335,0.054 -0.0501,0.0811 -0.009,0.0152 -0.0194,0.03 -0.0272,0.0448 -0.002,0.004 -0.006,0.008 -0.008,0.012 -0.009,0.0173 -0.0145,0.0342 -0.0226,0.0512 -0.0166,0.0346 -0.0332,0.0692 -0.0462,0.10337 -0.002,0.006 -0.006,0.0123 -0.008,0.0183 -0.004,0.0116 -0.005,0.0226 -0.01,0.0339 -0.0169,0.0508 -0.031,0.10054 -0.0416,0.14993 -0.004,0.0145 -0.007,0.0289 -0.01,0.0437 -0.0116,0.06 -0.0198,0.11853 -0.025,0.17498 -0.001,0.0106 -0.001,0.0205 -0.002,0.0307 -0.003,0.0487 -0.006,0.0945 -0.006,0.13864 -3.5e-4,0.0162 -7.1e-4,0.0307 -0.001,0.0459 -3.5e-4,0.0452 -3.5e-4,0.0882 -3.5e-4,0.12735 -7.1e-4,0.30515 0.14217,0.78034 0.68192,1.07386 0.80398,0.43744 1.60796,0.87488 2.41229,1.31198 -0.004,-0.002 -0.007,-0.005 -0.0113,-0.007 0.40288,0.22366 1.02941,0.34607 1.99143,0.21484 0.0335,-0.004 0.0632,-0.003 0.096,-0.006 0.23424,0.41769 0.32914,0.78422 0.34078,0.83079 l 0.0314,1.5935 c -3.4e-4,0.11994 -0.012,0.22789 -0.0293,0.32914 -0.005,0.0314 -0.0127,0.0596 -0.0194,0.0892 -0.0148,0.0667 -0.0314,0.13017 -0.0508,0.18803 -0.0106,0.0307 -0.0215,0.0607 -0.0332,0.0893 -0.0162,0.0406 -0.0335,0.079 -0.0515,0.11501 -0.0134,0.0265 -0.0268,0.0529 -0.0406,0.0769 -0.0162,0.0282 -0.0325,0.0547 -0.0483,0.0794 -0.0141,0.0208 -0.0279,0.0413 -0.0413,0.06 -0.0194,0.0261 -0.0381,0.0497 -0.0561,0.0709 -0.01,0.0113 -0.0198,0.0236 -0.0286,0.0339 -0.0289,0.0321 -0.0561,0.0596 -0.0741,0.0755 -0.0159,0.0141 -0.0261,0.0222 -0.0293,0.0251 -0.0459,0.0441 -0.0878,0.0882 -0.12629,0.13194 -0.0155,0.0177 -0.0265,0.0342 -0.0409,0.0512 -0.0208,0.0254 -0.0402,0.0497 -0.0589,0.0744 -0.0145,0.0194 -0.0321,0.0392 -0.0455,0.0579 -0.0155,0.0226 -0.0261,0.043 -0.0402,0.0649 -0.0173,0.0275 -0.0342,0.054 -0.0497,0.0811 -0.008,0.013 -0.018,0.0272 -0.0251,0.0402 -0.01,0.0187 -0.0148,0.0342 -0.0236,0.0526 -0.0208,0.0413 -0.0388,0.0811 -0.054,0.11959 -0.005,0.0127 -0.0138,0.0275 -0.0183,0.0399 -0.005,0.0141 -0.007,0.0257 -0.0117,0.0392 -0.0116,0.0346 -0.0212,0.0663 -0.0289,0.0977 -0.006,0.0219 -0.0117,0.0427 -0.0159,0.0624 -0.007,0.0332 -0.0113,0.061 -0.0152,0.0882 -0.002,0.013 -0.004,0.0265 -0.006,0.0384 -0.003,0.0303 -0.005,0.0543 -0.005,0.0744 0,0.004 -7.1e-4,0.008 -7.1e-4,0.0113 0,0.0212 3.4e-4,0.0356 7.1e-4,0.0395 l -0.001,0.70132 c -7.1e-4,0.35348 0.11677,0.52528 0.26176,0.60395 l 2.4123,1.31269 c -0.002,-0.001 -0.004,-0.003 -0.006,-0.004 0.13829,0.078 0.30198,0.0699 0.41204,0.0529 l 3.11119,-0.43709 c 0.79375,-0.11148 0.75494,-0.77223 0.75283,-0.80716 -0.003,-0.0395 -0.0635,-0.79022 1.30739,-1.07103 0.0773,-0.0159 0.15311,-0.0289 0.22648,-0.0395 0.3549,-0.0497 0.66429,-0.037 0.93592,0.0141 l 1.77095,0.96343 c -0.006,-0.003 -0.0127,-0.008 -0.0187,-0.0113 0.26247,0.14676 0.41663,0.15029 0.50447,0.13547 l 1.43298,-0.20143 c 0.97473,-0.13688 1.14618,-1.14265 1.18075,-1.41006 0.0243,-0.17674 0.15381,-0.22436 0.23883,-0.23636 0.0434,-0.006 0.0737,-0.003 0.0748,-0.003 0.53587,0.0265 1.02658,0.002 1.47779,-0.0607 3.58493,-0.50412 4.62421,-3.52178 4.99427,-4.12362 0.21555,-0.34925 0.37042,-0.44767 0.46955,-0.46143 0.004,-7.2e-4 0.007,3.4e-4 0.0106,0 l 0.26176,0.14252 c -0.004,-0.002 -0.009,-0.007 -0.0127,-0.009 0.0917,0.0529 0.17251,0.0709 0.2413,0.061 0.32773,-0.0462 0.41099,-0.63465 0.41557,-0.66534 l 0.39688,-2.30328 c 0.0547,-0.42263 -0.0399,-0.58844 -0.16404,-0.64347 z" />
      <path
         inkscape:connector-curvature="0"
         id="path45083"
         style="display:inline;fill:#be1e2d;fill-opacity:1;fill-rule:nonzero;stroke:#000000;stroke-width:0.05812419;stroke-miterlimit:4;stroke-dasharray:none;stroke-opacity:1"
         d="m 173.73169,195.19121 c 0.0995,-0.0141 0.20567,0.0702 0.33444,0.3048 0.0131,0.0229 0.25647,0.4579 0.38594,0.72954 l 0.47484,-0.067 c 0.11994,-0.0183 0.4893,-0.004 0.67345,0.95109 0.006,0.0441 0.12418,0.86925 0.58314,0.80469 0.10689,-0.024 0.17674,-0.0381 0.24518,-0.0476 0.40958,-0.0575 0.76412,0.0452 0.83573,0.6657 0.0226,0.18908 0.073,0.25929 0.139,0.25012 0.18803,-0.0268 0.50517,-0.68651 0.68721,-1.05869 0.24941,-0.50483 2.07927,-2.96651 2.67582,-3.30412 0.15416,-0.0868 0.28222,-0.13617 0.38735,-0.15099 0.30233,-0.0423 0.41416,0.2032 0.40287,0.67769 -0.0152,0.64241 -0.10407,1.24989 0.32526,1.32962 0.42898,0.0801 3.20922,1.46685 3.51755,4.2351 3.4e-4,0.0247 0.008,0.49353 0.22965,0.46214 0.11113,-0.0155 0.27623,-0.16369 0.52212,-0.57397 0.16686,-0.2794 0.31432,-0.39723 0.44732,-0.41593 0.20567,-0.0289 0.37712,0.17851 0.53269,0.38806 0.15734,0.20955 0.30057,0.42157 0.4505,0.4004 0.0272,-0.004 0.0547,-0.0155 0.0829,-0.0363 0.42616,-0.31679 0.53728,-1.14264 1.08585,-1.2199 0.46426,-0.0554 0.54716,0.19579 0.83397,0.15557 0.0741,-0.0106 0.16227,-0.0406 0.27446,-0.10089 0.5461,-0.29351 0.72213,-0.76306 0.67486,-1.1804 -0.0642,-0.52775 -0.0497,-0.63958 0.32914,-0.77822 l 0.32773,-0.12242 1.80658,-0.75106 c 0.005,-0.002 0.091,-0.0511 0.19861,-0.0663 0.18345,-0.0258 0.41628,0.0529 0.33726,0.66498 l -0.39723,2.30047 c -0.004,0.0307 -0.0878,0.62159 -0.41592,0.6678 -0.0988,0.0138 -0.21873,-0.024 -0.36478,-0.14675 -0.002,-0.003 -0.0437,-0.0603 -0.13582,-0.0473 -0.0988,0.0138 -0.25329,0.11253 -0.46954,0.46178 -0.37007,0.60184 -1.409,3.62021 -4.99393,4.12398 -0.45085,0.0635 -0.94191,0.0864 -1.47743,0.0607 -0.001,0 -0.0317,-0.003 -0.0748,0.003 -0.0854,0.012 -0.21449,0.0596 -0.23918,0.23671 -0.0346,0.26705 -0.20602,1.27282 -1.18075,1.41005 l -1.43263,0.20109 c -0.0995,0.0173 -0.29245,0.0116 -0.65229,-0.22508 -0.43956,-0.29456 -1.13594,-1.0735 -2.54035,-0.8763 -0.0734,0.0106 -0.14922,0.0236 -0.22648,0.0395 -1.3709,0.28046 -1.31057,1.03117 -1.30704,1.07104 0.002,0.0346 0.0409,0.69532 -0.75283,0.80715 l -3.11115,0.4371 c -0.22331,0.0346 -0.66957,0.0346 -0.66851,-0.65335 l 10e-4,-0.70132 c -0.002,-0.0293 -0.0356,-0.5835 0.56444,-1.16523 0.025,-0.0198 0.50059,-0.39934 0.50236,-1.23225 l -0.031,-1.59312 c -0.0314,-0.12207 -0.62265,-2.44052 -2.84903,-2.13678 -2.22709,0.30339 -2.66277,-0.74824 -2.66171,-1.28164 7.1e-4,-0.53375 -0.0677,-1.69228 2.46134,-2.04752 0.001,-3.5e-4 0.0222,-0.002 0.0621,-0.008 0.26282,-0.0367 1.30033,-0.21449 1.77306,-0.77399 0.38064,-0.45297 0.57961,-1.04352 0.81632,-1.07668" />
    </g>
  </g>
</svg>
