<?xml version="1.0" encoding="UTF-8" standalone="no"?>
<!-- Created with Inkscape (http://www.inkscape.org/) -->

<svg
   xmlns:dc="http://purl.org/dc/elements/1.1/"
   xmlns:cc="http://creativecommons.org/ns#"
   xmlns:rdf="http://www.w3.org/1999/02/22-rdf-syntax-ns#"
   xmlns:svg="http://www.w3.org/2000/svg"
   xmlns="http://www.w3.org/2000/svg"
   xmlns:sodipodi="http://sodipodi.sourceforge.net/DTD/sodipodi-0.dtd"
   xmlns:inkscape="http://www.inkscape.org/namespaces/inkscape"
   width="9.0450468mm"
   height="10.735525mm"
   viewBox="0 0 9.0450468 10.735525"
   version="1.1"
   id="svg137311"
   inkscape:version="0.92.3 (2405546, 2018-03-11)"
   sodipodi:docname="Witch_f.svg">
  <defs
     id="defs137305" />
  <sodipodi:namedview
     id="base"
     pagecolor="#ffffff"
     bordercolor="#666666"
     borderopacity="1.0"
     inkscape:pageopacity="0.0"
     inkscape:pageshadow="2"
     inkscape:zoom="15.839192"
     inkscape:cx="22.34764"
     inkscape:cy="22.821539"
     inkscape:document-units="mm"
     inkscape:current-layer="layer1"
     showgrid="false"
     inkscape:window-width="958"
     inkscape:window-height="1008"
     inkscape:window-x="-7"
     inkscape:window-y="0"
     inkscape:window-maximized="1" />
  <metadata
     id="metadata137308">
    <rdf:RDF>
      <cc:Work
         rdf:about="">
        <dc:format>image/svg+xml</dc:format>
        <dc:type
           rdf:resource="http://purl.org/dc/dcmitype/StillImage" />
        <dc:title />
      </cc:Work>
    </rdf:RDF>
  </metadata>
  <g
     inkscape:label="Ebene 1"
     inkscape:groupmode="layer"
     id="layer1"
     transform="translate(275.90933,117.43614)">
    <g
       transform="matrix(-1.0000227,0,0,0.88952295,-229.7384,-195.1175)"
       id="g129076"
       inkscape:label="Witch"
       style="stroke-width:1.06026995">
      <path
         inkscape:connector-curvature="0"
         id="path2509"
         style="display:inline;fill:none;fill-opacity:1;stroke:#000000;stroke-width:0.16222131;stroke-linecap:round;stroke-linejoin:round;stroke-miterlimit:10;stroke-dasharray:none;stroke-opacity:1"
         d="m 44.656494,95.109608 c 0.02187,-0.0032 0.03598,-0.0032 0.03669,-0.0032 L 45.377219,94.9498 c 0.723194,-0.141464 0.7112,-0.867128 0.710847,-0.905581 l 7.06e-4,-0.405342 c 3.53e-4,-0.234244 -0.08925,-0.337961 -0.187325,-0.383822 0.0056,0.0025 0.01129,0.0039 0.01623,0.0067 l -0.01129,-0.0063 -0.105481,-0.05715 -1.583267,-0.861483 c -0.262113,-1.016353 -0.672747,-2.573867 -0.853016,-3.059642 -0.116417,-0.318911 -0.236009,-0.460022 -0.354189,-0.517878 0.0042,0.0025 0.0085,0.0025 0.0127,0.0049 L 40.61084,87.451869 c -0.0039,-0.0025 -0.0085,-0.0046 -0.0127,-0.0067 -0.02117,-0.01058 -0.04233,-0.01799 -0.0635,-0.02364 -0.0028,-7.05e-4 -0.0056,-3.53e-4 -0.0088,-0.0011 -0.03387,-0.0074 -0.06738,-0.01094 -0.100542,-0.0099 -0.01023,0.0035 -0.02187,0.0074 -0.03351,0.01341 -0.0011,3.52e-4 -0.0021,0.0014 -0.0028,0.0018 -0.0088,0.0039 -0.01834,0.01023 -0.02822,0.01623 -0.0053,0.0032 -0.01058,0.0053 -0.01658,0.0095 -0.0014,0.0011 -0.0028,0.0028 -0.0046,0.0039 -0.0067,0.0046 -0.01376,0.01094 -0.02117,0.01693 -0.006,0.0049 -0.01235,0.0092 -0.01905,0.01517 -0.0028,0.0025 -0.006,0.0063 -0.0092,0.0092 -0.0071,0.0067 -0.01482,0.01446 -0.02222,0.02258 -0.0056,0.006 -0.01129,0.01058 -0.01693,0.01693 -0.0053,0.006 -0.01094,0.01376 -0.01588,0.02046 -0.0088,0.01023 -0.01764,0.02152 -0.02646,0.03387 -0.0053,0.0071 -0.01023,0.01235 -0.01552,0.01976 -0.0046,0.0063 -0.0092,0.01552 -0.01341,0.02258 -0.01517,0.02223 -0.03034,0.04727 -0.04586,0.07444 -0.0063,0.01094 -0.01199,0.0187 -0.0187,0.03069 -0.0039,0.0071 -0.0081,0.01623 -0.01164,0.02399 -0.0088,0.01693 -0.01764,0.03528 -0.02611,0.05397 -0.01341,0.02681 -0.02611,0.05468 -0.03916,0.08502 -0.0085,0.02117 -0.01764,0.04339 -0.02646,0.06632 -0.0081,0.02046 -0.01623,0.0381 -0.02434,0.06068 -0.0092,0.02434 -0.01799,0.04974 -0.02716,0.07655 -0.269522,0.796572 -1.059391,4.10598 -1.101019,4.2799 -3.53e-4,0.0018 -0.0021,0.01058 -0.0063,0.02152 -0.0039,0.0099 -0.0099,0.02258 -0.01693,0.03563 -0.0014,0.0018 -0.0025,0.0035 -0.0039,0.0056 -0.0085,0.01341 -0.0194,0.02716 -0.03387,0.03845 -7.05e-4,3.53e-4 -0.0014,0.0011 -0.0021,0.0014 -0.01552,0.01235 -0.03492,0.02117 -0.05821,0.02469 l -1.079852,0.191558 c -7.06e-4,0 -0.0099,0 -0.02681,0.0025 -0.01305,0.0014 -0.0314,0.0053 -0.05186,0.01058 -0.0067,0.0018 -0.01376,0.0042 -0.02117,0.0063 -0.01658,0.0049 -0.03351,0.01129 -0.05221,0.01905 -0.0053,0.0025 -0.0099,0.0032 -0.01552,0.006 -0.0039,0.0021 -0.0085,0.0049 -0.01305,0.0074 -0.01129,0.0056 -0.02222,0.01199 -0.03351,0.0194 -0.0071,0.0042 -0.01341,0.0067 -0.02011,0.01129 -0.0071,0.0049 -0.01411,0.01129 -0.02152,0.01693 -0.0049,0.0042 -0.01023,0.0078 -0.01552,0.0127 -0.0021,0.0018 -0.0042,0.0032 -0.0064,0.0049 -0.01199,0.01058 -0.02364,0.02187 -0.03493,0.03457 -0.0042,0.0053 -0.0088,0.01164 -0.0134,0.01693 l -0.0081,0.01058 c -0.0028,0.0035 -0.0056,0.0067 -0.0085,0.01058 -0.0099,0.01411 -0.01905,0.02928 -0.02787,0.04551 -0.0032,0.006 -0.0056,0.01341 -0.0088,0.01976 -0.0032,0.0071 -0.0063,0.01341 -0.0092,0.02081 -0.0035,0.0078 -0.0074,0.01482 -0.01058,0.02293 -0.0056,0.01623 -0.0092,0.03563 -0.01376,0.05362 -0.0035,0.01376 -0.0078,0.02611 -0.01058,0.04092 -0.0078,0.04127 -0.01235,0.08643 -0.0127,0.137231 l -7.05e-4,0.405341 c -7.06e-4,0.02928 -0.0095,0.46355 0.31115,0.638175 l 1.077736,0.586317 c -0.375003,0.686153 -1.269295,2.345619 -1.322211,2.443692 -0.0014,0.0028 -0.0039,0.01023 -0.0078,0.02081 -3.53e-4,0.0014 -0.0014,0.0042 -0.0021,0.006 -0.0018,0.0046 -0.0035,0.0099 -0.0056,0.01623 -0.0039,0.01199 -0.0085,0.02505 -0.01376,0.04198 -0.0032,0.0095 -0.0056,0.01905 -0.0088,0.03034 -0.0049,0.01623 -0.0092,0.0321 -0.01376,0.0508 -0.0032,0.0134 -0.0063,0.02646 -0.0092,0.04057 -0.0039,0.0187 -0.0071,0.0374 -0.01023,0.05715 -0.0025,0.01517 -0.0046,0.02963 -0.006,0.0448 -0.0025,0.02011 -0.0032,0.04022 -0.0039,0.05997 -3.53e-4,0.01517 -0.0011,0.02999 -3.53e-4,0.0448 0.0011,0.02081 0.0042,0.04057 0.0074,0.05997 0.0021,0.01341 0.0039,0.02681 0.0074,0.03986 0.0056,0.02046 0.01552,0.03881 0.0254,0.0575 0.0053,0.0092 0.0085,0.0194 0.01446,0.02822 0.0187,0.02505 0.04127,0.04727 0.07161,0.0635 l 2.40912,1.31057 c 7.05e-4,3.52e-4 0.0014,7.05e-4 0.0018,0.0011 l 0.0014,7.05e-4 -3.53e-4,-3.52e-4 c 0.05715,0.0314 0.137231,0.0441 0.24765,0.02858 0.596547,-0.08361 2.746728,-0.386292 2.860322,-0.401814 0.112889,-0.01587 2.260247,-0.317853 2.856795,-0.401461 0.596194,-0.08396 0.312914,-0.739423 0.298097,-0.773642 -0.05927,-0.09419 -1.185686,-1.879953 -1.433689,-2.253544 -0.195792,-0.29845 -0.0035,-0.358423 0.08255,-0.370417 z" />
      <path
         inkscape:connector-curvature="0"
         id="path2509-7"
         style="display:inline;fill:#954916;fill-opacity:1;stroke:none;stroke-width:0.16222131;stroke-linecap:round;stroke-linejoin:round;stroke-miterlimit:10;stroke-dasharray:none;stroke-opacity:1"
         d="m 44.656495,95.109608 c 0.02187,-0.0032 0.03598,-0.0032 0.03669,-0.0032 l 0.684035,-0.156609 c 0.723194,-0.141464 0.7112,-0.867128 0.710847,-0.905581 l 7.06e-4,-0.405342 c 3.53e-4,-0.234244 -0.08925,-0.337961 -0.187325,-0.383822 0.0056,0.0025 0.01129,0.0039 0.01623,0.0067 l -0.01129,-0.0063 -0.105481,-0.05715 -1.583267,-0.861483 c -0.262113,-1.016352 -0.672747,-2.573866 -0.853016,-3.059641 -0.116417,-0.318911 -0.236009,-0.460022 -0.354189,-0.517878 0.0042,0.0025 0.0085,0.0025 0.0127,0.0049 l -2.412294,-1.312333 c -0.0039,-0.0025 -0.0085,-0.0046 -0.0127,-0.0067 -0.02117,-0.01058 -0.04233,-0.01799 -0.0635,-0.02364 -0.0028,-7.05e-4 -0.0056,-3.53e-4 -0.0088,-0.0011 -0.03387,-0.0074 -0.06738,-0.01094 -0.100542,-0.0099 -0.01023,0.0035 -0.02187,0.0074 -0.03351,0.01341 -0.0011,3.52e-4 -0.0021,0.0014 -0.0028,0.0018 -0.0088,0.0039 -0.01834,0.01023 -0.02822,0.01623 -0.0053,0.0032 -0.01058,0.0053 -0.01658,0.0095 -0.0014,0.0011 -0.0028,0.0028 -0.0046,0.0039 -0.0067,0.0046 -0.01376,0.01094 -0.02117,0.01693 -0.006,0.0049 -0.01235,0.0092 -0.01905,0.01517 -0.0028,0.0025 -0.006,0.0063 -0.0092,0.0092 -0.0071,0.0067 -0.01482,0.01446 -0.02222,0.02258 -0.0056,0.006 -0.01129,0.01058 -0.01693,0.01693 -0.0053,0.006 -0.01094,0.01376 -0.01588,0.02046 -0.0088,0.01023 -0.01764,0.02152 -0.02646,0.03387 -0.0053,0.0071 -0.01023,0.01235 -0.01552,0.01976 -0.0046,0.0063 -0.0092,0.01552 -0.01341,0.02258 -0.01517,0.02223 -0.03034,0.04727 -0.04586,0.07444 -0.0063,0.01094 -0.01199,0.0187 -0.0187,0.03069 -0.0039,0.0071 -0.0081,0.01623 -0.01164,0.02399 -0.0088,0.01693 -0.01764,0.03528 -0.02611,0.05397 -0.01341,0.02681 -0.02611,0.05468 -0.03916,0.08502 -0.0085,0.02117 -0.01764,0.04339 -0.02646,0.06632 -0.0081,0.02046 -0.01623,0.0381 -0.02434,0.06068 -0.0092,0.02434 -0.01799,0.04974 -0.02716,0.07655 -0.269522,0.796572 -1.059392,4.10598 -1.10102,4.2799 -3.43e-4,0.0018 -0.0021,0.01058 -0.0063,0.02152 -0.0039,0.0099 -0.0099,0.02258 -0.01693,0.03563 -0.0014,0.0018 -0.0025,0.0035 -0.0039,0.0056 -0.0085,0.01341 -0.0194,0.02716 -0.03387,0.03845 -7.14e-4,3.43e-4 -0.0014,0.0011 -0.0021,0.0014 -0.01552,0.01235 -0.03492,0.02117 -0.05821,0.02469 l -1.079852,0.191558 c -7.14e-4,0 -0.0099,0 -0.02681,0.0025 -0.01305,0.0014 -0.0314,0.0053 -0.05186,0.01058 -0.0067,0.0018 -0.01376,0.0042 -0.02117,0.0063 -0.01658,0.0049 -0.03351,0.01129 -0.05221,0.01905 -0.0053,0.0025 -0.0099,0.0032 -0.01552,0.006 -0.0039,0.0021 -0.0085,0.0049 -0.01305,0.0074 -0.01129,0.0056 -0.02222,0.01199 -0.03351,0.0194 -0.0071,0.0042 -0.01341,0.0067 -0.02011,0.01129 -0.0071,0.0049 -0.01411,0.01129 -0.02152,0.01693 -0.0049,0.0042 -0.01023,0.0078 -0.01552,0.0127 -0.0021,0.0018 -0.0042,0.0032 -0.0064,0.0049 -0.01199,0.01058 -0.02364,0.02187 -0.03493,0.03457 -0.0042,0.0053 -0.0088,0.01164 -0.0134,0.01693 l -0.0081,0.01058 c -0.0028,0.0035 -0.0056,0.0067 -0.0085,0.01058 -0.0099,0.01411 -0.01905,0.02928 -0.02787,0.04551 -0.0032,0.006 -0.0056,0.01341 -0.0088,0.01976 -0.0032,0.0071 -0.0063,0.01341 -0.0092,0.02081 -0.0035,0.0078 -0.0074,0.01482 -0.01058,0.02293 -0.0056,0.01623 -0.0092,0.03563 -0.01376,0.05362 -0.0035,0.01376 -0.0078,0.02611 -0.01058,0.04092 -0.0078,0.04127 -0.01235,0.08643 -0.0127,0.137231 l -7.14e-4,0.405341 c -7.15e-4,0.02928 -0.0095,0.46355 0.31115,0.638175 l 1.077736,0.586317 c -0.375003,0.686153 -1.269295,2.345619 -1.322211,2.443692 -0.0014,0.0028 -0.0039,0.01023 -0.0078,0.02081 -3.44e-4,0.0014 -0.0014,0.0042 -0.0021,0.006 -0.0018,0.0046 -0.0035,0.0099 -0.0056,0.01623 -0.0039,0.01199 -0.0085,0.02505 -0.01376,0.04198 -0.0032,0.0095 -0.0056,0.01905 -0.0088,0.03034 -0.0049,0.01623 -0.0092,0.0321 -0.01376,0.0508 -0.0032,0.0134 -0.0063,0.02646 -0.0092,0.04057 -0.0039,0.0187 -0.0071,0.0374 -0.01023,0.05715 -0.0025,0.01517 -0.0046,0.02963 -0.006,0.0448 -0.0025,0.02011 -0.0032,0.04022 -0.0039,0.05997 -3.44e-4,0.01517 -0.0011,0.02999 -3.44e-4,0.0448 0.0011,0.02081 0.0042,0.04057 0.0074,0.05997 0.0021,0.01341 0.0039,0.02681 0.0074,0.03986 0.0056,0.02046 0.01552,0.03881 0.0254,0.0575 0.0053,0.0092 0.0085,0.0194 0.01446,0.02822 0.0187,0.02505 0.04127,0.04727 0.07161,0.0635 l 2.40912,1.31057 c 7.14e-4,3.44e-4 0.0014,7.14e-4 0.0018,0.0011 l 0.0014,7.14e-4 -3.44e-4,-3.44e-4 c 0.05715,0.0314 0.137231,0.0441 0.24765,0.02858 0.596521,-0.08363 2.746702,-0.386309 2.860296,-0.401831 0.112889,-0.01587 2.260247,-0.317853 2.856795,-0.401461 0.596194,-0.08396 0.312914,-0.739423 0.298097,-0.773642 -0.05927,-0.09419 -1.185686,-1.879953 -1.433689,-2.253544 -0.195792,-0.29845 -0.0035,-0.358423 0.08255,-0.370417 z" />
      <path
         d="m 42.837824,88.723092 c 0.172156,-0.0063 0.352778,0.07867 0.52705,0.551039 0.267053,0.724606 1.044928,3.813881 1.08585,3.976159 0.0014,0.0053 0.02787,0.103011 0.121356,0.08996 l 1.081969,-0.109714 c 7.15e-4,-3.44e-4 0.01023,-0.0021 0.02716,-0.0046 0.09454,-0.01341 0.408164,-0.02469 0.407106,0.413455 l -7.15e-4,0.405695 c 7.15e-4,0.0381 0.0127,0.763411 -0.710847,0.904522 l -0.683683,0.157696 c -7.15e-4,0 -0.01482,-3.44e-4 -0.03669,0.0025 -0.08608,0.01235 -0.278342,0.07232 -0.08255,0.37077 0.248002,0.373944 1.374422,2.159 1.433688,2.253191 0.01482,0.03457 0.297745,0.690034 -0.298097,0.773995 -0.596547,0.08396 -2.743905,0.385586 -2.856794,0.401461 -0.113242,0.01587 -2.263775,0.317852 -2.859617,0.402166 -0.596547,0.08361 -0.307975,-0.652286 -0.292805,-0.691091 0.05962,-0.110772 1.193447,-2.214033 1.440039,-2.657122 0.198966,-0.353836 0.0074,-0.360186 -0.07832,-0.348192 -0.02187,0.0032 -0.03634,0.0074 -0.03704,0.0078 l -0.683321,0.03458 c -0.723194,0.06244 -0.70873,-0.666397 -0.707672,-0.705202 l 7.05e-4,-0.405342 c 7.06e-4,-0.43815 0.314678,-0.515408 0.409223,-0.528461 0.01693,-0.0025 0.02611,-0.0028 0.02646,-0.0028 l 1.079853,-0.194384 c 0.09595,-0.01341 0.12065,-0.118534 0.121708,-0.123825 0.04163,-0.174271 0.831497,-3.483327 1.101372,-4.28378 0.178506,-0.522111 0.359833,-0.657577 0.464608,-0.690386"
         style="display:inline;fill:#d2671f;fill-opacity:1;fill-rule:nonzero;stroke:#000000;stroke-width:0.05619432;stroke-miterlimit:4;stroke-dasharray:none;stroke-opacity:1"
         id="path43967"
         inkscape:connector-curvature="0" />
    </g>
  </g>
</svg>
