<?xml version="1.0" encoding="UTF-8" standalone="no"?>
<!-- Created with Inkscape (http://www.inkscape.org/) -->

<svg
   xmlns:dc="http://purl.org/dc/elements/1.1/"
   xmlns:cc="http://creativecommons.org/ns#"
   xmlns:rdf="http://www.w3.org/1999/02/22-rdf-syntax-ns#"
   xmlns:svg="http://www.w3.org/2000/svg"
   xmlns="http://www.w3.org/2000/svg"
   xmlns:sodipodi="http://sodipodi.sourceforge.net/DTD/sodipodi-0.dtd"
   xmlns:inkscape="http://www.inkscape.org/namespaces/inkscape"
   width="9.5160065mm"
   height="11.46332mm"
   viewBox="0 0 9.5160064 11.46332"
   version="1.1"
   id="svg82288"
   inkscape:version="0.92.3 (2405546, 2018-03-11)"
   sodipodi:docname="Gingerbreadman_f.svg">
  <defs
     id="defs82282">
    <clipPath
       clipPathUnits="userSpaceOnUse"
       id="clipPath81505">
      <path
         d="m 242.481,313.82 h 38.267 v 38.007 h -38.267 z"
         id="path81503"
         inkscape:connector-curvature="0" />
    </clipPath>
    <clipPath
       clipPathUnits="userSpaceOnUse"
       id="clipPath81389">
      <path
         d="m 262.283,333.073 c -0.286,-2.492 4.988,-2.514 5.493,-5.084 v 0 c 0.221,-1.129 -0.273,-1.624 -0.944,-1.881 v 0 l 5.796,2.226 c 0.67,0.259 1.166,0.753 0.944,1.881 v 0 c -0.505,2.571 -5.779,2.592 -5.493,5.084 v 0 z"
         id="path81387"
         inkscape:connector-curvature="0" />
    </clipPath>
    <clipPath
       clipPathUnits="userSpaceOnUse"
       id="clipPath81293">
      <path
         d="m 259.344,346.036 c 0.708,-0.143 1.571,-0.801 1.948,-1.571 v 0 c 0.711,-1.46 -0.838,-3.903 0.379,-5.53 v 0 l 5.795,2.227 c -1.216,1.626 0.333,4.07 -0.378,5.53 v 0 c -0.377,0.769 -1.239,1.428 -1.948,1.571 v 0 z"
         id="path81291"
         inkscape:connector-curvature="0" />
    </clipPath>
    <clipPath
       clipPathUnits="userSpaceOnUse"
       id="clipPath81245">
      <path
         d="m 261.671,338.935 c 2.194,-2.006 1.536,-5.107 0.612,-5.862 v 0 l 5.796,2.226 c 0.924,0.756 1.582,3.857 -0.613,5.863 v 0 z"
         id="path81243"
         inkscape:connector-curvature="0" />
    </clipPath>
    <clipPath
       clipPathUnits="userSpaceOnUse"
       id="clipPath81229">
      <path
         d="m 264.55,348.237 c -1.932,-0.742 -3.864,-1.484 -5.796,-2.227 v 0 c 0.17,0.065 0.373,0.071 0.59,0.026 v 0 l 5.796,2.227 c -0.093,0.019 -0.183,0.029 -0.269,0.029 v 0 c -0.116,0 -0.224,-0.018 -0.321,-0.055"
         id="path81227"
         inkscape:connector-curvature="0" />
    </clipPath>
    <clipPath
       clipPathUnits="userSpaceOnUse"
       id="clipPath81177">
      <path
         d="m 264.826,325.645 c -0.176,-0.067 -0.302,-0.157 -0.348,-0.29 v 0 c -0.303,-0.848 2.812,-4.761 3.497,-5.984 v 0 c 0.722,-1.284 0.068,-1.761 -0.371,-1.929 v 0 c 1.932,0.742 3.865,1.484 5.796,2.226 v 0 c 0.439,0.169 1.093,0.646 0.372,1.931 v 0 c -0.686,1.221 -3.801,5.135 -3.498,5.984 v 0 c 0.046,0.131 0.172,0.221 0.348,0.289 v 0 z"
         id="path81175"
         inkscape:connector-curvature="0" />
    </clipPath>
    <clipPath
       clipPathUnits="userSpaceOnUse"
       id="clipPath81165">
      <path
         d="m 262.956,342.483 -5.796,-2.226 0.07,0.025 5.796,2.226 z"
         id="path81163"
         inkscape:connector-curvature="0" />
    </clipPath>
    <clipPath
       clipPathUnits="userSpaceOnUse"
       id="clipPath81145">
      <path
         d="m 258.664,336.249 c -0.089,-0.001 -0.185,10e-4 -0.286,0.002 v 0 c -0.577,0.005 -1.319,0.011 -1.885,-0.205 v 0 l -5.796,-2.227 c 0.566,0.217 1.309,0.211 1.885,0.205 v 0 c 0.101,-10e-4 0.197,-0.003 0.286,-0.002 v 0 c 0.679,0 1.584,-0.058 2.175,0.17 v 0 l 5.796,2.226 c -0.591,-0.228 -1.496,-0.169 -2.175,-0.169"
         id="path81143"
         inkscape:connector-curvature="0" />
    </clipPath>
    <clipPath
       clipPathUnits="userSpaceOnUse"
       id="clipPath81133">
      <path
         d="m 258.948,322.996 c -0.851,-1.235 -1.652,-3.113 -2.389,-3.395 v 0 c 1.932,0.742 3.863,1.484 5.795,2.226 v 0 c 0.738,0.283 1.539,2.16 2.391,3.396 v 0 z"
         id="path81131"
         inkscape:connector-curvature="0" />
    </clipPath>
    <clipPath
       clipPathUnits="userSpaceOnUse"
       id="clipPath81121">
      <path
         d="m 242.481,313.82 h 38.267 v 38.007 h -38.267 z"
         id="path81119"
         inkscape:connector-curvature="0" />
    </clipPath>
  </defs>
  <sodipodi:namedview
     id="base"
     pagecolor="#ffffff"
     bordercolor="#666666"
     borderopacity="1.0"
     inkscape:pageopacity="0.0"
     inkscape:pageshadow="2"
     inkscape:zoom="8"
     inkscape:cx="-8.0679826"
     inkscape:cy="23.599283"
     inkscape:document-units="mm"
     inkscape:current-layer="layer1"
     showgrid="false"
     inkscape:window-width="1920"
     inkscape:window-height="1017"
     inkscape:window-x="-8"
     inkscape:window-y="-8"
     inkscape:window-maximized="1"
     inkscape:snap-bbox="true" />
  <metadata
     id="metadata82285">
    <rdf:RDF>
      <cc:Work
         rdf:about="">
        <dc:format>image/svg+xml</dc:format>
        <dc:type
           rdf:resource="http://purl.org/dc/dcmitype/StillImage" />
        <dc:title />
      </cc:Work>
    </rdf:RDF>
  </metadata>
  <g
     inkscape:label="Ebene 1"
     inkscape:groupmode="layer"
     id="layer1"
     transform="translate(323.49523,25.678696)">
    <g
       id="g1829"
       inkscape:label="Gingerbread"
       transform="matrix(1.0631995,0,0,1.0363622,20.439842,0.51964856)"
       style="stroke-width:0.95265752">
      <path
         sodipodi:nodetypes="ccccccccccccccccccccccccccccccccccccccccccccccccccc"
         inkscape:connector-curvature="0"
         id="path81125"
         style="display:inline;fill:none;fill-opacity:1;fill-rule:nonzero;stroke:#000000;stroke-width:0.1457566;stroke-linejoin:round;stroke-miterlimit:4;stroke-dasharray:none;stroke-opacity:1"
         d="m -314.6338,-15.584296 c -0.0621,-0.150283 -0.0943,-0.225955 -0.17829,-0.348016 -0.25693,-0.353772 -0.50514,-0.72496 -0.75114,-1.100596 -0.10971,-0.159299 -0.21124,-0.326791 -0.29894,-0.508106 -0.0473,-0.08684 -0.0923,-0.175955 -0.10169,-0.300662 0.0646,-0.02505 0.83262,-0.323302 0.91728,-0.357162 0.23632,-0.141194 0.23158,-0.257014 0.26828,-0.377196 0.0147,-0.129256 -0.007,-0.255163 -0.0533,-0.378913 -0.11472,-0.277252 -0.33939,-0.395619 -0.54899,-0.535764 -0.29014,-0.142387 -0.58092,-0.283484 -0.86575,-0.436491 -0.29253,-0.170929 -0.38723,-0.268607 -0.47032,-0.488457 -0.0265,-0.08404 -0.0261,-0.129934 -0.0143,-0.205598 0.0544,-0.06065 0.0853,-0.103699 0.11835,-0.148378 0.067,-0.108619 0.11009,-0.229153 0.14413,-0.354231 0.079,-0.29401 0.033,-0.587477 -0.0297,-0.858761 -0.0936,-0.293171 -0.24892,-0.528205 -0.4553,-0.715222 -0.18452,-0.297961 -0.15242,-0.431106 -0.16775,-0.600334 0.0144,-0.304135 0.0704,-0.615379 0.1033,-0.898118 0,-0.125236 0.009,-0.231967 -0.033,-0.360731 -0.11371,-0.318037 -0.35015,-0.466686 -0.55198,-0.581827 -0.19856,-0.07431 -0.25238,-0.07835 -0.34709,-0.0551 -0.66258,0.253074 -1.36859,0.517987 -1.94487,0.747674 -0.0381,0.01446 -0.0804,0.02893 -0.12629,0.04657 -0.0535,0.02908 -0.10834,0.04155 -0.15395,0.176372 -0.0148,0.06389 -0.0272,0.129986 -0.0149,0.218287 0.0191,0.201988 -0.002,0.409139 -0.0192,0.608215 -0.0333,0.190801 -0.0729,0.359684 -0.14131,0.547049 -0.004,0.01164 -0.016,0.0466 -0.0347,0.08752 -0.0376,0.09406 -0.13008,0.297461 -0.17344,0.383237 -0.25831,0.104592 -0.3914,0.21509 -0.53868,0.430966 -0.1383,0.229635 -0.16639,0.344026 -0.18428,0.598002 -0.0228,0.168727 0.0399,0.481065 0.0929,0.608849 -0.51932,0.197326 -1.17932,0.451622 -1.62365,0.622322 -0.21844,0.07525 -0.36857,0.214746 -0.34997,0.495943 0.005,0.123361 0.0662,0.282163 0.27319,0.533544 0.22886,0.252942 0.51162,0.53175 0.65278,0.742595 0.11395,0.183213 0.13502,0.361536 0.0269,0.533062 -0.21754,0.321345 -0.47674,0.607976 -0.71564,0.91153 -0.14699,0.194453 -0.29426,0.387459 -0.42226,0.684486 -0.0745,0.139423 -0.11027,0.283781 -0.003,0.446407 0.0907,0.12717 0.20404,0.232784 0.38007,0.278532 l 1.87809,0.382361 c 0.099,0.0097 0.20877,0.06477 0.29663,0.02762 l 1.20749,-0.45872 c 0.1101,0.212853 0.21716,0.431776 0.34213,0.6149 0.0931,0.13565 0.18236,0.216359 0.26764,0.238979 l 1.9673,0.396753 c 0.0869,-0.01345 0.17385,-0.05731 0.26077,-0.08617 l 1.92575,-0.746113 c 0.27362,-0.172279 0.20984,-0.312565 0.19064,-0.461102 z" />
      <path
         sodipodi:nodetypes="ccccccccccccccccccccccccccccccccccccccccccccccccccc"
         inkscape:connector-curvature="0"
         id="path81125-0"
         style="display:inline;fill:#45170a;fill-opacity:1;fill-rule:nonzero;stroke:none;stroke-width:0.1457566;stroke-linejoin:round;stroke-miterlimit:4;stroke-dasharray:none;stroke-opacity:1"
         d="m -314.6338,-15.584296 c -0.0621,-0.150283 -0.0943,-0.225955 -0.17829,-0.348016 -0.25693,-0.353772 -0.50514,-0.72496 -0.75114,-1.100596 -0.10971,-0.159299 -0.21124,-0.326791 -0.29894,-0.508106 -0.0473,-0.08684 -0.0923,-0.175955 -0.10169,-0.300662 0.0646,-0.02505 0.83262,-0.323302 0.91728,-0.357162 0.23632,-0.141194 0.23158,-0.257014 0.26828,-0.377196 0.0147,-0.129256 -0.007,-0.255163 -0.0533,-0.378913 -0.11472,-0.277252 -0.33939,-0.395619 -0.54899,-0.535764 -0.29014,-0.142387 -0.58092,-0.283484 -0.86575,-0.436491 -0.29253,-0.170929 -0.38723,-0.268607 -0.47032,-0.488457 -0.0265,-0.08404 -0.0261,-0.129934 -0.0143,-0.205598 0.0544,-0.06065 0.0853,-0.103699 0.11835,-0.148378 0.067,-0.108619 0.11009,-0.229153 0.14413,-0.354231 0.079,-0.29401 0.033,-0.587477 -0.0297,-0.858761 -0.0936,-0.293171 -0.24892,-0.528205 -0.4553,-0.715222 -0.18452,-0.297961 -0.15242,-0.431106 -0.16775,-0.600334 0.0144,-0.304135 0.0704,-0.615379 0.1033,-0.898118 0,-0.125236 0.009,-0.231967 -0.033,-0.360731 -0.11371,-0.318037 -0.35015,-0.466686 -0.55198,-0.581827 -0.19856,-0.07431 -0.25238,-0.07835 -0.34709,-0.0551 -0.66258,0.253074 -1.36859,0.517987 -1.94487,0.747674 -0.0381,0.01446 -0.0804,0.02893 -0.12629,0.04657 -0.0535,0.02908 -0.10834,0.04155 -0.15395,0.176372 -0.0148,0.06389 -0.0272,0.129986 -0.0149,0.218287 0.0191,0.201988 -0.002,0.409139 -0.0192,0.608215 -0.0333,0.190801 -0.0729,0.359684 -0.14131,0.547049 -0.004,0.01164 -0.016,0.0466 -0.0347,0.08752 -0.0376,0.09406 -0.13008,0.297461 -0.17344,0.383237 -0.25831,0.104592 -0.3914,0.21509 -0.53868,0.430966 -0.1383,0.229635 -0.16639,0.344026 -0.18428,0.598002 -0.0228,0.168727 0.0399,0.481065 0.0929,0.608849 -0.51932,0.197326 -1.17932,0.451622 -1.62365,0.622322 -0.21844,0.07525 -0.36857,0.214746 -0.34997,0.495943 0.005,0.123361 0.0662,0.282163 0.27319,0.533544 0.22886,0.252942 0.51162,0.53175 0.65278,0.742595 0.11395,0.183213 0.13502,0.361536 0.0269,0.533062 -0.21754,0.321345 -0.47674,0.607976 -0.71564,0.91153 -0.14699,0.194453 -0.29426,0.387459 -0.42226,0.684486 -0.0745,0.139423 -0.11027,0.283781 -0.003,0.446407 0.0907,0.12717 0.20404,0.232784 0.38007,0.278532 l 1.87809,0.382361 c 0.099,0.0097 0.20877,0.06477 0.29663,0.02762 l 1.20749,-0.45872 c 0.1101,0.212853 0.21716,0.431776 0.34213,0.6149 0.0931,0.13565 0.18236,0.216359 0.26764,0.238979 l 1.9673,0.396753 c 0.0869,-0.01345 0.17385,-0.05731 0.26077,-0.08617 l 1.92575,-0.746113 c 0.27362,-0.172279 0.20984,-0.312565 0.19064,-0.461102 z" />
      <path
         inkscape:connector-curvature="0"
         id="path81509"
         style="display:inline;opacity:1;fill:#8d341a;fill-opacity:1;fill-rule:nonzero;stroke:#000000;stroke-width:0.05049085;stroke-linejoin:round;stroke-miterlimit:4;stroke-dasharray:none;stroke-opacity:1"
         d="m -319.81272,-24.408926 c 0.24977,0.05045 0.55421,0.282928 0.68686,0.554214 0.25153,0.515055 -0.29528,1.377244 0.13405,1.950508 0.774,0.708025 0.54152,1.801989 0.2159,2.068689 -0.10089,0.879122 1.75966,0.886531 1.93781,1.793522 0.18592,0.945798 -1.05657,0.629356 -1.16381,0.928864 -0.10654,0.299156 0.99236,1.679928 1.23402,2.111022 0.34889,0.621242 -0.21344,0.706614 -0.24307,0.7112 -0.16475,-0.03316 -0.65934,-0.136877 -1.18886,-0.243416 -0.26494,-0.05362 -0.53869,-0.10795 -0.78422,-0.154517 -0.2794,-0.05644 -0.64135,-0.976489 -0.96838,-1.592086 -0.33761,0.490008 -0.65264,1.265414 -0.93839,1.207558 -0.28787,-0.05539 -0.5976,-0.116769 -0.88865,-0.175683 -0.58173,-0.117122 -1.08796,-0.222603 -1.1938,-0.244122 -0.18485,-0.0374 -0.50729,-0.304447 -0.4325,-0.561975 0.17745,-0.610306 0.75847,-1.131359 1.18851,-1.74625 0.43039,-0.614892 -0.9966,-1.205089 -0.94721,-1.906411 0.036,-0.51682 0.70979,-0.462139 1.06715,-0.462845 0.40182,-3.44e-4 1.02941,0.05786 0.97861,-0.400403 -0.10619,-0.221897 -0.16651,-0.464255 -0.16616,-0.709083 10e-4,-0.536928 0.29422,-0.944739 0.72637,-1.098903 0.18838,-0.379941 0.42545,-0.877711 0.3683,-1.622072 -0.0272,-0.351719 0.1531,-0.452967 0.37747,-0.407811" />
    </g>
  </g>
</svg>
