<?xml version="1.0" encoding="UTF-8" standalone="no"?>
<!-- Created with Inkscape (http://www.inkscape.org/) -->

<svg
   xmlns:dc="http://purl.org/dc/elements/1.1/"
   xmlns:cc="http://creativecommons.org/ns#"
   xmlns:rdf="http://www.w3.org/1999/02/22-rdf-syntax-ns#"
   xmlns:svg="http://www.w3.org/2000/svg"
   xmlns="http://www.w3.org/2000/svg"
   xmlns:sodipodi="http://sodipodi.sourceforge.net/DTD/sodipodi-0.dtd"
   xmlns:inkscape="http://www.inkscape.org/namespaces/inkscape"
   width="9.8455172mm"
   height="5.6043968mm"
   viewBox="0 0 9.8455174 5.6043969"
   version="1.1"
   id="svg100934"
   inkscape:version="0.92.3 (2405546, 2018-03-11)"
   sodipodi:docname="Gold_f.svg">
  <defs
     id="defs100928" />
  <sodipodi:namedview
     id="base"
     pagecolor="#ffffff"
     bordercolor="#666666"
     borderopacity="1.0"
     inkscape:pageopacity="0.0"
     inkscape:pageshadow="2"
     inkscape:zoom="17.5"
     inkscape:cx="1.1635987"
     inkscape:cy="0.95801937"
     inkscape:document-units="mm"
     inkscape:current-layer="layer1"
     showgrid="false"
     inkscape:window-width="1920"
     inkscape:window-height="1017"
     inkscape:window-x="-8"
     inkscape:window-y="-8"
     inkscape:window-maximized="1" />
  <metadata
     id="metadata100931">
    <rdf:RDF>
      <cc:Work
         rdf:about="">
        <dc:format>image/svg+xml</dc:format>
        <dc:type
           rdf:resource="http://purl.org/dc/dcmitype/StillImage" />
        <dc:title />
      </cc:Work>
    </rdf:RDF>
  </metadata>
  <g
     inkscape:label="Ebene 1"
     inkscape:groupmode="layer"
     id="layer1"
     transform="translate(63.910471,-146.03113)">
    <g
       transform="matrix(-1.0789866,0,0,1,14.883105,50.421885)"
       id="g100173"
       inkscape:label="Gold"
       style="stroke-width:0.96270221">
      <path
         inkscape:connector-curvature="0"
         id="path31616"
         style="display:inline;fill:none;fill-opacity:1;stroke:#000000;stroke-width:0.14729343;stroke-linecap:round;stroke-linejoin:round;stroke-miterlimit:10;stroke-dasharray:none;stroke-opacity:1"
         d="m 71.858334,97.870832 h 7.05e-4 -0.0014 z m 0.292805,0.287867 c -0.06491,-0.112536 -0.04198,-0.143228 -0.149577,-0.23495 -0.01411,-0.01235 -0.02928,-0.02011 -0.0448,-0.02787 0.0028,0.0014 0.0056,0.0011 0.0085,0.0025 l -3.784283,-2.05849 -0.244475,-0.132994 c -0.01446,-0.0071 -0.02928,-0.01235 -0.0441,-0.01623 -0.01094,-0.0028 -0.02117,-0.0028 -0.03175,-0.0039 -0.0088,-0.0011 -0.01587,-0.0028 -0.02434,-0.0032 -0.0254,-0.0014 -0.04833,-3.52e-4 -0.06456,0.0018 -0.01764,0.0025 -0.02752,0.0053 -0.02787,0.0053 l -1.285875,0.180975 -1.285522,0.180622 c -3.53e-4,0 -0.01023,0 -0.02716,0.0025 -0.01199,0.0014 -0.02681,0.0042 -0.04339,0.0088 -0.0049,0.0014 -0.01058,0.0039 -0.01517,0.0053 -0.01305,0.0039 -0.02681,0.0085 -0.04127,0.01517 -0.0011,7.05e-4 -0.0025,7.05e-4 -0.0039,0.0014 -0.01588,0.0074 -0.03245,0.01658 -0.04868,0.02822 -3.52e-4,0 -3.52e-4,3.53e-4 -7.05e-4,3.53e-4 l -0.0018,0.0014 c -0.01023,0.0074 -0.02011,0.01482 -0.03034,0.02399 -0.0085,0.0074 -0.01693,0.01623 -0.02505,0.0254 -7.06e-4,3.53e-4 -0.0011,0.0011 -0.0014,0.0014 -0.0194,0.02223 -0.03422,0.04127 -0.04586,0.05821 -0.0028,0.0039 -0.0042,0.0074 -0.0063,0.01058 -0.0035,0.0053 -0.0064,0.01023 -0.0092,0.01446 -0.0035,0.0056 -0.0074,0.01164 -0.01023,0.01658 -0.0032,0.006 -0.0049,0.01164 -0.0078,0.01729 -0.0078,0.01729 -0.01623,0.03634 -0.02364,0.05503 -0.01058,0.02752 -0.02328,0.05927 -0.04621,0.103364 l -0.809981,2.510719 4.020961,2.187572 2.478264,-0.34854 2.478267,-0.34818 z" />
      <path
         inkscape:connector-curvature="0"
         id="path31616-8"
         style="display:inline;fill:#b49d10;fill-opacity:1;stroke:none;stroke-width:0.14729343;stroke-linecap:round;stroke-linejoin:round;stroke-miterlimit:10;stroke-dasharray:none;stroke-opacity:1"
         d="m 71.858337,97.870832 h 7.15e-4 -0.0014 z m 0.292806,0.287867 c -0.06491,-0.112536 -0.04198,-0.143228 -0.149578,-0.23495 -0.01411,-0.01235 -0.02928,-0.02011 -0.0448,-0.02787 0.0028,0.0014 0.0056,0.0011 0.0085,0.0025 l -3.784283,-2.05849 -0.244475,-0.132994 c -0.01446,-0.0071 -0.02928,-0.01235 -0.0441,-0.01623 -0.01094,-0.0028 -0.02117,-0.0028 -0.03175,-0.0039 -0.0088,-0.0011 -0.01587,-0.0028 -0.02434,-0.0032 -0.0254,-0.0014 -0.04833,-3.52e-4 -0.06456,0.0018 -0.01764,0.0025 -0.02752,0.0053 -0.02787,0.0053 l -1.285877,0.180975 -1.285522,0.180622 c -3.51e-4,0 -0.01023,0 -0.02716,0.0025 -0.01199,0.0014 -0.02681,0.0042 -0.04339,0.0088 -0.0049,0.0014 -0.01058,0.0039 -0.01517,0.0053 -0.01305,0.0039 -0.02681,0.0085 -0.04127,0.01517 -0.0011,7.04e-4 -0.0025,7.04e-4 -0.0039,0.0014 -0.01588,0.0074 -0.03245,0.01658 -0.04868,0.02822 -3.52e-4,0 -3.52e-4,3.52e-4 -7.04e-4,3.52e-4 l -0.0018,0.0014 c -0.01023,0.0074 -0.02011,0.01482 -0.03034,0.02399 -0.0085,0.0074 -0.01693,0.01623 -0.02505,0.0254 -7.07e-4,3.52e-4 -0.0011,0.0011 -0.0014,0.0014 -0.0194,0.02223 -0.03422,0.04127 -0.04586,0.05821 -0.0028,0.0039 -0.0042,0.0074 -0.0063,0.01058 -0.0035,0.0053 -0.0064,0.01023 -0.0092,0.01446 -0.0035,0.0056 -0.0074,0.01164 -0.01023,0.01658 -0.0032,0.006 -0.0049,0.01164 -0.0078,0.01729 -0.0078,0.01729 -0.01623,0.03634 -0.02364,0.05503 -0.01058,0.02752 -0.02328,0.05927 -0.04621,0.103364 l -0.809981,2.510719 4.020961,2.187573 2.478264,-0.34854 2.478267,-0.34818 z" />
      <path
         d="m 71.792534,97.872547 c 0.04586,-0.0067 0.1397,-0.0095 0.209197,0.05151 0.107244,0.09137 0.08467,0.122061 0.149578,0.23495 l 0.800452,2.284233 -2.477911,0.34819 -2.478616,0.34854 0.809977,-2.51071 c 0.06844,-0.131586 0.04551,-0.155575 0.150637,-0.277636 0.07197,-0.08043 0.164747,-0.103717 0.210255,-0.110067 0.01693,-0.0021 0.02681,-0.0021 0.02716,-0.0021 l 1.285522,-0.180622 1.285875,-0.180622 c 3.46e-4,-3.53e-4 0.01023,-0.0032 0.02787,-0.0056"
         style="fill:#ffde17;fill-opacity:1;fill-rule:nonzero;stroke:#000000;stroke-width:0.05102322;stroke-miterlimit:4;stroke-dasharray:none;stroke-opacity:1"
         id="path31802"
         inkscape:connector-curvature="0" />
    </g>
  </g>
</svg>
