<?xml version="1.0" encoding="UTF-8" standalone="no"?>
<!-- Created with Inkscape (http://www.inkscape.org/) -->

<svg
   xmlns:dc="http://purl.org/dc/elements/1.1/"
   xmlns:cc="http://creativecommons.org/ns#"
   xmlns:rdf="http://www.w3.org/1999/02/22-rdf-syntax-ns#"
   xmlns:svg="http://www.w3.org/2000/svg"
   xmlns="http://www.w3.org/2000/svg"
   xmlns:sodipodi="http://sodipodi.sourceforge.net/DTD/sodipodi-0.dtd"
   xmlns:inkscape="http://www.inkscape.org/namespaces/inkscape"
   width="9.0319901mm"
   height="10.905896mm"
   viewBox="0 0 9.03199 10.905896"
   version="1.1"
   id="svg167544"
   inkscape:version="0.92.3 (2405546, 2018-03-11)"
   sodipodi:docname="Abbot_green_f.svg">
  <defs
     id="defs167538">
    <clipPath
       clipPathUnits="userSpaceOnUse"
       id="clipPath144500">
      <path
         d="m 457.117,440.711 h 25.023 v 32.707 h -25.023 z"
         id="path144498"
         inkscape:connector-curvature="0" />
    </clipPath>
    <clipPath
       clipPathUnits="userSpaceOnUse"
       id="clipPath144510">
      <path
         d="M 0,0 H 576 V 903 H 0 Z"
         id="path144508"
         inkscape:connector-curvature="0" />
    </clipPath>
    <clipPath
       clipPathUnits="userSpaceOnUse"
       id="clipPath144522">
      <path
         d="M 0,0 H 576 V 903 H 0 Z"
         id="path144520"
         inkscape:connector-curvature="0" />
    </clipPath>
    <clipPath
       clipPathUnits="userSpaceOnUse"
       id="clipPath144532">
      <path
         d="m 470.699,454.855 h 9.691 v 3.453 h -9.691 z"
         id="path144530"
         inkscape:connector-curvature="0" />
    </clipPath>
    <clipPath
       clipPathUnits="userSpaceOnUse"
       id="clipPath144542">
      <path
         d="M 0,0 H 576 V 903 H 0 Z"
         id="path144540"
         inkscape:connector-curvature="0" />
    </clipPath>
    <clipPath
       clipPathUnits="userSpaceOnUse"
       id="clipPath144554">
      <path
         d="M 0,0 H 576 V 903 H 0 Z"
         id="path144552"
         inkscape:connector-curvature="0" />
    </clipPath>
    <clipPath
       clipPathUnits="userSpaceOnUse"
       id="clipPath144564">
      <path
         d="m 470,454 h 11 v 5 h -11 z"
         id="path144562"
         inkscape:connector-curvature="0" />
    </clipPath>
    <clipPath
       clipPathUnits="userSpaceOnUse"
       id="clipPath144574">
      <path
         d="M 0,0 H 576 V 903 H 0 Z"
         id="path144572"
         inkscape:connector-curvature="0" />
    </clipPath>
    <clipPath
       clipPathUnits="userSpaceOnUse"
       id="clipPath144584">
      <path
         d="m 470,454 h 11 v 5 h -11 z"
         id="path144582"
         inkscape:connector-curvature="0" />
    </clipPath>
    <clipPath
       clipPathUnits="userSpaceOnUse"
       id="clipPath144590">
      <path
         d="m 475.613,457.527 -4.914,-2.672 c 0.239,0.125 0.672,0.055 1.071,0.028 0.628,-0.035 2.214,-0.059 3.707,0.754 l 4.914,2.672 c -1.493,-0.813 -3.078,-0.789 -3.711,-0.754 -0.395,0.027 -0.832,0.101 -1.067,-0.028"
         id="path144588"
         inkscape:connector-curvature="0" />
    </clipPath>
    <clipPath
       clipPathUnits="userSpaceOnUse"
       id="clipPath144600">
      <path
         d="M 0,0 H 576 V 903 H 0 Z"
         id="path144598"
         inkscape:connector-curvature="0" />
    </clipPath>
    <clipPath
       clipPathUnits="userSpaceOnUse"
       id="clipPath144612">
      <path
         d="M 0,0 H 576 V 903 H 0 Z"
         id="path144610"
         inkscape:connector-curvature="0" />
    </clipPath>
    <clipPath
       clipPathUnits="userSpaceOnUse"
       id="clipPath144622">
      <path
         d="m 470.699,454.855 h 9.691 v 3.453 h -9.691 z"
         id="path144620"
         inkscape:connector-curvature="0" />
    </clipPath>
    <clipPath
       clipPathUnits="userSpaceOnUse"
       id="clipPath144632">
      <path
         d="M 0,0 H 576 V 903 H 0 Z"
         id="path144630"
         inkscape:connector-curvature="0" />
    </clipPath>
    <clipPath
       clipPathUnits="userSpaceOnUse"
       id="clipPath144644">
      <path
         d="M 0,0 H 576 V 903 H 0 Z"
         id="path144642"
         inkscape:connector-curvature="0" />
    </clipPath>
    <clipPath
       clipPathUnits="userSpaceOnUse"
       id="clipPath144664">
      <path
         d="m 457.117,461.543 h 9.004 v 11.727 h -9.004 z"
         id="path144662"
         inkscape:connector-curvature="0" />
    </clipPath>
    <clipPath
       clipPathUnits="userSpaceOnUse"
       id="clipPath144674">
      <path
         d="M 0,0 H 576 V 903 H 0 Z"
         id="path144672"
         inkscape:connector-curvature="0" />
    </clipPath>
    <clipPath
       clipPathUnits="userSpaceOnUse"
       id="clipPath144686">
      <path
         d="M 0,0 H 576 V 903 H 0 Z"
         id="path144684"
         inkscape:connector-curvature="0" />
    </clipPath>
    <clipPath
       clipPathUnits="userSpaceOnUse"
       id="clipPath144696">
      <path
         d="m 457,461 h 10 v 13 h -10 z"
         id="path144694"
         inkscape:connector-curvature="0" />
    </clipPath>
    <clipPath
       clipPathUnits="userSpaceOnUse"
       id="clipPath144706">
      <path
         d="M 0,0 H 576 V 903 H 0 Z"
         id="path144704"
         inkscape:connector-curvature="0" />
    </clipPath>
    <clipPath
       clipPathUnits="userSpaceOnUse"
       id="clipPath144716">
      <path
         d="m 457,461 h 10 v 13 h -10 z"
         id="path144714"
         inkscape:connector-curvature="0" />
    </clipPath>
    <clipPath
       clipPathUnits="userSpaceOnUse"
       id="clipPath144722">
      <path
         d="m 462.496,473.27 -4.91,-2.668 c -0.402,-0.219 -0.637,-0.7 -0.32,-1.586 0.464,-1.321 2.304,-4.95 3.339,-6.02 0.813,-0.832 0.672,-1.277 0.348,-1.453 l 4.914,2.672 c 0.321,0.176 0.461,0.621 -0.347,1.453 -1.04,1.07 -2.879,4.699 -3.344,6.02 -0.317,0.886 -0.078,1.367 0.32,1.582"
         id="path144720"
         inkscape:connector-curvature="0" />
    </clipPath>
    <clipPath
       clipPathUnits="userSpaceOnUse"
       id="clipPath144732">
      <path
         d="M 0,0 H 576 V 903 H 0 Z"
         id="path144730"
         inkscape:connector-curvature="0" />
    </clipPath>
    <clipPath
       clipPathUnits="userSpaceOnUse"
       id="clipPath144744">
      <path
         d="M 0,0 H 576 V 903 H 0 Z"
         id="path144742"
         inkscape:connector-curvature="0" />
    </clipPath>
    <clipPath
       clipPathUnits="userSpaceOnUse"
       id="clipPath144754">
      <path
         d="m 457.117,461.543 h 9.004 v 11.727 h -9.004 z"
         id="path144752"
         inkscape:connector-curvature="0" />
    </clipPath>
    <clipPath
       clipPathUnits="userSpaceOnUse"
       id="clipPath144764">
      <path
         d="M 0,0 H 576 V 903 H 0 Z"
         id="path144762"
         inkscape:connector-curvature="0" />
    </clipPath>
    <clipPath
       clipPathUnits="userSpaceOnUse"
       id="clipPath144776">
      <path
         d="M 0,0 H 576 V 903 H 0 Z"
         id="path144774"
         inkscape:connector-curvature="0" />
    </clipPath>
    <clipPath
       clipPathUnits="userSpaceOnUse"
       id="clipPath144810">
      <path
         d="m 457.48,450.113 h 11.746 v 13.688 H 457.48 Z"
         id="path144808"
         inkscape:connector-curvature="0" />
    </clipPath>
    <clipPath
       clipPathUnits="userSpaceOnUse"
       id="clipPath144820">
      <path
         d="M 0,0 H 576 V 903 H 0 Z"
         id="path144818"
         inkscape:connector-curvature="0" />
    </clipPath>
    <clipPath
       clipPathUnits="userSpaceOnUse"
       id="clipPath144832">
      <path
         d="M 0,0 H 576 V 903 H 0 Z"
         id="path144830"
         inkscape:connector-curvature="0" />
    </clipPath>
    <clipPath
       clipPathUnits="userSpaceOnUse"
       id="clipPath144842">
      <path
         d="m 457,450 h 13 v 14 h -13 z"
         id="path144840"
         inkscape:connector-curvature="0" />
    </clipPath>
    <clipPath
       clipPathUnits="userSpaceOnUse"
       id="clipPath144852">
      <path
         d="M 0,0 H 576 V 903 H 0 Z"
         id="path144850"
         inkscape:connector-curvature="0" />
    </clipPath>
    <clipPath
       clipPathUnits="userSpaceOnUse"
       id="clipPath144862">
      <path
         d="m 457,450 h 13 v 14 h -13 z"
         id="path144860"
         inkscape:connector-curvature="0" />
    </clipPath>
    <clipPath
       clipPathUnits="userSpaceOnUse"
       id="clipPath144868">
      <path
         d="m 463.199,463.801 -4.914,-2.672 c -0.308,-0.184 -1.644,-0.91 0.008,-2.598 1.652,-1.676 3.613,-2.199 4.336,-2.363 0.726,-0.152 1.601,-0.199 1.09,-1.234 -0.52,-1.039 -0.098,-2.664 0.367,-3.344 0.465,-0.68 0.07,-1.438 0.051,-1.477 l 4.914,2.672 c 0.019,0.039 0.414,0.797 -0.055,1.477 -0.465,0.679 -0.883,2.301 -0.363,3.343 0.512,1.036 -0.363,1.083 -1.094,1.235 -0.719,0.164 -2.684,0.687 -4.336,2.363 -1.652,1.688 -0.316,2.414 -0.004,2.598"
         id="path144866"
         inkscape:connector-curvature="0" />
    </clipPath>
    <clipPath
       clipPathUnits="userSpaceOnUse"
       id="clipPath144878">
      <path
         d="M 0,0 H 576 V 903 H 0 Z"
         id="path144876"
         inkscape:connector-curvature="0" />
    </clipPath>
    <clipPath
       clipPathUnits="userSpaceOnUse"
       id="clipPath144890">
      <path
         d="M 0,0 H 576 V 903 H 0 Z"
         id="path144888"
         inkscape:connector-curvature="0" />
    </clipPath>
    <clipPath
       clipPathUnits="userSpaceOnUse"
       id="clipPath144900">
      <path
         d="m 457.48,450.113 h 11.746 v 13.688 H 457.48 Z"
         id="path144898"
         inkscape:connector-curvature="0" />
    </clipPath>
    <clipPath
       clipPathUnits="userSpaceOnUse"
       id="clipPath144910">
      <path
         d="M 0,0 H 576 V 903 H 0 Z"
         id="path144908"
         inkscape:connector-curvature="0" />
    </clipPath>
    <clipPath
       clipPathUnits="userSpaceOnUse"
       id="clipPath144922">
      <path
         d="M 0,0 H 576 V 903 H 0 Z"
         id="path144920"
         inkscape:connector-curvature="0" />
    </clipPath>
    <clipPath
       clipPathUnits="userSpaceOnUse"
       id="clipPath144978">
      <path
         d="m 462.535,441.086 h 8.691 v 7.344 h -8.691 z"
         id="path144976"
         inkscape:connector-curvature="0" />
    </clipPath>
    <clipPath
       clipPathUnits="userSpaceOnUse"
       id="clipPath144988">
      <path
         d="M 0,0 H 576 V 903 H 0 Z"
         id="path144986"
         inkscape:connector-curvature="0" />
    </clipPath>
    <clipPath
       clipPathUnits="userSpaceOnUse"
       id="clipPath145000">
      <path
         d="M 0,0 H 576 V 903 H 0 Z"
         id="path144998"
         inkscape:connector-curvature="0" />
    </clipPath>
    <clipPath
       clipPathUnits="userSpaceOnUse"
       id="clipPath145010">
      <path
         d="m 462,441 h 10 v 8 h -10 z"
         id="path145008"
         inkscape:connector-curvature="0" />
    </clipPath>
    <clipPath
       clipPathUnits="userSpaceOnUse"
       id="clipPath145020">
      <path
         d="M 0,0 H 576 V 903 H 0 Z"
         id="path145018"
         inkscape:connector-curvature="0" />
    </clipPath>
    <clipPath
       clipPathUnits="userSpaceOnUse"
       id="clipPath145030">
      <path
         d="m 462,441 h 10 v 8 h -10 z"
         id="path145028"
         inkscape:connector-curvature="0" />
    </clipPath>
    <clipPath
       clipPathUnits="userSpaceOnUse"
       id="clipPath145036">
      <path
         d="m 467.449,448.43 -4.914,-2.672 c 3.25,-4.035 3.25,-4.028 3.781,-4.672 l 4.911,2.672 c -0.528,0.644 -0.528,0.637 -3.778,4.672"
         id="path145034"
         inkscape:connector-curvature="0" />
    </clipPath>
    <clipPath
       clipPathUnits="userSpaceOnUse"
       id="clipPath145046">
      <path
         d="M 0,0 H 576 V 903 H 0 Z"
         id="path145044"
         inkscape:connector-curvature="0" />
    </clipPath>
    <clipPath
       clipPathUnits="userSpaceOnUse"
       id="clipPath145058">
      <path
         d="M 0,0 H 576 V 903 H 0 Z"
         id="path145056"
         inkscape:connector-curvature="0" />
    </clipPath>
    <clipPath
       clipPathUnits="userSpaceOnUse"
       id="clipPath145068">
      <path
         d="m 462.535,441.086 h 8.691 v 7.344 h -8.691 z"
         id="path145066"
         inkscape:connector-curvature="0" />
    </clipPath>
    <clipPath
       clipPathUnits="userSpaceOnUse"
       id="clipPath145078">
      <path
         d="M 0,0 H 576 V 903 H 0 Z"
         id="path145076"
         inkscape:connector-curvature="0" />
    </clipPath>
    <clipPath
       clipPathUnits="userSpaceOnUse"
       id="clipPath145090">
      <path
         d="M 0,0 H 576 V 903 H 0 Z"
         id="path145088"
         inkscape:connector-curvature="0" />
    </clipPath>
    <clipPath
       clipPathUnits="userSpaceOnUse"
       id="clipPath145102">
      <path
         d="m 462.293,445.758 h 6.758 v 7.027 h -6.758 z"
         id="path145100"
         inkscape:connector-curvature="0" />
    </clipPath>
    <clipPath
       clipPathUnits="userSpaceOnUse"
       id="clipPath145112">
      <path
         d="M 0,0 H 576 V 903 H 0 Z"
         id="path145110"
         inkscape:connector-curvature="0" />
    </clipPath>
    <clipPath
       clipPathUnits="userSpaceOnUse"
       id="clipPath145124">
      <path
         d="M 0,0 H 576 V 903 H 0 Z"
         id="path145122"
         inkscape:connector-curvature="0" />
    </clipPath>
    <clipPath
       clipPathUnits="userSpaceOnUse"
       id="clipPath145134">
      <path
         d="m 462,445 h 8 v 8 h -8 z"
         id="path145132"
         inkscape:connector-curvature="0" />
    </clipPath>
    <clipPath
       clipPathUnits="userSpaceOnUse"
       id="clipPath145144">
      <path
         d="M 0,0 H 576 V 903 H 0 Z"
         id="path145142"
         inkscape:connector-curvature="0" />
    </clipPath>
    <clipPath
       clipPathUnits="userSpaceOnUse"
       id="clipPath145154">
      <path
         d="m 462,445 h 8 v 8 h -8 z"
         id="path145152"
         inkscape:connector-curvature="0" />
    </clipPath>
    <clipPath
       clipPathUnits="userSpaceOnUse"
       id="clipPath145160">
      <path
         d="m 469.051,452.785 -4.914,-2.672 c -0.055,-0.093 -1.078,-1.828 -1.606,-2.781 -0.523,-0.965 -0.019,-1.543 0.004,-1.574 l 4.914,2.672 c -0.027,0.031 -0.531,0.609 -0.004,1.574 0.528,0.953 1.551,2.687 1.606,2.781"
         id="path145158"
         inkscape:connector-curvature="0" />
    </clipPath>
    <clipPath
       clipPathUnits="userSpaceOnUse"
       id="clipPath145170">
      <path
         d="M 0,0 H 576 V 903 H 0 Z"
         id="path145168"
         inkscape:connector-curvature="0" />
    </clipPath>
    <clipPath
       clipPathUnits="userSpaceOnUse"
       id="clipPath145182">
      <path
         d="M 0,0 H 576 V 903 H 0 Z"
         id="path145180"
         inkscape:connector-curvature="0" />
    </clipPath>
    <clipPath
       clipPathUnits="userSpaceOnUse"
       id="clipPath145192">
      <path
         d="m 462.293,445.758 h 6.758 v 7.027 h -6.758 z"
         id="path145190"
         inkscape:connector-curvature="0" />
    </clipPath>
    <clipPath
       clipPathUnits="userSpaceOnUse"
       id="clipPath145202">
      <path
         d="M 0,0 H 576 V 903 H 0 Z"
         id="path145200"
         inkscape:connector-curvature="0" />
    </clipPath>
    <clipPath
       clipPathUnits="userSpaceOnUse"
       id="clipPath145214">
      <path
         d="M 0,0 H 576 V 903 H 0 Z"
         id="path145212"
         inkscape:connector-curvature="0" />
    </clipPath>
  </defs>
  <sodipodi:namedview
     id="base"
     pagecolor="#ffffff"
     bordercolor="#666666"
     borderopacity="1.0"
     inkscape:pageopacity="0.0"
     inkscape:pageshadow="2"
     inkscape:zoom="10.66"
     inkscape:cx="1.577457"
     inkscape:cy="20.088149"
     inkscape:document-units="mm"
     inkscape:current-layer="layer1"
     showgrid="false"
     inkscape:window-width="1920"
     inkscape:window-height="1017"
     inkscape:window-x="-8"
     inkscape:window-y="-8"
     inkscape:window-maximized="1" />
  <metadata
     id="metadata167541">
    <rdf:RDF>
      <cc:Work
         rdf:about="">
        <dc:format>image/svg+xml</dc:format>
        <dc:type
           rdf:resource="http://purl.org/dc/dcmitype/StillImage" />
        <dc:title />
      </cc:Work>
    </rdf:RDF>
  </metadata>
  <g
     inkscape:label="Ebene 1"
     inkscape:groupmode="layer"
     id="layer1"
     transform="translate(-112.73949,-137.23509)">
    <g
       id="g145226"
       transform="matrix(-0.35468391,0,0,0.32889534,283.82675,-7.6377175)"
       style="fill:#00a14b;fill-opacity:1;stroke:#231f20;stroke-width:0.15517659;stroke-miterlimit:4;stroke-dasharray:none;stroke-opacity:1"
       inkscape:label="Abbot_green">
      <path
         inkscape:connector-curvature="0"
         id="path144492"
         style="display:inline;fill:none;fill-opacity:1;stroke:#231f20;stroke-width:0.44796264;stroke-linecap:round;stroke-linejoin:round;stroke-miterlimit:4;stroke-dasharray:none;stroke-opacity:1"
         d="m 482.00399,468.895 c -0.465,-1.184 -2.293,-4.305 -3.328,-5.067 -1.02,-0.777 -0.504,-1.355 -0.043,-1.527 0.473,-0.18 2.062,-0.735 2.379,-1.008 0.308,-0.27 1.652,-1.379 0.008,-2.586 -0.21618,-0.12177 -0.41813,-0.26725 -0.629,-0.398 l -4.582,-2.493 c 0.121,-0.988 -0.203,-2 -0.563,-2.433 -0.469,-0.543 -0.074,-1.418 -0.054,-1.461 0.054,-0.109 1.089,-2.129 1.617,-3.238 0.527,-1.102 0.027,-1.539 0.004,-1.567 -3.235,-3.125 -3.235,-3.113 -3.762,-3.617 l -0.152,-0.113 -4.915,-2.672 -0.179,-0.008 -0.574,0.082 -0.579,0.078 -0.183,0.059 -0.145,0.156 c -0.535,0.656 -0.535,0.645 -3.785,4.68 0,0.004 -0.012,0.019 -0.031,0.039 -0.004,0.008 -0.004,0.008 -0.008,0.012 -0.008,0.011 -0.016,0.031 -0.027,0.042 -0.008,0.012 -0.016,0.024 -0.024,0.04 -0.004,0.007 -0.004,0.011 -0.011,0.019 -0.008,0.016 -0.016,0.035 -0.024,0.051 -0.008,0.023 -0.019,0.047 -0.031,0.074 -0.004,0.012 -0.008,0.016 -0.012,0.024 -0.004,0.011 -0.004,0.031 -0.008,0.042 -0.015,0.043 -0.027,0.09 -0.039,0.141 -0.004,0.031 -0.007,0.063 -0.011,0.098 -0.008,0.051 -0.012,0.105 -0.008,0.164 0,0.039 0,0.078 0.004,0.117 0.008,0.066 0.023,0.137 0.039,0.211 0.011,0.039 0.015,0.078 0.027,0.117 0.039,0.117 0.09,0.242 0.164,0.371 0.52401,0.961 1.54701,2.696 1.602,2.789 0.004,0.004 0.023,0.047 0.039,0.086 0.008,0.012 0.012,0.028 0.019,0.043 0.024,0.059 0.047,0.137 0.067,0.223 0.008,0.019 0.011,0.043 0.015,0.066 0.02,0.098 0.036,0.207 0.036,0.324 -0.004,0.02 -0.004,0.036 -0.004,0.051 -0.008,0.117 -0.028,0.242 -0.071,0.367 -0.004,0.016 -0.004,0.032 -0.011,0.047 -0.004,0.016 -0.012,0.028 -0.016,0.035 -0.035,0.079 -0.07,0.157 -0.125,0.231 -0.043,0.062 -0.086,0.137 -0.125,0.211 -0.008,0.012 -0.012,0.031 -0.02,0.043 -0.14,0.269 -0.261,0.609 -0.343,0.98 -0.012,0.051 -0.024,0.098 -0.032,0.145 -0.039,0.207 -0.074,0.418 -0.082,0.629 -0.011,0.211 0.004,0.414 0.032,0.613 0.007,0.051 0.015,0.102 0.023,0.152 0.039,0.2 0.09,0.395 0.176,0.571 0.074,0.148 0.113,0.269 0.137,0.379 0.007,0.039 0.003,0.07 0.007,0.105 0.004,0.066 0.004,0.129 -0.015,0.184 -0.012,0.05 -0.024,0.101 -0.055,0.14 v 0.004 c -0.039,0.055 -0.086,0.098 -0.144,0.137 -0.012,0.008 -0.024,0.012 -0.032,0.016 -0.039,0.023 -0.082,0.043 -0.125,0.062 -0.109,0.047 -0.234,0.082 -0.371,0.113 -0.043,0.012 -0.09,0.02 -0.137,0.028 -0.113,0.023 -0.234,0.047 -0.347,0.07 -0.094,0.02 -0.207,0.047 -0.336,0.082 h -0.008 c -0.129,0.035 -0.269,0.074 -0.426,0.125 -0.027,0.008 -0.062,0.02 -0.09,0.031 -0.132,0.043 -0.273,0.09 -0.425,0.149 -0.055,0.019 -0.11,0.047 -0.164,0.07 -0.137,0.055 -0.27,0.109 -0.411,0.176 -0.011,0.004 -0.023,0.008 -0.031,0.012 -0.074,0.035 -0.152,0.082 -0.222,0.117 -0.118,0.058 -0.235,0.117 -0.356,0.183 -0.098,0.059 -0.199,0.121 -0.301,0.184 -0.109,0.07 -0.218,0.133 -0.328,0.207 -0.015,0.012 -0.031,0.019 -0.047,0.027 -0.039,0.032 -0.082,0.071 -0.125,0.102 -0.195,0.14 -0.394,0.297 -0.586,0.465 -0.043,0.035 -0.082,0.058 -0.121,0.093 -0.121,0.11 -0.242,0.227 -0.363,0.348 -0.07,0.07 -0.137,0.145 -0.199,0.211 -0.008,0.012 -0.016,0.02 -0.024,0.031 -0.066,0.078 -0.125,0.153 -0.175,0.223 -0.02,0.023 -0.04,0.047 -0.059,0.07 -0.004,0.008 -0.008,0.012 -0.012,0.02 -0.031,0.047 -0.058,0.09 -0.086,0.136 -0.019,0.036 -0.043,0.071 -0.062,0.106 -0.004,0.008 -0.008,0.012 -0.012,0.023 -0.023,0.043 -0.039,0.086 -0.059,0.129 -0.011,0.032 -0.031,0.063 -0.039,0.09 -0.003,0.008 -0.003,0.012 -0.003,0.016 -0.04,0.105 -0.063,0.203 -0.071,0.293 -0.004,0.023 -0.004,0.043 -0.004,0.062 -0.004,0.078 0,0.156 0.008,0.231 0.004,0.008 0.004,0.019 0.004,0.031 0.016,0.078 0.043,0.148 0.074,0.219 0.008,0.015 0.016,0.031 0.02,0.047 0.035,0.058 0.066,0.117 0.109,0.168 0.004,0.003 0.004,0.007 0.008,0.015 0.047,0.055 0.094,0.106 0.144,0.149 0.008,0.011 0.02,0.023 0.032,0.035 0.047,0.039 0.093,0.078 0.136,0.109 l 0.008,0.008 c 0.047,0.031 0.09,0.062 0.133,0.09 0.016,0.008 0.027,0.015 0.039,0.023 0.035,0.02 0.063,0.035 0.086,0.051 0.004,0.004 0.008,0.004 0.012,0.008 l 2.656,1.44499 c -0.016,0.024 -0.035,0.051 -0.051,0.078 -0.031,0.035 -0.062,0.074 -0.093,0.114 -0.063,0.078 -0.129,0.15201 -0.208,0.234 -0.039,0.043 -0.078,0.086 -0.121,0.13301 -0.046,0.051 -0.101,0.133 -0.148,0.191 -0.078,0.098 -0.156,0.192 -0.238,0.309 -0.024,0.031 -0.039,0.051 -0.063,0.082 -0.101,0.148 -0.211,0.308 -0.32,0.476 -0.008,0.016 -0.016,0.032 -0.027,0.047 -0.137,0.219 -0.278,0.453 -0.422,0.696 -0.032,0.058 -0.067,0.117 -0.102,0.175 -0.144,0.254 -0.289,0.512 -0.43,0.774 0,0.004 0,0.004 -0.004,0.008 -0.046,0.089 -0.093,0.175 -0.14,0.265 -0.11,0.215 -0.223,0.422 -0.324,0.633 -0.036,0.062 -0.063,0.125 -0.098,0.187 -0.109,0.227 -0.219,0.446 -0.316,0.657 -0.036,0.074 -0.063,0.14 -0.098,0.215 -0.082,0.179 -0.164,0.359 -0.231,0.515 -0.043,0.098 -0.07,0.172 -0.105,0.262 -0.039,0.094 -0.09,0.207 -0.117,0.289 -0.012,0.031 -0.024,0.062 -0.031,0.09 -0.321,0.887 -0.082,1.375 0.316,1.594 l 4.91,2.671 c -0.008,-0.007 -0.016,-0.015 -0.027,-0.023 0.203,0.117 0.445,0.172 0.687,0.168 l 8.92601,-1.25398 8.926,-1.258 c 0.703,-0.179 1.449,-0.824 0.992,-2.011 z"
         sodipodi:nodetypes="ccccccccccccccccccccccccccccccccccccccccccccccccccccccccccccccccccccccccccccccccccsccccccccccccccccccccccccccccccccccccccccccccccccacccccccc" />
      <path
         inkscape:connector-curvature="0"
         id="path144492-5"
         style="display:inline;fill:#006a32;fill-opacity:1;stroke:none;stroke-width:0.44796264;stroke-linecap:round;stroke-linejoin:round;stroke-miterlimit:4;stroke-dasharray:none;stroke-opacity:1"
         d="m 482.00399,468.895 c -0.465,-1.184 -2.293,-4.305 -3.328,-5.067 -1.02,-0.777 -0.504,-1.355 -0.043,-1.527 0.473,-0.18 2.062,-0.735 2.379,-1.008 0.308,-0.27 1.652,-1.379 0.008,-2.586 -0.21618,-0.12177 -0.41813,-0.26725 -0.629,-0.398 l -4.582,-2.493 c 0.121,-0.988 -0.203,-2 -0.563,-2.433 -0.469,-0.543 -0.074,-1.418 -0.054,-1.461 0.054,-0.109 1.089,-2.129 1.617,-3.238 0.527,-1.102 0.027,-1.539 0.004,-1.567 -3.235,-3.125 -3.235,-3.113 -3.762,-3.617 l -0.152,-0.113 -4.915,-2.672 -0.179,-0.008 -0.574,0.082 -0.579,0.078 -0.183,0.059 -0.145,0.156 c -0.535,0.656 -0.535,0.645 -3.785,4.68 0,0.004 -0.012,0.019 -0.031,0.039 -0.004,0.008 -0.004,0.008 -0.008,0.012 -0.008,0.011 -0.016,0.031 -0.027,0.042 -0.008,0.012 -0.016,0.024 -0.024,0.04 -0.004,0.007 -0.004,0.011 -0.011,0.019 -0.008,0.016 -0.016,0.035 -0.024,0.051 -0.008,0.023 -0.019,0.047 -0.031,0.074 -0.004,0.012 -0.008,0.016 -0.012,0.024 -0.004,0.011 -0.004,0.031 -0.008,0.042 -0.015,0.043 -0.027,0.09 -0.039,0.141 -0.004,0.031 -0.007,0.063 -0.011,0.098 -0.008,0.051 -0.012,0.105 -0.008,0.164 0,0.039 0,0.078 0.004,0.117 0.008,0.066 0.023,0.137 0.039,0.211 0.011,0.039 0.015,0.078 0.027,0.117 0.039,0.117 0.09,0.242 0.16401,0.371 0.52401,0.961 1.54701,2.696 1.602,2.789 0.004,0.004 0.023,0.047 0.039,0.086 0.008,0.012 0.012,0.028 0.019,0.043 0.024,0.059 0.047,0.137 0.067,0.223 0.008,0.019 0.011,0.043 0.015,0.066 0.02,0.098 0.036,0.207 0.036,0.324 -0.004,0.02 -0.004,0.036 -0.004,0.051 -0.008,0.117 -0.028,0.242 -0.071,0.367 -0.004,0.016 -0.004,0.032 -0.011,0.047 -0.004,0.016 -0.012,0.028 -0.016,0.035 -0.035,0.079 -0.07,0.157 -0.125,0.231 -0.043,0.062 -0.086,0.137 -0.125,0.211 -0.008,0.012 -0.012,0.031 -0.02,0.043 -0.14,0.269 -0.261,0.609 -0.343,0.98 -0.012,0.051 -0.024,0.098 -0.032,0.145 -0.039,0.207 -0.074,0.418 -0.082,0.629 -0.011,0.211 0.004,0.414 0.032,0.613 0.007,0.051 0.015,0.102 0.023,0.152 0.039,0.2 0.09,0.395 0.176,0.571 0.074,0.148 0.113,0.269 0.137,0.379 0.007,0.039 0.003,0.07 0.007,0.105 0.004,0.066 0.004,0.129 -0.015,0.184 -0.012,0.05 -0.024,0.101 -0.055,0.14 v 0.004 c -0.039,0.055 -0.086,0.098 -0.144,0.137 -0.012,0.008 -0.024,0.012 -0.032,0.016 -0.039,0.023 -0.082,0.043 -0.125,0.062 -0.109,0.047 -0.234,0.082 -0.371,0.113 -0.043,0.012 -0.09,0.02 -0.137,0.028 -0.113,0.023 -0.234,0.047 -0.347,0.07 -0.094,0.02 -0.207,0.047 -0.336,0.082 h -0.008 c -0.129,0.035 -0.269,0.074 -0.426,0.125 -0.027,0.008 -0.062,0.02 -0.09,0.031 -0.132,0.043 -0.273,0.09 -0.425,0.149 -0.055,0.019 -0.11,0.047 -0.164,0.07 -0.137,0.055 -0.27,0.109 -0.411,0.176 -0.011,0.004 -0.023,0.008 -0.031,0.012 -0.074,0.035 -0.152,0.082 -0.222,0.117 -0.118,0.058 -0.235,0.117 -0.356,0.183 -0.098,0.059 -0.199,0.121 -0.301,0.184 -0.109,0.07 -0.218,0.133 -0.328,0.207 -0.015,0.012 -0.031,0.019 -0.047,0.027 -0.039,0.032 -0.082,0.071 -0.125,0.102 -0.195,0.14 -0.394,0.297 -0.586,0.465 -0.043,0.035 -0.082,0.058 -0.121,0.093 -0.121,0.11 -0.242,0.227 -0.363,0.348 -0.07,0.07 -0.137,0.145 -0.199,0.211 -0.008,0.012 -0.016,0.02 -0.024,0.031 -0.066,0.078 -0.125,0.153 -0.175,0.223 -0.02,0.023 -0.04,0.047 -0.059,0.07 -0.004,0.008 -0.008,0.012 -0.012,0.02 -0.031,0.047 -0.058,0.09 -0.086,0.136 -0.019,0.036 -0.043,0.071 -0.062,0.106 -0.004,0.008 -0.008,0.012 -0.012,0.023 -0.023,0.043 -0.039,0.086 -0.059,0.129 -0.011,0.032 -0.031,0.063 -0.039,0.09 -0.003,0.008 -0.003,0.012 -0.003,0.016 -0.04,0.105 -0.063,0.203 -0.071,0.293 -0.004,0.023 -0.004,0.043 -0.004,0.062 -0.004,0.078 0,0.156 0.008,0.231 0.004,0.008 0.004,0.019 0.004,0.031 0.016,0.078 0.043,0.148 0.074,0.219 0.008,0.015 0.016,0.031 0.02,0.047 0.035,0.058 0.066,0.117 0.109,0.168 0.004,0.003 0.004,0.007 0.008,0.015 0.047,0.055 0.094,0.106 0.144,0.149 0.008,0.011 0.02,0.023 0.032,0.035 0.047,0.039 0.093,0.078 0.136,0.109 l 0.008,0.008 c 0.047,0.031 0.09,0.062 0.133,0.09 0.016,0.008 0.027,0.015 0.039,0.023 0.035,0.02 0.063,0.035 0.086,0.051 0.004,0.004 0.008,0.004 0.012,0.008 l 2.656,1.44499 c -0.016,0.024 -0.035,0.051 -0.051,0.078 -0.031,0.035 -0.062,0.074 -0.093,0.114 -0.063,0.078 -0.129,0.15201 -0.208,0.234 -0.039,0.043 -0.078,0.086 -0.121,0.13301 -0.046,0.051 -0.101,0.133 -0.148,0.191 -0.078,0.098 -0.156,0.192 -0.238,0.309 -0.024,0.031 -0.039,0.051 -0.063,0.082 -0.101,0.148 -0.211,0.308 -0.32,0.476 -0.008,0.016 -0.016,0.032 -0.027,0.047 -0.137,0.219 -0.278,0.453 -0.422,0.696 -0.032,0.058 -0.067,0.117 -0.102,0.175 -0.144,0.254 -0.289,0.512 -0.43,0.774 0,0.004 0,0.004 -0.004,0.008 -0.046,0.089 -0.093,0.175 -0.14,0.265 -0.11,0.215 -0.223,0.422 -0.324,0.633 -0.036,0.062 -0.063,0.125 -0.098,0.187 -0.109,0.227 -0.21901,0.446 -0.316,0.657 -0.036,0.074 -0.063,0.14 -0.098,0.215 -0.082,0.179 -0.16399,0.359 -0.231,0.515 -0.043,0.098 -0.07,0.172 -0.105,0.262 -0.039,0.094 -0.09,0.207 -0.117,0.289 -0.012,0.031 -0.024,0.062 -0.031,0.09 -0.321,0.887 -0.082,1.375 0.316,1.594 l 4.91,2.671 c -0.008,-0.007 -0.016,-0.015 -0.027,-0.023 0.203,0.117 0.445,0.172 0.687,0.168 l 8.92602,-1.25396 8.926,-1.258 c 0.703,-0.179 1.449,-0.824 0.992,-2.011 z"
         sodipodi:nodetypes="ccccccccccccccccccccccccccccccccccccccccccccccccccccccccccccccccccccccccccccccccccsccccccccccccccccccccccccccccccccccccccccccccccccacccccccc" />
      <path
         inkscape:connector-curvature="0"
         id="path145228"
         style="display:inline;fill:#00a14b;fill-opacity:1;fill-rule:nonzero;stroke:#231f20;stroke-width:0.15517659;stroke-miterlimit:4;stroke-dasharray:none;stroke-opacity:1"
         d="m 472.719,443.383 0.176,0.004 0.152,0.113 c 0.527,0.496 0.527,0.488 3.766,3.613 0.023,0.024 0.519,0.461 -0.004,1.575 -0.532,1.101 -1.563,3.128 -1.614,3.234 -0.023,0.047 -0.418,0.914 0.043,1.465 0.465,0.547 0.875,2.054 0.364,3.238 -0.524,1.184 0.347,0.98 1.078,0.93 0.722,-0.039 2.683,-0.067 4.332,1.148 1.644,1.219 0.304,2.324 -0.008,2.594 -0.313,0.269 -1.906,0.82 -2.371,0.996 -0.465,0.18 -0.988,0.754 0.047,1.527 1.027,0.778 2.859,3.891 3.32,5.082 0.461,1.188 -0.293,1.821 -0.988,2.004 l -8.926,1.254 -8.93,1.258 c -0.695,0.012 -1.449,-0.41 -0.98,-1.73 0.465,-1.321 2.308,-4.95 3.344,-6.02 1.031,-1.059 0.519,-1.492 0.054,-1.539 -0.461,-0.047 -2.062,-0.149 -2.375,-0.328 -0.312,-0.184 -1.648,-0.91 0.004,-2.598 1.652,-1.672 3.617,-2.199 4.336,-2.363 0.731,-0.152 1.606,-0.199 1.094,-1.235 -0.52,-1.039 -0.102,-2.664 0.363,-3.343 0.469,-0.68 0.074,-1.438 0.051,-1.477 -0.051,-0.09 -1.074,-1.828 -1.602,-2.781 -0.527,-0.965 -0.023,-1.543 0.004,-1.574 3.25,-4.035 3.25,-4.028 3.778,-4.672 l 0.152,-0.16 0.187,-0.051 0.575,-0.082 z" />
    </g>
  </g>
</svg>
