<?xml version="1.0" encoding="UTF-8" standalone="no"?>
<!-- Created with Inkscape (http://www.inkscape.org/) -->

<svg
   xmlns:dc="http://purl.org/dc/elements/1.1/"
   xmlns:cc="http://creativecommons.org/ns#"
   xmlns:rdf="http://www.w3.org/1999/02/22-rdf-syntax-ns#"
   xmlns:svg="http://www.w3.org/2000/svg"
   xmlns="http://www.w3.org/2000/svg"
   xmlns:sodipodi="http://sodipodi.sourceforge.net/DTD/sodipodi-0.dtd"
   xmlns:inkscape="http://www.inkscape.org/namespaces/inkscape"
   width="9.0379mm"
   height="10.905895mm"
   viewBox="0 0 9.0378999 10.905895"
   version="1.1"
   id="svg172314"
   inkscape:version="0.92.3 (2405546, 2018-03-11)"
   sodipodi:docname="Abbot_lightgreen_f.svg">
  <defs
     id="defs172308">
    <clipPath
       clipPathUnits="userSpaceOnUse"
       id="clipPath143754">
      <path
         d="m 492.523,440.711 h 25.016 v 32.707 h -25.016 z"
         id="path143752"
         inkscape:connector-curvature="0" />
    </clipPath>
    <clipPath
       clipPathUnits="userSpaceOnUse"
       id="clipPath143764">
      <path
         d="M 0,0 H 576 V 903 H 0 Z"
         id="path143762"
         inkscape:connector-curvature="0" />
    </clipPath>
    <clipPath
       clipPathUnits="userSpaceOnUse"
       id="clipPath143776">
      <path
         d="M 0,0 H 576 V 903 H 0 Z"
         id="path143774"
         inkscape:connector-curvature="0" />
    </clipPath>
    <clipPath
       clipPathUnits="userSpaceOnUse"
       id="clipPath143786">
      <path
         d="m 506.102,454.855 h 9.684 v 3.453 h -9.684 z"
         id="path143784"
         inkscape:connector-curvature="0" />
    </clipPath>
    <clipPath
       clipPathUnits="userSpaceOnUse"
       id="clipPath143796">
      <path
         d="M 0,0 H 576 V 903 H 0 Z"
         id="path143794"
         inkscape:connector-curvature="0" />
    </clipPath>
    <clipPath
       clipPathUnits="userSpaceOnUse"
       id="clipPath143808">
      <path
         d="M 0,0 H 576 V 903 H 0 Z"
         id="path143806"
         inkscape:connector-curvature="0" />
    </clipPath>
    <clipPath
       clipPathUnits="userSpaceOnUse"
       id="clipPath143818">
      <path
         d="m 506,454 h 10 v 5 h -10 z"
         id="path143816"
         inkscape:connector-curvature="0" />
    </clipPath>
    <clipPath
       clipPathUnits="userSpaceOnUse"
       id="clipPath143828">
      <path
         d="M 0,0 H 576 V 903 H 0 Z"
         id="path143826"
         inkscape:connector-curvature="0" />
    </clipPath>
    <clipPath
       clipPathUnits="userSpaceOnUse"
       id="clipPath143838">
      <path
         d="m 506,454 h 10 v 5 h -10 z"
         id="path143836"
         inkscape:connector-curvature="0" />
    </clipPath>
    <clipPath
       clipPathUnits="userSpaceOnUse"
       id="clipPath143844">
      <path
         d="m 511.012,457.527 -4.91,-2.672 c 0.234,0.125 0.671,0.055 1.062,0.028 0.633,-0.035 2.219,-0.059 3.711,0.754 l 4.91,2.672 c -1.488,-0.813 -3.074,-0.789 -3.707,-0.754 -0.39,0.027 -0.832,0.097 -1.066,-0.028"
         id="path143842"
         inkscape:connector-curvature="0" />
    </clipPath>
    <clipPath
       clipPathUnits="userSpaceOnUse"
       id="clipPath143854">
      <path
         d="M 0,0 H 576 V 903 H 0 Z"
         id="path143852"
         inkscape:connector-curvature="0" />
    </clipPath>
    <clipPath
       clipPathUnits="userSpaceOnUse"
       id="clipPath143866">
      <path
         d="M 0,0 H 576 V 903 H 0 Z"
         id="path143864"
         inkscape:connector-curvature="0" />
    </clipPath>
    <clipPath
       clipPathUnits="userSpaceOnUse"
       id="clipPath143876">
      <path
         d="m 506.102,454.855 h 9.684 v 3.453 h -9.684 z"
         id="path143874"
         inkscape:connector-curvature="0" />
    </clipPath>
    <clipPath
       clipPathUnits="userSpaceOnUse"
       id="clipPath143886">
      <path
         d="M 0,0 H 576 V 903 H 0 Z"
         id="path143884"
         inkscape:connector-curvature="0" />
    </clipPath>
    <clipPath
       clipPathUnits="userSpaceOnUse"
       id="clipPath143898">
      <path
         d="M 0,0 H 576 V 903 H 0 Z"
         id="path143896"
         inkscape:connector-curvature="0" />
    </clipPath>
    <clipPath
       clipPathUnits="userSpaceOnUse"
       id="clipPath143918">
      <path
         d="m 492.523,461.543 h 8.996 v 11.73 h -8.996 z"
         id="path143916"
         inkscape:connector-curvature="0" />
    </clipPath>
    <clipPath
       clipPathUnits="userSpaceOnUse"
       id="clipPath143928">
      <path
         d="M 0,0 H 576 V 903 H 0 Z"
         id="path143926"
         inkscape:connector-curvature="0" />
    </clipPath>
    <clipPath
       clipPathUnits="userSpaceOnUse"
       id="clipPath143940">
      <path
         d="M 0,0 H 576 V 903 H 0 Z"
         id="path143938"
         inkscape:connector-curvature="0" />
    </clipPath>
    <clipPath
       clipPathUnits="userSpaceOnUse"
       id="clipPath143950">
      <path
         d="m 492,461 h 10 v 13 h -10 z"
         id="path143948"
         inkscape:connector-curvature="0" />
    </clipPath>
    <clipPath
       clipPathUnits="userSpaceOnUse"
       id="clipPath143960">
      <path
         d="M 0,0 H 576 V 903 H 0 Z"
         id="path143958"
         inkscape:connector-curvature="0" />
    </clipPath>
    <clipPath
       clipPathUnits="userSpaceOnUse"
       id="clipPath143970">
      <path
         d="m 492,461 h 10 v 13 h -10 z"
         id="path143968"
         inkscape:connector-curvature="0" />
    </clipPath>
    <clipPath
       clipPathUnits="userSpaceOnUse"
       id="clipPath143976">
      <path
         d="m 497.898,473.273 -4.914,-2.671 c -0.394,-0.219 -0.629,-0.7 -0.316,-1.586 0.469,-1.321 2.301,-4.95 3.336,-6.02 0.812,-0.832 0.672,-1.277 0.348,-1.453 l 4.914,2.672 c 0.32,0.176 0.461,0.621 -0.352,1.453 -1.035,1.07 -2.867,4.699 -3.336,6.02 -0.312,0.886 -0.078,1.367 0.32,1.585"
         id="path143974"
         inkscape:connector-curvature="0" />
    </clipPath>
    <clipPath
       clipPathUnits="userSpaceOnUse"
       id="clipPath143986">
      <path
         d="M 0,0 H 576 V 903 H 0 Z"
         id="path143984"
         inkscape:connector-curvature="0" />
    </clipPath>
    <clipPath
       clipPathUnits="userSpaceOnUse"
       id="clipPath143998">
      <path
         d="M 0,0 H 576 V 903 H 0 Z"
         id="path143996"
         inkscape:connector-curvature="0" />
    </clipPath>
    <clipPath
       clipPathUnits="userSpaceOnUse"
       id="clipPath144008">
      <path
         d="m 492.523,461.543 h 8.996 v 11.73 h -8.996 z"
         id="path144006"
         inkscape:connector-curvature="0" />
    </clipPath>
    <clipPath
       clipPathUnits="userSpaceOnUse"
       id="clipPath144018">
      <path
         d="M 0,0 H 576 V 903 H 0 Z"
         id="path144016"
         inkscape:connector-curvature="0" />
    </clipPath>
    <clipPath
       clipPathUnits="userSpaceOnUse"
       id="clipPath144030">
      <path
         d="M 0,0 H 576 V 903 H 0 Z"
         id="path144028"
         inkscape:connector-curvature="0" />
    </clipPath>
    <clipPath
       clipPathUnits="userSpaceOnUse"
       id="clipPath144064">
      <path
         d="m 492.879,450.113 h 11.742 v 13.688 h -11.742 z"
         id="path144062"
         inkscape:connector-curvature="0" />
    </clipPath>
    <clipPath
       clipPathUnits="userSpaceOnUse"
       id="clipPath144074">
      <path
         d="M 0,0 H 576 V 903 H 0 Z"
         id="path144072"
         inkscape:connector-curvature="0" />
    </clipPath>
    <clipPath
       clipPathUnits="userSpaceOnUse"
       id="clipPath144086">
      <path
         d="M 0,0 H 576 V 903 H 0 Z"
         id="path144084"
         inkscape:connector-curvature="0" />
    </clipPath>
    <clipPath
       clipPathUnits="userSpaceOnUse"
       id="clipPath144096">
      <path
         d="m 492,450 h 13 v 14 h -13 z"
         id="path144094"
         inkscape:connector-curvature="0" />
    </clipPath>
    <clipPath
       clipPathUnits="userSpaceOnUse"
       id="clipPath144106">
      <path
         d="M 0,0 H 576 V 903 H 0 Z"
         id="path144104"
         inkscape:connector-curvature="0" />
    </clipPath>
    <clipPath
       clipPathUnits="userSpaceOnUse"
       id="clipPath144116">
      <path
         d="m 492,450 h 13 v 14 h -13 z"
         id="path144114"
         inkscape:connector-curvature="0" />
    </clipPath>
    <clipPath
       clipPathUnits="userSpaceOnUse"
       id="clipPath144122">
      <path
         d="m 498.598,463.801 -4.914,-2.672 c -0.305,-0.184 -1.649,-0.91 0.004,-2.598 1.664,-1.676 3.617,-2.199 4.343,-2.363 0.723,-0.152 1.598,-0.199 1.086,-1.234 -0.512,-1.043 -0.097,-2.664 0.367,-3.344 0.465,-0.68 0.071,-1.438 0.051,-1.477 l 4.91,2.672 c 0.024,0.039 0.414,0.797 -0.05,1.477 -0.465,0.679 -0.875,2.301 -0.368,3.343 0.512,1.036 -0.363,1.083 -1.082,1.235 -0.726,0.164 -2.683,0.687 -4.343,2.363 -1.653,1.688 -0.309,2.414 -0.004,2.598"
         id="path144120"
         inkscape:connector-curvature="0" />
    </clipPath>
    <clipPath
       clipPathUnits="userSpaceOnUse"
       id="clipPath144132">
      <path
         d="M 0,0 H 576 V 903 H 0 Z"
         id="path144130"
         inkscape:connector-curvature="0" />
    </clipPath>
    <clipPath
       clipPathUnits="userSpaceOnUse"
       id="clipPath144144">
      <path
         d="M 0,0 H 576 V 903 H 0 Z"
         id="path144142"
         inkscape:connector-curvature="0" />
    </clipPath>
    <clipPath
       clipPathUnits="userSpaceOnUse"
       id="clipPath144154">
      <path
         d="m 492.879,450.113 h 11.742 v 13.688 h -11.742 z"
         id="path144152"
         inkscape:connector-curvature="0" />
    </clipPath>
    <clipPath
       clipPathUnits="userSpaceOnUse"
       id="clipPath144164">
      <path
         d="M 0,0 H 576 V 903 H 0 Z"
         id="path144162"
         inkscape:connector-curvature="0" />
    </clipPath>
    <clipPath
       clipPathUnits="userSpaceOnUse"
       id="clipPath144176">
      <path
         d="M 0,0 H 576 V 903 H 0 Z"
         id="path144174"
         inkscape:connector-curvature="0" />
    </clipPath>
    <clipPath
       clipPathUnits="userSpaceOnUse"
       id="clipPath144232">
      <path
         d="m 497.941,441.086 h 8.691 v 7.344 h -8.691 z"
         id="path144230"
         inkscape:connector-curvature="0" />
    </clipPath>
    <clipPath
       clipPathUnits="userSpaceOnUse"
       id="clipPath144242">
      <path
         d="M 0,0 H 576 V 903 H 0 Z"
         id="path144240"
         inkscape:connector-curvature="0" />
    </clipPath>
    <clipPath
       clipPathUnits="userSpaceOnUse"
       id="clipPath144254">
      <path
         d="M 0,0 H 576 V 903 H 0 Z"
         id="path144252"
         inkscape:connector-curvature="0" />
    </clipPath>
    <clipPath
       clipPathUnits="userSpaceOnUse"
       id="clipPath144264">
      <path
         d="m 497,441 h 10 v 8 h -10 z"
         id="path144262"
         inkscape:connector-curvature="0" />
    </clipPath>
    <clipPath
       clipPathUnits="userSpaceOnUse"
       id="clipPath144274">
      <path
         d="M 0,0 H 576 V 903 H 0 Z"
         id="path144272"
         inkscape:connector-curvature="0" />
    </clipPath>
    <clipPath
       clipPathUnits="userSpaceOnUse"
       id="clipPath144284">
      <path
         d="m 497,441 h 10 v 8 h -10 z"
         id="path144282"
         inkscape:connector-curvature="0" />
    </clipPath>
    <clipPath
       clipPathUnits="userSpaceOnUse"
       id="clipPath144290">
      <path
         d="m 502.852,448.43 -4.911,-2.672 c 3.243,-4.035 3.243,-4.028 3.782,-4.672 l 4.91,2.672 c -0.535,0.644 -0.535,0.637 -3.781,4.672"
         id="path144288"
         inkscape:connector-curvature="0" />
    </clipPath>
    <clipPath
       clipPathUnits="userSpaceOnUse"
       id="clipPath144300">
      <path
         d="M 0,0 H 576 V 903 H 0 Z"
         id="path144298"
         inkscape:connector-curvature="0" />
    </clipPath>
    <clipPath
       clipPathUnits="userSpaceOnUse"
       id="clipPath144312">
      <path
         d="M 0,0 H 576 V 903 H 0 Z"
         id="path144310"
         inkscape:connector-curvature="0" />
    </clipPath>
    <clipPath
       clipPathUnits="userSpaceOnUse"
       id="clipPath144322">
      <path
         d="m 497.941,441.086 h 8.691 v 7.344 h -8.691 z"
         id="path144320"
         inkscape:connector-curvature="0" />
    </clipPath>
    <clipPath
       clipPathUnits="userSpaceOnUse"
       id="clipPath144332">
      <path
         d="M 0,0 H 576 V 903 H 0 Z"
         id="path144330"
         inkscape:connector-curvature="0" />
    </clipPath>
    <clipPath
       clipPathUnits="userSpaceOnUse"
       id="clipPath144344">
      <path
         d="M 0,0 H 576 V 903 H 0 Z"
         id="path144342"
         inkscape:connector-curvature="0" />
    </clipPath>
    <clipPath
       clipPathUnits="userSpaceOnUse"
       id="clipPath144356">
      <path
         d="m 497.699,445.758 h 6.746 v 7.027 h -6.746 z"
         id="path144354"
         inkscape:connector-curvature="0" />
    </clipPath>
    <clipPath
       clipPathUnits="userSpaceOnUse"
       id="clipPath144366">
      <path
         d="M 0,0 H 576 V 903 H 0 Z"
         id="path144364"
         inkscape:connector-curvature="0" />
    </clipPath>
    <clipPath
       clipPathUnits="userSpaceOnUse"
       id="clipPath144378">
      <path
         d="M 0,0 H 576 V 903 H 0 Z"
         id="path144376"
         inkscape:connector-curvature="0" />
    </clipPath>
    <clipPath
       clipPathUnits="userSpaceOnUse"
       id="clipPath144388">
      <path
         d="m 497,445 h 8 v 8 h -8 z"
         id="path144386"
         inkscape:connector-curvature="0" />
    </clipPath>
    <clipPath
       clipPathUnits="userSpaceOnUse"
       id="clipPath144398">
      <path
         d="M 0,0 H 576 V 903 H 0 Z"
         id="path144396"
         inkscape:connector-curvature="0" />
    </clipPath>
    <clipPath
       clipPathUnits="userSpaceOnUse"
       id="clipPath144408">
      <path
         d="m 497,445 h 8 v 8 h -8 z"
         id="path144406"
         inkscape:connector-curvature="0" />
    </clipPath>
    <clipPath
       clipPathUnits="userSpaceOnUse"
       id="clipPath144414">
      <path
         d="m 504.445,452.785 -4.91,-2.672 c -0.055,-0.093 -1.078,-1.828 -1.597,-2.785 -0.528,-0.961 -0.024,-1.543 0.003,-1.57 l 4.911,2.672 c -0.028,0.031 -0.528,0.609 0,1.574 0.515,0.953 1.543,2.687 1.593,2.781"
         id="path144412"
         inkscape:connector-curvature="0" />
    </clipPath>
    <clipPath
       clipPathUnits="userSpaceOnUse"
       id="clipPath144424">
      <path
         d="M 0,0 H 576 V 903 H 0 Z"
         id="path144422"
         inkscape:connector-curvature="0" />
    </clipPath>
    <clipPath
       clipPathUnits="userSpaceOnUse"
       id="clipPath144436">
      <path
         d="M 0,0 H 576 V 903 H 0 Z"
         id="path144434"
         inkscape:connector-curvature="0" />
    </clipPath>
    <clipPath
       clipPathUnits="userSpaceOnUse"
       id="clipPath144446">
      <path
         d="m 497.699,445.758 h 6.746 v 7.027 h -6.746 z"
         id="path144444"
         inkscape:connector-curvature="0" />
    </clipPath>
    <clipPath
       clipPathUnits="userSpaceOnUse"
       id="clipPath144456">
      <path
         d="M 0,0 H 576 V 903 H 0 Z"
         id="path144454"
         inkscape:connector-curvature="0" />
    </clipPath>
    <clipPath
       clipPathUnits="userSpaceOnUse"
       id="clipPath144468">
      <path
         d="M 0,0 H 576 V 903 H 0 Z"
         id="path144466"
         inkscape:connector-curvature="0" />
    </clipPath>
    <clipPath
       clipPathUnits="userSpaceOnUse"
       id="clipPath143008">
      <path
         d="m 527.918,440.711 h 25.02 v 32.707 h -25.02 z"
         id="path143006"
         inkscape:connector-curvature="0" />
    </clipPath>
    <clipPath
       clipPathUnits="userSpaceOnUse"
       id="clipPath143018">
      <path
         d="M 0,0 H 576 V 903 H 0 Z"
         id="path143016"
         inkscape:connector-curvature="0" />
    </clipPath>
    <clipPath
       clipPathUnits="userSpaceOnUse"
       id="clipPath143030">
      <path
         d="M 0,0 H 576 V 903 H 0 Z"
         id="path143028"
         inkscape:connector-curvature="0" />
    </clipPath>
    <clipPath
       clipPathUnits="userSpaceOnUse"
       id="clipPath143040">
      <path
         d="m 541.496,454.855 h 9.699 v 3.457 h -9.699 z"
         id="path143038"
         inkscape:connector-curvature="0" />
    </clipPath>
    <clipPath
       clipPathUnits="userSpaceOnUse"
       id="clipPath143050">
      <path
         d="M 0,0 H 576 V 903 H 0 Z"
         id="path143048"
         inkscape:connector-curvature="0" />
    </clipPath>
    <clipPath
       clipPathUnits="userSpaceOnUse"
       id="clipPath143062">
      <path
         d="M 0,0 H 576 V 903 H 0 Z"
         id="path143060"
         inkscape:connector-curvature="0" />
    </clipPath>
    <clipPath
       clipPathUnits="userSpaceOnUse"
       id="clipPath143072">
      <path
         d="m 541,454 h 11 v 5 h -11 z"
         id="path143070"
         inkscape:connector-curvature="0" />
    </clipPath>
    <clipPath
       clipPathUnits="userSpaceOnUse"
       id="clipPath143082">
      <path
         d="M 0,0 H 576 V 903 H 0 Z"
         id="path143080"
         inkscape:connector-curvature="0" />
    </clipPath>
    <clipPath
       clipPathUnits="userSpaceOnUse"
       id="clipPath143092">
      <path
         d="m 541,454 h 11 v 5 h -11 z"
         id="path143090"
         inkscape:connector-curvature="0" />
    </clipPath>
    <clipPath
       clipPathUnits="userSpaceOnUse"
       id="clipPath143098">
      <path
         d="m 546.41,457.527 -4.914,-2.672 c 0.238,0.129 0.676,0.055 1.067,0.032 0.632,-0.039 2.222,-0.063 3.722,0.754 l 4.91,2.672 c -1.496,-0.817 -3.09,-0.793 -3.722,-0.754 -0.391,0.023 -0.828,0.097 -1.063,-0.032"
         id="path143096"
         inkscape:connector-curvature="0" />
    </clipPath>
    <clipPath
       clipPathUnits="userSpaceOnUse"
       id="clipPath143108">
      <path
         d="M 0,0 H 576 V 903 H 0 Z"
         id="path143106"
         inkscape:connector-curvature="0" />
    </clipPath>
    <clipPath
       clipPathUnits="userSpaceOnUse"
       id="clipPath143120">
      <path
         d="M 0,0 H 576 V 903 H 0 Z"
         id="path143118"
         inkscape:connector-curvature="0" />
    </clipPath>
    <clipPath
       clipPathUnits="userSpaceOnUse"
       id="clipPath143130">
      <path
         d="m 541.496,454.855 h 9.699 v 3.457 h -9.699 z"
         id="path143128"
         inkscape:connector-curvature="0" />
    </clipPath>
    <clipPath
       clipPathUnits="userSpaceOnUse"
       id="clipPath143140">
      <path
         d="M 0,0 H 576 V 903 H 0 Z"
         id="path143138"
         inkscape:connector-curvature="0" />
    </clipPath>
    <clipPath
       clipPathUnits="userSpaceOnUse"
       id="clipPath143152">
      <path
         d="M 0,0 H 576 V 903 H 0 Z"
         id="path143150"
         inkscape:connector-curvature="0" />
    </clipPath>
    <clipPath
       clipPathUnits="userSpaceOnUse"
       id="clipPath143172">
      <path
         d="m 527.918,461.547 h 9 v 11.727 h -9 z"
         id="path143170"
         inkscape:connector-curvature="0" />
    </clipPath>
    <clipPath
       clipPathUnits="userSpaceOnUse"
       id="clipPath143182">
      <path
         d="M 0,0 H 576 V 903 H 0 Z"
         id="path143180"
         inkscape:connector-curvature="0" />
    </clipPath>
    <clipPath
       clipPathUnits="userSpaceOnUse"
       id="clipPath143194">
      <path
         d="M 0,0 H 576 V 903 H 0 Z"
         id="path143192"
         inkscape:connector-curvature="0" />
    </clipPath>
    <clipPath
       clipPathUnits="userSpaceOnUse"
       id="clipPath143204">
      <path
         d="m 527,461 h 10 v 13 h -10 z"
         id="path143202"
         inkscape:connector-curvature="0" />
    </clipPath>
    <clipPath
       clipPathUnits="userSpaceOnUse"
       id="clipPath143214">
      <path
         d="M 0,0 H 576 V 903 H 0 Z"
         id="path143212"
         inkscape:connector-curvature="0" />
    </clipPath>
    <clipPath
       clipPathUnits="userSpaceOnUse"
       id="clipPath143224">
      <path
         d="m 527,461 h 10 v 13 h -10 z"
         id="path143222"
         inkscape:connector-curvature="0" />
    </clipPath>
    <clipPath
       clipPathUnits="userSpaceOnUse"
       id="clipPath143230">
      <path
         d="m 533.297,473.273 -4.914,-2.671 c -0.399,-0.219 -0.633,-0.7 -0.317,-1.586 0.465,-1.321 2.305,-4.95 3.34,-6.02 0.809,-0.832 0.664,-1.277 0.344,-1.449 l 4.91,2.672 c 0.324,0.176 0.465,0.617 -0.34,1.449 -1.035,1.07 -2.875,4.699 -3.343,6.02 -0.313,0.886 -0.082,1.371 0.32,1.585"
         id="path143228"
         inkscape:connector-curvature="0" />
    </clipPath>
    <clipPath
       clipPathUnits="userSpaceOnUse"
       id="clipPath143240">
      <path
         d="M 0,0 H 576 V 903 H 0 Z"
         id="path143238"
         inkscape:connector-curvature="0" />
    </clipPath>
    <clipPath
       clipPathUnits="userSpaceOnUse"
       id="clipPath143252">
      <path
         d="M 0,0 H 576 V 903 H 0 Z"
         id="path143250"
         inkscape:connector-curvature="0" />
    </clipPath>
    <clipPath
       clipPathUnits="userSpaceOnUse"
       id="clipPath143262">
      <path
         d="m 527.918,461.547 h 9 v 11.727 h -9 z"
         id="path143260"
         inkscape:connector-curvature="0" />
    </clipPath>
    <clipPath
       clipPathUnits="userSpaceOnUse"
       id="clipPath143272">
      <path
         d="M 0,0 H 576 V 903 H 0 Z"
         id="path143270"
         inkscape:connector-curvature="0" />
    </clipPath>
    <clipPath
       clipPathUnits="userSpaceOnUse"
       id="clipPath143284">
      <path
         d="M 0,0 H 576 V 903 H 0 Z"
         id="path143282"
         inkscape:connector-curvature="0" />
    </clipPath>
    <clipPath
       clipPathUnits="userSpaceOnUse"
       id="clipPath143318">
      <path
         d="m 528.277,450.113 h 11.742 v 13.691 h -11.742 z"
         id="path143316"
         inkscape:connector-curvature="0" />
    </clipPath>
    <clipPath
       clipPathUnits="userSpaceOnUse"
       id="clipPath143328">
      <path
         d="M 0,0 H 576 V 903 H 0 Z"
         id="path143326"
         inkscape:connector-curvature="0" />
    </clipPath>
    <clipPath
       clipPathUnits="userSpaceOnUse"
       id="clipPath143340">
      <path
         d="M 0,0 H 576 V 903 H 0 Z"
         id="path143338"
         inkscape:connector-curvature="0" />
    </clipPath>
    <clipPath
       clipPathUnits="userSpaceOnUse"
       id="clipPath143350">
      <path
         d="m 528,450 h 13 v 14 h -13 z"
         id="path143348"
         inkscape:connector-curvature="0" />
    </clipPath>
    <clipPath
       clipPathUnits="userSpaceOnUse"
       id="clipPath143360">
      <path
         d="M 0,0 H 576 V 903 H 0 Z"
         id="path143358"
         inkscape:connector-curvature="0" />
    </clipPath>
    <clipPath
       clipPathUnits="userSpaceOnUse"
       id="clipPath143370">
      <path
         d="m 528,450 h 13 v 14 h -13 z"
         id="path143368"
         inkscape:connector-curvature="0" />
    </clipPath>
    <clipPath
       clipPathUnits="userSpaceOnUse"
       id="clipPath143376">
      <path
         d="m 534.012,463.805 -4.91,-2.672 c -0.004,-0.004 -0.008,-0.004 -0.012,-0.004 -0.313,-0.184 -1.656,-0.91 0.004,-2.598 1.652,-1.676 3.617,-2.203 4.336,-2.363 0.722,-0.152 1.601,-0.199 1.086,-1.23 -0.512,-1.047 -0.102,-2.668 0.367,-3.348 0.465,-0.68 0.078,-1.438 0.055,-1.477 l 4.914,2.672 c 0.019,0.039 0.406,0.797 -0.059,1.477 -0.465,0.679 -0.879,2.301 -0.367,3.343 0.519,1.036 -0.363,1.083 -1.082,1.235 -0.723,0.164 -2.684,0.687 -4.336,2.363 -1.664,1.688 -0.32,2.414 -0.008,2.598 0.004,0 0.008,0.004 0.012,0.004"
         id="path143374"
         inkscape:connector-curvature="0" />
    </clipPath>
    <clipPath
       clipPathUnits="userSpaceOnUse"
       id="clipPath143386">
      <path
         d="M 0,0 H 576 V 903 H 0 Z"
         id="path143384"
         inkscape:connector-curvature="0" />
    </clipPath>
    <clipPath
       clipPathUnits="userSpaceOnUse"
       id="clipPath143398">
      <path
         d="M 0,0 H 576 V 903 H 0 Z"
         id="path143396"
         inkscape:connector-curvature="0" />
    </clipPath>
    <clipPath
       clipPathUnits="userSpaceOnUse"
       id="clipPath143408">
      <path
         d="m 528.281,450.113 h 11.738 v 13.691 h -11.738 z"
         id="path143406"
         inkscape:connector-curvature="0" />
    </clipPath>
    <clipPath
       clipPathUnits="userSpaceOnUse"
       id="clipPath143418">
      <path
         d="M 0,0 H 576 V 903 H 0 Z"
         id="path143416"
         inkscape:connector-curvature="0" />
    </clipPath>
    <clipPath
       clipPathUnits="userSpaceOnUse"
       id="clipPath143430">
      <path
         d="M 0,0 H 576 V 903 H 0 Z"
         id="path143428"
         inkscape:connector-curvature="0" />
    </clipPath>
    <clipPath
       clipPathUnits="userSpaceOnUse"
       id="clipPath143486">
      <path
         d="m 533.34,441.086 h 8.691 v 7.344 h -8.691 z"
         id="path143484"
         inkscape:connector-curvature="0" />
    </clipPath>
    <clipPath
       clipPathUnits="userSpaceOnUse"
       id="clipPath143496">
      <path
         d="M 0,0 H 576 V 903 H 0 Z"
         id="path143494"
         inkscape:connector-curvature="0" />
    </clipPath>
    <clipPath
       clipPathUnits="userSpaceOnUse"
       id="clipPath143508">
      <path
         d="M 0,0 H 576 V 903 H 0 Z"
         id="path143506"
         inkscape:connector-curvature="0" />
    </clipPath>
    <clipPath
       clipPathUnits="userSpaceOnUse"
       id="clipPath143518">
      <path
         d="m 533,441 h 10 v 8 h -10 z"
         id="path143516"
         inkscape:connector-curvature="0" />
    </clipPath>
    <clipPath
       clipPathUnits="userSpaceOnUse"
       id="clipPath143528">
      <path
         d="M 0,0 H 576 V 903 H 0 Z"
         id="path143526"
         inkscape:connector-curvature="0" />
    </clipPath>
    <clipPath
       clipPathUnits="userSpaceOnUse"
       id="clipPath143538">
      <path
         d="m 533,441 h 10 v 8 h -10 z"
         id="path143536"
         inkscape:connector-curvature="0" />
    </clipPath>
    <clipPath
       clipPathUnits="userSpaceOnUse"
       id="clipPath143544">
      <path
         d="m 538.25,448.43 -4.91,-2.672 c 3.242,-4.035 3.25,-4.028 3.777,-4.672 l 4.914,2.672 c -0.531,0.644 -0.539,0.637 -3.781,4.672"
         id="path143542"
         inkscape:connector-curvature="0" />
    </clipPath>
    <clipPath
       clipPathUnits="userSpaceOnUse"
       id="clipPath143554">
      <path
         d="M 0,0 H 576 V 903 H 0 Z"
         id="path143552"
         inkscape:connector-curvature="0" />
    </clipPath>
    <clipPath
       clipPathUnits="userSpaceOnUse"
       id="clipPath143566">
      <path
         d="M 0,0 H 576 V 903 H 0 Z"
         id="path143564"
         inkscape:connector-curvature="0" />
    </clipPath>
    <clipPath
       clipPathUnits="userSpaceOnUse"
       id="clipPath143576">
      <path
         d="m 533.34,441.086 h 8.691 v 7.344 h -8.691 z"
         id="path143574"
         inkscape:connector-curvature="0" />
    </clipPath>
    <clipPath
       clipPathUnits="userSpaceOnUse"
       id="clipPath143586">
      <path
         d="M 0,0 H 576 V 903 H 0 Z"
         id="path143584"
         inkscape:connector-curvature="0" />
    </clipPath>
    <clipPath
       clipPathUnits="userSpaceOnUse"
       id="clipPath143598">
      <path
         d="M 0,0 H 576 V 903 H 0 Z"
         id="path143596"
         inkscape:connector-curvature="0" />
    </clipPath>
    <clipPath
       clipPathUnits="userSpaceOnUse"
       id="clipPath143610">
      <path
         d="m 533.098,445.758 h 6.754 v 7.027 h -6.754 z"
         id="path143608"
         inkscape:connector-curvature="0" />
    </clipPath>
    <clipPath
       clipPathUnits="userSpaceOnUse"
       id="clipPath143620">
      <path
         d="M 0,0 H 576 V 903 H 0 Z"
         id="path143618"
         inkscape:connector-curvature="0" />
    </clipPath>
    <clipPath
       clipPathUnits="userSpaceOnUse"
       id="clipPath143632">
      <path
         d="M 0,0 H 576 V 903 H 0 Z"
         id="path143630"
         inkscape:connector-curvature="0" />
    </clipPath>
    <clipPath
       clipPathUnits="userSpaceOnUse"
       id="clipPath143642">
      <path
         d="m 533,445 h 7 v 8 h -7 z"
         id="path143640"
         inkscape:connector-curvature="0" />
    </clipPath>
    <clipPath
       clipPathUnits="userSpaceOnUse"
       id="clipPath143652">
      <path
         d="M 0,0 H 576 V 903 H 0 Z"
         id="path143650"
         inkscape:connector-curvature="0" />
    </clipPath>
    <clipPath
       clipPathUnits="userSpaceOnUse"
       id="clipPath143662">
      <path
         d="m 533,445 h 7 v 8 h -7 z"
         id="path143660"
         inkscape:connector-curvature="0" />
    </clipPath>
    <clipPath
       clipPathUnits="userSpaceOnUse"
       id="clipPath143668">
      <path
         d="m 539.852,452.785 -4.914,-2.672 c -0.051,-0.093 -1.079,-1.828 -1.602,-2.785 -0.527,-0.961 -0.023,-1.543 0.004,-1.57 l 4.91,2.672 c -0.027,0.031 -0.527,0.609 -0.004,1.574 0.527,0.953 1.551,2.687 1.606,2.781"
         id="path143666"
         inkscape:connector-curvature="0" />
    </clipPath>
    <clipPath
       clipPathUnits="userSpaceOnUse"
       id="clipPath143678">
      <path
         d="M 0,0 H 576 V 903 H 0 Z"
         id="path143676"
         inkscape:connector-curvature="0" />
    </clipPath>
    <clipPath
       clipPathUnits="userSpaceOnUse"
       id="clipPath143690">
      <path
         d="M 0,0 H 576 V 903 H 0 Z"
         id="path143688"
         inkscape:connector-curvature="0" />
    </clipPath>
    <clipPath
       clipPathUnits="userSpaceOnUse"
       id="clipPath143700">
      <path
         d="m 533.098,445.758 h 6.754 v 7.027 h -6.754 z"
         id="path143698"
         inkscape:connector-curvature="0" />
    </clipPath>
    <clipPath
       clipPathUnits="userSpaceOnUse"
       id="clipPath143710">
      <path
         d="M 0,0 H 576 V 903 H 0 Z"
         id="path143708"
         inkscape:connector-curvature="0" />
    </clipPath>
    <clipPath
       clipPathUnits="userSpaceOnUse"
       id="clipPath143722">
      <path
         d="M 0,0 H 576 V 903 H 0 Z"
         id="path143720"
         inkscape:connector-curvature="0" />
    </clipPath>
    <filter
       style="color-interpolation-filters:sRGB"
       inkscape:label="Greyscale"
       id="filter53559">
      <feColorMatrix
         values="0.21 0.72 0.072 0 0 0.21 0.72 0.072 0 0 0.21 0.72 0.072 0 0 0 0 0 1 0 "
         id="feColorMatrix53557" />
    </filter>
  </defs>
  <sodipodi:namedview
     id="base"
     pagecolor="#ffffff"
     bordercolor="#666666"
     borderopacity="1.0"
     inkscape:pageopacity="0.0"
     inkscape:pageshadow="2"
     inkscape:zoom="11.313709"
     inkscape:cx="15.05928"
     inkscape:cy="20.570087"
     inkscape:document-units="mm"
     inkscape:current-layer="layer1"
     showgrid="false"
     inkscape:window-width="1920"
     inkscape:window-height="1017"
     inkscape:window-x="-8"
     inkscape:window-y="-8"
     inkscape:window-maximized="1"
     inkscape:object-nodes="false"
     inkscape:snap-nodes="false" />
  <metadata
     id="metadata172311">
    <rdf:RDF>
      <cc:Work
         rdf:about="">
        <dc:format>image/svg+xml</dc:format>
        <dc:type
           rdf:resource="http://purl.org/dc/dcmitype/StillImage" />
        <dc:title></dc:title>
      </cc:Work>
    </rdf:RDF>
  </metadata>
  <g
     inkscape:label="Ebene 1"
     inkscape:groupmode="layer"
     id="layer1"
     transform="translate(-76.574925,-117.20704)">
    <g
       id="g144480"
       transform="matrix(-0.35469525,0,0,0.32889682,260.22022,-27.668209)"
       style="fill:#0072bc;fill-opacity:1;stroke:#000000;stroke-width:0.15517376;stroke-miterlimit:4;stroke-dasharray:none;stroke-opacity:1"
       inkscape:label="Abbot_lightgreen">
      <path
         inkscape:connector-curvature="0"
         id="path143746"
         style="display:inline;fill:none;fill-opacity:1;stroke:#000000;stroke-width:0.44795448;stroke-linecap:round;stroke-linejoin:round;stroke-miterlimit:4;stroke-dasharray:none;stroke-opacity:1"
         d="m 517.39377,468.90035 c -0.464,-1.184 -2.289,-4.305 -3.324,-5.067 -1.023,-0.777 -0.508,-1.355 -0.047,-1.527 0.473,-0.18 2.067,-0.735 2.379,-1.008 0.309,-0.27 1.653,-1.379 0.008,-2.586 -0.2159,-0.12225 -0.41798,-0.2675 -0.629,-0.398 l -4.578,-2.493 c 0.117,-0.988 -0.207,-2 -0.566,-2.433 -0.469,-0.543 -0.075,-1.418 -0.055,-1.461 0.055,-0.109 1.09,-2.129 1.617,-3.238 0.527,-1.102 0.031,-1.539 0.004,-1.567 -3.234,-3.125 -3.234,-3.113 -3.762,-3.617 l -0.152,-0.113 -4.91,-2.672 -0.184,-0.008 -0.574,0.082 -0.574,0.078 -0.184,0.059 -0.144,0.156 c -0.539,0.656 -0.539,0.645 -3.789,4.68 0,0.004 -0.012,0.019 -0.032,0.039 -0.004,0.008 -0.004,0.008 -0.007,0.012 -0.008,0.011 -0.016,0.031 -0.024,0.042 -0.012,0.012 -0.019,0.024 -0.023,0.04 -0.008,0.007 -0.008,0.011 -0.012,0.019 -0.008,0.016 -0.016,0.035 -0.023,0.051 -0.012,0.023 -0.024,0.047 -0.036,0.074 -0.004,0.012 -0.004,0.016 -0.007,0.024 -0.004,0.011 -0.008,0.031 -0.012,0.042 -0.016,0.043 -0.028,0.09 -0.035,0.141 -0.008,0.031 -0.012,0.063 -0.016,0.098 -0.008,0.051 -0.008,0.105 -0.008,0.164 0,0.039 0,0.078 0.008,0.117 0.004,0.066 0.02,0.137 0.035,0.211 0.012,0.039 0.016,0.078 0.031,0.117 0.036,0.117 0.086,0.242 0.161,0.371 0.523,0.961 1.55,2.696 1.601,2.789 0.008,0.004 0.024,0.047 0.039,0.086 0.008,0.012 0.016,0.028 0.02,0.043 0.023,0.059 0.047,0.137 0.066,0.223 0.008,0.019 0.012,0.043 0.016,0.066 0.019,0.098 0.035,0.207 0.035,0.324 0,0.02 -0.004,0.036 -0.004,0.051 -0.008,0.117 -0.027,0.242 -0.066,0.367 -0.008,0.016 -0.008,0.032 -0.016,0.047 -0.004,0.016 -0.012,0.028 -0.016,0.035 -0.031,0.079 -0.07,0.157 -0.121,0.231 -0.043,0.062 -0.086,0.137 -0.129,0.211 -0.007,0.012 -0.011,0.031 -0.019,0.043 -0.137,0.269 -0.258,0.609 -0.344,0.98 -0.012,0.051 -0.023,0.098 -0.031,0.145 -0.039,0.207 -0.07,0.418 -0.082,0.629 -0.008,0.211 0.004,0.414 0.031,0.613 0.008,0.051 0.016,0.102 0.024,0.152 0.039,0.2 0.093,0.395 0.179,0.571 0.074,0.148 0.11,0.269 0.133,0.379 0.008,0.039 0.004,0.07 0.008,0.105 0.004,0.066 0.004,0.129 -0.012,0.184 -0.016,0.05 -0.027,0.101 -0.055,0.14 0,0.004 0,0.004 -0.003,0.004 -0.036,0.055 -0.086,0.098 -0.145,0.137 -0.012,0.008 -0.023,0.012 -0.031,0.016 -0.039,0.023 -0.078,0.043 -0.121,0.062 -0.114,0.047 -0.239,0.082 -0.375,0.113 -0.043,0.012 -0.09,0.02 -0.133,0.028 -0.117,0.023 -0.238,0.047 -0.352,0.07 -0.093,0.02 -0.207,0.047 -0.336,0.082 h -0.007 c -0.129,0.035 -0.27,0.074 -0.426,0.125 -0.028,0.008 -0.063,0.02 -0.086,0.031 -0.137,0.043 -0.278,0.09 -0.426,0.149 -0.055,0.019 -0.113,0.047 -0.168,0.07 -0.137,0.055 -0.269,0.109 -0.41,0.176 -0.012,0.004 -0.02,0.008 -0.031,0.012 -0.075,0.035 -0.149,0.082 -0.223,0.117 -0.117,0.058 -0.234,0.117 -0.355,0.183 -0.098,0.059 -0.2,0.121 -0.297,0.184 -0.114,0.07 -0.223,0.133 -0.332,0.207 -0.016,0.012 -0.032,0.019 -0.047,0.027 -0.039,0.032 -0.082,0.071 -0.121,0.102 -0.2,0.14 -0.395,0.297 -0.59,0.465 -0.039,0.035 -0.082,0.058 -0.121,0.093 -0.121,0.11 -0.242,0.227 -0.364,0.348 -0.07,0.07 -0.136,0.145 -0.199,0.211 -0.008,0.012 -0.015,0.02 -0.023,0.031 -0.067,0.078 -0.121,0.153 -0.176,0.223 -0.016,0.023 -0.039,0.047 -0.055,0.07 -0.008,0.008 -0.008,0.012 -0.015,0.02 -0.032,0.047 -0.055,0.09 -0.082,0.136 -0.024,0.036 -0.047,0.071 -0.067,0.106 -0.004,0.008 -0.008,0.012 -0.011,0.023 -0.024,0.043 -0.04,0.086 -0.059,0.129 -0.012,0.032 -0.031,0.063 -0.039,0.09 -0.004,0.008 0,0.012 -0.004,0.016 -0.039,0.105 -0.059,0.203 -0.07,0.293 0,0.023 -0.004,0.043 -0.004,0.062 -0.004,0.078 0,0.156 0.011,0.231 v 0.031 c 0.02,0.078 0.043,0.148 0.075,0.219 0.007,0.015 0.015,0.031 0.023,0.047 0.031,0.058 0.067,0.117 0.106,0.168 0.003,0.003 0.007,0.007 0.011,0.015 0.043,0.055 0.09,0.106 0.141,0.149 0.012,0.011 0.023,0.023 0.031,0.035 0.047,0.039 0.094,0.078 0.141,0.109 0,0.004 0.004,0.004 0.004,0.008 0.047,0.031 0.093,0.062 0.133,0.09 0.015,0.008 0.027,0.015 0.039,0.023 0.035,0.02 0.062,0.035 0.086,0.051 0.003,0.004 0.007,0.004 0.011,0.008 l 2.656,1.445 c -0.015,0.024 -0.031,0.051 -0.05,0.078 -0.032,0.035 -0.063,0.074 -0.094,0.114 -0.063,0.078 -0.125,0.152 -0.207,0.234 -0.039,0.043 -0.078,0.086 -0.121,0.133 -0.047,0.051 -0.102,0.133 -0.149,0.191 -0.078,0.098 -0.152,0.192 -0.238,0.309 -0.023,0.031 -0.039,0.051 -0.062,0.082 -0.102,0.148 -0.211,0.308 -0.317,0.476 -0.012,0.016 -0.019,0.032 -0.027,0.047 -0.141,0.219 -0.281,0.453 -0.422,0.696 -0.035,0.058 -0.07,0.117 -0.105,0.175 -0.145,0.254 -0.29,0.512 -0.43,0.774 0,0.004 0,0.004 -0.004,0.008 -0.047,0.089 -0.094,0.175 -0.141,0.265 -0.109,0.215 -0.222,0.422 -0.324,0.633 -0.035,0.062 -0.062,0.125 -0.094,0.187 -0.113,0.227 -0.222,0.446 -0.32,0.657 -0.035,0.074 -0.062,0.14 -0.098,0.215 -0.082,0.179 -0.164,0.359 -0.23,0.515 -0.039,0.098 -0.07,0.172 -0.106,0.262 -0.039,0.094 -0.086,0.207 -0.117,0.289 -0.011,0.031 -0.019,0.062 -0.031,0.09 -0.32,0.887 -0.082,1.375 0.316,1.594 l 4.914,2.671 c -0.011,-0.007 -0.019,-0.015 -0.027,-0.023 0.199,0.117 0.442,0.172 0.684,0.168 l 8.925,-1.254 8.92984,-1.25797 c 0.699,-0.179 1.445,-0.824 0.988,-2.011 z"
         sodipodi:nodetypes="ccccccccccccccccccccccccsccccccscccccccccscccccccccccccccccccccccccccccccccccccccccccccccccccccccccccccccccccccccccccccccccccccccccccccccccc" />
      <path
         inkscape:connector-curvature="0"
         id="path143746-1"
         style="display:inline;fill:#558e34;fill-opacity:1;stroke:none;stroke-width:0.44795448;stroke-linecap:round;stroke-linejoin:round;stroke-miterlimit:4;stroke-dasharray:none;stroke-opacity:1"
         d="m 517.39076,468.90435 c -0.464,-1.184 -2.289,-4.305 -3.324,-5.067 -1.023,-0.777 -0.508,-1.355 -0.047,-1.527 0.473,-0.18 2.067,-0.735 2.379,-1.008 0.309,-0.27 1.653,-1.379 0.008,-2.586 -0.2159,-0.12225 -0.41798,-0.2675 -0.629,-0.398 l -4.578,-2.493 c 0.117,-0.988 -0.207,-2 -0.566,-2.433 -0.469,-0.543 -0.075,-1.418 -0.055,-1.461 0.055,-0.109 1.09,-2.129 1.617,-3.238 0.527,-1.102 0.031,-1.539 0.004,-1.567 -3.234,-3.125 -3.234,-3.113 -3.762,-3.617 l -0.152,-0.113 -4.91,-2.672 -0.184,-0.008 -0.574,0.082 -0.574,0.078 -0.184,0.059 -0.144,0.156 c -0.539,0.656 -0.539,0.645 -3.789,4.68 0,0.004 -0.012,0.019 -0.032,0.039 -0.004,0.008 -0.004,0.008 -0.007,0.012 -0.008,0.011 -0.016,0.031 -0.024,0.042 -0.012,0.012 -0.019,0.024 -0.023,0.04 -0.008,0.007 -0.008,0.011 -0.012,0.019 -0.008,0.016 -0.016,0.035 -0.023,0.051 -0.012,0.023 -0.024,0.047 -0.036,0.074 -0.004,0.012 -0.004,0.016 -0.007,0.024 -0.004,0.011 -0.008,0.031 -0.012,0.042 -0.016,0.043 -0.028,0.09 -0.035,0.141 -0.008,0.031 -0.012,0.063 -0.016,0.098 -0.008,0.051 -0.008,0.105 -0.008,0.164 0,0.039 0,0.078 0.008,0.117 0.004,0.066 0.02,0.137 0.035,0.211 0.012,0.039 0.016,0.078 0.031,0.117 0.036,0.117 0.086,0.242 0.161,0.371 0.523,0.961 1.55,2.696 1.601,2.789 0.008,0.004 0.024,0.047 0.039,0.086 0.008,0.012 0.016,0.028 0.02,0.043 0.023,0.059 0.047,0.137 0.066,0.223 0.008,0.019 0.012,0.043 0.016,0.066 0.019,0.098 0.035,0.207 0.035,0.324 0,0.02 -0.004,0.036 -0.004,0.051 -0.008,0.117 -0.027,0.242 -0.066,0.367 -0.008,0.016 -0.008,0.032 -0.016,0.047 -0.004,0.016 -0.012,0.028 -0.016,0.035 -0.031,0.079 -0.07,0.157 -0.121,0.231 -0.043,0.062 -0.086,0.137 -0.129,0.211 -0.007,0.012 -0.011,0.031 -0.019,0.043 -0.13699,0.269 -0.258,0.609 -0.34399,0.98 -0.012,0.051 -0.023,0.098 -0.031,0.145 -0.039,0.207 -0.07,0.418 -0.082,0.629 -0.008,0.211 0.004,0.414 0.031,0.613 0.008,0.051 0.016,0.102 0.024,0.152 0.039,0.2 0.093,0.395 0.179,0.571 0.074,0.148 0.11,0.269 0.133,0.379 0.008,0.039 0.004,0.07 0.008,0.105 0.004,0.066 0.004,0.129 -0.012,0.184 -0.016,0.05 -0.027,0.101 -0.055,0.14 0,0.004 0,0.004 -0.003,0.004 -0.036,0.055 -0.086,0.098 -0.145,0.137 -0.012,0.008 -0.023,0.012 -0.031,0.016 -0.039,0.023 -0.078,0.043 -0.121,0.062 -0.114,0.047 -0.239,0.082 -0.375,0.113 -0.043,0.012 -0.09,0.02 -0.133,0.028 -0.117,0.023 -0.238,0.047 -0.352,0.07 -0.093,0.02 -0.207,0.047 -0.336,0.082 h -0.007 c -0.129,0.035 -0.27,0.074 -0.426,0.125 -0.028,0.008 -0.063,0.02 -0.086,0.031 -0.137,0.043 -0.278,0.09 -0.426,0.149 -0.055,0.019 -0.113,0.047 -0.168,0.07 -0.137,0.055 -0.269,0.109 -0.41,0.176 -0.012,0.004 -0.02,0.008 -0.031,0.012 -0.075,0.035 -0.149,0.082 -0.223,0.117 -0.117,0.058 -0.234,0.117 -0.355,0.183 -0.098,0.059 -0.2,0.121 -0.297,0.184 -0.114,0.07 -0.223,0.133 -0.332,0.207 -0.016,0.012 -0.032,0.019 -0.047,0.027 -0.039,0.032 -0.082,0.071 -0.121,0.102 -0.2,0.14 -0.395,0.297 -0.59,0.465 -0.039,0.035 -0.082,0.058 -0.121,0.093 -0.121,0.11 -0.242,0.227 -0.364,0.348 -0.07,0.07 -0.136,0.145 -0.199,0.211 -0.008,0.012 -0.015,0.02 -0.023,0.031 -0.067,0.078 -0.121,0.153 -0.176,0.223 -0.016,0.023 -0.039,0.047 -0.055,0.07 -0.008,0.008 -0.008,0.012 -0.015,0.02 -0.032,0.047 -0.055,0.09 -0.082,0.136 -0.024,0.036 -0.047,0.071 -0.067,0.106 -0.004,0.008 -0.008,0.012 -0.011,0.023 -0.024,0.043 -0.04,0.086 -0.059,0.129 -0.012,0.032 -0.031,0.063 -0.039,0.09 -0.004,0.008 0,0.012 -0.004,0.016 -0.039,0.105 -0.059,0.203 -0.07,0.293 0,0.023 -0.004,0.043 -0.004,0.062 -0.004,0.078 0,0.156 0.011,0.231 v 0.031 c 0.02,0.078 0.043,0.148 0.075,0.219 0.007,0.015 0.015,0.031 0.023,0.047 0.031,0.058 0.067,0.117 0.106,0.168 0.003,0.003 0.007,0.007 0.011,0.015 0.043,0.055 0.09,0.106 0.141,0.149 0.012,0.011 0.023,0.023 0.031,0.035 0.047,0.039 0.094,0.078 0.141,0.109 0,0.004 0.004,0.004 0.004,0.008 0.047,0.031 0.093,0.062 0.133,0.09 0.015,0.008 0.027,0.015 0.039,0.023 0.035,0.02 0.062,0.035 0.086,0.051 0.003,0.004 0.007,0.004 0.011,0.008 l 2.656,1.445 c -0.015,0.024 -0.031,0.051 -0.05,0.078 -0.032,0.035 -0.063,0.074 -0.094,0.114 -0.063,0.078 -0.125,0.152 -0.207,0.234 -0.039,0.043 -0.078,0.086 -0.121,0.133 -0.047,0.051 -0.102,0.133 -0.149,0.191 -0.078,0.098 -0.152,0.192 -0.238,0.309 -0.023,0.031 -0.039,0.051 -0.062,0.082 -0.102,0.148 -0.211,0.308 -0.317,0.476 -0.012,0.016 -0.019,0.032 -0.027,0.047 -0.141,0.219 -0.281,0.453 -0.422,0.696 -0.035,0.058 -0.07,0.117 -0.105,0.175 -0.145,0.254 -0.29,0.512 -0.43,0.774 0,0.004 0,0.004 -0.004,0.008 -0.047,0.089 -0.094,0.175 -0.141,0.265 -0.109,0.215 -0.222,0.422 -0.324,0.633 -0.035,0.062 -0.062,0.125 -0.094,0.187 -0.113,0.227 -0.222,0.446 -0.32,0.657 -0.035,0.074 -0.062,0.14 -0.098,0.215 -0.082,0.179 -0.164,0.359 -0.23,0.515 -0.039,0.098 -0.07,0.172 -0.106,0.262 -0.039,0.094 -0.086,0.207 -0.117,0.289 -0.011,0.031 -0.019,0.062 -0.031,0.09 -0.32,0.887 -0.082,1.375 0.316,1.594 l 4.914,2.671 c -0.011,-0.007 -0.019,-0.015 -0.027,-0.023 0.199,0.117 0.442,0.172 0.684,0.168 l 8.92484,-1.25397 8.92984,-1.25797 c 0.699,-0.179 1.445,-0.824 0.988,-2.011 z"
         sodipodi:nodetypes="ccccccccccccccccccccccccsccccccscccccccccscccccccccccccccccccccccccccccccccccccccccccccccccccccccccccccccccccccccccccccccccccccccccccccccccc" />
      <path
         inkscape:connector-curvature="0"
         id="path144482"
         style="display:inline;fill:#68ae40;fill-opacity:1;fill-rule:nonzero;stroke:#000000;stroke-width:0.15517376;stroke-miterlimit:4;stroke-dasharray:none;stroke-opacity:1"
         d="m 508.113,443.383 0.18,0.004 0.148,0.113 c 0.536,0.496 0.536,0.488 3.77,3.613 0.023,0.024 0.516,0.461 -0.004,1.575 -0.531,1.101 -1.562,3.128 -1.617,3.234 -0.024,0.047 -0.418,0.914 0.055,1.461 0.46,0.551 0.867,2.058 0.355,3.242 -0.527,1.184 0.355,0.98 1.078,0.93 0.719,-0.039 2.684,-0.067 4.328,1.148 1.649,1.219 0.309,2.324 -0.004,2.594 -0.304,0.266 -1.906,0.82 -2.371,0.996 -0.468,0.18 -0.988,0.754 0.043,1.527 1.031,0.778 2.86,3.891 3.321,5.082 0.464,1.188 -0.29,1.821 -0.989,2.004 l -8.922,1.254 -8.929,1.258 c -0.7,0.012 -1.442,-0.414 -0.973,-1.73 0.465,-1.321 2.297,-4.95 3.332,-6.02 1.035,-1.063 0.524,-1.492 0.059,-1.539 -0.465,-0.047 -2.067,-0.149 -2.379,-0.328 -0.301,-0.184 -1.645,-0.91 0.008,-2.598 1.66,-1.676 3.617,-2.199 4.343,-2.363 0.723,-0.152 1.594,-0.199 1.082,-1.235 -0.507,-1.042 -0.097,-2.664 0.368,-3.343 0.464,-0.68 0.074,-1.438 0.05,-1.477 -0.054,-0.09 -1.078,-1.828 -1.597,-2.785 -0.524,-0.961 -0.02,-1.543 0.004,-1.57 3.242,-4.035 3.242,-4.028 3.781,-4.676 l 0.144,-0.156 0.184,-0.051 0.578,-0.082 z" />
    </g>
  </g>
</svg>
