<?xml version="1.0" encoding="UTF-8" standalone="no"?>
<!-- Created with Inkscape (http://www.inkscape.org/) -->

<svg
   xmlns:dc="http://purl.org/dc/elements/1.1/"
   xmlns:cc="http://creativecommons.org/ns#"
   xmlns:rdf="http://www.w3.org/1999/02/22-rdf-syntax-ns#"
   xmlns:svg="http://www.w3.org/2000/svg"
   xmlns="http://www.w3.org/2000/svg"
   xmlns:sodipodi="http://sodipodi.sourceforge.net/DTD/sodipodi-0.dtd"
   xmlns:inkscape="http://www.inkscape.org/namespaces/inkscape"
   width="9.0320778mm"
   height="10.905867mm"
   viewBox="0 0 9.0320778 10.905867"
   version="1.1"
   id="svg162456"
   inkscape:version="0.92.3 (2405546, 2018-03-11)"
   sodipodi:docname="Abbot_yellow_f.svg">
  <defs
     id="defs162450">
    <clipPath
       clipPathUnits="userSpaceOnUse"
       id="clipPath145246">
      <path
         d="m 421.723,440.715 h 25.016 v 32.703 h -25.016 z"
         id="path145244"
         inkscape:connector-curvature="0" />
    </clipPath>
    <clipPath
       clipPathUnits="userSpaceOnUse"
       id="clipPath145256">
      <path
         d="M 0,0 H 576 V 903 H 0 Z"
         id="path145254"
         inkscape:connector-curvature="0" />
    </clipPath>
    <clipPath
       clipPathUnits="userSpaceOnUse"
       id="clipPath145268">
      <path
         d="M 0,0 H 576 V 903 H 0 Z"
         id="path145266"
         inkscape:connector-curvature="0" />
    </clipPath>
    <clipPath
       clipPathUnits="userSpaceOnUse"
       id="clipPath145278">
      <path
         d="m 435.301,454.855 h 9.695 v 3.457 h -9.695 z"
         id="path145276"
         inkscape:connector-curvature="0" />
    </clipPath>
    <clipPath
       clipPathUnits="userSpaceOnUse"
       id="clipPath145288">
      <path
         d="M 0,0 H 576 V 903 H 0 Z"
         id="path145286"
         inkscape:connector-curvature="0" />
    </clipPath>
    <clipPath
       clipPathUnits="userSpaceOnUse"
       id="clipPath145300">
      <path
         d="M 0,0 H 576 V 903 H 0 Z"
         id="path145298"
         inkscape:connector-curvature="0" />
    </clipPath>
    <clipPath
       clipPathUnits="userSpaceOnUse"
       id="clipPath145310">
      <path
         d="m 435,454 h 10 v 5 h -10 z"
         id="path145308"
         inkscape:connector-curvature="0" />
    </clipPath>
    <clipPath
       clipPathUnits="userSpaceOnUse"
       id="clipPath145320">
      <path
         d="M 0,0 H 576 V 903 H 0 Z"
         id="path145318"
         inkscape:connector-curvature="0" />
    </clipPath>
    <clipPath
       clipPathUnits="userSpaceOnUse"
       id="clipPath145330">
      <path
         d="m 435,454 h 10 v 5 h -10 z"
         id="path145328"
         inkscape:connector-curvature="0" />
    </clipPath>
    <clipPath
       clipPathUnits="userSpaceOnUse"
       id="clipPath145336">
      <path
         d="m 440.215,457.527 -4.914,-2.672 c 0.234,0.129 0.672,0.055 1.062,0.032 0.641,-0.039 2.227,-0.063 3.723,0.754 l 4.91,2.672 c -1.496,-0.817 -3.082,-0.793 -3.723,-0.754 -0.39,0.027 -0.824,0.097 -1.058,-0.032"
         id="path145334"
         inkscape:connector-curvature="0" />
    </clipPath>
    <clipPath
       clipPathUnits="userSpaceOnUse"
       id="clipPath145346">
      <path
         d="M 0,0 H 576 V 903 H 0 Z"
         id="path145344"
         inkscape:connector-curvature="0" />
    </clipPath>
    <clipPath
       clipPathUnits="userSpaceOnUse"
       id="clipPath145358">
      <path
         d="M 0,0 H 576 V 903 H 0 Z"
         id="path145356"
         inkscape:connector-curvature="0" />
    </clipPath>
    <clipPath
       clipPathUnits="userSpaceOnUse"
       id="clipPath145368">
      <path
         d="m 435.301,454.855 h 9.695 v 3.457 h -9.695 z"
         id="path145366"
         inkscape:connector-curvature="0" />
    </clipPath>
    <clipPath
       clipPathUnits="userSpaceOnUse"
       id="clipPath145378">
      <path
         d="M 0,0 H 576 V 903 H 0 Z"
         id="path145376"
         inkscape:connector-curvature="0" />
    </clipPath>
    <clipPath
       clipPathUnits="userSpaceOnUse"
       id="clipPath145390">
      <path
         d="M 0,0 H 576 V 903 H 0 Z"
         id="path145388"
         inkscape:connector-curvature="0" />
    </clipPath>
    <clipPath
       clipPathUnits="userSpaceOnUse"
       id="clipPath145410">
      <path
         d="m 421.723,461.547 h 9 v 11.723 h -9 z"
         id="path145408"
         inkscape:connector-curvature="0" />
    </clipPath>
    <clipPath
       clipPathUnits="userSpaceOnUse"
       id="clipPath145420">
      <path
         d="M 0,0 H 576 V 903 H 0 Z"
         id="path145418"
         inkscape:connector-curvature="0" />
    </clipPath>
    <clipPath
       clipPathUnits="userSpaceOnUse"
       id="clipPath145432">
      <path
         d="M 0,0 H 576 V 903 H 0 Z"
         id="path145430"
         inkscape:connector-curvature="0" />
    </clipPath>
    <clipPath
       clipPathUnits="userSpaceOnUse"
       id="clipPath145442">
      <path
         d="m 421,461 h 10 v 13 h -10 z"
         id="path145440"
         inkscape:connector-curvature="0" />
    </clipPath>
    <clipPath
       clipPathUnits="userSpaceOnUse"
       id="clipPath145452">
      <path
         d="M 0,0 H 576 V 903 H 0 Z"
         id="path145450"
         inkscape:connector-curvature="0" />
    </clipPath>
    <clipPath
       clipPathUnits="userSpaceOnUse"
       id="clipPath145462">
      <path
         d="m 421,461 h 10 v 13 h -10 z"
         id="path145460"
         inkscape:connector-curvature="0" />
    </clipPath>
    <clipPath
       clipPathUnits="userSpaceOnUse"
       id="clipPath145468">
      <path
         d="m 427.102,473.27 -4.914,-2.668 c -0.399,-0.219 -0.633,-0.7 -0.321,-1.586 0.465,-1.321 2.309,-4.95 3.344,-6.02 0.809,-0.832 0.664,-1.273 0.344,-1.449 l 4.91,2.672 c 0.324,0.176 0.465,0.617 -0.344,1.449 -1.035,1.07 -2.875,4.699 -3.344,6.02 -0.312,0.886 -0.078,1.367 0.325,1.582"
         id="path145466"
         inkscape:connector-curvature="0" />
    </clipPath>
    <clipPath
       clipPathUnits="userSpaceOnUse"
       id="clipPath145478">
      <path
         d="M 0,0 H 576 V 903 H 0 Z"
         id="path145476"
         inkscape:connector-curvature="0" />
    </clipPath>
    <clipPath
       clipPathUnits="userSpaceOnUse"
       id="clipPath145490">
      <path
         d="M 0,0 H 576 V 903 H 0 Z"
         id="path145488"
         inkscape:connector-curvature="0" />
    </clipPath>
    <clipPath
       clipPathUnits="userSpaceOnUse"
       id="clipPath145500">
      <path
         d="m 421.723,461.547 h 9 v 11.723 h -9 z"
         id="path145498"
         inkscape:connector-curvature="0" />
    </clipPath>
    <clipPath
       clipPathUnits="userSpaceOnUse"
       id="clipPath145510">
      <path
         d="M 0,0 H 576 V 903 H 0 Z"
         id="path145508"
         inkscape:connector-curvature="0" />
    </clipPath>
    <clipPath
       clipPathUnits="userSpaceOnUse"
       id="clipPath145522">
      <path
         d="M 0,0 H 576 V 903 H 0 Z"
         id="path145520"
         inkscape:connector-curvature="0" />
    </clipPath>
    <clipPath
       clipPathUnits="userSpaceOnUse"
       id="clipPath145556">
      <path
         d="m 422.086,450.113 h 11.734 v 13.691 h -11.734 z"
         id="path145554"
         inkscape:connector-curvature="0" />
    </clipPath>
    <clipPath
       clipPathUnits="userSpaceOnUse"
       id="clipPath145566">
      <path
         d="M 0,0 H 576 V 903 H 0 Z"
         id="path145564"
         inkscape:connector-curvature="0" />
    </clipPath>
    <clipPath
       clipPathUnits="userSpaceOnUse"
       id="clipPath145578">
      <path
         d="M 0,0 H 576 V 903 H 0 Z"
         id="path145576"
         inkscape:connector-curvature="0" />
    </clipPath>
    <clipPath
       clipPathUnits="userSpaceOnUse"
       id="clipPath145588">
      <path
         d="m 422,450 h 12 v 14 h -12 z"
         id="path145586"
         inkscape:connector-curvature="0" />
    </clipPath>
    <clipPath
       clipPathUnits="userSpaceOnUse"
       id="clipPath145598">
      <path
         d="M 0,0 H 576 V 903 H 0 Z"
         id="path145596"
         inkscape:connector-curvature="0" />
    </clipPath>
    <clipPath
       clipPathUnits="userSpaceOnUse"
       id="clipPath145608">
      <path
         d="m 422,450 h 12 v 14 h -12 z"
         id="path145606"
         inkscape:connector-curvature="0" />
    </clipPath>
    <clipPath
       clipPathUnits="userSpaceOnUse"
       id="clipPath145614">
      <path
         d="m 427.813,463.805 -4.915,-2.672 c -0.003,0 -0.003,-0.004 -0.007,-0.004 -0.313,-0.184 -1.649,-0.91 0.004,-2.598 1.652,-1.676 3.617,-2.199 4.335,-2.363 0.723,-0.152 1.602,-0.199 1.094,-1.234 -0.519,-1.039 -0.109,-2.664 0.36,-3.344 0.464,-0.68 0.078,-1.438 0.054,-1.477 l 4.914,2.672 c 0.02,0.039 0.407,0.797 -0.058,1.477 -0.465,0.679 -0.879,2.301 -0.36,3.343 0.512,1.036 -0.371,1.083 -1.089,1.235 -0.723,0.164 -2.684,0.687 -4.336,2.363 -1.657,1.688 -0.321,2.414 -0.008,2.598 z"
         id="path145612"
         inkscape:connector-curvature="0" />
    </clipPath>
    <clipPath
       clipPathUnits="userSpaceOnUse"
       id="clipPath145624">
      <path
         d="M 0,0 H 576 V 903 H 0 Z"
         id="path145622"
         inkscape:connector-curvature="0" />
    </clipPath>
    <clipPath
       clipPathUnits="userSpaceOnUse"
       id="clipPath145636">
      <path
         d="M 0,0 H 576 V 903 H 0 Z"
         id="path145634"
         inkscape:connector-curvature="0" />
    </clipPath>
    <clipPath
       clipPathUnits="userSpaceOnUse"
       id="clipPath145646">
      <path
         d="m 422.086,450.113 h 11.734 v 13.691 h -11.734 z"
         id="path145644"
         inkscape:connector-curvature="0" />
    </clipPath>
    <clipPath
       clipPathUnits="userSpaceOnUse"
       id="clipPath145656">
      <path
         d="M 0,0 H 576 V 903 H 0 Z"
         id="path145654"
         inkscape:connector-curvature="0" />
    </clipPath>
    <clipPath
       clipPathUnits="userSpaceOnUse"
       id="clipPath145668">
      <path
         d="M 0,0 H 576 V 903 H 0 Z"
         id="path145666"
         inkscape:connector-curvature="0" />
    </clipPath>
    <clipPath
       clipPathUnits="userSpaceOnUse"
       id="clipPath145724">
      <path
         d="m 427.141,441.086 h 8.691 v 7.344 h -8.691 z"
         id="path145722"
         inkscape:connector-curvature="0" />
    </clipPath>
    <clipPath
       clipPathUnits="userSpaceOnUse"
       id="clipPath145734">
      <path
         d="M 0,0 H 576 V 903 H 0 Z"
         id="path145732"
         inkscape:connector-curvature="0" />
    </clipPath>
    <clipPath
       clipPathUnits="userSpaceOnUse"
       id="clipPath145746">
      <path
         d="M 0,0 H 576 V 903 H 0 Z"
         id="path145744"
         inkscape:connector-curvature="0" />
    </clipPath>
    <clipPath
       clipPathUnits="userSpaceOnUse"
       id="clipPath145756">
      <path
         d="m 427,441 h 9 v 8 h -9 z"
         id="path145754"
         inkscape:connector-curvature="0" />
    </clipPath>
    <clipPath
       clipPathUnits="userSpaceOnUse"
       id="clipPath145766">
      <path
         d="M 0,0 H 576 V 903 H 0 Z"
         id="path145764"
         inkscape:connector-curvature="0" />
    </clipPath>
    <clipPath
       clipPathUnits="userSpaceOnUse"
       id="clipPath145776">
      <path
         d="m 427,441 h 9 v 8 h -9 z"
         id="path145774"
         inkscape:connector-curvature="0" />
    </clipPath>
    <clipPath
       clipPathUnits="userSpaceOnUse"
       id="clipPath145782">
      <path
         d="m 432.051,448.43 -4.91,-2.672 c 3.242,-4.035 3.25,-4.028 3.777,-4.672 l 4.914,2.672 c -0.531,0.644 -0.539,0.637 -3.781,4.672"
         id="path145780"
         inkscape:connector-curvature="0" />
    </clipPath>
    <clipPath
       clipPathUnits="userSpaceOnUse"
       id="clipPath145792">
      <path
         d="M 0,0 H 576 V 903 H 0 Z"
         id="path145790"
         inkscape:connector-curvature="0" />
    </clipPath>
    <clipPath
       clipPathUnits="userSpaceOnUse"
       id="clipPath145804">
      <path
         d="M 0,0 H 576 V 903 H 0 Z"
         id="path145802"
         inkscape:connector-curvature="0" />
    </clipPath>
    <clipPath
       clipPathUnits="userSpaceOnUse"
       id="clipPath145814">
      <path
         d="m 427.141,441.086 h 8.691 v 7.344 h -8.691 z"
         id="path145812"
         inkscape:connector-curvature="0" />
    </clipPath>
    <clipPath
       clipPathUnits="userSpaceOnUse"
       id="clipPath145824">
      <path
         d="M 0,0 H 576 V 903 H 0 Z"
         id="path145822"
         inkscape:connector-curvature="0" />
    </clipPath>
    <clipPath
       clipPathUnits="userSpaceOnUse"
       id="clipPath145836">
      <path
         d="M 0,0 H 576 V 903 H 0 Z"
         id="path145834"
         inkscape:connector-curvature="0" />
    </clipPath>
    <clipPath
       clipPathUnits="userSpaceOnUse"
       id="clipPath145848">
      <path
         d="m 426.895,445.758 h 6.758 v 7.027 h -6.758 z"
         id="path145846"
         inkscape:connector-curvature="0" />
    </clipPath>
    <clipPath
       clipPathUnits="userSpaceOnUse"
       id="clipPath145858">
      <path
         d="M 0,0 H 576 V 903 H 0 Z"
         id="path145856"
         inkscape:connector-curvature="0" />
    </clipPath>
    <clipPath
       clipPathUnits="userSpaceOnUse"
       id="clipPath145870">
      <path
         d="M 0,0 H 576 V 903 H 0 Z"
         id="path145868"
         inkscape:connector-curvature="0" />
    </clipPath>
    <clipPath
       clipPathUnits="userSpaceOnUse"
       id="clipPath145880">
      <path
         d="m 426,445 h 8 v 8 h -8 z"
         id="path145878"
         inkscape:connector-curvature="0" />
    </clipPath>
    <clipPath
       clipPathUnits="userSpaceOnUse"
       id="clipPath145890">
      <path
         d="M 0,0 H 576 V 903 H 0 Z"
         id="path145888"
         inkscape:connector-curvature="0" />
    </clipPath>
    <clipPath
       clipPathUnits="userSpaceOnUse"
       id="clipPath145900">
      <path
         d="m 426,445 h 8 v 8 h -8 z"
         id="path145898"
         inkscape:connector-curvature="0" />
    </clipPath>
    <clipPath
       clipPathUnits="userSpaceOnUse"
       id="clipPath145906">
      <path
         d="m 433.652,452.785 -4.914,-2.672 c -0.05,-0.093 -1.078,-1.828 -1.601,-2.781 -0.528,-0.965 -0.024,-1.543 0.004,-1.574 l 4.91,2.672 c -0.028,0.031 -0.531,0.609 -0.004,1.574 0.527,0.953 1.551,2.687 1.605,2.781"
         id="path145904"
         inkscape:connector-curvature="0" />
    </clipPath>
    <clipPath
       clipPathUnits="userSpaceOnUse"
       id="clipPath145916">
      <path
         d="M 0,0 H 576 V 903 H 0 Z"
         id="path145914"
         inkscape:connector-curvature="0" />
    </clipPath>
    <clipPath
       clipPathUnits="userSpaceOnUse"
       id="clipPath145928">
      <path
         d="M 0,0 H 576 V 903 H 0 Z"
         id="path145926"
         inkscape:connector-curvature="0" />
    </clipPath>
    <clipPath
       clipPathUnits="userSpaceOnUse"
       id="clipPath145938">
      <path
         d="m 426.895,445.758 h 6.758 v 7.027 h -6.758 z"
         id="path145936"
         inkscape:connector-curvature="0" />
    </clipPath>
    <clipPath
       clipPathUnits="userSpaceOnUse"
       id="clipPath145948">
      <path
         d="M 0,0 H 576 V 903 H 0 Z"
         id="path145946"
         inkscape:connector-curvature="0" />
    </clipPath>
    <clipPath
       clipPathUnits="userSpaceOnUse"
       id="clipPath145960">
      <path
         d="M 0,0 H 576 V 903 H 0 Z"
         id="path145958"
         inkscape:connector-curvature="0" />
    </clipPath>
  </defs>
  <sodipodi:namedview
     id="base"
     pagecolor="#ffffff"
     bordercolor="#666666"
     borderopacity="1.0"
     inkscape:pageopacity="0.0"
     inkscape:pageshadow="2"
     inkscape:zoom="10.656099"
     inkscape:cx="-11.69664"
     inkscape:cy="22.779119"
     inkscape:document-units="mm"
     inkscape:current-layer="layer1"
     showgrid="false"
     inkscape:window-width="1920"
     inkscape:window-height="1017"
     inkscape:window-x="-8"
     inkscape:window-y="-8"
     inkscape:window-maximized="1" />
  <metadata
     id="metadata162453">
    <rdf:RDF>
      <cc:Work
         rdf:about="">
        <dc:format>image/svg+xml</dc:format>
        <dc:type
           rdf:resource="http://purl.org/dc/dcmitype/StillImage" />
        <dc:title />
      </cc:Work>
    </rdf:RDF>
  </metadata>
  <g
     inkscape:label="Ebene 1"
     inkscape:groupmode="layer"
     id="layer1"
     transform="translate(-130.82255,-145.93271)">
    <g
       id="g145972"
       transform="matrix(-0.35469877,0,0,0.32892372,289.36066,1.0469065)"
       style="fill:#ffde17;fill-opacity:1;stroke:#231f20;stroke-width:0.15516666;stroke-miterlimit:4;stroke-dasharray:none;stroke-opacity:1"
       inkscape:label="Abbot_yellow">
      <path
         inkscape:connector-curvature="0"
         id="path145238"
         style="display:inline;fill:none;fill-opacity:1;stroke:#231f20;stroke-width:0.44500628;stroke-linecap:round;stroke-linejoin:round;stroke-miterlimit:10;stroke-dasharray:none;stroke-opacity:1"
         d="m 446.60605,468.895 c -0.469,-1.184 -2.293,-4.305 -3.329,-5.067 -1.023,-0.777 -0.503,-1.355 -0.043,-1.527 0.469,-0.18 2.063,-0.735 2.379,-1.008 0.309,-0.27 1.649,-1.379 0.004,-2.586 -0.21509,-0.1214 -0.41539,-0.26735 -0.625,-0.398 l -4.582,-2.493 c 0.117,-0.988 -0.203,-2 -0.562,-2.433 -0.469,-0.543 -0.078,-1.418 -0.055,-1.461 0.055,-0.109 1.086,-2.129 1.617,-3.238 0.528,-1.102 0.028,-1.539 0.004,-1.567 -3.238,-3.125 -3.238,-3.113 -3.765,-3.617 l -0.149,-0.113 -4.914,-2.672 -0.184,-0.008 -0.574,0.082 -0.574,0.078 -0.184,0.059 -0.144,0.156 c -0.539,0.656 -0.539,0.645 -3.785,4.68 -0.004,0.004 -0.016,0.019 -0.032,0.039 -0.003,0.008 -0.003,0.008 -0.011,0.012 -0.004,0.011 -0.012,0.031 -0.024,0.042 -0.007,0.012 -0.015,0.024 -0.023,0.04 -0.004,0.007 -0.008,0.011 -0.012,0.019 -0.008,0.016 -0.015,0.035 -0.023,0.051 -0.012,0.023 -0.02,0.047 -0.032,0.074 -0.003,0.012 -0.007,0.016 -0.011,0.024 -0.004,0.011 -0.004,0.031 -0.012,0.042 -0.012,0.043 -0.027,0.09 -0.035,0.141 -0.008,0.031 -0.012,0.063 -0.012,0.098 -0.008,0.051 -0.012,0.105 -0.012,0.164 0,0.039 0.004,0.078 0.008,0.117 0.008,0.066 0.02,0.137 0.039,0.211 0.008,0.039 0.016,0.078 0.028,0.117 0.039,0.117 0.086,0.242 0.16,0.371 0.527,0.961 1.551,2.696 1.605,2.789 0.004,0.004 0.024,0.047 0.039,0.086 0.008,0.012 0.012,0.028 0.02,0.043 0.019,0.059 0.047,0.137 0.066,0.223 0.004,0.019 0.012,0.043 0.016,0.066 0.019,0.098 0.031,0.207 0.031,0.324 0,0.02 0,0.036 -0.004,0.051 -0.004,0.117 -0.023,0.242 -0.066,0.367 -0.004,0.016 -0.008,0.032 -0.012,0.047 -0.004,0.016 -0.012,0.028 -0.015,0.035 -0.036,0.079 -0.071,0.157 -0.125,0.231 -0.043,0.062 -0.086,0.137 -0.129,0.211 -0.004,0.012 -0.012,0.031 -0.016,0.043 -0.141,0.269 -0.262,0.609 -0.344,0.98 -0.015,0.051 -0.023,0.098 -0.031,0.145 -0.043,0.207 -0.074,0.418 -0.082,0.629 -0.012,0.211 0.004,0.414 0.031,0.613 0.004,0.051 0.016,0.102 0.024,0.152 0.039,0.2 0.089,0.395 0.175,0.571 0.075,0.148 0.114,0.269 0.137,0.379 0.008,0.039 0.004,0.07 0.004,0.105 0.008,0.066 0.004,0.129 -0.012,0.184 -0.011,0.05 -0.027,0.101 -0.054,0.14 v 0.004 c -0.039,0.055 -0.09,0.098 -0.145,0.137 -0.012,0.008 -0.023,0.012 -0.031,0.016 -0.039,0.023 -0.082,0.043 -0.125,0.062 -0.113,0.047 -0.238,0.082 -0.371,0.113 -0.043,0.012 -0.09,0.02 -0.137,0.028 -0.117,0.023 -0.234,0.047 -0.352,0.07 -0.089,0.02 -0.203,0.047 -0.335,0.082 h -0.008 c -0.125,0.035 -0.266,0.074 -0.426,0.125 -0.027,0.008 -0.059,0.02 -0.086,0.031 -0.137,0.043 -0.277,0.09 -0.426,0.149 -0.054,0.019 -0.109,0.047 -0.164,0.07 -0.137,0.055 -0.269,0.109 -0.41,0.176 -0.012,0.004 -0.023,0.008 -0.035,0.012 -0.07,0.035 -0.149,0.082 -0.219,0.117 -0.117,0.058 -0.234,0.117 -0.355,0.183 -0.102,0.059 -0.2,0.121 -0.301,0.184 -0.11,0.07 -0.219,0.133 -0.332,0.207 -0.016,0.012 -0.028,0.019 -0.043,0.027 -0.043,0.032 -0.082,0.071 -0.125,0.102 -0.199,0.14 -0.395,0.297 -0.59,0.465 -0.039,0.035 -0.078,0.058 -0.117,0.093 -0.125,0.11 -0.246,0.227 -0.363,0.348 -0.071,0.07 -0.137,0.145 -0.2,0.211 -0.011,0.012 -0.015,0.02 -0.023,0.031 -0.07,0.078 -0.125,0.153 -0.18,0.223 -0.015,0.023 -0.039,0.047 -0.054,0.07 -0.004,0.008 -0.008,0.012 -0.012,0.02 -0.035,0.047 -0.059,0.09 -0.086,0.136 -0.02,0.036 -0.047,0.071 -0.063,0.106 -0.007,0.008 -0.007,0.012 -0.011,0.023 -0.024,0.043 -0.043,0.086 -0.059,0.129 -0.016,0.032 -0.031,0.063 -0.043,0.09 0,0.008 0,0.012 -0.004,0.016 -0.035,0.105 -0.058,0.203 -0.066,0.293 -0.004,0.023 -0.004,0.043 -0.004,0.062 -0.008,0.078 -0.004,0.156 0.008,0.231 0,0.008 0,0.019 0.004,0.031 0.015,0.078 0.039,0.148 0.074,0.219 0.004,0.015 0.012,0.031 0.019,0.047 0.032,0.058 0.067,0.117 0.106,0.168 0.004,0.003 0.008,0.007 0.012,0.015 0.042,0.055 0.089,0.106 0.14,0.149 0.012,0.011 0.024,0.023 0.035,0.035 0.047,0.039 0.094,0.078 0.137,0.109 l 0.008,0.008 c 0.047,0.031 0.09,0.062 0.133,0.09 0.015,0.008 0.023,0.015 0.039,0.023 0.031,0.02 0.062,0.035 0.086,0.051 0.004,0.004 0.007,0.004 0.011,0.008 l 2.657,1.445 c -0.016,0.024 -0.036,0.051 -0.055,0.078 -0.027,0.035 -0.059,0.074 -0.094,0.114 -0.062,0.078 -0.125,0.152 -0.203,0.234 -0.039,0.043 -0.082,0.086 -0.121,0.133 -0.047,0.051 -0.102,0.133 -0.148,0.191 -0.079,0.098 -0.157,0.192 -0.239,0.309 -0.023,0.031 -0.043,0.051 -0.062,0.082 -0.106,0.148 -0.211,0.308 -0.321,0.476 -0.007,0.016 -0.015,0.032 -0.027,0.047 -0.141,0.219 -0.281,0.453 -0.422,0.696 -0.035,0.058 -0.066,0.117 -0.101,0.175 -0.145,0.254 -0.289,0.512 -0.43,0.774 0,0.004 -0.004,0.004 -0.004,0.008 -0.051,0.089 -0.094,0.175 -0.141,0.265 -0.109,0.215 -0.222,0.422 -0.328,0.633 -0.031,0.062 -0.058,0.125 -0.093,0.187 -0.11,0.227 -0.219,0.446 -0.317,0.65701 -0.035,0.074 -0.062,0.13999 -0.098,0.21499 -0.082,0.179 -0.164,0.359 -0.23,0.515 -0.043,0.098 -0.07,0.172 -0.105,0.262 -0.04,0.094 -0.09,0.207 -0.122,0.28901 -0.011,0.031 -0.019,0.062 -0.031,0.09 -0.316,0.88699 -0.082,1.37499 0.321,1.59399 l 4.91,2.671 c -0.008,-0.007 -0.016,-0.015 -0.028,-0.023 0.2,0.117 0.446,0.172 0.684,0.168 l 8.92995,-1.25398 8.925,-1.258 c 0.7,-0.179 1.45,-0.824 0.993,-2.011 z"
         sodipodi:nodetypes="ccccccccccccccccccccccccsccccccscccccccccscccccccccccccccccccccccccccccccccccccccccccccccccccccccccccccccccccccccccccccccccccccccccccccccccc" />
      <path
         inkscape:connector-curvature="0"
         id="path145238-7"
         style="display:inline;fill:#a8930f;fill-opacity:1;stroke:none;stroke-width:0.44500628;stroke-linecap:round;stroke-linejoin:round;stroke-miterlimit:10;stroke-dasharray:none;stroke-opacity:1"
         d="m 446.60605,468.895 c -0.469,-1.184 -2.293,-4.305 -3.329,-5.067 -1.023,-0.777 -0.503,-1.355 -0.043,-1.527 0.469,-0.18 2.063,-0.735 2.379,-1.008 0.309,-0.27 1.649,-1.379 0.004,-2.586 -0.21509,-0.1214 -0.41539,-0.26735 -0.625,-0.398 l -4.582,-2.493 c 0.117,-0.988 -0.203,-2 -0.562,-2.433 -0.469,-0.543 -0.078,-1.418 -0.055,-1.461 0.055,-0.109 1.086,-2.129 1.617,-3.238 0.528,-1.102 0.028,-1.539 0.004,-1.567 -3.238,-3.125 -3.238,-3.113 -3.765,-3.617 l -0.149,-0.113 -4.914,-2.672 -0.184,-0.008 -0.574,0.082 -0.574,0.078 -0.184,0.059 -0.144,0.156 c -0.539,0.656 -0.539,0.645 -3.785,4.68 -0.004,0.004 -0.016,0.019 -0.032,0.039 -0.003,0.008 -0.003,0.008 -0.011,0.012 -0.004,0.011 -0.012,0.031 -0.024,0.042 -0.007,0.012 -0.015,0.024 -0.023,0.04 -0.004,0.007 -0.008,0.011 -0.012,0.019 -0.008,0.016 -0.015,0.035 -0.023,0.051 -0.012,0.023 -0.02,0.047 -0.032,0.074 -0.003,0.012 -0.007,0.016 -0.011,0.024 -0.004,0.011 -0.004,0.031 -0.012,0.042 -0.012,0.043 -0.027,0.09 -0.035,0.141 -0.008,0.031 -0.012,0.063 -0.012,0.098 -0.008,0.051 -0.012,0.105 -0.012,0.164 0,0.039 0.004,0.078 0.008,0.117 0.008,0.066 0.02,0.137 0.039,0.211 0.008,0.039 0.016,0.078 0.028,0.117 0.039,0.117 0.086,0.242 0.16,0.371 0.527,0.961 1.551,2.696 1.605,2.789 0.004,0.004 0.024,0.047 0.039,0.086 0.008,0.012 0.012,0.028 0.02,0.043 0.019,0.059 0.047,0.137 0.066,0.223 0.004,0.019 0.012,0.043 0.016,0.066 0.019,0.098 0.031,0.207 0.031,0.324 0,0.02 0,0.036 -0.004,0.051 -0.004,0.117 -0.023,0.242 -0.066,0.367 -0.004,0.016 -0.008,0.032 -0.012,0.047 -0.004,0.016 -0.012,0.028 -0.015,0.035 -0.036,0.079 -0.071,0.157 -0.125,0.231 -0.043,0.062 -0.086,0.137 -0.129,0.211 -0.004,0.012 -0.012,0.031 -0.016,0.043 -0.141,0.269 -0.262,0.609 -0.344,0.98 -0.015,0.051 -0.023,0.098 -0.031,0.145 -0.043,0.207 -0.074,0.418 -0.082,0.629 -0.012,0.211 0.004,0.414 0.031,0.613 0.004,0.051 0.016,0.102 0.024,0.152 0.039,0.2 0.089,0.395 0.175,0.571 0.075,0.148 0.114,0.269 0.137,0.379 0.008,0.039 0.004,0.07 0.004,0.105 0.008,0.066 0.004,0.129 -0.012,0.184 -0.011,0.05 -0.027,0.101 -0.054,0.14 v 0.004 c -0.039,0.055 -0.09,0.098 -0.145,0.137 -0.012,0.008 -0.023,0.012 -0.031,0.016 -0.039,0.023 -0.082,0.043 -0.125,0.062 -0.113,0.047 -0.238,0.082 -0.371,0.113 -0.043,0.012 -0.09,0.02 -0.137,0.028 -0.117,0.023 -0.234,0.047 -0.352,0.07 -0.089,0.02 -0.203,0.047 -0.335,0.082 h -0.008 c -0.125,0.035 -0.266,0.074 -0.426,0.125 -0.027,0.008 -0.059,0.02 -0.086,0.031 -0.137,0.043 -0.277,0.09 -0.426,0.149 -0.054,0.019 -0.109,0.047 -0.164,0.07 -0.137,0.055 -0.269,0.109 -0.41,0.176 -0.012,0.004 -0.023,0.008 -0.035,0.012 -0.07,0.035 -0.149,0.082 -0.219,0.117 -0.117,0.058 -0.234,0.117 -0.355,0.183 -0.102,0.059 -0.2,0.121 -0.301,0.184 -0.11,0.07 -0.219,0.133 -0.332,0.207 -0.016,0.012 -0.028,0.019 -0.043,0.027 -0.043,0.032 -0.082,0.071 -0.125,0.102 -0.199,0.14 -0.395,0.297 -0.59,0.465 -0.039,0.035 -0.078,0.058 -0.117,0.093 -0.125,0.11 -0.246,0.227 -0.363,0.348 -0.071,0.07 -0.137,0.145 -0.2,0.211 -0.011,0.012 -0.015,0.02 -0.023,0.031 -0.07,0.078 -0.125,0.153 -0.18,0.223 -0.015,0.023 -0.039,0.047 -0.054,0.07 -0.004,0.008 -0.008,0.012 -0.012,0.02 -0.035,0.047 -0.059,0.09 -0.086,0.136 -0.02,0.036 -0.047,0.071 -0.063,0.106 -0.007,0.008 -0.007,0.012 -0.011,0.023 -0.024,0.043 -0.043,0.086 -0.059,0.129 -0.016,0.032 -0.031,0.063 -0.043,0.09 0,0.008 0,0.012 -0.004,0.016 -0.035,0.105 -0.058,0.203 -0.066,0.293 -0.004,0.023 -0.004,0.043 -0.004,0.062 -0.008,0.078 -0.004,0.156 0.008,0.231 0,0.008 0,0.019 0.004,0.031 0.015,0.078 0.039,0.148 0.074,0.219 0.004,0.015 0.012,0.031 0.019,0.047 0.032,0.058 0.067,0.117 0.106,0.168 0.004,0.003 0.008,0.007 0.012,0.015 0.042,0.055 0.089,0.106 0.14,0.149 0.012,0.011 0.024,0.023 0.035,0.035 0.047,0.039 0.094,0.078 0.137,0.109 l 0.008,0.008 c 0.047,0.031 0.09,0.062 0.13301,0.09 0.015,0.008 0.023,0.015 0.039,0.023 0.031,0.02 0.062,0.035 0.086,0.051 0.004,0.004 0.007,0.004 0.011,0.008 l 2.657,1.445 c -0.016,0.024 -0.036,0.051 -0.055,0.078 -0.027,0.035 -0.059,0.074 -0.094,0.114 -0.062,0.078 -0.125,0.152 -0.203,0.234 -0.039,0.043 -0.082,0.086 -0.121,0.133 -0.047,0.051 -0.102,0.133 -0.148,0.191 -0.079,0.098 -0.157,0.192 -0.239,0.309 -0.023,0.031 -0.043,0.051 -0.062,0.082 -0.106,0.148 -0.211,0.308 -0.321,0.476 -0.007,0.016 -0.015,0.032 -0.027,0.047 -0.141,0.219 -0.281,0.453 -0.422,0.696 -0.035,0.058 -0.066,0.117 -0.101,0.175 -0.145,0.254 -0.289,0.512 -0.43,0.774 0,0.004 -0.004,0.004 -0.004,0.008 -0.051,0.089 -0.094,0.175 -0.141,0.265 -0.109,0.215 -0.222,0.422 -0.328,0.633 -0.031,0.062 -0.058,0.125 -0.093,0.187 -0.11,0.227 -0.219,0.446 -0.317,0.65701 -0.035,0.074 -0.062,0.13999 -0.098,0.21499 -0.082,0.179 -0.164,0.359 -0.23,0.515 -0.043,0.098 -0.07,0.172 -0.105,0.262 -0.04,0.094 -0.09,0.207 -0.122,0.28901 -0.011,0.031 -0.019,0.062 -0.031,0.09 -0.316,0.88699 -0.082,1.37499 0.321,1.59399 l 4.91,2.671 c -0.008,-0.007 -0.016,-0.015 -0.028,-0.023 0.2,0.117 0.446,0.172 0.684,0.168 l 8.9299,-1.25396 8.925,-1.258 c 0.7,-0.179 1.45,-0.824 0.993,-2.011 z"
         sodipodi:nodetypes="ccccccccccccccccccccccccsccccccscccccccccscccccccccccccccccccccccccccccccccccccccccccccccccccccccccccccccccccccccccccccccccccccccccccccccccc" />
      <path
         inkscape:connector-curvature="0"
         id="path145974"
         style="display:inline;fill:#ffde17;fill-opacity:1;fill-rule:nonzero;stroke:#231f20;stroke-width:0.15516666;stroke-miterlimit:4;stroke-dasharray:none;stroke-opacity:1"
         d="m 437.313,443.387 h 0.187 l 0.141,0.117 c 0.535,0.492 0.535,0.484 3.765,3.609 0.028,0.024 0.528,0.461 -0.004,1.575 -0.523,1.101 -1.554,3.128 -1.605,3.234 -0.024,0.047 -0.418,0.914 0.043,1.465 0.465,0.547 0.879,2.054 0.355,3.242 -0.515,1.18 0.36,0.976 1.078,0.93 0.731,-0.043 2.684,-0.067 4.34,1.144 1.645,1.219 0.301,2.324 -0.004,2.594 -0.316,0.269 -1.918,0.82 -2.371,0.996 -0.476,0.18 -0.988,0.754 0.043,1.527 1.032,0.778 2.852,3.895 3.313,5.082 0.461,1.188 -0.285,1.821 -0.981,2.004 l -8.929,1.258 -8.926,1.254 c -0.695,0.012 -1.445,-0.41 -0.981,-1.73 0.469,-1.321 2.309,-4.95 3.344,-6.02 1.035,-1.059 0.516,-1.488 0.051,-1.539 -0.465,-0.043 -2.067,-0.149 -2.371,-0.328 -0.309,-0.184 -1.645,-0.91 0.004,-2.598 1.656,-1.672 3.617,-2.199 4.34,-2.363 0.718,-0.152 1.601,-0.199 1.089,-1.235 -0.519,-1.039 -0.105,-2.664 0.36,-3.343 0.465,-0.68 0.078,-1.438 0.058,-1.477 -0.054,-0.09 -1.078,-1.828 -1.605,-2.781 -0.524,-0.965 -0.024,-1.543 0.004,-1.574 3.242,-4.035 3.25,-4.028 3.781,-4.672 l 0.152,-0.16 0.176,-0.051 0.578,-0.082 z" />
    </g>
  </g>
</svg>
