<?xml version="1.0" encoding="UTF-8" standalone="no"?><svg height="273px" width="429px" x="0px" y="0px" xmlns="http://www.w3.org/2000/svg"><title>beispielMethode()</title><desc>Export aus hus-Struktogrammer v0.1-java , www.struktogrammer.ch , Date: 26.08.22 12:22</desc><g stroke-linecap="square" stroke-linejoin="miter" stroke-width="1"><g fill-opacity="1" stroke="none"><g fill="#d3d3d3"><path d="M 0.5 0.5 L 428.5 0.5 L 428.5 272.5 L 0.5 272.5 z"/></g><g fill="#ffffff"><path d="M 20.5 25.5 L 428.5 25.5 L 428.5 252.5 L 20.5 252.5 z"/></g></g><g fill="none" stroke="#000000" stroke-opacity="1" stroke-width="1"><path d="M 427.5 25.5 L 20.5 25.5 L 20.5 252.5 L 427.5 252.5"/><path d="M 0.5 0.5 L 428.5 0.5 L 428.5 272.5 L 0.5 272.5 z"/><path d="M 20.5 81.5 L 427.5 81.5"/><path d="M 20.5 185.5 L 427.5 185.5"/><path d="M 41.5 107.5 L 427.5 107.5"/><path d="M 40.5 107.5 L 40.5 185.5"/><path d="M 40.5 159.5 L 427.5 159.5"/><path d="M 61.5 133.5 L 427.5 133.5"/><path d="M 60.5 133.5 L 60.5 159.5"/></g></g><g fill="#000000" font-family="Arial" font-size="13" font-style="normal" font-weight="normal" stroke="none" stroke-opacity="1" xml:space="preserve"><text x="26.5" y="203.5">gebe aus "Gesamtsummenzahl ist: " + sZahl</text><text x="26.5" y="99.5">Solange sZahl &lt; 100</text><text x="46.5" y="177.5">sZahl = gegebZahl + festeZahl</text><text x="46.5" y="125.5">Wiederhole 3 mal</text><text x="66.5" y="151.5">festeZahl = festeZahl + festeZahl</text><text x="26.5" y="43.5">// festeZahl = 3</text><text x="26.5" y="58.5">// gegebZahl = 4</text><text x="26.5" y="73.5">// außerhalb Deklariert und initialisiert</text><text x="5.5" y="17.5">beispielMethode()</text></g></svg>