<?xml version="1.0" encoding="UTF-8" standalone="no"?>
<!-- Created with Inkscape (http://www.inkscape.org/) -->

<svg
   xmlns:dc="http://purl.org/dc/elements/1.1/"
   xmlns:cc="http://creativecommons.org/ns#"
   xmlns:rdf="http://www.w3.org/1999/02/22-rdf-syntax-ns#"
   xmlns:svg="http://www.w3.org/2000/svg"
   xmlns="http://www.w3.org/2000/svg"
   xmlns:sodipodi="http://sodipodi.sourceforge.net/DTD/sodipodi-0.dtd"
   xmlns:inkscape="http://www.inkscape.org/namespaces/inkscape"
   width="11.254045mm"
   height="10.620082mm"
   viewBox="0 0 11.254045 10.620082"
   version="1.1"
   id="svg635120"
   inkscape:version="0.92.3 (2405546, 2018-03-11)"
   sodipodi:docname="Mayor_blue_f.svg">
  <defs
     id="defs635114">
    <clipPath
       clipPathUnits="userSpaceOnUse"
       id="clipPath175615">
      <path
         d="m 177.215,356.617 h 27.848 v 28.113 h -27.848 z"
         id="path175613"
         inkscape:connector-curvature="0" />
    </clipPath>
    <clipPath
       clipPathUnits="userSpaceOnUse"
       id="clipPath175625">
      <path
         d="M 0,0 H 576 V 903 H 0 Z"
         id="path175623"
         inkscape:connector-curvature="0" />
    </clipPath>
    <clipPath
       clipPathUnits="userSpaceOnUse"
       id="clipPath175637">
      <path
         d="M 0,0 H 576 V 903 H 0 Z"
         id="path175635"
         inkscape:connector-curvature="0" />
    </clipPath>
    <clipPath
       clipPathUnits="userSpaceOnUse"
       id="clipPath175649">
      <path
         d="M 0,0 H 576 V 903 H 0 Z"
         id="path175647"
         inkscape:connector-curvature="0" />
    </clipPath>
    <clipPath
       clipPathUnits="userSpaceOnUse"
       id="clipPath175659">
      <path
         d="m 188.957,375.793 h 7.484 v 6.754 h -7.484 z"
         id="path175657"
         inkscape:connector-curvature="0" />
    </clipPath>
    <clipPath
       clipPathUnits="userSpaceOnUse"
       id="clipPath175669">
      <path
         d="M 0,0 H 576 V 903 H 0 Z"
         id="path175667"
         inkscape:connector-curvature="0" />
    </clipPath>
    <clipPath
       clipPathUnits="userSpaceOnUse"
       id="clipPath175681">
      <path
         d="M 0,0 H 576 V 903 H 0 Z"
         id="path175679"
         inkscape:connector-curvature="0" />
    </clipPath>
    <clipPath
       clipPathUnits="userSpaceOnUse"
       id="clipPath175693">
      <path
         d="M 0,0 H 576 V 903 H 0 Z"
         id="path175691"
         inkscape:connector-curvature="0" />
    </clipPath>
    <clipPath
       clipPathUnits="userSpaceOnUse"
       id="clipPath175703">
      <path
         d="m 188,375 h 9 v 8 h -9 z"
         id="path175701"
         inkscape:connector-curvature="0" />
    </clipPath>
    <clipPath
       clipPathUnits="userSpaceOnUse"
       id="clipPath175713">
      <path
         d="M 0,0 H 576 V 903 H 0 Z"
         id="path175711"
         inkscape:connector-curvature="0" />
    </clipPath>
    <clipPath
       clipPathUnits="userSpaceOnUse"
       id="clipPath175725">
      <path
         d="M 0,0 H 576 V 903 H 0 Z"
         id="path175723"
         inkscape:connector-curvature="0" />
    </clipPath>
    <clipPath
       clipPathUnits="userSpaceOnUse"
       id="clipPath175735">
      <path
         d="m 188,375 h 9 v 8 h -9 z"
         id="path175733"
         inkscape:connector-curvature="0" />
    </clipPath>
    <clipPath
       clipPathUnits="userSpaceOnUse"
       id="clipPath175745">
      <path
         d="M 0,0 H 576 V 903 H 0 Z"
         id="path175743"
         inkscape:connector-curvature="0" />
    </clipPath>
    <clipPath
       clipPathUnits="userSpaceOnUse"
       id="clipPath175755">
      <path
         d="m 188,375 h 9 v 8 h -9 z"
         id="path175753"
         inkscape:connector-curvature="0" />
    </clipPath>
    <clipPath
       clipPathUnits="userSpaceOnUse"
       id="clipPath175761">
      <path
         d="m 196.441,382.547 -4.871,-2.652 c -0.179,-0.098 -0.371,-0.266 -0.535,-0.551 -0.078,-0.137 -1.57,-2.696 -1.89,-3.317 -0.04,-0.074 -0.082,-0.175 -0.188,-0.234 l 4.871,2.652 c 0.106,0.055 0.149,0.157 0.192,0.235 0.316,0.621 1.808,3.179 1.89,3.312 0.16,0.285 0.356,0.453 0.531,0.555"
         id="path175759"
         inkscape:connector-curvature="0" />
    </clipPath>
    <clipPath
       clipPathUnits="userSpaceOnUse"
       id="clipPath175771">
      <path
         d="M 0,0 H 576 V 903 H 0 Z"
         id="path175769"
         inkscape:connector-curvature="0" />
    </clipPath>
    <clipPath
       clipPathUnits="userSpaceOnUse"
       id="clipPath175783">
      <path
         d="M 0,0 H 576 V 903 H 0 Z"
         id="path175781"
         inkscape:connector-curvature="0" />
    </clipPath>
    <clipPath
       clipPathUnits="userSpaceOnUse"
       id="clipPath175795">
      <path
         d="M 0,0 H 576 V 903 H 0 Z"
         id="path175793"
         inkscape:connector-curvature="0" />
    </clipPath>
    <clipPath
       clipPathUnits="userSpaceOnUse"
       id="clipPath175805">
      <path
         d="m 188.957,375.793 h 7.484 v 6.754 h -7.484 z"
         id="path175803"
         inkscape:connector-curvature="0" />
    </clipPath>
    <clipPath
       clipPathUnits="userSpaceOnUse"
       id="clipPath175815">
      <path
         d="M 0,0 H 576 V 903 H 0 Z"
         id="path175813"
         inkscape:connector-curvature="0" />
    </clipPath>
    <clipPath
       clipPathUnits="userSpaceOnUse"
       id="clipPath175827">
      <path
         d="M 0,0 H 576 V 903 H 0 Z"
         id="path175825"
         inkscape:connector-curvature="0" />
    </clipPath>
    <clipPath
       clipPathUnits="userSpaceOnUse"
       id="clipPath175839">
      <path
         d="M 0,0 H 576 V 903 H 0 Z"
         id="path175837"
         inkscape:connector-curvature="0" />
    </clipPath>
    <clipPath
       clipPathUnits="userSpaceOnUse"
       id="clipPath175851">
      <path
         d="m 192.363,361.414 h 8.707 v 3.977 h -8.707 z"
         id="path175849"
         inkscape:connector-curvature="0" />
    </clipPath>
    <clipPath
       clipPathUnits="userSpaceOnUse"
       id="clipPath175861">
      <path
         d="M 0,0 H 576 V 903 H 0 Z"
         id="path175859"
         inkscape:connector-curvature="0" />
    </clipPath>
    <clipPath
       clipPathUnits="userSpaceOnUse"
       id="clipPath175873">
      <path
         d="M 0,0 H 576 V 903 H 0 Z"
         id="path175871"
         inkscape:connector-curvature="0" />
    </clipPath>
    <clipPath
       clipPathUnits="userSpaceOnUse"
       id="clipPath175885">
      <path
         d="M 0,0 H 576 V 903 H 0 Z"
         id="path175883"
         inkscape:connector-curvature="0" />
    </clipPath>
    <clipPath
       clipPathUnits="userSpaceOnUse"
       id="clipPath175895">
      <path
         d="m 192,361 h 10 v 5 h -10 z"
         id="path175893"
         inkscape:connector-curvature="0" />
    </clipPath>
    <clipPath
       clipPathUnits="userSpaceOnUse"
       id="clipPath175905">
      <path
         d="M 0,0 H 576 V 903 H 0 Z"
         id="path175903"
         inkscape:connector-curvature="0" />
    </clipPath>
    <clipPath
       clipPathUnits="userSpaceOnUse"
       id="clipPath175917">
      <path
         d="M 0,0 H 576 V 903 H 0 Z"
         id="path175915"
         inkscape:connector-curvature="0" />
    </clipPath>
    <clipPath
       clipPathUnits="userSpaceOnUse"
       id="clipPath175927">
      <path
         d="m 192,361 h 10 v 5 h -10 z"
         id="path175925"
         inkscape:connector-curvature="0" />
    </clipPath>
    <clipPath
       clipPathUnits="userSpaceOnUse"
       id="clipPath175937">
      <path
         d="M 0,0 H 576 V 903 H 0 Z"
         id="path175935"
         inkscape:connector-curvature="0" />
    </clipPath>
    <clipPath
       clipPathUnits="userSpaceOnUse"
       id="clipPath175947">
      <path
         d="m 192,361 h 10 v 5 h -10 z"
         id="path175945"
         inkscape:connector-curvature="0" />
    </clipPath>
    <clipPath
       clipPathUnits="userSpaceOnUse"
       id="clipPath175953">
      <path
         d="m 197.234,364.066 -4.871,-2.652 c 0.012,0.008 0.024,0.012 0.035,0.016 0.11,0.035 2.239,0.461 3.801,1.308 l 4.871,2.653 c -1.562,-0.852 -3.691,-1.274 -3.8,-1.309 -0.012,-0.004 -0.024,-0.012 -0.036,-0.016"
         id="path175951"
         inkscape:connector-curvature="0" />
    </clipPath>
    <clipPath
       clipPathUnits="userSpaceOnUse"
       id="clipPath175963">
      <path
         d="M 0,0 H 576 V 903 H 0 Z"
         id="path175961"
         inkscape:connector-curvature="0" />
    </clipPath>
    <clipPath
       clipPathUnits="userSpaceOnUse"
       id="clipPath175975">
      <path
         d="M 0,0 H 576 V 903 H 0 Z"
         id="path175973"
         inkscape:connector-curvature="0" />
    </clipPath>
    <clipPath
       clipPathUnits="userSpaceOnUse"
       id="clipPath175987">
      <path
         d="M 0,0 H 576 V 903 H 0 Z"
         id="path175985"
         inkscape:connector-curvature="0" />
    </clipPath>
    <clipPath
       clipPathUnits="userSpaceOnUse"
       id="clipPath175997">
      <path
         d="m 192.363,361.414 h 8.707 v 3.977 h -8.707 z"
         id="path175995"
         inkscape:connector-curvature="0" />
    </clipPath>
    <clipPath
       clipPathUnits="userSpaceOnUse"
       id="clipPath176007">
      <path
         d="M 0,0 H 576 V 903 H 0 Z"
         id="path176005"
         inkscape:connector-curvature="0" />
    </clipPath>
    <clipPath
       clipPathUnits="userSpaceOnUse"
       id="clipPath176019">
      <path
         d="M 0,0 H 576 V 903 H 0 Z"
         id="path176017"
         inkscape:connector-curvature="0" />
    </clipPath>
    <clipPath
       clipPathUnits="userSpaceOnUse"
       id="clipPath176031">
      <path
         d="M 0,0 H 576 V 903 H 0 Z"
         id="path176029"
         inkscape:connector-curvature="0" />
    </clipPath>
    <clipPath
       clipPathUnits="userSpaceOnUse"
       id="clipPath176051">
      <path
         d="m 177.215,379.297 h 5.105 v 5.414 h -5.105 z"
         id="path176049"
         inkscape:connector-curvature="0" />
    </clipPath>
    <clipPath
       clipPathUnits="userSpaceOnUse"
       id="clipPath176061">
      <path
         d="M 0,0 H 576 V 903 H 0 Z"
         id="path176059"
         inkscape:connector-curvature="0" />
    </clipPath>
    <clipPath
       clipPathUnits="userSpaceOnUse"
       id="clipPath176073">
      <path
         d="M 0,0 H 576 V 903 H 0 Z"
         id="path176071"
         inkscape:connector-curvature="0" />
    </clipPath>
    <clipPath
       clipPathUnits="userSpaceOnUse"
       id="clipPath176085">
      <path
         d="M 0,0 H 576 V 903 H 0 Z"
         id="path176083"
         inkscape:connector-curvature="0" />
    </clipPath>
    <clipPath
       clipPathUnits="userSpaceOnUse"
       id="clipPath176095">
      <path
         d="m 177,379 h 6 v 6 h -6 z"
         id="path176093"
         inkscape:connector-curvature="0" />
    </clipPath>
    <clipPath
       clipPathUnits="userSpaceOnUse"
       id="clipPath176105">
      <path
         d="M 0,0 H 576 V 903 H 0 Z"
         id="path176103"
         inkscape:connector-curvature="0" />
    </clipPath>
    <clipPath
       clipPathUnits="userSpaceOnUse"
       id="clipPath176117">
      <path
         d="M 0,0 H 576 V 903 H 0 Z"
         id="path176115"
         inkscape:connector-curvature="0" />
    </clipPath>
    <clipPath
       clipPathUnits="userSpaceOnUse"
       id="clipPath176127">
      <path
         d="m 177,379 h 6 v 6 h -6 z"
         id="path176125"
         inkscape:connector-curvature="0" />
    </clipPath>
    <clipPath
       clipPathUnits="userSpaceOnUse"
       id="clipPath176137">
      <path
         d="M 0,0 H 576 V 903 H 0 Z"
         id="path176135"
         inkscape:connector-curvature="0" />
    </clipPath>
    <clipPath
       clipPathUnits="userSpaceOnUse"
       id="clipPath176147">
      <path
         d="m 177,379 h 6 v 6 h -6 z"
         id="path176145"
         inkscape:connector-curvature="0" />
    </clipPath>
    <clipPath
       clipPathUnits="userSpaceOnUse"
       id="clipPath176153">
      <path
         d="m 182.32,384.711 -4.875,-2.648 c -0.433,-0.239 -0.129,-2.629 -0.109,-2.766 l 4.871,2.652 c -0.016,0.133 -0.32,2.528 0.113,2.762"
         id="path176151"
         inkscape:connector-curvature="0" />
    </clipPath>
    <clipPath
       clipPathUnits="userSpaceOnUse"
       id="clipPath176163">
      <path
         d="M 0,0 H 576 V 903 H 0 Z"
         id="path176161"
         inkscape:connector-curvature="0" />
    </clipPath>
    <clipPath
       clipPathUnits="userSpaceOnUse"
       id="clipPath176175">
      <path
         d="M 0,0 H 576 V 903 H 0 Z"
         id="path176173"
         inkscape:connector-curvature="0" />
    </clipPath>
    <clipPath
       clipPathUnits="userSpaceOnUse"
       id="clipPath176187">
      <path
         d="M 0,0 H 576 V 903 H 0 Z"
         id="path176185"
         inkscape:connector-curvature="0" />
    </clipPath>
    <clipPath
       clipPathUnits="userSpaceOnUse"
       id="clipPath176197">
      <path
         d="m 177.215,379.297 h 5.105 v 5.414 h -5.105 z"
         id="path176195"
         inkscape:connector-curvature="0" />
    </clipPath>
    <clipPath
       clipPathUnits="userSpaceOnUse"
       id="clipPath176207">
      <path
         d="M 0,0 H 576 V 903 H 0 Z"
         id="path176205"
         inkscape:connector-curvature="0" />
    </clipPath>
    <clipPath
       clipPathUnits="userSpaceOnUse"
       id="clipPath176219">
      <path
         d="M 0,0 H 576 V 903 H 0 Z"
         id="path176217"
         inkscape:connector-curvature="0" />
    </clipPath>
    <clipPath
       clipPathUnits="userSpaceOnUse"
       id="clipPath176231">
      <path
         d="M 0,0 H 576 V 903 H 0 Z"
         id="path176229"
         inkscape:connector-curvature="0" />
    </clipPath>
    <clipPath
       clipPathUnits="userSpaceOnUse"
       id="clipPath176243">
      <path
         d="m 188.75,356.617 h 7.063 v 2.922 h -7.063 z"
         id="path176241"
         inkscape:connector-curvature="0" />
    </clipPath>
    <clipPath
       clipPathUnits="userSpaceOnUse"
       id="clipPath176253">
      <path
         d="M 0,0 H 576 V 903 H 0 Z"
         id="path176251"
         inkscape:connector-curvature="0" />
    </clipPath>
    <clipPath
       clipPathUnits="userSpaceOnUse"
       id="clipPath176265">
      <path
         d="M 0,0 H 576 V 903 H 0 Z"
         id="path176263"
         inkscape:connector-curvature="0" />
    </clipPath>
    <clipPath
       clipPathUnits="userSpaceOnUse"
       id="clipPath176277">
      <path
         d="M 0,0 H 576 V 903 H 0 Z"
         id="path176275"
         inkscape:connector-curvature="0" />
    </clipPath>
    <clipPath
       clipPathUnits="userSpaceOnUse"
       id="clipPath176287">
      <path
         d="m 188,356 h 8 v 4 h -8 z"
         id="path176285"
         inkscape:connector-curvature="0" />
    </clipPath>
    <clipPath
       clipPathUnits="userSpaceOnUse"
       id="clipPath176297">
      <path
         d="M 0,0 H 576 V 903 H 0 Z"
         id="path176295"
         inkscape:connector-curvature="0" />
    </clipPath>
    <clipPath
       clipPathUnits="userSpaceOnUse"
       id="clipPath176309">
      <path
         d="M 0,0 H 576 V 903 H 0 Z"
         id="path176307"
         inkscape:connector-curvature="0" />
    </clipPath>
    <clipPath
       clipPathUnits="userSpaceOnUse"
       id="clipPath176319">
      <path
         d="m 188,356 h 8 v 4 h -8 z"
         id="path176317"
         inkscape:connector-curvature="0" />
    </clipPath>
    <clipPath
       clipPathUnits="userSpaceOnUse"
       id="clipPath176329">
      <path
         d="M 0,0 H 576 V 903 H 0 Z"
         id="path176327"
         inkscape:connector-curvature="0" />
    </clipPath>
    <clipPath
       clipPathUnits="userSpaceOnUse"
       id="clipPath176339">
      <path
         d="m 188,356 h 8 v 4 h -8 z"
         id="path176337"
         inkscape:connector-curvature="0" />
    </clipPath>
    <clipPath
       clipPathUnits="userSpaceOnUse"
       id="clipPath176345">
      <path
         d="m 190.938,356.887 4.875,2.652 c -0.555,-0.305 -1.286,-0.328 -2.192,-0.199 l -4.871,-2.652 c 0.906,-0.125 1.637,-0.102 2.188,0.199"
         id="path176343"
         inkscape:connector-curvature="0" />
    </clipPath>
    <clipPath
       clipPathUnits="userSpaceOnUse"
       id="clipPath176355">
      <path
         d="M 0,0 H 576 V 903 H 0 Z"
         id="path176353"
         inkscape:connector-curvature="0" />
    </clipPath>
    <clipPath
       clipPathUnits="userSpaceOnUse"
       id="clipPath176367">
      <path
         d="M 0,0 H 576 V 903 H 0 Z"
         id="path176365"
         inkscape:connector-curvature="0" />
    </clipPath>
    <clipPath
       clipPathUnits="userSpaceOnUse"
       id="clipPath176379">
      <path
         d="M 0,0 H 576 V 903 H 0 Z"
         id="path176377"
         inkscape:connector-curvature="0" />
    </clipPath>
    <clipPath
       clipPathUnits="userSpaceOnUse"
       id="clipPath176389">
      <path
         d="m 188.75,356.617 h 7.063 v 2.922 h -7.063 z"
         id="path176387"
         inkscape:connector-curvature="0" />
    </clipPath>
    <clipPath
       clipPathUnits="userSpaceOnUse"
       id="clipPath176399">
      <path
         d="M 0,0 H 576 V 903 H 0 Z"
         id="path176397"
         inkscape:connector-curvature="0" />
    </clipPath>
    <clipPath
       clipPathUnits="userSpaceOnUse"
       id="clipPath176411">
      <path
         d="M 0,0 H 576 V 903 H 0 Z"
         id="path176409"
         inkscape:connector-curvature="0" />
    </clipPath>
    <clipPath
       clipPathUnits="userSpaceOnUse"
       id="clipPath176423">
      <path
         d="M 0,0 H 576 V 903 H 0 Z"
         id="path176421"
         inkscape:connector-curvature="0" />
    </clipPath>
    <clipPath
       clipPathUnits="userSpaceOnUse"
       id="clipPath176439">
      <path
         d="m 177.336,368.984 h 11.355 v 12.965 h -11.355 z"
         id="path176437"
         inkscape:connector-curvature="0" />
    </clipPath>
    <clipPath
       clipPathUnits="userSpaceOnUse"
       id="clipPath176449">
      <path
         d="M 0,0 H 576 V 903 H 0 Z"
         id="path176447"
         inkscape:connector-curvature="0" />
    </clipPath>
    <clipPath
       clipPathUnits="userSpaceOnUse"
       id="clipPath176461">
      <path
         d="M 0,0 H 576 V 903 H 0 Z"
         id="path176459"
         inkscape:connector-curvature="0" />
    </clipPath>
    <clipPath
       clipPathUnits="userSpaceOnUse"
       id="clipPath176473">
      <path
         d="M 0,0 H 576 V 903 H 0 Z"
         id="path176471"
         inkscape:connector-curvature="0" />
    </clipPath>
    <clipPath
       clipPathUnits="userSpaceOnUse"
       id="clipPath176483">
      <path
         d="m 177,368 h 12 v 14 h -12 z"
         id="path176481"
         inkscape:connector-curvature="0" />
    </clipPath>
    <clipPath
       clipPathUnits="userSpaceOnUse"
       id="clipPath176493">
      <path
         d="M 0,0 H 576 V 903 H 0 Z"
         id="path176491"
         inkscape:connector-curvature="0" />
    </clipPath>
    <clipPath
       clipPathUnits="userSpaceOnUse"
       id="clipPath176505">
      <path
         d="M 0,0 H 576 V 903 H 0 Z"
         id="path176503"
         inkscape:connector-curvature="0" />
    </clipPath>
    <clipPath
       clipPathUnits="userSpaceOnUse"
       id="clipPath176515">
      <path
         d="m 177,368 h 12 v 14 h -12 z"
         id="path176513"
         inkscape:connector-curvature="0" />
    </clipPath>
    <clipPath
       clipPathUnits="userSpaceOnUse"
       id="clipPath176525">
      <path
         d="M 0,0 H 576 V 903 H 0 Z"
         id="path176523"
         inkscape:connector-curvature="0" />
    </clipPath>
    <clipPath
       clipPathUnits="userSpaceOnUse"
       id="clipPath176535">
      <path
         d="m 177,368 h 12 v 14 h -12 z"
         id="path176533"
         inkscape:connector-curvature="0" />
    </clipPath>
    <clipPath
       clipPathUnits="userSpaceOnUse"
       id="clipPath176541">
      <path
         d="m 183.598,368.984 4.871,2.649 c 0.242,0.133 0.386,0.402 -0.11,0.953 -2.132,2.383 -4.734,4.668 -6.152,9.363 l -4.871,-2.652 c 1.418,-4.692 4.016,-6.977 6.152,-9.359 0.492,-0.551 0.352,-0.825 0.11,-0.954"
         id="path176539"
         inkscape:connector-curvature="0" />
    </clipPath>
    <clipPath
       clipPathUnits="userSpaceOnUse"
       id="clipPath176551">
      <path
         d="M 0,0 H 576 V 903 H 0 Z"
         id="path176549"
         inkscape:connector-curvature="0" />
    </clipPath>
    <clipPath
       clipPathUnits="userSpaceOnUse"
       id="clipPath176563">
      <path
         d="M 0,0 H 576 V 903 H 0 Z"
         id="path176561"
         inkscape:connector-curvature="0" />
    </clipPath>
    <clipPath
       clipPathUnits="userSpaceOnUse"
       id="clipPath176575">
      <path
         d="M 0,0 H 576 V 903 H 0 Z"
         id="path176573"
         inkscape:connector-curvature="0" />
    </clipPath>
    <clipPath
       clipPathUnits="userSpaceOnUse"
       id="clipPath176585">
      <path
         d="m 177.336,368.984 h 11.355 v 12.965 h -11.355 z"
         id="path176583"
         inkscape:connector-curvature="0" />
    </clipPath>
    <clipPath
       clipPathUnits="userSpaceOnUse"
       id="clipPath176595">
      <path
         d="M 0,0 H 576 V 903 H 0 Z"
         id="path176593"
         inkscape:connector-curvature="0" />
    </clipPath>
    <clipPath
       clipPathUnits="userSpaceOnUse"
       id="clipPath176607">
      <path
         d="M 0,0 H 576 V 903 H 0 Z"
         id="path176605"
         inkscape:connector-curvature="0" />
    </clipPath>
    <clipPath
       clipPathUnits="userSpaceOnUse"
       id="clipPath176619">
      <path
         d="M 0,0 H 576 V 903 H 0 Z"
         id="path176617"
         inkscape:connector-curvature="0" />
    </clipPath>
    <clipPath
       clipPathUnits="userSpaceOnUse"
       id="clipPath176647">
      <path
         d="m 185.07,362.188 h 5 v 2.922 h -5 z"
         id="path176645"
         inkscape:connector-curvature="0" />
    </clipPath>
    <clipPath
       clipPathUnits="userSpaceOnUse"
       id="clipPath176657">
      <path
         d="M 0,0 H 576 V 903 H 0 Z"
         id="path176655"
         inkscape:connector-curvature="0" />
    </clipPath>
    <clipPath
       clipPathUnits="userSpaceOnUse"
       id="clipPath176669">
      <path
         d="M 0,0 H 576 V 903 H 0 Z"
         id="path176667"
         inkscape:connector-curvature="0" />
    </clipPath>
    <clipPath
       clipPathUnits="userSpaceOnUse"
       id="clipPath176681">
      <path
         d="M 0,0 H 576 V 903 H 0 Z"
         id="path176679"
         inkscape:connector-curvature="0" />
    </clipPath>
    <clipPath
       clipPathUnits="userSpaceOnUse"
       id="clipPath176691">
      <path
         d="m 185,362 h 6 v 4 h -6 z"
         id="path176689"
         inkscape:connector-curvature="0" />
    </clipPath>
    <clipPath
       clipPathUnits="userSpaceOnUse"
       id="clipPath176701">
      <path
         d="M 0,0 H 576 V 903 H 0 Z"
         id="path176699"
         inkscape:connector-curvature="0" />
    </clipPath>
    <clipPath
       clipPathUnits="userSpaceOnUse"
       id="clipPath176713">
      <path
         d="M 0,0 H 576 V 903 H 0 Z"
         id="path176711"
         inkscape:connector-curvature="0" />
    </clipPath>
    <clipPath
       clipPathUnits="userSpaceOnUse"
       id="clipPath176723">
      <path
         d="m 185,362 h 6 v 4 h -6 z"
         id="path176721"
         inkscape:connector-curvature="0" />
    </clipPath>
    <clipPath
       clipPathUnits="userSpaceOnUse"
       id="clipPath176733">
      <path
         d="M 0,0 H 576 V 903 H 0 Z"
         id="path176731"
         inkscape:connector-curvature="0" />
    </clipPath>
    <clipPath
       clipPathUnits="userSpaceOnUse"
       id="clipPath176743">
      <path
         d="m 185,362 h 6 v 4 h -6 z"
         id="path176741"
         inkscape:connector-curvature="0" />
    </clipPath>
    <clipPath
       clipPathUnits="userSpaceOnUse"
       id="clipPath176749">
      <path
         d="m 189.941,365.109 -4.871,-2.648 c 0.176,-0.102 0.121,-0.266 0.121,-0.273 l 4.872,2.648 c 0.003,0.008 0.054,0.172 -0.122,0.273"
         id="path176747"
         inkscape:connector-curvature="0" />
    </clipPath>
    <clipPath
       clipPathUnits="userSpaceOnUse"
       id="clipPath176759">
      <path
         d="M 0,0 H 576 V 903 H 0 Z"
         id="path176757"
         inkscape:connector-curvature="0" />
    </clipPath>
    <clipPath
       clipPathUnits="userSpaceOnUse"
       id="clipPath176771">
      <path
         d="M 0,0 H 576 V 903 H 0 Z"
         id="path176769"
         inkscape:connector-curvature="0" />
    </clipPath>
    <clipPath
       clipPathUnits="userSpaceOnUse"
       id="clipPath176783">
      <path
         d="M 0,0 H 576 V 903 H 0 Z"
         id="path176781"
         inkscape:connector-curvature="0" />
    </clipPath>
    <clipPath
       clipPathUnits="userSpaceOnUse"
       id="clipPath176793">
      <path
         d="m 185.07,362.188 h 5 v 2.922 h -5 z"
         id="path176791"
         inkscape:connector-curvature="0" />
    </clipPath>
    <clipPath
       clipPathUnits="userSpaceOnUse"
       id="clipPath176803">
      <path
         d="M 0,0 H 576 V 903 H 0 Z"
         id="path176801"
         inkscape:connector-curvature="0" />
    </clipPath>
    <clipPath
       clipPathUnits="userSpaceOnUse"
       id="clipPath176815">
      <path
         d="M 0,0 H 576 V 903 H 0 Z"
         id="path176813"
         inkscape:connector-curvature="0" />
    </clipPath>
    <clipPath
       clipPathUnits="userSpaceOnUse"
       id="clipPath176827">
      <path
         d="M 0,0 H 576 V 903 H 0 Z"
         id="path176825"
         inkscape:connector-curvature="0" />
    </clipPath>
    <clipPath
       clipPathUnits="userSpaceOnUse"
       id="clipPath176851">
      <path
         d="m 185.191,356.688 h 8.43 v 8.148 h -8.43 z"
         id="path176849"
         inkscape:connector-curvature="0" />
    </clipPath>
    <clipPath
       clipPathUnits="userSpaceOnUse"
       id="clipPath176861">
      <path
         d="M 0,0 H 576 V 903 H 0 Z"
         id="path176859"
         inkscape:connector-curvature="0" />
    </clipPath>
    <clipPath
       clipPathUnits="userSpaceOnUse"
       id="clipPath176873">
      <path
         d="M 0,0 H 576 V 903 H 0 Z"
         id="path176871"
         inkscape:connector-curvature="0" />
    </clipPath>
    <clipPath
       clipPathUnits="userSpaceOnUse"
       id="clipPath176885">
      <path
         d="M 0,0 H 576 V 903 H 0 Z"
         id="path176883"
         inkscape:connector-curvature="0" />
    </clipPath>
    <clipPath
       clipPathUnits="userSpaceOnUse"
       id="clipPath176895">
      <path
         d="m 185,356 h 9 v 9 h -9 z"
         id="path176893"
         inkscape:connector-curvature="0" />
    </clipPath>
    <clipPath
       clipPathUnits="userSpaceOnUse"
       id="clipPath176905">
      <path
         d="M 0,0 H 576 V 903 H 0 Z"
         id="path176903"
         inkscape:connector-curvature="0" />
    </clipPath>
    <clipPath
       clipPathUnits="userSpaceOnUse"
       id="clipPath176917">
      <path
         d="M 0,0 H 576 V 903 H 0 Z"
         id="path176915"
         inkscape:connector-curvature="0" />
    </clipPath>
    <clipPath
       clipPathUnits="userSpaceOnUse"
       id="clipPath176927">
      <path
         d="m 185,356 h 9 v 9 h -9 z"
         id="path176925"
         inkscape:connector-curvature="0" />
    </clipPath>
    <clipPath
       clipPathUnits="userSpaceOnUse"
       id="clipPath176937">
      <path
         d="M 0,0 H 576 V 903 H 0 Z"
         id="path176935"
         inkscape:connector-curvature="0" />
    </clipPath>
    <clipPath
       clipPathUnits="userSpaceOnUse"
       id="clipPath176947">
      <path
         d="m 185,356 h 9 v 9 h -9 z"
         id="path176945"
         inkscape:connector-curvature="0" />
    </clipPath>
    <clipPath
       clipPathUnits="userSpaceOnUse"
       id="clipPath176953">
      <path
         d="m 190.063,364.836 -4.872,-2.648 c 0.008,-4.11 1.149,-5.161 3.559,-5.5 l 4.871,2.652 c -2.41,0.34 -3.551,1.39 -3.558,5.496"
         id="path176951"
         inkscape:connector-curvature="0" />
    </clipPath>
    <clipPath
       clipPathUnits="userSpaceOnUse"
       id="clipPath176963">
      <path
         d="M 0,0 H 576 V 903 H 0 Z"
         id="path176961"
         inkscape:connector-curvature="0" />
    </clipPath>
    <clipPath
       clipPathUnits="userSpaceOnUse"
       id="clipPath176975">
      <path
         d="M 0,0 H 576 V 903 H 0 Z"
         id="path176973"
         inkscape:connector-curvature="0" />
    </clipPath>
    <clipPath
       clipPathUnits="userSpaceOnUse"
       id="clipPath176987">
      <path
         d="M 0,0 H 576 V 903 H 0 Z"
         id="path176985"
         inkscape:connector-curvature="0" />
    </clipPath>
    <clipPath
       clipPathUnits="userSpaceOnUse"
       id="clipPath176997">
      <path
         d="m 185.191,356.688 h 8.43 v 8.148 h -8.43 z"
         id="path176995"
         inkscape:connector-curvature="0" />
    </clipPath>
    <clipPath
       clipPathUnits="userSpaceOnUse"
       id="clipPath177007">
      <path
         d="M 0,0 H 576 V 903 H 0 Z"
         id="path177005"
         inkscape:connector-curvature="0" />
    </clipPath>
    <clipPath
       clipPathUnits="userSpaceOnUse"
       id="clipPath177019">
      <path
         d="M 0,0 H 576 V 903 H 0 Z"
         id="path177017"
         inkscape:connector-curvature="0" />
    </clipPath>
    <clipPath
       clipPathUnits="userSpaceOnUse"
       id="clipPath177031">
      <path
         d="M 0,0 H 576 V 903 H 0 Z"
         id="path177029"
         inkscape:connector-curvature="0" />
    </clipPath>
    <clipPath
       clipPathUnits="userSpaceOnUse"
       id="clipPath177057">
      <path
         d="m 179.613,362.461 h 10.328 v 8.695 h -10.328 z"
         id="path177055"
         inkscape:connector-curvature="0" />
    </clipPath>
    <clipPath
       clipPathUnits="userSpaceOnUse"
       id="clipPath177067">
      <path
         d="M 0,0 H 576 V 903 H 0 Z"
         id="path177065"
         inkscape:connector-curvature="0" />
    </clipPath>
    <clipPath
       clipPathUnits="userSpaceOnUse"
       id="clipPath177079">
      <path
         d="M 0,0 H 576 V 903 H 0 Z"
         id="path177077"
         inkscape:connector-curvature="0" />
    </clipPath>
    <clipPath
       clipPathUnits="userSpaceOnUse"
       id="clipPath177091">
      <path
         d="M 0,0 H 576 V 903 H 0 Z"
         id="path177089"
         inkscape:connector-curvature="0" />
    </clipPath>
    <clipPath
       clipPathUnits="userSpaceOnUse"
       id="clipPath177101">
      <path
         d="m 179,362 h 11 v 10 h -11 z"
         id="path177099"
         inkscape:connector-curvature="0" />
    </clipPath>
    <clipPath
       clipPathUnits="userSpaceOnUse"
       id="clipPath177111">
      <path
         d="M 0,0 H 576 V 903 H 0 Z"
         id="path177109"
         inkscape:connector-curvature="0" />
    </clipPath>
    <clipPath
       clipPathUnits="userSpaceOnUse"
       id="clipPath177123">
      <path
         d="M 0,0 H 576 V 903 H 0 Z"
         id="path177121"
         inkscape:connector-curvature="0" />
    </clipPath>
    <clipPath
       clipPathUnits="userSpaceOnUse"
       id="clipPath177133">
      <path
         d="m 179,362 h 11 v 10 h -11 z"
         id="path177131"
         inkscape:connector-curvature="0" />
    </clipPath>
    <clipPath
       clipPathUnits="userSpaceOnUse"
       id="clipPath177143">
      <path
         d="M 0,0 H 576 V 903 H 0 Z"
         id="path177141"
         inkscape:connector-curvature="0" />
    </clipPath>
    <clipPath
       clipPathUnits="userSpaceOnUse"
       id="clipPath177153">
      <path
         d="m 179,362 h 11 v 10 h -11 z"
         id="path177151"
         inkscape:connector-curvature="0" />
    </clipPath>
    <clipPath
       clipPathUnits="userSpaceOnUse"
       id="clipPath177159">
      <path
         d="m 185.23,371.156 -4.871,-2.648 c -0.48,-0.262 -0.808,-0.692 -0.734,-1.391 0.23,-2.14 5.277,-4.554 5.445,-4.656 l 4.871,2.648 c -0.168,0.106 -5.214,2.516 -5.445,4.657 -0.074,0.699 0.254,1.129 0.734,1.39"
         id="path177157"
         inkscape:connector-curvature="0" />
    </clipPath>
    <clipPath
       clipPathUnits="userSpaceOnUse"
       id="clipPath177169">
      <path
         d="M 0,0 H 576 V 903 H 0 Z"
         id="path177167"
         inkscape:connector-curvature="0" />
    </clipPath>
    <clipPath
       clipPathUnits="userSpaceOnUse"
       id="clipPath177181">
      <path
         d="M 0,0 H 576 V 903 H 0 Z"
         id="path177179"
         inkscape:connector-curvature="0" />
    </clipPath>
    <clipPath
       clipPathUnits="userSpaceOnUse"
       id="clipPath177193">
      <path
         d="M 0,0 H 576 V 903 H 0 Z"
         id="path177191"
         inkscape:connector-curvature="0" />
    </clipPath>
    <clipPath
       clipPathUnits="userSpaceOnUse"
       id="clipPath177203">
      <path
         d="m 179.613,362.461 h 10.328 v 8.695 h -10.328 z"
         id="path177201"
         inkscape:connector-curvature="0" />
    </clipPath>
    <clipPath
       clipPathUnits="userSpaceOnUse"
       id="clipPath177213">
      <path
         d="M 0,0 H 576 V 903 H 0 Z"
         id="path177211"
         inkscape:connector-curvature="0" />
    </clipPath>
    <clipPath
       clipPathUnits="userSpaceOnUse"
       id="clipPath177225">
      <path
         d="M 0,0 H 576 V 903 H 0 Z"
         id="path177223"
         inkscape:connector-curvature="0" />
    </clipPath>
    <clipPath
       clipPathUnits="userSpaceOnUse"
       id="clipPath177237">
      <path
         d="M 0,0 H 576 V 903 H 0 Z"
         id="path177235"
         inkscape:connector-curvature="0" />
    </clipPath>
  </defs>
  <sodipodi:namedview
     id="base"
     pagecolor="#ffffff"
     bordercolor="#666666"
     borderopacity="1.0"
     inkscape:pageopacity="0.0"
     inkscape:pageshadow="2"
     inkscape:zoom="5.6"
     inkscape:cx="-27.603684"
     inkscape:cy="21.863756"
     inkscape:document-units="mm"
     inkscape:current-layer="layer1"
     showgrid="false"
     inkscape:window-width="1920"
     inkscape:window-height="1017"
     inkscape:window-x="-8"
     inkscape:window-y="-8"
     inkscape:window-maximized="1" />
  <metadata
     id="metadata635117">
    <rdf:RDF>
      <cc:Work
         rdf:about="">
        <dc:format>image/svg+xml</dc:format>
        <dc:type
           rdf:resource="http://purl.org/dc/dcmitype/StillImage" />
        <dc:title />
      </cc:Work>
    </rdf:RDF>
  </metadata>
  <g
     inkscape:label="Ebene 1"
     inkscape:groupmode="layer"
     id="layer1"
     transform="translate(-80.809287,-121.4418)">
    <g
       id="g7223"
       inkscape:label="Mayor_blue"
       style="display:inline;stroke-width:0.91553819"
       transform="matrix(1.1294853,0,0,1.0562494,-10.473858,-7.4242374)">
      <path
         d="m 80.929266,129.8791 c 0.493536,-1.5173 1.408289,-2.06587 2.157942,-2.69557 0.317147,-0.266 -0.118533,-0.41064 -0.141817,-0.41875 -0.06491,-0.0109 -1.304925,-0.22895 -1.227666,-0.9592 0.02893,-0.26741 0.285044,-0.48366 0.60078,-0.65194 -0.0071,0.004 -0.01517,0.007 -0.02222,0.0113 l 1.383595,-0.75247 c 0.02081,-0.76342 0.176388,-1.15218 0.472722,-1.31198 l 0.0028,-10e-4 c 0,-0.001 0.0014,-0.001 0.0028,-0.001 l 1.712736,-0.93133 c 0.0081,-0.006 0.01658,-0.01 0.02469,-0.0138 0.03457,-0.0166 0.07055,-0.0279 0.109008,-0.0402 0.0095,-0.003 0.01799,-0.007 0.02752,-0.01 0.0028,0 0.0042,-0.001 0.0056,-0.003 0.0067,-0.001 0.01517,0 0.02187,-0.001 0.06915,-0.0166 0.144639,-0.0233 0.22472,-0.0247 0.02187,-0.001 0.04692,-0.001 0.0702,-0.001 0.09102,0.003 0.184855,0.008 0.288219,0.0222 0.213431,0.03 0.397933,0.0755 0.555272,0.14993 0.04939,0.0236 0.0949,0.0511 0.137584,0.0801 0.0056,0.003 0.01129,0.005 0.01517,0.008 0.0099,0.007 0.01799,0.0138 0.02752,0.0222 0.01799,0.0123 0.03598,0.0261 0.05397,0.0413 0.0053,0.006 0.01235,0.008 0.01658,0.0138 0.01235,0.01 0.02328,0.0222 0.03281,0.0332 0.01129,0.0109 0.02364,0.0219 0.03316,0.0332 0.0042,0.004 0.0085,0.007 0.01094,0.0109 0.01517,0.018 0.02893,0.0356 0.04304,0.055 0.0081,0.01 0.01623,0.0194 0.02328,0.0289 0.0014,10e-4 0.0028,0.003 0.0042,0.006 0.01094,0.0152 0.02046,0.0328 0.03175,0.0508 0.01235,0.0208 0.0247,0.0388 0.03704,0.0607 0,0 0,0.001 0.0014,0.003 0.0014,0.003 0.0028,0.008 0.0042,0.0109 0.02469,0.0455 0.04551,0.0938 0.06597,0.14605 0.0014,0.007 0.0056,0.0123 0.0085,0.0194 0.0025,0.01 0.0053,0.0219 0.0095,0.0332 0.01658,0.0508 0.03316,0.10584 0.04833,0.16404 0.0025,0.0148 0.0081,0.03 0.01235,0.0466 0.01658,0.0744 0.03034,0.15452 0.04269,0.23989 0.0014,0.0166 0.0028,0.036 0.0053,0.0522 0.0085,0.073 0.01517,0.14887 0.02081,0.23037 0.0028,0.0261 0.0042,0.0522 0.0056,0.0783 0.0053,0.10231 0.0081,0.20673 0.0095,0.32279 -0.0014,0 -0.0014,0.005 -0.0028,0.0123 0,0.002 0,0.005 0,0.008 0,0.007 0.0014,0.0138 0.0042,0.0236 0.0014,0.007 0.0028,0.0138 0.0081,0.0219 0,0 0,10e-4 0,10e-4 0.0085,0.01 0.01799,0.0208 0.03175,0.0289 0.01094,0.007 0.09102,0.0469 0.208139,0.10901 0.0014,0 0.0042,0.001 0.0056,0.002 0.03563,0.0194 0.07585,0.0402 0.118533,0.0635 0.01094,0.007 0.02328,0.0138 0.03563,0.0208 0.03598,0.0191 0.07161,0.0399 0.110419,0.0617 0.01658,0.01 0.03422,0.0208 0.05362,0.0303 0.03457,0.0208 0.0702,0.0416 0.107598,0.0649 0.02187,0.0123 0.04269,0.0261 0.06456,0.0384 0.03598,0.0222 0.07161,0.0441 0.109008,0.0677 0.02187,0.0152 0.04551,0.0303 0.06879,0.0455 0.03598,0.0233 0.07161,0.0466 0.107597,0.0716 0.0095,0.007 0.0194,0.0138 0.03034,0.019 0.0095,0.008 0.0194,0.0152 0.03034,0.0236 0.05221,0.0356 0.103364,0.0744 0.154164,0.11289 0.02081,0.0138 0.0388,0.0289 0.05785,0.0441 0.137936,0.1076 0.263173,0.21908 0.369359,0.33479 0.0085,0.008 0.01799,0.0166 0.02505,0.025 0.01094,0.0138 0.02046,0.0261 0.02999,0.0385 0.02081,0.0233 0.03881,0.0469 0.0568,0.0702 0.0081,0.0113 0.01764,0.0222 0.02611,0.0332 0.01235,0.018 0.02046,0.0346 0.03175,0.0512 0.0095,0.0152 0.01764,0.0289 0.02611,0.0427 0.0042,0.007 0.0095,0.0138 0.01376,0.0205 0.0194,0.0374 0.03598,0.073 0.04974,0.11042 0.01623,0.0469 0.02893,0.0935 0.03281,0.14041 0.02646,0.24659 -0.08961,0.39828 -0.258939,0.49071 l -1.045986,0.56903 c 0.110419,0.12277 0.223308,0.24518 0.339019,0.36936 0.08537,0.0924 0.170745,0.18591 0.25647,0.28257 0.02611,0.0275 0.0508,0.0536 0.07549,0.0811 0.02081,0.025 0.04163,0.0511 0.0635,0.0758 0.04974,0.0579 0.100542,0.11712 0.151694,0.17921 0.04939,0.0607 0.09913,0.12277 0.148873,0.18591 0.04939,0.0635 0.09772,0.12842 0.14605,0.19297 0.02328,0.0332 0.04692,0.0621 0.0702,0.0952 0.03598,0.0494 0.0702,0.10478 0.104775,0.1584 0.02046,0.0318 0.04269,0.0621 0.06209,0.0935 0.07444,0.11747 0.14605,0.23706 0.214842,0.36547 0.0071,0.0109 0.01235,0.0233 0.01799,0.0342 0.01799,0.0346 0.03422,0.0716 0.05221,0.10619 0.05644,0.11289 0.11183,0.23283 0.165452,0.35701 0.02222,0.0508 0.04269,0.10478 0.0635,0.15699 0.01764,0.0455 0.03845,0.0868 0.05503,0.13229 0.04269,0.11994 0.08396,0.24271 0.122766,0.37077 0.0067,0.0483 0.1143,0.89147 -0.0388,0.97578 l -1.718381,0.93416 c -0.01094,0.006 -0.02328,0.008 -0.03563,0.007 l -2.71215,-0.38171 c -0.02469,-0.002 -0.246591,-0.0427 -0.402519,-0.35524 -0.01623,-0.0346 -0.222956,-0.44239 -0.404989,-0.81033 l -1.430514,0.77858 c 0.0014,-0.001 0.0014,-0.001 0.0028,-0.003 -0.103362,0.0579 -0.195791,0.0483 -0.212019,0.0455 l -2.710743,-0.38029 c -0.202495,-0.0289 -0.08396,-0.95356 -0.07726,-1.00189 z"
         style="fill:none;fill-opacity:1;stroke:#000000;stroke-width:0.14007735;stroke-linecap:round;stroke-linejoin:round;stroke-miterlimit:4;stroke-dasharray:none;stroke-opacity:1"
         id="path175607"
         inkscape:connector-curvature="0" />
      <path
         d="m 80.929266,129.8791 c 0.493536,-1.5173 1.408289,-2.06587 2.157942,-2.69557 0.317147,-0.266 -0.118533,-0.41064 -0.141817,-0.41875 -0.06491,-0.0109 -1.304925,-0.22895 -1.227666,-0.9592 0.02893,-0.26741 0.285044,-0.48366 0.60078,-0.65194 -0.0071,0.004 -0.01517,0.007 -0.02222,0.0113 l 1.383595,-0.75247 c 0.02081,-0.76342 0.176388,-1.15218 0.472722,-1.31198 l 0.0028,-10e-4 c 0,-0.001 0.0014,-0.001 0.0028,-0.001 l 1.712736,-0.93133 c 0.0081,-0.006 0.01658,-0.01 0.02469,-0.0138 0.03457,-0.0166 0.07055,-0.0279 0.109008,-0.0402 0.0095,-0.003 0.01799,-0.007 0.02752,-0.01 0.0028,0 0.0042,-0.001 0.0056,-0.003 0.0067,-0.001 0.01517,0 0.02187,-0.001 0.06915,-0.0166 0.144639,-0.0233 0.22472,-0.0247 0.02187,-0.001 0.04692,-0.001 0.0702,-0.001 0.09102,0.003 0.184855,0.008 0.288219,0.0222 0.213431,0.03 0.397933,0.0755 0.555272,0.14993 0.04939,0.0236 0.0949,0.0511 0.137584,0.0801 0.0056,0.003 0.01129,0.005 0.01517,0.008 0.0099,0.007 0.01799,0.0138 0.02752,0.0222 0.01799,0.0123 0.03598,0.0261 0.05397,0.0413 0.0053,0.006 0.01235,0.008 0.01658,0.0138 0.01235,0.01 0.02328,0.0222 0.03281,0.0332 0.01129,0.0109 0.02364,0.0219 0.03316,0.0332 0.0042,0.004 0.0085,0.007 0.01094,0.0109 0.01517,0.018 0.02893,0.0356 0.04304,0.055 0.0081,0.01 0.01623,0.0194 0.02328,0.0289 0.0014,10e-4 0.0028,0.003 0.0042,0.006 0.01094,0.0152 0.02046,0.0328 0.03175,0.0508 0.01235,0.0208 0.0247,0.0388 0.03704,0.0607 0,0 0,0.001 0.0014,0.003 0.0014,0.003 0.0028,0.008 0.0042,0.0109 0.02469,0.0455 0.04551,0.0938 0.06597,0.14605 0.0014,0.007 0.0056,0.0123 0.0085,0.0194 0.0025,0.01 0.0053,0.0219 0.0095,0.0332 0.01658,0.0508 0.03316,0.10584 0.04833,0.16404 0.0025,0.0148 0.0081,0.03 0.01235,0.0466 0.01658,0.0744 0.03034,0.15452 0.04269,0.23989 0.0014,0.0166 0.0028,0.036 0.0053,0.0522 0.0085,0.073 0.01517,0.14887 0.02081,0.23037 0.0028,0.0261 0.0042,0.0522 0.0056,0.0783 0.0053,0.10231 0.0081,0.20673 0.0095,0.32279 -0.0014,0 -0.0014,0.005 -0.0028,0.0123 0,0.002 0,0.005 0,0.008 0,0.007 0.0014,0.0138 0.0042,0.0236 0.0014,0.007 0.0028,0.0138 0.0081,0.0219 0,0 0,10e-4 0,10e-4 0.0085,0.01 0.01799,0.0208 0.03175,0.0289 0.01094,0.007 0.09102,0.0469 0.208139,0.10901 0.0014,0 0.0042,0.001 0.0056,0.002 0.03563,0.0194 0.07585,0.0402 0.118534,0.0635 0.01094,0.007 0.02328,0.0138 0.03563,0.0208 0.03598,0.0191 0.07161,0.0399 0.11042,0.0617 0.01658,0.01 0.03422,0.0208 0.05362,0.0303 0.03457,0.0208 0.0702,0.0416 0.107599,0.0649 0.02187,0.0123 0.04269,0.0261 0.06456,0.0384 0.03598,0.0222 0.07161,0.0441 0.109009,0.0677 0.02187,0.0152 0.04551,0.0303 0.06879,0.0455 0.03598,0.0233 0.07161,0.0466 0.107597,0.0716 0.0095,0.007 0.0194,0.0138 0.03034,0.019 0.0095,0.008 0.0194,0.0152 0.03034,0.0236 0.05221,0.0356 0.103364,0.0744 0.154164,0.11289 0.02081,0.0138 0.0388,0.0289 0.05785,0.0441 0.137936,0.1076 0.263172,0.21908 0.369358,0.33479 0.0085,0.008 0.01799,0.0166 0.02505,0.025 0.01094,0.0138 0.02046,0.0261 0.02999,0.0385 0.02081,0.0233 0.03881,0.0469 0.0568,0.0702 0.0081,0.0113 0.01764,0.0222 0.02611,0.0332 0.01235,0.018 0.02046,0.0346 0.03175,0.0512 0.0095,0.0152 0.01764,0.0289 0.02611,0.0427 0.0042,0.007 0.0095,0.0138 0.01376,0.0205 0.0194,0.0374 0.03598,0.073 0.04974,0.11042 0.01623,0.0469 0.02893,0.0935 0.03281,0.14041 0.02646,0.24659 -0.08961,0.39828 -0.258938,0.49071 l -1.045987,0.56903 c 0.110419,0.12277 0.223309,0.24518 0.339019,0.36936 0.08537,0.0924 0.170745,0.18591 0.25647,0.28257 0.02611,0.0275 0.0508,0.0536 0.07549,0.0811 0.02081,0.025 0.04163,0.0511 0.0635,0.0758 0.04974,0.0579 0.100543,0.11712 0.151694,0.17921 0.04939,0.0607 0.09913,0.12277 0.148874,0.18591 0.04939,0.0635 0.09772,0.12842 0.14605,0.19297 0.02328,0.0332 0.04692,0.0621 0.0702,0.0952 0.03598,0.0494 0.0702,0.10478 0.104775,0.1584 0.02046,0.0318 0.04269,0.0621 0.06209,0.0935 0.07444,0.11747 0.14605,0.23706 0.214843,0.36547 0.0071,0.0109 0.01235,0.0233 0.01799,0.0342 0.01799,0.0346 0.03422,0.0716 0.05221,0.10619 0.0564,0.11289 0.11183,0.23283 0.16545,0.35701 0.0222,0.0508 0.0427,0.10478 0.0635,0.15699 0.0176,0.0455 0.0384,0.0868 0.055,0.13229 0.0427,0.11994 0.084,0.24271 0.12277,0.37077 0.007,0.0483 0.1143,0.89147 -0.0388,0.97578 l -1.718384,0.93416 c -0.01094,0.006 -0.02328,0.008 -0.03563,0.007 l -2.712153,-0.38171 c -0.02469,-0.002 -0.246591,-0.0427 -0.402519,-0.35524 -0.01623,-0.0346 -0.222956,-0.44239 -0.404989,-0.81033 l -1.430514,0.77858 c 0.0014,-0.001 0.0014,-0.001 0.0028,-0.003 -0.103361,0.0579 -0.19579,0.0483 -0.212018,0.0455 l -2.710743,-0.38029 c -0.202495,-0.0289 -0.08396,-0.95356 -0.07726,-1.00189 z"
         style="display:inline;fill:#004978;fill-opacity:1;stroke:none;stroke-width:0.14007735;stroke-linecap:round;stroke-linejoin:round;stroke-miterlimit:4;stroke-dasharray:none;stroke-opacity:1"
         id="path175607-9"
         inkscape:connector-curvature="0" />
      <path
         inkscape:connector-curvature="0"
         id="path177257"
         style="fill:#0072bc;fill-opacity:1;fill-rule:nonzero;stroke:#000000;stroke-width:0.04852352;stroke-miterlimit:4;stroke-dasharray:none;stroke-opacity:1"
         d="m 84.946355,123.01898 c -0.847372,-0.11994 -1.251302,0.13759 -1.24848,1.5875 0.0014,0.003 0.02046,0.066 -0.03881,0.0854 -0.05927,0.0194 -1.842205,0.36935 -1.919464,1.10243 -0.07867,0.73025 1.161698,0.94826 1.22802,0.9592 0.02187,0.007 0.4572,0.15275 0.138994,0.41875 -0.748241,0.6297 -1.661936,1.17827 -2.15653,2.69416 -0.0056,0.0497 -0.125589,0.97437 0.07832,1.0033 l 2.706512,0.38029 c 0.02752,0.004 0.252236,0.0261 0.40393,-0.23988 0.02752,-0.0469 0.555272,-0.94933 0.668161,-1.1684 0.02223,-0.0427 0.04692,-0.10619 0.151695,-0.0981 0.104775,0.0222 0.129469,0.0924 0.153105,0.14076 0.112889,0.25083 0.644878,1.3021 0.672395,1.35714 0.151694,0.30868 0.377472,0.3489 0.402519,0.35278 l 2.711803,0.3817 c 0.202494,0.0279 0.08114,-0.92992 0.07444,-0.98107 -0.500239,-1.6563 -1.418167,-2.46239 -2.170289,-3.30306 -0.319969,-0.3556 0.115711,-0.37889 0.137583,-0.3803 0.06632,0.007 1.306336,0.13759 1.225198,-0.61454 -0.08149,-0.75529 -1.861609,-1.60549 -1.920875,-1.64288 -0.06209,-0.0356 -0.0441,-0.0935 -0.04304,-0.0963 -0.0025,-1.44851 -0.404989,-1.81892 -1.255184,-1.93887" />
    </g>
  </g>
</svg>
